<?xml version="1.0" encoding="UTF-8" standalone="no"?><svg xmlns="http://www.w3.org/2000/svg" xmlns:xlink="http://www.w3.org/1999/xlink" contentStyleType="text/css" height="265px" preserveAspectRatio="none" style="width:728px;height:265px;background:#FFFFFF;" version="1.1" viewBox="0 0 728 265" width="728px" zoomAndPan="magnify"><defs/><g><!--MD5=[02e4b9b7573f1156f41e60aa5b4e25a4]
class Company--><g id="elem_Company"><rect codeLine="7" fill="#F1F1F1" height="57.6094" id="Company" rx="2.5" ry="2.5" style="stroke:#181818;stroke-width:0.5;" width="92" x="7" y="103.5"/><ellipse cx="22" cy="119.5" fill="#ADD1B2" rx="11" ry="11" style="stroke:#181818;stroke-width:1.0;"/><path d="M24,116 Q24.2031,115.5 24.4375,115.25 Q24.6719,115 24.9375,115 Q25.4063,115 25.7031,115.2813 Q26,115.5625 26,116.2188 L26,117.7813 Q26,118.4375 25.7188,118.7188 Q25.4375,119 25,119 Q24.6094,119 24.3594,118.8281 Q24.1094,118.6563 24,118.2031 Q23.9531,117.8906 23.7813,117.7188 Q23.4688,117.3906 22.9063,117.2031 Q22.3438,117 21.7813,117 Q21.0781,117 20.4844,117.2813 Q19.9063,117.5625 19.4531,118.1875 Q19,118.8125 19,119.6719 L19,120.5938 Q19,121.625 19.8438,122.3125 Q20.6875,123 22.1875,123 Q23.0781,123 23.7031,122.7969 Q24.0625,122.6875 24.4688,122.3281 Q24.7344,122.125 24.875,122.0625 Q25.0156,122 25.1875,122 Q25.5156,122 25.75,122.2656 Q26,122.5156 26,122.875 Q26,123.2188 25.6563,123.625 Q25.1563,124.2188 24.3594,124.5469 Q23.3125,125 22.0313,125 Q20.5313,125 19.3281,124.4063 Q18.3594,123.9375 17.6719,122.9219 Q17,121.9063 17,120.7031 L17,119.6094 Q17,118.3594 17.5938,117.2656 Q18.2031,116.1719 19.25,115.5938 Q20.3125,115 21.5,115 Q22.2188,115 22.8438,115.25 Q23.4688,115.5 24,116 Z " fill="#000000"/><text fill="#000000" font-family="sans-serif" font-size="14" lengthAdjust="spacing" textLength="60" x="36" y="125.2285">Company</text><line style="stroke:#181818;stroke-width:0.5;" x1="8" x2="98" y1="135.5" y2="135.5"/><text fill="#000000" font-family="sans-serif" font-size="14" lengthAdjust="spacing" textLength="73" x="13" y="154.0332">designation</text></g><!--MD5=[34d3c570b40518c1cea5f6b14957d435]
class LegacySystemData--><g id="elem_LegacySystemData"><rect codeLine="21" fill="#F1F1F1" height="251.3125" id="LegacySystemData" rx="2.5" ry="2.5" style="stroke:#181818;stroke-width:0.5;" width="239" x="182" y="7"/><ellipse cx="236.25" cy="23" fill="#ADD1B2" rx="11" ry="11" style="stroke:#181818;stroke-width:1.0;"/><path d="M238.25,19.5 Q238.4531,19 238.6875,18.75 Q238.9219,18.5 239.1875,18.5 Q239.6563,18.5 239.9531,18.7813 Q240.25,19.0625 240.25,19.7188 L240.25,21.2813 Q240.25,21.9375 239.9688,22.2188 Q239.6875,22.5 239.25,22.5 Q238.8594,22.5 238.6094,22.3281 Q238.3594,22.1563 238.25,21.7031 Q238.2031,21.3906 238.0313,21.2188 Q237.7188,20.8906 237.1563,20.7031 Q236.5938,20.5 236.0313,20.5 Q235.3281,20.5 234.7344,20.7813 Q234.1563,21.0625 233.7031,21.6875 Q233.25,22.3125 233.25,23.1719 L233.25,24.0938 Q233.25,25.125 234.0938,25.8125 Q234.9375,26.5 236.4375,26.5 Q237.3281,26.5 237.9531,26.2969 Q238.3125,26.1875 238.7188,25.8281 Q238.9844,25.625 239.125,25.5625 Q239.2656,25.5 239.4375,25.5 Q239.7656,25.5 240,25.7656 Q240.25,26.0156 240.25,26.375 Q240.25,26.7188 239.9063,27.125 Q239.4063,27.7188 238.6094,28.0469 Q237.5625,28.5 236.2813,28.5 Q234.7813,28.5 233.5781,27.9063 Q232.6094,27.4375 231.9219,26.4219 Q231.25,25.4063 231.25,24.2031 L231.25,23.1094 Q231.25,21.8594 231.8438,20.7656 Q232.4531,19.6719 233.5,19.0938 Q234.5625,18.5 235.75,18.5 Q236.4688,18.5 237.0938,18.75 Q237.7188,19 238.25,19.5 Z " fill="#000000"/><text fill="#000000" font-family="sans-serif" font-size="14" lengthAdjust="spacing" textLength="122" x="256.75" y="28.7285">LegacySystemData</text><line style="stroke:#181818;stroke-width:0.5;" x1="183" x2="420" y1="39" y2="39"/><text fill="#000000" font-family="sans-serif" font-size="14" lengthAdjust="spacing" textLength="227" x="188" y="57.5332">List&lt;LegacySystemData&gt; listLegacy</text><text fill="#000000" font-family="sans-serif" font-size="14" lengthAdjust="spacing" textLength="192" x="188" y="75.1426">List&lt;Object&gt; listSortAlgorithms</text><text fill="#000000" font-family="sans-serif" font-size="14" lengthAdjust="spacing" textLength="163" x="188" y="92.752">List&lt;Object&gt; listSortOrder</text><text fill="#000000" font-family="sans-serif" font-size="14" lengthAdjust="spacing" textLength="216" x="188" y="110.3613">List&lt;Object&gt; listSortArrivalLeaving</text><text fill="#000000" font-family="sans-serif" font-size="14" lengthAdjust="spacing" textLength="100" x="188" y="127.9707">snsUserNumber</text><text fill="#000000" font-family="sans-serif" font-size="14" lengthAdjust="spacing" textLength="84" x="188" y="145.5801">vaccineName</text><text fill="#000000" font-family="sans-serif" font-size="14" lengthAdjust="spacing" textLength="31" x="188" y="163.1895">dose</text><text fill="#000000" font-family="sans-serif" font-size="14" lengthAdjust="spacing" textLength="64" x="188" y="180.7988">lotNumber</text><text fill="#000000" font-family="sans-serif" font-size="14" lengthAdjust="spacing" textLength="126" x="188" y="198.4082">scheduledDateTime</text><text fill="#000000" font-family="sans-serif" font-size="14" lengthAdjust="spacing" textLength="100" x="188" y="216.0176">arrivalDateTime</text><text fill="#000000" font-family="sans-serif" font-size="14" lengthAdjust="spacing" textLength="156" x="188" y="233.627">nurseAdministrationTime</text><text fill="#000000" font-family="sans-serif" font-size="14" lengthAdjust="spacing" textLength="106" x="188" y="251.2363">leavingDateTime</text></g><!--MD5=[295fdc4cd5f21f4e9975987a1717c643]
class LegacySystemDataReader--><g id="elem_LegacySystemDataReader"><rect codeLine="16" fill="#F1F1F1" height="40" id="LegacySystemDataReader" rx="2.5" ry="2.5" style="stroke:#181818;stroke-width:0.5;" width="201" x="520" y="112.5"/><ellipse cx="535" cy="128.5" fill="#ADD1B2" rx="11" ry="11" style="stroke:#181818;stroke-width:1.0;"/><path d="M537,125 Q537.2031,124.5 537.4375,124.25 Q537.6719,124 537.9375,124 Q538.4063,124 538.7031,124.2813 Q539,124.5625 539,125.2188 L539,126.7813 Q539,127.4375 538.7188,127.7188 Q538.4375,128 538,128 Q537.6094,128 537.3594,127.8281 Q537.1094,127.6563 537,127.2031 Q536.9531,126.8906 536.7813,126.7188 Q536.4688,126.3906 535.9063,126.2031 Q535.3438,126 534.7813,126 Q534.0781,126 533.4844,126.2813 Q532.9063,126.5625 532.4531,127.1875 Q532,127.8125 532,128.6719 L532,129.5938 Q532,130.625 532.8438,131.3125 Q533.6875,132 535.1875,132 Q536.0781,132 536.7031,131.7969 Q537.0625,131.6875 537.4688,131.3281 Q537.7344,131.125 537.875,131.0625 Q538.0156,131 538.1875,131 Q538.5156,131 538.75,131.2656 Q539,131.5156 539,131.875 Q539,132.2188 538.6563,132.625 Q538.1563,133.2188 537.3594,133.5469 Q536.3125,134 535.0313,134 Q533.5313,134 532.3281,133.4063 Q531.3594,132.9375 530.6719,131.9219 Q530,130.9063 530,129.7031 L530,128.6094 Q530,127.3594 530.5938,126.2656 Q531.2031,125.1719 532.25,124.5938 Q533.3125,124 534.5,124 Q535.2188,124 535.8438,124.25 Q536.4688,124.5 537,125 Z " fill="#000000"/><text fill="#000000" font-family="sans-serif" font-size="14" lengthAdjust="spacing" textLength="169" x="549" y="134.2285">LegacySystemDataReader</text><line style="stroke:#181818;stroke-width:0.5;" x1="521" x2="720" y1="144.5" y2="144.5"/></g><!--MD5=[62c9f16606a59c1effdc86a6e9940554]
link Company to LegacySystemData--><g id="link_Company_LegacySystemData"><path codeLine="12" d="M99.21,132.5 C121.26,132.5 148.97,132.5 176.71,132.5 " fill="none" id="Company-to-LegacySystemData" style="stroke:#181818;stroke-width:1.0;"/><polygon fill="#181818" points="181.89,132.5,172.89,128.5,176.89,132.5,172.89,136.5,181.89,132.5" style="stroke:#181818;stroke-width:1.0;"/><text fill="#000000" font-family="sans-serif" font-size="13" lengthAdjust="spacing" textLength="21" x="130" y="128.9951">has</text><text fill="#000000" font-family="sans-serif" font-size="13" lengthAdjust="spacing" textLength="7" x="107.1325" y="147.3293">1</text><text fill="#000000" font-family="sans-serif" font-size="13" lengthAdjust="spacing" textLength="5" x="169.0673" y="146.5089">*</text></g><!--MD5=[29548a5846168f798c878a3a91b91faa]
link LegacySystemData to LegacySystemDataReader--><g id="link_LegacySystemData_LegacySystemDataReader"><path codeLine="14" d="M421.44,132.5 C452.08,132.5 484.83,132.5 514.69,132.5 " fill="none" id="LegacySystemData-to-LegacySystemDataReader" style="stroke:#181818;stroke-width:1.0;"/><polygon fill="#181818" points="519.85,132.5,510.85,128.5,514.85,132.5,510.85,136.5,519.85,132.5" style="stroke:#181818;stroke-width:1.0;"/><text fill="#000000" font-family="sans-serif" font-size="13" lengthAdjust="spacing" textLength="37" x="452" y="128.9951">knows</text><text fill="#000000" font-family="sans-serif" font-size="13" lengthAdjust="spacing" textLength="7" x="428.9621" y="146.4838">1</text><text fill="#000000" font-family="sans-serif" font-size="13" lengthAdjust="spacing" textLength="7" x="504.876" y="146.6211">1</text></g><!--MD5=[5cf5e9d9d3c39bdcb67f267710a80bce]
@startuml
hide methods
left to right direction
skinparam classAttributeIconSize 0



class Company{
designation
}


Company "1"- ->"*"LegacySystemData :has

LegacySystemData "1"- ->"1" LegacySystemDataReader : knows

class LegacySystemDataReader{
csvReaderLegacyData(String fileName)
createLegacySystemData(String[] attributes)
}

class LegacySystemData {
List<LegacySystemData> listLegacy
      List<Object> listSortAlgorithms
      List<Object> listSortOrder
      List<Object> listSortArrivalLeaving
snsUserNumber
vaccineName
dose
lotNumber
scheduledDateTime
arrivalDateTime
nurseAdministrationTime
leavingDateTime
}

@enduml

PlantUML version 1.2022.5(Sat Apr 30 11:55:52 BST 2022)
(GPL source distribution)
Java Runtime: OpenJDK Runtime Environment
JVM: OpenJDK 64-Bit Server VM
Default Encoding: Cp1252
Language: en
Country: GB
--></g></svg>