<?xml version="1.0" encoding="UTF-8" standalone="no"?><svg xmlns="http://www.w3.org/2000/svg" xmlns:xlink="http://www.w3.org/1999/xlink" contentStyleType="text/css" height="1327px" preserveAspectRatio="none" style="width:501px;height:1327px;background:#FFFFFF;" version="1.1" viewBox="0 0 501 1327" width="501px" zoomAndPan="magnify"><defs/><g><!--MD5=[0b4e4b4980470ea387cc45de9bd14b5b]
class Application--><g id="elem_Application"><rect codeLine="3" fill="#F1F1F1" height="83.2188" id="Application" rx="2.5" ry="2.5" style="stroke:#181818;stroke-width:0.5;" width="140" x="151.5" y="454"/><ellipse cx="184.05" cy="470" fill="#ADD1B2" rx="11" ry="11" style="stroke:#181818;stroke-width:1.0;"/><path d="M186.05,466.5 Q186.2531,466 186.4875,465.75 Q186.7219,465.5 186.9875,465.5 Q187.4563,465.5 187.7531,465.7813 Q188.05,466.0625 188.05,466.7188 L188.05,468.2813 Q188.05,468.9375 187.7688,469.2188 Q187.4875,469.5 187.05,469.5 Q186.6594,469.5 186.4094,469.3281 Q186.1594,469.1563 186.05,468.7031 Q186.0031,468.3906 185.8313,468.2188 Q185.5188,467.8906 184.9563,467.7031 Q184.3938,467.5 183.8313,467.5 Q183.1281,467.5 182.5344,467.7813 Q181.9563,468.0625 181.5031,468.6875 Q181.05,469.3125 181.05,470.1719 L181.05,471.0938 Q181.05,472.125 181.8938,472.8125 Q182.7375,473.5 184.2375,473.5 Q185.1281,473.5 185.7531,473.2969 Q186.1125,473.1875 186.5188,472.8281 Q186.7844,472.625 186.925,472.5625 Q187.0656,472.5 187.2375,472.5 Q187.5656,472.5 187.8,472.7656 Q188.05,473.0156 188.05,473.375 Q188.05,473.7188 187.7063,474.125 Q187.2063,474.7188 186.4094,475.0469 Q185.3625,475.5 184.0813,475.5 Q182.5813,475.5 181.3781,474.9063 Q180.4094,474.4375 179.7219,473.4219 Q179.05,472.4063 179.05,471.2031 L179.05,470.1094 Q179.05,468.8594 179.6438,467.7656 Q180.2531,466.6719 181.3,466.0938 Q182.3625,465.5 183.55,465.5 Q184.2688,465.5 184.8938,465.75 Q185.5188,466 186.05,466.5 Z " fill="#000000"/><text fill="#000000" font-family="sans-serif" font-size="14" lengthAdjust="spacing" textLength="69" x="201.95" y="475.7285">Application</text><line style="stroke:#181818;stroke-width:0.5;" x1="152.5" x2="290.5" y1="486" y2="486"/><line style="stroke:#181818;stroke-width:0.5;" x1="152.5" x2="290.5" y1="494" y2="494"/><text fill="#000000" font-family="sans-serif" font-size="14" lengthAdjust="spacing" textLength="128" x="157.5" y="512.5332">+static getInstance()</text><text fill="#000000" font-family="sans-serif" font-size="14" lengthAdjust="spacing" textLength="98" x="157.5" y="530.1426">+getCompany()</text></g><!--MD5=[34d3c570b40518c1cea5f6b14957d435]
class LegacySystemData--><g id="elem_LegacySystemData"><rect codeLine="39" fill="#F1F1F1" height="400.1875" id="LegacySystemData" rx="2.5" ry="2.5" style="stroke:#181818;stroke-width:0.5;" width="361" x="7" y="759"/><ellipse cx="122.25" cy="775" fill="#ADD1B2" rx="11" ry="11" style="stroke:#181818;stroke-width:1.0;"/><path d="M124.25,771.5 Q124.4531,771 124.6875,770.75 Q124.9219,770.5 125.1875,770.5 Q125.6563,770.5 125.9531,770.7813 Q126.25,771.0625 126.25,771.7188 L126.25,773.2813 Q126.25,773.9375 125.9688,774.2188 Q125.6875,774.5 125.25,774.5 Q124.8594,774.5 124.6094,774.3281 Q124.3594,774.1563 124.25,773.7031 Q124.2031,773.3906 124.0313,773.2188 Q123.7188,772.8906 123.1563,772.7031 Q122.5938,772.5 122.0313,772.5 Q121.3281,772.5 120.7344,772.7813 Q120.1563,773.0625 119.7031,773.6875 Q119.25,774.3125 119.25,775.1719 L119.25,776.0938 Q119.25,777.125 120.0938,777.8125 Q120.9375,778.5 122.4375,778.5 Q123.3281,778.5 123.9531,778.2969 Q124.3125,778.1875 124.7188,777.8281 Q124.9844,777.625 125.125,777.5625 Q125.2656,777.5 125.4375,777.5 Q125.7656,777.5 126,777.7656 Q126.25,778.0156 126.25,778.375 Q126.25,778.7188 125.9063,779.125 Q125.4063,779.7188 124.6094,780.0469 Q123.5625,780.5 122.2813,780.5 Q120.7813,780.5 119.5781,779.9063 Q118.6094,779.4375 117.9219,778.4219 Q117.25,777.4063 117.25,776.2031 L117.25,775.1094 Q117.25,773.8594 117.8438,772.7656 Q118.4531,771.6719 119.5,771.0938 Q120.5625,770.5 121.75,770.5 Q122.4688,770.5 123.0938,770.75 Q123.7188,771 124.25,771.5 Z " fill="#000000"/><text fill="#000000" font-family="sans-serif" font-size="14" lengthAdjust="spacing" textLength="122" x="142.75" y="780.7285">LegacySystemData</text><line style="stroke:#181818;stroke-width:0.5;" x1="8" x2="367" y1="791" y2="791"/><text fill="#000000" font-family="sans-serif" font-size="14" lengthAdjust="spacing" textLength="227" x="13" y="809.5332">List&lt;LegacySystemData&gt; listLegacy</text><text fill="#000000" font-family="sans-serif" font-size="14" lengthAdjust="spacing" textLength="192" x="13" y="827.1426">List&lt;Object&gt; listSortAlgorithms</text><text fill="#000000" font-family="sans-serif" font-size="14" lengthAdjust="spacing" textLength="163" x="13" y="844.752">List&lt;Object&gt; listSortOrder</text><text fill="#000000" font-family="sans-serif" font-size="14" lengthAdjust="spacing" textLength="216" x="13" y="862.3613">List&lt;Object&gt; listSortArrivalLeaving</text><text fill="#000000" font-family="sans-serif" font-size="14" lengthAdjust="spacing" textLength="124" x="13" y="879.9707">-int snsUserNumber</text><text fill="#000000" font-family="sans-serif" font-size="14" lengthAdjust="spacing" textLength="130" x="13" y="897.5801">-String vaccineName</text><text fill="#000000" font-family="sans-serif" font-size="14" lengthAdjust="spacing" textLength="77" x="13" y="915.1895">-String dose</text><text fill="#000000" font-family="sans-serif" font-size="14" lengthAdjust="spacing" textLength="110" x="13" y="932.7988">-String lotNumber</text><text fill="#000000" font-family="sans-serif" font-size="14" lengthAdjust="spacing" textLength="165" x="13" y="950.4082">-Date scheduledDateTime</text><text fill="#000000" font-family="sans-serif" font-size="14" lengthAdjust="spacing" textLength="139" x="13" y="968.0176">-Date arrivalDateTime</text><text fill="#000000" font-family="sans-serif" font-size="14" lengthAdjust="spacing" textLength="195" x="13" y="985.627">-Date nurseAdministrationTime</text><text fill="#000000" font-family="sans-serif" font-size="14" lengthAdjust="spacing" textLength="145" x="13" y="1003.2363">-Date leavingDateTime</text><line style="stroke:#181818;stroke-width:0.5;" x1="8" x2="367" y1="1010.3125" y2="1010.3125"/><text fill="#000000" font-family="sans-serif" font-size="14" lengthAdjust="spacing" textLength="349" x="13" y="1028.8457">+sortByParameters(String sortChoice, String sortOrder,</text><text fill="#000000" font-family="sans-serif" font-size="14" lengthAdjust="spacing" textLength="287" x="17" y="1046.4551">String sortArrivalLeaving, List listLegacyData)</text><text fill="#000000" font-family="sans-serif" font-size="14" lengthAdjust="spacing" textLength="110" x="13" y="1064.0645">+getLeavingList()</text><text fill="#000000" font-family="sans-serif" font-size="14" lengthAdjust="spacing" textLength="100" x="13" y="1081.6738">+getArrivalList()</text><text fill="#000000" font-family="sans-serif" font-size="14" lengthAdjust="spacing" textLength="145" x="13" y="1099.2832">+getListSorted(List list)</text><text fill="#000000" font-family="sans-serif" font-size="14" lengthAdjust="spacing" textLength="67" x="13" y="1116.8926">+toString()</text><text fill="#000000" font-family="sans-serif" font-size="14" lengthAdjust="spacing" textLength="323" x="13" y="1134.502">+bubbleSortArrayList(List&lt;LegacySystemData&gt; list,</text><text fill="#000000" font-family="sans-serif" font-size="14" lengthAdjust="spacing" textLength="202" x="17" y="1152.1113">Boolean ascending, int position)</text></g><!--MD5=[02e4b9b7573f1156f41e60aa5b4e25a4]
class Company--><g id="elem_Company"><rect codeLine="33" fill="#F1F1F1" height="83.2188" id="Company" rx="2.5" ry="2.5" style="stroke:#181818;stroke-width:0.5;" width="195" x="90" y="598"/><ellipse cx="153.25" cy="614" fill="#ADD1B2" rx="11" ry="11" style="stroke:#181818;stroke-width:1.0;"/><path d="M155.25,610.5 Q155.4531,610 155.6875,609.75 Q155.9219,609.5 156.1875,609.5 Q156.6563,609.5 156.9531,609.7813 Q157.25,610.0625 157.25,610.7188 L157.25,612.2813 Q157.25,612.9375 156.9688,613.2188 Q156.6875,613.5 156.25,613.5 Q155.8594,613.5 155.6094,613.3281 Q155.3594,613.1563 155.25,612.7031 Q155.2031,612.3906 155.0313,612.2188 Q154.7188,611.8906 154.1563,611.7031 Q153.5938,611.5 153.0313,611.5 Q152.3281,611.5 151.7344,611.7813 Q151.1563,612.0625 150.7031,612.6875 Q150.25,613.3125 150.25,614.1719 L150.25,615.0938 Q150.25,616.125 151.0938,616.8125 Q151.9375,617.5 153.4375,617.5 Q154.3281,617.5 154.9531,617.2969 Q155.3125,617.1875 155.7188,616.8281 Q155.9844,616.625 156.125,616.5625 Q156.2656,616.5 156.4375,616.5 Q156.7656,616.5 157,616.7656 Q157.25,617.0156 157.25,617.375 Q157.25,617.7188 156.9063,618.125 Q156.4063,618.7188 155.6094,619.0469 Q154.5625,619.5 153.2813,619.5 Q151.7813,619.5 150.5781,618.9063 Q149.6094,618.4375 148.9219,617.4219 Q148.25,616.4063 148.25,615.2031 L148.25,614.1094 Q148.25,612.8594 148.8438,611.7656 Q149.4531,610.6719 150.5,610.0938 Q151.5625,609.5 152.75,609.5 Q153.4688,609.5 154.0938,609.75 Q154.7188,610 155.25,610.5 Z " fill="#000000"/><text fill="#000000" font-family="sans-serif" font-size="14" lengthAdjust="spacing" textLength="60" x="173.75" y="619.7285">Company</text><line style="stroke:#181818;stroke-width:0.5;" x1="91" x2="284" y1="630" y2="630"/><line style="stroke:#181818;stroke-width:0.5;" x1="91" x2="284" y1="638" y2="638"/><text fill="#000000" font-family="sans-serif" font-size="14" lengthAdjust="spacing" textLength="148" x="96" y="656.5332">+getVaccinatedToFile()</text><text fill="#000000" font-family="sans-serif" font-size="14" lengthAdjust="spacing" textLength="183" x="96" y="674.1426">+getUsersVaccineSchedule()</text></g><!--MD5=[295fdc4cd5f21f4e9975987a1717c643]
class LegacySystemDataReader--><g id="elem_LegacySystemDataReader"><rect codeLine="43" fill="#F1F1F1" height="83.2188" id="LegacySystemDataReader" rx="2.5" ry="2.5" style="stroke:#181818;stroke-width:0.5;" width="300" x="154.5" y="1237"/><ellipse cx="215.75" cy="1253" fill="#ADD1B2" rx="11" ry="11" style="stroke:#181818;stroke-width:1.0;"/><path d="M217.75,1249.5 Q217.9531,1249 218.1875,1248.75 Q218.4219,1248.5 218.6875,1248.5 Q219.1563,1248.5 219.4531,1248.7813 Q219.75,1249.0625 219.75,1249.7188 L219.75,1251.2813 Q219.75,1251.9375 219.4688,1252.2188 Q219.1875,1252.5 218.75,1252.5 Q218.3594,1252.5 218.1094,1252.3281 Q217.8594,1252.1563 217.75,1251.7031 Q217.7031,1251.3906 217.5313,1251.2188 Q217.2188,1250.8906 216.6563,1250.7031 Q216.0938,1250.5 215.5313,1250.5 Q214.8281,1250.5 214.2344,1250.7813 Q213.6563,1251.0625 213.2031,1251.6875 Q212.75,1252.3125 212.75,1253.1719 L212.75,1254.0938 Q212.75,1255.125 213.5938,1255.8125 Q214.4375,1256.5 215.9375,1256.5 Q216.8281,1256.5 217.4531,1256.2969 Q217.8125,1256.1875 218.2188,1255.8281 Q218.4844,1255.625 218.625,1255.5625 Q218.7656,1255.5 218.9375,1255.5 Q219.2656,1255.5 219.5,1255.7656 Q219.75,1256.0156 219.75,1256.375 Q219.75,1256.7188 219.4063,1257.125 Q218.9063,1257.7188 218.1094,1258.0469 Q217.0625,1258.5 215.7813,1258.5 Q214.2813,1258.5 213.0781,1257.9063 Q212.1094,1257.4375 211.4219,1256.4219 Q210.75,1255.4063 210.75,1254.2031 L210.75,1253.1094 Q210.75,1251.8594 211.3438,1250.7656 Q211.9531,1249.6719 213,1249.0938 Q214.0625,1248.5 215.25,1248.5 Q215.9688,1248.5 216.5938,1248.75 Q217.2188,1249 217.75,1249.5 Z " fill="#000000"/><text fill="#000000" font-family="sans-serif" font-size="14" lengthAdjust="spacing" textLength="169" x="236.25" y="1258.7285">LegacySystemDataReader</text><line style="stroke:#181818;stroke-width:0.5;" x1="155.5" x2="453.5" y1="1269" y2="1269"/><line style="stroke:#181818;stroke-width:0.5;" x1="155.5" x2="453.5" y1="1277" y2="1277"/><text fill="#000000" font-family="sans-serif" font-size="14" lengthAdjust="spacing" textLength="257" x="160.5" y="1295.5332">+csvReaderLegacyData(String fileName)</text><text fill="#000000" font-family="sans-serif" font-size="14" lengthAdjust="spacing" textLength="288" x="160.5" y="1313.1426">+createLegacySystemData(String[] attributes)</text></g><!--MD5=[180d81641c10b949acb35528cda033f0]
class LegacySystemDataController--><g id="elem_LegacySystemDataController"><rect codeLine="52" fill="#F1F1F1" height="276.9219" id="LegacySystemDataController" rx="2.5" ry="2.5" style="stroke:#181818;stroke-width:0.5;" width="361" x="133" y="116"/><ellipse cx="217.25" cy="132" fill="#ADD1B2" rx="11" ry="11" style="stroke:#181818;stroke-width:1.0;"/><path d="M219.25,128.5 Q219.4531,128 219.6875,127.75 Q219.9219,127.5 220.1875,127.5 Q220.6563,127.5 220.9531,127.7813 Q221.25,128.0625 221.25,128.7188 L221.25,130.2813 Q221.25,130.9375 220.9688,131.2188 Q220.6875,131.5 220.25,131.5 Q219.8594,131.5 219.6094,131.3281 Q219.3594,131.1563 219.25,130.7031 Q219.2031,130.3906 219.0313,130.2188 Q218.7188,129.8906 218.1563,129.7031 Q217.5938,129.5 217.0313,129.5 Q216.3281,129.5 215.7344,129.7813 Q215.1563,130.0625 214.7031,130.6875 Q214.25,131.3125 214.25,132.1719 L214.25,133.0938 Q214.25,134.125 215.0938,134.8125 Q215.9375,135.5 217.4375,135.5 Q218.3281,135.5 218.9531,135.2969 Q219.3125,135.1875 219.7188,134.8281 Q219.9844,134.625 220.125,134.5625 Q220.2656,134.5 220.4375,134.5 Q220.7656,134.5 221,134.7656 Q221.25,135.0156 221.25,135.375 Q221.25,135.7188 220.9063,136.125 Q220.4063,136.7188 219.6094,137.0469 Q218.5625,137.5 217.2813,137.5 Q215.7813,137.5 214.5781,136.9063 Q213.6094,136.4375 212.9219,135.4219 Q212.25,134.4063 212.25,133.2031 L212.25,132.1094 Q212.25,130.8594 212.8438,129.7656 Q213.4531,128.6719 214.5,128.0938 Q215.5625,127.5 216.75,127.5 Q217.4688,127.5 218.0938,127.75 Q218.7188,128 219.25,128.5 Z " fill="#000000"/><text fill="#000000" font-family="sans-serif" font-size="14" lengthAdjust="spacing" textLength="184" x="237.75" y="137.7285">LegacySystemDataController</text><line style="stroke:#181818;stroke-width:0.5;" x1="134" x2="493" y1="148" y2="148"/><text fill="#000000" font-family="sans-serif" font-size="14" lengthAdjust="spacing" textLength="71" x="139" y="166.5332">-App oApp;</text><text fill="#000000" font-family="sans-serif" font-size="14" lengthAdjust="spacing" textLength="137" x="139" y="184.1426">-Company oCompany</text><line style="stroke:#181818;stroke-width:0.5;" x1="134" x2="493" y1="191.2188" y2="191.2188"/><text fill="#000000" font-family="sans-serif" font-size="14" lengthAdjust="spacing" textLength="300" x="139" y="209.752">+newLegacySystemDataReader(String filePath)</text><text fill="#000000" font-family="sans-serif" font-size="14" lengthAdjust="spacing" textLength="182" x="139" y="227.3613">+getListLegacySystemData()</text><text fill="#000000" font-family="sans-serif" font-size="14" lengthAdjust="spacing" textLength="130" x="139" y="244.9707">+getSortAlgorithms()</text><text fill="#000000" font-family="sans-serif" font-size="14" lengthAdjust="spacing" textLength="129" x="139" y="262.5801">+setSortAlgorithms()</text><text fill="#000000" font-family="sans-serif" font-size="14" lengthAdjust="spacing" textLength="101" x="139" y="280.1895">+getSortOrder()</text><text fill="#000000" font-family="sans-serif" font-size="14" lengthAdjust="spacing" textLength="100" x="139" y="297.7988">+setSortOrder()</text><text fill="#000000" font-family="sans-serif" font-size="14" lengthAdjust="spacing" textLength="154" x="139" y="315.4082">+getSortArrivalLeaving()</text><text fill="#000000" font-family="sans-serif" font-size="14" lengthAdjust="spacing" textLength="153" x="139" y="333.0176">+setSortArrivalLeaving()</text><text fill="#000000" font-family="sans-serif" font-size="14" lengthAdjust="spacing" textLength="110" x="139" y="350.627">+getLeavingList()</text><text fill="#000000" font-family="sans-serif" font-size="14" lengthAdjust="spacing" textLength="349" x="139" y="368.2363">+sortByParameters(String sortChoice, String sortOrder,</text><text fill="#000000" font-family="sans-serif" font-size="14" lengthAdjust="spacing" textLength="287" x="143" y="385.8457">String sortArrivalLeaving, List listLegacyData)</text></g><!--MD5=[bb659b2df0b2a781bfcdf907719d1067]
class LegacySystemDataUI--><g id="elem_LegacySystemDataUI"><rect codeLine="68" fill="#F1F1F1" height="48" id="LegacySystemDataUI" rx="2.5" ry="2.5" style="stroke:#181818;stroke-width:0.5;" width="166" x="230.5" y="7"/><ellipse cx="245.5" cy="23" fill="#ADD1B2" rx="11" ry="11" style="stroke:#181818;stroke-width:1.0;"/><path d="M247.5,19.5 Q247.7031,19 247.9375,18.75 Q248.1719,18.5 248.4375,18.5 Q248.9063,18.5 249.2031,18.7813 Q249.5,19.0625 249.5,19.7188 L249.5,21.2813 Q249.5,21.9375 249.2188,22.2188 Q248.9375,22.5 248.5,22.5 Q248.1094,22.5 247.8594,22.3281 Q247.6094,22.1563 247.5,21.7031 Q247.4531,21.3906 247.2813,21.2188 Q246.9688,20.8906 246.4063,20.7031 Q245.8438,20.5 245.2813,20.5 Q244.5781,20.5 243.9844,20.7813 Q243.4063,21.0625 242.9531,21.6875 Q242.5,22.3125 242.5,23.1719 L242.5,24.0938 Q242.5,25.125 243.3438,25.8125 Q244.1875,26.5 245.6875,26.5 Q246.5781,26.5 247.2031,26.2969 Q247.5625,26.1875 247.9688,25.8281 Q248.2344,25.625 248.375,25.5625 Q248.5156,25.5 248.6875,25.5 Q249.0156,25.5 249.25,25.7656 Q249.5,26.0156 249.5,26.375 Q249.5,26.7188 249.1563,27.125 Q248.6563,27.7188 247.8594,28.0469 Q246.8125,28.5 245.5313,28.5 Q244.0313,28.5 242.8281,27.9063 Q241.8594,27.4375 241.1719,26.4219 Q240.5,25.4063 240.5,24.2031 L240.5,23.1094 Q240.5,21.8594 241.0938,20.7656 Q241.7031,19.6719 242.75,19.0938 Q243.8125,18.5 245,18.5 Q245.7188,18.5 246.3438,18.75 Q246.9688,19 247.5,19.5 Z " fill="#000000"/><text fill="#000000" font-family="sans-serif" font-size="14" lengthAdjust="spacing" textLength="134" x="259.5" y="28.7285">LegacySystemDataUI</text><line style="stroke:#181818;stroke-width:0.5;" x1="231.5" x2="395.5" y1="39" y2="39"/><line style="stroke:#181818;stroke-width:0.5;" x1="231.5" x2="395.5" y1="47" y2="47"/></g><!--MD5=[2ac5ba994d6fcd66baeacea0c451fbaf]
link LegacySystemDataUI to LegacySystemDataController--><g id="link_LegacySystemDataUI_LegacySystemDataController"><path codeLine="73" d="M313.5,55.29 C313.5,69.58 313.5,89.21 313.5,110.59 " fill="none" id="LegacySystemDataUI-to-LegacySystemDataController" style="stroke:#181818;stroke-width:1.0;stroke-dasharray:7.0,7.0;"/><polygon fill="#181818" points="313.5,115.76,317.5,106.76,313.5,110.76,309.5,106.76,313.5,115.76" style="stroke:#181818;stroke-width:1.0;"/></g><!--MD5=[4444a7e7c4fa13b8e7b652a110740ed6]
link LegacySystemDataController to Company--><g id="link_LegacySystemDataController_Company"><path codeLine="74" d="M166.86,393.25 C153.37,412.34 141.71,432.73 133.5,454 C120.22,488.42 124.57,501.21 133.5,537 C138.36,556.47 147.73,576.31 157.32,593.21 " fill="none" id="LegacySystemDataController-to-Company" style="stroke:#181818;stroke-width:1.0;stroke-dasharray:7.0,7.0;"/><polygon fill="#181818" points="160.03,597.9,158.9926,588.1059,157.5293,593.5703,152.065,592.107,160.03,597.9" style="stroke:#181818;stroke-width:1.0;"/></g><!--MD5=[090029f43b2868a7a53851f682674d42]
link LegacySystemDataController to Application--><g id="link_LegacySystemDataController_Application"><path codeLine="75" d="M260.52,393.14 C252.84,413.08 245.43,432.32 239.17,448.59 " fill="none" id="LegacySystemDataController-to-Application" style="stroke:#181818;stroke-width:1.0;stroke-dasharray:7.0,7.0;"/><polygon fill="#181818" points="237.27,453.54,244.2199,446.5615,239.0553,448.8696,236.7473,443.705,237.27,453.54" style="stroke:#181818;stroke-width:1.0;"/></g><!--MD5=[aa87414629f40b8871c38fc4fdff0b84]
link Application to Company--><g id="link_Application_Company"><path codeLine="76" d="M211.76,537.19 C207.6,554.57 202.72,574.93 198.44,592.83 " fill="none" id="Application-to-Company" style="stroke:#181818;stroke-width:1.0;stroke-dasharray:7.0,7.0;"/><polygon fill="#181818" points="197.24,597.8,203.2386,589.9887,198.4123,592.9394,195.4616,588.113,197.24,597.8" style="stroke:#181818;stroke-width:1.0;"/></g><!--MD5=[62c9f16606a59c1effdc86a6e9940554]
link Company to LegacySystemData--><g id="link_Company_LegacySystemData"><path codeLine="77" d="M187.5,681.03 C187.5,700.79 187.5,726.17 187.5,753.53 " fill="none" id="Company-to-LegacySystemData" style="stroke:#181818;stroke-width:1.0;"/><polygon fill="#181818" points="187.5,758.67,191.5,749.67,187.5,753.67,183.5,749.67,187.5,758.67" style="stroke:#181818;stroke-width:1.0;"/><text fill="#000000" font-family="sans-serif" font-size="13" lengthAdjust="spacing" textLength="21" x="188.5" y="725.4951">has</text><text fill="#000000" font-family="sans-serif" font-size="13" lengthAdjust="spacing" textLength="7" x="179.9203" y="702.7395">1</text><text fill="#000000" font-family="sans-serif" font-size="13" lengthAdjust="spacing" textLength="5" x="182.4023" y="748.0304">*</text></g><!--MD5=[fa408f947015bc4f5c070a4525fb51d4]
link LegacySystemDataController to LegacySystemData--><g id="link_LegacySystemDataController_LegacySystemData"><path codeLine="78" d="M323.14,393.16 C325.79,477.27 323.4,586.48 302.5,681 C297.18,705.07 289.89,729.71 281.55,753.89 " fill="none" id="LegacySystemDataController-to-LegacySystemData" style="stroke:#181818;stroke-width:1.0;stroke-dasharray:7.0,7.0;"/><polygon fill="#181818" points="279.87,758.72,286.6089,751.5376,281.5154,753.9985,279.0545,748.905,279.87,758.72" style="stroke:#181818;stroke-width:1.0;"/></g><!--MD5=[dffe0398a2aa8f7bb46b9238097055a1]
link LegacySystemDataController to LegacySystemDataReader--><g id="link_LegacySystemDataController_LegacySystemDataReader"><path codeLine="79" d="M398.86,393.13 C412.11,425.23 421.5,460.12 421.5,494.5 C421.5,494.5 421.5,494.5 421.5,960 C421.5,1049.88 419.61,1075.84 385.5,1159 C374.73,1185.26 357.5,1211.61 341.71,1232.78 " fill="none" id="LegacySystemDataController-to-LegacySystemDataReader" style="stroke:#181818;stroke-width:1.0;stroke-dasharray:7.0,7.0;"/><polygon fill="#181818" points="338.57,1236.94,347.1891,1232.1745,341.586,1232.952,340.8084,1227.3489,338.57,1236.94" style="stroke:#181818;stroke-width:1.0;"/></g><!--MD5=[29548a5846168f798c878a3a91b91faa]
link LegacySystemData to LegacySystemDataReader--><g id="link_LegacySystemData_LegacySystemDataReader"><path codeLine="80" d="M260.93,1159.27 C270.92,1186.38 280.29,1211.8 287.76,1232.07 " fill="none" id="LegacySystemData-to-LegacySystemDataReader" style="stroke:#181818;stroke-width:1.0;"/><polygon fill="#181818" points="289.52,1236.84,290.1579,1227.0118,287.7895,1232.149,282.6523,1229.7806,289.52,1236.84" style="stroke:#181818;stroke-width:1.0;"/><text fill="#000000" font-family="sans-serif" font-size="13" lengthAdjust="spacing" textLength="37" x="277.5" y="1203.4951">knows</text><text fill="#000000" font-family="sans-serif" font-size="13" lengthAdjust="spacing" textLength="7" x="256.6616" y="1180.9039">1</text><text fill="#000000" font-family="sans-serif" font-size="13" lengthAdjust="spacing" textLength="7" x="279.4593" y="1226.1212">1</text></g><!--MD5=[5e47bcab7847f8423b238db06f67ab23]
@startuml
skinparam classAttributeIconSize 0

class Application {
  +static getInstance()
  +getCompany()


}

class LegacySystemData {
 List<LegacySystemData> listLegacy
      List<Object> listSortAlgorithms
      List<Object> listSortOrder
      List<Object> listSortArrivalLeaving
-int snsUserNumber
   -String vaccineName
   -String dose
   -String lotNumber
   -Date scheduledDateTime
   -Date arrivalDateTime
   -Date nurseAdministrationTime
   -Date leavingDateTime

+sortByParameters(String sortChoice, String sortOrder,\n String sortArrivalLeaving, List listLegacyData)
+getLeavingList()
+getArrivalList()
+getListSorted(List list)
+toString()
+bubbleSortArrayList(List<LegacySystemData> list,\n Boolean ascending, int position)
}


class Company {
+getVaccinatedToFile()
+getUsersVaccineSchedule()

}

class LegacySystemData{

}

class LegacySystemDataReader{
+csvReaderLegacyData(String fileName)
+createLegacySystemData(String[] attributes)
}





class LegacySystemDataController {
-App oApp;
-Company oCompany

+newLegacySystemDataReader(String filePath)
+getListLegacySystemData()
+getSortAlgorithms()
+setSortAlgorithms()
+getSortOrder()
+setSortOrder()
+getSortArrivalLeaving()
+setSortArrivalLeaving()
+getLeavingList()
+sortByParameters(String sortChoice, String sortOrder,\n String sortArrivalLeaving, List listLegacyData)
}

class LegacySystemDataUI {

}


LegacySystemDataUI ..> LegacySystemDataController
LegacySystemDataController ..> Company
LegacySystemDataController ..> Application
Application ..> Company
Company "1"- ->"*"LegacySystemData :has
LegacySystemDataController ..> LegacySystemData
LegacySystemDataController ..> LegacySystemDataReader
LegacySystemData "1"- ->"1" LegacySystemDataReader : knows



@enduml

PlantUML version 1.2022.5(Sat Apr 30 11:55:52 BST 2022)
(GPL source distribution)
Java Runtime: OpenJDK Runtime Environment
JVM: OpenJDK 64-Bit Server VM
Default Encoding: Cp1252
Language: en
Country: GB
--></g></svg>