<?xml version="1.0" encoding="UTF-8" standalone="no"?><svg xmlns="http://www.w3.org/2000/svg" xmlns:xlink="http://www.w3.org/1999/xlink" contentStyleType="text/css" height="226px" preserveAspectRatio="none" style="width:558px;height:226px;background:#FFFFFF;" version="1.1" viewBox="0 0 558 226" width="558px" zoomAndPan="magnify"><defs/><g><!--MD5=[de60e6d4f424ae4d0522096f76a59010]
class VaccinationCenter--><g id="elem_VaccinationCenter"><rect codeLine="3" fill="#F1F1F1" height="212.8828" id="VaccinationCenter" rx="2.5" ry="2.5" style="stroke:#181818;stroke-width:0.5;" width="181" x="210" y="7"/><ellipse cx="235.8" cy="23" fill="#ADD1B2" rx="11" ry="11" style="stroke:#181818;stroke-width:1.0;"/><path d="M238.2731,29.1431 Q237.6921,29.4419 237.0529,29.5913 Q236.4138,29.7407 235.7082,29.7407 Q233.2014,29.7407 231.8815,28.0889 Q230.5617,26.437 230.5617,23.3159 Q230.5617,20.1865 231.8815,18.5347 Q233.2014,16.8828 235.7082,16.8828 Q236.4138,16.8828 237.0612,17.0322 Q237.7087,17.1816 238.2731,17.4805 L238.2731,20.2031 Q237.6423,19.6221 237.0488,19.3523 Q236.4553,19.0825 235.8244,19.0825 Q234.4797,19.0825 233.7949,20.1492 Q233.1101,21.2158 233.1101,23.3159 Q233.1101,25.4077 233.7949,26.4744 Q234.4797,27.541 235.8244,27.541 Q236.4553,27.541 237.0488,27.2712 Q237.6423,27.0015 238.2731,26.4204 Z " fill="#000000"/><text fill="#000000" font-family="sans-serif" font-size="14" lengthAdjust="spacing" textLength="125" x="252.2" y="28.291">VaccinationCenter</text><line style="stroke:#181818;stroke-width:0.5;" x1="211" x2="390" y1="39" y2="39"/><text fill="#000000" font-family="sans-serif" font-size="14" lengthAdjust="spacing" textLength="38" x="216" y="56.5352">name</text><text fill="#000000" font-family="sans-serif" font-size="14" lengthAdjust="spacing" textLength="99" x="216" y="73.0234">phoneNumber</text><text fill="#000000" font-family="sans-serif" font-size="14" lengthAdjust="spacing" textLength="77" x="216" y="89.5117">faxNumber</text><text fill="#000000" font-family="sans-serif" font-size="14" lengthAdjust="spacing" textLength="95" x="216" y="106">homeAddress</text><text fill="#000000" font-family="sans-serif" font-size="14" lengthAdjust="spacing" textLength="93" x="216" y="122.4883">emailAddress</text><text fill="#000000" font-family="sans-serif" font-size="14" lengthAdjust="spacing" textLength="108" x="216" y="138.9766">websiteAddress</text><text fill="#000000" font-family="sans-serif" font-size="14" lengthAdjust="spacing" textLength="98" x="216" y="155.4648">openingHours</text><text fill="#000000" font-family="sans-serif" font-size="14" lengthAdjust="spacing" textLength="90" x="216" y="171.9531">closingHours</text><text fill="#000000" font-family="sans-serif" font-size="14" lengthAdjust="spacing" textLength="85" x="216" y="188.4414">slotDuration</text><text fill="#000000" font-family="sans-serif" font-size="14" lengthAdjust="spacing" textLength="169" x="216" y="204.9297">maxNumVaccinesPerSlot</text><line style="stroke:#181818;stroke-width:0.5;" x1="211" x2="390" y1="211.8828" y2="211.8828"/></g><!--MD5=[02e4b9b7573f1156f41e60aa5b4e25a4]
class Company--><g id="elem_Company"><rect codeLine="16" fill="#F1F1F1" height="64.4883" id="Company" rx="2.5" ry="2.5" style="stroke:#181818;stroke-width:0.5;" width="97" x="7" y="81.5"/><ellipse cx="22" cy="97.5" fill="#ADD1B2" rx="11" ry="11" style="stroke:#181818;stroke-width:1.0;"/><path d="M24.4731,103.6431 Q23.8921,103.9419 23.2529,104.0913 Q22.6138,104.2407 21.9082,104.2407 Q19.4014,104.2407 18.0815,102.5889 Q16.7617,100.937 16.7617,97.8159 Q16.7617,94.6865 18.0815,93.0347 Q19.4014,91.3828 21.9082,91.3828 Q22.6138,91.3828 23.2612,91.5322 Q23.9087,91.6816 24.4731,91.9805 L24.4731,94.7031 Q23.8423,94.1221 23.2488,93.8523 Q22.6553,93.5825 22.0244,93.5825 Q20.6797,93.5825 19.9949,94.6492 Q19.3101,95.7158 19.3101,97.8159 Q19.3101,99.9077 19.9949,100.9744 Q20.6797,102.041 22.0244,102.041 Q22.6553,102.041 23.2488,101.7712 Q23.8423,101.5015 24.4731,100.9204 Z " fill="#000000"/><text fill="#000000" font-family="sans-serif" font-size="14" lengthAdjust="spacing" textLength="65" x="36" y="102.791">Company</text><line style="stroke:#181818;stroke-width:0.5;" x1="8" x2="103" y1="113.5" y2="113.5"/><text fill="#000000" font-family="sans-serif" font-size="14" lengthAdjust="spacing" textLength="81" x="13" y="131.0352">designation</text><line style="stroke:#181818;stroke-width:0.5;" x1="8" x2="103" y1="137.9883" y2="137.9883"/></g><!--MD5=[cc7b86182a2d491cea4d0231be410c3d]
class Stats--><g id="elem_Stats"><rect fill="#F1F1F1" height="48" id="Stats" rx="2.5" ry="2.5" style="stroke:#181818;stroke-width:0.5;" width="65" x="486" y="89.5"/><ellipse cx="501" cy="105.5" fill="#ADD1B2" rx="11" ry="11" style="stroke:#181818;stroke-width:1.0;"/><path d="M503.4731,111.6431 Q502.8921,111.9419 502.2529,112.0913 Q501.6138,112.2407 500.9082,112.2407 Q498.4014,112.2407 497.0815,110.5889 Q495.7617,108.937 495.7617,105.8159 Q495.7617,102.6865 497.0815,101.0347 Q498.4014,99.3828 500.9082,99.3828 Q501.6138,99.3828 502.2612,99.5322 Q502.9087,99.6816 503.4731,99.9805 L503.4731,102.7031 Q502.8423,102.1221 502.2488,101.8523 Q501.6553,101.5825 501.0244,101.5825 Q499.6797,101.5825 498.9949,102.6492 Q498.3101,103.7158 498.3101,105.8159 Q498.3101,107.9077 498.9949,108.9744 Q499.6797,110.041 501.0244,110.041 Q501.6553,110.041 502.2488,109.7712 Q502.8423,109.5015 503.4731,108.9204 Z " fill="#000000"/><text fill="#000000" font-family="sans-serif" font-size="14" lengthAdjust="spacing" textLength="33" x="515" y="110.791">Stats</text><line style="stroke:#181818;stroke-width:0.5;" x1="487" x2="550" y1="121.5" y2="121.5"/><line style="stroke:#181818;stroke-width:0.5;" x1="487" x2="550" y1="129.5" y2="129.5"/></g><!--MD5=[eebe9b198877275d05dd12630ed9e401]
link Company to VaccinationCenter--><g id="link_Company_VaccinationCenter"><path codeLine="20" d="M104.2,113.5 C134.34,113.5 173.99,113.5 209.76,113.5 " fill="none" id="Company-VaccinationCenter" style="stroke:#181818;stroke-width:1.0;"/><polygon fill="#000000" points="131.5,102.1553,122.4549,99.2163,122.4549,105.0942,131.5,102.1553" style="stroke:#000000;stroke-width:1.0;"/><text fill="#000000" font-family="sans-serif" font-size="13" lengthAdjust="spacing" textLength="56" x="135.5" y="107.0684">manages</text><text fill="#000000" font-family="sans-serif" font-size="13" lengthAdjust="spacing" textLength="8" x="111.9403" y="109.9537">1</text><text fill="#000000" font-family="sans-serif" font-size="13" lengthAdjust="spacing" textLength="6" x="195.9972" y="110.465">*</text></g><!--MD5=[4f2350bbf392b5e45c3a3504130cff28]
link VaccinationCenter to Stats--><g id="link_VaccinationCenter_Stats"><path codeLine="21" d="M391.06,113.5 C424.63,113.5 460.61,113.5 485.75,113.5 " fill="none" id="VaccinationCenter-Stats" style="stroke:#181818;stroke-width:1.0;"/><polygon fill="#000000" points="418.5,102.1553,409.4549,99.2163,409.4549,105.0942,418.5,102.1553" style="stroke:#000000;stroke-width:1.0;"/><text fill="#000000" font-family="sans-serif" font-size="13" lengthAdjust="spacing" textLength="45" x="422.5" y="107.0684">reports</text><text fill="#000000" font-family="sans-serif" font-size="13" lengthAdjust="spacing" textLength="8" x="398.8908" y="110.465">1</text><text fill="#000000" font-family="sans-serif" font-size="13" lengthAdjust="spacing" textLength="6" x="471.9297" y="109.4617">*</text></g><!--MD5=[82aaaa94dc5ff16d7d9c0f2ca0c9d90a]
@startuml
'https://plantuml.com/class-diagram

class VaccinationCenter{
name
phoneNumber
faxNumber
homeAddress
emailAddress
websiteAddress
openingHours
closingHours
slotDuration
maxNumVaccinesPerSlot
}

class Company{
designation
}

Company "1" -right- "*" VaccinationCenter : manages >
VaccinationCenter "1" -right- - "*" Stats : reports >



@enduml

@startuml

class VaccinationCenter{
name
phoneNumber
faxNumber
homeAddress
emailAddress
websiteAddress
openingHours
closingHours
slotDuration
maxNumVaccinesPerSlot
}

class Company{
designation
}

Company "1" -right- "*" VaccinationCenter : manages >
VaccinationCenter "1" -right- - "*" Stats : reports >



@enduml

PlantUML version 1.2022.5(Sat Apr 30 11:55:52 WEST 2022)
(GPL source distribution)
Java Runtime: OpenJDK Runtime Environment
JVM: OpenJDK 64-Bit Server VM
Default Encoding: UTF-8
Language: en
Country: PT
--></g></svg>