<?xml version="1.0" encoding="UTF-8" standalone="no"?><svg xmlns="http://www.w3.org/2000/svg" xmlns:xlink="http://www.w3.org/1999/xlink" contentStyleType="text/css" height="556.8px" preserveAspectRatio="none" style="width:522px;height:556px;background:#FFFFFF;" version="1.1" viewBox="0 0 522 556" width="522.6px" zoomAndPan="magnify"><defs/><g><!--MD5=[335f4d9be48430461c68bf6d6fdba145]
class App--><g id="elem_App"><rect codeLine="3" fill="#F1F1F1" height="48.5859" id="App" rx="1.5" ry="1.5" style="stroke:#181818;stroke-width:0.3;" width="91.2" x="73.2" y="332.7"/><ellipse cx="107.85" cy="342.3" fill="#ADD1B2" rx="6.6" ry="6.6" style="stroke:#181818;stroke-width:0.6;"/><path d="M109.3339,345.9858 Q108.9853,346.1651 108.6018,346.2548 Q108.2183,346.3444 107.7949,346.3444 Q106.2908,346.3444 105.4989,345.3533 Q104.707,344.3622 104.707,342.4896 Q104.707,340.6119 105.4989,339.6208 Q106.2908,338.6297 107.7949,338.6297 Q108.2183,338.6297 108.6067,338.7193 Q108.9952,338.809 109.3339,338.9883 L109.3339,340.6219 Q108.9554,340.2732 108.5993,340.1114 Q108.2432,339.9495 107.8646,339.9495 Q107.0578,339.9495 106.6469,340.5895 Q106.236,341.2295 106.236,342.4896 Q106.236,343.7446 106.6469,344.3846 Q107.0578,345.0246 107.8646,345.0246 Q108.2432,345.0246 108.5993,344.8627 Q108.9554,344.7009 109.3339,344.3522 Z " fill="#000000"/><text fill="#000000" font-family="sans-serif" font-size="8.4" lengthAdjust="spacing" textLength="16.8" x="120.15" y="345.4746">App</text><line style="stroke:#181818;stroke-width:0.3;" x1="73.8" x2="163.8" y1="351.9" y2="351.9"/><line style="stroke:#181818;stroke-width:0.3;" x1="73.8" x2="163.8" y1="356.7" y2="356.7"/><text fill="#000000" font-family="sans-serif" font-size="8.4" lengthAdjust="spacing" textLength="64.8" x="76.8" y="367.2211">+getCompany()</text><text fill="#000000" font-family="sans-serif" font-size="8.4" lengthAdjust="spacing" textLength="84" x="76.8" y="377.1141">+static getInstance()</text></g><!--MD5=[de60e6d4f424ae4d0522096f76a59010]
class VaccinationCenter--><g id="elem_VaccinationCenter"><rect codeLine="8" fill="#F1F1F1" height="216.7664" id="VaccinationCenter" rx="1.5" ry="1.5" style="stroke:#181818;stroke-width:0.3;" width="240" x="278.4" y="69.6"/><ellipse cx="358.35" cy="79.2" fill="#ADD1B2" rx="6.6" ry="6.6" style="stroke:#181818;stroke-width:0.6;"/><path d="M359.8339,82.8858 Q359.4853,83.0651 359.1018,83.1548 Q358.7183,83.2444 358.2949,83.2444 Q356.7908,83.2444 355.9989,82.2533 Q355.207,81.2622 355.207,79.3896 Q355.207,77.5119 355.9989,76.5208 Q356.7908,75.5297 358.2949,75.5297 Q358.7183,75.5297 359.1067,75.6193 Q359.4952,75.709 359.8339,75.8883 L359.8339,77.5219 Q359.4554,77.1732 359.0993,77.0114 Q358.7432,76.8495 358.3646,76.8495 Q357.5578,76.8495 357.1469,77.4895 Q356.736,78.1295 356.736,79.3896 Q356.736,80.6446 357.1469,81.2846 Q357.5578,81.9246 358.3646,81.9246 Q358.7432,81.9246 359.0993,81.7627 Q359.4554,81.6009 359.8339,81.2522 Z " fill="#000000"/><text fill="#000000" font-family="sans-serif" font-size="8.4" lengthAdjust="spacing" textLength="75" x="370.65" y="82.3746">VaccinationCenter</text><line style="stroke:#181818;stroke-width:0.3;" x1="279" x2="517.8" y1="88.8" y2="88.8"/><text fill="#000000" font-family="sans-serif" font-size="8.4" lengthAdjust="spacing" textLength="54.6" x="282" y="99.3211">-String name</text><text fill="#000000" font-family="sans-serif" font-size="8.4" lengthAdjust="spacing" textLength="96" x="282" y="109.2141">-Integer phoneNumber</text><text fill="#000000" font-family="sans-serif" font-size="8.4" lengthAdjust="spacing" textLength="82.8" x="282" y="119.107">-Integer faxNumber</text><text fill="#000000" font-family="sans-serif" font-size="8.4" lengthAdjust="spacing" textLength="88.8" x="282" y="129">-String homeAddress</text><text fill="#000000" font-family="sans-serif" font-size="8.4" lengthAdjust="spacing" textLength="87.6" x="282" y="138.893">-String emailAddress</text><text fill="#000000" font-family="sans-serif" font-size="8.4" lengthAdjust="spacing" textLength="96.6" x="282" y="148.7859">-String websiteAddress</text><text fill="#000000" font-family="sans-serif" font-size="8.4" lengthAdjust="spacing" textLength="95.4" x="282" y="158.6789">-Integer openingHours</text><text fill="#000000" font-family="sans-serif" font-size="8.4" lengthAdjust="spacing" textLength="90.6" x="282" y="168.5719">-Integer closingHours</text><text fill="#000000" font-family="sans-serif" font-size="8.4" lengthAdjust="spacing" textLength="87.6" x="282" y="178.4648">-Integer slotDuration</text><text fill="#000000" font-family="sans-serif" font-size="8.4" lengthAdjust="spacing" textLength="138" x="282" y="188.3578">-Integer maxNumVaccinesPerSlot</text><text fill="#000000" font-family="sans-serif" font-size="8.4" lengthAdjust="spacing" textLength="83.4" x="282" y="198.2508">-Day vaccinationDay</text><text fill="#000000" font-family="sans-serif" font-size="8.4" lengthAdjust="spacing" textLength="123.6" x="282" y="208.1437">-List&lt;Day&gt; listVaccinationDay</text><text fill="#000000" font-family="sans-serif" font-size="8.4" lengthAdjust="spacing" textLength="148.2" x="282" y="218.0367">-List&lt;VaccineType&gt; listVaccineType</text><text fill="#000000" font-family="sans-serif" font-size="8.4" lengthAdjust="spacing" textLength="81.6" x="282" y="227.9297">-List&lt;Slot&gt; listSlots</text><text fill="#000000" font-family="sans-serif" font-size="8.4" lengthAdjust="spacing" textLength="151.8" x="282" y="237.8227">-List&lt;VaccineSchedule&gt; listSchedule</text><text fill="#000000" font-family="sans-serif" font-size="8.4" lengthAdjust="spacing" textLength="137.4" x="282" y="247.7156">-List&lt;UserArrival&gt; listUserArrival</text><text fill="#000000" font-family="sans-serif" font-size="8.4" lengthAdjust="spacing" textLength="145.8" x="282" y="257.6086">-List&lt;UserLeaving&gt; listUserLeaving</text><text fill="#000000" font-family="sans-serif" font-size="8.4" lengthAdjust="spacing" textLength="232.2" x="282" y="267.5016">-List&lt;VaccineAdministration&gt; listAdministratedVaccines</text><line style="stroke:#181818;stroke-width:0.3;" x1="279" x2="517.8" y1="271.6734" y2="271.6734"/><text fill="#000000" font-family="sans-serif" font-size="8.4" lengthAdjust="spacing" textLength="232.8" x="282" y="282.1945">+validateTimeIntervalForVaccinationCenter(timeInterval)</text></g><!--MD5=[f24eeffba81a976fe98747db120bd6c9]
class AnalyzePerformanceUI--><g id="elem_AnalyzePerformanceUI"><rect codeLine="31" fill="#F1F1F1" height="28.8" id="AnalyzePerformanceUI" rx="1.5" ry="1.5" style="stroke:#181818;stroke-width:0.3;" width="112.2" x="74.7" y="4.2"/><ellipse cx="83.7" cy="13.8" fill="#ADD1B2" rx="6.6" ry="6.6" style="stroke:#181818;stroke-width:0.6;"/><path d="M85.1839,17.4858 Q84.8353,17.6651 84.4518,17.7548 Q84.0683,17.8444 83.6449,17.8444 Q82.1408,17.8444 81.3489,16.8533 Q80.557,15.8622 80.557,13.9896 Q80.557,12.1119 81.3489,11.1208 Q82.1408,10.1297 83.6449,10.1297 Q84.0683,10.1297 84.4567,10.2193 Q84.8452,10.309 85.1839,10.4883 L85.1839,12.1219 Q84.8054,11.7732 84.4493,11.6114 Q84.0932,11.4495 83.7146,11.4495 Q82.9078,11.4495 82.4969,12.0895 Q82.086,12.7295 82.086,13.9896 Q82.086,15.2446 82.4969,15.8846 Q82.9078,16.5246 83.7146,16.5246 Q84.0932,16.5246 84.4493,16.3627 Q84.8054,16.2009 85.1839,15.8522 Z " fill="#000000"/><text fill="#000000" font-family="sans-serif" font-size="8.4" lengthAdjust="spacing" textLength="93" x="92.1" y="16.9746">AnalyzePerformanceUI</text><line style="stroke:#181818;stroke-width:0.3;" x1="75.3" x2="186.3" y1="23.4" y2="23.4"/><line style="stroke:#181818;stroke-width:0.3;" x1="75.3" x2="186.3" y1="28.2" y2="28.2"/></g><!--MD5=[7877fdec8473c949d2a4b7cee55ffadd]
class AnalyzePerformanceController--><g id="elem_AnalyzePerformanceController"><rect codeLine="35" fill="#F1F1F1" height="137.6227" id="AnalyzePerformanceController" rx="1.5" ry="1.5" style="stroke:#181818;stroke-width:0.3;" width="253.2" x="4.2" y="109.2"/><ellipse cx="64.95" cy="118.8" fill="#ADD1B2" rx="6.6" ry="6.6" style="stroke:#181818;stroke-width:0.6;"/><path d="M66.4339,122.4858 Q66.0853,122.6651 65.7018,122.7548 Q65.3183,122.8444 64.8949,122.8444 Q63.3908,122.8444 62.5989,121.8533 Q61.807,120.8622 61.807,118.9896 Q61.807,117.1119 62.5989,116.1208 Q63.3908,115.1297 64.8949,115.1297 Q65.3183,115.1297 65.7067,115.2193 Q66.0952,115.309 66.4339,115.4883 L66.4339,117.1219 Q66.0554,116.7732 65.6993,116.6114 Q65.3432,116.4495 64.9646,116.4495 Q64.1578,116.4495 63.7469,117.0895 Q63.336,117.7295 63.336,118.9896 Q63.336,120.2446 63.7469,120.8846 Q64.1578,121.5246 64.9646,121.5246 Q65.3432,121.5246 65.6993,121.3627 Q66.0554,121.2009 66.4339,120.8522 Z " fill="#000000"/><text fill="#000000" font-family="sans-serif" font-size="8.4" lengthAdjust="spacing" textLength="126.6" x="77.25" y="121.9746">AnalyzePerformanceController</text><line style="stroke:#181818;stroke-width:0.3;" x1="4.8" x2="256.8" y1="128.4" y2="128.4"/><text fill="#000000" font-family="sans-serif" font-size="8.4" lengthAdjust="spacing" textLength="48.6" x="7.8" y="138.9211">-App oApp;</text><text fill="#000000" font-family="sans-serif" font-size="8.4" lengthAdjust="spacing" textLength="90.6" x="7.8" y="148.8141">-Company oCompany</text><text fill="#000000" font-family="sans-serif" font-size="8.4" lengthAdjust="spacing" textLength="156" x="7.8" y="158.707">-VaccinationCenter vaccinationCenter</text><line style="stroke:#181818;stroke-width:0.3;" x1="4.8" x2="256.8" y1="162.8789" y2="162.8789"/><text fill="#000000" font-family="sans-serif" font-size="8.4" lengthAdjust="spacing" textLength="60" x="7.8" y="173.4">+getWorking()</text><text fill="#000000" font-family="sans-serif" font-size="8.4" lengthAdjust="spacing" textLength="144.6" x="7.8" y="183.293">+setWorking(VaccinationCenter vc)</text><text fill="#000000" font-family="sans-serif" font-size="8.4" lengthAdjust="spacing" textLength="246" x="7.8" y="193.1859">+validateTimeIntervalForVaccinationCenter(int timeInterval)</text><text fill="#000000" font-family="sans-serif" font-size="8.4" lengthAdjust="spacing" textLength="181.2" x="7.8" y="203.0789">+createInputList(int timeInterval, String day)</text><text fill="#000000" font-family="sans-serif" font-size="8.4" lengthAdjust="spacing" textLength="166.2" x="7.8" y="212.9719">+getMaxSubArrayBruteForce(int[] input)</text><text fill="#000000" font-family="sans-serif" font-size="8.4" lengthAdjust="spacing" textLength="43.8" x="7.8" y="222.8648">+findDay()</text><text fill="#000000" font-family="sans-serif" font-size="8.4" lengthAdjust="spacing" textLength="178.2" x="7.8" y="232.7578">+findMaxSubarray(int[] inputList, int i, int j)</text><text fill="#000000" font-family="sans-serif" font-size="8.4" lengthAdjust="spacing" textLength="187.8" x="7.8" y="242.6508">+findTimeInterval(String day, int timeInterval)</text></g><!--MD5=[02e4b9b7573f1156f41e60aa5b4e25a4]
class Company--><g id="elem_Company"><rect codeLine="49" fill="#F1F1F1" height="68.3719" id="Company" rx="1.5" ry="1.5" style="stroke:#181818;stroke-width:0.3;" width="108" x="185.4" y="322.8"/><ellipse cx="217.35" cy="332.4" fill="#ADD1B2" rx="6.6" ry="6.6" style="stroke:#181818;stroke-width:0.6;"/><path d="M218.8339,336.0858 Q218.4853,336.2651 218.1018,336.3548 Q217.7183,336.4444 217.2949,336.4444 Q215.7908,336.4444 214.9989,335.4533 Q214.207,334.4622 214.207,332.5896 Q214.207,330.7119 214.9989,329.7208 Q215.7908,328.7297 217.2949,328.7297 Q217.7183,328.7297 218.1067,328.8193 Q218.4952,328.909 218.8339,329.0883 L218.8339,330.7219 Q218.4554,330.3732 218.0993,330.2114 Q217.7432,330.0495 217.3646,330.0495 Q216.5578,330.0495 216.1469,330.6895 Q215.736,331.3295 215.736,332.5896 Q215.736,333.8446 216.1469,334.4846 Q216.5578,335.1246 217.3646,335.1246 Q217.7432,335.1246 218.0993,334.9627 Q218.4554,334.8009 218.8339,334.4522 Z " fill="#000000"/><text fill="#000000" font-family="sans-serif" font-size="8.4" lengthAdjust="spacing" textLength="39" x="229.65" y="335.5746">Company</text><line style="stroke:#181818;stroke-width:0.3;" x1="186" x2="292.8" y1="342" y2="342"/><text fill="#000000" font-family="sans-serif" font-size="8.4" lengthAdjust="spacing" textLength="53.4" x="189" y="352.5211">-designation</text><line style="stroke:#181818;stroke-width:0.3;" x1="186" x2="292.8" y1="356.693" y2="356.693"/><text fill="#000000" font-family="sans-serif" font-size="8.4" lengthAdjust="spacing" textLength="87" x="189" y="367.2141">+getEmployeeStore()</text><text fill="#000000" font-family="sans-serif" font-size="8.4" lengthAdjust="spacing" textLength="70.2" x="189" y="377.107">+getBruteForce()</text><text fill="#000000" font-family="sans-serif" font-size="8.4" lengthAdjust="spacing" textLength="100.8" x="189" y="387">+getLegacySystemData()</text></g><!--MD5=[829fb52c07ade3ad64ef85b99d1fca10]
class EmployeeStore--><g id="elem_EmployeeStore"><rect codeLine="56" fill="#F1F1F1" height="38.693" id="EmployeeStore" rx="1.5" ry="1.5" style="stroke:#181818;stroke-width:0.3;" width="116.4" x="54.6" y="494.4"/><ellipse cx="79.8" cy="504" fill="#ADD1B2" rx="6.6" ry="6.6" style="stroke:#181818;stroke-width:0.6;"/><path d="M81.2839,507.6858 Q80.9353,507.8651 80.5518,507.9548 Q80.1683,508.0444 79.7449,508.0444 Q78.2408,508.0444 77.4489,507.0533 Q76.657,506.0622 76.657,504.1896 Q76.657,502.3119 77.4489,501.3208 Q78.2408,500.3297 79.7449,500.3297 Q80.1683,500.3297 80.5567,500.4193 Q80.9452,500.509 81.2839,500.6883 L81.2839,502.3219 Q80.9054,501.9732 80.5493,501.8114 Q80.1932,501.6495 79.8146,501.6495 Q79.0078,501.6495 78.5969,502.2895 Q78.186,502.9295 78.186,504.1896 Q78.186,505.4446 78.5969,506.0846 Q79.0078,506.7246 79.8146,506.7246 Q80.1932,506.7246 80.5493,506.5627 Q80.9054,506.4009 81.2839,506.0522 Z " fill="#000000"/><text fill="#000000" font-family="sans-serif" font-size="8.4" lengthAdjust="spacing" textLength="61.2" x="91.8" y="507.1746">EmployeeStore</text><line style="stroke:#181818;stroke-width:0.3;" x1="55.2" x2="170.4" y1="513.6" y2="513.6"/><line style="stroke:#181818;stroke-width:0.3;" x1="55.2" x2="170.4" y1="518.4" y2="518.4"/><text fill="#000000" font-family="sans-serif" font-size="8.4" lengthAdjust="spacing" textLength="109.2" x="58.2" y="528.9211">+getWorking(String email)</text></g><!--MD5=[34d3c570b40518c1cea5f6b14957d435]
class LegacySystemData--><g id="elem_LegacySystemData"><rect codeLine="60" fill="#F1F1F1" height="38.693" id="LegacySystemData" rx="1.5" ry="1.5" style="stroke:#181818;stroke-width:0.3;" width="94.2" x="192.3" y="494.4"/><ellipse cx="201.3" cy="504" fill="#ADD1B2" rx="6.6" ry="6.6" style="stroke:#181818;stroke-width:0.6;"/><path d="M202.7839,507.6858 Q202.4353,507.8651 202.0518,507.9548 Q201.6683,508.0444 201.2449,508.0444 Q199.7408,508.0444 198.9489,507.0533 Q198.157,506.0622 198.157,504.1896 Q198.157,502.3119 198.9489,501.3208 Q199.7408,500.3297 201.2449,500.3297 Q201.6683,500.3297 202.0567,500.4193 Q202.4452,500.509 202.7839,500.6883 L202.7839,502.3219 Q202.4054,501.9732 202.0493,501.8114 Q201.6932,501.6495 201.3146,501.6495 Q200.5078,501.6495 200.0969,502.2895 Q199.686,502.9295 199.686,504.1896 Q199.686,505.4446 200.0969,506.0846 Q200.5078,506.7246 201.3146,506.7246 Q201.6932,506.7246 202.0493,506.5627 Q202.4054,506.4009 202.7839,506.0522 Z " fill="#000000"/><text fill="#000000" font-family="sans-serif" font-size="8.4" lengthAdjust="spacing" textLength="75" x="209.7" y="507.1746">LegacySystemData</text><line style="stroke:#181818;stroke-width:0.3;" x1="192.9" x2="285.9" y1="513.6" y2="513.6"/><line style="stroke:#181818;stroke-width:0.3;" x1="192.9" x2="285.9" y1="518.4" y2="518.4"/><text fill="#000000" font-family="sans-serif" font-size="8.4" lengthAdjust="spacing" textLength="66.6" x="195.9" y="528.9211">+getArrivalList()</text></g><!--MD5=[dec9f04a8899c200311ed18dfb85f568]
class BruteForce--><g id="elem_BruteForce"><rect codeLine="64" fill="#F1F1F1" height="78.2648" id="BruteForce" rx="1.5" ry="1.5" style="stroke:#181818;stroke-width:0.3;" width="202.2" x="307.5" y="474.6"/><ellipse cx="383.85" cy="484.2" fill="#ADD1B2" rx="6.6" ry="6.6" style="stroke:#181818;stroke-width:0.6;"/><path d="M385.3339,487.8858 Q384.9853,488.0651 384.6018,488.1548 Q384.2183,488.2444 383.7949,488.2444 Q382.2908,488.2444 381.4989,487.2533 Q380.707,486.2622 380.707,484.3896 Q380.707,482.5119 381.4989,481.5208 Q382.2908,480.5297 383.7949,480.5297 Q384.2183,480.5297 384.6067,480.6193 Q384.9952,480.709 385.3339,480.8883 L385.3339,482.5219 Q384.9554,482.1732 384.5993,482.0114 Q384.2432,481.8495 383.8646,481.8495 Q383.0578,481.8495 382.6469,482.4895 Q382.236,483.1295 382.236,484.3896 Q382.236,485.6446 382.6469,486.2846 Q383.0578,486.9246 383.8646,486.9246 Q384.2432,486.9246 384.5993,486.7627 Q384.9554,486.6009 385.3339,486.2522 Z " fill="#000000"/><text fill="#000000" font-family="sans-serif" font-size="8.4" lengthAdjust="spacing" textLength="44.4" x="396.15" y="487.3746">BruteForce</text><line style="stroke:#181818;stroke-width:0.3;" x1="308.1" x2="509.1" y1="493.8" y2="493.8"/><line style="stroke:#181818;stroke-width:0.3;" x1="308.1" x2="509.1" y1="498.6" y2="498.6"/><text fill="#000000" font-family="sans-serif" font-size="8.4" lengthAdjust="spacing" textLength="121.8" x="311.1" y="509.1211">+findDay(List&lt;Date&gt; arrivals)</text><text fill="#000000" font-family="sans-serif" font-size="8.4" lengthAdjust="spacing" textLength="195" x="311.1" y="519.0141">+createInputList(int timeInterval, Date opening)</text><text fill="#000000" font-family="sans-serif" font-size="8.4" lengthAdjust="spacing" textLength="129.6" x="311.1" y="528.907">+getListLength(int timeInterval)</text><text fill="#000000" font-family="sans-serif" font-size="8.4" lengthAdjust="spacing" textLength="110.4" x="311.1" y="538.8">+maxSubArray(int[] nums)</text><text fill="#000000" font-family="sans-serif" font-size="8.4" lengthAdjust="spacing" textLength="195" x="311.1" y="548.693">+findLimit(int[] nums, int maxPos, int maxSum)</text></g><!--MD5=[03a249ddcbe8c94cf064c4211f9bea6f]
link AnalyzePerformanceUI to AnalyzePerformanceController--><g id="link_AnalyzePerformanceUI_AnalyzePerformanceController"><path codeLine="72" d="M130.8,33.228 C130.8,49.746 130.8,78.42 130.8,105.858 " fill="none" id="AnalyzePerformanceUI-to-AnalyzePerformanceController" style="stroke:#181818;stroke-width:0.6;stroke-dasharray:7.0,7.0;"/><polygon fill="#181818" points="130.8,109.026,133.2,103.626,130.8,106.026,128.4,103.626,130.8,109.026" style="stroke:#181818;stroke-width:0.6;"/></g><!--MD5=[dad982c116d28f2a7d9336bda7e89cc0]
link AnalyzePerformanceController to App--><g id="link_AnalyzePerformanceController_App"><path codeLine="74" d="M126.192,246.774 C124.248,275.628 122.094,307.56 120.618,329.484 " fill="none" id="AnalyzePerformanceController-to-App" style="stroke:#181818;stroke-width:0.6;stroke-dasharray:7.0,7.0;"/><polygon fill="#181818" points="120.402,332.646,123.1668,327.4234,120.6078,329.6531,118.3781,327.0941,120.402,332.646" style="stroke:#181818;stroke-width:0.6;"/></g><!--MD5=[8cba27c3a6f590de37ddcb57de69fd9b]
link AnalyzePerformanceController to Company--><g id="link_AnalyzePerformanceController_Company"><path codeLine="75" d="M172.476,246.774 C187.65,271.62 204.21,298.752 217.062,319.806 " fill="none" id="AnalyzePerformanceController-to-Company" style="stroke:#181818;stroke-width:0.6;stroke-dasharray:7.0,7.0;"/><polygon fill="#181818" points="218.772,322.602,218.0056,316.7426,217.2083,320.0417,213.9092,319.2444,218.772,322.602" style="stroke:#181818;stroke-width:0.6;"/></g><!--MD5=[2842337dc9cffcf44b6095f39b5102ca]
link AnalyzePerformanceController to VaccinationCenter--><g id="link_AnalyzePerformanceController_VaccinationCenter"><path codeLine="76" d="M257.544,177.9 C263.4,177.9 269.256,177.9 275.112,177.9 " fill="none" id="AnalyzePerformanceController-to-VaccinationCenter" style="stroke:#181818;stroke-width:0.6;stroke-dasharray:7.0,7.0;"/><polygon fill="#181818" points="278.178,177.9,272.778,175.5,275.178,177.9,272.778,180.3,278.178,177.9" style="stroke:#181818;stroke-width:0.6;"/></g><!--MD5=[fbc643448016b969472598fb4a9507bc]
link Company to BruteForce--><g id="link_Company_BruteForce"><path codeLine="78" d="M276.114,391.32 C302.796,415.824 338.946,449.028 366.75,474.558 " fill="none" id="Company-BruteForce" style="stroke:#181818;stroke-width:0.6;"/><polygon fill="#000000" points="331.6096,435.0224,328.8052,430.0527,326.4197,432.6502,331.6096,435.0224" style="stroke:#000000;stroke-width:0.6;"/><text fill="#000000" font-family="sans-serif" font-size="7.8" lengthAdjust="spacing" textLength="13.2" x="334.8" y="435.941">has</text><text fill="#000000" font-family="sans-serif" font-size="7.8" lengthAdjust="spacing" textLength="4.8" x="275.496" y="403.6053">1</text><text fill="#000000" font-family="sans-serif" font-size="7.8" lengthAdjust="spacing" textLength="4.8" x="356.8336" y="468.0599">1</text></g><!--MD5=[62c9f16606a59c1effdc86a6e9940554]
link Company to LegacySystemData--><g id="link_Company_LegacySystemData"><path codeLine="79" d="M239.4,391.32 C239.4,422.832 239.4,468.732 239.4,494.202 " fill="none" id="Company-LegacySystemData" style="stroke:#181818;stroke-width:0.6;"/><polygon fill="#000000" points="242.4,435.9932,244.1634,430.5661,240.6366,430.5661,242.4,435.9932" style="stroke:#000000;stroke-width:0.6;"/><text fill="#000000" font-family="sans-serif" font-size="7.8" lengthAdjust="spacing" textLength="13.2" x="247.8" y="435.941">has</text><text fill="#000000" font-family="sans-serif" font-size="7.8" lengthAdjust="spacing" textLength="4.8" x="234.3075" y="403.6053">1</text><text fill="#000000" font-family="sans-serif" font-size="7.8" lengthAdjust="spacing" textLength="4.8" x="234.1275" y="488.0276">1</text></g><!--MD5=[ce859576cba61219b3cb4d2d23fdcd81]
link Company to EmployeeStore--><g id="link_Company_EmployeeStore"><path codeLine="80" d="M211.932,391.32 C186.258,422.832 148.866,468.732 128.118,494.202 " fill="none" id="Company-EmployeeStore" style="stroke:#181818;stroke-width:0.6;"/><polygon fill="#000000" points="183.5052,435.319,188.3,432.2252,185.5658,429.9977,183.5052,435.319" style="stroke:#000000;stroke-width:0.6;"/><text fill="#000000" font-family="sans-serif" font-size="7.8" lengthAdjust="spacing" textLength="13.2" x="190.8" y="435.941">has</text><text fill="#000000" font-family="sans-serif" font-size="7.8" lengthAdjust="spacing" textLength="4.8" x="203.4918" y="403.6053">1</text><text fill="#000000" font-family="sans-serif" font-size="7.8" lengthAdjust="spacing" textLength="4.8" x="125.8612" y="488.0276">1</text></g><!--MD5=[04a0f5d7db12b7d4bd10e5bd204baade]
@startuml
'https://plantuml.com/class-diagram
skinparam classAttributeIconSize 0
class App{
    +getCompany()
    +static getInstance()
}

class VaccinationCenter{
    - String name
    - Integer phoneNumber
    - Integer faxNumber
        - String homeAddress
        - String emailAddress
        - String websiteAddress
        - Integer openingHours
        - Integer closingHours
        - Integer slotDuration
        - Integer maxNumVaccinesPerSlot
        - Day vaccinationDay
        - List<Day> listVaccinationDay
        - List<VaccineType> listVaccineType
        - List<Slot> listSlots
        - List<VaccineSchedule> listSchedule
        - List<UserArrival> listUserArrival
        - List<UserLeaving> listUserLeaving
        - List<VaccineAdministration> listAdministratedVaccines
    +validateTimeIntervalForVaccinationCenter(timeInterval)
}


class AnalyzePerformanceUI {
}


class AnalyzePerformanceController{
    -App oApp;
    -Company oCompany
    -VaccinationCenter vaccinationCenter
    +getWorking()
    +setWorking(VaccinationCenter vc)
    +validateTimeIntervalForVaccinationCenter(int timeInterval)
    +createInputList(int timeInterval, String day)
    +getMaxSubArrayBruteForce(int[] input)
    +findDay()
    +findMaxSubarray(int[] inputList, int i, int j)
    +findTimeInterval(String day, int timeInterval)
}

class Company {
    -designation
    +getEmployeeStore()
    +getBruteForce()
    +getLegacySystemData()
}

class EmployeeStore{
    +getWorking(String email)
}

class LegacySystemData{
    +getArrivalList()
}

class BruteForce{
    +findDay(List<Date> arrivals)
    +createInputList(int timeInterval, Date opening)
    +getListLength(int timeInterval)
    +maxSubArray(int[] nums)
    +findLimit(int[] nums, int maxPos, int maxSum)
}

AnalyzePerformanceUI .down.> AnalyzePerformanceController

AnalyzePerformanceController .down.> App
AnalyzePerformanceController .down.> Company
AnalyzePerformanceController .right.> VaccinationCenter

Company "1" -down- - "1" BruteForce : has >
Company "1" -down- - "1" LegacySystemData : has >
Company "1" -down- - "1" EmployeeStore : has >
@enduml

@startuml
skinparam classAttributeIconSize 0
class App{
    +getCompany()
    +static getInstance()
}

class VaccinationCenter{
    - String name
    - Integer phoneNumber
    - Integer faxNumber
        - String homeAddress
        - String emailAddress
        - String websiteAddress
        - Integer openingHours
        - Integer closingHours
        - Integer slotDuration
        - Integer maxNumVaccinesPerSlot
        - Day vaccinationDay
        - List<Day> listVaccinationDay
        - List<VaccineType> listVaccineType
        - List<Slot> listSlots
        - List<VaccineSchedule> listSchedule
        - List<UserArrival> listUserArrival
        - List<UserLeaving> listUserLeaving
        - List<VaccineAdministration> listAdministratedVaccines
    +validateTimeIntervalForVaccinationCenter(timeInterval)
}


class AnalyzePerformanceUI {
}


class AnalyzePerformanceController{
    -App oApp;
    -Company oCompany
    -VaccinationCenter vaccinationCenter
    +getWorking()
    +setWorking(VaccinationCenter vc)
    +validateTimeIntervalForVaccinationCenter(int timeInterval)
    +createInputList(int timeInterval, String day)
    +getMaxSubArrayBruteForce(int[] input)
    +findDay()
    +findMaxSubarray(int[] inputList, int i, int j)
    +findTimeInterval(String day, int timeInterval)
}

class Company {
    -designation
    +getEmployeeStore()
    +getBruteForce()
    +getLegacySystemData()
}

class EmployeeStore{
    +getWorking(String email)
}

class LegacySystemData{
    +getArrivalList()
}

class BruteForce{
    +findDay(List<Date> arrivals)
    +createInputList(int timeInterval, Date opening)
    +getListLength(int timeInterval)
    +maxSubArray(int[] nums)
    +findLimit(int[] nums, int maxPos, int maxSum)
}

AnalyzePerformanceUI .down.> AnalyzePerformanceController

AnalyzePerformanceController .down.> App
AnalyzePerformanceController .down.> Company
AnalyzePerformanceController .right.> VaccinationCenter

Company "1" -down- - "1" BruteForce : has >
Company "1" -down- - "1" LegacySystemData : has >
Company "1" -down- - "1" EmployeeStore : has >
@enduml

PlantUML version 1.2022.5(Sat Apr 30 11:55:52 WEST 2022)
(GPL source distribution)
Java Runtime: OpenJDK Runtime Environment
JVM: OpenJDK 64-Bit Server VM
Default Encoding: UTF-8
Language: en
Country: PT
--></g></svg>