<?xml version="1.0" encoding="UTF-8" standalone="no"?><svg xmlns="http://www.w3.org/2000/svg" xmlns:xlink="http://www.w3.org/1999/xlink" contentStyleType="text/css" height="876.6px" preserveAspectRatio="none" style="width:1429px;height:876px;background:#FFFFFF;" version="1.1" viewBox="0 0 1429 876" width="1429.2px" zoomAndPan="magnify"><defs/><g><rect fill="#FFFFFF" height="768.0445" style="stroke:#181818;stroke-width:0.6;" width="6" x="27" y="54.893"/><rect fill="#FFFFFF" height="352.4496" style="stroke:#181818;stroke-width:0.6;" width="6" x="231.6" y="67.6793"/><rect fill="#FFFFFF" height="349.8223" style="stroke:#181818;stroke-width:0.6;" width="6" x="231.6" y="452.7152"/><rect fill="#FFFFFF" height="142.3453" style="stroke:#181818;stroke-width:0.6;" width="6" x="423.6" y="85.2656"/><rect fill="#FFFFFF" height="142.3453" style="stroke:#181818;stroke-width:0.6;" width="6" x="423.6" y="245.1973"/><rect fill="#FFFFFF" height="56.7727" style="stroke:#181818;stroke-width:0.6;" width="6" x="423.6" y="470.3016"/><rect fill="#FFFFFF" height="56.7727" style="stroke:#181818;stroke-width:0.6;" width="6" x="423.6" y="548.8605"/><rect fill="#FFFFFF" height="35.5863" style="stroke:#181818;stroke-width:0.6;" width="6" x="423.6" y="627.4195"/><rect fill="#FFFFFF" height="39.1863" style="stroke:#181818;stroke-width:0.6;" width="6" x="423.6" y="680.5922"/><rect fill="#FFFFFF" height="16.8" style="stroke:#181818;stroke-width:0.6;" width="6" x="426.6" y="702.9785"/><rect fill="#FFFFFF" height="39.1863" style="stroke:#181818;stroke-width:0.6;" width="6" x="423.6" y="741.5648"/><rect fill="#FFFFFF" height="16.8" style="stroke:#181818;stroke-width:0.6;" width="6" x="426.6" y="763.9512"/><rect fill="#FFFFFF" height="18" style="stroke:#181818;stroke-width:0.6;" width="6" x="711.6" y="102.852"/><rect fill="#FFFFFF" height="18" style="stroke:#181818;stroke-width:0.6;" width="6" x="744" y="138.4383"/><rect fill="#FFFFFF" height="18" style="stroke:#181818;stroke-width:0.6;" width="6" x="788.7" y="174.0246"/><rect fill="#FFFFFF" height="18" style="stroke:#181818;stroke-width:0.6;" width="6" x="788.7" y="262.7836"/><rect fill="#FFFFFF" height="18" style="stroke:#181818;stroke-width:0.6;" width="6" x="788.7" y="333.9563"/><rect fill="#FFFFFF" height="18" style="stroke:#181818;stroke-width:0.6;" width="6" x="855.6" y="209.6109"/><rect fill="#FFFFFF" height="18" style="stroke:#181818;stroke-width:0.6;" width="6" x="940.8" y="298.3699"/><rect fill="#FFFFFF" height="18" style="stroke:#181818;stroke-width:0.6;" width="6" x="1017.6" y="369.5426"/><rect fill="#FFFFFF" height="39.1863" style="stroke:#181818;stroke-width:0.6;" width="6" x="1017.6" y="566.4469"/><rect fill="#FFFFFF" height="16.8" style="stroke:#181818;stroke-width:0.6;" width="6" x="1020.6" y="588.8332"/><rect fill="#FFFFFF" height="18" style="stroke:#181818;stroke-width:0.6;" width="6" x="1017.6" y="645.0059"/><rect fill="#FFFFFF" height="39.1863" style="stroke:#181818;stroke-width:0.6;" width="6" x="1195.2" y="487.8879"/><rect fill="#FFFFFF" height="16.8" style="stroke:#181818;stroke-width:0.6;" width="6" x="1198.2" y="510.2742"/><line style="stroke:#181818;stroke-width:0.3;stroke-dasharray:5.0,5.0;" x1="30" x2="30" y1="48.893" y2="828.3375"/><line style="stroke:#181818;stroke-width:0.3;stroke-dasharray:5.0,5.0;" x1="234.3" x2="234.3" y1="48.893" y2="828.3375"/><line style="stroke:#181818;stroke-width:0.3;stroke-dasharray:5.0,5.0;" x1="426.3" x2="426.3" y1="48.893" y2="828.3375"/><line style="stroke:#181818;stroke-width:0.3;stroke-dasharray:5.0,5.0;" x1="714.6" x2="714.6" y1="48.893" y2="828.3375"/><line style="stroke:#181818;stroke-width:0.3;stroke-dasharray:5.0,5.0;" x1="747" x2="747" y1="48.893" y2="828.3375"/><line style="stroke:#181818;stroke-width:0.3;stroke-dasharray:5.0,5.0;" x1="791.4" x2="791.4" y1="48.893" y2="828.3375"/><line style="stroke:#181818;stroke-width:0.3;stroke-dasharray:5.0,5.0;" x1="858.6" x2="858.6" y1="48.893" y2="828.3375"/><line style="stroke:#181818;stroke-width:0.3;stroke-dasharray:5.0,5.0;" x1="943.8" x2="943.8" y1="48.893" y2="828.3375"/><line style="stroke:#181818;stroke-width:0.3;stroke-dasharray:5.0,5.0;" x1="1020.6" x2="1020.6" y1="48.893" y2="828.3375"/><line style="stroke:#181818;stroke-width:0.3;stroke-dasharray:5.0,5.0;" x1="1197.9" x2="1197.9" y1="48.893" y2="828.3375"/><line style="stroke:#181818;stroke-width:0.3;stroke-dasharray:5.0,5.0;" x1="1351.5" x2="1351.5" y1="48.893" y2="828.3375"/><text fill="#000000" font-family="sans-serif" font-size="8.4" lengthAdjust="spacing" textLength="50.4" x="3" y="47.1211">Coordinator</text><ellipse cx="30" cy="8.1" fill="#E2E2F0" rx="4.8" ry="4.8" style="stroke:#181818;stroke-width:0.3;"/><path d="M30,12.9 L30,29.1 M22.2,17.7 L37.8,17.7 M30,29.1 L22.2,38.1 M30,29.1 L37.8,38.1 " fill="none" style="stroke:#181818;stroke-width:0.3;"/><text fill="#000000" font-family="sans-serif" font-size="8.4" lengthAdjust="spacing" textLength="50.4" x="3" y="835.8586">Coordinator</text><ellipse cx="30" cy="842.7305" fill="#E2E2F0" rx="4.8" ry="4.8" style="stroke:#181818;stroke-width:0.3;"/><path d="M30,847.5305 L30,863.7305 M22.2,852.3305 L37.8,852.3305 M30,863.7305 L22.2,872.7305 M30,863.7305 L37.8,872.7305 " fill="none" style="stroke:#181818;stroke-width:0.3;"/><rect fill="#E2E2F0" height="18.293" rx="1.5" ry="1.5" style="stroke:#181818;stroke-width:0.3;" width="103.8" x="182.7" y="30"/><text fill="#000000" font-family="sans-serif" font-size="8.4" lengthAdjust="spacing" textLength="95.4" x="186.9" y="42.3211">:AnalyzePerformanceUI</text><rect fill="#E2E2F0" height="18.293" rx="1.5" ry="1.5" style="stroke:#181818;stroke-width:0.3;" width="103.8" x="182.7" y="827.7375"/><text fill="#000000" font-family="sans-serif" font-size="8.4" lengthAdjust="spacing" textLength="95.4" x="186.9" y="840.0586">:AnalyzePerformanceUI</text><rect fill="#E2E2F0" height="18.293" rx="1.5" ry="1.5" style="stroke:#181818;stroke-width:0.3;" width="137.4" x="357.9" y="30"/><text fill="#000000" font-family="sans-serif" font-size="8.4" lengthAdjust="spacing" textLength="129" x="362.1" y="42.3211">:AnalyzePerformanceController</text><rect fill="#E2E2F0" height="18.293" rx="1.5" ry="1.5" style="stroke:#181818;stroke-width:0.3;" width="137.4" x="357.9" y="827.7375"/><text fill="#000000" font-family="sans-serif" font-size="8.4" lengthAdjust="spacing" textLength="129" x="362.1" y="840.0586">:AnalyzePerformanceController</text><rect fill="#E2E2F0" height="18.293" rx="1.5" ry="1.5" style="stroke:#181818;stroke-width:0.3;" width="25.2" x="702" y="30"/><text fill="#000000" font-family="sans-serif" font-size="8.4" lengthAdjust="spacing" textLength="16.8" x="706.2" y="42.3211">App</text><rect fill="#E2E2F0" height="18.293" rx="1.5" ry="1.5" style="stroke:#181818;stroke-width:0.3;" width="25.2" x="702" y="827.7375"/><text fill="#000000" font-family="sans-serif" font-size="8.4" lengthAdjust="spacing" textLength="16.8" x="706.2" y="840.0586">App</text><rect fill="#E2E2F0" height="28.1859" rx="1.5" ry="1.5" style="stroke:#181818;stroke-width:0.3;" width="27.6" x="733.2" y="20.107"/><text fill="#000000" font-family="sans-serif" font-size="8.4" lengthAdjust="spacing" textLength="15.6" x="739.2" y="32.4281">app</text><text fill="#000000" font-family="sans-serif" font-size="8.4" lengthAdjust="spacing" textLength="19.2" x="737.4" y="42.3211">:App</text><rect fill="#E2E2F0" height="28.1859" rx="1.5" ry="1.5" style="stroke:#181818;stroke-width:0.3;" width="27.6" x="733.2" y="827.7375"/><text fill="#000000" font-family="sans-serif" font-size="8.4" lengthAdjust="spacing" textLength="15.6" x="739.2" y="840.0586">app</text><text fill="#000000" font-family="sans-serif" font-size="8.4" lengthAdjust="spacing" textLength="19.2" x="737.4" y="849.9516">:App</text><rect fill="#E2E2F0" height="28.1859" rx="1.5" ry="1.5" style="stroke:#181818;stroke-width:0.3;" width="49.8" x="766.8" y="20.107"/><text fill="#000000" font-family="sans-serif" font-size="8.4" lengthAdjust="spacing" textLength="22.8" x="780.3" y="32.4281">comp</text><text fill="#000000" font-family="sans-serif" font-size="8.4" lengthAdjust="spacing" textLength="41.4" x="771" y="42.3211">:Company</text><rect fill="#E2E2F0" height="28.1859" rx="1.5" ry="1.5" style="stroke:#181818;stroke-width:0.3;" width="49.8" x="766.8" y="827.7375"/><text fill="#000000" font-family="sans-serif" font-size="8.4" lengthAdjust="spacing" textLength="22.8" x="780.3" y="840.0586">comp</text><text fill="#000000" font-family="sans-serif" font-size="8.4" lengthAdjust="spacing" textLength="41.4" x="771" y="849.9516">:Company</text><rect fill="#E2E2F0" height="28.1859" rx="1.5" ry="1.5" style="stroke:#181818;stroke-width:0.3;" width="72" x="822.6" y="20.107"/><text fill="#000000" font-family="sans-serif" font-size="8.4" lengthAdjust="spacing" textLength="39.6" x="838.8" y="32.4281">empStore</text><text fill="#000000" font-family="sans-serif" font-size="8.4" lengthAdjust="spacing" textLength="63.6" x="826.8" y="42.3211">:EmployeeStore</text><rect fill="#E2E2F0" height="28.1859" rx="1.5" ry="1.5" style="stroke:#181818;stroke-width:0.3;" width="72" x="822.6" y="827.7375"/><text fill="#000000" font-family="sans-serif" font-size="8.4" lengthAdjust="spacing" textLength="39.6" x="838.8" y="840.0586">empStore</text><text fill="#000000" font-family="sans-serif" font-size="8.4" lengthAdjust="spacing" textLength="63.6" x="826.8" y="849.9516">:EmployeeStore</text><rect fill="#E2E2F0" height="28.1859" rx="1.5" ry="1.5" style="stroke:#181818;stroke-width:0.3;" width="86.4" x="900.6" y="20.107"/><text fill="#000000" font-family="sans-serif" font-size="8.4" lengthAdjust="spacing" textLength="78" x="904.8" y="32.4281">legacySystemaData</text><text fill="#000000" font-family="sans-serif" font-size="8.4" lengthAdjust="spacing" textLength="77.4" x="905.1" y="42.3211">:LegacySystemData</text><rect fill="#E2E2F0" height="28.1859" rx="1.5" ry="1.5" style="stroke:#181818;stroke-width:0.3;" width="86.4" x="900.6" y="827.7375"/><text fill="#000000" font-family="sans-serif" font-size="8.4" lengthAdjust="spacing" textLength="78" x="904.8" y="840.0586">legacySystemaData</text><text fill="#000000" font-family="sans-serif" font-size="8.4" lengthAdjust="spacing" textLength="77.4" x="905.1" y="849.9516">:LegacySystemData</text><rect fill="#E2E2F0" height="28.1859" rx="1.5" ry="1.5" style="stroke:#181818;stroke-width:0.3;" width="55.2" x="993" y="20.107"/><text fill="#000000" font-family="sans-serif" font-size="8.4" lengthAdjust="spacing" textLength="45" x="998.1" y="32.4281">bruteForce</text><text fill="#000000" font-family="sans-serif" font-size="8.4" lengthAdjust="spacing" textLength="46.8" x="997.2" y="42.3211">:BruteForce</text><rect fill="#E2E2F0" height="28.1859" rx="1.5" ry="1.5" style="stroke:#181818;stroke-width:0.3;" width="55.2" x="993" y="827.7375"/><text fill="#000000" font-family="sans-serif" font-size="8.4" lengthAdjust="spacing" textLength="45" x="998.1" y="840.0586">bruteForce</text><text fill="#000000" font-family="sans-serif" font-size="8.4" lengthAdjust="spacing" textLength="46.8" x="997.2" y="849.9516">:BruteForce</text><rect fill="#E2E2F0" height="28.1859" rx="1.5" ry="1.5" style="stroke:#181818;stroke-width:0.3;" width="85.8" x="1155.3" y="20.107"/><text fill="#000000" font-family="sans-serif" font-size="8.4" lengthAdjust="spacing" textLength="33.6" x="1181.4" y="32.4281">working</text><text fill="#000000" font-family="sans-serif" font-size="8.4" lengthAdjust="spacing" textLength="77.4" x="1159.5" y="42.3211">:VaccinationCenter</text><rect fill="#E2E2F0" height="28.1859" rx="1.5" ry="1.5" style="stroke:#181818;stroke-width:0.3;" width="85.8" x="1155.3" y="827.7375"/><text fill="#000000" font-family="sans-serif" font-size="8.4" lengthAdjust="spacing" textLength="33.6" x="1181.4" y="840.0586">working</text><text fill="#000000" font-family="sans-serif" font-size="8.4" lengthAdjust="spacing" textLength="77.4" x="1159.5" y="849.9516">:VaccinationCenter</text><rect fill="#E2E2F0" height="28.1859" rx="1.5" ry="1.5" style="stroke:#181818;stroke-width:0.3;" width="148.2" x="1277.7" y="20.107"/><text fill="#000000" font-family="sans-serif" font-size="8.4" lengthAdjust="spacing" textLength="7.2" x="1348.2" y="32.4281">ts</text><text fill="#000000" font-family="sans-serif" font-size="8.4" lengthAdjust="spacing" textLength="139.8" x="1281.9" y="42.3211">:List &lt;Date&gt; legacySystemDateList</text><rect fill="#E2E2F0" height="28.1859" rx="1.5" ry="1.5" style="stroke:#181818;stroke-width:0.3;" width="148.2" x="1277.7" y="827.7375"/><text fill="#000000" font-family="sans-serif" font-size="8.4" lengthAdjust="spacing" textLength="7.2" x="1348.2" y="840.0586">ts</text><text fill="#000000" font-family="sans-serif" font-size="8.4" lengthAdjust="spacing" textLength="139.8" x="1281.9" y="849.9516">:List &lt;Date&gt; legacySystemDateList</text><rect fill="#FFFFFF" height="768.0445" style="stroke:#181818;stroke-width:0.6;" width="6" x="27" y="54.893"/><rect fill="#FFFFFF" height="352.4496" style="stroke:#181818;stroke-width:0.6;" width="6" x="231.6" y="67.6793"/><rect fill="#FFFFFF" height="349.8223" style="stroke:#181818;stroke-width:0.6;" width="6" x="231.6" y="452.7152"/><rect fill="#FFFFFF" height="142.3453" style="stroke:#181818;stroke-width:0.6;" width="6" x="423.6" y="85.2656"/><rect fill="#FFFFFF" height="142.3453" style="stroke:#181818;stroke-width:0.6;" width="6" x="423.6" y="245.1973"/><rect fill="#FFFFFF" height="56.7727" style="stroke:#181818;stroke-width:0.6;" width="6" x="423.6" y="470.3016"/><rect fill="#FFFFFF" height="56.7727" style="stroke:#181818;stroke-width:0.6;" width="6" x="423.6" y="548.8605"/><rect fill="#FFFFFF" height="35.5863" style="stroke:#181818;stroke-width:0.6;" width="6" x="423.6" y="627.4195"/><rect fill="#FFFFFF" height="39.1863" style="stroke:#181818;stroke-width:0.6;" width="6" x="423.6" y="680.5922"/><rect fill="#FFFFFF" height="16.8" style="stroke:#181818;stroke-width:0.6;" width="6" x="426.6" y="702.9785"/><rect fill="#FFFFFF" height="39.1863" style="stroke:#181818;stroke-width:0.6;" width="6" x="423.6" y="741.5648"/><rect fill="#FFFFFF" height="16.8" style="stroke:#181818;stroke-width:0.6;" width="6" x="426.6" y="763.9512"/><rect fill="#FFFFFF" height="18" style="stroke:#181818;stroke-width:0.6;" width="6" x="711.6" y="102.852"/><rect fill="#FFFFFF" height="18" style="stroke:#181818;stroke-width:0.6;" width="6" x="744" y="138.4383"/><rect fill="#FFFFFF" height="18" style="stroke:#181818;stroke-width:0.6;" width="6" x="788.7" y="174.0246"/><rect fill="#FFFFFF" height="18" style="stroke:#181818;stroke-width:0.6;" width="6" x="788.7" y="262.7836"/><rect fill="#FFFFFF" height="18" style="stroke:#181818;stroke-width:0.6;" width="6" x="788.7" y="333.9563"/><rect fill="#FFFFFF" height="18" style="stroke:#181818;stroke-width:0.6;" width="6" x="855.6" y="209.6109"/><rect fill="#FFFFFF" height="18" style="stroke:#181818;stroke-width:0.6;" width="6" x="940.8" y="298.3699"/><rect fill="#FFFFFF" height="18" style="stroke:#181818;stroke-width:0.6;" width="6" x="1017.6" y="369.5426"/><rect fill="#FFFFFF" height="39.1863" style="stroke:#181818;stroke-width:0.6;" width="6" x="1017.6" y="566.4469"/><rect fill="#FFFFFF" height="16.8" style="stroke:#181818;stroke-width:0.6;" width="6" x="1020.6" y="588.8332"/><rect fill="#FFFFFF" height="18" style="stroke:#181818;stroke-width:0.6;" width="6" x="1017.6" y="645.0059"/><rect fill="#FFFFFF" height="39.1863" style="stroke:#181818;stroke-width:0.6;" width="6" x="1195.2" y="487.8879"/><rect fill="#FFFFFF" height="16.8" style="stroke:#181818;stroke-width:0.6;" width="6" x="1198.2" y="510.2742"/><polygon fill="#181818" points="224.4,65.2793,230.4,67.6793,224.4,70.0793,226.8,67.6793" style="stroke:#181818;stroke-width:0.6;"/><line style="stroke:#181818;stroke-width:0.6;" x1="33" x2="228" y1="67.6793" y2="67.6793"/><text fill="#000000" font-family="sans-serif" font-size="7.8" font-weight="bold" lengthAdjust="spacing" textLength="5.4" x="37.2" y="64.834">1</text><text fill="#000000" font-family="sans-serif" font-size="7.8" lengthAdjust="spacing" textLength="179.4" x="45" y="64.834">asks to analyze vaccination center performance</text><polygon fill="#181818" points="416.4,82.8656,422.4,85.2656,416.4,87.6656,418.8,85.2656" style="stroke:#181818;stroke-width:0.6;"/><line style="stroke:#181818;stroke-width:0.6;" x1="237.6" x2="420" y1="85.2656" y2="85.2656"/><text fill="#000000" font-family="sans-serif" font-size="7.8" font-weight="bold" lengthAdjust="spacing" textLength="5.4" x="241.8" y="82.4203">2</text><text fill="#000000" font-family="sans-serif" font-size="7.8" lengthAdjust="spacing" textLength="48" x="249.6" y="82.4203">getWorking()</text><polygon fill="#181818" points="704.4,100.452,710.4,102.852,704.4,105.252,706.8,102.852" style="stroke:#181818;stroke-width:0.6;"/><line style="stroke:#181818;stroke-width:0.6;" x1="429.6" x2="708" y1="102.852" y2="102.852"/><text fill="#000000" font-family="sans-serif" font-size="7.8" font-weight="bold" lengthAdjust="spacing" textLength="5.4" x="433.8" y="100.0066">3</text><text fill="#000000" font-family="sans-serif" font-size="7.8" lengthAdjust="spacing" textLength="73.2" x="441.6" y="100.0066">app = getInstance()</text><polygon fill="#181818" points="736.8,136.0383,742.8,138.4383,736.8,140.8383,739.2,138.4383" style="stroke:#181818;stroke-width:0.6;"/><line style="stroke:#181818;stroke-width:0.6;" x1="429.6" x2="740.4" y1="138.4383" y2="138.4383"/><text fill="#000000" font-family="sans-serif" font-size="7.8" font-weight="bold" lengthAdjust="spacing" textLength="5.4" x="433.8" y="135.593">4</text><text fill="#000000" font-family="sans-serif" font-size="7.8" lengthAdjust="spacing" textLength="84" x="441.6" y="135.593">comp = getCompany()</text><polygon fill="#181818" points="781.5,171.6246,787.5,174.0246,781.5,176.4246,783.9,174.0246" style="stroke:#181818;stroke-width:0.6;"/><line style="stroke:#181818;stroke-width:0.6;" x1="429.6" x2="785.1" y1="174.0246" y2="174.0246"/><text fill="#000000" font-family="sans-serif" font-size="7.8" font-weight="bold" lengthAdjust="spacing" textLength="5.4" x="433.8" y="171.1793">5</text><text fill="#000000" font-family="sans-serif" font-size="7.8" lengthAdjust="spacing" textLength="118.2" x="441.6" y="171.1793">empStore = getEmployeeStore()</text><polygon fill="#181818" points="848.4,207.2109,854.4,209.6109,848.4,212.0109,850.8,209.6109" style="stroke:#181818;stroke-width:0.6;"/><line style="stroke:#181818;stroke-width:0.6;" x1="429.6" x2="852" y1="209.6109" y2="209.6109"/><text fill="#000000" font-family="sans-serif" font-size="7.8" font-weight="bold" lengthAdjust="spacing" textLength="5.4" x="433.8" y="206.7656">6</text><text fill="#000000" font-family="sans-serif" font-size="7.8" lengthAdjust="spacing" textLength="89.4" x="441.6" y="206.7656">working = getWorking()</text><polygon fill="#181818" points="416.4,242.7973,422.4,245.1973,416.4,247.5973,418.8,245.1973" style="stroke:#181818;stroke-width:0.6;"/><line style="stroke:#181818;stroke-width:0.6;" x1="237.6" x2="420" y1="245.1973" y2="245.1973"/><text fill="#000000" font-family="sans-serif" font-size="7.8" font-weight="bold" lengthAdjust="spacing" textLength="5.4" x="241.8" y="242.352">7</text><text fill="#000000" font-family="sans-serif" font-size="7.8" lengthAdjust="spacing" textLength="34.2" x="249.6" y="242.352">findDay()</text><polygon fill="#181818" points="781.5,260.3836,787.5,262.7836,781.5,265.1836,783.9,262.7836" style="stroke:#181818;stroke-width:0.6;"/><line style="stroke:#181818;stroke-width:0.6;" x1="429.6" x2="785.1" y1="262.7836" y2="262.7836"/><text fill="#000000" font-family="sans-serif" font-size="7.8" font-weight="bold" lengthAdjust="spacing" textLength="5.4" x="433.8" y="259.9383">8</text><text fill="#000000" font-family="sans-serif" font-size="7.8" lengthAdjust="spacing" textLength="148.8" x="441.6" y="259.9383">legacySystem = getLegacySystemData()</text><polygon fill="#181818" points="933.6,295.9699,939.6,298.3699,933.6,300.7699,936,298.3699" style="stroke:#181818;stroke-width:0.6;"/><line style="stroke:#181818;stroke-width:0.6;" x1="429.6" x2="937.2" y1="298.3699" y2="298.3699"/><text fill="#000000" font-family="sans-serif" font-size="7.8" font-weight="bold" lengthAdjust="spacing" textLength="5.4" x="433.8" y="295.5246">9</text><text fill="#000000" font-family="sans-serif" font-size="7.8" lengthAdjust="spacing" textLength="103.2" x="441.6" y="295.5246">arrivalList = getArrivalList()</text><polygon fill="#181818" points="781.5,331.5563,787.5,333.9563,781.5,336.3563,783.9,333.9563" style="stroke:#181818;stroke-width:0.6;"/><line style="stroke:#181818;stroke-width:0.6;" x1="429.6" x2="785.1" y1="333.9563" y2="333.9563"/><text fill="#000000" font-family="sans-serif" font-size="7.8" font-weight="bold" lengthAdjust="spacing" textLength="10.8" x="433.8" y="331.1109">10</text><text fill="#000000" font-family="sans-serif" font-size="7.8" lengthAdjust="spacing" textLength="107.4" x="447" y="331.1109">bruteForce = getBruteForce()</text><polygon fill="#181818" points="1010.4,367.1426,1016.4,369.5426,1010.4,371.9426,1012.8,369.5426" style="stroke:#181818;stroke-width:0.6;"/><line style="stroke:#181818;stroke-width:0.6;" x1="429.6" x2="1014" y1="369.5426" y2="369.5426"/><text fill="#000000" font-family="sans-serif" font-size="7.8" font-weight="bold" lengthAdjust="spacing" textLength="10.8" x="433.8" y="366.6973">11</text><text fill="#000000" font-family="sans-serif" font-size="7.8" lengthAdjust="spacing" textLength="95.4" x="447" y="366.6973">day = findDay(arrivalList)</text><polygon fill="#181818" points="39.6,417.7289,33.6,420.1289,39.6,422.5289,37.2,420.1289" style="stroke:#181818;stroke-width:0.6;"/><line style="stroke:#181818;stroke-width:0.6;stroke-dasharray:2.0,2.0;" x1="36" x2="234" y1="420.1289" y2="420.1289"/><text fill="#000000" font-family="sans-serif" font-size="7.8" font-weight="bold" lengthAdjust="spacing" textLength="10.8" x="43.2" y="417.2836">12</text><text fill="#000000" font-family="sans-serif" font-size="7.8" lengthAdjust="spacing" textLength="103.2" x="56.4" y="417.2836">requests data (timeInterval)</text><polygon fill="#181818" points="224.4,450.3152,230.4,452.7152,224.4,455.1152,226.8,452.7152" style="stroke:#181818;stroke-width:0.6;"/><line style="stroke:#181818;stroke-width:0.6;" x1="33" x2="228" y1="452.7152" y2="452.7152"/><text fill="#000000" font-family="sans-serif" font-size="7.8" font-weight="bold" lengthAdjust="spacing" textLength="10.8" x="37.2" y="449.8699">13</text><text fill="#000000" font-family="sans-serif" font-size="7.8" lengthAdjust="spacing" textLength="78.6" x="50.4" y="449.8699">types requested data</text><polygon fill="#181818" points="416.4,467.9016,422.4,470.3016,416.4,472.7016,418.8,470.3016" style="stroke:#181818;stroke-width:0.6;"/><line style="stroke:#181818;stroke-width:0.6;" x1="237.6" x2="420" y1="470.3016" y2="470.3016"/><text fill="#000000" font-family="sans-serif" font-size="7.8" font-weight="bold" lengthAdjust="spacing" textLength="10.8" x="241.8" y="467.4562">14</text><text fill="#000000" font-family="sans-serif" font-size="7.8" lengthAdjust="spacing" textLength="161.4" x="255" y="467.4562">validateTimeIntervalForVaccinationCenter()</text><polygon fill="#181818" points="1188,485.4879,1194,487.8879,1188,490.2879,1190.4,487.8879" style="stroke:#181818;stroke-width:0.6;"/><line style="stroke:#181818;stroke-width:0.6;" x1="429.6" x2="1191.6" y1="487.8879" y2="487.8879"/><text fill="#000000" font-family="sans-serif" font-size="7.8" font-weight="bold" lengthAdjust="spacing" textLength="10.8" x="433.8" y="485.0426">15</text><text fill="#000000" font-family="sans-serif" font-size="7.8" lengthAdjust="spacing" textLength="126" x="447" y="485.0426">validateTimeInterval(timeInterval)</text><line style="stroke:#181818;stroke-width:0.6;" x1="1204.2" x2="1229.4" y1="505.4742" y2="505.4742"/><line style="stroke:#181818;stroke-width:0.6;" x1="1229.4" x2="1229.4" y1="505.4742" y2="513.2742"/><line style="stroke:#181818;stroke-width:0.6;" x1="1204.8" x2="1229.4" y1="513.2742" y2="513.2742"/><polygon fill="#181818" points="1210.8,510.8742,1204.8,513.2742,1210.8,515.6742,1208.4,513.2742" style="stroke:#181818;stroke-width:0.6;"/><text fill="#000000" font-family="sans-serif" font-size="7.8" font-weight="bold" lengthAdjust="spacing" textLength="10.8" x="1208.4" y="502.6289">16</text><text fill="#000000" font-family="sans-serif" font-size="7.8" lengthAdjust="spacing" textLength="126" x="1221.6" y="502.6289">validateTimeInterval(timeInterval)</text><polygon fill="#181818" points="416.4,546.4605,422.4,548.8605,416.4,551.2605,418.8,548.8605" style="stroke:#181818;stroke-width:0.6;"/><line style="stroke:#181818;stroke-width:0.6;" x1="237.6" x2="420" y1="548.8605" y2="548.8605"/><text fill="#000000" font-family="sans-serif" font-size="7.8" font-weight="bold" lengthAdjust="spacing" textLength="10.8" x="241.8" y="546.0152">17</text><text fill="#000000" font-family="sans-serif" font-size="7.8" lengthAdjust="spacing" textLength="61.2" x="255" y="546.0152">createInputList()</text><polygon fill="#181818" points="1010.4,564.0469,1016.4,566.4469,1010.4,568.8469,1012.8,566.4469" style="stroke:#181818;stroke-width:0.6;"/><line style="stroke:#181818;stroke-width:0.6;" x1="429.6" x2="1014" y1="566.4469" y2="566.4469"/><text fill="#000000" font-family="sans-serif" font-size="7.8" font-weight="bold" lengthAdjust="spacing" textLength="10.8" x="433.8" y="563.6016">18</text><text fill="#000000" font-family="sans-serif" font-size="7.8" lengthAdjust="spacing" textLength="168.6" x="447" y="563.6016">inputList = createInputList(timeInterval, day)</text><line style="stroke:#181818;stroke-width:0.6;" x1="1026.6" x2="1051.8" y1="584.0332" y2="584.0332"/><line style="stroke:#181818;stroke-width:0.6;" x1="1051.8" x2="1051.8" y1="584.0332" y2="591.8332"/><line style="stroke:#181818;stroke-width:0.6;" x1="1027.2" x2="1051.8" y1="591.8332" y2="591.8332"/><polygon fill="#181818" points="1033.2,589.4332,1027.2,591.8332,1033.2,594.2332,1030.8,591.8332" style="stroke:#181818;stroke-width:0.6;"/><text fill="#000000" font-family="sans-serif" font-size="7.8" font-weight="bold" lengthAdjust="spacing" textLength="10.8" x="1030.8" y="581.1879">19</text><text fill="#000000" font-family="sans-serif" font-size="7.8" lengthAdjust="spacing" textLength="150" x="1044" y="581.1879">listLength = getListLength(timeInterval)</text><polygon fill="#181818" points="416.4,625.0195,422.4,627.4195,416.4,629.8195,418.8,627.4195" style="stroke:#181818;stroke-width:0.6;"/><line style="stroke:#181818;stroke-width:0.6;" x1="237.6" x2="420" y1="627.4195" y2="627.4195"/><text fill="#000000" font-family="sans-serif" font-size="7.8" font-weight="bold" lengthAdjust="spacing" textLength="10.8" x="241.8" y="624.5742">20</text><text fill="#000000" font-family="sans-serif" font-size="7.8" lengthAdjust="spacing" textLength="105.6" x="255" y="624.5742">getMaxSubArrayBruteForce()</text><polygon fill="#181818" points="1010.4,642.6059,1016.4,645.0059,1010.4,647.4059,1012.8,645.0059" style="stroke:#181818;stroke-width:0.6;"/><line style="stroke:#181818;stroke-width:0.6;" x1="429.6" x2="1014" y1="645.0059" y2="645.0059"/><text fill="#000000" font-family="sans-serif" font-size="7.8" font-weight="bold" lengthAdjust="spacing" textLength="10.8" x="433.8" y="642.1605">21</text><text fill="#000000" font-family="sans-serif" font-size="7.8" lengthAdjust="spacing" textLength="186" x="447" y="642.1605">maxInfo[] = getMaxSubArrayBruteForce(inputList)</text><polygon fill="#181818" points="416.4,678.1922,422.4,680.5922,416.4,682.9922,418.8,680.5922" style="stroke:#181818;stroke-width:0.6;"/><line style="stroke:#181818;stroke-width:0.6;" x1="237.6" x2="420" y1="680.5922" y2="680.5922"/><text fill="#000000" font-family="sans-serif" font-size="7.8" font-weight="bold" lengthAdjust="spacing" textLength="10.8" x="241.8" y="677.7469">22</text><text fill="#000000" font-family="sans-serif" font-size="7.8" lengthAdjust="spacing" textLength="67.8" x="255" y="677.7469">findMaxSubarray()</text><line style="stroke:#181818;stroke-width:0.6;" x1="432.6" x2="457.8" y1="698.1785" y2="698.1785"/><line style="stroke:#181818;stroke-width:0.6;" x1="457.8" x2="457.8" y1="698.1785" y2="705.9785"/><line style="stroke:#181818;stroke-width:0.6;" x1="433.2" x2="457.8" y1="705.9785" y2="705.9785"/><polygon fill="#181818" points="439.2,703.5785,433.2,705.9785,439.2,708.3785,436.8,705.9785" style="stroke:#181818;stroke-width:0.6;"/><text fill="#000000" font-family="sans-serif" font-size="7.8" font-weight="bold" lengthAdjust="spacing" textLength="10.8" x="436.8" y="695.3332">23</text><text fill="#000000" font-family="sans-serif" font-size="7.8" lengthAdjust="spacing" textLength="260.4" x="450" y="695.3332">maxSubArray[] = findMaxSubarray(inputList, maxInfo[0], maxInfo[1]);</text><polygon fill="#181818" points="416.4,739.1648,422.4,741.5648,416.4,743.9648,418.8,741.5648" style="stroke:#181818;stroke-width:0.6;"/><line style="stroke:#181818;stroke-width:0.6;" x1="237.6" x2="420" y1="741.5648" y2="741.5648"/><text fill="#000000" font-family="sans-serif" font-size="7.8" font-weight="bold" lengthAdjust="spacing" textLength="10.8" x="241.8" y="738.7195">24</text><text fill="#000000" font-family="sans-serif" font-size="7.8" lengthAdjust="spacing" textLength="49.8" x="255" y="738.7195">timeInterval()</text><line style="stroke:#181818;stroke-width:0.6;" x1="432.6" x2="457.8" y1="759.1512" y2="759.1512"/><line style="stroke:#181818;stroke-width:0.6;" x1="457.8" x2="457.8" y1="759.1512" y2="766.9512"/><line style="stroke:#181818;stroke-width:0.6;" x1="433.2" x2="457.8" y1="766.9512" y2="766.9512"/><polygon fill="#181818" points="439.2,764.5512,433.2,766.9512,439.2,769.3512,436.8,766.9512" style="stroke:#181818;stroke-width:0.6;"/><text fill="#000000" font-family="sans-serif" font-size="7.8" font-weight="bold" lengthAdjust="spacing" textLength="10.8" x="436.8" y="756.3059">25</text><text fill="#000000" font-family="sans-serif" font-size="7.8" lengthAdjust="spacing" textLength="187.8" x="450" y="756.3059">timeInterval = findTimeInterval(day, timeInterval);</text><polygon fill="#181818" points="39.6,800.1375,33.6,802.5375,39.6,804.9375,37.2,802.5375" style="stroke:#181818;stroke-width:0.6;"/><line style="stroke:#181818;stroke-width:0.6;stroke-dasharray:2.0,2.0;" x1="36" x2="234" y1="802.5375" y2="802.5375"/><text fill="#000000" font-family="sans-serif" font-size="7.8" font-weight="bold" lengthAdjust="spacing" textLength="10.8" x="43.2" y="799.6922">26</text><text fill="#000000" font-family="sans-serif" font-size="7.8" lengthAdjust="spacing" textLength="161.4" x="56.4" y="799.6922">shows data and informs operation success</text><!--MD5=[e89db9c332f7ac77ce2a3abf7ff7ad7c]
@startuml
autonumber
'hide footbox
actor "Coordinator" as CDN

participant ":AnalyzePerformanceUI" as UI
participant ":AnalyzePerformanceController" as CTRL
participant "App" as _APP
participant "app\n:App" as APP
participant "comp\n:Company" as COMP
participant "empStore\n:EmployeeStore" as EMPSTORE
participant "legacySystemaData\n:LegacySystemData" as LSSTORE
participant "bruteForce\n:BruteForce" as BF
participant "working\n:VaccinationCenter" as VC
participant "ts\n:List <Date> legacySystemDateList"

activate CDN
CDN -> UI : asks to analyze vaccination center performance
activate UI
UI -> CTRL : getWorking()
activate CTRL
CTRL -> _APP : app = getInstance()
activate _APP
deactivate _APP
CTRL -> APP : comp = getCompany()
activate APP
deactivate APP
CTRL -> COMP : empStore = getEmployeeStore()
activate COMP
deactivate COMP
CTRL -> EMPSTORE : working = getWorking()
activate EMPSTORE
deactivate EMPSTORE
deactivate CTRL
UI -> CTRL : findDay()
activate CTRL
CTRL -> COMP : legacySystem = getLegacySystemData()
activate COMP
deactivate COMP
CTRL -> LSSTORE : arrivalList = getArrivalList()
activate LSSTORE
deactivate LSSTORE
CTRL -> COMP : bruteForce = getBruteForce()
activate COMP
deactivate COMP
CTRL -> BF : day = findDay(arrivalList)
activate BF
deactivate BF
deactivate CTRL
|||
UI - -> CDN : requests data (timeInterval)
deactivate UI
|||

CDN -> UI : types requested data
activate UI
UI -> CTRL : validateTimeIntervalForVaccinationCenter()
activate CTRL
CTRL -> VC : validateTimeInterval(timeInterval)
activate VC
VC -> VC : validateTimeInterval(timeInterval)
activate VC
deactivate VC
deactivate VC
deactivate CTRL
UI -> CTRL : createInputList()
activate CTRL
CTRL -> BF : inputList = createInputList(timeInterval, day)
activate BF
BF -> BF : listLength = getListLength(timeInterval)
activate BF
deactivate BF
deactivate BF
deactivate CTRL

UI -> CTRL : getMaxSubArrayBruteForce()
activate CTRL
CTRL -> BF : maxInfo[] = getMaxSubArrayBruteForce(inputList)
activate BF
deactivate BF
deactivate CTRL

UI -> CTRL : findMaxSubarray()
activate CTRL
CTRL -> CTRL : maxSubArray[] = findMaxSubarray(inputList, maxInfo[0], maxInfo[1]);
activate CTRL
deactivate CTRL
deactivate CTRL

UI -> CTRL : timeInterval()
activate CTRL
CTRL -> CTRL : timeInterval = findTimeInterval(day, timeInterval);
activate CTRL
deactivate CTRL
deactivate CTRL
UI - -> CDN : shows data and informs operation success
deactivate UI
|||



@enduml

@startuml
autonumber
actor "Coordinator" as CDN

participant ":AnalyzePerformanceUI" as UI
participant ":AnalyzePerformanceController" as CTRL
participant "App" as _APP
participant "app\n:App" as APP
participant "comp\n:Company" as COMP
participant "empStore\n:EmployeeStore" as EMPSTORE
participant "legacySystemaData\n:LegacySystemData" as LSSTORE
participant "bruteForce\n:BruteForce" as BF
participant "working\n:VaccinationCenter" as VC
participant "ts\n:List <Date> legacySystemDateList"

activate CDN
CDN -> UI : asks to analyze vaccination center performance
activate UI
UI -> CTRL : getWorking()
activate CTRL
CTRL -> _APP : app = getInstance()
activate _APP
deactivate _APP
CTRL -> APP : comp = getCompany()
activate APP
deactivate APP
CTRL -> COMP : empStore = getEmployeeStore()
activate COMP
deactivate COMP
CTRL -> EMPSTORE : working = getWorking()
activate EMPSTORE
deactivate EMPSTORE
deactivate CTRL
UI -> CTRL : findDay()
activate CTRL
CTRL -> COMP : legacySystem = getLegacySystemData()
activate COMP
deactivate COMP
CTRL -> LSSTORE : arrivalList = getArrivalList()
activate LSSTORE
deactivate LSSTORE
CTRL -> COMP : bruteForce = getBruteForce()
activate COMP
deactivate COMP
CTRL -> BF : day = findDay(arrivalList)
activate BF
deactivate BF
deactivate CTRL
|||
UI - -> CDN : requests data (timeInterval)
deactivate UI
|||

CDN -> UI : types requested data
activate UI
UI -> CTRL : validateTimeIntervalForVaccinationCenter()
activate CTRL
CTRL -> VC : validateTimeInterval(timeInterval)
activate VC
VC -> VC : validateTimeInterval(timeInterval)
activate VC
deactivate VC
deactivate VC
deactivate CTRL
UI -> CTRL : createInputList()
activate CTRL
CTRL -> BF : inputList = createInputList(timeInterval, day)
activate BF
BF -> BF : listLength = getListLength(timeInterval)
activate BF
deactivate BF
deactivate BF
deactivate CTRL

UI -> CTRL : getMaxSubArrayBruteForce()
activate CTRL
CTRL -> BF : maxInfo[] = getMaxSubArrayBruteForce(inputList)
activate BF
deactivate BF
deactivate CTRL

UI -> CTRL : findMaxSubarray()
activate CTRL
CTRL -> CTRL : maxSubArray[] = findMaxSubarray(inputList, maxInfo[0], maxInfo[1]);
activate CTRL
deactivate CTRL
deactivate CTRL

UI -> CTRL : timeInterval()
activate CTRL
CTRL -> CTRL : timeInterval = findTimeInterval(day, timeInterval);
activate CTRL
deactivate CTRL
deactivate CTRL
UI - -> CDN : shows data and informs operation success
deactivate UI
|||



@enduml

PlantUML version 1.2022.5(Sat Apr 30 11:55:52 WEST 2022)
(GPL source distribution)
Java Runtime: OpenJDK Runtime Environment
JVM: OpenJDK 64-Bit Server VM
Default Encoding: UTF-8
Language: en
Country: PT
--></g></svg>