<?xml version="1.0" encoding="UTF-8" standalone="no"?><svg xmlns="http://www.w3.org/2000/svg" xmlns:xlink="http://www.w3.org/1999/xlink" contentStyleType="text/css" height="299px" preserveAspectRatio="none" style="width:430px;height:299px;background:#FFFFFF;" version="1.1" viewBox="0 0 430 299" width="430px" zoomAndPan="magnify"><defs/><g><rect fill="#FFFFFF" height="118.2422" style="stroke:#181818;stroke-width:1.0;" width="10" x="45" y="91.4883"/><rect fill="#FFFFFF" height="29.3105" style="stroke:#181818;stroke-width:1.0;" width="10" x="386" y="112.7988"/><rect fill="#FFFFFF" height="29.3105" style="stroke:#181818;stroke-width:1.0;" width="10" x="386" y="171.4199"/><line style="stroke:#181818;stroke-width:0.5;stroke-dasharray:5.0,5.0;" x1="50" x2="50" y1="81.4883" y2="218.7305"/><line style="stroke:#181818;stroke-width:0.5;stroke-dasharray:5.0,5.0;" x1="391" x2="391" y1="81.4883" y2="218.7305"/><text fill="#000000" font-family="sans-serif" font-size="14" lengthAdjust="spacing" textLength="84" x="5" y="78.5352">Coordinator</text><ellipse cx="50" cy="13.5" fill="#E2E2F0" rx="8" ry="8" style="stroke:#181818;stroke-width:0.5;"/><path d="M50,21.5 L50,48.5 M37,29.5 L63,29.5 M50,48.5 L37,63.5 M50,48.5 L63,63.5 " fill="none" style="stroke:#181818;stroke-width:0.5;"/><text fill="#000000" font-family="sans-serif" font-size="14" lengthAdjust="spacing" textLength="84" x="5" y="231.2656">Coordinator</text><ellipse cx="50" cy="242.7188" fill="#E2E2F0" rx="8" ry="8" style="stroke:#181818;stroke-width:0.5;"/><path d="M50,250.7188 L50,277.7188 M37,258.7188 L63,258.7188 M50,277.7188 L37,292.7188 M50,277.7188 L63,292.7188 " fill="none" style="stroke:#181818;stroke-width:0.5;"/><rect fill="#E2E2F0" height="30.4883" rx="2.5" ry="2.5" style="stroke:#181818;stroke-width:0.5;" width="66" x="358" y="50"/><text fill="#000000" font-family="sans-serif" font-size="14" lengthAdjust="spacing" textLength="52" x="365" y="70.5352">:System</text><rect fill="#E2E2F0" height="30.4883" rx="2.5" ry="2.5" style="stroke:#181818;stroke-width:0.5;" width="66" x="358" y="217.7305"/><text fill="#000000" font-family="sans-serif" font-size="14" lengthAdjust="spacing" textLength="52" x="365" y="238.2656">:System</text><rect fill="#FFFFFF" height="118.2422" style="stroke:#181818;stroke-width:1.0;" width="10" x="45" y="91.4883"/><rect fill="#FFFFFF" height="29.3105" style="stroke:#181818;stroke-width:1.0;" width="10" x="386" y="112.7988"/><rect fill="#FFFFFF" height="29.3105" style="stroke:#181818;stroke-width:1.0;" width="10" x="386" y="171.4199"/><polygon fill="#181818" points="374,108.7988,384,112.7988,374,116.7988,378,112.7988" style="stroke:#181818;stroke-width:1.0;"/><line style="stroke:#181818;stroke-width:1.0;" x1="55" x2="380" y1="112.7988" y2="112.7988"/><text fill="#000000" font-family="sans-serif" font-size="13" font-weight="bold" lengthAdjust="spacing" textLength="9" x="62" y="108.0566">1</text><text fill="#000000" font-family="sans-serif" font-size="13" lengthAdjust="spacing" textLength="299" x="75" y="108.0566">asks to analyze vaccination center performance</text><polygon fill="#181818" points="66,138.1094,56,142.1094,66,146.1094,62,142.1094" style="stroke:#181818;stroke-width:1.0;"/><line style="stroke:#181818;stroke-width:1.0;stroke-dasharray:2.0,2.0;" x1="60" x2="390" y1="142.1094" y2="142.1094"/><text fill="#000000" font-family="sans-serif" font-size="13" font-weight="bold" lengthAdjust="spacing" textLength="9" x="72" y="137.3672">2</text><text fill="#000000" font-family="sans-serif" font-size="13" lengthAdjust="spacing" textLength="172" x="85" y="137.3672">requests data (timeInterval)</text><polygon fill="#181818" points="374,167.4199,384,171.4199,374,175.4199,378,171.4199" style="stroke:#181818;stroke-width:1.0;"/><line style="stroke:#181818;stroke-width:1.0;" x1="55" x2="380" y1="171.4199" y2="171.4199"/><text fill="#000000" font-family="sans-serif" font-size="13" font-weight="bold" lengthAdjust="spacing" textLength="9" x="62" y="166.6777">3</text><text fill="#000000" font-family="sans-serif" font-size="13" lengthAdjust="spacing" textLength="131" x="75" y="166.6777">types requested data</text><polygon fill="#181818" points="66,196.7305,56,200.7305,66,204.7305,62,200.7305" style="stroke:#181818;stroke-width:1.0;"/><line style="stroke:#181818;stroke-width:1.0;stroke-dasharray:2.0,2.0;" x1="60" x2="390" y1="200.7305" y2="200.7305"/><text fill="#000000" font-family="sans-serif" font-size="13" font-weight="bold" lengthAdjust="spacing" textLength="9" x="72" y="195.9883">4</text><text fill="#000000" font-family="sans-serif" font-size="13" lengthAdjust="spacing" textLength="269" x="85" y="195.9883">shows data and informs operation success</text><!--MD5=[674b3a81f66590e7b43d82629945dcdb]
@startuml
'https://plantuml.com/sequence-diagram

autonumber

actor "Coordinator" as CDN

activate CDN
CDN -> ":System" : asks to analyze vaccination center performance
activate ":System"
":System" - -> CDN : requests data (timeInterval)
deactivate ":System"

CDN -> ":System" : types requested data
activate ":System"
":System" - -> CDN : shows data and informs operation success
deactivate ":System"
@enduml

@startuml

autonumber

actor "Coordinator" as CDN

activate CDN
CDN -> ":System" : asks to analyze vaccination center performance
activate ":System"
":System" - -> CDN : requests data (timeInterval)
deactivate ":System"

CDN -> ":System" : types requested data
activate ":System"
":System" - -> CDN : shows data and informs operation success
deactivate ":System"
@enduml

PlantUML version 1.2022.5(Sat Apr 30 11:55:52 WEST 2022)
(GPL source distribution)
Java Runtime: OpenJDK Runtime Environment
JVM: OpenJDK 64-Bit Server VM
Default Encoding: UTF-8
Language: en
Country: PT
--></g></svg>