<?xml version="1.0" encoding="UTF-8" standalone="no"?><svg xmlns="http://www.w3.org/2000/svg" xmlns:xlink="http://www.w3.org/1999/xlink" contentStyleType="text/css" height="334px" preserveAspectRatio="none" style="width:517px;height:334px;background:#FFFFFF;" version="1.1" viewBox="0 0 517 334" width="517px" zoomAndPan="magnify"><defs/><g><!--MD5=[da547346deef918ea16944ba046651ef]
class Administrator--><g id="elem_Administrator"><rect codeLine="5" fill="#F1F1F1" height="55.3828" id="Administrator" rx="2.5" ry="2.5" style="stroke:#181818;stroke-width:0.5;" width="136" x="374.5" y="36.5"/><ellipse cx="389.5" cy="56.1914" fill="#ADD1B2" rx="11" ry="11" style="stroke:#181818;stroke-width:1.0;"/><path d="M391.5,52.6914 Q391.7031,52.1914 391.9375,51.9414 Q392.1719,51.6914 392.4375,51.6914 Q392.9063,51.6914 393.2031,51.9727 Q393.5,52.2539 393.5,52.9102 L393.5,54.4727 Q393.5,55.1289 393.2188,55.4102 Q392.9375,55.6914 392.5,55.6914 Q392.1094,55.6914 391.8594,55.5195 Q391.6094,55.3477 391.5,54.8945 Q391.4531,54.582 391.2813,54.4102 Q390.9688,54.082 390.4063,53.8945 Q389.8438,53.6914 389.2813,53.6914 Q388.5781,53.6914 387.9844,53.9727 Q387.4063,54.2539 386.9531,54.8789 Q386.5,55.5039 386.5,56.3633 L386.5,57.2852 Q386.5,58.3164 387.3438,59.0039 Q388.1875,59.6914 389.6875,59.6914 Q390.5781,59.6914 391.2031,59.4883 Q391.5625,59.3789 391.9688,59.0195 Q392.2344,58.8164 392.375,58.7539 Q392.5156,58.6914 392.6875,58.6914 Q393.0156,58.6914 393.25,58.957 Q393.5,59.207 393.5,59.5664 Q393.5,59.9102 393.1563,60.3164 Q392.6563,60.9102 391.8594,61.2383 Q390.8125,61.6914 389.5313,61.6914 Q388.0313,61.6914 386.8281,61.0977 Q385.8594,60.6289 385.1719,59.6133 Q384.5,58.5977 384.5,57.3945 L384.5,56.3008 Q384.5,55.0508 385.0938,53.957 Q385.7031,52.8633 386.75,52.2852 Q387.8125,51.6914 389,51.6914 Q389.7188,51.6914 390.3438,51.9414 Q390.9688,52.1914 391.5,52.6914 Z " fill="#000000"/><text fill="#000000" font-family="sans-serif" font-size="17" lengthAdjust="spacing" textLength="96" x="407.5" y="63.1475">Administrator</text><line style="stroke:#181818;stroke-width:0.5;" x1="375.5" x2="509.5" y1="75.8828" y2="75.8828"/><line style="stroke:#181818;stroke-width:0.5;" x1="375.5" x2="509.5" y1="83.8828" y2="83.8828"/></g><!--MD5=[7421f545a0d8420c5bec41e74b387d9c]
class Employee--><g id="elem_Employee"><rect codeLine="6" fill="#F1F1F1" height="114.1484" id="Employee" rx="2.5" ry="2.5" style="stroke:#181818;stroke-width:0.5;" width="112" x="85.5" y="7"/><ellipse cx="100.5" cy="26.6914" fill="#ADD1B2" rx="11" ry="11" style="stroke:#181818;stroke-width:1.0;"/><path d="M102.5,23.1914 Q102.7031,22.6914 102.9375,22.4414 Q103.1719,22.1914 103.4375,22.1914 Q103.9063,22.1914 104.2031,22.4727 Q104.5,22.7539 104.5,23.4102 L104.5,24.9727 Q104.5,25.6289 104.2188,25.9102 Q103.9375,26.1914 103.5,26.1914 Q103.1094,26.1914 102.8594,26.0195 Q102.6094,25.8477 102.5,25.3945 Q102.4531,25.082 102.2813,24.9102 Q101.9688,24.582 101.4063,24.3945 Q100.8438,24.1914 100.2813,24.1914 Q99.5781,24.1914 98.9844,24.4727 Q98.4063,24.7539 97.9531,25.3789 Q97.5,26.0039 97.5,26.8633 L97.5,27.7852 Q97.5,28.8164 98.3438,29.5039 Q99.1875,30.1914 100.6875,30.1914 Q101.5781,30.1914 102.2031,29.9883 Q102.5625,29.8789 102.9688,29.5195 Q103.2344,29.3164 103.375,29.2539 Q103.5156,29.1914 103.6875,29.1914 Q104.0156,29.1914 104.25,29.457 Q104.5,29.707 104.5,30.0664 Q104.5,30.4102 104.1563,30.8164 Q103.6563,31.4102 102.8594,31.7383 Q101.8125,32.1914 100.5313,32.1914 Q99.0313,32.1914 97.8281,31.5977 Q96.8594,31.1289 96.1719,30.1133 Q95.5,29.0977 95.5,27.8945 L95.5,26.8008 Q95.5,25.5508 96.0938,24.457 Q96.7031,23.3633 97.75,22.7852 Q98.8125,22.1914 100,22.1914 Q100.7188,22.1914 101.3438,22.4414 Q101.9688,22.6914 102.5,23.1914 Z " fill="#000000"/><text fill="#000000" font-family="sans-serif" font-size="17" lengthAdjust="spacing" textLength="72" x="118.5" y="33.6475">Employee</text><line style="stroke:#181818;stroke-width:0.5;" x1="86.5" x2="196.5" y1="46.3828" y2="46.3828"/><text fill="#000000" font-family="sans-serif" font-size="17" lengthAdjust="spacing" textLength="40" x="95.5" y="72.0303">name</text><text fill="#000000" font-family="sans-serif" font-size="17" lengthAdjust="spacing" textLength="84" x="95.5" y="101.4131">companyID</text><line style="stroke:#181818;stroke-width:0.5;" x1="86.5" x2="196.5" y1="113.1484" y2="113.1484"/></g><!--MD5=[03960189e81aa2c066c762ffabbee709]
class Receptionist--><g id="elem_Receptionist"><rect codeLine="10" fill="#F1F1F1" height="55.3828" id="Receptionist" rx="2.5" ry="2.5" style="stroke:#181818;stroke-width:0.5;" width="129" x="7" y="272"/><ellipse cx="22" cy="291.6914" fill="#ADD1B2" rx="11" ry="11" style="stroke:#181818;stroke-width:1.0;"/><path d="M24,288.1914 Q24.2031,287.6914 24.4375,287.4414 Q24.6719,287.1914 24.9375,287.1914 Q25.4063,287.1914 25.7031,287.4727 Q26,287.7539 26,288.4102 L26,289.9727 Q26,290.6289 25.7188,290.9102 Q25.4375,291.1914 25,291.1914 Q24.6094,291.1914 24.3594,291.0195 Q24.1094,290.8477 24,290.3945 Q23.9531,290.082 23.7813,289.9102 Q23.4688,289.582 22.9063,289.3945 Q22.3438,289.1914 21.7813,289.1914 Q21.0781,289.1914 20.4844,289.4727 Q19.9063,289.7539 19.4531,290.3789 Q19,291.0039 19,291.8633 L19,292.7852 Q19,293.8164 19.8438,294.5039 Q20.6875,295.1914 22.1875,295.1914 Q23.0781,295.1914 23.7031,294.9883 Q24.0625,294.8789 24.4688,294.5195 Q24.7344,294.3164 24.875,294.2539 Q25.0156,294.1914 25.1875,294.1914 Q25.5156,294.1914 25.75,294.457 Q26,294.707 26,295.0664 Q26,295.4102 25.6563,295.8164 Q25.1563,296.4102 24.3594,296.7383 Q23.3125,297.1914 22.0313,297.1914 Q20.5313,297.1914 19.3281,296.5977 Q18.3594,296.1289 17.6719,295.1133 Q17,294.0977 17,292.8945 L17,291.8008 Q17,290.5508 17.5938,289.457 Q18.2031,288.3633 19.25,287.7852 Q20.3125,287.1914 21.5,287.1914 Q22.2188,287.1914 22.8438,287.4414 Q23.4688,287.6914 24,288.1914 Z " fill="#000000"/><text fill="#000000" font-family="sans-serif" font-size="17" lengthAdjust="spacing" textLength="89" x="40" y="298.6475">Receptionist</text><line style="stroke:#181818;stroke-width:0.5;" x1="8" x2="135" y1="311.3828" y2="311.3828"/><line style="stroke:#181818;stroke-width:0.5;" x1="8" x2="135" y1="319.3828" y2="319.3828"/></g><!--MD5=[a059576e163b46f56762f12600c49258]
class Nurse--><g id="elem_Nurse"><rect codeLine="11" fill="#F1F1F1" height="55.3828" id="Nurse" rx="2.5" ry="2.5" style="stroke:#181818;stroke-width:0.5;" width="83" x="171" y="272"/><ellipse cx="186" cy="291.6914" fill="#ADD1B2" rx="11" ry="11" style="stroke:#181818;stroke-width:1.0;"/><path d="M188,288.1914 Q188.2031,287.6914 188.4375,287.4414 Q188.6719,287.1914 188.9375,287.1914 Q189.4063,287.1914 189.7031,287.4727 Q190,287.7539 190,288.4102 L190,289.9727 Q190,290.6289 189.7188,290.9102 Q189.4375,291.1914 189,291.1914 Q188.6094,291.1914 188.3594,291.0195 Q188.1094,290.8477 188,290.3945 Q187.9531,290.082 187.7813,289.9102 Q187.4688,289.582 186.9063,289.3945 Q186.3438,289.1914 185.7813,289.1914 Q185.0781,289.1914 184.4844,289.4727 Q183.9063,289.7539 183.4531,290.3789 Q183,291.0039 183,291.8633 L183,292.7852 Q183,293.8164 183.8438,294.5039 Q184.6875,295.1914 186.1875,295.1914 Q187.0781,295.1914 187.7031,294.9883 Q188.0625,294.8789 188.4688,294.5195 Q188.7344,294.3164 188.875,294.2539 Q189.0156,294.1914 189.1875,294.1914 Q189.5156,294.1914 189.75,294.457 Q190,294.707 190,295.0664 Q190,295.4102 189.6563,295.8164 Q189.1563,296.4102 188.3594,296.7383 Q187.3125,297.1914 186.0313,297.1914 Q184.5313,297.1914 183.3281,296.5977 Q182.3594,296.1289 181.6719,295.1133 Q181,294.0977 181,292.8945 L181,291.8008 Q181,290.5508 181.5938,289.457 Q182.2031,288.3633 183.25,287.7852 Q184.3125,287.1914 185.5,287.1914 Q186.2188,287.1914 186.8438,287.4414 Q187.4688,287.6914 188,288.1914 Z " fill="#000000"/><text fill="#000000" font-family="sans-serif" font-size="17" lengthAdjust="spacing" textLength="43" x="204" y="298.6475">Nurse</text><line style="stroke:#181818;stroke-width:0.5;" x1="172" x2="253" y1="311.3828" y2="311.3828"/><line style="stroke:#181818;stroke-width:0.5;" x1="172" x2="253" y1="319.3828" y2="319.3828"/></g><!--MD5=[6716344a46572fc99c27bf4e50ddbd3d]
reverse link Employee to Nurse--><g id="link_Employee_Nurse"><path codeLine="14" d="M160.06,126.04 C174.45,173.38 193.7,236.67 204.42,271.92 " fill="none" id="Employee-backto-Nurse" style="stroke:#181818;stroke-width:1.0;"/><polygon fill="#181818" points="158.6,121.23,157.3949,131.0049,160.0564,126.0132,165.048,128.6747,158.6,121.23" style="stroke:#181818;stroke-width:1.0;"/></g><!--MD5=[bfff716514ca687b645fe473c6e098a4]
reverse link Employee to Receptionist--><g id="link_Employee_Receptionist"><path codeLine="15" d="M123.2,126.04 C109.01,173.38 90.04,236.67 79.47,271.92 " fill="none" id="Employee-backto-Receptionist" style="stroke:#181818;stroke-width:1.0;"/><polygon fill="#181818" points="124.64,121.23,118.2123,128.6923,123.1967,126.0172,125.8718,131.0015,124.64,121.23" style="stroke:#181818;stroke-width:1.0;"/></g><!--MD5=[b8a4f1f13c2d56b2385b1bfafed8418f]
link Employee to Administrator--><g id="link_Employee_Administrator"><path codeLine="17" d="M197.76,64 C247.79,64 321.06,64 374.39,64 " fill="none" id="Employee-Administrator" style="stroke:#181818;stroke-width:1.0;"/><polygon fill="#000000" points="215,49.918,224.0451,52.8569,224.0451,46.979,215,49.918" style="stroke:#000000;stroke-width:1.0;"/><text fill="#000000" font-family="sans-serif" font-size="11" lengthAdjust="spacing" textLength="119" x="233" y="54.4189">registers and configures</text><text fill="#000000" font-family="sans-serif" font-size="13" lengthAdjust="spacing" textLength="5" x="209.4089" y="56.045">*</text><text fill="#000000" font-family="sans-serif" font-size="13" lengthAdjust="spacing" textLength="7" x="355.5927" y="56.256">1</text></g><!--MD5=[805f605a94a4bee4cdc2158452063f60]
@startuml
skinparam classFontSize 17
skinparam padding 4
skinparam ranksep 150

class Administrator
class Employee{
name
companyID
}
class Receptionist
class Nurse


Employee <- - Nurse
Employee <- - Receptionist

Administrator "1" -left- "*" Employee : <size:11>registers and configures >

@enduml

PlantUML version 1.2022.4(Sat Apr 09 14:29:17 BST 2022)
(GPL source distribution)
Java Runtime: OpenJDK Runtime Environment
JVM: OpenJDK 64-Bit Server VM
Default Encoding: Cp1252
Language: en
Country: GB
--></g></svg>