<?xml version="1.0" encoding="UTF-8" standalone="no"?><svg xmlns="http://www.w3.org/2000/svg" xmlns:xlink="http://www.w3.org/1999/xlink" contentStyleType="text/css" height="813px" preserveAspectRatio="none" style="width:708px;height:813px;background:#FFFFFF;" version="1.1" viewBox="0 0 708 813" width="708px" zoomAndPan="magnify"><defs/><g><!--MD5=[0b4e4b4980470ea387cc45de9bd14b5b]
class Application--><g id="elem_Application"><rect codeLine="3" fill="#F1F1F1" height="100.8281" id="Application" rx="2.5" ry="2.5" style="stroke:#181818;stroke-width:0.5;" width="148" x="352.5" y="295"/><ellipse cx="388.65" cy="311" fill="#ADD1B2" rx="11" ry="11" style="stroke:#181818;stroke-width:1.0;"/><path d="M390.65,307.5 Q390.8531,307 391.0875,306.75 Q391.3219,306.5 391.5875,306.5 Q392.0563,306.5 392.3531,306.7813 Q392.65,307.0625 392.65,307.7188 L392.65,309.2813 Q392.65,309.9375 392.3688,310.2188 Q392.0875,310.5 391.65,310.5 Q391.2594,310.5 391.0094,310.3281 Q390.7594,310.1563 390.65,309.7031 Q390.6031,309.3906 390.4313,309.2188 Q390.1188,308.8906 389.5563,308.7031 Q388.9938,308.5 388.4313,308.5 Q387.7281,308.5 387.1344,308.7813 Q386.5563,309.0625 386.1031,309.6875 Q385.65,310.3125 385.65,311.1719 L385.65,312.0938 Q385.65,313.125 386.4938,313.8125 Q387.3375,314.5 388.8375,314.5 Q389.7281,314.5 390.3531,314.2969 Q390.7125,314.1875 391.1188,313.8281 Q391.3844,313.625 391.525,313.5625 Q391.6656,313.5 391.8375,313.5 Q392.1656,313.5 392.4,313.7656 Q392.65,314.0156 392.65,314.375 Q392.65,314.7188 392.3063,315.125 Q391.8063,315.7188 391.0094,316.0469 Q389.9625,316.5 388.6813,316.5 Q387.1813,316.5 385.9781,315.9063 Q385.0094,315.4375 384.3219,314.4219 Q383.65,313.4063 383.65,312.2031 L383.65,311.1094 Q383.65,309.8594 384.2438,308.7656 Q384.8531,307.6719 385.9,307.0938 Q386.9625,306.5 388.15,306.5 Q388.8688,306.5 389.4938,306.75 Q390.1188,307 390.65,307.5 Z " fill="#000000"/><text fill="#000000" font-family="sans-serif" font-size="14" lengthAdjust="spacing" textLength="69" x="407.35" y="316.7285">Application</text><line style="stroke:#181818;stroke-width:0.5;" x1="353.5" x2="499.5" y1="327" y2="327"/><line style="stroke:#181818;stroke-width:0.5;" x1="353.5" x2="499.5" y1="335" y2="335"/><text fill="#000000" font-family="sans-serif" font-size="14" lengthAdjust="spacing" textLength="128" x="358.5" y="353.5332">+static getInstance()</text><text fill="#000000" font-family="sans-serif" font-size="14" lengthAdjust="spacing" textLength="136" x="358.5" y="371.1426">+getCurrentSession()</text><text fill="#000000" font-family="sans-serif" font-size="14" lengthAdjust="spacing" textLength="98" x="358.5" y="388.752">+getCompany()</text></g><!--MD5=[1607d1a70f046fb6f069cf8c3b040e6d]
class RegisterEmployee--><g id="elem_RegisterEmployee"><rect codeLine="10" fill="#F1F1F1" height="153.6563" id="RegisterEmployee" rx="2.5" ry="2.5" style="stroke:#181818;stroke-width:0.5;" width="322" x="169.5" y="635.5"/><ellipse cx="268.75" cy="651.5" fill="#ADD1B2" rx="11" ry="11" style="stroke:#181818;stroke-width:1.0;"/><path d="M270.75,648 Q270.9531,647.5 271.1875,647.25 Q271.4219,647 271.6875,647 Q272.1563,647 272.4531,647.2813 Q272.75,647.5625 272.75,648.2188 L272.75,649.7813 Q272.75,650.4375 272.4688,650.7188 Q272.1875,651 271.75,651 Q271.3594,651 271.1094,650.8281 Q270.8594,650.6563 270.75,650.2031 Q270.7031,649.8906 270.5313,649.7188 Q270.2188,649.3906 269.6563,649.2031 Q269.0938,649 268.5313,649 Q267.8281,649 267.2344,649.2813 Q266.6563,649.5625 266.2031,650.1875 Q265.75,650.8125 265.75,651.6719 L265.75,652.5938 Q265.75,653.625 266.5938,654.3125 Q267.4375,655 268.9375,655 Q269.8281,655 270.4531,654.7969 Q270.8125,654.6875 271.2188,654.3281 Q271.4844,654.125 271.625,654.0625 Q271.7656,654 271.9375,654 Q272.2656,654 272.5,654.2656 Q272.75,654.5156 272.75,654.875 Q272.75,655.2188 272.4063,655.625 Q271.9063,656.2188 271.1094,656.5469 Q270.0625,657 268.7813,657 Q267.2813,657 266.0781,656.4063 Q265.1094,655.9375 264.4219,654.9219 Q263.75,653.9063 263.75,652.7031 L263.75,651.6094 Q263.75,650.3594 264.3438,649.2656 Q264.9531,648.1719 266,647.5938 Q267.0625,647 268.25,647 Q268.9688,647 269.5938,647.25 Q270.2188,647.5 270.75,648 Z " fill="#000000"/><text fill="#000000" font-family="sans-serif" font-size="14" lengthAdjust="spacing" textLength="115" x="289.25" y="657.2285">RegisterEmployee</text><line style="stroke:#181818;stroke-width:0.5;" x1="170.5" x2="490.5" y1="667.5" y2="667.5"/><line style="stroke:#181818;stroke-width:0.5;" x1="170.5" x2="490.5" y1="675.5" y2="675.5"/><text fill="#000000" font-family="sans-serif" font-size="14" lengthAdjust="spacing" textLength="310" x="175.5" y="694.0332">+createEmployee(name, phoneNumber, address,</text><text fill="#000000" font-family="sans-serif" font-size="14" lengthAdjust="spacing" textLength="249" x="175.5" y="711.6426">emailAddress, citizenCardNumber, role)</text><text fill="#000000" font-family="sans-serif" font-size="14" lengthAdjust="spacing" textLength="156" x="175.5" y="729.252">+validateEmployee(emp)</text><text fill="#000000" font-family="sans-serif" font-size="14" lengthAdjust="spacing" textLength="155" x="175.5" y="746.8613">+registerEmployee(emp)</text><text fill="#000000" font-family="sans-serif" font-size="14" lengthAdjust="spacing" textLength="215" x="175.5" y="764.4707">+passwordGenerator(name,email)</text><text fill="#000000" font-family="sans-serif" font-size="14" lengthAdjust="spacing" textLength="131" x="175.5" y="782.0801">+addEmployee(emp)</text></g><!--MD5=[7421f545a0d8420c5bec41e74b387d9c]
class Employee--><g id="elem_Employee"><rect codeLine="18" fill="#F1F1F1" height="188.875" id="Employee" rx="2.5" ry="2.5" style="stroke:#181818;stroke-width:0.5;" width="136" x="565.5" y="618"/><ellipse cx="599.4" cy="634" fill="#ADD1B2" rx="11" ry="11" style="stroke:#181818;stroke-width:1.0;"/><path d="M601.4,630.5 Q601.6031,630 601.8375,629.75 Q602.0719,629.5 602.3375,629.5 Q602.8063,629.5 603.1031,629.7813 Q603.4,630.0625 603.4,630.7188 L603.4,632.2813 Q603.4,632.9375 603.1188,633.2188 Q602.8375,633.5 602.4,633.5 Q602.0094,633.5 601.7594,633.3281 Q601.5094,633.1563 601.4,632.7031 Q601.3531,632.3906 601.1813,632.2188 Q600.8688,631.8906 600.3063,631.7031 Q599.7438,631.5 599.1813,631.5 Q598.4781,631.5 597.8844,631.7813 Q597.3063,632.0625 596.8531,632.6875 Q596.4,633.3125 596.4,634.1719 L596.4,635.0938 Q596.4,636.125 597.2438,636.8125 Q598.0875,637.5 599.5875,637.5 Q600.4781,637.5 601.1031,637.2969 Q601.4625,637.1875 601.8688,636.8281 Q602.1344,636.625 602.275,636.5625 Q602.4156,636.5 602.5875,636.5 Q602.9156,636.5 603.15,636.7656 Q603.4,637.0156 603.4,637.375 Q603.4,637.7188 603.0563,638.125 Q602.5563,638.7188 601.7594,639.0469 Q600.7125,639.5 599.4313,639.5 Q597.9313,639.5 596.7281,638.9063 Q595.7594,638.4375 595.0719,637.4219 Q594.4,636.4063 594.4,635.2031 L594.4,634.1094 Q594.4,632.8594 594.9938,631.7656 Q595.6031,630.6719 596.65,630.0938 Q597.7125,629.5 598.9,629.5 Q599.6188,629.5 600.2438,629.75 Q600.8688,630 601.4,630.5 Z " fill="#000000"/><text fill="#000000" font-family="sans-serif" font-size="14" lengthAdjust="spacing" textLength="62" x="617.6" y="639.7285">Employee</text><line style="stroke:#181818;stroke-width:0.5;" x1="566.5" x2="700.5" y1="650" y2="650"/><text fill="#000000" font-family="sans-serif" font-size="14" lengthAdjust="spacing" textLength="40" x="571.5" y="668.5332">-name</text><text fill="#000000" font-family="sans-serif" font-size="14" lengthAdjust="spacing" textLength="94" x="571.5" y="686.1426">-phoneNumber</text><text fill="#000000" font-family="sans-serif" font-size="14" lengthAdjust="spacing" textLength="56" x="571.5" y="703.752">-address</text><text fill="#000000" font-family="sans-serif" font-size="14" lengthAdjust="spacing" textLength="90" x="571.5" y="721.3613">-emailAddress</text><text fill="#000000" font-family="sans-serif" font-size="14" lengthAdjust="spacing" textLength="124" x="571.5" y="738.9707">-citizenCardNumber</text><text fill="#000000" font-family="sans-serif" font-size="14" lengthAdjust="spacing" textLength="75" x="571.5" y="756.5801">-companyID</text><line style="stroke:#181818;stroke-width:0.5;" x1="566.5" x2="700.5" y1="763.6563" y2="763.6563"/><text fill="#000000" font-family="sans-serif" font-size="14" lengthAdjust="spacing" textLength="124" x="571.5" y="782.1895">+getEmailAddress()</text><text fill="#000000" font-family="sans-serif" font-size="14" lengthAdjust="spacing" textLength="74" x="571.5" y="799.7988">+getName()</text></g><!--MD5=[02e4b9b7573f1156f41e60aa5b4e25a4]
class Company--><g id="elem_Company"><rect codeLine="29" fill="#F1F1F1" height="83.2188" id="Company" rx="2.5" ry="2.5" style="stroke:#181818;stroke-width:0.5;" width="127" x="119" y="304"/><ellipse cx="149.75" cy="320" fill="#ADD1B2" rx="11" ry="11" style="stroke:#181818;stroke-width:1.0;"/><path d="M151.75,316.5 Q151.9531,316 152.1875,315.75 Q152.4219,315.5 152.6875,315.5 Q153.1563,315.5 153.4531,315.7813 Q153.75,316.0625 153.75,316.7188 L153.75,318.2813 Q153.75,318.9375 153.4688,319.2188 Q153.1875,319.5 152.75,319.5 Q152.3594,319.5 152.1094,319.3281 Q151.8594,319.1563 151.75,318.7031 Q151.7031,318.3906 151.5313,318.2188 Q151.2188,317.8906 150.6563,317.7031 Q150.0938,317.5 149.5313,317.5 Q148.8281,317.5 148.2344,317.7813 Q147.6563,318.0625 147.2031,318.6875 Q146.75,319.3125 146.75,320.1719 L146.75,321.0938 Q146.75,322.125 147.5938,322.8125 Q148.4375,323.5 149.9375,323.5 Q150.8281,323.5 151.4531,323.2969 Q151.8125,323.1875 152.2188,322.8281 Q152.4844,322.625 152.625,322.5625 Q152.7656,322.5 152.9375,322.5 Q153.2656,322.5 153.5,322.7656 Q153.75,323.0156 153.75,323.375 Q153.75,323.7188 153.4063,324.125 Q152.9063,324.7188 152.1094,325.0469 Q151.0625,325.5 149.7813,325.5 Q148.2813,325.5 147.0781,324.9063 Q146.1094,324.4375 145.4219,323.4219 Q144.75,322.4063 144.75,321.2031 L144.75,320.1094 Q144.75,318.8594 145.3438,317.7656 Q145.9531,316.6719 147,316.0938 Q148.0625,315.5 149.25,315.5 Q149.9688,315.5 150.5938,315.75 Q151.2188,316 151.75,316.5 Z " fill="#000000"/><text fill="#000000" font-family="sans-serif" font-size="14" lengthAdjust="spacing" textLength="60" x="167.25" y="325.7285">Company</text><line style="stroke:#181818;stroke-width:0.5;" x1="120" x2="245" y1="336" y2="336"/><line style="stroke:#181818;stroke-width:0.5;" x1="120" x2="245" y1="344" y2="344"/><text fill="#000000" font-family="sans-serif" font-size="14" lengthAdjust="spacing" textLength="90" x="125" y="362.5332">+getPlatform()</text><text fill="#000000" font-family="sans-serif" font-size="14" lengthAdjust="spacing" textLength="115" x="125" y="380.1426">+getAuthFacade()</text></g><!--MD5=[99b8db98afdc2c8404e39242ef4c1e65]
class Platform--><g id="elem_Platform"><rect codeLine="36" fill="#F1F1F1" height="65.6094" id="Platform" rx="2.5" ry="2.5" style="stroke:#181818;stroke-width:0.5;" width="165" x="217" y="474"/><ellipse cx="269.25" cy="490" fill="#ADD1B2" rx="11" ry="11" style="stroke:#181818;stroke-width:1.0;"/><path d="M271.25,486.5 Q271.4531,486 271.6875,485.75 Q271.9219,485.5 272.1875,485.5 Q272.6563,485.5 272.9531,485.7813 Q273.25,486.0625 273.25,486.7188 L273.25,488.2813 Q273.25,488.9375 272.9688,489.2188 Q272.6875,489.5 272.25,489.5 Q271.8594,489.5 271.6094,489.3281 Q271.3594,489.1563 271.25,488.7031 Q271.2031,488.3906 271.0313,488.2188 Q270.7188,487.8906 270.1563,487.7031 Q269.5938,487.5 269.0313,487.5 Q268.3281,487.5 267.7344,487.7813 Q267.1563,488.0625 266.7031,488.6875 Q266.25,489.3125 266.25,490.1719 L266.25,491.0938 Q266.25,492.125 267.0938,492.8125 Q267.9375,493.5 269.4375,493.5 Q270.3281,493.5 270.9531,493.2969 Q271.3125,493.1875 271.7188,492.8281 Q271.9844,492.625 272.125,492.5625 Q272.2656,492.5 272.4375,492.5 Q272.7656,492.5 273,492.7656 Q273.25,493.0156 273.25,493.375 Q273.25,493.7188 272.9063,494.125 Q272.4063,494.7188 271.6094,495.0469 Q270.5625,495.5 269.2813,495.5 Q267.7813,495.5 266.5781,494.9063 Q265.6094,494.4375 264.9219,493.4219 Q264.25,492.4063 264.25,491.2031 L264.25,490.1094 Q264.25,488.8594 264.8438,487.7656 Q265.4531,486.6719 266.5,486.0938 Q267.5625,485.5 268.75,485.5 Q269.4688,485.5 270.0938,485.75 Q270.7188,486 271.25,486.5 Z " fill="#000000"/><text fill="#000000" font-family="sans-serif" font-size="14" lengthAdjust="spacing" textLength="52" x="289.75" y="495.7285">Platform</text><line style="stroke:#181818;stroke-width:0.5;" x1="218" x2="381" y1="506" y2="506"/><line style="stroke:#181818;stroke-width:0.5;" x1="218" x2="381" y1="514" y2="514"/><text fill="#000000" font-family="sans-serif" font-size="14" lengthAdjust="spacing" textLength="153" x="223" y="532.5332">+getRegisterEmployee()</text></g><!--MD5=[6a4e699b59c2ecf8286aba2faa72e4bd]
class RegisterEmployeeController--><g id="elem_RegisterEmployeeController"><rect codeLine="41" fill="#F1F1F1" height="118.4375" id="RegisterEmployeeController" rx="2.5" ry="2.5" style="stroke:#181818;stroke-width:0.5;" width="322" x="180.5" y="116"/><ellipse cx="248.75" cy="132" fill="#ADD1B2" rx="11" ry="11" style="stroke:#181818;stroke-width:1.0;"/><path d="M250.75,128.5 Q250.9531,128 251.1875,127.75 Q251.4219,127.5 251.6875,127.5 Q252.1563,127.5 252.4531,127.7813 Q252.75,128.0625 252.75,128.7188 L252.75,130.2813 Q252.75,130.9375 252.4688,131.2188 Q252.1875,131.5 251.75,131.5 Q251.3594,131.5 251.1094,131.3281 Q250.8594,131.1563 250.75,130.7031 Q250.7031,130.3906 250.5313,130.2188 Q250.2188,129.8906 249.6563,129.7031 Q249.0938,129.5 248.5313,129.5 Q247.8281,129.5 247.2344,129.7813 Q246.6563,130.0625 246.2031,130.6875 Q245.75,131.3125 245.75,132.1719 L245.75,133.0938 Q245.75,134.125 246.5938,134.8125 Q247.4375,135.5 248.9375,135.5 Q249.8281,135.5 250.4531,135.2969 Q250.8125,135.1875 251.2188,134.8281 Q251.4844,134.625 251.625,134.5625 Q251.7656,134.5 251.9375,134.5 Q252.2656,134.5 252.5,134.7656 Q252.75,135.0156 252.75,135.375 Q252.75,135.7188 252.4063,136.125 Q251.9063,136.7188 251.1094,137.0469 Q250.0625,137.5 248.7813,137.5 Q247.2813,137.5 246.0781,136.9063 Q245.1094,136.4375 244.4219,135.4219 Q243.75,134.4063 243.75,133.2031 L243.75,132.1094 Q243.75,130.8594 244.3438,129.7656 Q244.9531,128.6719 246,128.0938 Q247.0625,127.5 248.25,127.5 Q248.9688,127.5 249.5938,127.75 Q250.2188,128 250.75,128.5 Z " fill="#000000"/><text fill="#000000" font-family="sans-serif" font-size="14" lengthAdjust="spacing" textLength="177" x="269.25" y="137.7285">RegisterEmployeeController</text><line style="stroke:#181818;stroke-width:0.5;" x1="181.5" x2="501.5" y1="148" y2="148"/><line style="stroke:#181818;stroke-width:0.5;" x1="181.5" x2="501.5" y1="156" y2="156"/><text fill="#000000" font-family="sans-serif" font-size="14" lengthAdjust="spacing" textLength="74" x="186.5" y="174.5332">+getRoles()</text><text fill="#000000" font-family="sans-serif" font-size="14" lengthAdjust="spacing" textLength="310" x="186.5" y="192.1426">+createEmployee(name, phoneNumber, address,</text><text fill="#000000" font-family="sans-serif" font-size="14" lengthAdjust="spacing" textLength="249" x="190.5" y="209.752">emailAddress, citizenCardNumber, role)</text><text fill="#000000" font-family="sans-serif" font-size="14" lengthAdjust="spacing" textLength="128" x="186.5" y="227.3613">+registerEmployee()</text></g><!--MD5=[a126dd63c8621c017159ae62771fbe54]
class RegisterEmployeeUI--><g id="elem_RegisterEmployeeUI"><rect codeLine="48" fill="#F1F1F1" height="48" id="RegisterEmployeeUI" rx="2.5" ry="2.5" style="stroke:#181818;stroke-width:0.5;" width="159" x="262" y="7"/><ellipse cx="277" cy="23" fill="#ADD1B2" rx="11" ry="11" style="stroke:#181818;stroke-width:1.0;"/><path d="M279,19.5 Q279.2031,19 279.4375,18.75 Q279.6719,18.5 279.9375,18.5 Q280.4063,18.5 280.7031,18.7813 Q281,19.0625 281,19.7188 L281,21.2813 Q281,21.9375 280.7188,22.2188 Q280.4375,22.5 280,22.5 Q279.6094,22.5 279.3594,22.3281 Q279.1094,22.1563 279,21.7031 Q278.9531,21.3906 278.7813,21.2188 Q278.4688,20.8906 277.9063,20.7031 Q277.3438,20.5 276.7813,20.5 Q276.0781,20.5 275.4844,20.7813 Q274.9063,21.0625 274.4531,21.6875 Q274,22.3125 274,23.1719 L274,24.0938 Q274,25.125 274.8438,25.8125 Q275.6875,26.5 277.1875,26.5 Q278.0781,26.5 278.7031,26.2969 Q279.0625,26.1875 279.4688,25.8281 Q279.7344,25.625 279.875,25.5625 Q280.0156,25.5 280.1875,25.5 Q280.5156,25.5 280.75,25.7656 Q281,26.0156 281,26.375 Q281,26.7188 280.6563,27.125 Q280.1563,27.7188 279.3594,28.0469 Q278.3125,28.5 277.0313,28.5 Q275.5313,28.5 274.3281,27.9063 Q273.3594,27.4375 272.6719,26.4219 Q272,25.4063 272,24.2031 L272,23.1094 Q272,21.8594 272.5938,20.7656 Q273.2031,19.6719 274.25,19.0938 Q275.3125,18.5 276.5,18.5 Q277.2188,18.5 277.8438,18.75 Q278.4688,19 279,19.5 Z " fill="#000000"/><text fill="#000000" font-family="sans-serif" font-size="14" lengthAdjust="spacing" textLength="127" x="291" y="28.7285">RegisterEmployeeUI</text><line style="stroke:#181818;stroke-width:0.5;" x1="263" x2="420" y1="39" y2="39"/><line style="stroke:#181818;stroke-width:0.5;" x1="263" x2="420" y1="47" y2="47"/></g><!--MD5=[8ae808d068a8995f06b9b3ec51357f0b]
class AuthFacade--><g id="elem_AuthFacade"><rect codeLine="52" fill="#F1F1F1" height="83.2188" id="AuthFacade" rx="2.5" ry="2.5" style="stroke:#181818;stroke-width:0.5;" width="127" x="7" y="671"/><ellipse cx="30.1" cy="687" fill="#ADD1B2" rx="11" ry="11" style="stroke:#181818;stroke-width:1.0;"/><path d="M32.1,683.5 Q32.3031,683 32.5375,682.75 Q32.7719,682.5 33.0375,682.5 Q33.5063,682.5 33.8031,682.7813 Q34.1,683.0625 34.1,683.7188 L34.1,685.2813 Q34.1,685.9375 33.8188,686.2188 Q33.5375,686.5 33.1,686.5 Q32.7094,686.5 32.4594,686.3281 Q32.2094,686.1563 32.1,685.7031 Q32.0531,685.3906 31.8813,685.2188 Q31.5688,684.8906 31.0063,684.7031 Q30.4438,684.5 29.8813,684.5 Q29.1781,684.5 28.5844,684.7813 Q28.0063,685.0625 27.5531,685.6875 Q27.1,686.3125 27.1,687.1719 L27.1,688.0938 Q27.1,689.125 27.9438,689.8125 Q28.7875,690.5 30.2875,690.5 Q31.1781,690.5 31.8031,690.2969 Q32.1625,690.1875 32.5688,689.8281 Q32.8344,689.625 32.975,689.5625 Q33.1156,689.5 33.2875,689.5 Q33.6156,689.5 33.85,689.7656 Q34.1,690.0156 34.1,690.375 Q34.1,690.7188 33.7563,691.125 Q33.2563,691.7188 32.4594,692.0469 Q31.4125,692.5 30.1313,692.5 Q28.6313,692.5 27.4281,691.9063 Q26.4594,691.4375 25.7719,690.4219 Q25.1,689.4063 25.1,688.2031 L25.1,687.1094 Q25.1,685.8594 25.6938,684.7656 Q26.3031,683.6719 27.35,683.0938 Q28.4125,682.5 29.6,682.5 Q30.3188,682.5 30.9438,682.75 Q31.5688,683 32.1,683.5 Z " fill="#000000"/><text fill="#000000" font-family="sans-serif" font-size="14" lengthAdjust="spacing" textLength="77" x="45.9" y="692.7285">AuthFacade</text><line style="stroke:#181818;stroke-width:0.5;" x1="8" x2="133" y1="703" y2="703"/><line style="stroke:#181818;stroke-width:0.5;" x1="8" x2="133" y1="711" y2="711"/><text fill="#000000" font-family="sans-serif" font-size="14" lengthAdjust="spacing" textLength="103" x="13" y="729.5332">+getUserRoles()</text><text fill="#000000" font-family="sans-serif" font-size="14" lengthAdjust="spacing" textLength="115" x="13" y="747.1426">+existsUser(email)</text></g><!--MD5=[3fd241ca11f270f6bde54c00b8a8581a]
link RegisterEmployeeUI to RegisterEmployeeController--><g id="link_RegisterEmployeeUI_RegisterEmployeeController"><path codeLine="57" d="M341.5,55.13 C341.5,70.35 341.5,91.05 341.5,110.92 " fill="none" id="RegisterEmployeeUI-to-RegisterEmployeeController" style="stroke:#181818;stroke-width:1.0;stroke-dasharray:7.0,7.0;"/><polygon fill="#181818" points="341.5,115.94,345.5,106.94,341.5,110.94,337.5,106.94,341.5,115.94" style="stroke:#181818;stroke-width:1.0;"/></g><!--MD5=[97395f67feccdedc941f19c91367cdec]
link RegisterEmployeeController to Platform--><g id="link_RegisterEmployeeController_Platform"><path codeLine="58" d="M334.09,234.24 C325.47,301.95 311.5,411.7 304.23,468.81 " fill="none" id="RegisterEmployeeController-to-Platform" style="stroke:#181818;stroke-width:1.0;stroke-dasharray:7.0,7.0;"/><polygon fill="#181818" points="303.59,473.83,308.6904,465.4047,304.219,468.8697,300.7539,464.3983,303.59,473.83" style="stroke:#181818;stroke-width:1.0;"/></g><!--MD5=[7c63a46d16d075ca7ac66937a2a499f7]
link RegisterEmployeeController to Employee--><g id="link_RegisterEmployeeController_Employee"><path codeLine="59" d="M454.28,234.28 C478.3,251.1 501.51,271.41 518.5,295 C586.59,389.54 614.39,522.67 625.72,612.77 " fill="none" id="RegisterEmployeeController-to-Employee" style="stroke:#181818;stroke-width:1.0;stroke-dasharray:7.0,7.0;"/><polygon fill="#181818" points="626.35,617.83,629.2396,608.4146,625.7492,612.8662,621.2975,609.3759,626.35,617.83" style="stroke:#181818;stroke-width:1.0;"/></g><!--MD5=[969ee03aa52aee79b0e607297418cbd4]
link RegisterEmployeeController to Company--><g id="link_RegisterEmployeeController_Company"><path codeLine="60" d="M286.34,234.46 C266.07,255.94 243.47,279.89 224.54,299.95 " fill="none" id="RegisterEmployeeController-to-Company" style="stroke:#181818;stroke-width:1.0;stroke-dasharray:7.0,7.0;"/><polygon fill="#181818" points="220.81,303.9,229.8985,300.1055,224.244,300.2657,224.0837,294.6111,220.81,303.9" style="stroke:#181818;stroke-width:1.0;"/></g><!--MD5=[8c18a3e8a8e8f79c569ce45c8096cb72]
link RegisterEmployeeController to Application--><g id="link_RegisterEmployeeController_Application"><path codeLine="61" d="M370.99,234.46 C380.14,252.6 390.18,272.5 399.18,290.34 " fill="none" id="RegisterEmployeeController-to-Application" style="stroke:#181818;stroke-width:1.0;stroke-dasharray:7.0,7.0;"/><polygon fill="#181818" points="401.44,294.82,400.9425,284.9837,399.1811,290.3594,393.8054,288.598,401.44,294.82" style="stroke:#181818;stroke-width:1.0;"/></g><!--MD5=[eab00be0507a9170c24b1176aa61d4c9]
link RegisterEmployee to Employee--><g id="link_RegisterEmployee_Employee"><path codeLine="62" d="M491.76,712.5 C515.6,712.5 539.12,712.5 559.94,712.5 " fill="none" id="RegisterEmployee-to-Employee" style="stroke:#181818;stroke-width:1.0;"/><polygon fill="#181818" points="565.17,712.5,556.17,708.5,560.17,712.5,556.17,716.5,565.17,712.5" style="stroke:#181818;stroke-width:1.0;"/><text fill="#000000" font-family="sans-serif" font-size="13" lengthAdjust="spacing" textLength="37" x="510" y="705.9951">knows</text><text fill="#000000" font-family="sans-serif" font-size="13" lengthAdjust="spacing" textLength="7" x="499.7406" y="709.6245">1</text><text fill="#000000" font-family="sans-serif" font-size="13" lengthAdjust="spacing" textLength="5" x="552.423" y="709.1462">*</text></g><!--MD5=[9a80ca622aa33540c5ebfb66ac08c660]
link Platform to RegisterEmployee--><g id="link_Platform_RegisterEmployee"><path codeLine="63" d="M304.41,540.25 C308.11,564.5 313.34,598.85 318.15,630.42 " fill="none" id="Platform-to-RegisterEmployee" style="stroke:#181818;stroke-width:1.0;"/><polygon fill="#181818" points="318.92,635.47,321.5112,625.9681,318.1629,630.5276,313.6034,627.1794,318.92,635.47" style="stroke:#181818;stroke-width:1.0;"/><text fill="#000000" font-family="sans-serif" font-size="13" lengthAdjust="spacing" textLength="21" x="312.5" y="584.4951">has</text><text fill="#000000" font-family="sans-serif" font-size="13" lengthAdjust="spacing" textLength="7" x="297.6612" y="561.1589">1</text><text fill="#000000" font-family="sans-serif" font-size="13" lengthAdjust="spacing" textLength="7" x="310.4356" y="624.6292">1</text></g><!--MD5=[71da4be24892bfec694db06bf9e3c284]
link Company to Platform--><g id="link_Company_Platform"><path codeLine="64" d="M210.09,387.21 C222.24,404.84 236.84,425.61 250.5,444 C256.76,452.42 263.65,461.35 270.24,469.72 " fill="none" id="Company-to-Platform" style="stroke:#181818;stroke-width:1.0;"/><polygon fill="#181818" points="273.45,473.78,271.0364,464.2315,270.3615,469.8479,264.7451,469.173,273.45,473.78" style="stroke:#181818;stroke-width:1.0;"/><text fill="#000000" font-family="sans-serif" font-size="13" lengthAdjust="spacing" textLength="21" x="251.5" y="440.4951">has</text><text fill="#000000" font-family="sans-serif" font-size="13" lengthAdjust="spacing" textLength="7" x="206.9293" y="408.6382">1</text><text fill="#000000" font-family="sans-serif" font-size="13" lengthAdjust="spacing" textLength="7" x="260.6323" y="463.233">1</text></g><!--MD5=[6002efb027849eb25b8b7e40c03b9b24]
link Application to Platform--><g id="link_Application_Platform"><path codeLine="65" d="M387.01,396.09 C368.09,419.85 345.84,447.8 328.51,469.57 " fill="none" id="Application-to-Platform" style="stroke:#181818;stroke-width:1.0;stroke-dasharray:7.0,7.0;"/><polygon fill="#181818" points="325.33,473.56,334.0636,469.0076,328.443,469.6473,327.8033,464.0267,325.33,473.56" style="stroke:#181818;stroke-width:1.0;"/></g><!--MD5=[717d4b03d3c4372f4eafe5e342a0a7dd]
link Company to AuthFacade--><g id="link_Company_AuthFacade"><path codeLine="66" d="M169.98,387.31 C148.91,455.98 106.51,594.15 84.49,665.9 " fill="none" id="Company-to-AuthFacade" style="stroke:#181818;stroke-width:1.0;stroke-dasharray:7.0,7.0;"/><polygon fill="#181818" points="82.94,670.95,89.4146,663.5284,84.4134,666.172,81.7698,661.1709,82.94,670.95" style="stroke:#181818;stroke-width:1.0;"/></g><!--MD5=[45628f1328460b055b9a5c61b7bfe2b6]
link Platform to AuthFacade--><g id="link_Platform_AuthFacade"><path codeLine="67" d="M250.77,540.19 C220.86,560.91 182.48,589.26 151.5,618 C135.54,632.81 119.51,650.56 105.97,666.6 " fill="none" id="Platform-to-AuthFacade" style="stroke:#181818;stroke-width:1.0;stroke-dasharray:7.0,7.0;"/><polygon fill="#181818" points="102.59,670.63,111.4404,666.3091,105.805,666.8006,105.3134,661.1652,102.59,670.63" style="stroke:#181818;stroke-width:1.0;"/></g><!--MD5=[11b5509dc1688020c021c7cd88911254]
reverse link AuthFacade to RegisterEmployee--><g id="link_AuthFacade_RegisterEmployee"><path codeLine="68" d="M139.47,712.5 C149.48,712.5 159.49,712.5 169.5,712.5 " fill="none" id="AuthFacade-backto-RegisterEmployee" style="stroke:#181818;stroke-width:1.0;stroke-dasharray:7.0,7.0;"/><polygon fill="#181818" points="134.23,712.5,143.23,716.5,139.23,712.5,143.23,708.5,134.23,712.5" style="stroke:#181818;stroke-width:1.0;"/></g><!--MD5=[13334c020679f970ec94bd9968976258]
@startuml
skinparam classAttributeIconSize 0

class Application {
  +static getInstance()
  +getCurrentSession()
  +getCompany()

}

class RegisterEmployee {
+createEmployee(name, phoneNumber, address,\nemailAddress, citizenCardNumber, role)
+validateEmployee(emp)
+registerEmployee(emp)
+passwordGenerator(name,email)
+addEmployee(emp)
}

class Employee {
-name
-phoneNumber
-address
-emailAddress
-citizenCardNumber
-companyID
+getEmailAddress()
+getName()
}

class Company {

  +getPlatform()
  +getAuthFacade()

}

class Platform {

  +getRegisterEmployee()
}

class RegisterEmployeeController {
+getRoles()
+createEmployee(name, phoneNumber, address,\n emailAddress, citizenCardNumber, role)
+registerEmployee()

}

class RegisterEmployeeUI {

}

class AuthFacade{
+getUserRoles()
+existsUser(email)
}

RegisterEmployeeUI ..> RegisterEmployeeController
RegisterEmployeeController ..> Platform
RegisterEmployeeController ..> Employee
RegisterEmployeeController ..> Company
RegisterEmployeeController ..> Application
RegisterEmployee "1" -> "*" Employee : knows
Platform "1" - -> "1" RegisterEmployee : has
Company "1" - -> "1" Platform : has
Application ..> Platform
Company ..> AuthFacade
Platform ..> AuthFacade
RegisterEmployee .left.> AuthFacade


@enduml

PlantUML version 1.2022.4(Sat Apr 09 14:29:17 BST 2022)
(GPL source distribution)
Java Runtime: OpenJDK Runtime Environment
JVM: OpenJDK 64-Bit Server VM
Default Encoding: Cp1252
Language: en
Country: US
--></g></svg>