<?xml version="1.0" encoding="UTF-8" standalone="no"?><svg xmlns="http://www.w3.org/2000/svg" xmlns:xlink="http://www.w3.org/1999/xlink" contentStyleType="text/css" height="429px" preserveAspectRatio="none" style="width:530px;height:429px;background:#FFFFFF;" version="1.1" viewBox="0 0 530 429" width="530px" zoomAndPan="magnify"><defs/><g><!--MD5=[da547346deef918ea16944ba046651ef]
class Administrator--><g id="elem_Administrator"><rect codeLine="5" fill="#F1F1F1" height="55.3828" id="Administrator" rx="2.5" ry="2.5" style="stroke:#181818;stroke-width:0.5;" width="136" x="387.5" y="84"/><ellipse cx="402.5" cy="103.6914" fill="#ADD1B2" rx="11" ry="11" style="stroke:#181818;stroke-width:1.0;"/><path d="M404.5,100.1914 Q404.7031,99.6914 404.9375,99.4414 Q405.1719,99.1914 405.4375,99.1914 Q405.9063,99.1914 406.2031,99.4727 Q406.5,99.7539 406.5,100.4102 L406.5,101.9727 Q406.5,102.6289 406.2188,102.9102 Q405.9375,103.1914 405.5,103.1914 Q405.1094,103.1914 404.8594,103.0195 Q404.6094,102.8477 404.5,102.3945 Q404.4531,102.082 404.2813,101.9102 Q403.9688,101.582 403.4063,101.3945 Q402.8438,101.1914 402.2813,101.1914 Q401.5781,101.1914 400.9844,101.4727 Q400.4063,101.7539 399.9531,102.3789 Q399.5,103.0039 399.5,103.8633 L399.5,104.7852 Q399.5,105.8164 400.3438,106.5039 Q401.1875,107.1914 402.6875,107.1914 Q403.5781,107.1914 404.2031,106.9883 Q404.5625,106.8789 404.9688,106.5195 Q405.2344,106.3164 405.375,106.2539 Q405.5156,106.1914 405.6875,106.1914 Q406.0156,106.1914 406.25,106.457 Q406.5,106.707 406.5,107.0664 Q406.5,107.4102 406.1563,107.8164 Q405.6563,108.4102 404.8594,108.7383 Q403.8125,109.1914 402.5313,109.1914 Q401.0313,109.1914 399.8281,108.5977 Q398.8594,108.1289 398.1719,107.1133 Q397.5,106.0977 397.5,104.8945 L397.5,103.8008 Q397.5,102.5508 398.0938,101.457 Q398.7031,100.3633 399.75,99.7852 Q400.8125,99.1914 402,99.1914 Q402.7188,99.1914 403.3438,99.4414 Q403.9688,99.6914 404.5,100.1914 Z " fill="#000000"/><text fill="#000000" font-family="sans-serif" font-size="17" lengthAdjust="spacing" textLength="96" x="420.5" y="110.6475">Administrator</text><line style="stroke:#181818;stroke-width:0.5;" x1="388.5" x2="522.5" y1="123.3828" y2="123.3828"/><line style="stroke:#181818;stroke-width:0.5;" x1="388.5" x2="522.5" y1="131.3828" y2="131.3828"/></g><!--MD5=[7421f545a0d8420c5bec41e74b387d9c]
class Employee--><g id="elem_Employee"><rect codeLine="6" fill="#F1F1F1" height="209.0391" id="Employee" rx="2.5" ry="2.5" style="stroke:#181818;stroke-width:0.5;" width="139" x="72" y="7"/><ellipse cx="99.15" cy="26.6914" fill="#ADD1B2" rx="11" ry="11" style="stroke:#181818;stroke-width:1.0;"/><path d="M101.15,23.1914 Q101.3531,22.6914 101.5875,22.4414 Q101.8219,22.1914 102.0875,22.1914 Q102.5563,22.1914 102.8531,22.4727 Q103.15,22.7539 103.15,23.4102 L103.15,24.9727 Q103.15,25.6289 102.8688,25.9102 Q102.5875,26.1914 102.15,26.1914 Q101.7594,26.1914 101.5094,26.0195 Q101.2594,25.8477 101.15,25.3945 Q101.1031,25.082 100.9313,24.9102 Q100.6188,24.582 100.0563,24.3945 Q99.4938,24.1914 98.9313,24.1914 Q98.2281,24.1914 97.6344,24.4727 Q97.0563,24.7539 96.6031,25.3789 Q96.15,26.0039 96.15,26.8633 L96.15,27.7852 Q96.15,28.8164 96.9938,29.5039 Q97.8375,30.1914 99.3375,30.1914 Q100.2281,30.1914 100.8531,29.9883 Q101.2125,29.8789 101.6188,29.5195 Q101.8844,29.3164 102.025,29.2539 Q102.1656,29.1914 102.3375,29.1914 Q102.6656,29.1914 102.9,29.457 Q103.15,29.707 103.15,30.0664 Q103.15,30.4102 102.8063,30.8164 Q102.3063,31.4102 101.5094,31.7383 Q100.4625,32.1914 99.1813,32.1914 Q97.6813,32.1914 96.4781,31.5977 Q95.5094,31.1289 94.8219,30.1133 Q94.15,29.0977 94.15,27.8945 L94.15,26.8008 Q94.15,25.5508 94.7438,24.457 Q95.3531,23.3633 96.4,22.7852 Q97.4625,22.1914 98.65,22.1914 Q99.3688,22.1914 99.9938,22.4414 Q100.6188,22.6914 101.15,23.1914 Z " fill="#000000"/><text fill="#000000" font-family="sans-serif" font-size="17" lengthAdjust="spacing" textLength="72" x="119.85" y="33.6475">Employee</text><line style="stroke:#181818;stroke-width:0.5;" x1="73" x2="210" y1="46.3828" y2="46.3828"/><text fill="#000000" font-family="sans-serif" font-size="14" lengthAdjust="spacing" textLength="35" x="82" y="68.916">name</text><text fill="#000000" font-family="sans-serif" font-size="14" lengthAdjust="spacing" textLength="89" x="82" y="94.5254">phoneNumber</text><text fill="#000000" font-family="sans-serif" font-size="14" lengthAdjust="spacing" textLength="51" x="82" y="120.1348">address</text><text fill="#000000" font-family="sans-serif" font-size="14" lengthAdjust="spacing" textLength="85" x="82" y="145.7441">emailAddress</text><text fill="#000000" font-family="sans-serif" font-size="14" lengthAdjust="spacing" textLength="119" x="82" y="171.3535">citizenCardNumber</text><text fill="#000000" font-family="sans-serif" font-size="14" lengthAdjust="spacing" textLength="70" x="82" y="196.9629">companyID</text><line style="stroke:#181818;stroke-width:0.5;" x1="73" x2="210" y1="208.0391" y2="208.0391"/></g><!--MD5=[03960189e81aa2c066c762ffabbee709]
class Receptionist--><g id="elem_Receptionist"><rect codeLine="14" fill="#F1F1F1" height="55.3828" id="Receptionist" rx="2.5" ry="2.5" style="stroke:#181818;stroke-width:0.5;" width="129" x="7" y="367"/><ellipse cx="22" cy="386.6914" fill="#ADD1B2" rx="11" ry="11" style="stroke:#181818;stroke-width:1.0;"/><path d="M24,383.1914 Q24.2031,382.6914 24.4375,382.4414 Q24.6719,382.1914 24.9375,382.1914 Q25.4063,382.1914 25.7031,382.4727 Q26,382.7539 26,383.4102 L26,384.9727 Q26,385.6289 25.7188,385.9102 Q25.4375,386.1914 25,386.1914 Q24.6094,386.1914 24.3594,386.0195 Q24.1094,385.8477 24,385.3945 Q23.9531,385.082 23.7813,384.9102 Q23.4688,384.582 22.9063,384.3945 Q22.3438,384.1914 21.7813,384.1914 Q21.0781,384.1914 20.4844,384.4727 Q19.9063,384.7539 19.4531,385.3789 Q19,386.0039 19,386.8633 L19,387.7852 Q19,388.8164 19.8438,389.5039 Q20.6875,390.1914 22.1875,390.1914 Q23.0781,390.1914 23.7031,389.9883 Q24.0625,389.8789 24.4688,389.5195 Q24.7344,389.3164 24.875,389.2539 Q25.0156,389.1914 25.1875,389.1914 Q25.5156,389.1914 25.75,389.457 Q26,389.707 26,390.0664 Q26,390.4102 25.6563,390.8164 Q25.1563,391.4102 24.3594,391.7383 Q23.3125,392.1914 22.0313,392.1914 Q20.5313,392.1914 19.3281,391.5977 Q18.3594,391.1289 17.6719,390.1133 Q17,389.0977 17,387.8945 L17,386.8008 Q17,385.5508 17.5938,384.457 Q18.2031,383.3633 19.25,382.7852 Q20.3125,382.1914 21.5,382.1914 Q22.2188,382.1914 22.8438,382.4414 Q23.4688,382.6914 24,383.1914 Z " fill="#000000"/><text fill="#000000" font-family="sans-serif" font-size="17" lengthAdjust="spacing" textLength="89" x="40" y="393.6475">Receptionist</text><line style="stroke:#181818;stroke-width:0.5;" x1="8" x2="135" y1="406.3828" y2="406.3828"/><line style="stroke:#181818;stroke-width:0.5;" x1="8" x2="135" y1="414.3828" y2="414.3828"/></g><!--MD5=[a059576e163b46f56762f12600c49258]
class Nurse--><g id="elem_Nurse"><rect codeLine="15" fill="#F1F1F1" height="55.3828" id="Nurse" rx="2.5" ry="2.5" style="stroke:#181818;stroke-width:0.5;" width="83" x="171" y="367"/><ellipse cx="186" cy="386.6914" fill="#ADD1B2" rx="11" ry="11" style="stroke:#181818;stroke-width:1.0;"/><path d="M188,383.1914 Q188.2031,382.6914 188.4375,382.4414 Q188.6719,382.1914 188.9375,382.1914 Q189.4063,382.1914 189.7031,382.4727 Q190,382.7539 190,383.4102 L190,384.9727 Q190,385.6289 189.7188,385.9102 Q189.4375,386.1914 189,386.1914 Q188.6094,386.1914 188.3594,386.0195 Q188.1094,385.8477 188,385.3945 Q187.9531,385.082 187.7813,384.9102 Q187.4688,384.582 186.9063,384.3945 Q186.3438,384.1914 185.7813,384.1914 Q185.0781,384.1914 184.4844,384.4727 Q183.9063,384.7539 183.4531,385.3789 Q183,386.0039 183,386.8633 L183,387.7852 Q183,388.8164 183.8438,389.5039 Q184.6875,390.1914 186.1875,390.1914 Q187.0781,390.1914 187.7031,389.9883 Q188.0625,389.8789 188.4688,389.5195 Q188.7344,389.3164 188.875,389.2539 Q189.0156,389.1914 189.1875,389.1914 Q189.5156,389.1914 189.75,389.457 Q190,389.707 190,390.0664 Q190,390.4102 189.6563,390.8164 Q189.1563,391.4102 188.3594,391.7383 Q187.3125,392.1914 186.0313,392.1914 Q184.5313,392.1914 183.3281,391.5977 Q182.3594,391.1289 181.6719,390.1133 Q181,389.0977 181,387.8945 L181,386.8008 Q181,385.5508 181.5938,384.457 Q182.2031,383.3633 183.25,382.7852 Q184.3125,382.1914 185.5,382.1914 Q186.2188,382.1914 186.8438,382.4414 Q187.4688,382.6914 188,383.1914 Z " fill="#000000"/><text fill="#000000" font-family="sans-serif" font-size="17" lengthAdjust="spacing" textLength="43" x="204" y="393.6475">Nurse</text><line style="stroke:#181818;stroke-width:0.5;" x1="172" x2="253" y1="406.3828" y2="406.3828"/><line style="stroke:#181818;stroke-width:0.5;" x1="172" x2="253" y1="414.3828" y2="414.3828"/></g><!--MD5=[6716344a46572fc99c27bf4e50ddbd3d]
reverse link Employee to Nurse--><g id="link_Employee_Nurse"><path codeLine="18" d="M169.02,221.43 C182.37,274.27 197.31,333.4 205.74,366.77 " fill="none" id="Employee-backto-Nurse" style="stroke:#181818;stroke-width:1.0;"/><polygon fill="#181818" points="167.74,216.34,166.0691,226.0461,168.9661,221.1873,173.8248,224.0843,167.74,216.34" style="stroke:#181818;stroke-width:1.0;"/></g><!--MD5=[bfff716514ca687b645fe473c6e098a4]
reverse link Employee to Receptionist--><g id="link_Employee_Receptionist"><path codeLine="19" d="M114.36,221.43 C101.2,274.27 86.47,333.4 78.16,366.77 " fill="none" id="Employee-backto-Receptionist" style="stroke:#181818;stroke-width:1.0;"/><polygon fill="#181818" points="115.63,216.34,109.5612,224.0969,114.414,221.1899,117.321,226.0426,115.63,216.34" style="stroke:#181818;stroke-width:1.0;"/></g><!--MD5=[b8a4f1f13c2d56b2385b1bfafed8418f]
link Employee to Administrator--><g id="link_Employee_Administrator"><path codeLine="21" d="M211.19,111.5 C263.67,111.5 335.25,111.5 387.36,111.5 " fill="none" id="Employee-Administrator" style="stroke:#181818;stroke-width:1.0;"/><polygon fill="#000000" points="228.25,97.418,237.2951,100.3569,237.2951,94.479,228.25,97.418" style="stroke:#000000;stroke-width:1.0;"/><text fill="#000000" font-family="sans-serif" font-size="11" lengthAdjust="spacing" textLength="119" x="246.25" y="101.9189">registers and configures</text><text fill="#000000" font-family="sans-serif" font-size="13" lengthAdjust="spacing" textLength="5" x="223.0471" y="103.7737">*</text><text fill="#000000" font-family="sans-serif" font-size="13" lengthAdjust="spacing" textLength="7" x="368.5596" y="103.756">1</text></g><!--MD5=[6bf714c0138230b213d5687aa78fcbe1]
@startuml
skinparam classFontSize 17
skinparam padding 4
skinparam ranksep 150

class Administrator
class Employee{
<size:14>name
<size:14>phoneNumber
<size:14>address
<size:14>emailAddress
<size:14>citizenCardNumber
<size:14>companyID
}
class Receptionist
class Nurse


Employee <- - Nurse
Employee <- - Receptionist

Administrator "1" -left- "*" Employee : <size:11>registers and configures >

@enduml

PlantUML version 1.2022.4(Sat Apr 09 14:29:17 BST 2022)
(GPL source distribution)
Java Runtime: OpenJDK Runtime Environment
JVM: OpenJDK 64-Bit Server VM
Default Encoding: Cp1252
Language: en
Country: GB
--></g></svg>