<?xml version="1.0" encoding="UTF-8" standalone="no"?><svg xmlns="http://www.w3.org/2000/svg" xmlns:xlink="http://www.w3.org/1999/xlink" contentStyleType="text/css" height="1131.2px" preserveAspectRatio="none" style="width:1549px;height:1131px;background:#FFFFFF;" version="1.1" viewBox="0 0 1549 1131" width="1549.1px" zoomAndPan="magnify"><defs/><g><rect fill="#FFFFFF" height="996.3516" style="stroke:#181818;stroke-width:0.6999999999999998;" width="7" x="31.15" y="64.8266"/><rect fill="#FFFFFF" height="317.4609" style="stroke:#181818;stroke-width:0.6999999999999998;" width="7" x="248.15" y="80.4727"/><rect fill="#FFFFFF" height="32.6922" style="stroke:#181818;stroke-width:0.6999999999999998;" width="7" x="248.15" y="419.1797"/><rect fill="#FFFFFF" height="315.6453" style="stroke:#181818;stroke-width:0.6999999999999998;" width="7" x="248.15" y="473.118"/><rect fill="#FFFFFF" height="251.1687" style="stroke:#181818;stroke-width:0.6999999999999998;" width="7" x="248.15" y="810.0094"/><rect fill="#FFFFFF" height="274.9687" style="stroke:#181818;stroke-width:0.6999999999999998;" width="7" x="474.25" y="101.7187"/><rect fill="#FFFFFF" height="261.707" style="stroke:#181818;stroke-width:0.6999999999999998;" width="7" x="474.25" y="505.8102"/><rect fill="#FFFFFF" height="203.7766" style="stroke:#181818;stroke-width:0.6999999999999998;" width="7" x="474.25" y="831.2555"/><rect fill="#FFFFFF" height="21" style="stroke:#181818;stroke-width:0.6999999999999998;" width="7" x="580.65" y="122.9648"/><rect fill="#FFFFFF" height="21" style="stroke:#181818;stroke-width:0.6999999999999998;" width="7" x="647.15" y="165.2109"/><rect fill="#FFFFFF" height="21" style="stroke:#181818;stroke-width:0.6999999999999998;" width="7" x="647.15" y="207.457"/><rect fill="#FFFFFF" height="21.2461" style="stroke:#181818;stroke-width:0.6999999999999998;" width="7" x="723.8" y="249.7031"/><rect fill="#FFFFFF" height="21" style="stroke:#181818;stroke-width:0.6999999999999998;" width="7" x="723.8" y="527.0562"/><rect fill="#FFFFFF" height="186.7687" style="stroke:#181818;stroke-width:0.6999999999999998;" width="7" x="809.9" y="580.7484"/><rect fill="#FFFFFF" height="182.5305" style="stroke:#181818;stroke-width:0.6999999999999998;" width="7" x="809.9" y="852.5016"/><rect fill="#FFFFFF" height="19.6" style="stroke:#181818;stroke-width:0.6999999999999998;" width="7" x="813.4" y="921.8398"/><rect fill="#FFFFFF" height="19.6" style="stroke:#181818;stroke-width:0.6999999999999998;" width="7" x="813.4" y="1015.432"/><rect fill="#FFFFFF" height="21" style="stroke:#181818;stroke-width:0.6999999999999998;" width="7" x="1037.05" y="704.2711"/><rect fill="#FFFFFF" height="21.2461" style="stroke:#181818;stroke-width:0.6999999999999998;" width="7" x="1037.05" y="873.7477"/><rect fill="#FFFFFF" height="84.4922" style="stroke:#181818;stroke-width:0.6999999999999998;" width="7" x="1116.15" y="292.1953"/><rect fill="#FFFFFF" height="21" style="stroke:#181818;stroke-width:0.6999999999999998;" width="7" x="1116.15" y="746.5172"/><rect fill="#FFFFFF" height="21" style="stroke:#181818;stroke-width:0.6999999999999998;" width="7" x="1116.15" y="967.5859"/><rect fill="#FFFFFF" height="21" style="stroke:#181818;stroke-width:0.6999999999999998;" width="7" x="1212.05" y="313.4414"/><rect fill="#FFFFFF" height="21" style="stroke:#181818;stroke-width:0.6999999999999998;" width="7" x="1300.95" y="355.6875"/><line style="stroke:#181818;stroke-width:0.3499999999999999;stroke-dasharray:5.0,5.0;" x1="34.3" x2="34.3" y1="57.8266" y2="1073.7781"/><line style="stroke:#181818;stroke-width:0.3499999999999999;stroke-dasharray:5.0,5.0;" x1="251.3" x2="251.3" y1="57.8266" y2="1073.7781"/><line style="stroke:#181818;stroke-width:0.3499999999999999;stroke-dasharray:5.0,5.0;" x1="477.4" x2="477.4" y1="57.8266" y2="1073.7781"/><line style="stroke:#181818;stroke-width:0.3499999999999999;stroke-dasharray:5.0,5.0;" x1="583.8" x2="583.8" y1="57.8266" y2="1073.7781"/><line style="stroke:#181818;stroke-width:0.3499999999999999;stroke-dasharray:5.0,5.0;" x1="650.3" x2="650.3" y1="57.8266" y2="1073.7781"/><line style="stroke:#181818;stroke-width:0.3499999999999999;stroke-dasharray:5.0,5.0;" x1="727.3" x2="727.3" y1="57.8266" y2="1073.7781"/><line style="stroke:#181818;stroke-width:0.3499999999999999;stroke-dasharray:5.0,5.0;" x1="813.4" x2="813.4" y1="57.8266" y2="1073.7781"/><line style="stroke:#181818;stroke-width:0.3499999999999999;stroke-dasharray:5.0,5.0;" x1="1040.2" x2="1040.2" y1="609.6945" y2="1073.7781"/><line style="stroke:#181818;stroke-width:0.3499999999999999;stroke-dasharray:5.0,5.0;" x1="1119.3" x2="1119.3" y1="57.8266" y2="1073.7781"/><line style="stroke:#181818;stroke-width:0.3499999999999999;stroke-dasharray:5.0,5.0;" x1="1215.55" x2="1215.55" y1="57.8266" y2="1073.7781"/><line style="stroke:#181818;stroke-width:0.3499999999999999;stroke-dasharray:5.0,5.0;" x1="1304.45" x2="1304.45" y1="57.8266" y2="1073.7781"/><line style="stroke:#181818;stroke-width:0.3499999999999999;stroke-dasharray:5.0,5.0;" x1="1394.75" x2="1394.75" y1="57.8266" y2="1073.7781"/><line style="stroke:#181818;stroke-width:0.3499999999999999;stroke-dasharray:5.0,5.0;" x1="1493.45" x2="1493.45" y1="57.8266" y2="1073.7781"/><text fill="#000000" font-family="sans-serif" font-size="9.8" lengthAdjust="spacing" textLength="58.1" x="3.5" y="55.6732">Administrator</text><ellipse cx="34.65" cy="9.45" fill="#E2E2F0" rx="5.6" ry="5.6" style="stroke:#181818;stroke-width:0.3499999999999999;"/><path d="M34.65,15.05 L34.65,33.95 M25.55,20.65 L43.75,20.65 M34.65,33.95 L25.55,44.45 M34.65,33.95 L43.75,44.45 " fill="none" style="stroke:#181818;stroke-width:0.3499999999999999;"/><text fill="#000000" font-family="sans-serif" font-size="9.8" lengthAdjust="spacing" textLength="58.1" x="3.5" y="1083.2514">Administrator</text><ellipse cx="34.65" cy="1091.3547" fill="#E2E2F0" rx="5.6" ry="5.6" style="stroke:#181818;stroke-width:0.3499999999999999;"/><path d="M34.65,1096.9547 L34.65,1115.8547 M25.55,1102.5547 L43.75,1102.5547 M34.65,1115.8547 L25.55,1126.3547 M34.65,1115.8547 L43.75,1126.3547 " fill="none" style="stroke:#181818;stroke-width:0.3499999999999999;"/><rect fill="#E2E2F0" height="22.1266" rx="1.75" ry="1.75" style="stroke:#181818;stroke-width:0.3499999999999999;" width="101.5" x="200.9" y="35"/><text fill="#000000" font-family="sans-serif" font-size="9.8" lengthAdjust="spacing" textLength="91.7" x="205.8" y="50.0732">:RegisterEmployeeUI</text><rect fill="#E2E2F0" height="22.1266" rx="1.75" ry="1.75" style="stroke:#181818;stroke-width:0.3499999999999999;" width="101.5" x="200.9" y="1073.0781"/><text fill="#000000" font-family="sans-serif" font-size="9.8" lengthAdjust="spacing" textLength="91.7" x="205.8" y="1088.1514">:RegisterEmployeeUI</text><rect fill="#E2E2F0" height="22.1266" rx="1.75" ry="1.75" style="stroke:#181818;stroke-width:0.3499999999999999;" width="136.5" x="409.5" y="35"/><text fill="#000000" font-family="sans-serif" font-size="9.8" lengthAdjust="spacing" textLength="126.7" x="414.4" y="50.0732">:RegisterEmployeeController</text><rect fill="#E2E2F0" height="22.1266" rx="1.75" ry="1.75" style="stroke:#181818;stroke-width:0.3499999999999999;" width="136.5" x="409.5" y="1073.0781"/><text fill="#000000" font-family="sans-serif" font-size="9.8" lengthAdjust="spacing" textLength="126.7" x="414.4" y="1088.1514">:RegisterEmployeeController</text><rect fill="#E2E2F0" height="22.1266" rx="1.75" ry="1.75" style="stroke:#181818;stroke-width:0.3499999999999999;" width="58.1" x="555.1" y="35"/><text fill="#000000" font-family="sans-serif" font-size="9.8" lengthAdjust="spacing" textLength="48.3" x="560" y="50.0732">Application</text><rect fill="#E2E2F0" height="22.1266" rx="1.75" ry="1.75" style="stroke:#181818;stroke-width:0.3499999999999999;" width="58.1" x="555.1" y="1073.0781"/><text fill="#000000" font-family="sans-serif" font-size="9.8" lengthAdjust="spacing" textLength="48.3" x="560" y="1088.1514">Application</text><rect fill="#E2E2F0" height="34.4531" rx="1.75" ry="1.75" style="stroke:#181818;stroke-width:0.3499999999999999;" width="60.9" x="620.2" y="22.6734"/><text fill="#000000" font-family="sans-serif" font-size="9.8" lengthAdjust="spacing" textLength="16.8" x="642.25" y="37.7467">app</text><text fill="#000000" font-family="sans-serif" font-size="9.8" lengthAdjust="spacing" textLength="51.1" x="625.1" y="50.0732">:Application</text><rect fill="#E2E2F0" height="34.4531" rx="1.75" ry="1.75" style="stroke:#181818;stroke-width:0.3499999999999999;" width="60.9" x="620.2" y="1073.0781"/><text fill="#000000" font-family="sans-serif" font-size="9.8" lengthAdjust="spacing" textLength="16.8" x="642.25" y="1088.1514">app</text><text fill="#000000" font-family="sans-serif" font-size="9.8" lengthAdjust="spacing" textLength="51.1" x="625.1" y="1100.4779">:Application</text><rect fill="#E2E2F0" height="22.1266" rx="1.75" ry="1.75" style="stroke:#181818;stroke-width:0.3499999999999999;" width="78.4" x="688.1" y="35"/><text fill="#000000" font-family="sans-serif" font-size="9.8" lengthAdjust="spacing" textLength="68.6" x="693" y="50.0732">comp:Company</text><rect fill="#E2E2F0" height="22.1266" rx="1.75" ry="1.75" style="stroke:#181818;stroke-width:0.3499999999999999;" width="78.4" x="688.1" y="1073.0781"/><text fill="#000000" font-family="sans-serif" font-size="9.8" lengthAdjust="spacing" textLength="68.6" x="693" y="1088.1514">comp:Company</text><rect fill="#E2E2F0" height="34.4531" rx="1.75" ry="1.75" style="stroke:#181818;stroke-width:0.3499999999999999;" width="79.8" x="773.5" y="22.6734"/><text fill="#000000" font-family="sans-serif" font-size="9.8" lengthAdjust="spacing" textLength="23.8" x="801.5" y="37.7467">emps</text><text fill="#000000" font-family="sans-serif" font-size="9.8" lengthAdjust="spacing" textLength="70" x="778.4" y="50.0732">:EmployeeStore</text><rect fill="#E2E2F0" height="34.4531" rx="1.75" ry="1.75" style="stroke:#181818;stroke-width:0.3499999999999999;" width="79.8" x="773.5" y="1073.0781"/><text fill="#000000" font-family="sans-serif" font-size="9.8" lengthAdjust="spacing" textLength="23.8" x="801.5" y="1088.1514">emps</text><text fill="#000000" font-family="sans-serif" font-size="9.8" lengthAdjust="spacing" textLength="70" x="778.4" y="1100.4779">:EmployeeStore</text><rect fill="#E2E2F0" height="22.1266" rx="1.75" ry="1.75" style="stroke:#181818;stroke-width:0.3499999999999999;" width="77.7" x="1001.7" y="1073.0781"/><text fill="#000000" font-family="sans-serif" font-size="9.8" lengthAdjust="spacing" textLength="67.9" x="1006.6" y="1088.1514">emp: Employee</text><rect fill="#E2E2F0" height="34.4531" rx="1.75" ry="1.75" style="stroke:#181818;stroke-width:0.3499999999999999;" width="66.5" x="1086.4" y="22.6734"/><text fill="#000000" font-family="sans-serif" font-size="9.8" lengthAdjust="spacing" textLength="19.6" x="1109.85" y="37.7467">auth</text><text fill="#000000" font-family="sans-serif" font-size="9.8" lengthAdjust="spacing" textLength="56.7" x="1091.3" y="50.0732">:AuthFacade</text><rect fill="#E2E2F0" height="34.4531" rx="1.75" ry="1.75" style="stroke:#181818;stroke-width:0.3499999999999999;" width="66.5" x="1086.4" y="1073.0781"/><text fill="#000000" font-family="sans-serif" font-size="9.8" lengthAdjust="spacing" textLength="19.6" x="1109.85" y="1088.1514">auth</text><text fill="#000000" font-family="sans-serif" font-size="9.8" lengthAdjust="spacing" textLength="56.7" x="1091.3" y="1100.4779">:AuthFacade</text><rect fill="#E2E2F0" height="22.1266" rx="1.75" ry="1.75" style="stroke:#181818;stroke-width:0.3499999999999999;" width="77" x="1177.05" y="35"/><text fill="#000000" font-family="sans-serif" font-size="9.8" lengthAdjust="spacing" textLength="67.2" x="1181.95" y="50.0732">:UserRoleStore</text><rect fill="#E2E2F0" height="22.1266" rx="1.75" ry="1.75" style="stroke:#181818;stroke-width:0.3499999999999999;" width="77" x="1177.05" y="1073.0781"/><text fill="#000000" font-family="sans-serif" font-size="9.8" lengthAdjust="spacing" textLength="67.2" x="1181.95" y="1088.1514">:UserRoleStore</text><rect fill="#E2E2F0" height="22.1266" rx="1.75" ry="1.75" style="stroke:#181818;stroke-width:0.3499999999999999;" width="86.8" x="1261.05" y="35"/><text fill="#000000" font-family="sans-serif" font-size="9.8" lengthAdjust="spacing" textLength="77" x="1265.95" y="50.0732">:UserRoleMapper</text><rect fill="#E2E2F0" height="22.1266" rx="1.75" ry="1.75" style="stroke:#181818;stroke-width:0.3499999999999999;" width="86.8" x="1261.05" y="1073.0781"/><text fill="#000000" font-family="sans-serif" font-size="9.8" lengthAdjust="spacing" textLength="77" x="1265.95" y="1088.1514">:UserRoleMapper</text><rect fill="#E2E2F0" height="34.4531" rx="1.75" ry="1.75" style="stroke:#181818;stroke-width:0.3499999999999999;" width="79.8" x="1354.85" y="22.6734"/><text fill="#000000" font-family="sans-serif" font-size="9.8" lengthAdjust="spacing" textLength="27.3" x="1381.1" y="37.7467">lRoles</text><text fill="#000000" font-family="sans-serif" font-size="9.8" lengthAdjust="spacing" textLength="67.2" x="1362.55" y="50.0732">List&lt;UserRole&gt;</text><rect fill="#E2E2F0" height="34.4531" rx="1.75" ry="1.75" style="stroke:#181818;stroke-width:0.3499999999999999;" width="79.8" x="1354.85" y="1073.0781"/><text fill="#000000" font-family="sans-serif" font-size="9.8" lengthAdjust="spacing" textLength="27.3" x="1381.1" y="1088.1514">lRoles</text><text fill="#000000" font-family="sans-serif" font-size="9.8" lengthAdjust="spacing" textLength="67.2" x="1362.55" y="1100.4779">List&lt;UserRole&gt;</text><rect fill="#E2E2F0" height="34.4531" rx="1.75" ry="1.75" style="stroke:#181818;stroke-width:0.3499999999999999;" width="103.6" x="1441.65" y="22.6734"/><text fill="#000000" font-family="sans-serif" font-size="9.8" lengthAdjust="spacing" textLength="48.3" x="1469.3" y="37.7467">lRolesDTO</text><text fill="#000000" font-family="sans-serif" font-size="9.8" lengthAdjust="spacing" textLength="93.8" x="1446.55" y="50.0732">: List&lt;UserRoleDTO&gt;</text><rect fill="#E2E2F0" height="34.4531" rx="1.75" ry="1.75" style="stroke:#181818;stroke-width:0.3499999999999999;" width="103.6" x="1441.65" y="1073.0781"/><text fill="#000000" font-family="sans-serif" font-size="9.8" lengthAdjust="spacing" textLength="48.3" x="1469.3" y="1088.1514">lRolesDTO</text><text fill="#000000" font-family="sans-serif" font-size="9.8" lengthAdjust="spacing" textLength="93.8" x="1446.55" y="1100.4779">: List&lt;UserRoleDTO&gt;</text><rect fill="#FFFFFF" height="996.3516" style="stroke:#181818;stroke-width:0.6999999999999998;" width="7" x="31.15" y="64.8266"/><rect fill="#FFFFFF" height="317.4609" style="stroke:#181818;stroke-width:0.6999999999999998;" width="7" x="248.15" y="80.4727"/><rect fill="#FFFFFF" height="32.6922" style="stroke:#181818;stroke-width:0.6999999999999998;" width="7" x="248.15" y="419.1797"/><rect fill="#FFFFFF" height="315.6453" style="stroke:#181818;stroke-width:0.6999999999999998;" width="7" x="248.15" y="473.118"/><rect fill="#FFFFFF" height="251.1687" style="stroke:#181818;stroke-width:0.6999999999999998;" width="7" x="248.15" y="810.0094"/><rect fill="#FFFFFF" height="274.9687" style="stroke:#181818;stroke-width:0.6999999999999998;" width="7" x="474.25" y="101.7187"/><rect fill="#FFFFFF" height="261.707" style="stroke:#181818;stroke-width:0.6999999999999998;" width="7" x="474.25" y="505.8102"/><rect fill="#FFFFFF" height="203.7766" style="stroke:#181818;stroke-width:0.6999999999999998;" width="7" x="474.25" y="831.2555"/><rect fill="#FFFFFF" height="21" style="stroke:#181818;stroke-width:0.6999999999999998;" width="7" x="580.65" y="122.9648"/><rect fill="#FFFFFF" height="21" style="stroke:#181818;stroke-width:0.6999999999999998;" width="7" x="647.15" y="165.2109"/><rect fill="#FFFFFF" height="21" style="stroke:#181818;stroke-width:0.6999999999999998;" width="7" x="647.15" y="207.457"/><rect fill="#FFFFFF" height="21.2461" style="stroke:#181818;stroke-width:0.6999999999999998;" width="7" x="723.8" y="249.7031"/><rect fill="#FFFFFF" height="21" style="stroke:#181818;stroke-width:0.6999999999999998;" width="7" x="723.8" y="527.0562"/><rect fill="#FFFFFF" height="186.7687" style="stroke:#181818;stroke-width:0.6999999999999998;" width="7" x="809.9" y="580.7484"/><rect fill="#FFFFFF" height="182.5305" style="stroke:#181818;stroke-width:0.6999999999999998;" width="7" x="809.9" y="852.5016"/><rect fill="#FFFFFF" height="19.6" style="stroke:#181818;stroke-width:0.6999999999999998;" width="7" x="813.4" y="921.8398"/><rect fill="#FFFFFF" height="19.6" style="stroke:#181818;stroke-width:0.6999999999999998;" width="7" x="813.4" y="1015.432"/><rect fill="#FFFFFF" height="21" style="stroke:#181818;stroke-width:0.6999999999999998;" width="7" x="1037.05" y="704.2711"/><rect fill="#FFFFFF" height="21.2461" style="stroke:#181818;stroke-width:0.6999999999999998;" width="7" x="1037.05" y="873.7477"/><rect fill="#FFFFFF" height="84.4922" style="stroke:#181818;stroke-width:0.6999999999999998;" width="7" x="1116.15" y="292.1953"/><rect fill="#FFFFFF" height="21" style="stroke:#181818;stroke-width:0.6999999999999998;" width="7" x="1116.15" y="746.5172"/><rect fill="#FFFFFF" height="21" style="stroke:#181818;stroke-width:0.6999999999999998;" width="7" x="1116.15" y="967.5859"/><rect fill="#FFFFFF" height="21" style="stroke:#181818;stroke-width:0.6999999999999998;" width="7" x="1212.05" y="313.4414"/><rect fill="#FFFFFF" height="21" style="stroke:#181818;stroke-width:0.6999999999999998;" width="7" x="1300.95" y="355.6875"/><polygon fill="#181818" points="239.75,77.6727,246.75,80.4727,239.75,83.2727,242.55,80.4727" style="stroke:#181818;stroke-width:0.6999999999999998;"/><line style="stroke:#181818;stroke-width:0.6999999999999998;" x1="38.15" x2="243.95" y1="80.4727" y2="80.4727"/><text fill="#000000" font-family="sans-serif" font-size="9.1" font-weight="bold" lengthAdjust="spacing" textLength="4.9" x="43.05" y="77.0731">1</text><text fill="#000000" font-family="sans-serif" font-size="9.1" lengthAdjust="spacing" textLength="136.5" x="50.75" y="77.0731">starts registering a new employee</text><polygon fill="#181818" points="465.85,98.9187,472.85,101.7187,465.85,104.5187,468.65,101.7187" style="stroke:#181818;stroke-width:0.6999999999999998;"/><line style="stroke:#181818;stroke-width:0.6999999999999998;" x1="255.15" x2="470.05" y1="101.7187" y2="101.7187"/><text fill="#000000" font-family="sans-serif" font-size="9.1" font-weight="bold" lengthAdjust="spacing" textLength="4.9" x="260.05" y="98.3192">2</text><text fill="#000000" font-family="sans-serif" font-size="9.1" lengthAdjust="spacing" textLength="91.7" x="267.75" y="98.3192">lRolesDto = getRoles()</text><polygon fill="#181818" points="572.25,120.1648,579.25,122.9648,572.25,125.7648,575.05,122.9648" style="stroke:#181818;stroke-width:0.6999999999999998;"/><line style="stroke:#181818;stroke-width:0.6999999999999998;" x1="481.25" x2="576.45" y1="122.9648" y2="122.9648"/><text fill="#000000" font-family="sans-serif" font-size="9.1" font-weight="bold" lengthAdjust="spacing" textLength="4.9" x="486.15" y="119.5653">3</text><text fill="#000000" font-family="sans-serif" font-size="9.1" lengthAdjust="spacing" textLength="78.4" x="493.85" y="119.5653">app = getInstance()</text><polygon fill="#181818" points="638.75,162.4109,645.75,165.2109,638.75,168.0109,641.55,165.2109" style="stroke:#181818;stroke-width:0.6999999999999998;"/><line style="stroke:#181818;stroke-width:0.6999999999999998;" x1="481.25" x2="642.95" y1="165.2109" y2="165.2109"/><text fill="#000000" font-family="sans-serif" font-size="9.1" font-weight="bold" lengthAdjust="spacing" textLength="4.9" x="486.15" y="161.8114">4</text><text fill="#000000" font-family="sans-serif" font-size="9.1" lengthAdjust="spacing" textLength="123.2" x="493.85" y="161.8114">session = getCurrentSession()</text><polygon fill="#181818" points="638.75,204.657,645.75,207.457,638.75,210.257,641.55,207.457" style="stroke:#181818;stroke-width:0.6999999999999998;"/><line style="stroke:#181818;stroke-width:0.6999999999999998;" x1="481.25" x2="642.95" y1="207.457" y2="207.457"/><text fill="#000000" font-family="sans-serif" font-size="9.1" font-weight="bold" lengthAdjust="spacing" textLength="4.9" x="486.15" y="204.0575">5</text><text fill="#000000" font-family="sans-serif" font-size="9.1" lengthAdjust="spacing" textLength="90.3" x="493.85" y="204.0575">comp = getCompany()</text><polygon fill="#181818" points="715.4,246.9031,722.4,249.7031,715.4,252.5031,718.2,249.7031" style="stroke:#181818;stroke-width:0.6999999999999998;"/><line style="stroke:#181818;stroke-width:0.6999999999999998;" x1="481.25" x2="719.6" y1="249.7031" y2="249.7031"/><text fill="#000000" font-family="sans-serif" font-size="9.1" font-weight="bold" lengthAdjust="spacing" textLength="4.9" x="486.15" y="246.3036">6</text><text fill="#000000" font-family="sans-serif" font-size="9.1" lengthAdjust="spacing" textLength="95.9" x="493.85" y="246.3036">auth = getAuthFacade()</text><polygon fill="#181818" points="718.9,268.1492,725.9,270.9492,718.9,273.7492,721.7,270.9492" style="stroke:#181818;stroke-width:0.6999999999999998;"/><line style="stroke:#181818;stroke-width:0.6999999999999998;" x1="481.25" x2="723.1" y1="270.9492" y2="270.9492"/><text fill="#000000" font-family="sans-serif" font-size="9.1" font-weight="bold" lengthAdjust="spacing" textLength="4.9" x="486.15" y="267.5497">7</text><text fill="#000000" font-family="sans-serif" font-size="9.1" lengthAdjust="spacing" textLength="77.7" x="493.85" y="267.5497">lRoles = getRoles()</text><polygon fill="#181818" points="1107.75,289.3953,1114.75,292.1953,1107.75,294.9953,1110.55,292.1953" style="stroke:#181818;stroke-width:0.6999999999999998;"/><line style="stroke:#181818;stroke-width:0.6999999999999998;" x1="481.25" x2="1111.95" y1="292.1953" y2="292.1953"/><text fill="#000000" font-family="sans-serif" font-size="9.1" font-weight="bold" lengthAdjust="spacing" textLength="4.9" x="486.15" y="288.7958">8</text><text fill="#000000" font-family="sans-serif" font-size="9.1" lengthAdjust="spacing" textLength="114.8" x="493.85" y="288.7958">lRolesDTO = getUserRoles()</text><polygon fill="#181818" points="1203.65,310.6414,1210.65,313.4414,1203.65,316.2414,1206.45,313.4414" style="stroke:#181818;stroke-width:0.6999999999999998;"/><line style="stroke:#181818;stroke-width:0.6999999999999998;" x1="1123.15" x2="1207.85" y1="313.4414" y2="313.4414"/><text fill="#000000" font-family="sans-serif" font-size="9.1" font-weight="bold" lengthAdjust="spacing" textLength="4.9" x="1128.05" y="310.0419">9</text><text fill="#000000" font-family="sans-serif" font-size="9.1" lengthAdjust="spacing" textLength="67.9" x="1135.75" y="310.0419">sRoles = getAll()</text><polygon fill="#181818" points="1292.55,352.8875,1299.55,355.6875,1292.55,358.4875,1295.35,355.6875" style="stroke:#181818;stroke-width:0.6999999999999998;"/><line style="stroke:#181818;stroke-width:0.6999999999999998;" x1="1123.15" x2="1296.75" y1="355.6875" y2="355.6875"/><text fill="#000000" font-family="sans-serif" font-size="9.1" font-weight="bold" lengthAdjust="spacing" textLength="9.8" x="1128.05" y="352.288">10</text><text fill="#000000" font-family="sans-serif" font-size="9.1" lengthAdjust="spacing" textLength="59.5" x="1140.65" y="352.288">toDTO(sRoles)</text><polygon fill="#181818" points="45.85,395.1336,38.85,397.9336,45.85,400.7336,43.05,397.9336" style="stroke:#181818;stroke-width:0.6999999999999998;"/><line style="stroke:#181818;stroke-width:0.6999999999999998;stroke-dasharray:2.0,2.0;" x1="41.65" x2="250.95" y1="397.9336" y2="397.9336"/><text fill="#000000" font-family="sans-serif" font-size="9.1" font-weight="bold" lengthAdjust="spacing" textLength="9.8" x="50.05" y="394.5341">11</text><text fill="#000000" font-family="sans-serif" font-size="9.1" lengthAdjust="spacing" textLength="127.4" x="62.65" y="394.5341">ask to select the employee role</text><polygon fill="#181818" points="239.75,416.3797,246.75,419.1797,239.75,421.9797,242.55,419.1797" style="stroke:#181818;stroke-width:0.6999999999999998;"/><line style="stroke:#181818;stroke-width:0.6999999999999998;" x1="38.15" x2="243.95" y1="419.1797" y2="419.1797"/><text fill="#000000" font-family="sans-serif" font-size="9.1" font-weight="bold" lengthAdjust="spacing" textLength="9.8" x="43.05" y="415.7802">12</text><text fill="#000000" font-family="sans-serif" font-size="9.1" lengthAdjust="spacing" textLength="99.4" x="55.65" y="415.7802">selects the intended role</text><polygon fill="#181818" points="45.85,449.0719,38.85,451.8719,45.85,454.6719,43.05,451.8719" style="stroke:#181818;stroke-width:0.6999999999999998;"/><line style="stroke:#181818;stroke-width:0.6999999999999998;stroke-dasharray:2.0,2.0;" x1="41.65" x2="250.95" y1="451.8719" y2="451.8719"/><text fill="#000000" font-family="sans-serif" font-size="9.1" font-weight="bold" lengthAdjust="spacing" textLength="9.8" x="50.05" y="442.7493">13</text><text fill="#000000" font-family="sans-serif" font-size="9.1" lengthAdjust="spacing" textLength="180.6" x="62.65" y="437.0263">request data (name, phoneNumber, address,</text><text fill="#000000" font-family="sans-serif" font-size="9.1" lengthAdjust="spacing" textLength="140.7" x="65.45" y="448.4724">emailAddress, citizenCardNumber)</text><polygon fill="#181818" points="239.75,470.318,246.75,473.118,239.75,475.918,242.55,473.118" style="stroke:#181818;stroke-width:0.6999999999999998;"/><line style="stroke:#181818;stroke-width:0.6999999999999998;" x1="38.15" x2="243.95" y1="473.118" y2="473.118"/><text fill="#000000" font-family="sans-serif" font-size="9.1" font-weight="bold" lengthAdjust="spacing" textLength="9.8" x="43.05" y="469.7185">14</text><text fill="#000000" font-family="sans-serif" font-size="9.1" lengthAdjust="spacing" textLength="85.4" x="55.65" y="469.7185">types requested data</text><polygon fill="#181818" points="465.85,503.0102,472.85,505.8102,465.85,508.6102,468.65,505.8102" style="stroke:#181818;stroke-width:0.6999999999999998;"/><line style="stroke:#181818;stroke-width:0.6999999999999998;" x1="255.15" x2="470.05" y1="505.8102" y2="505.8102"/><text fill="#000000" font-family="sans-serif" font-size="9.1" font-weight="bold" lengthAdjust="spacing" textLength="9.8" x="260.05" y="496.6876">15</text><text fill="#000000" font-family="sans-serif" font-size="9.1" lengthAdjust="spacing" textLength="193.2" x="272.65" y="490.9646">createEmployee(name, phoneNumber, address,</text><text fill="#000000" font-family="sans-serif" font-size="9.1" lengthAdjust="spacing" textLength="161" x="275.45" y="502.4106">emailAddress, citizenCardNumber, role)</text><polygon fill="#181818" points="715.4,524.2562,722.4,527.0562,715.4,529.8562,718.2,527.0562" style="stroke:#181818;stroke-width:0.6999999999999998;"/><line style="stroke:#181818;stroke-width:0.6999999999999998;" x1="481.25" x2="719.6" y1="527.0562" y2="527.0562"/><text fill="#000000" font-family="sans-serif" font-size="9.1" font-weight="bold" lengthAdjust="spacing" textLength="9.8" x="486.15" y="523.6567">16</text><text fill="#000000" font-family="sans-serif" font-size="9.1" lengthAdjust="spacing" textLength="114.1" x="498.75" y="523.6567">emps = getEmployeeStore()</text><polygon fill="#181818" points="801.5,577.9484,808.5,580.7484,801.5,583.5484,804.3,580.7484" style="stroke:#181818;stroke-width:0.6999999999999998;"/><line style="stroke:#181818;stroke-width:0.6999999999999998;" x1="481.25" x2="805.7" y1="580.7484" y2="580.7484"/><text fill="#000000" font-family="sans-serif" font-size="9.1" font-weight="bold" lengthAdjust="spacing" textLength="9.8" x="486.15" y="571.6259">17</text><text fill="#000000" font-family="sans-serif" font-size="9.1" lengthAdjust="spacing" textLength="221.9" x="498.75" y="565.9028">emp = createEmployee(name, phoneNumber, address,</text><text fill="#000000" font-family="sans-serif" font-size="9.1" lengthAdjust="spacing" textLength="161" x="498.75" y="577.3489">emailAddress, citizenCardNumber, role)</text><polygon fill="#181818" points="993.3,610.6406,1000.3,613.4406,993.3,616.2406,996.1,613.4406" style="stroke:#181818;stroke-width:0.6999999999999998;"/><line style="stroke:#181818;stroke-width:0.6999999999999998;stroke-dasharray:2.0,2.0;" x1="816.9" x2="997.5" y1="613.4406" y2="613.4406"/><text fill="#000000" font-family="sans-serif" font-size="9.1" font-weight="bold" lengthAdjust="spacing" textLength="9.8" x="821.8" y="604.3181">18</text><text fill="#000000" font-family="sans-serif" font-size="9.1" lengthAdjust="spacing" textLength="152.6" x="834.4" y="598.595">create(name, phoneNumber, address,</text><text fill="#000000" font-family="sans-serif" font-size="9.1" lengthAdjust="spacing" textLength="140.7" x="834.4" y="610.0411">emailAddress, citizenCardNumber)</text><rect fill="#E2E2F0" height="22.1266" rx="1.75" ry="1.75" style="stroke:#181818;stroke-width:0.3499999999999999;" width="77.7" x="1001.7" y="589.2141"/><text fill="#000000" font-family="sans-serif" font-size="9.8" lengthAdjust="spacing" textLength="67.9" x="1006.6" y="604.2873">emp: Employee</text><path d="M935.2,622.5406 L935.2,663.8406 L1145.2,663.8406 L1145.2,629.5406 L1138.2,622.5406 L935.2,622.5406 " fill="#FEFFDD" style="stroke:#181818;stroke-width:0.3499999999999999;"/><path d="M1138.2,622.5406 L1138.2,629.5406 L1145.2,629.5406 L1138.2,622.5406 " fill="#FEFFDD" style="stroke:#181818;stroke-width:0.3499999999999999;"/><text fill="#000000" font-family="sans-serif" font-size="9.1" font-weight="bold" lengthAdjust="spacing" textLength="19.6" x="939.4" y="635.4872">emp</text><text fill="#000000" font-family="sans-serif" font-size="9.1" lengthAdjust="spacing" textLength="170.1" x="961.8" y="635.4872">might be an instance of CenterCoordinator</text><text fill="#000000" font-family="sans-serif" font-size="9.1" lengthAdjust="spacing" textLength="191.1" x="939.4" y="646.9333">or Nurse or Receptionist. It depends of the type</text><text fill="#000000" font-family="sans-serif" font-size="9.1" lengthAdjust="spacing" textLength="145.6" x="939.4" y="658.3794">of Employee receiving this message</text><polygon fill="#181818" points="801.5,680.225,808.5,683.025,801.5,685.825,804.3,683.025" style="stroke:#181818;stroke-width:0.6999999999999998;"/><line style="stroke:#181818;stroke-width:0.6999999999999998;" x1="481.25" x2="805.7" y1="683.025" y2="683.025"/><text fill="#000000" font-family="sans-serif" font-size="9.1" font-weight="bold" lengthAdjust="spacing" textLength="9.8" x="486.15" y="679.6255">19</text><text fill="#000000" font-family="sans-serif" font-size="9.1" lengthAdjust="spacing" textLength="93.8" x="498.75" y="679.6255">validateEmployee(emp)</text><polygon fill="#181818" points="1028.65,701.4711,1035.65,704.2711,1028.65,707.0711,1031.45,704.2711" style="stroke:#181818;stroke-width:0.6999999999999998;"/><line style="stroke:#181818;stroke-width:0.6999999999999998;" x1="816.9" x2="1032.85" y1="704.2711" y2="704.2711"/><text fill="#000000" font-family="sans-serif" font-size="9.1" font-weight="bold" lengthAdjust="spacing" textLength="9.8" x="821.8" y="700.8716">20</text><text fill="#000000" font-family="sans-serif" font-size="9.1" lengthAdjust="spacing" textLength="107.8" x="834.4" y="700.8716">email = getEmailAddress()</text><polygon fill="#181818" points="1107.75,743.7172,1114.75,746.5172,1107.75,749.3172,1110.55,746.5172" style="stroke:#181818;stroke-width:0.6999999999999998;"/><line style="stroke:#181818;stroke-width:0.6999999999999998;" x1="816.9" x2="1111.95" y1="746.5172" y2="746.5172"/><text fill="#000000" font-family="sans-serif" font-size="9.1" font-weight="bold" lengthAdjust="spacing" textLength="9.8" x="821.8" y="743.1177">21</text><text fill="#000000" font-family="sans-serif" font-size="9.1" lengthAdjust="spacing" textLength="91.7" x="834.4" y="743.1177">eu = existsUser(email)</text><polygon fill="#181818" points="45.85,785.9633,38.85,788.7633,45.85,791.5633,43.05,788.7633" style="stroke:#181818;stroke-width:0.6999999999999998;"/><line style="stroke:#181818;stroke-width:0.6999999999999998;stroke-dasharray:2.0,2.0;" x1="41.65" x2="250.95" y1="788.7633" y2="788.7633"/><text fill="#000000" font-family="sans-serif" font-size="9.1" font-weight="bold" lengthAdjust="spacing" textLength="9.8" x="50.05" y="785.3638">22</text><text fill="#000000" font-family="sans-serif" font-size="9.1" lengthAdjust="spacing" textLength="176.4" x="62.65" y="785.3638">shows the data and requests a confirmation</text><polygon fill="#181818" points="239.75,807.2094,246.75,810.0094,239.75,812.8094,242.55,810.0094" style="stroke:#181818;stroke-width:0.6999999999999998;"/><line style="stroke:#181818;stroke-width:0.6999999999999998;" x1="38.15" x2="243.95" y1="810.0094" y2="810.0094"/><text fill="#000000" font-family="sans-serif" font-size="9.1" font-weight="bold" lengthAdjust="spacing" textLength="9.8" x="43.05" y="806.6099">23</text><text fill="#000000" font-family="sans-serif" font-size="9.1" lengthAdjust="spacing" textLength="70" x="55.65" y="806.6099">confirms the data</text><polygon fill="#181818" points="465.85,828.4555,472.85,831.2555,465.85,834.0555,468.65,831.2555" style="stroke:#181818;stroke-width:0.6999999999999998;"/><line style="stroke:#181818;stroke-width:0.6999999999999998;" x1="255.15" x2="470.05" y1="831.2555" y2="831.2555"/><text fill="#000000" font-family="sans-serif" font-size="9.1" font-weight="bold" lengthAdjust="spacing" textLength="9.8" x="260.05" y="827.856">24</text><text fill="#000000" font-family="sans-serif" font-size="9.1" lengthAdjust="spacing" textLength="76.3" x="272.65" y="827.856">registerEmployee()</text><polygon fill="#181818" points="801.5,849.7016,808.5,852.5016,801.5,855.3016,804.3,852.5016" style="stroke:#181818;stroke-width:0.6999999999999998;"/><line style="stroke:#181818;stroke-width:0.6999999999999998;" x1="481.25" x2="805.7" y1="852.5016" y2="852.5016"/><text fill="#000000" font-family="sans-serif" font-size="9.1" font-weight="bold" lengthAdjust="spacing" textLength="9.8" x="486.15" y="849.1021">25</text><text fill="#000000" font-family="sans-serif" font-size="9.1" lengthAdjust="spacing" textLength="93.8" x="498.75" y="849.1021">registerEmployee(emp)</text><polygon fill="#181818" points="1028.65,870.9477,1035.65,873.7477,1028.65,876.5477,1031.45,873.7477" style="stroke:#181818;stroke-width:0.6999999999999998;"/><line style="stroke:#181818;stroke-width:0.6999999999999998;" x1="816.9" x2="1032.85" y1="873.7477" y2="873.7477"/><text fill="#000000" font-family="sans-serif" font-size="9.1" font-weight="bold" lengthAdjust="spacing" textLength="9.8" x="821.8" y="870.3481">26</text><text fill="#000000" font-family="sans-serif" font-size="9.1" lengthAdjust="spacing" textLength="107.8" x="834.4" y="870.3481">email = getEmailAddress()</text><polygon fill="#181818" points="1032.15,892.1937,1039.15,894.9937,1032.15,897.7937,1034.95,894.9937" style="stroke:#181818;stroke-width:0.6999999999999998;"/><line style="stroke:#181818;stroke-width:0.6999999999999998;" x1="816.9" x2="1036.35" y1="894.9937" y2="894.9937"/><text fill="#000000" font-family="sans-serif" font-size="9.1" font-weight="bold" lengthAdjust="spacing" textLength="9.8" x="821.8" y="891.5942">27</text><text fill="#000000" font-family="sans-serif" font-size="9.1" lengthAdjust="spacing" textLength="75.6" x="834.4" y="891.5942">name = getName()</text><line style="stroke:#181818;stroke-width:0.6999999999999998;" x1="820.4" x2="849.8" y1="916.2398" y2="916.2398"/><line style="stroke:#181818;stroke-width:0.6999999999999998;" x1="849.8" x2="849.8" y1="916.2398" y2="925.3398"/><line style="stroke:#181818;stroke-width:0.6999999999999998;" x1="821.1" x2="849.8" y1="925.3398" y2="925.3398"/><polygon fill="#181818" points="828.1,922.5398,821.1,925.3398,828.1,928.1398,825.3,925.3398" style="stroke:#181818;stroke-width:0.6999999999999998;"/><text fill="#000000" font-family="sans-serif" font-size="9.1" font-weight="bold" lengthAdjust="spacing" textLength="9.8" x="825.3" y="912.8403">28</text><text fill="#000000" font-family="sans-serif" font-size="9.1" lengthAdjust="spacing" textLength="158.2" x="837.9" y="912.8403">pwd = passwordGenerator(name,email)</text><polygon fill="#181818" points="1107.75,964.7859,1114.75,967.5859,1107.75,970.3859,1110.55,967.5859" style="stroke:#181818;stroke-width:0.6999999999999998;"/><line style="stroke:#181818;stroke-width:0.6999999999999998;" x1="816.9" x2="1111.95" y1="967.5859" y2="967.5859"/><text fill="#000000" font-family="sans-serif" font-size="9.1" font-weight="bold" lengthAdjust="spacing" textLength="9.8" x="821.8" y="964.1864">29</text><text fill="#000000" font-family="sans-serif" font-size="9.1" lengthAdjust="spacing" textLength="198.8" x="834.4" y="964.1864">addu = addUserWithRole(name, email, pwd, role)</text><line style="stroke:#181818;stroke-width:0.6999999999999998;" x1="820.4" x2="849.8" y1="1009.832" y2="1009.832"/><line style="stroke:#181818;stroke-width:0.6999999999999998;" x1="849.8" x2="849.8" y1="1009.832" y2="1018.932"/><line style="stroke:#181818;stroke-width:0.6999999999999998;" x1="821.1" x2="849.8" y1="1018.932" y2="1018.932"/><polygon fill="#181818" points="828.1,1016.132,821.1,1018.932,828.1,1021.732,825.3,1018.932" style="stroke:#181818;stroke-width:0.6999999999999998;"/><text fill="#000000" font-family="sans-serif" font-size="9.1" font-weight="bold" lengthAdjust="spacing" textLength="9.8" x="825.3" y="1006.4325">30</text><text fill="#000000" font-family="sans-serif" font-size="9.1" lengthAdjust="spacing" textLength="78.4" x="837.9" y="1006.4325">addEmployee(emp)</text><polygon fill="#181818" points="42.35,1058.3781,35.35,1061.1781,42.35,1063.9781,39.55,1061.1781" style="stroke:#181818;stroke-width:0.6999999999999998;"/><line style="stroke:#181818;stroke-width:0.6999999999999998;stroke-dasharray:2.0,2.0;" x1="38.15" x2="250.95" y1="1061.1781" y2="1061.1781"/><text fill="#000000" font-family="sans-serif" font-size="9.1" font-weight="bold" lengthAdjust="spacing" textLength="9.8" x="46.55" y="1057.7786">31</text><text fill="#000000" font-family="sans-serif" font-size="9.1" lengthAdjust="spacing" textLength="106.4" x="59.15" y="1057.7786">informs operation success</text><!--MD5=[3a7842fd3251868873426e96327dec0b]
@startuml
autonumber
actor "Administrator" as ADM


participant ":RegisterEmployeeUI" as UI
participant ":RegisterEmployeeController" as CTRL
participant "Application" as APP
participant "app\n:Application" as App
participant "comp:Company" as COMP
participant "emps\n:EmployeeStore" as EMPS
participant "emp: Employee" as EMP
participant "auth\n:AuthFacade" as AF
participant ":UserRoleStore" as URS
participant ":UserRoleMapper" as URM
participant "lRoles\n List<UserRole>" as LR
participant "lRolesDTO\n: List<UserRoleDTO>" as lRDTO




activate ADM

ADM -> UI : starts registering a new employee
activate UI

UI -> CTRL : lRolesDto = getRoles()
activate CTRL

CTRL -> APP : app = getInstance()
activate APP
deactivate APP

CTRL -> App: session = getCurrentSession()
activate App
deactivate App

CTRL -> App : comp = getCompany()
activate App
deactivate App

CTRL -> COMP: auth = getAuthFacade()
activate COMP


CTRL -> COMP: lRoles = getRoles()
deactivate COMP


CTRL -> AF : lRolesDTO = getUserRoles()
activate AF

AF -> URS : sRoles = getAll()
activate URS
deactivate URS

AF -> URM :  toDTO(sRoles)
activate URM

deactivate URM
deactivate AF
deactivate CTRL

UI - -> ADM : ask to select the employee role
deactivate UI



ADM -> UI : selects the intended role
activate UI

UI - -> ADM : request data (name, phoneNumber, address,\n emailAddress, citizenCardNumber)
deactivate UI




ADM -> UI : types requested data
activate UI

UI -> CTRL :createEmployee(name, phoneNumber, address,\n emailAddress, citizenCardNumber, role)
activate CTRL

CTRL -> COMP : emps = getEmployeeStore()
activate COMP
deactivate COMP

CTRL -> EMPS : emp = createEmployee(name, phoneNumber, address,\nemailAddress, citizenCardNumber, role)
activate EMPS

EMPS - -> EMP** : create(name, phoneNumber, address, \nemailAddress, citizenCardNumber)

note over EMP : **emp** might be an instance of CenterCoordinator \nor Nurse or Receptionist. It depends of the type \nof Employee receiving this message


CTRL -> EMPS : validateEmployee(emp)

EMPS -> EMP : email = getEmailAddress()
activate EMP
deactivate EMP

EMPS -> AF : eu = existsUser(email)
activate AF
deactivate AF
deactivate CTRL
deactivate EMPS

UI - -> ADM : shows the data and requests a confirmation
deactivate UI



ADM -> UI : confirms the data
activate UI

UI -> CTRL : registerEmployee()
activate CTRL

CTRL -> EMPS: registerEmployee(emp)
activate EMPS

EMPS -> EMP : email = getEmailAddress()
activate EMP

EMPS -> EMP : name = getName()

deactivate EMP

EMPS -> EMPS : pwd = passwordGenerator(name,email)
activate EMPS
deactivate EMPS

EMPS -> AF : addu = addUserWithRole(name, email, pwd, role)
activate AF
deactivate AF

EMPS -> EMPS : addEmployee(emp)
activate EMPS
deactivate EMPS
deactivate EMPS
deactivate CTRL

UI - -> ADM : informs operation success
deactivate UI


deactivate ADM

@enduml

PlantUML version 1.2022.4(Sat Apr 09 14:29:17 BST 2022)
(GPL source distribution)
Java Runtime: OpenJDK Runtime Environment
JVM: OpenJDK 64-Bit Server VM
Default Encoding: Cp1252
Language: en
Country: US
--></g></svg>