<?xml version="1.0" encoding="UTF-8" standalone="no"?><svg xmlns="http://www.w3.org/2000/svg" xmlns:xlink="http://www.w3.org/1999/xlink" contentStyleType="text/css" height="813px" preserveAspectRatio="none" style="width:862px;height:813px;background:#FFFFFF;" version="1.1" viewBox="0 0 862 813" width="862px" zoomAndPan="magnify"><defs/><g><!--MD5=[0b4e4b4980470ea387cc45de9bd14b5b]
class Application--><g id="elem_Application"><rect codeLine="3" fill="#F1F1F1" height="100.8281" id="Application" rx="2.5" ry="2.5" style="stroke:#181818;stroke-width:0.5;" width="148" x="410.5" y="295"/><ellipse cx="446.65" cy="311" fill="#ADD1B2" rx="11" ry="11" style="stroke:#181818;stroke-width:1.0;"/><path d="M448.65,307.5 Q448.8531,307 449.0875,306.75 Q449.3219,306.5 449.5875,306.5 Q450.0563,306.5 450.3531,306.7813 Q450.65,307.0625 450.65,307.7188 L450.65,309.2813 Q450.65,309.9375 450.3688,310.2188 Q450.0875,310.5 449.65,310.5 Q449.2594,310.5 449.0094,310.3281 Q448.7594,310.1563 448.65,309.7031 Q448.6031,309.3906 448.4313,309.2188 Q448.1188,308.8906 447.5563,308.7031 Q446.9938,308.5 446.4313,308.5 Q445.7281,308.5 445.1344,308.7813 Q444.5563,309.0625 444.1031,309.6875 Q443.65,310.3125 443.65,311.1719 L443.65,312.0938 Q443.65,313.125 444.4938,313.8125 Q445.3375,314.5 446.8375,314.5 Q447.7281,314.5 448.3531,314.2969 Q448.7125,314.1875 449.1188,313.8281 Q449.3844,313.625 449.525,313.5625 Q449.6656,313.5 449.8375,313.5 Q450.1656,313.5 450.4,313.7656 Q450.65,314.0156 450.65,314.375 Q450.65,314.7188 450.3063,315.125 Q449.8063,315.7188 449.0094,316.0469 Q447.9625,316.5 446.6813,316.5 Q445.1813,316.5 443.9781,315.9063 Q443.0094,315.4375 442.3219,314.4219 Q441.65,313.4063 441.65,312.2031 L441.65,311.1094 Q441.65,309.8594 442.2438,308.7656 Q442.8531,307.6719 443.9,307.0938 Q444.9625,306.5 446.15,306.5 Q446.8688,306.5 447.4938,306.75 Q448.1188,307 448.65,307.5 Z " fill="#000000"/><text fill="#000000" font-family="sans-serif" font-size="14" lengthAdjust="spacing" textLength="69" x="465.35" y="316.7285">Application</text><line style="stroke:#181818;stroke-width:0.5;" x1="411.5" x2="557.5" y1="327" y2="327"/><line style="stroke:#181818;stroke-width:0.5;" x1="411.5" x2="557.5" y1="335" y2="335"/><text fill="#000000" font-family="sans-serif" font-size="14" lengthAdjust="spacing" textLength="128" x="416.5" y="353.5332">+static getInstance()</text><text fill="#000000" font-family="sans-serif" font-size="14" lengthAdjust="spacing" textLength="136" x="416.5" y="371.1426">+getCurrentSession()</text><text fill="#000000" font-family="sans-serif" font-size="14" lengthAdjust="spacing" textLength="98" x="416.5" y="388.752">+getCompany()</text></g><!--MD5=[829fb52c07ade3ad64ef85b99d1fca10]
class EmployeeStore--><g id="elem_EmployeeStore"><rect codeLine="10" fill="#F1F1F1" height="171.2656" id="EmployeeStore" rx="2.5" ry="2.5" style="stroke:#181818;stroke-width:0.5;" width="322" x="323.5" y="627"/><ellipse cx="432.25" cy="643" fill="#ADD1B2" rx="11" ry="11" style="stroke:#181818;stroke-width:1.0;"/><path d="M434.25,639.5 Q434.4531,639 434.6875,638.75 Q434.9219,638.5 435.1875,638.5 Q435.6563,638.5 435.9531,638.7813 Q436.25,639.0625 436.25,639.7188 L436.25,641.2813 Q436.25,641.9375 435.9688,642.2188 Q435.6875,642.5 435.25,642.5 Q434.8594,642.5 434.6094,642.3281 Q434.3594,642.1563 434.25,641.7031 Q434.2031,641.3906 434.0313,641.2188 Q433.7188,640.8906 433.1563,640.7031 Q432.5938,640.5 432.0313,640.5 Q431.3281,640.5 430.7344,640.7813 Q430.1563,641.0625 429.7031,641.6875 Q429.25,642.3125 429.25,643.1719 L429.25,644.0938 Q429.25,645.125 430.0938,645.8125 Q430.9375,646.5 432.4375,646.5 Q433.3281,646.5 433.9531,646.2969 Q434.3125,646.1875 434.7188,645.8281 Q434.9844,645.625 435.125,645.5625 Q435.2656,645.5 435.4375,645.5 Q435.7656,645.5 436,645.7656 Q436.25,646.0156 436.25,646.375 Q436.25,646.7188 435.9063,647.125 Q435.4063,647.7188 434.6094,648.0469 Q433.5625,648.5 432.2813,648.5 Q430.7813,648.5 429.5781,647.9063 Q428.6094,647.4375 427.9219,646.4219 Q427.25,645.4063 427.25,644.2031 L427.25,643.1094 Q427.25,641.8594 427.8438,640.7656 Q428.4531,639.6719 429.5,639.0938 Q430.5625,638.5 431.75,638.5 Q432.4688,638.5 433.0938,638.75 Q433.7188,639 434.25,639.5 Z " fill="#000000"/><text fill="#000000" font-family="sans-serif" font-size="14" lengthAdjust="spacing" textLength="96" x="452.75" y="648.7285">EmployeeStore</text><line style="stroke:#181818;stroke-width:0.5;" x1="324.5" x2="644.5" y1="659" y2="659"/><text fill="#000000" font-family="sans-serif" font-size="14" lengthAdjust="spacing" textLength="196" x="329.5" y="677.5332">-List&lt;Employee&gt; listaEmployee</text><line style="stroke:#181818;stroke-width:0.5;" x1="324.5" x2="644.5" y1="684.6094" y2="684.6094"/><text fill="#000000" font-family="sans-serif" font-size="14" lengthAdjust="spacing" textLength="310" x="329.5" y="703.1426">+createEmployee(name, phoneNumber, address,</text><text fill="#000000" font-family="sans-serif" font-size="14" lengthAdjust="spacing" textLength="249" x="329.5" y="720.752">emailAddress, citizenCardNumber, role)</text><text fill="#000000" font-family="sans-serif" font-size="14" lengthAdjust="spacing" textLength="156" x="329.5" y="738.3613">+validateEmployee(emp)</text><text fill="#000000" font-family="sans-serif" font-size="14" lengthAdjust="spacing" textLength="155" x="329.5" y="755.9707">+registerEmployee(emp)</text><text fill="#000000" font-family="sans-serif" font-size="14" lengthAdjust="spacing" textLength="215" x="329.5" y="773.5801">+passwordGenerator(name,email)</text><text fill="#000000" font-family="sans-serif" font-size="14" lengthAdjust="spacing" textLength="131" x="329.5" y="791.1895">+addEmployee(emp)</text></g><!--MD5=[7421f545a0d8420c5bec41e74b387d9c]
class Employee--><g id="elem_Employee"><rect codeLine="19" fill="#F1F1F1" height="188.875" id="Employee" rx="2.5" ry="2.5" style="stroke:#181818;stroke-width:0.5;" width="136" x="719.5" y="618"/><ellipse cx="753.4" cy="634" fill="#ADD1B2" rx="11" ry="11" style="stroke:#181818;stroke-width:1.0;"/><path d="M755.4,630.5 Q755.6031,630 755.8375,629.75 Q756.0719,629.5 756.3375,629.5 Q756.8063,629.5 757.1031,629.7813 Q757.4,630.0625 757.4,630.7188 L757.4,632.2813 Q757.4,632.9375 757.1188,633.2188 Q756.8375,633.5 756.4,633.5 Q756.0094,633.5 755.7594,633.3281 Q755.5094,633.1563 755.4,632.7031 Q755.3531,632.3906 755.1813,632.2188 Q754.8688,631.8906 754.3063,631.7031 Q753.7438,631.5 753.1813,631.5 Q752.4781,631.5 751.8844,631.7813 Q751.3063,632.0625 750.8531,632.6875 Q750.4,633.3125 750.4,634.1719 L750.4,635.0938 Q750.4,636.125 751.2438,636.8125 Q752.0875,637.5 753.5875,637.5 Q754.4781,637.5 755.1031,637.2969 Q755.4625,637.1875 755.8688,636.8281 Q756.1344,636.625 756.275,636.5625 Q756.4156,636.5 756.5875,636.5 Q756.9156,636.5 757.15,636.7656 Q757.4,637.0156 757.4,637.375 Q757.4,637.7188 757.0563,638.125 Q756.5563,638.7188 755.7594,639.0469 Q754.7125,639.5 753.4313,639.5 Q751.9313,639.5 750.7281,638.9063 Q749.7594,638.4375 749.0719,637.4219 Q748.4,636.4063 748.4,635.2031 L748.4,634.1094 Q748.4,632.8594 748.9938,631.7656 Q749.6031,630.6719 750.65,630.0938 Q751.7125,629.5 752.9,629.5 Q753.6188,629.5 754.2438,629.75 Q754.8688,630 755.4,630.5 Z " fill="#000000"/><text fill="#000000" font-family="sans-serif" font-size="14" lengthAdjust="spacing" textLength="62" x="771.6" y="639.7285">Employee</text><line style="stroke:#181818;stroke-width:0.5;" x1="720.5" x2="854.5" y1="650" y2="650"/><text fill="#000000" font-family="sans-serif" font-size="14" lengthAdjust="spacing" textLength="40" x="725.5" y="668.5332">-name</text><text fill="#000000" font-family="sans-serif" font-size="14" lengthAdjust="spacing" textLength="94" x="725.5" y="686.1426">-phoneNumber</text><text fill="#000000" font-family="sans-serif" font-size="14" lengthAdjust="spacing" textLength="56" x="725.5" y="703.752">-address</text><text fill="#000000" font-family="sans-serif" font-size="14" lengthAdjust="spacing" textLength="90" x="725.5" y="721.3613">-emailAddress</text><text fill="#000000" font-family="sans-serif" font-size="14" lengthAdjust="spacing" textLength="124" x="725.5" y="738.9707">-citizenCardNumber</text><text fill="#000000" font-family="sans-serif" font-size="14" lengthAdjust="spacing" textLength="75" x="725.5" y="756.5801">-companyID</text><line style="stroke:#181818;stroke-width:0.5;" x1="720.5" x2="854.5" y1="763.6563" y2="763.6563"/><text fill="#000000" font-family="sans-serif" font-size="14" lengthAdjust="spacing" textLength="124" x="725.5" y="782.1895">+getEmailAddress()</text><text fill="#000000" font-family="sans-serif" font-size="14" lengthAdjust="spacing" textLength="74" x="725.5" y="799.7988">+getName()</text></g><!--MD5=[02e4b9b7573f1156f41e60aa5b4e25a4]
class Company--><g id="elem_Company"><rect codeLine="30" fill="#F1F1F1" height="83.2188" id="Company" rx="2.5" ry="2.5" style="stroke:#181818;stroke-width:0.5;" width="165" x="402" y="457"/><ellipse cx="450.25" cy="473" fill="#ADD1B2" rx="11" ry="11" style="stroke:#181818;stroke-width:1.0;"/><path d="M452.25,469.5 Q452.4531,469 452.6875,468.75 Q452.9219,468.5 453.1875,468.5 Q453.6563,468.5 453.9531,468.7813 Q454.25,469.0625 454.25,469.7188 L454.25,471.2813 Q454.25,471.9375 453.9688,472.2188 Q453.6875,472.5 453.25,472.5 Q452.8594,472.5 452.6094,472.3281 Q452.3594,472.1563 452.25,471.7031 Q452.2031,471.3906 452.0313,471.2188 Q451.7188,470.8906 451.1563,470.7031 Q450.5938,470.5 450.0313,470.5 Q449.3281,470.5 448.7344,470.7813 Q448.1563,471.0625 447.7031,471.6875 Q447.25,472.3125 447.25,473.1719 L447.25,474.0938 Q447.25,475.125 448.0938,475.8125 Q448.9375,476.5 450.4375,476.5 Q451.3281,476.5 451.9531,476.2969 Q452.3125,476.1875 452.7188,475.8281 Q452.9844,475.625 453.125,475.5625 Q453.2656,475.5 453.4375,475.5 Q453.7656,475.5 454,475.7656 Q454.25,476.0156 454.25,476.375 Q454.25,476.7188 453.9063,477.125 Q453.4063,477.7188 452.6094,478.0469 Q451.5625,478.5 450.2813,478.5 Q448.7813,478.5 447.5781,477.9063 Q446.6094,477.4375 445.9219,476.4219 Q445.25,475.4063 445.25,474.2031 L445.25,473.1094 Q445.25,471.8594 445.8438,470.7656 Q446.4531,469.6719 447.5,469.0938 Q448.5625,468.5 449.75,468.5 Q450.4688,468.5 451.0938,468.75 Q451.7188,469 452.25,469.5 Z " fill="#000000"/><text fill="#000000" font-family="sans-serif" font-size="14" lengthAdjust="spacing" textLength="60" x="470.75" y="478.7285">Company</text><line style="stroke:#181818;stroke-width:0.5;" x1="403" x2="566" y1="489" y2="489"/><line style="stroke:#181818;stroke-width:0.5;" x1="403" x2="566" y1="497" y2="497"/><text fill="#000000" font-family="sans-serif" font-size="14" lengthAdjust="spacing" textLength="115" x="408" y="515.5332">+getAuthFacade()</text><text fill="#000000" font-family="sans-serif" font-size="14" lengthAdjust="spacing" textLength="153" x="408" y="533.1426">+getRegisterEmployee()</text></g><!--MD5=[6a4e699b59c2ecf8286aba2faa72e4bd]
class RegisterEmployeeController--><g id="elem_RegisterEmployeeController"><rect codeLine="39" fill="#F1F1F1" height="118.4375" id="RegisterEmployeeController" rx="2.5" ry="2.5" style="stroke:#181818;stroke-width:0.5;" width="322" x="450.5" y="116"/><ellipse cx="518.75" cy="132" fill="#ADD1B2" rx="11" ry="11" style="stroke:#181818;stroke-width:1.0;"/><path d="M520.75,128.5 Q520.9531,128 521.1875,127.75 Q521.4219,127.5 521.6875,127.5 Q522.1563,127.5 522.4531,127.7813 Q522.75,128.0625 522.75,128.7188 L522.75,130.2813 Q522.75,130.9375 522.4688,131.2188 Q522.1875,131.5 521.75,131.5 Q521.3594,131.5 521.1094,131.3281 Q520.8594,131.1563 520.75,130.7031 Q520.7031,130.3906 520.5313,130.2188 Q520.2188,129.8906 519.6563,129.7031 Q519.0938,129.5 518.5313,129.5 Q517.8281,129.5 517.2344,129.7813 Q516.6563,130.0625 516.2031,130.6875 Q515.75,131.3125 515.75,132.1719 L515.75,133.0938 Q515.75,134.125 516.5938,134.8125 Q517.4375,135.5 518.9375,135.5 Q519.8281,135.5 520.4531,135.2969 Q520.8125,135.1875 521.2188,134.8281 Q521.4844,134.625 521.625,134.5625 Q521.7656,134.5 521.9375,134.5 Q522.2656,134.5 522.5,134.7656 Q522.75,135.0156 522.75,135.375 Q522.75,135.7188 522.4063,136.125 Q521.9063,136.7188 521.1094,137.0469 Q520.0625,137.5 518.7813,137.5 Q517.2813,137.5 516.0781,136.9063 Q515.1094,136.4375 514.4219,135.4219 Q513.75,134.4063 513.75,133.2031 L513.75,132.1094 Q513.75,130.8594 514.3438,129.7656 Q514.9531,128.6719 516,128.0938 Q517.0625,127.5 518.25,127.5 Q518.9688,127.5 519.5938,127.75 Q520.2188,128 520.75,128.5 Z " fill="#000000"/><text fill="#000000" font-family="sans-serif" font-size="14" lengthAdjust="spacing" textLength="177" x="539.25" y="137.7285">RegisterEmployeeController</text><line style="stroke:#181818;stroke-width:0.5;" x1="451.5" x2="771.5" y1="148" y2="148"/><line style="stroke:#181818;stroke-width:0.5;" x1="451.5" x2="771.5" y1="156" y2="156"/><text fill="#000000" font-family="sans-serif" font-size="14" lengthAdjust="spacing" textLength="74" x="456.5" y="174.5332">+getRoles()</text><text fill="#000000" font-family="sans-serif" font-size="14" lengthAdjust="spacing" textLength="310" x="456.5" y="192.1426">+createEmployee(name, phoneNumber, address,</text><text fill="#000000" font-family="sans-serif" font-size="14" lengthAdjust="spacing" textLength="249" x="460.5" y="209.752">emailAddress, citizenCardNumber, role)</text><text fill="#000000" font-family="sans-serif" font-size="14" lengthAdjust="spacing" textLength="128" x="456.5" y="227.3613">+registerEmployee()</text></g><!--MD5=[a126dd63c8621c017159ae62771fbe54]
class RegisterEmployeeUI--><g id="elem_RegisterEmployeeUI"><rect codeLine="46" fill="#F1F1F1" height="48" id="RegisterEmployeeUI" rx="2.5" ry="2.5" style="stroke:#181818;stroke-width:0.5;" width="159" x="532" y="7"/><ellipse cx="547" cy="23" fill="#ADD1B2" rx="11" ry="11" style="stroke:#181818;stroke-width:1.0;"/><path d="M549,19.5 Q549.2031,19 549.4375,18.75 Q549.6719,18.5 549.9375,18.5 Q550.4063,18.5 550.7031,18.7813 Q551,19.0625 551,19.7188 L551,21.2813 Q551,21.9375 550.7188,22.2188 Q550.4375,22.5 550,22.5 Q549.6094,22.5 549.3594,22.3281 Q549.1094,22.1563 549,21.7031 Q548.9531,21.3906 548.7813,21.2188 Q548.4688,20.8906 547.9063,20.7031 Q547.3438,20.5 546.7813,20.5 Q546.0781,20.5 545.4844,20.7813 Q544.9063,21.0625 544.4531,21.6875 Q544,22.3125 544,23.1719 L544,24.0938 Q544,25.125 544.8438,25.8125 Q545.6875,26.5 547.1875,26.5 Q548.0781,26.5 548.7031,26.2969 Q549.0625,26.1875 549.4688,25.8281 Q549.7344,25.625 549.875,25.5625 Q550.0156,25.5 550.1875,25.5 Q550.5156,25.5 550.75,25.7656 Q551,26.0156 551,26.375 Q551,26.7188 550.6563,27.125 Q550.1563,27.7188 549.3594,28.0469 Q548.3125,28.5 547.0313,28.5 Q545.5313,28.5 544.3281,27.9063 Q543.3594,27.4375 542.6719,26.4219 Q542,25.4063 542,24.2031 L542,23.1094 Q542,21.8594 542.5938,20.7656 Q543.2031,19.6719 544.25,19.0938 Q545.3125,18.5 546.5,18.5 Q547.2188,18.5 547.8438,18.75 Q548.4688,19 549,19.5 Z " fill="#000000"/><text fill="#000000" font-family="sans-serif" font-size="14" lengthAdjust="spacing" textLength="127" x="561" y="28.7285">RegisterEmployeeUI</text><line style="stroke:#181818;stroke-width:0.5;" x1="533" x2="690" y1="39" y2="39"/><line style="stroke:#181818;stroke-width:0.5;" x1="533" x2="690" y1="47" y2="47"/></g><!--MD5=[8ae808d068a8995f06b9b3ec51357f0b]
class AuthFacade--><g id="elem_AuthFacade"><rect codeLine="50" fill="#F1F1F1" height="100.8281" id="AuthFacade" rx="2.5" ry="2.5" style="stroke:#181818;stroke-width:0.5;" width="281" x="7" y="662"/><ellipse cx="104.75" cy="678" fill="#ADD1B2" rx="11" ry="11" style="stroke:#181818;stroke-width:1.0;"/><path d="M106.75,674.5 Q106.9531,674 107.1875,673.75 Q107.4219,673.5 107.6875,673.5 Q108.1563,673.5 108.4531,673.7813 Q108.75,674.0625 108.75,674.7188 L108.75,676.2813 Q108.75,676.9375 108.4688,677.2188 Q108.1875,677.5 107.75,677.5 Q107.3594,677.5 107.1094,677.3281 Q106.8594,677.1563 106.75,676.7031 Q106.7031,676.3906 106.5313,676.2188 Q106.2188,675.8906 105.6563,675.7031 Q105.0938,675.5 104.5313,675.5 Q103.8281,675.5 103.2344,675.7813 Q102.6563,676.0625 102.2031,676.6875 Q101.75,677.3125 101.75,678.1719 L101.75,679.0938 Q101.75,680.125 102.5938,680.8125 Q103.4375,681.5 104.9375,681.5 Q105.8281,681.5 106.4531,681.2969 Q106.8125,681.1875 107.2188,680.8281 Q107.4844,680.625 107.625,680.5625 Q107.7656,680.5 107.9375,680.5 Q108.2656,680.5 108.5,680.7656 Q108.75,681.0156 108.75,681.375 Q108.75,681.7188 108.4063,682.125 Q107.9063,682.7188 107.1094,683.0469 Q106.0625,683.5 104.7813,683.5 Q103.2813,683.5 102.0781,682.9063 Q101.1094,682.4375 100.4219,681.4219 Q99.75,680.4063 99.75,679.2031 L99.75,678.1094 Q99.75,676.8594 100.3438,675.7656 Q100.9531,674.6719 102,674.0938 Q103.0625,673.5 104.25,673.5 Q104.9688,673.5 105.5938,673.75 Q106.2188,674 106.75,674.5 Z " fill="#000000"/><text fill="#000000" font-family="sans-serif" font-size="14" lengthAdjust="spacing" textLength="77" x="125.25" y="683.7285">AuthFacade</text><line style="stroke:#181818;stroke-width:0.5;" x1="8" x2="287" y1="694" y2="694"/><line style="stroke:#181818;stroke-width:0.5;" x1="8" x2="287" y1="702" y2="702"/><text fill="#000000" font-family="sans-serif" font-size="14" lengthAdjust="spacing" textLength="103" x="13" y="720.5332">+getUserRoles()</text><text fill="#000000" font-family="sans-serif" font-size="14" lengthAdjust="spacing" textLength="115" x="13" y="738.1426">+existsUser(email)</text><text fill="#000000" font-family="sans-serif" font-size="14" lengthAdjust="spacing" textLength="269" x="13" y="755.752">+addUserWithRole(name, email, pwd, role)</text></g><!--MD5=[3fd241ca11f270f6bde54c00b8a8581a]
link RegisterEmployeeUI to RegisterEmployeeController--><g id="link_RegisterEmployeeUI_RegisterEmployeeController"><path codeLine="56" d="M611.5,55.13 C611.5,70.35 611.5,91.05 611.5,110.92 " fill="none" id="RegisterEmployeeUI-to-RegisterEmployeeController" style="stroke:#181818;stroke-width:1.0;stroke-dasharray:7.0,7.0;"/><polygon fill="#181818" points="611.5,115.94,615.5,106.94,611.5,110.94,607.5,106.94,611.5,115.94" style="stroke:#181818;stroke-width:1.0;"/></g><!--MD5=[7c63a46d16d075ca7ac66937a2a499f7]
link RegisterEmployeeController to Employee--><g id="link_RegisterEmployeeController_Employee"><path codeLine="57" d="M630.59,234.07 C660.44,324.92 718.55,501.71 755.06,612.81 " fill="none" id="RegisterEmployeeController-to-Employee" style="stroke:#181818;stroke-width:1.0;stroke-dasharray:7.0,7.0;"/><polygon fill="#181818" points="756.68,617.72,757.6818,607.9222,755.1246,612.9681,750.0787,610.4109,756.68,617.72" style="stroke:#181818;stroke-width:1.0;"/></g><!--MD5=[969ee03aa52aee79b0e607297418cbd4]
link RegisterEmployeeController to Company--><g id="link_RegisterEmployeeController_Company"><path codeLine="58" d="M610.81,234.25 C608.24,280.2 599.99,344.86 575.5,396 C565.52,416.84 549.92,436.54 534.44,452.95 " fill="none" id="RegisterEmployeeController-to-Company" style="stroke:#181818;stroke-width:1.0;stroke-dasharray:7.0,7.0;"/><polygon fill="#181818" points="530.93,456.61,540.0416,452.8711,534.3861,452.9968,534.2604,447.3413,530.93,456.61" style="stroke:#181818;stroke-width:1.0;"/></g><!--MD5=[8c18a3e8a8e8f79c569ce45c8096cb72]
link RegisterEmployeeController to Application--><g id="link_RegisterEmployeeController_Application"><path codeLine="59" d="M567.44,234.46 C553.65,252.75 538.51,272.84 524.98,290.79 " fill="none" id="RegisterEmployeeController-to-Application" style="stroke:#181818;stroke-width:1.0;stroke-dasharray:7.0,7.0;"/><polygon fill="#181818" points="521.94,294.82,530.54,290.02,524.94,290.82,524.14,285.22,521.94,294.82" style="stroke:#181818;stroke-width:1.0;"/></g><!--MD5=[aa87414629f40b8871c38fc4fdff0b84]
link Application to Company--><g id="link_Application_Company"><path codeLine="60" d="M484.5,396.36 C484.5,414.11 484.5,434.01 484.5,451.43 " fill="none" id="Application-to-Company" style="stroke:#181818;stroke-width:1.0;stroke-dasharray:7.0,7.0;"/><polygon fill="#181818" points="484.5,456.75,488.5,447.75,484.5,451.75,480.5,447.75,484.5,456.75" style="stroke:#181818;stroke-width:1.0;"/></g><!--MD5=[2f3bac1bdf76f0b867b8cadb6fadb6bc]
link EmployeeStore to Employee--><g id="link_EmployeeStore_Employee"><path codeLine="61" d="M645.76,712.5 C669.6,712.5 693.12,712.5 713.94,712.5 " fill="none" id="EmployeeStore-to-Employee" style="stroke:#181818;stroke-width:1.0;"/><polygon fill="#181818" points="719.17,712.5,710.17,708.5,714.17,712.5,710.17,716.5,719.17,712.5" style="stroke:#181818;stroke-width:1.0;"/><text fill="#000000" font-family="sans-serif" font-size="13" lengthAdjust="spacing" textLength="37" x="664" y="705.9951">knows</text><text fill="#000000" font-family="sans-serif" font-size="13" lengthAdjust="spacing" textLength="7" x="653.7406" y="709.6097">1</text><text fill="#000000" font-family="sans-serif" font-size="13" lengthAdjust="spacing" textLength="5" x="706.423" y="709.1462">*</text></g><!--MD5=[ce859576cba61219b3cb4d2d23fdcd81]
link Company to EmployeeStore--><g id="link_Company_EmployeeStore"><path codeLine="62" d="M484.5,540.38 C484.5,563.48 484.5,593.33 484.5,621.61 " fill="none" id="Company-to-EmployeeStore" style="stroke:#181818;stroke-width:1.0;"/><polygon fill="#181818" points="484.5,626.87,488.5,617.87,484.5,621.87,480.5,617.87,484.5,626.87" style="stroke:#181818;stroke-width:1.0;"/><text fill="#000000" font-family="sans-serif" font-size="13" lengthAdjust="spacing" textLength="21" x="485.5" y="584.4951">has</text><text fill="#000000" font-family="sans-serif" font-size="13" lengthAdjust="spacing" textLength="7" x="476.9422" y="561.8353">1</text><text fill="#000000" font-family="sans-serif" font-size="13" lengthAdjust="spacing" textLength="7" x="477.1883" y="616.03">1</text></g><!--MD5=[717d4b03d3c4372f4eafe5e342a0a7dd]
link Company to AuthFacade--><g id="link_Company_AuthFacade"><path codeLine="64" d="M419.92,540.12 C366.18,573.93 289.31,622.29 230.92,659.02 " fill="none" id="Company-to-AuthFacade" style="stroke:#181818;stroke-width:1.0;stroke-dasharray:7.0,7.0;"/><polygon fill="#181818" points="226.39,661.87,236.1352,660.4448,230.6171,659.1995,231.8624,653.6814,226.39,661.87" style="stroke:#181818;stroke-width:1.0;"/></g><!--MD5=[4e81cfe0e16bcb388edaa38b9f94ed45]
reverse link AuthFacade to EmployeeStore--><g id="link_AuthFacade_EmployeeStore"><path codeLine="66" d="M293.27,712.5 C303.29,712.5 313.31,712.5 323.33,712.5 " fill="none" id="AuthFacade-backto-EmployeeStore" style="stroke:#181818;stroke-width:1.0;stroke-dasharray:7.0,7.0;"/><polygon fill="#181818" points="288.03,712.5,297.03,716.5,293.03,712.5,297.03,708.5,288.03,712.5" style="stroke:#181818;stroke-width:1.0;"/></g><!--MD5=[e0e01d735fd127062a7cd4ee805dfe1b]
@startuml
skinparam classAttributeIconSize 0

class Application {
  +static getInstance()
  +getCurrentSession()
  +getCompany()

}

class EmployeeStore {
-List<Employee> listaEmployee
+createEmployee(name, phoneNumber, address,\nemailAddress, citizenCardNumber, role)
+validateEmployee(emp)
+registerEmployee(emp)
+passwordGenerator(name,email)
+addEmployee(emp)
}

class Employee {
-name
-phoneNumber
-address
-emailAddress
-citizenCardNumber
-companyID
+getEmailAddress()
+getName()
}

class Company {

  +getAuthFacade()
  +getRegisterEmployee()

}



class RegisterEmployeeController {
+getRoles()
+createEmployee(name, phoneNumber, address,\n emailAddress, citizenCardNumber, role)
+registerEmployee()

}

class RegisterEmployeeUI {

}

class AuthFacade{
+getUserRoles()
+existsUser(email)
+addUserWithRole(name, email, pwd, role)
}

RegisterEmployeeUI ..> RegisterEmployeeController
RegisterEmployeeController ..> Employee
RegisterEmployeeController ..> Company
RegisterEmployeeController ..> Application
Application ..> Company
EmployeeStore "1" -> "*" Employee : knows
Company "1" - -> "1" EmployeeStore : has

Company ..> AuthFacade

EmployeeStore .left.> AuthFacade


@enduml

PlantUML version 1.2022.4(Sat Apr 09 14:29:17 BST 2022)
(GPL source distribution)
Java Runtime: OpenJDK Runtime Environment
JVM: OpenJDK 64-Bit Server VM
Default Encoding: Cp1252
Language: en
Country: US
--></g></svg>