<?xml version="1.0" encoding="UTF-8" standalone="no"?><svg xmlns="http://www.w3.org/2000/svg" xmlns:xlink="http://www.w3.org/1999/xlink" contentStyleType="text/css" height="1539px" preserveAspectRatio="none" style="width:2467px;height:1539px;background:#FFFFFF;" version="1.1" viewBox="0 0 2467 1539" width="2467px" zoomAndPan="magnify"><defs/><g><rect fill="#FFFFFF" height="1346.6563" style="stroke:#181818;stroke-width:1.0;" width="10" x="44.5" y="92.6094"/><rect fill="#FFFFFF" height="393.1641" style="stroke:#181818;stroke-width:1.0;" width="10" x="354.5" y="114.9609"/><rect fill="#FFFFFF" height="46.7031" style="stroke:#181818;stroke-width:1.0;" width="10" x="354.5" y="538.4766"/><rect fill="#FFFFFF" height="434.5703" style="stroke:#181818;stroke-width:1.0;" width="10" x="354.5" y="615.5313"/><rect fill="#FFFFFF" height="358.8125" style="stroke:#181818;stroke-width:1.0;" width="10" x="354.5" y="1080.4531"/><rect fill="#FFFFFF" height="332.4609" style="stroke:#181818;stroke-width:1.0;" width="10" x="677.5" y="145.3125"/><rect fill="#FFFFFF" height="357.5156" style="stroke:#181818;stroke-width:1.0;" width="10" x="677.5" y="662.2344"/><rect fill="#FFFFFF" height="291.1094" style="stroke:#181818;stroke-width:1.0;" width="10" x="677.5" y="1110.8047"/><rect fill="#FFFFFF" height="30" style="stroke:#181818;stroke-width:1.0;" width="10" x="829.5" y="175.6641"/><rect fill="#FFFFFF" height="30" style="stroke:#181818;stroke-width:1.0;" width="10" x="924.5" y="236.0156"/><rect fill="#FFFFFF" height="30.3516" style="stroke:#181818;stroke-width:1.0;" width="10" x="1034" y="296.3672"/><rect fill="#FFFFFF" height="30" style="stroke:#181818;stroke-width:1.0;" width="10" x="1135" y="692.5859"/><rect fill="#FFFFFF" height="250.4609" style="stroke:#181818;stroke-width:1.0;" width="10" x="1246.5" y="769.2891"/><rect fill="#FFFFFF" height="260.7578" style="stroke:#181818;stroke-width:1.0;" width="10" x="1246.5" y="1141.1563"/><rect fill="#FFFFFF" height="28" style="stroke:#181818;stroke-width:1.0;" width="10" x="1251.5" y="1240.2109"/><rect fill="#FFFFFF" height="28" style="stroke:#181818;stroke-width:1.0;" width="10" x="1251.5" y="1373.9141"/><rect fill="#FFFFFF" height="30" style="stroke:#181818;stroke-width:1.0;" width="10" x="1567" y="929.3984"/><rect fill="#FFFFFF" height="30.3516" style="stroke:#181818;stroke-width:1.0;" width="10" x="1567" y="1171.5078"/><rect fill="#FFFFFF" height="120.7031" style="stroke:#181818;stroke-width:1.0;" width="10" x="1680" y="357.0703"/><rect fill="#FFFFFF" height="30" style="stroke:#181818;stroke-width:1.0;" width="10" x="1680" y="989.75"/><rect fill="#FFFFFF" height="30" style="stroke:#181818;stroke-width:1.0;" width="10" x="1680" y="1305.5625"/><rect fill="#FFFFFF" height="30" style="stroke:#181818;stroke-width:1.0;" width="10" x="1817" y="387.4219"/><rect fill="#FFFFFF" height="30" style="stroke:#181818;stroke-width:1.0;" width="10" x="1944" y="447.7734"/><line style="stroke:#181818;stroke-width:0.5;stroke-dasharray:5.0,5.0;" x1="49" x2="49" y1="82.6094" y2="1457.2656"/><line style="stroke:#181818;stroke-width:0.5;stroke-dasharray:5.0,5.0;" x1="359" x2="359" y1="82.6094" y2="1457.2656"/><line style="stroke:#181818;stroke-width:0.5;stroke-dasharray:5.0,5.0;" x1="682" x2="682" y1="82.6094" y2="1457.2656"/><line style="stroke:#181818;stroke-width:0.5;stroke-dasharray:5.0,5.0;" x1="834" x2="834" y1="82.6094" y2="1457.2656"/><line style="stroke:#181818;stroke-width:0.5;stroke-dasharray:5.0,5.0;" x1="929" x2="929" y1="82.6094" y2="1457.2656"/><line style="stroke:#181818;stroke-width:0.5;stroke-dasharray:5.0,5.0;" x1="1039" x2="1039" y1="82.6094" y2="1457.2656"/><line style="stroke:#181818;stroke-width:0.5;stroke-dasharray:5.0,5.0;" x1="1140" x2="1140" y1="82.6094" y2="1457.2656"/><line style="stroke:#181818;stroke-width:0.5;stroke-dasharray:5.0,5.0;" x1="1251" x2="1251" y1="82.6094" y2="1457.2656"/><line style="stroke:#181818;stroke-width:0.5;stroke-dasharray:5.0,5.0;" x1="1571.5" x2="1571.5" y1="810.6406" y2="1457.2656"/><line style="stroke:#181818;stroke-width:0.5;stroke-dasharray:5.0,5.0;" x1="1684.5" x2="1684.5" y1="82.6094" y2="1457.2656"/><line style="stroke:#181818;stroke-width:0.5;stroke-dasharray:5.0,5.0;" x1="1822" x2="1822" y1="82.6094" y2="1457.2656"/><line style="stroke:#181818;stroke-width:0.5;stroke-dasharray:5.0,5.0;" x1="1949" x2="1949" y1="82.6094" y2="1457.2656"/><line style="stroke:#181818;stroke-width:0.5;stroke-dasharray:5.0,5.0;" x1="2095" x2="2095" y1="82.6094" y2="1457.2656"/><line style="stroke:#181818;stroke-width:0.5;stroke-dasharray:5.0,5.0;" x1="2237" x2="2237" y1="82.6094" y2="1457.2656"/><line style="stroke:#181818;stroke-width:0.5;stroke-dasharray:5.0,5.0;" x1="2383" x2="2383" y1="82.6094" y2="1457.2656"/><text fill="#000000" font-family="sans-serif" font-size="14" lengthAdjust="spacing" textLength="83" x="5" y="79.5332">Administrator</text><ellipse cx="49.5" cy="13.5" fill="#E2E2F0" rx="8" ry="8" style="stroke:#181818;stroke-width:0.5;"/><path d="M49.5,21.5 L49.5,48.5 M36.5,29.5 L62.5,29.5 M49.5,48.5 L36.5,63.5 M49.5,48.5 L62.5,63.5 " fill="none" style="stroke:#181818;stroke-width:0.5;"/><text fill="#000000" font-family="sans-serif" font-size="14" lengthAdjust="spacing" textLength="83" x="5" y="1470.7988">Administrator</text><ellipse cx="49.5" cy="1482.375" fill="#E2E2F0" rx="8" ry="8" style="stroke:#181818;stroke-width:0.5;"/><path d="M49.5,1490.375 L49.5,1517.375 M36.5,1498.375 L62.5,1498.375 M49.5,1517.375 L36.5,1532.375 M49.5,1517.375 L62.5,1532.375 " fill="none" style="stroke:#181818;stroke-width:0.5;"/><rect fill="#E2E2F0" height="31.6094" rx="2.5" ry="2.5" style="stroke:#181818;stroke-width:0.5;" width="145" x="287" y="50"/><text fill="#000000" font-family="sans-serif" font-size="14" lengthAdjust="spacing" textLength="131" x="294" y="71.5332">:RegisterEmployeeUI</text><rect fill="#E2E2F0" height="31.6094" rx="2.5" ry="2.5" style="stroke:#181818;stroke-width:0.5;" width="145" x="287" y="1456.2656"/><text fill="#000000" font-family="sans-serif" font-size="14" lengthAdjust="spacing" textLength="131" x="294" y="1477.7988">:RegisterEmployeeUI</text><rect fill="#E2E2F0" height="31.6094" rx="2.5" ry="2.5" style="stroke:#181818;stroke-width:0.5;" width="195" x="585" y="50"/><text fill="#000000" font-family="sans-serif" font-size="14" lengthAdjust="spacing" textLength="181" x="592" y="71.5332">:RegisterEmployeeController</text><rect fill="#E2E2F0" height="31.6094" rx="2.5" ry="2.5" style="stroke:#181818;stroke-width:0.5;" width="195" x="585" y="1456.2656"/><text fill="#000000" font-family="sans-serif" font-size="14" lengthAdjust="spacing" textLength="181" x="592" y="1477.7988">:RegisterEmployeeController</text><rect fill="#E2E2F0" height="31.6094" rx="2.5" ry="2.5" style="stroke:#181818;stroke-width:0.5;" width="83" x="793" y="50"/><text fill="#000000" font-family="sans-serif" font-size="14" lengthAdjust="spacing" textLength="69" x="800" y="71.5332">Application</text><rect fill="#E2E2F0" height="31.6094" rx="2.5" ry="2.5" style="stroke:#181818;stroke-width:0.5;" width="83" x="793" y="1456.2656"/><text fill="#000000" font-family="sans-serif" font-size="14" lengthAdjust="spacing" textLength="69" x="800" y="1477.7988">Application</text><rect fill="#E2E2F0" height="49.2188" rx="2.5" ry="2.5" style="stroke:#181818;stroke-width:0.5;" width="87" x="886" y="32.3906"/><text fill="#000000" font-family="sans-serif" font-size="14" lengthAdjust="spacing" textLength="24" x="917.5" y="53.9238">app</text><text fill="#000000" font-family="sans-serif" font-size="14" lengthAdjust="spacing" textLength="73" x="893" y="71.5332">:Application</text><rect fill="#E2E2F0" height="49.2188" rx="2.5" ry="2.5" style="stroke:#181818;stroke-width:0.5;" width="87" x="886" y="1456.2656"/><text fill="#000000" font-family="sans-serif" font-size="14" lengthAdjust="spacing" textLength="24" x="917.5" y="1477.7988">app</text><text fill="#000000" font-family="sans-serif" font-size="14" lengthAdjust="spacing" textLength="73" x="893" y="1495.4082">:Application</text><rect fill="#E2E2F0" height="31.6094" rx="2.5" ry="2.5" style="stroke:#181818;stroke-width:0.5;" width="112" x="983" y="50"/><text fill="#000000" font-family="sans-serif" font-size="14" lengthAdjust="spacing" textLength="98" x="990" y="71.5332">comp:Company</text><rect fill="#E2E2F0" height="31.6094" rx="2.5" ry="2.5" style="stroke:#181818;stroke-width:0.5;" width="112" x="983" y="1456.2656"/><text fill="#000000" font-family="sans-serif" font-size="14" lengthAdjust="spacing" textLength="98" x="990" y="1477.7988">comp:Company</text><rect fill="#E2E2F0" height="31.6094" rx="2.5" ry="2.5" style="stroke:#181818;stroke-width:0.5;" width="70" x="1105" y="50"/><text fill="#000000" font-family="sans-serif" font-size="14" lengthAdjust="spacing" textLength="56" x="1112" y="71.5332">:Platform</text><rect fill="#E2E2F0" height="31.6094" rx="2.5" ry="2.5" style="stroke:#181818;stroke-width:0.5;" width="70" x="1105" y="1456.2656"/><text fill="#000000" font-family="sans-serif" font-size="14" lengthAdjust="spacing" textLength="56" x="1112" y="1477.7988">:Platform</text><rect fill="#E2E2F0" height="49.2188" rx="2.5" ry="2.5" style="stroke:#181818;stroke-width:0.5;" width="133" x="1185" y="32.3906"/><text fill="#000000" font-family="sans-serif" font-size="14" lengthAdjust="spacing" textLength="21" x="1241" y="53.9238">gre</text><text fill="#000000" font-family="sans-serif" font-size="14" lengthAdjust="spacing" textLength="119" x="1192" y="71.5332">:RegisterEmployee</text><rect fill="#E2E2F0" height="49.2188" rx="2.5" ry="2.5" style="stroke:#181818;stroke-width:0.5;" width="133" x="1185" y="1456.2656"/><text fill="#000000" font-family="sans-serif" font-size="14" lengthAdjust="spacing" textLength="21" x="1241" y="1477.7988">gre</text><text fill="#000000" font-family="sans-serif" font-size="14" lengthAdjust="spacing" textLength="119" x="1192" y="1495.4082">:RegisterEmployee</text><rect fill="#E2E2F0" height="31.6094" rx="2.5" ry="2.5" style="stroke:#181818;stroke-width:0.5;" width="111" x="1516.5" y="1456.2656"/><text fill="#000000" font-family="sans-serif" font-size="14" lengthAdjust="spacing" textLength="97" x="1523.5" y="1477.7988">emp: Employee</text><rect fill="#E2E2F0" height="49.2188" rx="2.5" ry="2.5" style="stroke:#181818;stroke-width:0.5;" width="95" x="1637.5" y="32.3906"/><text fill="#000000" font-family="sans-serif" font-size="14" lengthAdjust="spacing" textLength="28" x="1671" y="53.9238">auth</text><text fill="#000000" font-family="sans-serif" font-size="14" lengthAdjust="spacing" textLength="81" x="1644.5" y="71.5332">:AuthFacade</text><rect fill="#E2E2F0" height="49.2188" rx="2.5" ry="2.5" style="stroke:#181818;stroke-width:0.5;" width="95" x="1637.5" y="1456.2656"/><text fill="#000000" font-family="sans-serif" font-size="14" lengthAdjust="spacing" textLength="28" x="1671" y="1477.7988">auth</text><text fill="#000000" font-family="sans-serif" font-size="14" lengthAdjust="spacing" textLength="81" x="1644.5" y="1495.4082">:AuthFacade</text><rect fill="#E2E2F0" height="31.6094" rx="2.5" ry="2.5" style="stroke:#181818;stroke-width:0.5;" width="110" x="1767" y="50"/><text fill="#000000" font-family="sans-serif" font-size="14" lengthAdjust="spacing" textLength="96" x="1774" y="71.5332">:UserRoleStore</text><rect fill="#E2E2F0" height="31.6094" rx="2.5" ry="2.5" style="stroke:#181818;stroke-width:0.5;" width="110" x="1767" y="1456.2656"/><text fill="#000000" font-family="sans-serif" font-size="14" lengthAdjust="spacing" textLength="96" x="1774" y="1477.7988">:UserRoleStore</text><rect fill="#E2E2F0" height="31.6094" rx="2.5" ry="2.5" style="stroke:#181818;stroke-width:0.5;" width="124" x="1887" y="50"/><text fill="#000000" font-family="sans-serif" font-size="14" lengthAdjust="spacing" textLength="110" x="1894" y="71.5332">:UserRoleMapper</text><rect fill="#E2E2F0" height="31.6094" rx="2.5" ry="2.5" style="stroke:#181818;stroke-width:0.5;" width="124" x="1887" y="1456.2656"/><text fill="#000000" font-family="sans-serif" font-size="14" lengthAdjust="spacing" textLength="110" x="1894" y="1477.7988">:UserRoleMapper</text><rect fill="#E2E2F0" height="49.2188" rx="2.5" ry="2.5" style="stroke:#181818;stroke-width:0.5;" width="148" x="2021" y="32.3906"/><text fill="#000000" font-family="sans-serif" font-size="14" lengthAdjust="spacing" textLength="69" x="2060.5" y="53.9238">lRolesDTO</text><text fill="#000000" font-family="sans-serif" font-size="14" lengthAdjust="spacing" textLength="134" x="2028" y="71.5332">: List&lt;UserRoleDTO&gt;</text><rect fill="#E2E2F0" height="49.2188" rx="2.5" ry="2.5" style="stroke:#181818;stroke-width:0.5;" width="148" x="2021" y="1456.2656"/><text fill="#000000" font-family="sans-serif" font-size="14" lengthAdjust="spacing" textLength="69" x="2060.5" y="1477.7988">lRolesDTO</text><text fill="#000000" font-family="sans-serif" font-size="14" lengthAdjust="spacing" textLength="134" x="2028" y="1495.4082">: List&lt;UserRoleDTO&gt;</text><rect fill="#E2E2F0" height="49.2188" rx="2.5" ry="2.5" style="stroke:#181818;stroke-width:0.5;" width="117" x="2179" y="32.3906"/><text fill="#000000" font-family="sans-serif" font-size="14" lengthAdjust="spacing" textLength="43" x="2216" y="53.9238">sRoles</text><text fill="#000000" font-family="sans-serif" font-size="14" lengthAdjust="spacing" textLength="103" x="2186" y="71.5332">: Set&lt;UserRole&gt;</text><rect fill="#E2E2F0" height="49.2188" rx="2.5" ry="2.5" style="stroke:#181818;stroke-width:0.5;" width="117" x="2179" y="1456.2656"/><text fill="#000000" font-family="sans-serif" font-size="14" lengthAdjust="spacing" textLength="43" x="2216" y="1477.7988">sRoles</text><text fill="#000000" font-family="sans-serif" font-size="14" lengthAdjust="spacing" textLength="103" x="2186" y="1495.4082">: Set&lt;UserRole&gt;</text><rect fill="#E2E2F0" height="49.2188" rx="2.5" ry="2.5" style="stroke:#181818;stroke-width:0.5;" width="155" x="2306" y="32.3906"/><text fill="#000000" font-family="sans-serif" font-size="14" lengthAdjust="spacing" textLength="8" x="2379.5" y="53.9238">rl</text><text fill="#000000" font-family="sans-serif" font-size="14" lengthAdjust="spacing" textLength="137" x="2317" y="71.5332">List&lt;String&gt; RolesList</text><rect fill="#E2E2F0" height="49.2188" rx="2.5" ry="2.5" style="stroke:#181818;stroke-width:0.5;" width="155" x="2306" y="1456.2656"/><text fill="#000000" font-family="sans-serif" font-size="14" lengthAdjust="spacing" textLength="8" x="2379.5" y="1477.7988">rl</text><text fill="#000000" font-family="sans-serif" font-size="14" lengthAdjust="spacing" textLength="137" x="2317" y="1495.4082">List&lt;String&gt; RolesList</text><rect fill="#FFFFFF" height="1346.6563" style="stroke:#181818;stroke-width:1.0;" width="10" x="44.5" y="92.6094"/><rect fill="#FFFFFF" height="393.1641" style="stroke:#181818;stroke-width:1.0;" width="10" x="354.5" y="114.9609"/><rect fill="#FFFFFF" height="46.7031" style="stroke:#181818;stroke-width:1.0;" width="10" x="354.5" y="538.4766"/><rect fill="#FFFFFF" height="434.5703" style="stroke:#181818;stroke-width:1.0;" width="10" x="354.5" y="615.5313"/><rect fill="#FFFFFF" height="358.8125" style="stroke:#181818;stroke-width:1.0;" width="10" x="354.5" y="1080.4531"/><rect fill="#FFFFFF" height="332.4609" style="stroke:#181818;stroke-width:1.0;" width="10" x="677.5" y="145.3125"/><rect fill="#FFFFFF" height="357.5156" style="stroke:#181818;stroke-width:1.0;" width="10" x="677.5" y="662.2344"/><rect fill="#FFFFFF" height="291.1094" style="stroke:#181818;stroke-width:1.0;" width="10" x="677.5" y="1110.8047"/><rect fill="#FFFFFF" height="30" style="stroke:#181818;stroke-width:1.0;" width="10" x="829.5" y="175.6641"/><rect fill="#FFFFFF" height="30" style="stroke:#181818;stroke-width:1.0;" width="10" x="924.5" y="236.0156"/><rect fill="#FFFFFF" height="30.3516" style="stroke:#181818;stroke-width:1.0;" width="10" x="1034" y="296.3672"/><rect fill="#FFFFFF" height="30" style="stroke:#181818;stroke-width:1.0;" width="10" x="1135" y="692.5859"/><rect fill="#FFFFFF" height="250.4609" style="stroke:#181818;stroke-width:1.0;" width="10" x="1246.5" y="769.2891"/><rect fill="#FFFFFF" height="260.7578" style="stroke:#181818;stroke-width:1.0;" width="10" x="1246.5" y="1141.1563"/><rect fill="#FFFFFF" height="28" style="stroke:#181818;stroke-width:1.0;" width="10" x="1251.5" y="1240.2109"/><rect fill="#FFFFFF" height="28" style="stroke:#181818;stroke-width:1.0;" width="10" x="1251.5" y="1373.9141"/><rect fill="#FFFFFF" height="30" style="stroke:#181818;stroke-width:1.0;" width="10" x="1567" y="929.3984"/><rect fill="#FFFFFF" height="30.3516" style="stroke:#181818;stroke-width:1.0;" width="10" x="1567" y="1171.5078"/><rect fill="#FFFFFF" height="120.7031" style="stroke:#181818;stroke-width:1.0;" width="10" x="1680" y="357.0703"/><rect fill="#FFFFFF" height="30" style="stroke:#181818;stroke-width:1.0;" width="10" x="1680" y="989.75"/><rect fill="#FFFFFF" height="30" style="stroke:#181818;stroke-width:1.0;" width="10" x="1680" y="1305.5625"/><rect fill="#FFFFFF" height="30" style="stroke:#181818;stroke-width:1.0;" width="10" x="1817" y="387.4219"/><rect fill="#FFFFFF" height="30" style="stroke:#181818;stroke-width:1.0;" width="10" x="1944" y="447.7734"/><polygon fill="#181818" points="342.5,110.9609,352.5,114.9609,342.5,118.9609,346.5,114.9609" style="stroke:#181818;stroke-width:1.0;"/><line style="stroke:#181818;stroke-width:1.0;" x1="54.5" x2="348.5" y1="114.9609" y2="114.9609"/><text fill="#000000" font-family="sans-serif" font-size="13" font-weight="bold" lengthAdjust="spacing" textLength="7" x="61.5" y="110.1045">1</text><text fill="#000000" font-family="sans-serif" font-size="13" lengthAdjust="spacing" textLength="195" x="72.5" y="110.1045">starts registering a new employee</text><polygon fill="#181818" points="665.5,141.3125,675.5,145.3125,665.5,149.3125,669.5,145.3125" style="stroke:#181818;stroke-width:1.0;"/><line style="stroke:#181818;stroke-width:1.0;" x1="364.5" x2="671.5" y1="145.3125" y2="145.3125"/><text fill="#000000" font-family="sans-serif" font-size="13" font-weight="bold" lengthAdjust="spacing" textLength="7" x="371.5" y="140.4561">2</text><text fill="#000000" font-family="sans-serif" font-size="13" lengthAdjust="spacing" textLength="82" x="382.5" y="140.4561">rl = getRoles()</text><polygon fill="#181818" points="817.5,171.6641,827.5,175.6641,817.5,179.6641,821.5,175.6641" style="stroke:#181818;stroke-width:1.0;"/><line style="stroke:#181818;stroke-width:1.0;" x1="687.5" x2="823.5" y1="175.6641" y2="175.6641"/><text fill="#000000" font-family="sans-serif" font-size="13" font-weight="bold" lengthAdjust="spacing" textLength="7" x="694.5" y="170.8076">3</text><text fill="#000000" font-family="sans-serif" font-size="13" lengthAdjust="spacing" textLength="112" x="705.5" y="170.8076">app = getInstance()</text><polygon fill="#181818" points="912.5,232.0156,922.5,236.0156,912.5,240.0156,916.5,236.0156" style="stroke:#181818;stroke-width:1.0;"/><line style="stroke:#181818;stroke-width:1.0;" x1="687.5" x2="918.5" y1="236.0156" y2="236.0156"/><text fill="#000000" font-family="sans-serif" font-size="13" font-weight="bold" lengthAdjust="spacing" textLength="7" x="694.5" y="231.1592">4</text><text fill="#000000" font-family="sans-serif" font-size="13" lengthAdjust="spacing" textLength="129" x="705.5" y="231.1592">comp = getCompany()</text><polygon fill="#181818" points="1022,292.3672,1032,296.3672,1022,300.3672,1026,296.3672" style="stroke:#181818;stroke-width:1.0;"/><line style="stroke:#181818;stroke-width:1.0;" x1="687.5" x2="1028" y1="296.3672" y2="296.3672"/><text fill="#000000" font-family="sans-serif" font-size="13" font-weight="bold" lengthAdjust="spacing" textLength="7" x="694.5" y="291.5107">5</text><text fill="#000000" font-family="sans-serif" font-size="13" lengthAdjust="spacing" textLength="111" x="705.5" y="291.5107">plat = getPlatform()</text><polygon fill="#181818" points="1027,322.7188,1037,326.7188,1027,330.7188,1031,326.7188" style="stroke:#181818;stroke-width:1.0;"/><line style="stroke:#181818;stroke-width:1.0;" x1="687.5" x2="1033" y1="326.7188" y2="326.7188"/><text fill="#000000" font-family="sans-serif" font-size="13" font-weight="bold" lengthAdjust="spacing" textLength="7" x="694.5" y="321.8623">6</text><text fill="#000000" font-family="sans-serif" font-size="13" lengthAdjust="spacing" textLength="137" x="705.5" y="321.8623">auth = getAuthFacade()</text><polygon fill="#181818" points="1668,353.0703,1678,357.0703,1668,361.0703,1672,357.0703" style="stroke:#181818;stroke-width:1.0;"/><line style="stroke:#181818;stroke-width:1.0;" x1="687.5" x2="1674" y1="357.0703" y2="357.0703"/><text fill="#000000" font-family="sans-serif" font-size="13" font-weight="bold" lengthAdjust="spacing" textLength="7" x="694.5" y="352.2139">7</text><text fill="#000000" font-family="sans-serif" font-size="13" lengthAdjust="spacing" textLength="164" x="705.5" y="352.2139">lRolesDTO = getUserRoles()</text><polygon fill="#181818" points="1805,383.4219,1815,387.4219,1805,391.4219,1809,387.4219" style="stroke:#181818;stroke-width:1.0;"/><line style="stroke:#181818;stroke-width:1.0;" x1="1690" x2="1811" y1="387.4219" y2="387.4219"/><text fill="#000000" font-family="sans-serif" font-size="13" font-weight="bold" lengthAdjust="spacing" textLength="7" x="1697" y="382.5654">8</text><text fill="#000000" font-family="sans-serif" font-size="13" lengthAdjust="spacing" textLength="97" x="1708" y="382.5654">sRoles = getAll()</text><polygon fill="#181818" points="1932,443.7734,1942,447.7734,1932,451.7734,1936,447.7734" style="stroke:#181818;stroke-width:1.0;"/><line style="stroke:#181818;stroke-width:1.0;" x1="1690" x2="1938" y1="447.7734" y2="447.7734"/><text fill="#000000" font-family="sans-serif" font-size="13" font-weight="bold" lengthAdjust="spacing" textLength="7" x="1697" y="442.917">9</text><text fill="#000000" font-family="sans-serif" font-size="13" lengthAdjust="spacing" textLength="85" x="1708" y="442.917">toDTO(sRoles)</text><polygon fill="#181818" points="65.5,504.125,55.5,508.125,65.5,512.125,61.5,508.125" style="stroke:#181818;stroke-width:1.0;"/><line style="stroke:#181818;stroke-width:1.0;stroke-dasharray:2.0,2.0;" x1="59.5" x2="358.5" y1="508.125" y2="508.125"/><text fill="#000000" font-family="sans-serif" font-size="13" font-weight="bold" lengthAdjust="spacing" textLength="14" x="71.5" y="503.2686">10</text><text fill="#000000" font-family="sans-serif" font-size="13" lengthAdjust="spacing" textLength="182" x="89.5" y="503.2686">ask to select the employee role</text><polygon fill="#181818" points="342.5,534.4766,352.5,538.4766,342.5,542.4766,346.5,538.4766" style="stroke:#181818;stroke-width:1.0;"/><line style="stroke:#181818;stroke-width:1.0;" x1="54.5" x2="348.5" y1="538.4766" y2="538.4766"/><text fill="#000000" font-family="sans-serif" font-size="13" font-weight="bold" lengthAdjust="spacing" textLength="14" x="61.5" y="533.6201">11</text><text fill="#000000" font-family="sans-serif" font-size="13" lengthAdjust="spacing" textLength="142" x="79.5" y="533.6201">selects the intended role</text><polygon fill="#181818" points="65.5,581.1797,55.5,585.1797,65.5,589.1797,61.5,585.1797" style="stroke:#181818;stroke-width:1.0;"/><line style="stroke:#181818;stroke-width:1.0;stroke-dasharray:2.0,2.0;" x1="59.5" x2="358.5" y1="585.1797" y2="585.1797"/><text fill="#000000" font-family="sans-serif" font-size="13" font-weight="bold" lengthAdjust="spacing" textLength="14" x="71.5" y="572.1475">12</text><text fill="#000000" font-family="sans-serif" font-size="13" lengthAdjust="spacing" textLength="258" x="89.5" y="563.9717">request data (name, phoneNumber, address,</text><text fill="#000000" font-family="sans-serif" font-size="13" lengthAdjust="spacing" textLength="201" x="93.5" y="580.3232">emailAddress, citizenCardNumber)</text><polygon fill="#181818" points="342.5,611.5313,352.5,615.5313,342.5,619.5313,346.5,615.5313" style="stroke:#181818;stroke-width:1.0;"/><line style="stroke:#181818;stroke-width:1.0;" x1="54.5" x2="348.5" y1="615.5313" y2="615.5313"/><text fill="#000000" font-family="sans-serif" font-size="13" font-weight="bold" lengthAdjust="spacing" textLength="14" x="61.5" y="610.6748">13</text><text fill="#000000" font-family="sans-serif" font-size="13" lengthAdjust="spacing" textLength="122" x="79.5" y="610.6748">types requested data</text><polygon fill="#181818" points="665.5,658.2344,675.5,662.2344,665.5,666.2344,669.5,662.2344" style="stroke:#181818;stroke-width:1.0;"/><line style="stroke:#181818;stroke-width:1.0;" x1="364.5" x2="671.5" y1="662.2344" y2="662.2344"/><text fill="#000000" font-family="sans-serif" font-size="13" font-weight="bold" lengthAdjust="spacing" textLength="14" x="371.5" y="649.2021">14</text><text fill="#000000" font-family="sans-serif" font-size="13" lengthAdjust="spacing" textLength="276" x="389.5" y="641.0264">createEmployee(name, phoneNumber, address,</text><text fill="#000000" font-family="sans-serif" font-size="13" lengthAdjust="spacing" textLength="230" x="393.5" y="657.3779">emailAddress, citizenCardNumber, role)</text><polygon fill="#181818" points="1123,688.5859,1133,692.5859,1123,696.5859,1127,692.5859" style="stroke:#181818;stroke-width:1.0;"/><line style="stroke:#181818;stroke-width:1.0;" x1="687.5" x2="1129" y1="692.5859" y2="692.5859"/><text fill="#000000" font-family="sans-serif" font-size="13" font-weight="bold" lengthAdjust="spacing" textLength="14" x="694.5" y="687.7295">15</text><text fill="#000000" font-family="sans-serif" font-size="13" lengthAdjust="spacing" textLength="166" x="712.5" y="687.7295">gre = getRegisterEmployee()</text><polygon fill="#181818" points="1234.5,765.2891,1244.5,769.2891,1234.5,773.2891,1238.5,769.2891" style="stroke:#181818;stroke-width:1.0;"/><line style="stroke:#181818;stroke-width:1.0;" x1="687.5" x2="1240.5" y1="769.2891" y2="769.2891"/><text fill="#000000" font-family="sans-serif" font-size="13" font-weight="bold" lengthAdjust="spacing" textLength="14" x="694.5" y="756.2568">16</text><text fill="#000000" font-family="sans-serif" font-size="13" lengthAdjust="spacing" textLength="317" x="712.5" y="748.0811">emp = createEmployee(name, phoneNumber, address,</text><text fill="#000000" font-family="sans-serif" font-size="13" lengthAdjust="spacing" textLength="230" x="712.5" y="764.4326">emailAddress, citizenCardNumber, role)</text><polygon fill="#181818" points="1504.5,811.9922,1514.5,815.9922,1504.5,819.9922,1508.5,815.9922" style="stroke:#181818;stroke-width:1.0;"/><line style="stroke:#181818;stroke-width:1.0;stroke-dasharray:2.0,2.0;" x1="1256.5" x2="1510.5" y1="815.9922" y2="815.9922"/><text fill="#000000" font-family="sans-serif" font-size="13" font-weight="bold" lengthAdjust="spacing" textLength="14" x="1263.5" y="802.96">17</text><text fill="#000000" font-family="sans-serif" font-size="13" lengthAdjust="spacing" textLength="218" x="1281.5" y="794.7842">create(name, address, phoneNumber,</text><text fill="#000000" font-family="sans-serif" font-size="13" lengthAdjust="spacing" textLength="201" x="1281.5" y="811.1357">emailAddress, citizenCardNumber)</text><rect fill="#E2E2F0" height="31.6094" rx="2.5" ry="2.5" style="stroke:#181818;stroke-width:0.5;" width="111" x="1516.5" y="781.3828"/><text fill="#000000" font-family="sans-serif" font-size="14" lengthAdjust="spacing" textLength="97" x="1523.5" y="802.916">emp: Employee</text><path d="M1393,828.9922 L1393,870.9922 L1751,870.9922 L1751,838.9922 L1741,828.9922 L1393,828.9922 " fill="#FEFFDD" style="stroke:#181818;stroke-width:0.5;"/><path d="M1741,828.9922 L1741,838.9922 L1751,838.9922 L1741,828.9922 " fill="#FEFFDD" style="stroke:#181818;stroke-width:0.5;"/><text fill="#000000" font-family="sans-serif" font-size="13" font-weight="bold" lengthAdjust="spacing" textLength="28" x="1399" y="847.4873">emp</text><text fill="#000000" font-family="sans-serif" font-size="13" lengthAdjust="spacing" textLength="268" x="1431" y="847.4873">might be an instance of Nurse or Receptionist.</text><text fill="#000000" font-family="sans-serif" font-size="13" lengthAdjust="spacing" textLength="337" x="1399" y="863.8389">It depends of the type of Employee receiving this message</text><polygon fill="#181818" points="1234.5,895.0469,1244.5,899.0469,1234.5,903.0469,1238.5,899.0469" style="stroke:#181818;stroke-width:1.0;"/><line style="stroke:#181818;stroke-width:1.0;" x1="687.5" x2="1240.5" y1="899.0469" y2="899.0469"/><text fill="#000000" font-family="sans-serif" font-size="13" font-weight="bold" lengthAdjust="spacing" textLength="14" x="694.5" y="894.1904">18</text><text fill="#000000" font-family="sans-serif" font-size="13" lengthAdjust="spacing" textLength="134" x="712.5" y="894.1904">validateEmployee(emp)</text><polygon fill="#181818" points="1555,925.3984,1565,929.3984,1555,933.3984,1559,929.3984" style="stroke:#181818;stroke-width:1.0;"/><line style="stroke:#181818;stroke-width:1.0;" x1="1256.5" x2="1561" y1="929.3984" y2="929.3984"/><text fill="#000000" font-family="sans-serif" font-size="13" font-weight="bold" lengthAdjust="spacing" textLength="14" x="1263.5" y="924.542">19</text><text fill="#000000" font-family="sans-serif" font-size="13" lengthAdjust="spacing" textLength="154" x="1281.5" y="924.542">email = getEmailAddress()</text><polygon fill="#181818" points="1668,985.75,1678,989.75,1668,993.75,1672,989.75" style="stroke:#181818;stroke-width:1.0;"/><line style="stroke:#181818;stroke-width:1.0;" x1="1256.5" x2="1674" y1="989.75" y2="989.75"/><text fill="#000000" font-family="sans-serif" font-size="13" font-weight="bold" lengthAdjust="spacing" textLength="14" x="1263.5" y="984.8936">20</text><text fill="#000000" font-family="sans-serif" font-size="13" lengthAdjust="spacing" textLength="129" x="1281.5" y="984.8936">uv = existsUser(email)</text><polygon fill="#181818" points="65.5,1046.1016,55.5,1050.1016,65.5,1054.1016,61.5,1050.1016" style="stroke:#181818;stroke-width:1.0;"/><line style="stroke:#181818;stroke-width:1.0;stroke-dasharray:2.0,2.0;" x1="59.5" x2="358.5" y1="1050.1016" y2="1050.1016"/><text fill="#000000" font-family="sans-serif" font-size="13" font-weight="bold" lengthAdjust="spacing" textLength="14" x="71.5" y="1045.2451">21</text><text fill="#000000" font-family="sans-serif" font-size="13" lengthAdjust="spacing" textLength="252" x="89.5" y="1045.2451">shows the data and requests a confirmation</text><polygon fill="#181818" points="342.5,1076.4531,352.5,1080.4531,342.5,1084.4531,346.5,1080.4531" style="stroke:#181818;stroke-width:1.0;"/><line style="stroke:#181818;stroke-width:1.0;" x1="54.5" x2="348.5" y1="1080.4531" y2="1080.4531"/><text fill="#000000" font-family="sans-serif" font-size="13" font-weight="bold" lengthAdjust="spacing" textLength="14" x="61.5" y="1075.5967">22</text><text fill="#000000" font-family="sans-serif" font-size="13" lengthAdjust="spacing" textLength="100" x="79.5" y="1075.5967">confirms the data</text><polygon fill="#181818" points="665.5,1106.8047,675.5,1110.8047,665.5,1114.8047,669.5,1110.8047" style="stroke:#181818;stroke-width:1.0;"/><line style="stroke:#181818;stroke-width:1.0;" x1="364.5" x2="671.5" y1="1110.8047" y2="1110.8047"/><text fill="#000000" font-family="sans-serif" font-size="13" font-weight="bold" lengthAdjust="spacing" textLength="14" x="371.5" y="1105.9482">23</text><text fill="#000000" font-family="sans-serif" font-size="13" lengthAdjust="spacing" textLength="109" x="389.5" y="1105.9482">registerEmployee()</text><polygon fill="#181818" points="1234.5,1137.1563,1244.5,1141.1563,1234.5,1145.1563,1238.5,1141.1563" style="stroke:#181818;stroke-width:1.0;"/><line style="stroke:#181818;stroke-width:1.0;" x1="687.5" x2="1240.5" y1="1141.1563" y2="1141.1563"/><text fill="#000000" font-family="sans-serif" font-size="13" font-weight="bold" lengthAdjust="spacing" textLength="14" x="694.5" y="1136.2998">24</text><text fill="#000000" font-family="sans-serif" font-size="13" lengthAdjust="spacing" textLength="134" x="712.5" y="1136.2998">registerEmployee(emp)</text><polygon fill="#181818" points="1555,1167.5078,1565,1171.5078,1555,1175.5078,1559,1171.5078" style="stroke:#181818;stroke-width:1.0;"/><line style="stroke:#181818;stroke-width:1.0;" x1="1256.5" x2="1561" y1="1171.5078" y2="1171.5078"/><text fill="#000000" font-family="sans-serif" font-size="13" font-weight="bold" lengthAdjust="spacing" textLength="14" x="1263.5" y="1166.6514">25</text><text fill="#000000" font-family="sans-serif" font-size="13" lengthAdjust="spacing" textLength="154" x="1281.5" y="1166.6514">email = getEmailAddress()</text><polygon fill="#181818" points="1560,1197.8594,1570,1201.8594,1560,1205.8594,1564,1201.8594" style="stroke:#181818;stroke-width:1.0;"/><line style="stroke:#181818;stroke-width:1.0;" x1="1256.5" x2="1566" y1="1201.8594" y2="1201.8594"/><text fill="#000000" font-family="sans-serif" font-size="13" font-weight="bold" lengthAdjust="spacing" textLength="14" x="1263.5" y="1197.0029">26</text><text fill="#000000" font-family="sans-serif" font-size="13" lengthAdjust="spacing" textLength="108" x="1281.5" y="1197.0029">name = getName()</text><line style="stroke:#181818;stroke-width:1.0;" x1="1261.5" x2="1303.5" y1="1232.2109" y2="1232.2109"/><line style="stroke:#181818;stroke-width:1.0;" x1="1303.5" x2="1303.5" y1="1232.2109" y2="1245.2109"/><line style="stroke:#181818;stroke-width:1.0;" x1="1262.5" x2="1303.5" y1="1245.2109" y2="1245.2109"/><polygon fill="#181818" points="1272.5,1241.2109,1262.5,1245.2109,1272.5,1249.2109,1268.5,1245.2109" style="stroke:#181818;stroke-width:1.0;"/><text fill="#000000" font-family="sans-serif" font-size="13" font-weight="bold" lengthAdjust="spacing" textLength="14" x="1268.5" y="1227.3545">27</text><text fill="#000000" font-family="sans-serif" font-size="13" lengthAdjust="spacing" textLength="226" x="1286.5" y="1227.3545">pwd = passwordGenerator(name,email)</text><polygon fill="#181818" points="1668,1301.5625,1678,1305.5625,1668,1309.5625,1672,1305.5625" style="stroke:#181818;stroke-width:1.0;"/><line style="stroke:#181818;stroke-width:1.0;" x1="1256.5" x2="1674" y1="1305.5625" y2="1305.5625"/><text fill="#000000" font-family="sans-serif" font-size="13" font-weight="bold" lengthAdjust="spacing" textLength="14" x="1263.5" y="1300.7061">28</text><text fill="#000000" font-family="sans-serif" font-size="13" lengthAdjust="spacing" textLength="284" x="1281.5" y="1300.7061">addu = addUserWithRole(name, email, pwd, role)</text><line style="stroke:#181818;stroke-width:1.0;" x1="1261.5" x2="1303.5" y1="1365.9141" y2="1365.9141"/><line style="stroke:#181818;stroke-width:1.0;" x1="1303.5" x2="1303.5" y1="1365.9141" y2="1378.9141"/><line style="stroke:#181818;stroke-width:1.0;" x1="1262.5" x2="1303.5" y1="1378.9141" y2="1378.9141"/><polygon fill="#181818" points="1272.5,1374.9141,1262.5,1378.9141,1272.5,1382.9141,1268.5,1378.9141" style="stroke:#181818;stroke-width:1.0;"/><text fill="#000000" font-family="sans-serif" font-size="13" font-weight="bold" lengthAdjust="spacing" textLength="14" x="1268.5" y="1361.0576">29</text><text fill="#000000" font-family="sans-serif" font-size="13" lengthAdjust="spacing" textLength="112" x="1286.5" y="1361.0576">addEmployee(emp)</text><polygon fill="#181818" points="60.5,1435.2656,50.5,1439.2656,60.5,1443.2656,56.5,1439.2656" style="stroke:#181818;stroke-width:1.0;"/><line style="stroke:#181818;stroke-width:1.0;stroke-dasharray:2.0,2.0;" x1="54.5" x2="358.5" y1="1439.2656" y2="1439.2656"/><text fill="#000000" font-family="sans-serif" font-size="13" font-weight="bold" lengthAdjust="spacing" textLength="14" x="66.5" y="1434.4092">30</text><text fill="#000000" font-family="sans-serif" font-size="13" lengthAdjust="spacing" textLength="152" x="84.5" y="1434.4092">informs operation success</text><!--MD5=[cc278eaeff3772b3731403d41960620d]
@startuml
autonumber
actor "Administrator" as ADM


participant ":RegisterEmployeeUI" as UI
participant ":RegisterEmployeeController" as CTRL
participant "Application" as APP
participant "app\n:Application" as App
participant "comp:Company" as COMP
participant ":Platform" as PLAT
participant "gre\n:RegisterEmployee" as RE
participant "emp: Employee" as EMP
participant "auth\n:AuthFacade" as AF
participant ":UserRoleStore" as URS
participant ":UserRoleMapper" as URM
participant "lRolesDTO\n: List<UserRoleDTO>" as lRDTO
participant "sRoles\n: Set<UserRole>" as SR
participant "rl\n List<String> RolesList" as rl


activate ADM

ADM -> UI : starts registering a new employee
activate UI

UI -> CTRL : rl = getRoles()
activate CTRL

CTRL -> APP : app = getInstance()
activate APP
deactivate APP

CTRL -> App : comp = getCompany()
activate App
deactivate App

CTRL -> COMP : plat = getPlatform()
activate COMP

CTRL -> COMP: auth = getAuthFacade()
deactivate COMP

CTRL -> AF : lRolesDTO = getUserRoles()
activate AF

AF -> URS : sRoles = getAll()
activate URS
deactivate URS

AF -> URM :  toDTO(sRoles)
activate URM

deactivate URM
deactivate AF
deactivate CTRL

UI - -> ADM : ask to select the employee role
deactivate UI



ADM -> UI : selects the intended role
activate UI

UI - -> ADM : request data (name, phoneNumber, address,\n emailAddress, citizenCardNumber)
deactivate UI




ADM -> UI : types requested data
activate UI

UI -> CTRL :createEmployee(name, phoneNumber, address,\n emailAddress, citizenCardNumber, role)
activate CTRL

CTRL -> PLAT : gre = getRegisterEmployee()
activate PLAT
deactivate PLAT

CTRL -> RE : emp = createEmployee(name, phoneNumber, address,\nemailAddress, citizenCardNumber, role)
activate RE

RE - -> EMP** : create(name, address, phoneNumber,\nemailAddress, citizenCardNumber)

note over EMP : **emp** might be an instance of Nurse or Receptionist.\nIt depends of the type of Employee receiving this message


CTRL -> RE : validateEmployee(emp)

RE -> EMP : email = getEmailAddress()
activate EMP
deactivate EMP

RE -> AF : uv = existsUser(email)
activate AF
deactivate AF
deactivate CTRL
deactivate RE

UI - -> ADM : shows the data and requests a confirmation
deactivate UI



ADM -> UI : confirms the data
activate UI

UI -> CTRL : registerEmployee()
activate CTRL

CTRL -> RE: registerEmployee(emp)
activate RE

RE -> EMP : email = getEmailAddress()
activate EMP

RE -> EMP : name = getName()

deactivate EMP

RE -> RE : pwd = passwordGenerator(name,email)
activate RE
deactivate RE

RE -> AF : addu = addUserWithRole(name, email, pwd, role)
activate AF
deactivate AF

RE -> RE : addEmployee(emp)
activate RE
deactivate RE
deactivate RE
deactivate CTRL

UI - -> ADM : informs operation success
deactivate UI


deactivate ADM

@enduml

PlantUML version 1.2022.4(Sat Apr 09 14:29:17 BST 2022)
(GPL source distribution)
Java Runtime: OpenJDK Runtime Environment
JVM: OpenJDK 64-Bit Server VM
Default Encoding: Cp1252
Language: en
Country: GB
--></g></svg>