<?xml version="1.0" encoding="UTF-8" standalone="no"?><svg xmlns="http://www.w3.org/2000/svg" xmlns:xlink="http://www.w3.org/1999/xlink" contentStyleType="text/css" height="646.4px" preserveAspectRatio="none" style="width:936px;height:646px;background:#FFFFFF;" version="1.1" viewBox="0 0 936 646" width="936px" zoomAndPan="magnify"><defs/><g><rect fill="#FFFFFF" height="569.3438" style="stroke:#181818;stroke-width:0.4000000000000001;" width="4" x="17.8" y="37.0438"/><rect fill="#FFFFFF" height="181.4063" style="stroke:#181818;stroke-width:0.4000000000000001;" width="4" x="141.8" y="45.9844"/><rect fill="#FFFFFF" height="18.6813" style="stroke:#181818;stroke-width:0.4000000000000001;" width="4" x="141.8" y="239.5313"/><rect fill="#FFFFFF" height="180.3688" style="stroke:#181818;stroke-width:0.4000000000000001;" width="4" x="141.8" y="270.3531"/><rect fill="#FFFFFF" height="143.525" style="stroke:#181818;stroke-width:0.4000000000000001;" width="4" x="141.8" y="462.8625"/><rect fill="#FFFFFF" height="157.125" style="stroke:#181818;stroke-width:0.4000000000000001;" width="4" x="271" y="58.125"/><rect fill="#FFFFFF" height="149.5469" style="stroke:#181818;stroke-width:0.4000000000000001;" width="4" x="271" y="289.0344"/><rect fill="#FFFFFF" height="116.4438" style="stroke:#181818;stroke-width:0.4000000000000001;" width="4" x="271" y="475.0031"/><rect fill="#FFFFFF" height="12" style="stroke:#181818;stroke-width:0.4000000000000001;" width="4" x="331.8" y="70.2656"/><rect fill="#FFFFFF" height="12" style="stroke:#181818;stroke-width:0.4000000000000001;" width="4" x="369.8" y="94.4063"/><rect fill="#FFFFFF" height="12" style="stroke:#181818;stroke-width:0.4000000000000001;" width="4" x="369.8" y="118.5469"/><rect fill="#FFFFFF" height="12.1406" style="stroke:#181818;stroke-width:0.4000000000000001;" width="4" x="413.6" y="142.6875"/><rect fill="#FFFFFF" height="12" style="stroke:#181818;stroke-width:0.4000000000000001;" width="4" x="413.6" y="301.175"/><rect fill="#FFFFFF" height="106.725" style="stroke:#181818;stroke-width:0.4000000000000001;" width="4" x="462.8" y="331.8563"/><rect fill="#FFFFFF" height="104.3031" style="stroke:#181818;stroke-width:0.4000000000000001;" width="4" x="462.8" y="487.1438"/><rect fill="#FFFFFF" height="11.2" style="stroke:#181818;stroke-width:0.4000000000000001;" width="4" x="464.8" y="526.7656"/><rect fill="#FFFFFF" height="11.2" style="stroke:#181818;stroke-width:0.4000000000000001;" width="4" x="464.8" y="580.2469"/><rect fill="#FFFFFF" height="12" style="stroke:#181818;stroke-width:0.4000000000000001;" width="4" x="592.6" y="402.4406"/><rect fill="#FFFFFF" height="12.1406" style="stroke:#181818;stroke-width:0.4000000000000001;" width="4" x="592.6" y="499.2844"/><rect fill="#FFFFFF" height="48.2813" style="stroke:#181818;stroke-width:0.4000000000000001;" width="4" x="637.8" y="166.9688"/><rect fill="#FFFFFF" height="12" style="stroke:#181818;stroke-width:0.4000000000000001;" width="4" x="637.8" y="426.5813"/><rect fill="#FFFFFF" height="12" style="stroke:#181818;stroke-width:0.4000000000000001;" width="4" x="637.8" y="552.9063"/><rect fill="#FFFFFF" height="12" style="stroke:#181818;stroke-width:0.4000000000000001;" width="4" x="692.6" y="179.1094"/><rect fill="#FFFFFF" height="12" style="stroke:#181818;stroke-width:0.4000000000000001;" width="4" x="743.4" y="203.25"/><line style="stroke:#181818;stroke-width:0.20000000000000004;stroke-dasharray:5.0,5.0;" x1="19.6" x2="19.6" y1="33.0438" y2="613.5875"/><line style="stroke:#181818;stroke-width:0.20000000000000004;stroke-dasharray:5.0,5.0;" x1="143.6" x2="143.6" y1="33.0438" y2="613.5875"/><line style="stroke:#181818;stroke-width:0.20000000000000004;stroke-dasharray:5.0,5.0;" x1="272.8" x2="272.8" y1="33.0438" y2="613.5875"/><line style="stroke:#181818;stroke-width:0.20000000000000004;stroke-dasharray:5.0,5.0;" x1="333.6" x2="333.6" y1="33.0438" y2="613.5875"/><line style="stroke:#181818;stroke-width:0.20000000000000004;stroke-dasharray:5.0,5.0;" x1="371.6" x2="371.6" y1="33.0438" y2="613.5875"/><line style="stroke:#181818;stroke-width:0.20000000000000004;stroke-dasharray:5.0,5.0;" x1="415.6" x2="415.6" y1="33.0438" y2="613.5875"/><line style="stroke:#181818;stroke-width:0.20000000000000004;stroke-dasharray:5.0,5.0;" x1="464.8" x2="464.8" y1="33.0438" y2="613.5875"/><line style="stroke:#181818;stroke-width:0.20000000000000004;stroke-dasharray:5.0,5.0;" x1="594.4" x2="594.4" y1="348.3969" y2="613.5875"/><line style="stroke:#181818;stroke-width:0.20000000000000004;stroke-dasharray:5.0,5.0;" x1="639.6" x2="639.6" y1="33.0438" y2="613.5875"/><line style="stroke:#181818;stroke-width:0.20000000000000004;stroke-dasharray:5.0,5.0;" x1="694.6" x2="694.6" y1="33.0438" y2="613.5875"/><line style="stroke:#181818;stroke-width:0.20000000000000004;stroke-dasharray:5.0,5.0;" x1="745.4" x2="745.4" y1="33.0438" y2="613.5875"/><line style="stroke:#181818;stroke-width:0.20000000000000004;stroke-dasharray:5.0,5.0;" x1="797" x2="797" y1="33.0438" y2="613.5875"/><line style="stroke:#181818;stroke-width:0.20000000000000004;stroke-dasharray:5.0,5.0;" x1="853.4" x2="853.4" y1="33.0438" y2="613.5875"/><line style="stroke:#181818;stroke-width:0.20000000000000004;stroke-dasharray:5.0,5.0;" x1="910.2" x2="910.2" y1="33.0438" y2="613.5875"/><text fill="#000000" font-family="sans-serif" font-size="5.6" lengthAdjust="spacing" textLength="33.2" x="2" y="31.8133">Administrator</text><ellipse cx="19.8" cy="5.4" fill="#E2E2F0" rx="3.2" ry="3.2" style="stroke:#181818;stroke-width:0.20000000000000004;"/><path d="M19.8,8.6 L19.8,19.4 M14.6,11.8 L25,11.8 M19.8,19.4 L14.6,25.4 M19.8,19.4 L25,25.4 " fill="none" style="stroke:#181818;stroke-width:0.20000000000000004;"/><text fill="#000000" font-family="sans-serif" font-size="5.6" lengthAdjust="spacing" textLength="33.2" x="2" y="619.0008">Administrator</text><ellipse cx="19.8" cy="623.6313" fill="#E2E2F0" rx="3.2" ry="3.2" style="stroke:#181818;stroke-width:0.20000000000000004;"/><path d="M19.8,626.8313 L19.8,637.6313 M14.6,630.0313 L25,630.0313 M19.8,637.6313 L14.6,643.6313 M19.8,637.6313 L25,643.6313 " fill="none" style="stroke:#181818;stroke-width:0.20000000000000004;"/><rect fill="#E2E2F0" height="12.6438" rx="1" ry="1" style="stroke:#181818;stroke-width:0.20000000000000004;" width="58" x="114.8" y="20"/><text fill="#000000" font-family="sans-serif" font-size="5.6" lengthAdjust="spacing" textLength="52.4" x="117.6" y="28.6133">:RegisterEmployeeUI</text><rect fill="#E2E2F0" height="12.6438" rx="1" ry="1" style="stroke:#181818;stroke-width:0.20000000000000004;" width="58" x="114.8" y="613.1875"/><text fill="#000000" font-family="sans-serif" font-size="5.6" lengthAdjust="spacing" textLength="52.4" x="117.6" y="621.8008">:RegisterEmployeeUI</text><rect fill="#E2E2F0" height="12.6438" rx="1" ry="1" style="stroke:#181818;stroke-width:0.20000000000000004;" width="78" x="234" y="20"/><text fill="#000000" font-family="sans-serif" font-size="5.6" lengthAdjust="spacing" textLength="72.4" x="236.8" y="28.6133">:RegisterEmployeeController</text><rect fill="#E2E2F0" height="12.6438" rx="1" ry="1" style="stroke:#181818;stroke-width:0.20000000000000004;" width="78" x="234" y="613.1875"/><text fill="#000000" font-family="sans-serif" font-size="5.6" lengthAdjust="spacing" textLength="72.4" x="236.8" y="621.8008">:RegisterEmployeeController</text><rect fill="#E2E2F0" height="12.6438" rx="1" ry="1" style="stroke:#181818;stroke-width:0.20000000000000004;" width="33.2" x="317.2" y="20"/><text fill="#000000" font-family="sans-serif" font-size="5.6" lengthAdjust="spacing" textLength="27.6" x="320" y="28.6133">Application</text><rect fill="#E2E2F0" height="12.6438" rx="1" ry="1" style="stroke:#181818;stroke-width:0.20000000000000004;" width="33.2" x="317.2" y="613.1875"/><text fill="#000000" font-family="sans-serif" font-size="5.6" lengthAdjust="spacing" textLength="27.6" x="320" y="621.8008">Application</text><rect fill="#E2E2F0" height="19.6875" rx="1" ry="1" style="stroke:#181818;stroke-width:0.20000000000000004;" width="34.8" x="354.4" y="12.9563"/><text fill="#000000" font-family="sans-serif" font-size="5.6" lengthAdjust="spacing" textLength="9.6" x="367" y="21.5695">app</text><text fill="#000000" font-family="sans-serif" font-size="5.6" lengthAdjust="spacing" textLength="29.2" x="357.2" y="28.6133">:Application</text><rect fill="#E2E2F0" height="19.6875" rx="1" ry="1" style="stroke:#181818;stroke-width:0.20000000000000004;" width="34.8" x="354.4" y="613.1875"/><text fill="#000000" font-family="sans-serif" font-size="5.6" lengthAdjust="spacing" textLength="9.6" x="367" y="621.8008">app</text><text fill="#000000" font-family="sans-serif" font-size="5.6" lengthAdjust="spacing" textLength="29.2" x="357.2" y="628.8445">:Application</text><rect fill="#E2E2F0" height="12.6438" rx="1" ry="1" style="stroke:#181818;stroke-width:0.20000000000000004;" width="44.8" x="393.2" y="20"/><text fill="#000000" font-family="sans-serif" font-size="5.6" lengthAdjust="spacing" textLength="39.2" x="396" y="28.6133">comp:Company</text><rect fill="#E2E2F0" height="12.6438" rx="1" ry="1" style="stroke:#181818;stroke-width:0.20000000000000004;" width="44.8" x="393.2" y="613.1875"/><text fill="#000000" font-family="sans-serif" font-size="5.6" lengthAdjust="spacing" textLength="39.2" x="396" y="621.8008">comp:Company</text><rect fill="#E2E2F0" height="19.6875" rx="1" ry="1" style="stroke:#181818;stroke-width:0.20000000000000004;" width="45.6" x="442" y="12.9563"/><text fill="#000000" font-family="sans-serif" font-size="5.6" lengthAdjust="spacing" textLength="13.6" x="458" y="21.5695">emps</text><text fill="#000000" font-family="sans-serif" font-size="5.6" lengthAdjust="spacing" textLength="40" x="444.8" y="28.6133">:EmployeeStore</text><rect fill="#E2E2F0" height="19.6875" rx="1" ry="1" style="stroke:#181818;stroke-width:0.20000000000000004;" width="45.6" x="442" y="613.1875"/><text fill="#000000" font-family="sans-serif" font-size="5.6" lengthAdjust="spacing" textLength="13.6" x="458" y="621.8008">emps</text><text fill="#000000" font-family="sans-serif" font-size="5.6" lengthAdjust="spacing" textLength="40" x="444.8" y="628.8445">:EmployeeStore</text><rect fill="#E2E2F0" height="12.6438" rx="1" ry="1" style="stroke:#181818;stroke-width:0.20000000000000004;" width="44.4" x="572.4" y="613.1875"/><text fill="#000000" font-family="sans-serif" font-size="5.6" lengthAdjust="spacing" textLength="38.8" x="575.2" y="621.8008">emp: Employee</text><rect fill="#E2E2F0" height="19.6875" rx="1" ry="1" style="stroke:#181818;stroke-width:0.20000000000000004;" width="38" x="620.8" y="12.9563"/><text fill="#000000" font-family="sans-serif" font-size="5.6" lengthAdjust="spacing" textLength="11.2" x="634.2" y="21.5695">auth</text><text fill="#000000" font-family="sans-serif" font-size="5.6" lengthAdjust="spacing" textLength="32.4" x="623.6" y="28.6133">:AuthFacade</text><rect fill="#E2E2F0" height="19.6875" rx="1" ry="1" style="stroke:#181818;stroke-width:0.20000000000000004;" width="38" x="620.8" y="613.1875"/><text fill="#000000" font-family="sans-serif" font-size="5.6" lengthAdjust="spacing" textLength="11.2" x="634.2" y="621.8008">auth</text><text fill="#000000" font-family="sans-serif" font-size="5.6" lengthAdjust="spacing" textLength="32.4" x="623.6" y="628.8445">:AuthFacade</text><rect fill="#E2E2F0" height="12.6438" rx="1" ry="1" style="stroke:#181818;stroke-width:0.20000000000000004;" width="44" x="672.6" y="20"/><text fill="#000000" font-family="sans-serif" font-size="5.6" lengthAdjust="spacing" textLength="38.4" x="675.4" y="28.6133">:UserRoleStore</text><rect fill="#E2E2F0" height="12.6438" rx="1" ry="1" style="stroke:#181818;stroke-width:0.20000000000000004;" width="44" x="672.6" y="613.1875"/><text fill="#000000" font-family="sans-serif" font-size="5.6" lengthAdjust="spacing" textLength="38.4" x="675.4" y="621.8008">:UserRoleStore</text><rect fill="#E2E2F0" height="12.6438" rx="1" ry="1" style="stroke:#181818;stroke-width:0.20000000000000004;" width="49.6" x="720.6" y="20"/><text fill="#000000" font-family="sans-serif" font-size="5.6" lengthAdjust="spacing" textLength="44" x="723.4" y="28.6133">:UserRoleMapper</text><rect fill="#E2E2F0" height="12.6438" rx="1" ry="1" style="stroke:#181818;stroke-width:0.20000000000000004;" width="49.6" x="720.6" y="613.1875"/><text fill="#000000" font-family="sans-serif" font-size="5.6" lengthAdjust="spacing" textLength="44" x="723.4" y="621.8008">:UserRoleMapper</text><rect fill="#E2E2F0" height="19.6875" rx="1" ry="1" style="stroke:#181818;stroke-width:0.20000000000000004;" width="45.6" x="774.2" y="12.9563"/><text fill="#000000" font-family="sans-serif" font-size="5.6" lengthAdjust="spacing" textLength="15.6" x="789.2" y="21.5695">lRoles</text><text fill="#000000" font-family="sans-serif" font-size="5.6" lengthAdjust="spacing" textLength="38.4" x="778.6" y="28.6133">List&lt;UserRole&gt;</text><rect fill="#E2E2F0" height="19.6875" rx="1" ry="1" style="stroke:#181818;stroke-width:0.20000000000000004;" width="45.6" x="774.2" y="613.1875"/><text fill="#000000" font-family="sans-serif" font-size="5.6" lengthAdjust="spacing" textLength="15.6" x="789.2" y="621.8008">lRoles</text><text fill="#000000" font-family="sans-serif" font-size="5.6" lengthAdjust="spacing" textLength="38.4" x="778.6" y="628.8445">List&lt;UserRole&gt;</text><rect fill="#E2E2F0" height="19.6875" rx="1" ry="1" style="stroke:#181818;stroke-width:0.20000000000000004;" width="59.2" x="823.8" y="12.9563"/><text fill="#000000" font-family="sans-serif" font-size="5.6" lengthAdjust="spacing" textLength="27.6" x="839.6" y="21.5695">lRolesDTO</text><text fill="#000000" font-family="sans-serif" font-size="5.6" lengthAdjust="spacing" textLength="53.6" x="826.6" y="28.6133">: List&lt;UserRoleDTO&gt;</text><rect fill="#E2E2F0" height="19.6875" rx="1" ry="1" style="stroke:#181818;stroke-width:0.20000000000000004;" width="59.2" x="823.8" y="613.1875"/><text fill="#000000" font-family="sans-serif" font-size="5.6" lengthAdjust="spacing" textLength="27.6" x="839.6" y="621.8008">lRolesDTO</text><text fill="#000000" font-family="sans-serif" font-size="5.6" lengthAdjust="spacing" textLength="53.6" x="826.6" y="628.8445">: List&lt;UserRoleDTO&gt;</text><rect fill="#E2E2F0" height="19.6875" rx="1" ry="1" style="stroke:#181818;stroke-width:0.20000000000000004;" width="46.8" x="887" y="12.9563"/><text fill="#000000" font-family="sans-serif" font-size="5.6" lengthAdjust="spacing" textLength="17.2" x="901.8" y="21.5695">sRoles</text><text fill="#000000" font-family="sans-serif" font-size="5.6" lengthAdjust="spacing" textLength="41.2" x="889.8" y="28.6133">: Set&lt;UserRole&gt;</text><rect fill="#E2E2F0" height="19.6875" rx="1" ry="1" style="stroke:#181818;stroke-width:0.20000000000000004;" width="46.8" x="887" y="613.1875"/><text fill="#000000" font-family="sans-serif" font-size="5.6" lengthAdjust="spacing" textLength="17.2" x="901.8" y="621.8008">sRoles</text><text fill="#000000" font-family="sans-serif" font-size="5.6" lengthAdjust="spacing" textLength="41.2" x="889.8" y="628.8445">: Set&lt;UserRole&gt;</text><rect fill="#FFFFFF" height="569.3438" style="stroke:#181818;stroke-width:0.4000000000000001;" width="4" x="17.8" y="37.0438"/><rect fill="#FFFFFF" height="181.4063" style="stroke:#181818;stroke-width:0.4000000000000001;" width="4" x="141.8" y="45.9844"/><rect fill="#FFFFFF" height="18.6813" style="stroke:#181818;stroke-width:0.4000000000000001;" width="4" x="141.8" y="239.5313"/><rect fill="#FFFFFF" height="180.3688" style="stroke:#181818;stroke-width:0.4000000000000001;" width="4" x="141.8" y="270.3531"/><rect fill="#FFFFFF" height="143.525" style="stroke:#181818;stroke-width:0.4000000000000001;" width="4" x="141.8" y="462.8625"/><rect fill="#FFFFFF" height="157.125" style="stroke:#181818;stroke-width:0.4000000000000001;" width="4" x="271" y="58.125"/><rect fill="#FFFFFF" height="149.5469" style="stroke:#181818;stroke-width:0.4000000000000001;" width="4" x="271" y="289.0344"/><rect fill="#FFFFFF" height="116.4438" style="stroke:#181818;stroke-width:0.4000000000000001;" width="4" x="271" y="475.0031"/><rect fill="#FFFFFF" height="12" style="stroke:#181818;stroke-width:0.4000000000000001;" width="4" x="331.8" y="70.2656"/><rect fill="#FFFFFF" height="12" style="stroke:#181818;stroke-width:0.4000000000000001;" width="4" x="369.8" y="94.4063"/><rect fill="#FFFFFF" height="12" style="stroke:#181818;stroke-width:0.4000000000000001;" width="4" x="369.8" y="118.5469"/><rect fill="#FFFFFF" height="12.1406" style="stroke:#181818;stroke-width:0.4000000000000001;" width="4" x="413.6" y="142.6875"/><rect fill="#FFFFFF" height="12" style="stroke:#181818;stroke-width:0.4000000000000001;" width="4" x="413.6" y="301.175"/><rect fill="#FFFFFF" height="106.725" style="stroke:#181818;stroke-width:0.4000000000000001;" width="4" x="462.8" y="331.8563"/><rect fill="#FFFFFF" height="104.3031" style="stroke:#181818;stroke-width:0.4000000000000001;" width="4" x="462.8" y="487.1438"/><rect fill="#FFFFFF" height="11.2" style="stroke:#181818;stroke-width:0.4000000000000001;" width="4" x="464.8" y="526.7656"/><rect fill="#FFFFFF" height="11.2" style="stroke:#181818;stroke-width:0.4000000000000001;" width="4" x="464.8" y="580.2469"/><rect fill="#FFFFFF" height="12" style="stroke:#181818;stroke-width:0.4000000000000001;" width="4" x="592.6" y="402.4406"/><rect fill="#FFFFFF" height="12.1406" style="stroke:#181818;stroke-width:0.4000000000000001;" width="4" x="592.6" y="499.2844"/><rect fill="#FFFFFF" height="48.2813" style="stroke:#181818;stroke-width:0.4000000000000001;" width="4" x="637.8" y="166.9688"/><rect fill="#FFFFFF" height="12" style="stroke:#181818;stroke-width:0.4000000000000001;" width="4" x="637.8" y="426.5813"/><rect fill="#FFFFFF" height="12" style="stroke:#181818;stroke-width:0.4000000000000001;" width="4" x="637.8" y="552.9063"/><rect fill="#FFFFFF" height="12" style="stroke:#181818;stroke-width:0.4000000000000001;" width="4" x="692.6" y="179.1094"/><rect fill="#FFFFFF" height="12" style="stroke:#181818;stroke-width:0.4000000000000001;" width="4" x="743.4" y="203.25"/><polygon fill="#181818" points="137,44.3844,141,45.9844,137,47.5844,138.6,45.9844" style="stroke:#181818;stroke-width:0.4000000000000001;"/><line style="stroke:#181818;stroke-width:0.4000000000000001;" x1="21.8" x2="139.4" y1="45.9844" y2="45.9844"/><text fill="#000000" font-family="sans-serif" font-size="5.2" font-weight="bold" lengthAdjust="spacing" textLength="2.8" x="24.6" y="44.0418">1</text><text fill="#000000" font-family="sans-serif" font-size="5.2" lengthAdjust="spacing" textLength="78" x="29" y="44.0418">starts registering a new employee</text><polygon fill="#181818" points="266.2,56.525,270.2,58.125,266.2,59.725,267.8,58.125" style="stroke:#181818;stroke-width:0.4000000000000001;"/><line style="stroke:#181818;stroke-width:0.4000000000000001;" x1="145.8" x2="268.6" y1="58.125" y2="58.125"/><text fill="#000000" font-family="sans-serif" font-size="5.2" font-weight="bold" lengthAdjust="spacing" textLength="2.8" x="148.6" y="56.1824">2</text><text fill="#000000" font-family="sans-serif" font-size="5.2" lengthAdjust="spacing" textLength="32.8" x="153" y="56.1824">rl = getRoles()</text><polygon fill="#181818" points="327,68.6656,331,70.2656,327,71.8656,328.6,70.2656" style="stroke:#181818;stroke-width:0.4000000000000001;"/><line style="stroke:#181818;stroke-width:0.4000000000000001;" x1="275" x2="329.4" y1="70.2656" y2="70.2656"/><text fill="#000000" font-family="sans-serif" font-size="5.2" font-weight="bold" lengthAdjust="spacing" textLength="2.8" x="277.8" y="68.323">3</text><text fill="#000000" font-family="sans-serif" font-size="5.2" lengthAdjust="spacing" textLength="44.8" x="282.2" y="68.323">app = getInstance()</text><polygon fill="#181818" points="365,92.8063,369,94.4063,365,96.0063,366.6,94.4063" style="stroke:#181818;stroke-width:0.4000000000000001;"/><line style="stroke:#181818;stroke-width:0.4000000000000001;" x1="275" x2="367.4" y1="94.4063" y2="94.4063"/><text fill="#000000" font-family="sans-serif" font-size="5.2" font-weight="bold" lengthAdjust="spacing" textLength="2.8" x="277.8" y="92.4637">4</text><text fill="#000000" font-family="sans-serif" font-size="5.2" lengthAdjust="spacing" textLength="70.4" x="282.2" y="92.4637">session = getCurrentSession()</text><polygon fill="#181818" points="365,116.9469,369,118.5469,365,120.1469,366.6,118.5469" style="stroke:#181818;stroke-width:0.4000000000000001;"/><line style="stroke:#181818;stroke-width:0.4000000000000001;" x1="275" x2="367.4" y1="118.5469" y2="118.5469"/><text fill="#000000" font-family="sans-serif" font-size="5.2" font-weight="bold" lengthAdjust="spacing" textLength="2.8" x="277.8" y="116.6043">5</text><text fill="#000000" font-family="sans-serif" font-size="5.2" lengthAdjust="spacing" textLength="51.6" x="282.2" y="116.6043">comp = getCompany()</text><polygon fill="#181818" points="408.8,141.0875,412.8,142.6875,408.8,144.2875,410.4,142.6875" style="stroke:#181818;stroke-width:0.4000000000000001;"/><line style="stroke:#181818;stroke-width:0.4000000000000001;" x1="275" x2="411.2" y1="142.6875" y2="142.6875"/><text fill="#000000" font-family="sans-serif" font-size="5.2" font-weight="bold" lengthAdjust="spacing" textLength="2.8" x="277.8" y="140.7449">6</text><text fill="#000000" font-family="sans-serif" font-size="5.2" lengthAdjust="spacing" textLength="44.4" x="282.2" y="140.7449">plat = getPlatform()</text><polygon fill="#181818" points="410.8,153.2281,414.8,154.8281,410.8,156.4281,412.4,154.8281" style="stroke:#181818;stroke-width:0.4000000000000001;"/><line style="stroke:#181818;stroke-width:0.4000000000000001;" x1="275" x2="413.2" y1="154.8281" y2="154.8281"/><text fill="#000000" font-family="sans-serif" font-size="5.2" font-weight="bold" lengthAdjust="spacing" textLength="2.8" x="277.8" y="152.8855">7</text><text fill="#000000" font-family="sans-serif" font-size="5.2" lengthAdjust="spacing" textLength="54.8" x="282.2" y="152.8855">auth = getAuthFacade()</text><polygon fill="#181818" points="633,165.3688,637,166.9688,633,168.5688,634.6,166.9688" style="stroke:#181818;stroke-width:0.4000000000000001;"/><line style="stroke:#181818;stroke-width:0.4000000000000001;" x1="275" x2="635.4" y1="166.9688" y2="166.9688"/><text fill="#000000" font-family="sans-serif" font-size="5.2" font-weight="bold" lengthAdjust="spacing" textLength="2.8" x="277.8" y="165.0262">8</text><text fill="#000000" font-family="sans-serif" font-size="5.2" lengthAdjust="spacing" textLength="65.6" x="282.2" y="165.0262">lRolesDTO = getUserRoles()</text><polygon fill="#181818" points="687.8,177.5094,691.8,179.1094,687.8,180.7094,689.4,179.1094" style="stroke:#181818;stroke-width:0.4000000000000001;"/><line style="stroke:#181818;stroke-width:0.4000000000000001;" x1="641.8" x2="690.2" y1="179.1094" y2="179.1094"/><text fill="#000000" font-family="sans-serif" font-size="5.2" font-weight="bold" lengthAdjust="spacing" textLength="2.8" x="644.6" y="177.1668">9</text><text fill="#000000" font-family="sans-serif" font-size="5.2" lengthAdjust="spacing" textLength="38.8" x="649" y="177.1668">sRoles = getAll()</text><polygon fill="#181818" points="738.6,201.65,742.6,203.25,738.6,204.85,740.2,203.25" style="stroke:#181818;stroke-width:0.4000000000000001;"/><line style="stroke:#181818;stroke-width:0.4000000000000001;" x1="641.8" x2="741" y1="203.25" y2="203.25"/><text fill="#000000" font-family="sans-serif" font-size="5.2" font-weight="bold" lengthAdjust="spacing" textLength="5.6" x="644.6" y="201.3074">10</text><text fill="#000000" font-family="sans-serif" font-size="5.2" lengthAdjust="spacing" textLength="34" x="651.8" y="201.3074">toDTO(sRoles)</text><polygon fill="#181818" points="26.2,225.7906,22.2,227.3906,26.2,228.9906,24.6,227.3906" style="stroke:#181818;stroke-width:0.4000000000000001;"/><line style="stroke:#181818;stroke-width:0.4000000000000001;stroke-dasharray:2.0,2.0;" x1="23.8" x2="143.4" y1="227.3906" y2="227.3906"/><text fill="#000000" font-family="sans-serif" font-size="5.2" font-weight="bold" lengthAdjust="spacing" textLength="5.6" x="28.6" y="225.448">11</text><text fill="#000000" font-family="sans-serif" font-size="5.2" lengthAdjust="spacing" textLength="72.8" x="35.8" y="225.448">ask to select the employee role</text><polygon fill="#181818" points="137,237.9313,141,239.5313,137,241.1313,138.6,239.5313" style="stroke:#181818;stroke-width:0.4000000000000001;"/><line style="stroke:#181818;stroke-width:0.4000000000000001;" x1="21.8" x2="139.4" y1="239.5313" y2="239.5313"/><text fill="#000000" font-family="sans-serif" font-size="5.2" font-weight="bold" lengthAdjust="spacing" textLength="5.6" x="24.6" y="237.5887">12</text><text fill="#000000" font-family="sans-serif" font-size="5.2" lengthAdjust="spacing" textLength="56.8" x="31.8" y="237.5887">selects the intended role</text><polygon fill="#181818" points="26.2,256.6125,22.2,258.2125,26.2,259.8125,24.6,258.2125" style="stroke:#181818;stroke-width:0.4000000000000001;"/><line style="stroke:#181818;stroke-width:0.4000000000000001;stroke-dasharray:2.0,2.0;" x1="23.8" x2="143.4" y1="258.2125" y2="258.2125"/><text fill="#000000" font-family="sans-serif" font-size="5.2" font-weight="bold" lengthAdjust="spacing" textLength="5.6" x="28.6" y="252.9996">13</text><text fill="#000000" font-family="sans-serif" font-size="5.2" lengthAdjust="spacing" textLength="103.2" x="35.8" y="249.7293">request data (name, phoneNumber, address,</text><text fill="#000000" font-family="sans-serif" font-size="5.2" lengthAdjust="spacing" textLength="80.4" x="37.4" y="256.2699">emailAddress, citizenCardNumber)</text><polygon fill="#181818" points="137,268.7531,141,270.3531,137,271.9531,138.6,270.3531" style="stroke:#181818;stroke-width:0.4000000000000001;"/><line style="stroke:#181818;stroke-width:0.4000000000000001;" x1="21.8" x2="139.4" y1="270.3531" y2="270.3531"/><text fill="#000000" font-family="sans-serif" font-size="5.2" font-weight="bold" lengthAdjust="spacing" textLength="5.6" x="24.6" y="268.4105">14</text><text fill="#000000" font-family="sans-serif" font-size="5.2" lengthAdjust="spacing" textLength="48.8" x="31.8" y="268.4105">types requested data</text><polygon fill="#181818" points="266.2,287.4344,270.2,289.0344,266.2,290.6344,267.8,289.0344" style="stroke:#181818;stroke-width:0.4000000000000001;"/><line style="stroke:#181818;stroke-width:0.4000000000000001;" x1="145.8" x2="268.6" y1="289.0344" y2="289.0344"/><text fill="#000000" font-family="sans-serif" font-size="5.2" font-weight="bold" lengthAdjust="spacing" textLength="5.6" x="148.6" y="283.8215">15</text><text fill="#000000" font-family="sans-serif" font-size="5.2" lengthAdjust="spacing" textLength="110.4" x="155.8" y="280.5512">createEmployee(name, phoneNumber, address,</text><text fill="#000000" font-family="sans-serif" font-size="5.2" lengthAdjust="spacing" textLength="92" x="157.4" y="287.0918">emailAddress, citizenCardNumber, role)</text><polygon fill="#181818" points="408.8,299.575,412.8,301.175,408.8,302.775,410.4,301.175" style="stroke:#181818;stroke-width:0.4000000000000001;"/><line style="stroke:#181818;stroke-width:0.4000000000000001;" x1="275" x2="411.2" y1="301.175" y2="301.175"/><text fill="#000000" font-family="sans-serif" font-size="5.2" font-weight="bold" lengthAdjust="spacing" textLength="5.6" x="277.8" y="299.2324">16</text><text fill="#000000" font-family="sans-serif" font-size="5.2" lengthAdjust="spacing" textLength="66.4" x="285" y="299.2324">gre = getRegisterEmployee()</text><polygon fill="#181818" points="458,330.2563,462,331.8563,458,333.4563,459.6,331.8563" style="stroke:#181818;stroke-width:0.4000000000000001;"/><line style="stroke:#181818;stroke-width:0.4000000000000001;" x1="275" x2="460.4" y1="331.8563" y2="331.8563"/><text fill="#000000" font-family="sans-serif" font-size="5.2" font-weight="bold" lengthAdjust="spacing" textLength="5.6" x="277.8" y="326.6434">17</text><text fill="#000000" font-family="sans-serif" font-size="5.2" lengthAdjust="spacing" textLength="126.8" x="285" y="323.373">emp = createEmployee(name, phoneNumber, address,</text><text fill="#000000" font-family="sans-serif" font-size="5.2" lengthAdjust="spacing" textLength="92" x="285" y="329.9137">emailAddress, citizenCardNumber, role)</text><polygon fill="#181818" points="567.6,348.9375,571.6,350.5375,567.6,352.1375,569.2,350.5375" style="stroke:#181818;stroke-width:0.4000000000000001;"/><line style="stroke:#181818;stroke-width:0.4000000000000001;stroke-dasharray:2.0,2.0;" x1="466.8" x2="570" y1="350.5375" y2="350.5375"/><text fill="#000000" font-family="sans-serif" font-size="5.2" font-weight="bold" lengthAdjust="spacing" textLength="5.6" x="469.6" y="345.3246">18</text><text fill="#000000" font-family="sans-serif" font-size="5.2" lengthAdjust="spacing" textLength="87.2" x="476.8" y="342.0543">create(name, phoneNumber, address,</text><text fill="#000000" font-family="sans-serif" font-size="5.2" lengthAdjust="spacing" textLength="80.4" x="476.8" y="348.5949">emailAddress, citizenCardNumber)</text><rect fill="#E2E2F0" height="12.6438" rx="1" ry="1" style="stroke:#181818;stroke-width:0.20000000000000004;" width="44.4" x="572.4" y="336.6938"/><text fill="#000000" font-family="sans-serif" font-size="5.6" lengthAdjust="spacing" textLength="38.8" x="575.2" y="345.307">emp: Employee</text><path d="M534.4,355.7375 L534.4,379.3375 L654.4,379.3375 L654.4,359.7375 L650.4,355.7375 L534.4,355.7375 " fill="#FEFFDD" style="stroke:#181818;stroke-width:0.20000000000000004;"/><path d="M650.4,355.7375 L650.4,359.7375 L654.4,359.7375 L650.4,355.7375 " fill="#FEFFDD" style="stroke:#181818;stroke-width:0.20000000000000004;"/><text fill="#000000" font-family="sans-serif" font-size="5.2" font-weight="bold" lengthAdjust="spacing" textLength="11.2" x="536.8" y="363.1355">emp</text><text fill="#000000" font-family="sans-serif" font-size="5.2" lengthAdjust="spacing" textLength="97.2" x="549.6" y="363.1355">might be an instance of CenterCoordinator</text><text fill="#000000" font-family="sans-serif" font-size="5.2" lengthAdjust="spacing" textLength="109.2" x="536.8" y="369.6762">or Nurse or Receptionist. It depends of the type</text><text fill="#000000" font-family="sans-serif" font-size="5.2" lengthAdjust="spacing" textLength="83.2" x="536.8" y="376.2168">of Employee receiving this message</text><polygon fill="#181818" points="458,388.7,462,390.3,458,391.9,459.6,390.3" style="stroke:#181818;stroke-width:0.4000000000000001;"/><line style="stroke:#181818;stroke-width:0.4000000000000001;" x1="275" x2="460.4" y1="390.3" y2="390.3"/><text fill="#000000" font-family="sans-serif" font-size="5.2" font-weight="bold" lengthAdjust="spacing" textLength="5.6" x="277.8" y="388.3574">19</text><text fill="#000000" font-family="sans-serif" font-size="5.2" lengthAdjust="spacing" textLength="53.6" x="285" y="388.3574">validateEmployee(emp)</text><polygon fill="#181818" points="587.8,400.8406,591.8,402.4406,587.8,404.0406,589.4,402.4406" style="stroke:#181818;stroke-width:0.4000000000000001;"/><line style="stroke:#181818;stroke-width:0.4000000000000001;" x1="466.8" x2="590.2" y1="402.4406" y2="402.4406"/><text fill="#000000" font-family="sans-serif" font-size="5.2" font-weight="bold" lengthAdjust="spacing" textLength="5.6" x="469.6" y="400.498">20</text><text fill="#000000" font-family="sans-serif" font-size="5.2" lengthAdjust="spacing" textLength="61.6" x="476.8" y="400.498">email = getEmailAddress()</text><polygon fill="#181818" points="633,424.9813,637,426.5813,633,428.1813,634.6,426.5813" style="stroke:#181818;stroke-width:0.4000000000000001;"/><line style="stroke:#181818;stroke-width:0.4000000000000001;" x1="466.8" x2="635.4" y1="426.5813" y2="426.5813"/><text fill="#000000" font-family="sans-serif" font-size="5.2" font-weight="bold" lengthAdjust="spacing" textLength="5.6" x="469.6" y="424.6387">21</text><text fill="#000000" font-family="sans-serif" font-size="5.2" lengthAdjust="spacing" textLength="52.4" x="476.8" y="424.6387">eu = existsUser(email)</text><polygon fill="#181818" points="26.2,449.1219,22.2,450.7219,26.2,452.3219,24.6,450.7219" style="stroke:#181818;stroke-width:0.4000000000000001;"/><line style="stroke:#181818;stroke-width:0.4000000000000001;stroke-dasharray:2.0,2.0;" x1="23.8" x2="143.4" y1="450.7219" y2="450.7219"/><text fill="#000000" font-family="sans-serif" font-size="5.2" font-weight="bold" lengthAdjust="spacing" textLength="5.6" x="28.6" y="448.7793">22</text><text fill="#000000" font-family="sans-serif" font-size="5.2" lengthAdjust="spacing" textLength="100.8" x="35.8" y="448.7793">shows the data and requests a confirmation</text><polygon fill="#181818" points="137,461.2625,141,462.8625,137,464.4625,138.6,462.8625" style="stroke:#181818;stroke-width:0.4000000000000001;"/><line style="stroke:#181818;stroke-width:0.4000000000000001;" x1="21.8" x2="139.4" y1="462.8625" y2="462.8625"/><text fill="#000000" font-family="sans-serif" font-size="5.2" font-weight="bold" lengthAdjust="spacing" textLength="5.6" x="24.6" y="460.9199">23</text><text fill="#000000" font-family="sans-serif" font-size="5.2" lengthAdjust="spacing" textLength="40" x="31.8" y="460.9199">confirms the data</text><polygon fill="#181818" points="266.2,473.4031,270.2,475.0031,266.2,476.6031,267.8,475.0031" style="stroke:#181818;stroke-width:0.4000000000000001;"/><line style="stroke:#181818;stroke-width:0.4000000000000001;" x1="145.8" x2="268.6" y1="475.0031" y2="475.0031"/><text fill="#000000" font-family="sans-serif" font-size="5.2" font-weight="bold" lengthAdjust="spacing" textLength="5.6" x="148.6" y="473.0605">24</text><text fill="#000000" font-family="sans-serif" font-size="5.2" lengthAdjust="spacing" textLength="43.6" x="155.8" y="473.0605">registerEmployee()</text><polygon fill="#181818" points="458,485.5438,462,487.1438,458,488.7438,459.6,487.1438" style="stroke:#181818;stroke-width:0.4000000000000001;"/><line style="stroke:#181818;stroke-width:0.4000000000000001;" x1="275" x2="460.4" y1="487.1438" y2="487.1438"/><text fill="#000000" font-family="sans-serif" font-size="5.2" font-weight="bold" lengthAdjust="spacing" textLength="5.6" x="277.8" y="485.2012">25</text><text fill="#000000" font-family="sans-serif" font-size="5.2" lengthAdjust="spacing" textLength="53.6" x="285" y="485.2012">registerEmployee(emp)</text><polygon fill="#181818" points="587.8,497.6844,591.8,499.2844,587.8,500.8844,589.4,499.2844" style="stroke:#181818;stroke-width:0.4000000000000001;"/><line style="stroke:#181818;stroke-width:0.4000000000000001;" x1="466.8" x2="590.2" y1="499.2844" y2="499.2844"/><text fill="#000000" font-family="sans-serif" font-size="5.2" font-weight="bold" lengthAdjust="spacing" textLength="5.6" x="469.6" y="497.3418">26</text><text fill="#000000" font-family="sans-serif" font-size="5.2" lengthAdjust="spacing" textLength="61.6" x="476.8" y="497.3418">email = getEmailAddress()</text><polygon fill="#181818" points="589.8,509.825,593.8,511.425,589.8,513.025,591.4,511.425" style="stroke:#181818;stroke-width:0.4000000000000001;"/><line style="stroke:#181818;stroke-width:0.4000000000000001;" x1="466.8" x2="592.2" y1="511.425" y2="511.425"/><text fill="#000000" font-family="sans-serif" font-size="5.2" font-weight="bold" lengthAdjust="spacing" textLength="5.6" x="469.6" y="509.4824">27</text><text fill="#000000" font-family="sans-serif" font-size="5.2" lengthAdjust="spacing" textLength="43.2" x="476.8" y="509.4824">name = getName()</text><line style="stroke:#181818;stroke-width:0.4000000000000001;" x1="468.8" x2="485.6" y1="523.5656" y2="523.5656"/><line style="stroke:#181818;stroke-width:0.4000000000000001;" x1="485.6" x2="485.6" y1="523.5656" y2="528.7656"/><line style="stroke:#181818;stroke-width:0.4000000000000001;" x1="469.2" x2="485.6" y1="528.7656" y2="528.7656"/><polygon fill="#181818" points="473.2,527.1656,469.2,528.7656,473.2,530.3656,471.6,528.7656" style="stroke:#181818;stroke-width:0.4000000000000001;"/><text fill="#000000" font-family="sans-serif" font-size="5.2" font-weight="bold" lengthAdjust="spacing" textLength="5.6" x="471.6" y="521.623">28</text><text fill="#000000" font-family="sans-serif" font-size="5.2" lengthAdjust="spacing" textLength="90.4" x="478.8" y="521.623">pwd = passwordGenerator(name,email)</text><polygon fill="#181818" points="633,551.3063,637,552.9063,633,554.5063,634.6,552.9063" style="stroke:#181818;stroke-width:0.4000000000000001;"/><line style="stroke:#181818;stroke-width:0.4000000000000001;" x1="466.8" x2="635.4" y1="552.9063" y2="552.9063"/><text fill="#000000" font-family="sans-serif" font-size="5.2" font-weight="bold" lengthAdjust="spacing" textLength="5.6" x="469.6" y="550.9637">29</text><text fill="#000000" font-family="sans-serif" font-size="5.2" lengthAdjust="spacing" textLength="113.6" x="476.8" y="550.9637">addu = addUserWithRole(name, email, pwd, role)</text><line style="stroke:#181818;stroke-width:0.4000000000000001;" x1="468.8" x2="485.6" y1="577.0469" y2="577.0469"/><line style="stroke:#181818;stroke-width:0.4000000000000001;" x1="485.6" x2="485.6" y1="577.0469" y2="582.2469"/><line style="stroke:#181818;stroke-width:0.4000000000000001;" x1="469.2" x2="485.6" y1="582.2469" y2="582.2469"/><polygon fill="#181818" points="473.2,580.6469,469.2,582.2469,473.2,583.8469,471.6,582.2469" style="stroke:#181818;stroke-width:0.4000000000000001;"/><text fill="#000000" font-family="sans-serif" font-size="5.2" font-weight="bold" lengthAdjust="spacing" textLength="5.6" x="471.6" y="575.1043">30</text><text fill="#000000" font-family="sans-serif" font-size="5.2" lengthAdjust="spacing" textLength="44.8" x="478.8" y="575.1043">addEmployee(emp)</text><polygon fill="#181818" points="24.2,604.7875,20.2,606.3875,24.2,607.9875,22.6,606.3875" style="stroke:#181818;stroke-width:0.4000000000000001;"/><line style="stroke:#181818;stroke-width:0.4000000000000001;stroke-dasharray:2.0,2.0;" x1="21.8" x2="143.4" y1="606.3875" y2="606.3875"/><text fill="#000000" font-family="sans-serif" font-size="5.2" font-weight="bold" lengthAdjust="spacing" textLength="5.6" x="26.6" y="604.4449">31</text><text fill="#000000" font-family="sans-serif" font-size="5.2" lengthAdjust="spacing" textLength="60.8" x="33.8" y="604.4449">informs operation success</text><!--MD5=[798c487386d0e41359029e2e5dc8df69]
@startuml
autonumber
actor "Administrator" as ADM


participant ":RegisterEmployeeUI" as UI
participant ":RegisterEmployeeController" as CTRL
participant "Application" as APP
participant "app\n:Application" as App
participant "comp:Company" as COMP
participant "emps\n:EmployeeStore" as EMPS
participant "emp: Employee" as EMP
participant "auth\n:AuthFacade" as AF
participant ":UserRoleStore" as URS
participant ":UserRoleMapper" as URM
participant "lRoles\n List<UserRole>" as LR
participant "lRolesDTO\n: List<UserRoleDTO>" as lRDTO
participant "sRoles\n: Set<UserRole>" as SR



activate ADM

ADM -> UI : starts registering a new employee
activate UI

UI -> CTRL : rl = getRoles()
activate CTRL

CTRL -> APP : app = getInstance()
activate APP
deactivate APP

CTRL -> App: session = getCurrentSession()
activate App
deactivate App

CTRL -> App : comp = getCompany()
activate App
deactivate App


CTRL -> COMP : plat = getPlatform()
activate COMP

CTRL -> COMP: auth = getAuthFacade()
deactivate COMP

CTRL -> AF : lRolesDTO = getUserRoles()
activate AF

AF -> URS : sRoles = getAll()
activate URS
deactivate URS

AF -> URM :  toDTO(sRoles)
activate URM

deactivate URM
deactivate AF
deactivate CTRL

UI - -> ADM : ask to select the employee role
deactivate UI



ADM -> UI : selects the intended role
activate UI

UI - -> ADM : request data (name, phoneNumber, address,\n emailAddress, citizenCardNumber)
deactivate UI




ADM -> UI : types requested data
activate UI

UI -> CTRL :createEmployee(name, phoneNumber, address,\n emailAddress, citizenCardNumber, role)
activate CTRL

CTRL -> COMP : gre = getRegisterEmployee()
activate COMP
deactivate COMP

CTRL -> EMPS : emp = createEmployee(name, phoneNumber, address,\nemailAddress, citizenCardNumber, role)
activate EMPS

EMPS - -> EMP** : create(name, phoneNumber, address, \nemailAddress, citizenCardNumber)

note over EMP : **emp** might be an instance of CenterCoordinator \nor Nurse or Receptionist. It depends of the type \nof Employee receiving this message


CTRL -> EMPS : validateEmployee(emp)

EMPS -> EMP : email = getEmailAddress()
activate EMP
deactivate EMP

EMPS -> AF : eu = existsUser(email)
activate AF
deactivate AF
deactivate CTRL
deactivate EMPS

UI - -> ADM : shows the data and requests a confirmation
deactivate UI



ADM -> UI : confirms the data
activate UI

UI -> CTRL : registerEmployee()
activate CTRL

CTRL -> EMPS: registerEmployee(emp)
activate EMPS

EMPS -> EMP : email = getEmailAddress()
activate EMP

EMPS -> EMP : name = getName()

deactivate EMP

EMPS -> EMPS : pwd = passwordGenerator(name,email)
activate EMPS
deactivate EMPS

EMPS -> AF : addu = addUserWithRole(name, email, pwd, role)
activate AF
deactivate AF

EMPS -> EMPS : addEmployee(emp)
activate EMPS
deactivate EMPS
deactivate EMPS
deactivate CTRL

UI - -> ADM : informs operation success
deactivate UI


deactivate ADM

@enduml

PlantUML version 1.2022.4(Sat Apr 09 14:29:17 BST 2022)
(GPL source distribution)
Java Runtime: OpenJDK Runtime Environment
JVM: OpenJDK 64-Bit Server VM
Default Encoding: Cp1252
Language: en
Country: GB
--></g></svg>