<?xml version="1.0" encoding="UTF-8" standalone="no"?><svg xmlns="http://www.w3.org/2000/svg" xmlns:xlink="http://www.w3.org/1999/xlink" contentStyleType="text/css" height="569.1px" preserveAspectRatio="none" style="width:603px;height:569px;background:#FFFFFF;" version="1.1" viewBox="0 0 603 569" width="603.4px" zoomAndPan="magnify"><defs/><g><!--MD5=[0b4e4b4980470ea387cc45de9bd14b5b]
class Application--><g id="elem_Application"><rect codeLine="3" fill="#F1F1F1" height="70.5797" id="Application" rx="1.75" ry="1.75" style="stroke:#181818;stroke-width:0.3499999999999999;" width="103.6" x="287.35" y="206.5"/><ellipse cx="312.655" cy="217.7" fill="#ADD1B2" rx="7.7" ry="7.7" style="stroke:#181818;stroke-width:0.6999999999999998;"/><path d="M314.055,215.25 Q314.1972,214.9 314.3612,214.725 Q314.5253,214.55 314.7112,214.55 Q315.0394,214.55 315.2472,214.7469 Q315.455,214.9437 315.455,215.4031 L315.455,216.4969 Q315.455,216.9562 315.2581,217.1531 Q315.0612,217.35 314.755,217.35 Q314.4816,217.35 314.3066,217.2297 Q314.1316,217.1094 314.055,216.7922 Q314.0222,216.5734 313.9019,216.4531 Q313.6831,216.2234 313.2894,216.0922 Q312.8956,215.95 312.5019,215.95 Q312.0097,215.95 311.5941,216.1469 Q311.1894,216.3437 310.8722,216.7812 Q310.555,217.2187 310.555,217.8203 L310.555,218.4656 Q310.555,219.1875 311.1456,219.6687 Q311.7362,220.15 312.7862,220.15 Q313.4097,220.15 313.8472,220.0078 Q314.0987,219.9312 314.3831,219.6797 Q314.5691,219.5375 314.6675,219.4937 Q314.7659,219.45 314.8862,219.45 Q315.1159,219.45 315.28,219.6359 Q315.455,219.8109 315.455,220.0625 Q315.455,220.3031 315.2144,220.5875 Q314.8644,221.0031 314.3066,221.2328 Q313.5737,221.55 312.6769,221.55 Q311.6269,221.55 310.7847,221.1344 Q310.1066,220.8062 309.6253,220.0953 Q309.155,219.3844 309.155,218.5422 L309.155,217.7766 Q309.155,216.9016 309.5706,216.1359 Q309.9972,215.3703 310.73,214.9656 Q311.4737,214.55 312.305,214.55 Q312.8081,214.55 313.2456,214.725 Q313.6831,214.9 314.055,215.25 Z " fill="#000000"/><text fill="#000000" font-family="sans-serif" font-size="9.8" lengthAdjust="spacing" textLength="48.3" x="325.745" y="221.71">Application</text><line style="stroke:#181818;stroke-width:0.3499999999999999;" x1="288.05" x2="390.25" y1="228.9" y2="228.9"/><line style="stroke:#181818;stroke-width:0.3499999999999999;" x1="288.05" x2="390.25" y1="234.5" y2="234.5"/><text fill="#000000" font-family="sans-serif" font-size="9.8" lengthAdjust="spacing" textLength="89.6" x="291.55" y="247.4732">+static getInstance()</text><text fill="#000000" font-family="sans-serif" font-size="9.8" lengthAdjust="spacing" textLength="95.2" x="291.55" y="259.7998">+getCurrentSession()</text><text fill="#000000" font-family="sans-serif" font-size="9.8" lengthAdjust="spacing" textLength="68.6" x="291.55" y="272.1264">+getCompany()</text></g><!--MD5=[829fb52c07ade3ad64ef85b99d1fca10]
class EmployeeStore--><g id="elem_EmployeeStore"><rect codeLine="10" fill="#F1F1F1" height="119.8859" id="EmployeeStore" rx="1.75" ry="1.75" style="stroke:#181818;stroke-width:0.3499999999999999;" width="225.4" x="226.45" y="438.9"/><ellipse cx="302.575" cy="450.1" fill="#ADD1B2" rx="7.7" ry="7.7" style="stroke:#181818;stroke-width:0.6999999999999998;"/><path d="M303.975,447.65 Q304.1172,447.3 304.2812,447.125 Q304.4453,446.95 304.6312,446.95 Q304.9594,446.95 305.1672,447.1469 Q305.375,447.3437 305.375,447.8031 L305.375,448.8969 Q305.375,449.3562 305.1781,449.5531 Q304.9812,449.75 304.675,449.75 Q304.4016,449.75 304.2266,449.6297 Q304.0516,449.5094 303.975,449.1922 Q303.9422,448.9734 303.8219,448.8531 Q303.6031,448.6234 303.2094,448.4922 Q302.8156,448.35 302.4219,448.35 Q301.9297,448.35 301.5141,448.5469 Q301.1094,448.7437 300.7922,449.1812 Q300.475,449.6187 300.475,450.2203 L300.475,450.8656 Q300.475,451.5875 301.0656,452.0687 Q301.6562,452.55 302.7062,452.55 Q303.3297,452.55 303.7672,452.4078 Q304.0187,452.3312 304.3031,452.0797 Q304.4891,451.9375 304.5875,451.8937 Q304.6859,451.85 304.8062,451.85 Q305.0359,451.85 305.2,452.0359 Q305.375,452.2109 305.375,452.4625 Q305.375,452.7031 305.1344,452.9875 Q304.7844,453.4031 304.2266,453.6328 Q303.4937,453.95 302.5969,453.95 Q301.5469,453.95 300.7047,453.5344 Q300.0266,453.2062 299.5453,452.4953 Q299.075,451.7844 299.075,450.9422 L299.075,450.1766 Q299.075,449.3016 299.4906,448.5359 Q299.9172,447.7703 300.65,447.3656 Q301.3937,446.95 302.225,446.95 Q302.7281,446.95 303.1656,447.125 Q303.6031,447.3 303.975,447.65 Z " fill="#000000"/><text fill="#000000" font-family="sans-serif" font-size="9.8" lengthAdjust="spacing" textLength="67.2" x="316.925" y="454.11">EmployeeStore</text><line style="stroke:#181818;stroke-width:0.3499999999999999;" x1="227.15" x2="451.15" y1="461.3" y2="461.3"/><text fill="#000000" font-family="sans-serif" font-size="9.8" lengthAdjust="spacing" textLength="137.2" x="230.65" y="474.2732">-List&lt;Employee&gt; listaEmployee</text><line style="stroke:#181818;stroke-width:0.3499999999999999;" x1="227.15" x2="451.15" y1="479.2266" y2="479.2266"/><text fill="#000000" font-family="sans-serif" font-size="9.8" lengthAdjust="spacing" textLength="217" x="230.65" y="492.1998">+createEmployee(name, phoneNumber, address,</text><text fill="#000000" font-family="sans-serif" font-size="9.8" lengthAdjust="spacing" textLength="174.3" x="230.65" y="504.5264">emailAddress, citizenCardNumber, role)</text><text fill="#000000" font-family="sans-serif" font-size="9.8" lengthAdjust="spacing" textLength="109.2" x="230.65" y="516.8529">+validateEmployee(emp)</text><text fill="#000000" font-family="sans-serif" font-size="9.8" lengthAdjust="spacing" textLength="108.5" x="230.65" y="529.1795">+registerEmployee(emp)</text><text fill="#000000" font-family="sans-serif" font-size="9.8" lengthAdjust="spacing" textLength="150.5" x="230.65" y="541.5061">+passwordGenerator(name,email)</text><text fill="#000000" font-family="sans-serif" font-size="9.8" lengthAdjust="spacing" textLength="91.7" x="230.65" y="553.8326">+addEmployee(emp)</text></g><!--MD5=[7421f545a0d8420c5bec41e74b387d9c]
class Employee--><g id="elem_Employee"><rect codeLine="19" fill="#F1F1F1" height="132.2125" id="Employee" rx="1.75" ry="1.75" style="stroke:#181818;stroke-width:0.3499999999999999;" width="95.2" x="503.65" y="432.6"/><ellipse cx="527.38" cy="443.8" fill="#ADD1B2" rx="7.7" ry="7.7" style="stroke:#181818;stroke-width:0.6999999999999998;"/><path d="M528.78,441.35 Q528.9222,441 529.0862,440.825 Q529.2503,440.65 529.4362,440.65 Q529.7644,440.65 529.9722,440.8469 Q530.18,441.0437 530.18,441.5031 L530.18,442.5969 Q530.18,443.0562 529.9831,443.2531 Q529.7862,443.45 529.48,443.45 Q529.2066,443.45 529.0316,443.3297 Q528.8566,443.2094 528.78,442.8922 Q528.7472,442.6734 528.6269,442.5531 Q528.4081,442.3234 528.0144,442.1922 Q527.6206,442.05 527.2269,442.05 Q526.7347,442.05 526.3191,442.2469 Q525.9144,442.4437 525.5972,442.8812 Q525.28,443.3187 525.28,443.9203 L525.28,444.5656 Q525.28,445.2875 525.8706,445.7687 Q526.4612,446.25 527.5112,446.25 Q528.1347,446.25 528.5722,446.1078 Q528.8237,446.0312 529.1081,445.7797 Q529.2941,445.6375 529.3925,445.5937 Q529.4909,445.55 529.6112,445.55 Q529.8409,445.55 530.005,445.7359 Q530.18,445.9109 530.18,446.1625 Q530.18,446.4031 529.9394,446.6875 Q529.5894,447.1031 529.0316,447.3328 Q528.2987,447.65 527.4019,447.65 Q526.3519,447.65 525.5097,447.2344 Q524.8316,446.9062 524.3503,446.1953 Q523.88,445.4844 523.88,444.6422 L523.88,443.8766 Q523.88,443.0016 524.2956,442.2359 Q524.7222,441.4703 525.455,441.0656 Q526.1987,440.65 527.03,440.65 Q527.5331,440.65 527.9706,440.825 Q528.4081,441 528.78,441.35 Z " fill="#000000"/><text fill="#000000" font-family="sans-serif" font-size="9.8" lengthAdjust="spacing" textLength="43.4" x="540.12" y="447.81">Employee</text><line style="stroke:#181818;stroke-width:0.3499999999999999;" x1="504.35" x2="598.15" y1="455" y2="455"/><text fill="#000000" font-family="sans-serif" font-size="9.8" lengthAdjust="spacing" textLength="28" x="507.85" y="467.9732">-name</text><text fill="#000000" font-family="sans-serif" font-size="9.8" lengthAdjust="spacing" textLength="65.8" x="507.85" y="480.2998">-phoneNumber</text><text fill="#000000" font-family="sans-serif" font-size="9.8" lengthAdjust="spacing" textLength="39.2" x="507.85" y="492.6264">-address</text><text fill="#000000" font-family="sans-serif" font-size="9.8" lengthAdjust="spacing" textLength="63" x="507.85" y="504.9529">-emailAddress</text><text fill="#000000" font-family="sans-serif" font-size="9.8" lengthAdjust="spacing" textLength="86.8" x="507.85" y="517.2795">-citizenCardNumber</text><text fill="#000000" font-family="sans-serif" font-size="9.8" lengthAdjust="spacing" textLength="52.5" x="507.85" y="529.6061">-companyID</text><line style="stroke:#181818;stroke-width:0.3499999999999999;" x1="504.35" x2="598.15" y1="534.5594" y2="534.5594"/><text fill="#000000" font-family="sans-serif" font-size="9.8" lengthAdjust="spacing" textLength="86.8" x="507.85" y="547.5326">+getEmailAddress()</text><text fill="#000000" font-family="sans-serif" font-size="9.8" lengthAdjust="spacing" textLength="51.8" x="507.85" y="559.8592">+getName()</text></g><!--MD5=[02e4b9b7573f1156f41e60aa5b4e25a4]
class Company--><g id="elem_Company"><rect codeLine="30" fill="#F1F1F1" height="58.2531" id="Company" rx="1.75" ry="1.75" style="stroke:#181818;stroke-width:0.3499999999999999;" width="115.5" x="281.4" y="319.9"/><ellipse cx="315.175" cy="331.1" fill="#ADD1B2" rx="7.7" ry="7.7" style="stroke:#181818;stroke-width:0.6999999999999998;"/><path d="M316.575,328.65 Q316.7172,328.3 316.8812,328.125 Q317.0453,327.95 317.2312,327.95 Q317.5594,327.95 317.7672,328.1469 Q317.975,328.3437 317.975,328.8031 L317.975,329.8969 Q317.975,330.3562 317.7781,330.5531 Q317.5812,330.75 317.275,330.75 Q317.0016,330.75 316.8266,330.6297 Q316.6516,330.5094 316.575,330.1922 Q316.5422,329.9734 316.4219,329.8531 Q316.2031,329.6234 315.8094,329.4922 Q315.4156,329.35 315.0219,329.35 Q314.5297,329.35 314.1141,329.5469 Q313.7094,329.7437 313.3922,330.1812 Q313.075,330.6187 313.075,331.2203 L313.075,331.8656 Q313.075,332.5875 313.6656,333.0687 Q314.2562,333.55 315.3062,333.55 Q315.9297,333.55 316.3672,333.4078 Q316.6187,333.3312 316.9031,333.0797 Q317.0891,332.9375 317.1875,332.8937 Q317.2859,332.85 317.4062,332.85 Q317.6359,332.85 317.8,333.0359 Q317.975,333.2109 317.975,333.4625 Q317.975,333.7031 317.7344,333.9875 Q317.3844,334.4031 316.8266,334.6328 Q316.0937,334.95 315.1969,334.95 Q314.1469,334.95 313.3047,334.5344 Q312.6266,334.2062 312.1453,333.4953 Q311.675,332.7844 311.675,331.9422 L311.675,331.1766 Q311.675,330.3016 312.0906,329.5359 Q312.5172,328.7703 313.25,328.3656 Q313.9937,327.95 314.825,327.95 Q315.3281,327.95 315.7656,328.125 Q316.2031,328.3 316.575,328.65 Z " fill="#000000"/><text fill="#000000" font-family="sans-serif" font-size="9.8" lengthAdjust="spacing" textLength="42" x="329.525" y="335.11">Company</text><line style="stroke:#181818;stroke-width:0.3499999999999999;" x1="282.1" x2="396.2" y1="342.3" y2="342.3"/><line style="stroke:#181818;stroke-width:0.3499999999999999;" x1="282.1" x2="396.2" y1="347.9" y2="347.9"/><text fill="#000000" font-family="sans-serif" font-size="9.8" lengthAdjust="spacing" textLength="80.5" x="285.6" y="360.8732">+getAuthFacade()</text><text fill="#000000" font-family="sans-serif" font-size="9.8" lengthAdjust="spacing" textLength="107.1" x="285.6" y="373.1998">+getRegisterEmployee()</text></g><!--MD5=[6a4e699b59c2ecf8286aba2faa72e4bd]
class RegisterEmployeeController--><g id="elem_RegisterEmployeeController"><rect codeLine="39" fill="#F1F1F1" height="82.9062" id="RegisterEmployeeController" rx="1.75" ry="1.75" style="stroke:#181818;stroke-width:0.3499999999999999;" width="225.4" x="315.35" y="81.2"/><ellipse cx="363.125" cy="92.4" fill="#ADD1B2" rx="7.7" ry="7.7" style="stroke:#181818;stroke-width:0.6999999999999998;"/><path d="M364.525,89.95 Q364.6672,89.6 364.8312,89.425 Q364.9953,89.25 365.1812,89.25 Q365.5094,89.25 365.7172,89.4469 Q365.925,89.6437 365.925,90.1031 L365.925,91.1969 Q365.925,91.6562 365.7281,91.8531 Q365.5312,92.05 365.225,92.05 Q364.9516,92.05 364.7766,91.9297 Q364.6016,91.8094 364.525,91.4922 Q364.4922,91.2734 364.3719,91.1531 Q364.1531,90.9234 363.7594,90.7922 Q363.3656,90.65 362.9719,90.65 Q362.4797,90.65 362.0641,90.8469 Q361.6594,91.0437 361.3422,91.4812 Q361.025,91.9187 361.025,92.5203 L361.025,93.1656 Q361.025,93.8875 361.6156,94.3687 Q362.2062,94.85 363.2562,94.85 Q363.8797,94.85 364.3172,94.7078 Q364.5687,94.6312 364.8531,94.3797 Q365.0391,94.2375 365.1375,94.1937 Q365.2359,94.15 365.3562,94.15 Q365.5859,94.15 365.75,94.3359 Q365.925,94.5109 365.925,94.7625 Q365.925,95.0031 365.6844,95.2875 Q365.3344,95.7031 364.7766,95.9328 Q364.0437,96.25 363.1469,96.25 Q362.0969,96.25 361.2547,95.8344 Q360.5766,95.5062 360.0953,94.7953 Q359.625,94.0844 359.625,93.2422 L359.625,92.4766 Q359.625,91.6016 360.0406,90.8359 Q360.4672,90.0703 361.2,89.6656 Q361.9437,89.25 362.775,89.25 Q363.2781,89.25 363.7156,89.425 Q364.1531,89.6 364.525,89.95 Z " fill="#000000"/><text fill="#000000" font-family="sans-serif" font-size="9.8" lengthAdjust="spacing" textLength="123.9" x="377.475" y="96.41">RegisterEmployeeController</text><line style="stroke:#181818;stroke-width:0.3499999999999999;" x1="316.05" x2="540.05" y1="103.6" y2="103.6"/><line style="stroke:#181818;stroke-width:0.3499999999999999;" x1="316.05" x2="540.05" y1="109.2" y2="109.2"/><text fill="#000000" font-family="sans-serif" font-size="9.8" lengthAdjust="spacing" textLength="51.8" x="319.55" y="122.1732">+getRoles()</text><text fill="#000000" font-family="sans-serif" font-size="9.8" lengthAdjust="spacing" textLength="217" x="319.55" y="134.4998">+createEmployee(name, phoneNumber, address,</text><text fill="#000000" font-family="sans-serif" font-size="9.8" lengthAdjust="spacing" textLength="174.3" x="322.35" y="146.8264">emailAddress, citizenCardNumber, role)</text><text fill="#000000" font-family="sans-serif" font-size="9.8" lengthAdjust="spacing" textLength="89.6" x="319.55" y="159.1529">+registerEmployee()</text></g><!--MD5=[a126dd63c8621c017159ae62771fbe54]
class RegisterEmployeeUI--><g id="elem_RegisterEmployeeUI"><rect codeLine="46" fill="#F1F1F1" height="33.6" id="RegisterEmployeeUI" rx="1.75" ry="1.75" style="stroke:#181818;stroke-width:0.3499999999999999;" width="111.3" x="372.4" y="4.9"/><ellipse cx="382.9" cy="16.1" fill="#ADD1B2" rx="7.7" ry="7.7" style="stroke:#181818;stroke-width:0.6999999999999998;"/><path d="M384.3,13.65 Q384.4422,13.3 384.6062,13.125 Q384.7703,12.95 384.9562,12.95 Q385.2844,12.95 385.4922,13.1469 Q385.7,13.3437 385.7,13.8031 L385.7,14.8969 Q385.7,15.3562 385.5031,15.5531 Q385.3062,15.75 385,15.75 Q384.7266,15.75 384.5516,15.6297 Q384.3766,15.5094 384.3,15.1922 Q384.2672,14.9734 384.1469,14.8531 Q383.9281,14.6234 383.5344,14.4922 Q383.1406,14.35 382.7469,14.35 Q382.2547,14.35 381.8391,14.5469 Q381.4344,14.7437 381.1172,15.1812 Q380.8,15.6187 380.8,16.2203 L380.8,16.8656 Q380.8,17.5875 381.3906,18.0687 Q381.9812,18.55 383.0312,18.55 Q383.6547,18.55 384.0922,18.4078 Q384.3437,18.3312 384.6281,18.0797 Q384.8141,17.9375 384.9125,17.8937 Q385.0109,17.85 385.1312,17.85 Q385.3609,17.85 385.525,18.0359 Q385.7,18.2109 385.7,18.4625 Q385.7,18.7031 385.4594,18.9875 Q385.1094,19.4031 384.5516,19.6328 Q383.8187,19.95 382.9219,19.95 Q381.8719,19.95 381.0297,19.5344 Q380.3516,19.2062 379.8703,18.4953 Q379.4,17.7844 379.4,16.9422 L379.4,16.1766 Q379.4,15.3016 379.8156,14.5359 Q380.2422,13.7703 380.975,13.3656 Q381.7187,12.95 382.55,12.95 Q383.0531,12.95 383.4906,13.125 Q383.9281,13.3 384.3,13.65 Z " fill="#000000"/><text fill="#000000" font-family="sans-serif" font-size="9.8" lengthAdjust="spacing" textLength="88.9" x="392.7" y="20.11">RegisterEmployeeUI</text><line style="stroke:#181818;stroke-width:0.3499999999999999;" x1="373.1" x2="483" y1="27.3" y2="27.3"/><line style="stroke:#181818;stroke-width:0.3499999999999999;" x1="373.1" x2="483" y1="32.9" y2="32.9"/></g><!--MD5=[8ae808d068a8995f06b9b3ec51357f0b]
class AuthFacade--><g id="elem_AuthFacade"><rect codeLine="50" fill="#F1F1F1" height="70.5797" id="AuthFacade" rx="1.75" ry="1.75" style="stroke:#181818;stroke-width:0.3499999999999999;" width="196.7" x="4.9" y="463.4"/><ellipse cx="73.325" cy="474.6" fill="#ADD1B2" rx="7.7" ry="7.7" style="stroke:#181818;stroke-width:0.6999999999999998;"/><path d="M74.725,472.15 Q74.8672,471.8 75.0312,471.625 Q75.1953,471.45 75.3812,471.45 Q75.7094,471.45 75.9172,471.6469 Q76.125,471.8437 76.125,472.3031 L76.125,473.3969 Q76.125,473.8562 75.9281,474.0531 Q75.7312,474.25 75.425,474.25 Q75.1516,474.25 74.9766,474.1297 Q74.8016,474.0094 74.725,473.6922 Q74.6922,473.4734 74.5719,473.3531 Q74.3531,473.1234 73.9594,472.9922 Q73.5656,472.85 73.1719,472.85 Q72.6797,472.85 72.2641,473.0469 Q71.8594,473.2437 71.5422,473.6812 Q71.225,474.1187 71.225,474.7203 L71.225,475.3656 Q71.225,476.0875 71.8156,476.5687 Q72.4062,477.05 73.4562,477.05 Q74.0797,477.05 74.5172,476.9078 Q74.7687,476.8312 75.0531,476.5797 Q75.2391,476.4375 75.3375,476.3937 Q75.4359,476.35 75.5562,476.35 Q75.7859,476.35 75.95,476.5359 Q76.125,476.7109 76.125,476.9625 Q76.125,477.2031 75.8844,477.4875 Q75.5344,477.9031 74.9766,478.1328 Q74.2437,478.45 73.3469,478.45 Q72.2969,478.45 71.4547,478.0344 Q70.7766,477.7062 70.2953,476.9953 Q69.825,476.2844 69.825,475.4422 L69.825,474.6766 Q69.825,473.8016 70.2406,473.0359 Q70.6672,472.2703 71.4,471.8656 Q72.1437,471.45 72.975,471.45 Q73.4781,471.45 73.9156,471.625 Q74.3531,471.8 74.725,472.15 Z " fill="#000000"/><text fill="#000000" font-family="sans-serif" font-size="9.8" lengthAdjust="spacing" textLength="53.9" x="87.675" y="478.61">AuthFacade</text><line style="stroke:#181818;stroke-width:0.3499999999999999;" x1="5.6" x2="200.9" y1="485.8" y2="485.8"/><line style="stroke:#181818;stroke-width:0.3499999999999999;" x1="5.6" x2="200.9" y1="491.4" y2="491.4"/><text fill="#000000" font-family="sans-serif" font-size="9.8" lengthAdjust="spacing" textLength="72.1" x="9.1" y="504.3732">+getUserRoles()</text><text fill="#000000" font-family="sans-serif" font-size="9.8" lengthAdjust="spacing" textLength="80.5" x="9.1" y="516.6998">+existsUser(email)</text><text fill="#000000" font-family="sans-serif" font-size="9.8" lengthAdjust="spacing" textLength="188.3" x="9.1" y="529.0264">+addUserWithRole(name, email, pwd, role)</text></g><!--MD5=[3fd241ca11f270f6bde54c00b8a8581a]
link RegisterEmployeeUI to RegisterEmployeeController--><g id="link_RegisterEmployeeUI_RegisterEmployeeController"><path codeLine="56" d="M428.05,38.591 C428.05,49.245 428.05,63.735 428.05,77.644 " fill="none" id="RegisterEmployeeUI-to-RegisterEmployeeController" style="stroke:#181818;stroke-width:0.6999999999999998;stroke-dasharray:7.0,7.0;"/><polygon fill="#181818" points="428.05,81.158,430.85,74.858,428.05,77.658,425.25,74.858,428.05,81.158" style="stroke:#181818;stroke-width:0.6999999999999998;"/></g><!--MD5=[7c63a46d16d075ca7ac66937a2a499f7]
link RegisterEmployeeController to Employee--><g id="link_RegisterEmployeeController_Employee"><path codeLine="57" d="M441.413,163.849 C462.308,227.444 502.985,351.197 528.542,428.967 " fill="none" id="RegisterEmployeeController-to-Employee" style="stroke:#181818;stroke-width:0.6999999999999998;stroke-dasharray:7.0,7.0;"/><polygon fill="#181818" points="529.676,432.404,530.3772,425.5456,528.5872,429.0777,525.0551,427.2876,529.676,432.404" style="stroke:#181818;stroke-width:0.6999999999999998;"/></g><!--MD5=[969ee03aa52aee79b0e607297418cbd4]
link RegisterEmployeeController to Company--><g id="link_RegisterEmployeeController_Company"><path codeLine="58" d="M427.567,163.975 C425.768,196.14 419.993,241.402 402.85,277.2 C395.864,291.788 384.944,305.578 374.108,317.065 " fill="none" id="RegisterEmployeeController-to-Company" style="stroke:#181818;stroke-width:0.6999999999999998;stroke-dasharray:7.0,7.0;"/><polygon fill="#181818" points="371.651,319.627,378.0291,317.0098,374.0703,317.0978,373.9823,313.1389,371.651,319.627" style="stroke:#181818;stroke-width:0.6999999999999998;"/></g><!--MD5=[8c18a3e8a8e8f79c569ce45c8096cb72]
link RegisterEmployeeController to Application--><g id="link_RegisterEmployeeController_Application"><path codeLine="59" d="M397.208,164.122 C387.555,176.925 376.957,190.988 367.486,203.553 " fill="none" id="RegisterEmployeeController-to-Application" style="stroke:#181818;stroke-width:0.6999999999999998;stroke-dasharray:7.0,7.0;"/><polygon fill="#181818" points="365.358,206.374,371.378,203.014,367.458,203.574,366.898,199.654,365.358,206.374" style="stroke:#181818;stroke-width:0.6999999999999998;"/></g><!--MD5=[aa87414629f40b8871c38fc4fdff0b84]
link Application to Company--><g id="link_Application_Company"><path codeLine="60" d="M339.15,277.452 C339.15,289.877 339.15,303.807 339.15,316.001 " fill="none" id="Application-to-Company" style="stroke:#181818;stroke-width:0.6999999999999998;stroke-dasharray:7.0,7.0;"/><polygon fill="#181818" points="339.15,319.725,341.95,313.425,339.15,316.225,336.35,313.425,339.15,319.725" style="stroke:#181818;stroke-width:0.6999999999999998;"/></g><!--MD5=[2f3bac1bdf76f0b867b8cadb6fadb6bc]
link EmployeeStore to Employee--><g id="link_EmployeeStore_Employee"><path codeLine="61" d="M452.032,498.75 C468.72,498.75 485.184,498.75 499.758,498.75 " fill="none" id="EmployeeStore-to-Employee" style="stroke:#181818;stroke-width:0.6999999999999998;"/><polygon fill="#181818" points="503.419,498.75,497.119,495.95,499.919,498.75,497.119,501.55,503.419,498.75" style="stroke:#181818;stroke-width:0.6999999999999998;"/><text fill="#000000" font-family="sans-serif" font-size="9.1" lengthAdjust="spacing" textLength="25.9" x="464.8" y="494.1966">knows</text><text fill="#000000" font-family="sans-serif" font-size="9.1" lengthAdjust="spacing" textLength="4.9" x="457.6184" y="496.7268">1</text><text fill="#000000" font-family="sans-serif" font-size="9.1" lengthAdjust="spacing" textLength="3.5" x="494.4961" y="496.4023">*</text></g><!--MD5=[ce859576cba61219b3cb4d2d23fdcd81]
link Company to EmployeeStore--><g id="link_Company_EmployeeStore"><path codeLine="62" d="M339.15,378.266 C339.15,394.436 339.15,415.331 339.15,435.127 " fill="none" id="Company-to-EmployeeStore" style="stroke:#181818;stroke-width:0.6999999999999998;"/><polygon fill="#181818" points="339.15,438.809,341.95,432.509,339.15,435.309,336.35,432.509,339.15,438.809" style="stroke:#181818;stroke-width:0.6999999999999998;"/><text fill="#000000" font-family="sans-serif" font-size="9.1" lengthAdjust="spacing" textLength="14.7" x="339.85" y="409.1466">has</text><text fill="#000000" font-family="sans-serif" font-size="9.1" lengthAdjust="spacing" textLength="4.9" x="333.8595" y="393.2847">1</text><text fill="#000000" font-family="sans-serif" font-size="9.1" lengthAdjust="spacing" textLength="4.9" x="334.0318" y="431.221">1</text></g><!--MD5=[717d4b03d3c4372f4eafe5e342a0a7dd]
link Company to AuthFacade--><g id="link_Company_AuthFacade"><path codeLine="64" d="M293.944,378.084 C256.326,401.751 202.517,435.603 161.644,461.314 " fill="none" id="Company-to-AuthFacade" style="stroke:#181818;stroke-width:0.6999999999999998;stroke-dasharray:7.0,7.0;"/><polygon fill="#181818" points="158.473,463.309,165.2946,462.3113,161.432,461.4396,162.3037,457.577,158.473,463.309" style="stroke:#181818;stroke-width:0.6999999999999998;"/></g><!--MD5=[4e81cfe0e16bcb388edaa38b9f94ed45]
reverse link AuthFacade to EmployeeStore--><g id="link_AuthFacade_EmployeeStore"><path codeLine="66" d="M205.289,498.75 C212.303,498.75 219.317,498.75 226.331,498.75 " fill="none" id="AuthFacade-backto-EmployeeStore" style="stroke:#181818;stroke-width:0.6999999999999998;stroke-dasharray:7.0,7.0;"/><polygon fill="#181818" points="201.621,498.75,207.921,501.55,205.121,498.75,207.921,495.95,201.621,498.75" style="stroke:#181818;stroke-width:0.6999999999999998;"/></g><!--MD5=[c0e87c8d41a4d0dbbd1b11a281ca6b77]
@startuml
skinparam classAttributeIconSize 0

class Application {
  +static getInstance()
  +getCurrentSession()
  +getCompany()

}

class EmployeeStore {
-List<Employee> listaEmployee
+createEmployee(name, phoneNumber, address,\nemailAddress, citizenCardNumber, role)
+validateEmployee(emp)
+registerEmployee(emp)
+passwordGenerator(name,email)
+addEmployee(emp)
}

class Employee {
-name
-phoneNumber
-address
-emailAddress
-citizenCardNumber
-companyID
+getEmailAddress()
+getName()
}

class Company {

  +getAuthFacade()
  +getRegisterEmployee()

}



class RegisterEmployeeController {
+getRoles()
+createEmployee(name, phoneNumber, address,\n emailAddress, citizenCardNumber, role)
+registerEmployee()

}

class RegisterEmployeeUI {

}

class AuthFacade{
+getUserRoles()
+existsUser(email)
+addUserWithRole(name, email, pwd, role)
}

RegisterEmployeeUI ..> RegisterEmployeeController
RegisterEmployeeController ..> Employee
RegisterEmployeeController ..> Company
RegisterEmployeeController ..> Application
Application ..> Company
EmployeeStore "1" -> "*" Employee : knows
Company "1" - -> "1" EmployeeStore : has

Company ..> AuthFacade

EmployeeStore .left.> AuthFacade


@enduml

PlantUML version 1.2022.4(Sat Apr 09 14:29:17 BST 2022)
(GPL source distribution)
Java Runtime: OpenJDK Runtime Environment
JVM: OpenJDK 64-Bit Server VM
Default Encoding: Cp1252
Language: en
Country: GB
--></g></svg>