<?xml version="1.0" encoding="UTF-8" standalone="no"?><svg xmlns="http://www.w3.org/2000/svg" xmlns:xlink="http://www.w3.org/1999/xlink" contentStyleType="text/css" height="429px" preserveAspectRatio="none" style="width:601px;height:429px;background:#FFFFFF;" version="1.1" viewBox="0 0 601 429" width="601px" zoomAndPan="magnify"><defs/><g><!--MD5=[da547346deef918ea16944ba046651ef]
class Administrator--><g id="elem_Administrator"><rect codeLine="5" fill="#F1F1F1" height="55.3828" id="Administrator" rx="2.5" ry="2.5" style="stroke:#181818;stroke-width:0.5;" width="136" x="458.5" y="84"/><ellipse cx="473.5" cy="103.6914" fill="#ADD1B2" rx="11" ry="11" style="stroke:#181818;stroke-width:1.0;"/><path d="M475.5,100.1914 Q475.7031,99.6914 475.9375,99.4414 Q476.1719,99.1914 476.4375,99.1914 Q476.9063,99.1914 477.2031,99.4727 Q477.5,99.7539 477.5,100.4102 L477.5,101.9727 Q477.5,102.6289 477.2188,102.9102 Q476.9375,103.1914 476.5,103.1914 Q476.1094,103.1914 475.8594,103.0195 Q475.6094,102.8477 475.5,102.3945 Q475.4531,102.082 475.2813,101.9102 Q474.9688,101.582 474.4063,101.3945 Q473.8438,101.1914 473.2813,101.1914 Q472.5781,101.1914 471.9844,101.4727 Q471.4063,101.7539 470.9531,102.3789 Q470.5,103.0039 470.5,103.8633 L470.5,104.7852 Q470.5,105.8164 471.3438,106.5039 Q472.1875,107.1914 473.6875,107.1914 Q474.5781,107.1914 475.2031,106.9883 Q475.5625,106.8789 475.9688,106.5195 Q476.2344,106.3164 476.375,106.2539 Q476.5156,106.1914 476.6875,106.1914 Q477.0156,106.1914 477.25,106.457 Q477.5,106.707 477.5,107.0664 Q477.5,107.4102 477.1563,107.8164 Q476.6563,108.4102 475.8594,108.7383 Q474.8125,109.1914 473.5313,109.1914 Q472.0313,109.1914 470.8281,108.5977 Q469.8594,108.1289 469.1719,107.1133 Q468.5,106.0977 468.5,104.8945 L468.5,103.8008 Q468.5,102.5508 469.0938,101.457 Q469.7031,100.3633 470.75,99.7852 Q471.8125,99.1914 473,99.1914 Q473.7188,99.1914 474.3438,99.4414 Q474.9688,99.6914 475.5,100.1914 Z " fill="#000000"/><text fill="#000000" font-family="sans-serif" font-size="17" lengthAdjust="spacing" textLength="96" x="491.5" y="110.6475">Administrator</text><line style="stroke:#181818;stroke-width:0.5;" x1="459.5" x2="593.5" y1="123.3828" y2="123.3828"/><line style="stroke:#181818;stroke-width:0.5;" x1="459.5" x2="593.5" y1="131.3828" y2="131.3828"/></g><!--MD5=[7421f545a0d8420c5bec41e74b387d9c]
class Employee--><g id="elem_Employee"><rect codeLine="6" fill="#F1F1F1" height="209.0391" id="Employee" rx="2.5" ry="2.5" style="stroke:#181818;stroke-width:0.5;" width="139" x="143" y="7"/><ellipse cx="170.15" cy="26.6914" fill="#ADD1B2" rx="11" ry="11" style="stroke:#181818;stroke-width:1.0;"/><path d="M172.15,23.1914 Q172.3531,22.6914 172.5875,22.4414 Q172.8219,22.1914 173.0875,22.1914 Q173.5563,22.1914 173.8531,22.4727 Q174.15,22.7539 174.15,23.4102 L174.15,24.9727 Q174.15,25.6289 173.8688,25.9102 Q173.5875,26.1914 173.15,26.1914 Q172.7594,26.1914 172.5094,26.0195 Q172.2594,25.8477 172.15,25.3945 Q172.1031,25.082 171.9313,24.9102 Q171.6188,24.582 171.0563,24.3945 Q170.4938,24.1914 169.9313,24.1914 Q169.2281,24.1914 168.6344,24.4727 Q168.0563,24.7539 167.6031,25.3789 Q167.15,26.0039 167.15,26.8633 L167.15,27.7852 Q167.15,28.8164 167.9938,29.5039 Q168.8375,30.1914 170.3375,30.1914 Q171.2281,30.1914 171.8531,29.9883 Q172.2125,29.8789 172.6188,29.5195 Q172.8844,29.3164 173.025,29.2539 Q173.1656,29.1914 173.3375,29.1914 Q173.6656,29.1914 173.9,29.457 Q174.15,29.707 174.15,30.0664 Q174.15,30.4102 173.8063,30.8164 Q173.3063,31.4102 172.5094,31.7383 Q171.4625,32.1914 170.1813,32.1914 Q168.6813,32.1914 167.4781,31.5977 Q166.5094,31.1289 165.8219,30.1133 Q165.15,29.0977 165.15,27.8945 L165.15,26.8008 Q165.15,25.5508 165.7438,24.457 Q166.3531,23.3633 167.4,22.7852 Q168.4625,22.1914 169.65,22.1914 Q170.3688,22.1914 170.9938,22.4414 Q171.6188,22.6914 172.15,23.1914 Z " fill="#000000"/><text fill="#000000" font-family="sans-serif" font-size="17" lengthAdjust="spacing" textLength="72" x="190.85" y="33.6475">Employee</text><line style="stroke:#181818;stroke-width:0.5;" x1="144" x2="281" y1="46.3828" y2="46.3828"/><text fill="#000000" font-family="sans-serif" font-size="14" lengthAdjust="spacing" textLength="35" x="153" y="68.916">name</text><text fill="#000000" font-family="sans-serif" font-size="14" lengthAdjust="spacing" textLength="89" x="153" y="94.5254">phoneNumber</text><text fill="#000000" font-family="sans-serif" font-size="14" lengthAdjust="spacing" textLength="51" x="153" y="120.1348">address</text><text fill="#000000" font-family="sans-serif" font-size="14" lengthAdjust="spacing" textLength="85" x="153" y="145.7441">emailAddress</text><text fill="#000000" font-family="sans-serif" font-size="14" lengthAdjust="spacing" textLength="119" x="153" y="171.3535">citizenCardNumber</text><text fill="#000000" font-family="sans-serif" font-size="14" lengthAdjust="spacing" textLength="70" x="153" y="196.9629">companyID</text><line style="stroke:#181818;stroke-width:0.5;" x1="144" x2="281" y1="208.0391" y2="208.0391"/></g><!--MD5=[03960189e81aa2c066c762ffabbee709]
class Receptionist--><g id="elem_Receptionist"><rect codeLine="14" fill="#F1F1F1" height="55.3828" id="Receptionist" rx="2.5" ry="2.5" style="stroke:#181818;stroke-width:0.5;" width="129" x="7" y="367"/><ellipse cx="22" cy="386.6914" fill="#ADD1B2" rx="11" ry="11" style="stroke:#181818;stroke-width:1.0;"/><path d="M24,383.1914 Q24.2031,382.6914 24.4375,382.4414 Q24.6719,382.1914 24.9375,382.1914 Q25.4063,382.1914 25.7031,382.4727 Q26,382.7539 26,383.4102 L26,384.9727 Q26,385.6289 25.7188,385.9102 Q25.4375,386.1914 25,386.1914 Q24.6094,386.1914 24.3594,386.0195 Q24.1094,385.8477 24,385.3945 Q23.9531,385.082 23.7813,384.9102 Q23.4688,384.582 22.9063,384.3945 Q22.3438,384.1914 21.7813,384.1914 Q21.0781,384.1914 20.4844,384.4727 Q19.9063,384.7539 19.4531,385.3789 Q19,386.0039 19,386.8633 L19,387.7852 Q19,388.8164 19.8438,389.5039 Q20.6875,390.1914 22.1875,390.1914 Q23.0781,390.1914 23.7031,389.9883 Q24.0625,389.8789 24.4688,389.5195 Q24.7344,389.3164 24.875,389.2539 Q25.0156,389.1914 25.1875,389.1914 Q25.5156,389.1914 25.75,389.457 Q26,389.707 26,390.0664 Q26,390.4102 25.6563,390.8164 Q25.1563,391.4102 24.3594,391.7383 Q23.3125,392.1914 22.0313,392.1914 Q20.5313,392.1914 19.3281,391.5977 Q18.3594,391.1289 17.6719,390.1133 Q17,389.0977 17,387.8945 L17,386.8008 Q17,385.5508 17.5938,384.457 Q18.2031,383.3633 19.25,382.7852 Q20.3125,382.1914 21.5,382.1914 Q22.2188,382.1914 22.8438,382.4414 Q23.4688,382.6914 24,383.1914 Z " fill="#000000"/><text fill="#000000" font-family="sans-serif" font-size="17" lengthAdjust="spacing" textLength="89" x="40" y="393.6475">Receptionist</text><line style="stroke:#181818;stroke-width:0.5;" x1="8" x2="135" y1="406.3828" y2="406.3828"/><line style="stroke:#181818;stroke-width:0.5;" x1="8" x2="135" y1="414.3828" y2="414.3828"/></g><!--MD5=[a059576e163b46f56762f12600c49258]
class Nurse--><g id="elem_Nurse"><rect codeLine="15" fill="#F1F1F1" height="55.3828" id="Nurse" rx="2.5" ry="2.5" style="stroke:#181818;stroke-width:0.5;" width="83" x="171" y="367"/><ellipse cx="186" cy="386.6914" fill="#ADD1B2" rx="11" ry="11" style="stroke:#181818;stroke-width:1.0;"/><path d="M188,383.1914 Q188.2031,382.6914 188.4375,382.4414 Q188.6719,382.1914 188.9375,382.1914 Q189.4063,382.1914 189.7031,382.4727 Q190,382.7539 190,383.4102 L190,384.9727 Q190,385.6289 189.7188,385.9102 Q189.4375,386.1914 189,386.1914 Q188.6094,386.1914 188.3594,386.0195 Q188.1094,385.8477 188,385.3945 Q187.9531,385.082 187.7813,384.9102 Q187.4688,384.582 186.9063,384.3945 Q186.3438,384.1914 185.7813,384.1914 Q185.0781,384.1914 184.4844,384.4727 Q183.9063,384.7539 183.4531,385.3789 Q183,386.0039 183,386.8633 L183,387.7852 Q183,388.8164 183.8438,389.5039 Q184.6875,390.1914 186.1875,390.1914 Q187.0781,390.1914 187.7031,389.9883 Q188.0625,389.8789 188.4688,389.5195 Q188.7344,389.3164 188.875,389.2539 Q189.0156,389.1914 189.1875,389.1914 Q189.5156,389.1914 189.75,389.457 Q190,389.707 190,390.0664 Q190,390.4102 189.6563,390.8164 Q189.1563,391.4102 188.3594,391.7383 Q187.3125,392.1914 186.0313,392.1914 Q184.5313,392.1914 183.3281,391.5977 Q182.3594,391.1289 181.6719,390.1133 Q181,389.0977 181,387.8945 L181,386.8008 Q181,385.5508 181.5938,384.457 Q182.2031,383.3633 183.25,382.7852 Q184.3125,382.1914 185.5,382.1914 Q186.2188,382.1914 186.8438,382.4414 Q187.4688,382.6914 188,383.1914 Z " fill="#000000"/><text fill="#000000" font-family="sans-serif" font-size="17" lengthAdjust="spacing" textLength="43" x="204" y="393.6475">Nurse</text><line style="stroke:#181818;stroke-width:0.5;" x1="172" x2="253" y1="406.3828" y2="406.3828"/><line style="stroke:#181818;stroke-width:0.5;" x1="172" x2="253" y1="414.3828" y2="414.3828"/></g><!--MD5=[2d935fd2dd068a13da1ae531f9857c4f]
class CenterCoordinator--><g id="elem_CenterCoordinator"><rect codeLine="16" fill="#F1F1F1" height="55.3828" id="CenterCoordinator" rx="2.5" ry="2.5" style="stroke:#181818;stroke-width:0.5;" width="175" x="289" y="367"/><ellipse cx="304" cy="386.6914" fill="#ADD1B2" rx="11" ry="11" style="stroke:#181818;stroke-width:1.0;"/><path d="M306,383.1914 Q306.2031,382.6914 306.4375,382.4414 Q306.6719,382.1914 306.9375,382.1914 Q307.4063,382.1914 307.7031,382.4727 Q308,382.7539 308,383.4102 L308,384.9727 Q308,385.6289 307.7188,385.9102 Q307.4375,386.1914 307,386.1914 Q306.6094,386.1914 306.3594,386.0195 Q306.1094,385.8477 306,385.3945 Q305.9531,385.082 305.7813,384.9102 Q305.4688,384.582 304.9063,384.3945 Q304.3438,384.1914 303.7813,384.1914 Q303.0781,384.1914 302.4844,384.4727 Q301.9063,384.7539 301.4531,385.3789 Q301,386.0039 301,386.8633 L301,387.7852 Q301,388.8164 301.8438,389.5039 Q302.6875,390.1914 304.1875,390.1914 Q305.0781,390.1914 305.7031,389.9883 Q306.0625,389.8789 306.4688,389.5195 Q306.7344,389.3164 306.875,389.2539 Q307.0156,389.1914 307.1875,389.1914 Q307.5156,389.1914 307.75,389.457 Q308,389.707 308,390.0664 Q308,390.4102 307.6563,390.8164 Q307.1563,391.4102 306.3594,391.7383 Q305.3125,392.1914 304.0313,392.1914 Q302.5313,392.1914 301.3281,391.5977 Q300.3594,391.1289 299.6719,390.1133 Q299,389.0977 299,387.8945 L299,386.8008 Q299,385.5508 299.5938,384.457 Q300.2031,383.3633 301.25,382.7852 Q302.3125,382.1914 303.5,382.1914 Q304.2188,382.1914 304.8438,382.4414 Q305.4688,382.6914 306,383.1914 Z " fill="#000000"/><text fill="#000000" font-family="sans-serif" font-size="17" lengthAdjust="spacing" textLength="135" x="322" y="393.6475">CenterCoordinator</text><line style="stroke:#181818;stroke-width:0.5;" x1="290" x2="463" y1="406.3828" y2="406.3828"/><line style="stroke:#181818;stroke-width:0.5;" x1="290" x2="463" y1="414.3828" y2="414.3828"/></g><!--MD5=[98f7f3dc8d9719d04ad14614c4ea123f]
reverse link Employee to CenterCoordinator--><g id="link_Employee_CenterCoordinator"><path codeLine="18" d="M275.7,220.79 C306.64,273.79 341.34,333.26 360.9,366.77 " fill="none" id="Employee-backto-CenterCoordinator" style="stroke:#181818;stroke-width:1.0;"/><polygon fill="#181818" points="273.1,216.34,274.1999,226.1273,275.6282,220.6537,281.1018,222.0821,273.1,216.34" style="stroke:#181818;stroke-width:1.0;"/></g><!--MD5=[6716344a46572fc99c27bf4e50ddbd3d]
reverse link Employee to Nurse--><g id="link_Employee_Nurse"><path codeLine="19" d="M212.5,221.43 C212.5,274.27 212.5,333.4 212.5,366.77 " fill="none" id="Employee-backto-Nurse" style="stroke:#181818;stroke-width:1.0;"/><polygon fill="#181818" points="212.5,216.34,208.5,225.34,212.5,221.34,216.5,225.34,212.5,216.34" style="stroke:#181818;stroke-width:1.0;"/></g><!--MD5=[bfff716514ca687b645fe473c6e098a4]
reverse link Employee to Receptionist--><g id="link_Employee_Receptionist"><path codeLine="20" d="M158,221.11 C131.45,274.03 101.69,333.33 84.91,366.77 " fill="none" id="Employee-backto-Receptionist" style="stroke:#181818;stroke-width:1.0;"/><polygon fill="#181818" points="160.4,216.34,152.7894,222.5913,158.1582,220.8093,159.9402,226.1781,160.4,216.34" style="stroke:#181818;stroke-width:1.0;"/></g><!--MD5=[b8a4f1f13c2d56b2385b1bfafed8418f]
link Employee to Administrator--><g id="link_Employee_Administrator"><path codeLine="22" d="M282.19,111.5 C334.67,111.5 406.25,111.5 458.36,111.5 " fill="none" id="Employee-Administrator" style="stroke:#181818;stroke-width:1.0;"/><polygon fill="#000000" points="299.25,97.418,308.2951,100.3569,308.2951,94.479,299.25,97.418" style="stroke:#000000;stroke-width:1.0;"/><text fill="#000000" font-family="sans-serif" font-size="11" lengthAdjust="spacing" textLength="119" x="317.25" y="101.9189">registers and configures</text><text fill="#000000" font-family="sans-serif" font-size="13" lengthAdjust="spacing" textLength="5" x="294.0471" y="103.7737">*</text><text fill="#000000" font-family="sans-serif" font-size="13" lengthAdjust="spacing" textLength="7" x="439.5596" y="103.756">1</text></g><!--MD5=[8ed9e0452e0ffc87154afd934ff4eb93]
@startuml
skinparam classFontSize 17
skinparam padding 4
skinparam ranksep 150

class Administrator
class Employee{
<size:14>name
<size:14>phoneNumber
<size:14>address
<size:14>emailAddress
<size:14>citizenCardNumber
<size:14>companyID
}
class Receptionist
class Nurse
class CenterCoordinator

Employee <- - CenterCoordinator
Employee <- - Nurse
Employee <- - Receptionist

Administrator "1" -left- "*" Employee : <size:11>registers and configures >

@enduml

PlantUML version 1.2022.4(Sat Apr 09 14:29:17 BST 2022)
(GPL source distribution)
Java Runtime: OpenJDK Runtime Environment
JVM: OpenJDK 64-Bit Server VM
Default Encoding: Cp1252
Language: en
Country: GB
--></g></svg>