<?xml version="1.0" encoding="UTF-8" standalone="no"?><svg xmlns="http://www.w3.org/2000/svg" xmlns:xlink="http://www.w3.org/1999/xlink" contentStyleType="text/css" height="357px" preserveAspectRatio="none" style="width:837px;height:357px;background:#FFFFFF;" version="1.1" viewBox="0 0 837 357" width="837px" zoomAndPan="magnify"><defs/><g><!--MD5=[f0cdd93ff93dc9df59898fb811f200bc]
class VaccinatedToFile--><g id="elem_VaccinatedToFile"><rect codeLine="6" fill="#F1F1F1" height="75.2188" id="VaccinatedToFile" rx="2.5" ry="2.5" style="stroke:#181818;stroke-width:0.5;" width="155" x="13.5" y="275.5"/><ellipse cx="34.35" cy="291.5" fill="#ADD1B2" rx="11" ry="11" style="stroke:#181818;stroke-width:1.0;"/><path d="M36.35,288 Q36.5531,287.5 36.7875,287.25 Q37.0219,287 37.2875,287 Q37.7563,287 38.0531,287.2813 Q38.35,287.5625 38.35,288.2188 L38.35,289.7813 Q38.35,290.4375 38.0688,290.7188 Q37.7875,291 37.35,291 Q36.9594,291 36.7094,290.8281 Q36.4594,290.6563 36.35,290.2031 Q36.3031,289.8906 36.1313,289.7188 Q35.8188,289.3906 35.2563,289.2031 Q34.6938,289 34.1313,289 Q33.4281,289 32.8344,289.2813 Q32.2563,289.5625 31.8031,290.1875 Q31.35,290.8125 31.35,291.6719 L31.35,292.5938 Q31.35,293.625 32.1938,294.3125 Q33.0375,295 34.5375,295 Q35.4281,295 36.0531,294.7969 Q36.4125,294.6875 36.8188,294.3281 Q37.0844,294.125 37.225,294.0625 Q37.3656,294 37.5375,294 Q37.8656,294 38.1,294.2656 Q38.35,294.5156 38.35,294.875 Q38.35,295.2188 38.0063,295.625 Q37.5063,296.2188 36.7094,296.5469 Q35.6625,297 34.3813,297 Q32.8813,297 31.6781,296.4063 Q30.7094,295.9375 30.0219,294.9219 Q29.35,293.9063 29.35,292.7031 L29.35,291.6094 Q29.35,290.3594 29.9438,289.2656 Q30.5531,288.1719 31.6,287.5938 Q32.6625,287 33.85,287 Q34.5688,287 35.1938,287.25 Q35.8188,287.5 36.35,288 Z " fill="#000000"/><text fill="#000000" font-family="sans-serif" font-size="14" lengthAdjust="spacing" textLength="110" x="49.65" y="297.2285">VaccinatedToFile</text><line style="stroke:#181818;stroke-width:0.5;" x1="14.5" x2="167.5" y1="307.5" y2="307.5"/><text fill="#000000" font-family="sans-serif" font-size="14" lengthAdjust="spacing" textLength="113" x="19.5" y="326.0332">List listVaccinated</text><text fill="#000000" font-family="sans-serif" font-size="14" lengthAdjust="spacing" textLength="143" x="19.5" y="343.6426">List listFullyVaccinated</text></g><!--MD5=[de60e6d4f424ae4d0522096f76a59010]
class VaccinationCenter--><g id="elem_VaccinationCenter"><rect codeLine="13" fill="#F1F1F1" height="216.0938" id="VaccinationCenter" rx="2.5" ry="2.5" style="stroke:#181818;stroke-width:0.5;" width="168" x="7" y="7"/><ellipse cx="31" cy="23" fill="#ADD1B2" rx="11" ry="11" style="stroke:#181818;stroke-width:1.0;"/><path d="M33,19.5 Q33.2031,19 33.4375,18.75 Q33.6719,18.5 33.9375,18.5 Q34.4063,18.5 34.7031,18.7813 Q35,19.0625 35,19.7188 L35,21.2813 Q35,21.9375 34.7188,22.2188 Q34.4375,22.5 34,22.5 Q33.6094,22.5 33.3594,22.3281 Q33.1094,22.1563 33,21.7031 Q32.9531,21.3906 32.7813,21.2188 Q32.4688,20.8906 31.9063,20.7031 Q31.3438,20.5 30.7813,20.5 Q30.0781,20.5 29.4844,20.7813 Q28.9063,21.0625 28.4531,21.6875 Q28,22.3125 28,23.1719 L28,24.0938 Q28,25.125 28.8438,25.8125 Q29.6875,26.5 31.1875,26.5 Q32.0781,26.5 32.7031,26.2969 Q33.0625,26.1875 33.4688,25.8281 Q33.7344,25.625 33.875,25.5625 Q34.0156,25.5 34.1875,25.5 Q34.5156,25.5 34.75,25.7656 Q35,26.0156 35,26.375 Q35,26.7188 34.6563,27.125 Q34.1563,27.7188 33.3594,28.0469 Q32.3125,28.5 31.0313,28.5 Q29.5313,28.5 28.3281,27.9063 Q27.3594,27.4375 26.6719,26.4219 Q26,25.4063 26,24.2031 L26,23.1094 Q26,21.8594 26.5938,20.7656 Q27.2031,19.6719 28.25,19.0938 Q29.3125,18.5 30.5,18.5 Q31.2188,18.5 31.8438,18.75 Q32.4688,19 33,19.5 Z " fill="#000000"/><text fill="#000000" font-family="sans-serif" font-size="14" lengthAdjust="spacing" textLength="116" x="47" y="28.7285">VaccinationCenter</text><line style="stroke:#181818;stroke-width:0.5;" x1="8" x2="174" y1="39" y2="39"/><text fill="#000000" font-family="sans-serif" font-size="14" lengthAdjust="spacing" textLength="35" x="13" y="57.5332">name</text><text fill="#000000" font-family="sans-serif" font-size="14" lengthAdjust="spacing" textLength="89" x="13" y="75.1426">phoneNumber</text><text fill="#000000" font-family="sans-serif" font-size="14" lengthAdjust="spacing" textLength="67" x="13" y="92.752">faxNumber</text><text fill="#000000" font-family="sans-serif" font-size="14" lengthAdjust="spacing" textLength="87" x="13" y="110.3613">homeAddress</text><text fill="#000000" font-family="sans-serif" font-size="14" lengthAdjust="spacing" textLength="85" x="13" y="127.9707">emailAddress</text><text fill="#000000" font-family="sans-serif" font-size="14" lengthAdjust="spacing" textLength="99" x="13" y="145.5801">websiteAddress</text><text fill="#000000" font-family="sans-serif" font-size="14" lengthAdjust="spacing" textLength="88" x="13" y="163.1895">openingHours</text><text fill="#000000" font-family="sans-serif" font-size="14" lengthAdjust="spacing" textLength="81" x="13" y="180.7988">closingHours</text><text fill="#000000" font-family="sans-serif" font-size="14" lengthAdjust="spacing" textLength="76" x="13" y="198.4082">slotDuration</text><text fill="#000000" font-family="sans-serif" font-size="14" lengthAdjust="spacing" textLength="156" x="13" y="216.0176">maxNumVaccinesPerSlot</text></g><!--MD5=[2d935fd2dd068a13da1ae531f9857c4f]
class CenterCoordinator--><g id="elem_CenterCoordinator"><rect codeLine="26" fill="#F1F1F1" height="40" id="CenterCoordinator" rx="2.5" ry="2.5" style="stroke:#181818;stroke-width:0.5;" width="150" x="680" y="54"/><ellipse cx="695" cy="70" fill="#ADD1B2" rx="11" ry="11" style="stroke:#181818;stroke-width:1.0;"/><path d="M697,66.5 Q697.2031,66 697.4375,65.75 Q697.6719,65.5 697.9375,65.5 Q698.4063,65.5 698.7031,65.7813 Q699,66.0625 699,66.7188 L699,68.2813 Q699,68.9375 698.7188,69.2188 Q698.4375,69.5 698,69.5 Q697.6094,69.5 697.3594,69.3281 Q697.1094,69.1563 697,68.7031 Q696.9531,68.3906 696.7813,68.2188 Q696.4688,67.8906 695.9063,67.7031 Q695.3438,67.5 694.7813,67.5 Q694.0781,67.5 693.4844,67.7813 Q692.9063,68.0625 692.4531,68.6875 Q692,69.3125 692,70.1719 L692,71.0938 Q692,72.125 692.8438,72.8125 Q693.6875,73.5 695.1875,73.5 Q696.0781,73.5 696.7031,73.2969 Q697.0625,73.1875 697.4688,72.8281 Q697.7344,72.625 697.875,72.5625 Q698.0156,72.5 698.1875,72.5 Q698.5156,72.5 698.75,72.7656 Q699,73.0156 699,73.375 Q699,73.7188 698.6563,74.125 Q698.1563,74.7188 697.3594,75.0469 Q696.3125,75.5 695.0313,75.5 Q693.5313,75.5 692.3281,74.9063 Q691.3594,74.4375 690.6719,73.4219 Q690,72.4063 690,71.2031 L690,70.1094 Q690,68.8594 690.5938,67.7656 Q691.2031,66.6719 692.25,66.0938 Q693.3125,65.5 694.5,65.5 Q695.2188,65.5 695.8438,65.75 Q696.4688,66 697,66.5 Z " fill="#000000"/><text fill="#000000" font-family="sans-serif" font-size="14" lengthAdjust="spacing" textLength="118" x="709" y="75.7285">CenterCoordinator</text><line style="stroke:#181818;stroke-width:0.5;" x1="681" x2="829" y1="86" y2="86"/></g><!--MD5=[02e4b9b7573f1156f41e60aa5b4e25a4]
class Company--><g id="elem_Company"><rect codeLine="31" fill="#F1F1F1" height="57.6094" id="Company" rx="2.5" ry="2.5" style="stroke:#181818;stroke-width:0.5;" width="92" x="527" y="127"/><ellipse cx="542" cy="143" fill="#ADD1B2" rx="11" ry="11" style="stroke:#181818;stroke-width:1.0;"/><path d="M544,139.5 Q544.2031,139 544.4375,138.75 Q544.6719,138.5 544.9375,138.5 Q545.4063,138.5 545.7031,138.7813 Q546,139.0625 546,139.7188 L546,141.2813 Q546,141.9375 545.7188,142.2188 Q545.4375,142.5 545,142.5 Q544.6094,142.5 544.3594,142.3281 Q544.1094,142.1563 544,141.7031 Q543.9531,141.3906 543.7813,141.2188 Q543.4688,140.8906 542.9063,140.7031 Q542.3438,140.5 541.7813,140.5 Q541.0781,140.5 540.4844,140.7813 Q539.9063,141.0625 539.4531,141.6875 Q539,142.3125 539,143.1719 L539,144.0938 Q539,145.125 539.8438,145.8125 Q540.6875,146.5 542.1875,146.5 Q543.0781,146.5 543.7031,146.2969 Q544.0625,146.1875 544.4688,145.8281 Q544.7344,145.625 544.875,145.5625 Q545.0156,145.5 545.1875,145.5 Q545.5156,145.5 545.75,145.7656 Q546,146.0156 546,146.375 Q546,146.7188 545.6563,147.125 Q545.1563,147.7188 544.3594,148.0469 Q543.3125,148.5 542.0313,148.5 Q540.5313,148.5 539.3281,147.9063 Q538.3594,147.4375 537.6719,146.4219 Q537,145.4063 537,144.2031 L537,143.1094 Q537,141.8594 537.5938,140.7656 Q538.2031,139.6719 539.25,139.0938 Q540.3125,138.5 541.5,138.5 Q542.2188,138.5 542.8438,138.75 Q543.4688,139 544,139.5 Z " fill="#000000"/><text fill="#000000" font-family="sans-serif" font-size="14" lengthAdjust="spacing" textLength="60" x="556" y="148.7285">Company</text><line style="stroke:#181818;stroke-width:0.5;" x1="528" x2="618" y1="159" y2="159"/><text fill="#000000" font-family="sans-serif" font-size="14" lengthAdjust="spacing" textLength="73" x="533" y="177.5332">designation</text></g><!--MD5=[5851f7c9d74f2a17f4f975cda607b55e]
link VaccinationCenter to VaccinatedToFile--><g id="link_VaccinationCenter_VaccinatedToFile"><path codeLine="11" d="M91,223.1 C91,241.84 91,260.14 91,275.29 " fill="none" id="VaccinationCenter-VaccinatedToFile" style="stroke:#181818;stroke-width:1.0;"/><polygon fill="#000000" points="50,254.4258,52.9389,245.3807,47.0611,245.3807,50,254.4258" style="stroke:#000000;stroke-width:1.0;"/><text fill="#000000" font-family="sans-serif" font-size="13" lengthAdjust="spacing" textLength="53" x="59" y="254.7451">produces</text><text fill="#000000" font-family="sans-serif" font-size="13" lengthAdjust="spacing" textLength="7" x="83.7539" y="244.7675">1</text><text fill="#000000" font-family="sans-serif" font-size="13" lengthAdjust="spacing" textLength="5" x="85.5547" y="264.6549">*</text></g><!--MD5=[8d58cf1c2119791001cf5144e9295faa]
link VaccinationCenter to CenterCoordinator--><g id="link_VaccinationCenter_CenterCoordinator"><path codeLine="29" d="M175.19,101.47 C185.21,100.14 195.32,98.94 205,98 C374.27,81.61 573.98,76.41 679.68,74.76 " fill="none" id="VaccinationCenter-CenterCoordinator" style="stroke:#181818;stroke-width:1.0;"/><polygon fill="#000000" points="334.007,70.4401,343.1948,72.8967,342.884,67.0271,334.007,70.4401" style="stroke:#000000;stroke-width:1.0;"/><text fill="#000000" font-family="sans-serif" font-size="13" lengthAdjust="spacing" textLength="148" x="348" y="75.4951">coordinates and analyzes</text><text fill="#000000" font-family="sans-serif" font-size="13" lengthAdjust="spacing" textLength="7" x="182.9999" y="114.4841">1</text><text fill="#000000" font-family="sans-serif" font-size="13" lengthAdjust="spacing" textLength="7" x="664.9212" y="89.1347">1</text></g><!--MD5=[98843e815386fb19a65c4c349019f4be]
link VaccinationCenter to Company--><g id="link_VaccinationCenter_Company"><path codeLine="35" d="M175.06,122.09 C277.03,130.8 446.29,145.26 526.79,152.14 " fill="none" id="VaccinationCenter-Company" style="stroke:#181818;stroke-width:1.0;"/><polygon fill="#000000" points="236.0181,117.7502,244.7802,121.4484,245.2806,115.5919,236.0181,117.7502" style="stroke:#000000;stroke-width:1.0;"/><text fill="#000000" font-family="sans-serif" font-size="13" lengthAdjust="spacing" textLength="53" x="250" y="123.4951">manages</text><text fill="#000000" font-family="sans-serif" font-size="13" lengthAdjust="spacing" textLength="5" x="183.0398" y="136.9881">*</text><text fill="#000000" font-family="sans-serif" font-size="13" lengthAdjust="spacing" textLength="7" x="511.8675" y="166.3541">1</text></g><!--MD5=[830ca9c9c6a7a654c838f7d192ed160c]
@startuml
hide methods
left to right direction
skinparam classAttributeIconSize 0


class VaccinatedToFile{
List listVaccinated
List listFullyVaccinated
}

VaccinationCenter "1"-right-"*" VaccinatedToFile : produces >

class VaccinationCenter{
name
phoneNumber
faxNumber
homeAddress
emailAddress
websiteAddress
openingHours
closingHours
slotDuration
maxNumVaccinesPerSlot
}

class CenterCoordinator{
}

CenterCoordinator "1" -up- - - "1" VaccinationCenter : coordinates and analyzes >

class Company{
designation
}

Company "1" -up- - "*" VaccinationCenter : manages >


@enduml

PlantUML version 1.2022.5(Sat Apr 30 11:55:52 BST 2022)
(GPL source distribution)
Java Runtime: OpenJDK Runtime Environment
JVM: OpenJDK 64-Bit Server VM
Default Encoding: Cp1252
Language: en
Country: GB
--></g></svg>