<?xml version="1.0" encoding="UTF-8" standalone="no"?><svg xmlns="http://www.w3.org/2000/svg" xmlns:xlink="http://www.w3.org/1999/xlink" contentStyleType="text/css" height="940px" preserveAspectRatio="none" style="width:323px;height:940px;background:#FFFFFF;" version="1.1" viewBox="0 0 323 940" width="323px" zoomAndPan="magnify"><defs/><g><!--MD5=[0b4e4b4980470ea387cc45de9bd14b5b]
class Application--><g id="elem_Application"><rect codeLine="3" fill="#F1F1F1" height="83.2188" id="Application" rx="2.5" ry="2.5" style="stroke:#181818;stroke-width:0.5;" width="140" x="7" y="313"/><ellipse cx="39.55" cy="329" fill="#ADD1B2" rx="11" ry="11" style="stroke:#181818;stroke-width:1.0;"/><path d="M41.55,325.5 Q41.7531,325 41.9875,324.75 Q42.2219,324.5 42.4875,324.5 Q42.9563,324.5 43.2531,324.7813 Q43.55,325.0625 43.55,325.7188 L43.55,327.2813 Q43.55,327.9375 43.2688,328.2188 Q42.9875,328.5 42.55,328.5 Q42.1594,328.5 41.9094,328.3281 Q41.6594,328.1563 41.55,327.7031 Q41.5031,327.3906 41.3313,327.2188 Q41.0188,326.8906 40.4563,326.7031 Q39.8938,326.5 39.3313,326.5 Q38.6281,326.5 38.0344,326.7813 Q37.4563,327.0625 37.0031,327.6875 Q36.55,328.3125 36.55,329.1719 L36.55,330.0938 Q36.55,331.125 37.3938,331.8125 Q38.2375,332.5 39.7375,332.5 Q40.6281,332.5 41.2531,332.2969 Q41.6125,332.1875 42.0188,331.8281 Q42.2844,331.625 42.425,331.5625 Q42.5656,331.5 42.7375,331.5 Q43.0656,331.5 43.3,331.7656 Q43.55,332.0156 43.55,332.375 Q43.55,332.7188 43.2063,333.125 Q42.7063,333.7188 41.9094,334.0469 Q40.8625,334.5 39.5813,334.5 Q38.0813,334.5 36.8781,333.9063 Q35.9094,333.4375 35.2219,332.4219 Q34.55,331.4063 34.55,330.2031 L34.55,329.1094 Q34.55,327.8594 35.1438,326.7656 Q35.7531,325.6719 36.8,325.0938 Q37.8625,324.5 39.05,324.5 Q39.7688,324.5 40.3938,324.75 Q41.0188,325 41.55,325.5 Z " fill="#000000"/><text fill="#000000" font-family="sans-serif" font-size="14" lengthAdjust="spacing" textLength="69" x="57.45" y="334.7285">Application</text><line style="stroke:#181818;stroke-width:0.5;" x1="8" x2="146" y1="345" y2="345"/><line style="stroke:#181818;stroke-width:0.5;" x1="8" x2="146" y1="353" y2="353"/><text fill="#000000" font-family="sans-serif" font-size="14" lengthAdjust="spacing" textLength="128" x="13" y="371.5332">+static getInstance()</text><text fill="#000000" font-family="sans-serif" font-size="14" lengthAdjust="spacing" textLength="98" x="13" y="389.1426">+getCompany()</text></g><!--MD5=[f0cdd93ff93dc9df59898fb811f200bc]
class VaccinatedToFile--><g id="elem_VaccinatedToFile"><rect codeLine="10" fill="#F1F1F1" height="171.2656" id="VaccinatedToFile" rx="2.5" ry="2.5" style="stroke:#181818;stroke-width:0.5;" width="233" x="76.5" y="762"/><ellipse cx="133.75" cy="778" fill="#ADD1B2" rx="11" ry="11" style="stroke:#181818;stroke-width:1.0;"/><path d="M135.75,774.5 Q135.9531,774 136.1875,773.75 Q136.4219,773.5 136.6875,773.5 Q137.1563,773.5 137.4531,773.7813 Q137.75,774.0625 137.75,774.7188 L137.75,776.2813 Q137.75,776.9375 137.4688,777.2188 Q137.1875,777.5 136.75,777.5 Q136.3594,777.5 136.1094,777.3281 Q135.8594,777.1563 135.75,776.7031 Q135.7031,776.3906 135.5313,776.2188 Q135.2188,775.8906 134.6563,775.7031 Q134.0938,775.5 133.5313,775.5 Q132.8281,775.5 132.2344,775.7813 Q131.6563,776.0625 131.2031,776.6875 Q130.75,777.3125 130.75,778.1719 L130.75,779.0938 Q130.75,780.125 131.5938,780.8125 Q132.4375,781.5 133.9375,781.5 Q134.8281,781.5 135.4531,781.2969 Q135.8125,781.1875 136.2188,780.8281 Q136.4844,780.625 136.625,780.5625 Q136.7656,780.5 136.9375,780.5 Q137.2656,780.5 137.5,780.7656 Q137.75,781.0156 137.75,781.375 Q137.75,781.7188 137.4063,782.125 Q136.9063,782.7188 136.1094,783.0469 Q135.0625,783.5 133.7813,783.5 Q132.2813,783.5 131.0781,782.9063 Q130.1094,782.4375 129.4219,781.4219 Q128.75,780.4063 128.75,779.2031 L128.75,778.1094 Q128.75,776.8594 129.3438,775.7656 Q129.9531,774.6719 131,774.0938 Q132.0625,773.5 133.25,773.5 Q133.9688,773.5 134.5938,773.75 Q135.2188,774 135.75,774.5 Z " fill="#000000"/><text fill="#000000" font-family="sans-serif" font-size="14" lengthAdjust="spacing" textLength="110" x="154.25" y="783.7285">VaccinatedToFile</text><line style="stroke:#181818;stroke-width:0.5;" x1="77.5" x2="308.5" y1="794" y2="794"/><text fill="#000000" font-family="sans-serif" font-size="14" lengthAdjust="spacing" textLength="61" x="82.5" y="812.5332">-HEADER</text><text fill="#000000" font-family="sans-serif" font-size="14" lengthAdjust="spacing" textLength="148" x="82.5" y="830.1426">-List listFullyVaccinated</text><text fill="#000000" font-family="sans-serif" font-size="14" lengthAdjust="spacing" textLength="118" x="82.5" y="847.752">-List listVaccinated</text><line style="stroke:#181818;stroke-width:0.5;" x1="77.5" x2="308.5" y1="854.8281" y2="854.8281"/><text fill="#000000" font-family="sans-serif" font-size="14" lengthAdjust="spacing" textLength="221" x="82.5" y="873.3613">+validateFileName(String fileName)</text><text fill="#000000" font-family="sans-serif" font-size="14" lengthAdjust="spacing" textLength="189" x="82.5" y="890.9707">+getFullyVaccinatedPatients()</text><text fill="#000000" font-family="sans-serif" font-size="14" lengthAdjust="spacing" textLength="130" x="82.5" y="908.5801">+getListVaccinated()</text><text fill="#000000" font-family="sans-serif" font-size="14" lengthAdjust="spacing" textLength="182" x="82.5" y="926.1895">+writeToFile(String fileName)</text></g><!--MD5=[02e4b9b7573f1156f41e60aa5b4e25a4]
class Company--><g id="elem_Company"><rect codeLine="22" fill="#F1F1F1" height="83.2188" id="Company" rx="2.5" ry="2.5" style="stroke:#181818;stroke-width:0.5;" width="195" x="16.5" y="457"/><ellipse cx="79.75" cy="473" fill="#ADD1B2" rx="11" ry="11" style="stroke:#181818;stroke-width:1.0;"/><path d="M81.75,469.5 Q81.9531,469 82.1875,468.75 Q82.4219,468.5 82.6875,468.5 Q83.1563,468.5 83.4531,468.7813 Q83.75,469.0625 83.75,469.7188 L83.75,471.2813 Q83.75,471.9375 83.4688,472.2188 Q83.1875,472.5 82.75,472.5 Q82.3594,472.5 82.1094,472.3281 Q81.8594,472.1563 81.75,471.7031 Q81.7031,471.3906 81.5313,471.2188 Q81.2188,470.8906 80.6563,470.7031 Q80.0938,470.5 79.5313,470.5 Q78.8281,470.5 78.2344,470.7813 Q77.6563,471.0625 77.2031,471.6875 Q76.75,472.3125 76.75,473.1719 L76.75,474.0938 Q76.75,475.125 77.5938,475.8125 Q78.4375,476.5 79.9375,476.5 Q80.8281,476.5 81.4531,476.2969 Q81.8125,476.1875 82.2188,475.8281 Q82.4844,475.625 82.625,475.5625 Q82.7656,475.5 82.9375,475.5 Q83.2656,475.5 83.5,475.7656 Q83.75,476.0156 83.75,476.375 Q83.75,476.7188 83.4063,477.125 Q82.9063,477.7188 82.1094,478.0469 Q81.0625,478.5 79.7813,478.5 Q78.2813,478.5 77.0781,477.9063 Q76.1094,477.4375 75.4219,476.4219 Q74.75,475.4063 74.75,474.2031 L74.75,473.1094 Q74.75,471.8594 75.3438,470.7656 Q75.9531,469.6719 77,469.0938 Q78.0625,468.5 79.25,468.5 Q79.9688,468.5 80.5938,468.75 Q81.2188,469 81.75,469.5 Z " fill="#000000"/><text fill="#000000" font-family="sans-serif" font-size="14" lengthAdjust="spacing" textLength="60" x="100.25" y="478.7285">Company</text><line style="stroke:#181818;stroke-width:0.5;" x1="17.5" x2="210.5" y1="489" y2="489"/><line style="stroke:#181818;stroke-width:0.5;" x1="17.5" x2="210.5" y1="497" y2="497"/><text fill="#000000" font-family="sans-serif" font-size="14" lengthAdjust="spacing" textLength="148" x="22.5" y="515.5332">+getVaccinatedToFile()</text><text fill="#000000" font-family="sans-serif" font-size="14" lengthAdjust="spacing" textLength="183" x="22.5" y="533.1426">+getUsersVaccineSchedule()</text></g><!--MD5=[de60e6d4f424ae4d0522096f76a59010]
class VaccinationCenter--><g id="elem_VaccinationCenter"><rect codeLine="30" fill="#F1F1F1" height="65.6094" id="VaccinationCenter" rx="2.5" ry="2.5" style="stroke:#181818;stroke-width:0.5;" width="207" x="10.5" y="618"/><ellipse cx="52.05" cy="634" fill="#ADD1B2" rx="11" ry="11" style="stroke:#181818;stroke-width:1.0;"/><path d="M54.05,630.5 Q54.2531,630 54.4875,629.75 Q54.7219,629.5 54.9875,629.5 Q55.4563,629.5 55.7531,629.7813 Q56.05,630.0625 56.05,630.7188 L56.05,632.2813 Q56.05,632.9375 55.7688,633.2188 Q55.4875,633.5 55.05,633.5 Q54.6594,633.5 54.4094,633.3281 Q54.1594,633.1563 54.05,632.7031 Q54.0031,632.3906 53.8313,632.2188 Q53.5188,631.8906 52.9563,631.7031 Q52.3938,631.5 51.8313,631.5 Q51.1281,631.5 50.5344,631.7813 Q49.9563,632.0625 49.5031,632.6875 Q49.05,633.3125 49.05,634.1719 L49.05,635.0938 Q49.05,636.125 49.8938,636.8125 Q50.7375,637.5 52.2375,637.5 Q53.1281,637.5 53.7531,637.2969 Q54.1125,637.1875 54.5188,636.8281 Q54.7844,636.625 54.925,636.5625 Q55.0656,636.5 55.2375,636.5 Q55.5656,636.5 55.8,636.7656 Q56.05,637.0156 56.05,637.375 Q56.05,637.7188 55.7063,638.125 Q55.2063,638.7188 54.4094,639.0469 Q53.3625,639.5 52.0813,639.5 Q50.5813,639.5 49.3781,638.9063 Q48.4094,638.4375 47.7219,637.4219 Q47.05,636.4063 47.05,635.2031 L47.05,634.1094 Q47.05,632.8594 47.6438,631.7656 Q48.2531,630.6719 49.3,630.0938 Q50.3625,629.5 51.55,629.5 Q52.2688,629.5 52.8938,629.75 Q53.5188,630 54.05,630.5 Z " fill="#000000"/><text fill="#000000" font-family="sans-serif" font-size="14" lengthAdjust="spacing" textLength="116" x="71.95" y="639.7285">VaccinationCenter</text><line style="stroke:#181818;stroke-width:0.5;" x1="11.5" x2="216.5" y1="650" y2="650"/><line style="stroke:#181818;stroke-width:0.5;" x1="11.5" x2="216.5" y1="658" y2="658"/><text fill="#000000" font-family="sans-serif" font-size="14" lengthAdjust="spacing" textLength="195" x="16.5" y="676.5332">getListAdministratedVaccines()</text></g><!--MD5=[26cd54ac621a6335ea55c154291bfe49]
class VaccinatedToFileController--><g id="elem_VaccinatedToFileController"><rect codeLine="35" fill="#F1F1F1" height="136.0469" id="VaccinatedToFileController" rx="2.5" ry="2.5" style="stroke:#181818;stroke-width:0.5;" width="233" x="83.5" y="116"/><ellipse cx="111.55" cy="132" fill="#ADD1B2" rx="11" ry="11" style="stroke:#181818;stroke-width:1.0;"/><path d="M113.55,128.5 Q113.7531,128 113.9875,127.75 Q114.2219,127.5 114.4875,127.5 Q114.9563,127.5 115.2531,127.7813 Q115.55,128.0625 115.55,128.7188 L115.55,130.2813 Q115.55,130.9375 115.2688,131.2188 Q114.9875,131.5 114.55,131.5 Q114.1594,131.5 113.9094,131.3281 Q113.6594,131.1563 113.55,130.7031 Q113.5031,130.3906 113.3313,130.2188 Q113.0188,129.8906 112.4563,129.7031 Q111.8938,129.5 111.3313,129.5 Q110.6281,129.5 110.0344,129.7813 Q109.4563,130.0625 109.0031,130.6875 Q108.55,131.3125 108.55,132.1719 L108.55,133.0938 Q108.55,134.125 109.3938,134.8125 Q110.2375,135.5 111.7375,135.5 Q112.6281,135.5 113.2531,135.2969 Q113.6125,135.1875 114.0188,134.8281 Q114.2844,134.625 114.425,134.5625 Q114.5656,134.5 114.7375,134.5 Q115.0656,134.5 115.3,134.7656 Q115.55,135.0156 115.55,135.375 Q115.55,135.7188 115.2063,136.125 Q114.7063,136.7188 113.9094,137.0469 Q112.8625,137.5 111.5813,137.5 Q110.0813,137.5 108.8781,136.9063 Q107.9094,136.4375 107.2219,135.4219 Q106.55,134.4063 106.55,133.2031 L106.55,132.1094 Q106.55,130.8594 107.1438,129.7656 Q107.7531,128.6719 108.8,128.0938 Q109.8625,127.5 111.05,127.5 Q111.7688,127.5 112.3938,127.75 Q113.0188,128 113.55,128.5 Z " fill="#000000"/><text fill="#000000" font-family="sans-serif" font-size="14" lengthAdjust="spacing" textLength="172" x="128.45" y="137.7285">VaccinatedToFileController</text><line style="stroke:#181818;stroke-width:0.5;" x1="84.5" x2="315.5" y1="148" y2="148"/><text fill="#000000" font-family="sans-serif" font-size="14" lengthAdjust="spacing" textLength="71" x="89.5" y="166.5332">-App oApp;</text><text fill="#000000" font-family="sans-serif" font-size="14" lengthAdjust="spacing" textLength="137" x="89.5" y="184.1426">-Company oCompany</text><line style="stroke:#181818;stroke-width:0.5;" x1="84.5" x2="315.5" y1="191.2188" y2="191.2188"/><text fill="#000000" font-family="sans-serif" font-size="14" lengthAdjust="spacing" textLength="203" x="89.5" y="209.752">+getListAdministratedVaccines()</text><text fill="#000000" font-family="sans-serif" font-size="14" lengthAdjust="spacing" textLength="221" x="89.5" y="227.3613">+validateFileName(String fileName)</text><text fill="#000000" font-family="sans-serif" font-size="14" lengthAdjust="spacing" textLength="182" x="89.5" y="244.9707">+writeToFile(String fileName)</text></g><!--MD5=[b5cf3a970c62c4c72adf6278a268922e]
class VaccinatedToFileUI--><g id="elem_VaccinatedToFileUI"><rect codeLine="44" fill="#F1F1F1" height="48" id="VaccinatedToFileUI" rx="2.5" ry="2.5" style="stroke:#181818;stroke-width:0.5;" width="154" x="123" y="7"/><ellipse cx="138" cy="23" fill="#ADD1B2" rx="11" ry="11" style="stroke:#181818;stroke-width:1.0;"/><path d="M140,19.5 Q140.2031,19 140.4375,18.75 Q140.6719,18.5 140.9375,18.5 Q141.4063,18.5 141.7031,18.7813 Q142,19.0625 142,19.7188 L142,21.2813 Q142,21.9375 141.7188,22.2188 Q141.4375,22.5 141,22.5 Q140.6094,22.5 140.3594,22.3281 Q140.1094,22.1563 140,21.7031 Q139.9531,21.3906 139.7813,21.2188 Q139.4688,20.8906 138.9063,20.7031 Q138.3438,20.5 137.7813,20.5 Q137.0781,20.5 136.4844,20.7813 Q135.9063,21.0625 135.4531,21.6875 Q135,22.3125 135,23.1719 L135,24.0938 Q135,25.125 135.8438,25.8125 Q136.6875,26.5 138.1875,26.5 Q139.0781,26.5 139.7031,26.2969 Q140.0625,26.1875 140.4688,25.8281 Q140.7344,25.625 140.875,25.5625 Q141.0156,25.5 141.1875,25.5 Q141.5156,25.5 141.75,25.7656 Q142,26.0156 142,26.375 Q142,26.7188 141.6563,27.125 Q141.1563,27.7188 140.3594,28.0469 Q139.3125,28.5 138.0313,28.5 Q136.5313,28.5 135.3281,27.9063 Q134.3594,27.4375 133.6719,26.4219 Q133,25.4063 133,24.2031 L133,23.1094 Q133,21.8594 133.5938,20.7656 Q134.2031,19.6719 135.25,19.0938 Q136.3125,18.5 137.5,18.5 Q138.2188,18.5 138.8438,18.75 Q139.4688,19 140,19.5 Z " fill="#000000"/><text fill="#000000" font-family="sans-serif" font-size="14" lengthAdjust="spacing" textLength="122" x="152" y="28.7285">VaccinatedToFileUI</text><line style="stroke:#181818;stroke-width:0.5;" x1="124" x2="276" y1="39" y2="39"/><line style="stroke:#181818;stroke-width:0.5;" x1="124" x2="276" y1="47" y2="47"/></g><!--MD5=[f7762b059c1ea0d299586cd19aa362d3]
link VaccinatedToFileUI to VaccinatedToFileController--><g id="link_VaccinatedToFileUI_VaccinatedToFileController"><path codeLine="49" d="M200,55.26 C200,70.29 200,90.72 200,110.84 " fill="none" id="VaccinatedToFileUI-to-VaccinatedToFileController" style="stroke:#181818;stroke-width:1.0;stroke-dasharray:7.0,7.0;"/><polygon fill="#181818" points="200,115.95,204,106.95,200,110.95,196,106.95,200,115.95" style="stroke:#181818;stroke-width:1.0;"/></g><!--MD5=[a9d21a7c836c16fe51be3c5c4ffaea74]
link VaccinatedToFileController to Company--><g id="link_VaccinatedToFileController_Company"><path codeLine="50" d="M193.55,252.23 C188.29,294.28 179.18,349.16 164,396 C157.86,414.96 148.73,434.83 139.95,451.92 " fill="none" id="VaccinatedToFileController-to-Company" style="stroke:#181818;stroke-width:1.0;stroke-dasharray:7.0,7.0;"/><polygon fill="#181818" points="137.48,456.66,145.1779,450.5165,139.7845,452.2227,138.0783,446.8293,137.48,456.66" style="stroke:#181818;stroke-width:1.0;"/></g><!--MD5=[267587719a64d6ce0125a7afb73cdd89]
link VaccinatedToFileController to Application--><g id="link_VaccinatedToFileController_Application"><path codeLine="51" d="M151.03,252.08 C137.2,271.03 122.48,291.19 109.84,308.51 " fill="none" id="VaccinatedToFileController-to-Application" style="stroke:#181818;stroke-width:1.0;stroke-dasharray:7.0,7.0;"/><polygon fill="#181818" points="106.68,312.85,115.2219,307.9473,109.6319,308.8144,108.7648,303.2243,106.68,312.85" style="stroke:#181818;stroke-width:1.0;"/></g><!--MD5=[aa87414629f40b8871c38fc4fdff0b84]
link Application to Company--><g id="link_Application_Company"><path codeLine="52" d="M87.6,396.19 C92.13,413.57 97.44,433.93 102.1,451.83 " fill="none" id="Application-to-Company" style="stroke:#181818;stroke-width:1.0;stroke-dasharray:7.0,7.0;"/><polygon fill="#181818" points="103.4,456.8,104.9835,447.0793,102.1303,451.9639,97.2457,449.1107,103.4,456.8" style="stroke:#181818;stroke-width:1.0;"/></g><!--MD5=[eebe9b198877275d05dd12630ed9e401]
link Company to VaccinationCenter--><g id="link_Company_VaccinationCenter"><path codeLine="53" d="M114,540.23 C114,562.79 114,590.65 114,612.65 " fill="none" id="Company-to-VaccinationCenter" style="stroke:#181818;stroke-width:1.0;"/><polygon fill="#181818" points="114,617.82,118,608.82,114,612.82,110,608.82,114,617.82" style="stroke:#181818;stroke-width:1.0;"/><text fill="#000000" font-family="sans-serif" font-size="13" lengthAdjust="spacing" textLength="37" x="115" y="584.4951">knows</text><text fill="#000000" font-family="sans-serif" font-size="13" lengthAdjust="spacing" textLength="7" x="106.4422" y="561.6614">1</text><text fill="#000000" font-family="sans-serif" font-size="13" lengthAdjust="spacing" textLength="5" x="108.4844" y="606.8983">*</text></g><!--MD5=[a7391fd0cb6a57d7a74efcd7a05b5ade]
link VaccinatedToFileController to VaccinatedToFile--><g id="link_VaccinatedToFileController_VaccinatedToFile"><path codeLine="54" d="M242.53,252.02 C257.65,281.91 271,318.26 271,353.5 C271,353.5 271,353.5 271,652 C271,687.89 259.42,725 245.18,757.06 " fill="none" id="VaccinatedToFileController-to-VaccinatedToFile" style="stroke:#181818;stroke-width:1.0;stroke-dasharray:7.0,7.0;"/><polygon fill="#181818" points="243.06,761.76,250.4087,755.2028,245.1172,757.2028,243.1171,751.9113,243.06,761.76" style="stroke:#181818;stroke-width:1.0;"/></g><!--MD5=[5851f7c9d74f2a17f4f975cda607b55e]
link VaccinationCenter to VaccinatedToFile--><g id="link_VaccinationCenter_VaccinatedToFile"><path codeLine="55" d="M127.05,684.12 C135.17,704.13 146.07,730.95 156.65,757.02 " fill="none" id="VaccinationCenter-to-VaccinatedToFile" style="stroke:#181818;stroke-width:1.0;"/><polygon fill="#181818" points="158.63,761.87,158.9493,752.0263,156.7485,757.2375,151.5373,755.0367,158.63,761.87" style="stroke:#181818;stroke-width:1.0;"/><text fill="#000000" font-family="sans-serif" font-size="13" lengthAdjust="spacing" textLength="53" x="148" y="728.4951">produces</text><text fill="#000000" font-family="sans-serif" font-size="13" lengthAdjust="spacing" textLength="7" x="121.7511" y="705.0057">1</text><text fill="#000000" font-family="sans-serif" font-size="13" lengthAdjust="spacing" textLength="5" x="150.3463" y="751.03">*</text></g><!--MD5=[374b15e1e38cb2605d7c51608d9e880e]
@startuml
skinparam classAttributeIconSize 0

class Application {
  +static getInstance()
  +getCompany()


}

class VaccinatedToFile {
-HEADER
-List listFullyVaccinated
-List listVaccinated

+validateFileName(String fileName)
+getFullyVaccinatedPatients()
+getListVaccinated()
+writeToFile(String fileName)
}


class Company {
+getVaccinatedToFile()
+getUsersVaccineSchedule()

}



class VaccinationCenter{
getListAdministratedVaccines()
}


class VaccinatedToFileController {
-App oApp;
-Company oCompany

+getListAdministratedVaccines()
+validateFileName(String fileName)
+writeToFile(String fileName)
}

class VaccinatedToFileUI {

}


VaccinatedToFileUI ..> VaccinatedToFileController
VaccinatedToFileController ..> Company
VaccinatedToFileController ..> Application
Application ..> Company
Company "1"- ->"*"VaccinationCenter :knows
VaccinatedToFileController ..> VaccinatedToFile
VaccinationCenter "1" - -> "*" VaccinatedToFile : produces




@enduml

PlantUML version 1.2022.5(Sat Apr 30 11:55:52 BST 2022)
(GPL source distribution)
Java Runtime: OpenJDK Runtime Environment
JVM: OpenJDK 64-Bit Server VM
Default Encoding: Cp1252
Language: en
Country: GB
--></g></svg>