<?xml version="1.0" encoding="UTF-8" standalone="no"?><svg xmlns="http://www.w3.org/2000/svg" xmlns:xlink="http://www.w3.org/1999/xlink" contentStyleType="text/css" height="876px" preserveAspectRatio="none" style="width:1381px;height:876px;background:#FFFFFF;" version="1.1" viewBox="0 0 1381 876" width="1381px" zoomAndPan="magnify"><defs/><g><rect fill="#FFFFFF" height="683.9766" style="stroke:#181818;stroke-width:1.0;" width="10" x="40.5" y="92.6094"/><rect fill="#FFFFFF" height="181.4063" style="stroke:#181818;stroke-width:1.0;" width="10" x="326.5" y="114.9609"/><rect fill="#FFFFFF" height="151.4063" style="stroke:#181818;stroke-width:1.0;" width="10" x="326.5" y="326.7188"/><rect fill="#FFFFFF" height="268.1094" style="stroke:#181818;stroke-width:1.0;" width="10" x="326.5" y="508.4766"/><rect fill="#FFFFFF" height="120.7031" style="stroke:#181818;stroke-width:1.0;" width="10" x="598.5" y="145.3125"/><rect fill="#FFFFFF" height="90.7031" style="stroke:#181818;stroke-width:1.0;" width="10" x="598.5" y="357.0703"/><rect fill="#FFFFFF" height="237.7578" style="stroke:#181818;stroke-width:1.0;" width="10" x="598.5" y="538.8281"/><rect fill="#FFFFFF" height="30" style="stroke:#181818;stroke-width:1.0;" width="10" x="750.5" y="175.6641"/><rect fill="#FFFFFF" height="30" style="stroke:#181818;stroke-width:1.0;" width="10" x="803.5" y="236.0156"/><rect fill="#FFFFFF" height="60.3516" style="stroke:#181818;stroke-width:1.0;" width="10" x="893" y="387.4219"/><rect fill="#FFFFFF" height="170.0547" style="stroke:#181818;stroke-width:1.0;" width="10" x="893" y="569.1797"/><rect fill="#FFFFFF" height="30" style="stroke:#181818;stroke-width:1.0;" width="10" x="1167" y="417.7734"/><rect fill="#FFFFFF" height="139.7031" style="stroke:#181818;stroke-width:1.0;" width="10" x="1167" y="599.5313"/><rect fill="#FFFFFF" height="28" style="stroke:#181818;stroke-width:1.0;" width="10" x="1172" y="637.8828"/><rect fill="#FFFFFF" height="28" style="stroke:#181818;stroke-width:1.0;" width="10" x="1172" y="711.2344"/><line style="stroke:#181818;stroke-width:0.5;stroke-dasharray:5.0,5.0;" x1="45" x2="45" y1="82.6094" y2="794.5859"/><line style="stroke:#181818;stroke-width:0.5;stroke-dasharray:5.0,5.0;" x1="331.5" x2="331.5" y1="82.6094" y2="794.5859"/><line style="stroke:#181818;stroke-width:0.5;stroke-dasharray:5.0,5.0;" x1="603.5" x2="603.5" y1="82.6094" y2="794.5859"/><line style="stroke:#181818;stroke-width:0.5;stroke-dasharray:5.0,5.0;" x1="755" x2="755" y1="82.6094" y2="794.5859"/><line style="stroke:#181818;stroke-width:0.5;stroke-dasharray:5.0,5.0;" x1="808" x2="808" y1="82.6094" y2="794.5859"/><line style="stroke:#181818;stroke-width:0.5;stroke-dasharray:5.0,5.0;" x1="898" x2="898" y1="82.6094" y2="794.5859"/><line style="stroke:#181818;stroke-width:0.5;stroke-dasharray:5.0,5.0;" x1="1031" x2="1031" y1="82.6094" y2="794.5859"/><line style="stroke:#181818;stroke-width:0.5;stroke-dasharray:5.0,5.0;" x1="1172" x2="1172" y1="82.6094" y2="794.5859"/><text fill="#000000" font-family="sans-serif" font-size="14" lengthAdjust="spacing" textLength="75" x="5" y="79.5332">Coordinator</text><ellipse cx="45.5" cy="13.5" fill="#E2E2F0" rx="8" ry="8" style="stroke:#181818;stroke-width:0.5;"/><path d="M45.5,21.5 L45.5,48.5 M32.5,29.5 L58.5,29.5 M45.5,48.5 L32.5,63.5 M45.5,48.5 L58.5,63.5 " fill="none" style="stroke:#181818;stroke-width:0.5;"/><text fill="#000000" font-family="sans-serif" font-size="14" lengthAdjust="spacing" textLength="75" x="5" y="808.1191">Coordinator</text><ellipse cx="45.5" cy="819.6953" fill="#E2E2F0" rx="8" ry="8" style="stroke:#181818;stroke-width:0.5;"/><path d="M45.5,827.6953 L45.5,854.6953 M32.5,835.6953 L58.5,835.6953 M45.5,854.6953 L32.5,869.6953 M45.5,854.6953 L58.5,869.6953 " fill="none" style="stroke:#181818;stroke-width:0.5;"/><rect fill="#E2E2F0" height="31.6094" rx="2.5" ry="2.5" style="stroke:#181818;stroke-width:0.5;" width="140" x="261.5" y="50"/><text fill="#000000" font-family="sans-serif" font-size="14" lengthAdjust="spacing" textLength="126" x="268.5" y="71.5332">:VaccinatedToFileUI</text><rect fill="#E2E2F0" height="31.6094" rx="2.5" ry="2.5" style="stroke:#181818;stroke-width:0.5;" width="140" x="261.5" y="793.5859"/><text fill="#000000" font-family="sans-serif" font-size="14" lengthAdjust="spacing" textLength="126" x="268.5" y="815.1191">:VaccinatedToFileUI</text><rect fill="#E2E2F0" height="31.6094" rx="2.5" ry="2.5" style="stroke:#181818;stroke-width:0.5;" width="190" x="508.5" y="50"/><text fill="#000000" font-family="sans-serif" font-size="14" lengthAdjust="spacing" textLength="176" x="515.5" y="71.5332">:VaccinatedToFileController</text><rect fill="#E2E2F0" height="31.6094" rx="2.5" ry="2.5" style="stroke:#181818;stroke-width:0.5;" width="190" x="508.5" y="793.5859"/><text fill="#000000" font-family="sans-serif" font-size="14" lengthAdjust="spacing" textLength="176" x="515.5" y="815.1191">:VaccinatedToFileController</text><rect fill="#E2E2F0" height="31.6094" rx="2.5" ry="2.5" style="stroke:#181818;stroke-width:0.5;" width="39" x="736" y="50"/><text fill="#000000" font-family="sans-serif" font-size="14" lengthAdjust="spacing" textLength="25" x="743" y="71.5332">App</text><rect fill="#E2E2F0" height="31.6094" rx="2.5" ry="2.5" style="stroke:#181818;stroke-width:0.5;" width="39" x="736" y="793.5859"/><text fill="#000000" font-family="sans-serif" font-size="14" lengthAdjust="spacing" textLength="25" x="743" y="815.1191">App</text><rect fill="#E2E2F0" height="49.2188" rx="2.5" ry="2.5" style="stroke:#181818;stroke-width:0.5;" width="47" x="785" y="32.3906"/><text fill="#000000" font-family="sans-serif" font-size="14" lengthAdjust="spacing" textLength="33" x="792" y="53.9238">oApp</text><text fill="#000000" font-family="sans-serif" font-size="14" lengthAdjust="spacing" textLength="29" x="794" y="71.5332">:App</text><rect fill="#E2E2F0" height="49.2188" rx="2.5" ry="2.5" style="stroke:#181818;stroke-width:0.5;" width="47" x="785" y="793.5859"/><text fill="#000000" font-family="sans-serif" font-size="14" lengthAdjust="spacing" textLength="33" x="792" y="815.1191">oApp</text><text fill="#000000" font-family="sans-serif" font-size="14" lengthAdjust="spacing" textLength="29" x="794" y="832.7285">:App</text><rect fill="#E2E2F0" height="31.6094" rx="2.5" ry="2.5" style="stroke:#181818;stroke-width:0.5;" width="112" x="842" y="50"/><text fill="#000000" font-family="sans-serif" font-size="14" lengthAdjust="spacing" textLength="98" x="849" y="71.5332">comp:Company</text><rect fill="#E2E2F0" height="31.6094" rx="2.5" ry="2.5" style="stroke:#181818;stroke-width:0.5;" width="112" x="842" y="793.5859"/><text fill="#000000" font-family="sans-serif" font-size="14" lengthAdjust="spacing" textLength="98" x="849" y="815.1191">comp:Company</text><rect fill="#E2E2F0" height="49.2188" rx="2.5" ry="2.5" style="stroke:#181818;stroke-width:0.5;" width="134" x="964" y="32.3906"/><text fill="#000000" font-family="sans-serif" font-size="14" lengthAdjust="spacing" textLength="21" x="1020.5" y="53.9238">vcs</text><text fill="#000000" font-family="sans-serif" font-size="14" lengthAdjust="spacing" textLength="120" x="971" y="71.5332">:VaccinationCenter</text><rect fill="#E2E2F0" height="49.2188" rx="2.5" ry="2.5" style="stroke:#181818;stroke-width:0.5;" width="134" x="964" y="793.5859"/><text fill="#000000" font-family="sans-serif" font-size="14" lengthAdjust="spacing" textLength="21" x="1020.5" y="815.1191">vcs</text><text fill="#000000" font-family="sans-serif" font-size="14" lengthAdjust="spacing" textLength="120" x="971" y="832.7285">:VaccinationCenter</text><rect fill="#E2E2F0" height="49.2188" rx="2.5" ry="2.5" style="stroke:#181818;stroke-width:0.5;" width="128" x="1108" y="32.3906"/><text fill="#000000" font-family="sans-serif" font-size="14" lengthAdjust="spacing" textLength="15" x="1164.5" y="53.9238">vtf</text><text fill="#000000" font-family="sans-serif" font-size="14" lengthAdjust="spacing" textLength="114" x="1115" y="71.5332">:VaccinatedToFile</text><rect fill="#E2E2F0" height="49.2188" rx="2.5" ry="2.5" style="stroke:#181818;stroke-width:0.5;" width="128" x="1108" y="793.5859"/><text fill="#000000" font-family="sans-serif" font-size="14" lengthAdjust="spacing" textLength="15" x="1164.5" y="815.1191">vtf</text><text fill="#000000" font-family="sans-serif" font-size="14" lengthAdjust="spacing" textLength="114" x="1115" y="832.7285">:VaccinatedToFile</text><rect fill="#FFFFFF" height="683.9766" style="stroke:#181818;stroke-width:1.0;" width="10" x="40.5" y="92.6094"/><rect fill="#FFFFFF" height="181.4063" style="stroke:#181818;stroke-width:1.0;" width="10" x="326.5" y="114.9609"/><rect fill="#FFFFFF" height="151.4063" style="stroke:#181818;stroke-width:1.0;" width="10" x="326.5" y="326.7188"/><rect fill="#FFFFFF" height="268.1094" style="stroke:#181818;stroke-width:1.0;" width="10" x="326.5" y="508.4766"/><rect fill="#FFFFFF" height="120.7031" style="stroke:#181818;stroke-width:1.0;" width="10" x="598.5" y="145.3125"/><rect fill="#FFFFFF" height="90.7031" style="stroke:#181818;stroke-width:1.0;" width="10" x="598.5" y="357.0703"/><rect fill="#FFFFFF" height="237.7578" style="stroke:#181818;stroke-width:1.0;" width="10" x="598.5" y="538.8281"/><rect fill="#FFFFFF" height="30" style="stroke:#181818;stroke-width:1.0;" width="10" x="750.5" y="175.6641"/><rect fill="#FFFFFF" height="30" style="stroke:#181818;stroke-width:1.0;" width="10" x="803.5" y="236.0156"/><rect fill="#FFFFFF" height="60.3516" style="stroke:#181818;stroke-width:1.0;" width="10" x="893" y="387.4219"/><rect fill="#FFFFFF" height="170.0547" style="stroke:#181818;stroke-width:1.0;" width="10" x="893" y="569.1797"/><rect fill="#FFFFFF" height="30" style="stroke:#181818;stroke-width:1.0;" width="10" x="1167" y="417.7734"/><rect fill="#FFFFFF" height="139.7031" style="stroke:#181818;stroke-width:1.0;" width="10" x="1167" y="599.5313"/><rect fill="#FFFFFF" height="28" style="stroke:#181818;stroke-width:1.0;" width="10" x="1172" y="637.8828"/><rect fill="#FFFFFF" height="28" style="stroke:#181818;stroke-width:1.0;" width="10" x="1172" y="711.2344"/><polygon fill="#181818" points="314.5,110.9609,324.5,114.9609,314.5,118.9609,318.5,114.9609" style="stroke:#181818;stroke-width:1.0;"/><line style="stroke:#181818;stroke-width:1.0;" x1="50.5" x2="320.5" y1="114.9609" y2="114.9609"/><text fill="#000000" font-family="sans-serif" font-size="13" font-weight="bold" lengthAdjust="spacing" textLength="7" x="57.5" y="110.1045">1</text><text fill="#000000" font-family="sans-serif" font-size="13" lengthAdjust="spacing" textLength="246" x="68.5" y="110.1045">asks to export fully vaccinated users to file</text><polygon fill="#181818" points="586.5,141.3125,596.5,145.3125,586.5,149.3125,590.5,145.3125" style="stroke:#181818;stroke-width:1.0;"/><line style="stroke:#181818;stroke-width:1.0;" x1="336.5" x2="592.5" y1="145.3125" y2="145.3125"/><text fill="#000000" font-family="sans-serif" font-size="13" font-weight="bold" lengthAdjust="spacing" textLength="7" x="343.5" y="140.4561">2</text><text fill="#000000" font-family="sans-serif" font-size="13" lengthAdjust="spacing" textLength="232" x="354.5" y="140.4561">controller = VaccinatedToFileController()</text><polygon fill="#181818" points="738.5,171.6641,748.5,175.6641,738.5,179.6641,742.5,175.6641" style="stroke:#181818;stroke-width:1.0;"/><line style="stroke:#181818;stroke-width:1.0;" x1="608.5" x2="744.5" y1="175.6641" y2="175.6641"/><text fill="#000000" font-family="sans-serif" font-size="13" font-weight="bold" lengthAdjust="spacing" textLength="7" x="615.5" y="170.8076">3</text><text fill="#000000" font-family="sans-serif" font-size="13" lengthAdjust="spacing" textLength="112" x="626.5" y="170.8076">app = getInstance()</text><polygon fill="#181818" points="791.5,232.0156,801.5,236.0156,791.5,240.0156,795.5,236.0156" style="stroke:#181818;stroke-width:1.0;"/><line style="stroke:#181818;stroke-width:1.0;" x1="608.5" x2="797.5" y1="236.0156" y2="236.0156"/><text fill="#000000" font-family="sans-serif" font-size="13" font-weight="bold" lengthAdjust="spacing" textLength="7" x="615.5" y="231.1592">4</text><text fill="#000000" font-family="sans-serif" font-size="13" lengthAdjust="spacing" textLength="150" x="626.5" y="231.1592">company = getCompany()</text><polygon fill="#181818" points="61.5,292.3672,51.5,296.3672,61.5,300.3672,57.5,296.3672" style="stroke:#181818;stroke-width:1.0;"/><line style="stroke:#181818;stroke-width:1.0;stroke-dasharray:2.0,2.0;" x1="55.5" x2="330.5" y1="296.3672" y2="296.3672"/><text fill="#000000" font-family="sans-serif" font-size="13" font-weight="bold" lengthAdjust="spacing" textLength="7" x="67.5" y="291.5107">5</text><text fill="#000000" font-family="sans-serif" font-size="13" lengthAdjust="spacing" textLength="141" x="78.5" y="291.5107">requests data (fileName)</text><polygon fill="#181818" points="314.5,322.7188,324.5,326.7188,314.5,330.7188,318.5,326.7188" style="stroke:#181818;stroke-width:1.0;"/><line style="stroke:#181818;stroke-width:1.0;" x1="50.5" x2="320.5" y1="326.7188" y2="326.7188"/><text fill="#000000" font-family="sans-serif" font-size="13" font-weight="bold" lengthAdjust="spacing" textLength="7" x="57.5" y="321.8623">6</text><text fill="#000000" font-family="sans-serif" font-size="13" lengthAdjust="spacing" textLength="122" x="68.5" y="321.8623">types requested data</text><polygon fill="#181818" points="586.5,353.0703,596.5,357.0703,586.5,361.0703,590.5,357.0703" style="stroke:#181818;stroke-width:1.0;"/><line style="stroke:#181818;stroke-width:1.0;" x1="336.5" x2="592.5" y1="357.0703" y2="357.0703"/><text fill="#000000" font-family="sans-serif" font-size="13" font-weight="bold" lengthAdjust="spacing" textLength="7" x="343.5" y="352.2139">7</text><text fill="#000000" font-family="sans-serif" font-size="13" lengthAdjust="spacing" textLength="156" x="354.5" y="352.2139">validateFileName(fileName)</text><polygon fill="#181818" points="881,383.4219,891,387.4219,881,391.4219,885,387.4219" style="stroke:#181818;stroke-width:1.0;"/><line style="stroke:#181818;stroke-width:1.0;" x1="608.5" x2="887" y1="387.4219" y2="387.4219"/><text fill="#000000" font-family="sans-serif" font-size="13" font-weight="bold" lengthAdjust="spacing" textLength="7" x="615.5" y="382.5654">8</text><text fill="#000000" font-family="sans-serif" font-size="13" lengthAdjust="spacing" textLength="156" x="626.5" y="382.5654">validateFileName(fileName)</text><polygon fill="#181818" points="1155,413.7734,1165,417.7734,1155,421.7734,1159,417.7734" style="stroke:#181818;stroke-width:1.0;"/><line style="stroke:#181818;stroke-width:1.0;" x1="903" x2="1161" y1="417.7734" y2="417.7734"/><text fill="#000000" font-family="sans-serif" font-size="13" font-weight="bold" lengthAdjust="spacing" textLength="7" x="910" y="412.917">9</text><text fill="#000000" font-family="sans-serif" font-size="13" lengthAdjust="spacing" textLength="156" x="921" y="412.917">validateFileName(fileName)</text><polygon fill="#181818" points="61.5,474.125,51.5,478.125,61.5,482.125,57.5,478.125" style="stroke:#181818;stroke-width:1.0;"/><line style="stroke:#181818;stroke-width:1.0;stroke-dasharray:2.0,2.0;" x1="55.5" x2="330.5" y1="478.125" y2="478.125"/><text fill="#000000" font-family="sans-serif" font-size="13" font-weight="bold" lengthAdjust="spacing" textLength="14" x="67.5" y="473.2686">10</text><text fill="#000000" font-family="sans-serif" font-size="13" lengthAdjust="spacing" textLength="152" x="85.5" y="473.2686">informs operation success</text><polygon fill="#181818" points="314.5,504.4766,324.5,508.4766,314.5,512.4766,318.5,508.4766" style="stroke:#181818;stroke-width:1.0;"/><line style="stroke:#181818;stroke-width:1.0;" x1="50.5" x2="320.5" y1="508.4766" y2="508.4766"/><text fill="#000000" font-family="sans-serif" font-size="13" font-weight="bold" lengthAdjust="spacing" textLength="14" x="57.5" y="503.6201">11</text><text fill="#000000" font-family="sans-serif" font-size="13" lengthAdjust="spacing" textLength="118" x="75.5" y="503.6201">asks to export to file</text><polygon fill="#181818" points="586.5,534.8281,596.5,538.8281,586.5,542.8281,590.5,538.8281" style="stroke:#181818;stroke-width:1.0;"/><line style="stroke:#181818;stroke-width:1.0;" x1="336.5" x2="592.5" y1="538.8281" y2="538.8281"/><text fill="#000000" font-family="sans-serif" font-size="13" font-weight="bold" lengthAdjust="spacing" textLength="14" x="343.5" y="533.9717">12</text><text fill="#000000" font-family="sans-serif" font-size="13" lengthAdjust="spacing" textLength="158" x="361.5" y="533.9717">writeToFile(String fileName)</text><polygon fill="#181818" points="881,565.1797,891,569.1797,881,573.1797,885,569.1797" style="stroke:#181818;stroke-width:1.0;"/><line style="stroke:#181818;stroke-width:1.0;" x1="608.5" x2="887" y1="569.1797" y2="569.1797"/><text fill="#000000" font-family="sans-serif" font-size="13" font-weight="bold" lengthAdjust="spacing" textLength="14" x="615.5" y="564.3232">13</text><text fill="#000000" font-family="sans-serif" font-size="13" lengthAdjust="spacing" textLength="158" x="633.5" y="564.3232">writeToFile(String fileName)</text><polygon fill="#181818" points="1155,595.5313,1165,599.5313,1155,603.5313,1159,599.5313" style="stroke:#181818;stroke-width:1.0;"/><line style="stroke:#181818;stroke-width:1.0;" x1="903" x2="1161" y1="599.5313" y2="599.5313"/><text fill="#000000" font-family="sans-serif" font-size="13" font-weight="bold" lengthAdjust="spacing" textLength="14" x="910" y="594.6748">14</text><text fill="#000000" font-family="sans-serif" font-size="13" lengthAdjust="spacing" textLength="158" x="928" y="594.6748">writeToFile(String fileName)</text><line style="stroke:#181818;stroke-width:1.0;" x1="1182" x2="1224" y1="629.8828" y2="629.8828"/><line style="stroke:#181818;stroke-width:1.0;" x1="1224" x2="1224" y1="629.8828" y2="642.8828"/><line style="stroke:#181818;stroke-width:1.0;" x1="1183" x2="1224" y1="642.8828" y2="642.8828"/><polygon fill="#181818" points="1193,638.8828,1183,642.8828,1193,646.8828,1189,642.8828" style="stroke:#181818;stroke-width:1.0;"/><text fill="#000000" font-family="sans-serif" font-size="13" font-weight="bold" lengthAdjust="spacing" textLength="14" x="1189" y="625.0264">15</text><text fill="#000000" font-family="sans-serif" font-size="13" lengthAdjust="spacing" textLength="112" x="1207" y="625.0264">getListVaccinated()</text><line style="stroke:#181818;stroke-width:1.0;" x1="1182" x2="1224" y1="703.2344" y2="703.2344"/><line style="stroke:#181818;stroke-width:1.0;" x1="1224" x2="1224" y1="703.2344" y2="716.2344"/><line style="stroke:#181818;stroke-width:1.0;" x1="1183" x2="1224" y1="716.2344" y2="716.2344"/><polygon fill="#181818" points="1193,712.2344,1183,716.2344,1193,720.2344,1189,716.2344" style="stroke:#181818;stroke-width:1.0;"/><text fill="#000000" font-family="sans-serif" font-size="13" font-weight="bold" lengthAdjust="spacing" textLength="14" x="1189" y="698.3779">16</text><text fill="#000000" font-family="sans-serif" font-size="13" lengthAdjust="spacing" textLength="167" x="1207" y="698.3779">getFullyVaccinatedPatients()</text><polygon fill="#181818" points="56.5,772.5859,46.5,776.5859,56.5,780.5859,52.5,776.5859" style="stroke:#181818;stroke-width:1.0;"/><line style="stroke:#181818;stroke-width:1.0;stroke-dasharray:2.0,2.0;" x1="50.5" x2="330.5" y1="776.5859" y2="776.5859"/><text fill="#000000" font-family="sans-serif" font-size="13" font-weight="bold" lengthAdjust="spacing" textLength="14" x="62.5" y="771.7295">17</text><text fill="#000000" font-family="sans-serif" font-size="13" lengthAdjust="spacing" textLength="165" x="80.5" y="771.7295">shows fully vaccinated users</text><!--MD5=[51cc180c5d6e30b2328937ebe8cf767f]
@startuml
autonumber

actor "Coordinator" as COO

participant ":VaccinatedToFileUI" as UI
participant ":VaccinatedToFileController" as CTRL
participant "App" as APP
participant "oApp\n:App" as oApp
participant "comp:Company" as COMP
participant "vcs\n:VaccinationCenter" as VC
participant "vtf\n:VaccinatedToFile" as VTF

activate COO
COO -> UI : asks to export fully vaccinated users to file
activate UI
UI -> CTRL : controller = VaccinatedToFileController()
activate CTRL
CTRL -> APP : app = getInstance()
activate APP
deactivate APP
CTRL -> oApp : company = getCompany()
activate oApp
deactivate oApp

deactivate CTRL

UI - -> COO : requests data (fileName)
deactivate UI

COO -> UI : types requested data
activate UI

UI -> CTRL : validateFileName(fileName)
activate CTRL

CTRL -> COMP : validateFileName(fileName)
activate COMP

COMP -> VTF : validateFileName(fileName)
activate VTF
deactivate VTF
deactivate COMP

deactivate CTRL

UI - -> COO : informs operation success

deactivate UI

COO -> UI : asks to export to file
activate UI

UI -> CTRL : writeToFile(String fileName)
activate CTRL

CTRL -> COMP : writeToFile(String fileName)
activate COMP

COMP -> VTF : writeToFile(String fileName)
activate VTF

VTF -> VTF : getListVaccinated()
activate VTF
deactivate VTF
VTF -> VTF : getFullyVaccinatedPatients()
activate VTF
deactivate VTF

deactivate VTF
deactivate VTF
deactivate COMP


UI - -> COO : shows fully vaccinated users
deactivate CTRL
deactivate UI

deactivate COO

@enduml

PlantUML version 1.2022.5(Sat Apr 30 11:55:52 BST 2022)
(GPL source distribution)
Java Runtime: OpenJDK Runtime Environment
JVM: OpenJDK 64-Bit Server VM
Default Encoding: Cp1252
Language: en
Country: GB
--></g></svg>