<?xml version="1.0" encoding="UTF-8" standalone="no"?><svg xmlns="http://www.w3.org/2000/svg" xmlns:xlink="http://www.w3.org/1999/xlink" contentScriptType="application/ecmascript" contentStyleType="text/css" height="368px" preserveAspectRatio="none" style="width:484px;height:368px;background:#FFFFFF;" version="1.1" viewBox="0 0 484 368" width="484px" zoomAndPan="magnify"><defs><filter height="300%" id="f172oausg58h26" width="300%" x="-1" y="-1"><feGaussianBlur result="blurOut" stdDeviation="2.0"/><feColorMatrix in="blurOut" result="blurOut2" type="matrix" values="0 0 0 0 0 0 0 0 0 0 0 0 0 0 0 0 0 0 .4 0"/><feOffset dx="4.0" dy="4.0" in="blurOut2" result="blurOut3"/><feBlend in="SourceGraphic" in2="blurOut3" mode="normal"/></filter></defs><g><rect fill="#FFFFFF" filter="url(#f172oausg58h26)" height="167.8633" style="stroke:#A80036;stroke-width:1.0;" width="10" x="50.5" y="98.4883"/><rect fill="#FFFFFF" filter="url(#f172oausg58h26)" height="29.3105" style="stroke:#A80036;stroke-width:1.0;" width="10" x="434.5" y="119.7988"/><rect fill="#FFFFFF" filter="url(#f172oausg58h26)" height="29.3105" style="stroke:#A80036;stroke-width:1.0;" width="10" x="434.5" y="178.4199"/><rect fill="#FFFFFF" filter="url(#f172oausg58h26)" height="29.3105" style="stroke:#A80036;stroke-width:1.0;" width="10" x="434.5" y="237.041"/><line style="stroke:#A80036;stroke-width:1.0;stroke-dasharray:5.0,5.0;" x1="55" x2="55" y1="88.4883" y2="284.3516"/><line style="stroke:#A80036;stroke-width:1.0;stroke-dasharray:5.0,5.0;" x1="439.5" x2="439.5" y1="88.4883" y2="284.3516"/><text fill="#000000" font-family="sans-serif" font-size="14" lengthAdjust="spacing" textLength="95" x="5" y="85.5352">Administrator</text><ellipse cx="55.5" cy="15" fill="#FEFECE" filter="url(#f172oausg58h26)" rx="8" ry="8" style="stroke:#A80036;stroke-width:2.0;"/><path d="M55.5,23 L55.5,50 M42.5,31 L68.5,31 M55.5,50 L42.5,65 M55.5,50 L68.5,65 " fill="none" filter="url(#f172oausg58h26)" style="stroke:#A80036;stroke-width:2.0;"/><text fill="#000000" font-family="sans-serif" font-size="14" lengthAdjust="spacing" textLength="95" x="5" y="296.8867">Administrator</text><ellipse cx="55.5" cy="309.8398" fill="#FEFECE" filter="url(#f172oausg58h26)" rx="8" ry="8" style="stroke:#A80036;stroke-width:2.0;"/><path d="M55.5,317.8398 L55.5,344.8398 M42.5,325.8398 L68.5,325.8398 M55.5,344.8398 L42.5,359.8398 M55.5,344.8398 L68.5,359.8398 " fill="none" filter="url(#f172oausg58h26)" style="stroke:#A80036;stroke-width:2.0;"/><rect fill="#FEFECE" filter="url(#f172oausg58h26)" height="30.4883" style="stroke:#A80036;stroke-width:1.5;" width="66" x="404.5" y="53"/><text fill="#000000" font-family="sans-serif" font-size="14" lengthAdjust="spacing" textLength="52" x="411.5" y="73.5352">:System</text><rect fill="#FEFECE" filter="url(#f172oausg58h26)" height="30.4883" style="stroke:#A80036;stroke-width:1.5;" width="66" x="404.5" y="283.3516"/><text fill="#000000" font-family="sans-serif" font-size="14" lengthAdjust="spacing" textLength="52" x="411.5" y="303.8867">:System</text><rect fill="#FFFFFF" filter="url(#f172oausg58h26)" height="167.8633" style="stroke:#A80036;stroke-width:1.0;" width="10" x="50.5" y="98.4883"/><rect fill="#FFFFFF" filter="url(#f172oausg58h26)" height="29.3105" style="stroke:#A80036;stroke-width:1.0;" width="10" x="434.5" y="119.7988"/><rect fill="#FFFFFF" filter="url(#f172oausg58h26)" height="29.3105" style="stroke:#A80036;stroke-width:1.0;" width="10" x="434.5" y="178.4199"/><rect fill="#FFFFFF" filter="url(#f172oausg58h26)" height="29.3105" style="stroke:#A80036;stroke-width:1.0;" width="10" x="434.5" y="237.041"/><polygon fill="#A80036" points="422.5,115.7988,432.5,119.7988,422.5,123.7988,426.5,119.7988" style="stroke:#A80036;stroke-width:1.0;"/><line style="stroke:#A80036;stroke-width:1.0;" x1="60.5" x2="428.5" y1="119.7988" y2="119.7988"/><text fill="#000000" font-family="sans-serif" font-size="13" font-weight="bold" lengthAdjust="spacing" textLength="9" x="67.5" y="115.0566">1</text><text fill="#000000" font-family="sans-serif" font-size="13" lengthAdjust="spacing" textLength="260" x="80.5" y="115.0566">asks to register a new Vaccination Center</text><polygon fill="#A80036" points="71.5,145.1094,61.5,149.1094,71.5,153.1094,67.5,149.1094" style="stroke:#A80036;stroke-width:1.0;"/><line style="stroke:#A80036;stroke-width:1.0;stroke-dasharray:2.0,2.0;" x1="65.5" x2="438.5" y1="149.1094" y2="149.1094"/><text fill="#000000" font-family="sans-serif" font-size="13" font-weight="bold" lengthAdjust="spacing" textLength="9" x="77.5" y="144.3672">2</text><text fill="#000000" font-family="sans-serif" font-size="13" lengthAdjust="spacing" textLength="337" x="90.5" y="144.3672">requests data (vaccination center, ongoing pandemic)</text><polygon fill="#A80036" points="422.5,174.4199,432.5,178.4199,422.5,182.4199,426.5,178.4199" style="stroke:#A80036;stroke-width:1.0;"/><line style="stroke:#A80036;stroke-width:1.0;" x1="60.5" x2="428.5" y1="178.4199" y2="178.4199"/><text fill="#000000" font-family="sans-serif" font-size="13" font-weight="bold" lengthAdjust="spacing" textLength="9" x="67.5" y="173.6777">3</text><text fill="#000000" font-family="sans-serif" font-size="13" lengthAdjust="spacing" textLength="131" x="80.5" y="173.6777">types requested data</text><polygon fill="#A80036" points="71.5,203.7305,61.5,207.7305,71.5,211.7305,67.5,207.7305" style="stroke:#A80036;stroke-width:1.0;"/><line style="stroke:#A80036;stroke-width:1.0;stroke-dasharray:2.0,2.0;" x1="65.5" x2="438.5" y1="207.7305" y2="207.7305"/><text fill="#000000" font-family="sans-serif" font-size="13" font-weight="bold" lengthAdjust="spacing" textLength="9" x="77.5" y="202.9883">4</text><text fill="#000000" font-family="sans-serif" font-size="13" lengthAdjust="spacing" textLength="260" x="90.5" y="202.9883">shows all data and requests confirmation</text><polygon fill="#A80036" points="422.5,233.041,432.5,237.041,422.5,241.041,426.5,237.041" style="stroke:#A80036;stroke-width:1.0;"/><line style="stroke:#A80036;stroke-width:1.0;" x1="60.5" x2="428.5" y1="237.041" y2="237.041"/><text fill="#000000" font-family="sans-serif" font-size="13" font-weight="bold" lengthAdjust="spacing" textLength="9" x="67.5" y="232.2988">5</text><text fill="#000000" font-family="sans-serif" font-size="13" lengthAdjust="spacing" textLength="111" x="80.5" y="232.2988">confirms the data</text><polygon fill="#A80036" points="66.5,262.3516,56.5,266.3516,66.5,270.3516,62.5,266.3516" style="stroke:#A80036;stroke-width:1.0;"/><line style="stroke:#A80036;stroke-width:1.0;stroke-dasharray:2.0,2.0;" x1="60.5" x2="438.5" y1="266.3516" y2="266.3516"/><text fill="#000000" font-family="sans-serif" font-size="13" font-weight="bold" lengthAdjust="spacing" textLength="9" x="72.5" y="261.6094">6</text><text fill="#000000" font-family="sans-serif" font-size="13" lengthAdjust="spacing" textLength="167" x="85.5" y="261.6094">informs operation success</text><!--MD5=[e692270d7d9be0cb9047a4441d1a5604]
@startuml
autonumber
actor "Administrator" as ADM

activate ADM
ADM -> ":System" : asks to register a new Vaccination Center
activate ":System"
":System" - -> ADM : requests data (vaccination center, ongoing pandemic)
deactivate ":System"

ADM -> ":System" : types requested data
activate ":System"
":System" - -> ADM : shows all data and requests confirmation
deactivate ":System"

ADM -> ":System" : confirms the data
activate ":System"
":System" - -> ADM : informs operation success
deactivate ":System"

deactivate ADM

@enduml

PlantUML version 1.2022.1(Tue Feb 01 18:19:58 WET 2022)
(GPL source distribution)
Java Runtime: OpenJDK Runtime Environment
JVM: OpenJDK 64-Bit Server VM
Default Encoding: UTF-8
Language: en
Country: PT
--></g></svg>