<?xml version="1.0" encoding="UTF-8" standalone="no"?><svg xmlns="http://www.w3.org/2000/svg" xmlns:xlink="http://www.w3.org/1999/xlink" contentScriptType="application/ecmascript" contentStyleType="text/css" height="607px" preserveAspectRatio="none" style="width:472px;height:607px;background:#FFFFFF;" version="1.1" viewBox="0 0 472 607" width="472px" zoomAndPan="magnify"><defs><filter height="300%" id="f1q163qgirvrux" width="300%" x="-1" y="-1"><feGaussianBlur result="blurOut" stdDeviation="2.0"/><feColorMatrix in="blurOut" result="blurOut2" type="matrix" values="0 0 0 0 0 0 0 0 0 0 0 0 0 0 0 0 0 0 .4 0"/><feOffset dx="4.0" dy="4.0" in="blurOut2" result="blurOut3"/><feBlend in="SourceGraphic" in2="blurOut3" mode="normal"/></filter></defs><g><!--MD5=[8ae808d068a8995f06b9b3ec51357f0b]
class AuthFacade--><rect codeLine="4" fill="#FEFECE" filter="url(#f1q163qgirvrux)" height="75.6719" id="AuthFacade" style="stroke:#A80036;stroke-width:1.5;" width="102" x="7" y="476.5"/><ellipse cx="24.25" cy="492.5" fill="#ADD1B2" rx="11" ry="11" style="stroke:#A80036;stroke-width:1.0;"/><path d="M26.25,489 Q26.4531,488.5 26.6875,488.25 Q26.9219,488 27.1875,488 Q27.6563,488 27.9531,488.2813 Q28.25,488.5625 28.25,489.2188 L28.25,490.7813 Q28.25,491.4375 27.9688,491.7188 Q27.6875,492 27.25,492 Q26.8594,492 26.6094,491.8281 Q26.3594,491.6563 26.25,491.2031 Q26.2031,490.8906 26.0313,490.7188 Q25.7188,490.3906 25.1563,490.2031 Q24.5938,490 24.0313,490 Q23.3281,490 22.7344,490.2813 Q22.1563,490.5625 21.7031,491.1875 Q21.25,491.8125 21.25,492.6719 L21.25,493.5938 Q21.25,494.625 22.0938,495.3125 Q22.9375,496 24.4375,496 Q25.3281,496 25.9531,495.7969 Q26.3125,495.6875 26.7188,495.3281 Q26.9844,495.125 27.125,495.0625 Q27.2656,495 27.4375,495 Q27.7656,495 28,495.2656 Q28.25,495.5156 28.25,495.875 Q28.25,496.2188 27.9063,496.625 Q27.4063,497.2188 26.6094,497.5469 Q25.5625,498 24.2813,498 Q22.7813,498 21.5781,497.4063 Q20.6094,496.9375 19.9219,495.9219 Q19.25,494.9063 19.25,493.7031 L19.25,492.6094 Q19.25,491.3594 19.8438,490.2656 Q20.4531,489.1719 21.5,488.5938 Q22.5625,488 23.75,488 Q24.4688,488 25.0938,488.25 Q25.7188,488.5 26.25,489 Z " fill="#000000"/><text fill="#000000" font-family="sans-serif" font-size="12" lengthAdjust="spacing" textLength="65" x="38.75" y="497.4102">AuthFacade</text><line style="stroke:#A80036;stroke-width:1.5;" x1="8" x2="108" y1="508.5" y2="508.5"/><line style="stroke:#A80036;stroke-width:1.5;" x1="8" x2="108" y1="516.5" y2="516.5"/><text fill="#000000" font-family="sans-serif" font-size="11" lengthAdjust="spacing" textLength="79" x="13" y="531.9189">+getUserRoles()</text><text fill="#000000" font-family="sans-serif" font-size="11" lengthAdjust="spacing" textLength="90" x="13" y="545.7549">+existsUser(email)</text><!--MD5=[0b4e4b4980470ea387cc45de9bd14b5b]
class Application--><rect codeLine="9" fill="#FEFECE" filter="url(#f1q163qgirvrux)" height="89.5078" id="Application" style="stroke:#A80036;stroke-width:1.5;" width="116" x="236" y="267"/><ellipse cx="261.8" cy="283" fill="#ADD1B2" rx="11" ry="11" style="stroke:#A80036;stroke-width:1.0;"/><path d="M263.8,279.5 Q264.0031,279 264.2375,278.75 Q264.4719,278.5 264.7375,278.5 Q265.2063,278.5 265.5031,278.7813 Q265.8,279.0625 265.8,279.7188 L265.8,281.2813 Q265.8,281.9375 265.5188,282.2188 Q265.2375,282.5 264.8,282.5 Q264.4094,282.5 264.1594,282.3281 Q263.9094,282.1563 263.8,281.7031 Q263.7531,281.3906 263.5813,281.2188 Q263.2688,280.8906 262.7063,280.7031 Q262.1438,280.5 261.5813,280.5 Q260.8781,280.5 260.2844,280.7813 Q259.7063,281.0625 259.2531,281.6875 Q258.8,282.3125 258.8,283.1719 L258.8,284.0938 Q258.8,285.125 259.6438,285.8125 Q260.4875,286.5 261.9875,286.5 Q262.8781,286.5 263.5031,286.2969 Q263.8625,286.1875 264.2688,285.8281 Q264.5344,285.625 264.675,285.5625 Q264.8156,285.5 264.9875,285.5 Q265.3156,285.5 265.55,285.7656 Q265.8,286.0156 265.8,286.375 Q265.8,286.7188 265.4563,287.125 Q264.9563,287.7188 264.1594,288.0469 Q263.1125,288.5 261.8313,288.5 Q260.3313,288.5 259.1281,287.9063 Q258.1594,287.4375 257.4719,286.4219 Q256.8,285.4063 256.8,284.2031 L256.8,283.1094 Q256.8,281.8594 257.3938,280.7656 Q258.0031,279.6719 259.05,279.0938 Q260.1125,278.5 261.3,278.5 Q262.0188,278.5 262.6438,278.75 Q263.2688,279 263.8,279.5 Z " fill="#000000"/><text fill="#000000" font-family="sans-serif" font-size="12" lengthAdjust="spacing" textLength="60" x="278.2" y="287.9102">Application</text><line style="stroke:#A80036;stroke-width:1.5;" x1="237" x2="351" y1="299" y2="299"/><line style="stroke:#A80036;stroke-width:1.5;" x1="237" x2="351" y1="307" y2="307"/><text fill="#000000" font-family="sans-serif" font-size="11" lengthAdjust="spacing" textLength="99" x="242" y="322.4189">+static getInstance()</text><text fill="#000000" font-family="sans-serif" font-size="11" lengthAdjust="spacing" textLength="104" x="242" y="336.2549">+getCurrentSession()</text><text fill="#000000" font-family="sans-serif" font-size="11" lengthAdjust="spacing" textLength="74" x="242" y="350.0908">+getCompany()</text><!--MD5=[02e4b9b7573f1156f41e60aa5b4e25a4]
class Company--><rect codeLine="16" fill="#FEFECE" filter="url(#f1q163qgirvrux)" height="89.5078" id="Company" style="stroke:#A80036;stroke-width:1.5;" width="127" x="73.5" y="267"/><ellipse cx="107.4" cy="283" fill="#ADD1B2" rx="11" ry="11" style="stroke:#A80036;stroke-width:1.0;"/><path d="M109.4,279.5 Q109.6031,279 109.8375,278.75 Q110.0719,278.5 110.3375,278.5 Q110.8063,278.5 111.1031,278.7813 Q111.4,279.0625 111.4,279.7188 L111.4,281.2813 Q111.4,281.9375 111.1188,282.2188 Q110.8375,282.5 110.4,282.5 Q110.0094,282.5 109.7594,282.3281 Q109.5094,282.1563 109.4,281.7031 Q109.3531,281.3906 109.1813,281.2188 Q108.8688,280.8906 108.3063,280.7031 Q107.7438,280.5 107.1813,280.5 Q106.4781,280.5 105.8844,280.7813 Q105.3063,281.0625 104.8531,281.6875 Q104.4,282.3125 104.4,283.1719 L104.4,284.0938 Q104.4,285.125 105.2438,285.8125 Q106.0875,286.5 107.5875,286.5 Q108.4781,286.5 109.1031,286.2969 Q109.4625,286.1875 109.8688,285.8281 Q110.1344,285.625 110.275,285.5625 Q110.4156,285.5 110.5875,285.5 Q110.9156,285.5 111.15,285.7656 Q111.4,286.0156 111.4,286.375 Q111.4,286.7188 111.0563,287.125 Q110.5563,287.7188 109.7594,288.0469 Q108.7125,288.5 107.4313,288.5 Q105.9313,288.5 104.7281,287.9063 Q103.7594,287.4375 103.0719,286.4219 Q102.4,285.4063 102.4,284.2031 L102.4,283.1094 Q102.4,281.8594 102.9938,280.7656 Q103.6031,279.6719 104.65,279.0938 Q105.7125,278.5 106.9,278.5 Q107.6188,278.5 108.2438,278.75 Q108.8688,279 109.4,279.5 Z " fill="#000000"/><text fill="#000000" font-family="sans-serif" font-size="12" lengthAdjust="spacing" textLength="53" x="125.6" y="287.9102">Company</text><line style="stroke:#A80036;stroke-width:1.5;" x1="74.5" x2="199.5" y1="299" y2="299"/><line style="stroke:#A80036;stroke-width:1.5;" x1="74.5" x2="199.5" y1="307" y2="307"/><text fill="#000000" font-family="sans-serif" font-size="11" lengthAdjust="spacing" textLength="68" x="79.5" y="322.4189">+getplatform()</text><text fill="#000000" font-family="sans-serif" font-size="11" lengthAdjust="spacing" textLength="88" x="79.5" y="336.2549">+getAuthFacade()</text><text fill="#000000" font-family="sans-serif" font-size="11" lengthAdjust="spacing" textLength="115" x="79.5" y="350.0908">+getRegisterEmployee()</text><!--MD5=[7421f545a0d8420c5bec41e74b387d9c]
class Employee--><rect codeLine="22" fill="#FEFECE" filter="url(#f1q163qgirvrux)" height="158.6875" id="Employee" style="stroke:#A80036;stroke-width:1.5;" width="107" x="351.5" y="435"/><ellipse cx="375.5" cy="451" fill="#ADD1B2" rx="11" ry="11" style="stroke:#A80036;stroke-width:1.0;"/><path d="M377.5,447.5 Q377.7031,447 377.9375,446.75 Q378.1719,446.5 378.4375,446.5 Q378.9063,446.5 379.2031,446.7813 Q379.5,447.0625 379.5,447.7188 L379.5,449.2813 Q379.5,449.9375 379.2188,450.2188 Q378.9375,450.5 378.5,450.5 Q378.1094,450.5 377.8594,450.3281 Q377.6094,450.1563 377.5,449.7031 Q377.4531,449.3906 377.2813,449.2188 Q376.9688,448.8906 376.4063,448.7031 Q375.8438,448.5 375.2813,448.5 Q374.5781,448.5 373.9844,448.7813 Q373.4063,449.0625 372.9531,449.6875 Q372.5,450.3125 372.5,451.1719 L372.5,452.0938 Q372.5,453.125 373.3438,453.8125 Q374.1875,454.5 375.6875,454.5 Q376.5781,454.5 377.2031,454.2969 Q377.5625,454.1875 377.9688,453.8281 Q378.2344,453.625 378.375,453.5625 Q378.5156,453.5 378.6875,453.5 Q379.0156,453.5 379.25,453.7656 Q379.5,454.0156 379.5,454.375 Q379.5,454.7188 379.1563,455.125 Q378.6563,455.7188 377.8594,456.0469 Q376.8125,456.5 375.5313,456.5 Q374.0313,456.5 372.8281,455.9063 Q371.8594,455.4375 371.1719,454.4219 Q370.5,453.4063 370.5,452.2031 L370.5,451.1094 Q370.5,449.8594 371.0938,448.7656 Q371.7031,447.6719 372.75,447.0938 Q373.8125,446.5 375,446.5 Q375.7188,446.5 376.3438,446.75 Q376.9688,447 377.5,447.5 Z " fill="#000000"/><text fill="#000000" font-family="sans-serif" font-size="12" lengthAdjust="spacing" textLength="55" x="391.5" y="455.9102">Employee</text><line style="stroke:#A80036;stroke-width:1.5;" x1="352.5" x2="457.5" y1="467" y2="467"/><text fill="#000000" font-family="sans-serif" font-size="11" lengthAdjust="spacing" textLength="30" x="357.5" y="482.4189">-name</text><text fill="#000000" font-family="sans-serif" font-size="11" lengthAdjust="spacing" textLength="71" x="357.5" y="496.2549">-phoneNumber</text><text fill="#000000" font-family="sans-serif" font-size="11" lengthAdjust="spacing" textLength="44" x="357.5" y="510.0908">-address</text><text fill="#000000" font-family="sans-serif" font-size="11" lengthAdjust="spacing" textLength="70" x="357.5" y="523.9268">-emailAddress</text><text fill="#000000" font-family="sans-serif" font-size="11" lengthAdjust="spacing" textLength="95" x="357.5" y="537.7627">-citizenCardNumber</text><text fill="#000000" font-family="sans-serif" font-size="11" lengthAdjust="spacing" textLength="57" x="357.5" y="551.5986">-companyID</text><line style="stroke:#A80036;stroke-width:1.5;" x1="352.5" x2="457.5" y1="558.0156" y2="558.0156"/><text fill="#000000" font-family="sans-serif" font-size="11" lengthAdjust="spacing" textLength="95" x="357.5" y="573.4346">+getEmailAddress()</text><text fill="#000000" font-family="sans-serif" font-size="11" lengthAdjust="spacing" textLength="56" x="357.5" y="587.2705">+getName()</text><!--MD5=[1607d1a70f046fb6f069cf8c3b040e6d]
class RegisterEmployee--><rect codeLine="34" fill="#FEFECE" filter="url(#f1q163qgirvrux)" height="61.8359" id="RegisterEmployee" style="stroke:#A80036;stroke-width:1.5;" width="134" x="144" y="483.5"/><ellipse cx="159" cy="499.5" fill="#ADD1B2" rx="11" ry="11" style="stroke:#A80036;stroke-width:1.0;"/><path d="M161,496 Q161.2031,495.5 161.4375,495.25 Q161.6719,495 161.9375,495 Q162.4063,495 162.7031,495.2813 Q163,495.5625 163,496.2188 L163,497.7813 Q163,498.4375 162.7188,498.7188 Q162.4375,499 162,499 Q161.6094,499 161.3594,498.8281 Q161.1094,498.6563 161,498.2031 Q160.9531,497.8906 160.7813,497.7188 Q160.4688,497.3906 159.9063,497.2031 Q159.3438,497 158.7813,497 Q158.0781,497 157.4844,497.2813 Q156.9063,497.5625 156.4531,498.1875 Q156,498.8125 156,499.6719 L156,500.5938 Q156,501.625 156.8438,502.3125 Q157.6875,503 159.1875,503 Q160.0781,503 160.7031,502.7969 Q161.0625,502.6875 161.4688,502.3281 Q161.7344,502.125 161.875,502.0625 Q162.0156,502 162.1875,502 Q162.5156,502 162.75,502.2656 Q163,502.5156 163,502.875 Q163,503.2188 162.6563,503.625 Q162.1563,504.2188 161.3594,504.5469 Q160.3125,505 159.0313,505 Q157.5313,505 156.3281,504.4063 Q155.3594,503.9375 154.6719,502.9219 Q154,501.9063 154,500.7031 L154,499.6094 Q154,498.3594 154.5938,497.2656 Q155.2031,496.1719 156.25,495.5938 Q157.3125,495 158.5,495 Q159.2188,495 159.8438,495.25 Q160.4688,495.5 161,496 Z " fill="#000000"/><text fill="#000000" font-family="sans-serif" font-size="12" lengthAdjust="spacing" textLength="102" x="173" y="504.4102">RegisterEmployee</text><line style="stroke:#A80036;stroke-width:1.5;" x1="145" x2="277" y1="515.5" y2="515.5"/><line style="stroke:#A80036;stroke-width:1.5;" x1="145" x2="277" y1="523.5" y2="523.5"/><text fill="#000000" font-family="sans-serif" font-size="11" lengthAdjust="spacing" textLength="98" x="150" y="538.9189">+getListEmployees()</text><!--MD5=[c965f96328c76f4a67994668cc18633e]
class ListEmployeesController--><rect codeLine="44" fill="#FEFECE" filter="url(#f1q163qgirvrux)" height="89.5078" id="ListEmployeesController" style="stroke:#A80036;stroke-width:1.5;" width="168" x="210" y="116"/><ellipse cx="225" cy="132" fill="#ADD1B2" rx="11" ry="11" style="stroke:#A80036;stroke-width:1.0;"/><path d="M227,128.5 Q227.2031,128 227.4375,127.75 Q227.6719,127.5 227.9375,127.5 Q228.4063,127.5 228.7031,127.7813 Q229,128.0625 229,128.7188 L229,130.2813 Q229,130.9375 228.7188,131.2188 Q228.4375,131.5 228,131.5 Q227.6094,131.5 227.3594,131.3281 Q227.1094,131.1563 227,130.7031 Q226.9531,130.3906 226.7813,130.2188 Q226.4688,129.8906 225.9063,129.7031 Q225.3438,129.5 224.7813,129.5 Q224.0781,129.5 223.4844,129.7813 Q222.9063,130.0625 222.4531,130.6875 Q222,131.3125 222,132.1719 L222,133.0938 Q222,134.125 222.8438,134.8125 Q223.6875,135.5 225.1875,135.5 Q226.0781,135.5 226.7031,135.2969 Q227.0625,135.1875 227.4688,134.8281 Q227.7344,134.625 227.875,134.5625 Q228.0156,134.5 228.1875,134.5 Q228.5156,134.5 228.75,134.7656 Q229,135.0156 229,135.375 Q229,135.7188 228.6563,136.125 Q228.1563,136.7188 227.3594,137.0469 Q226.3125,137.5 225.0313,137.5 Q223.5313,137.5 222.3281,136.9063 Q221.3594,136.4375 220.6719,135.4219 Q220,134.4063 220,133.2031 L220,132.1094 Q220,130.8594 220.5938,129.7656 Q221.2031,128.6719 222.25,128.0938 Q223.3125,127.5 224.5,127.5 Q225.2188,127.5 225.8438,127.75 Q226.4688,128 227,128.5 Z " fill="#000000"/><text fill="#000000" font-family="sans-serif" font-size="12" lengthAdjust="spacing" textLength="136" x="239" y="136.9102">ListEmployeesController</text><line style="stroke:#A80036;stroke-width:1.5;" x1="211" x2="377" y1="148" y2="148"/><line style="stroke:#A80036;stroke-width:1.5;" x1="211" x2="377" y1="156" y2="156"/><text fill="#000000" font-family="sans-serif" font-size="11" lengthAdjust="spacing" textLength="56" x="216" y="171.4189">+getRoles()</text><text fill="#000000" font-family="sans-serif" font-size="11" lengthAdjust="spacing" textLength="98" x="216" y="185.2549">+getListEmployees()</text><text fill="#000000" font-family="sans-serif" font-size="11" lengthAdjust="spacing" textLength="131" x="216" y="199.0908">+listEmployeesByRole(role)</text><!--MD5=[c83fedea286ad617fcddfa50cfbf3c46]
class ListEmployeesUI--><rect codeLine="52" fill="#FEFECE" filter="url(#f1q163qgirvrux)" height="48" id="ListEmployeesUI" style="stroke:#A80036;stroke-width:1.5;" width="126" x="231" y="7"/><ellipse cx="246" cy="23" fill="#ADD1B2" rx="11" ry="11" style="stroke:#A80036;stroke-width:1.0;"/><path d="M248,19.5 Q248.2031,19 248.4375,18.75 Q248.6719,18.5 248.9375,18.5 Q249.4063,18.5 249.7031,18.7813 Q250,19.0625 250,19.7188 L250,21.2813 Q250,21.9375 249.7188,22.2188 Q249.4375,22.5 249,22.5 Q248.6094,22.5 248.3594,22.3281 Q248.1094,22.1563 248,21.7031 Q247.9531,21.3906 247.7813,21.2188 Q247.4688,20.8906 246.9063,20.7031 Q246.3438,20.5 245.7813,20.5 Q245.0781,20.5 244.4844,20.7813 Q243.9063,21.0625 243.4531,21.6875 Q243,22.3125 243,23.1719 L243,24.0938 Q243,25.125 243.8438,25.8125 Q244.6875,26.5 246.1875,26.5 Q247.0781,26.5 247.7031,26.2969 Q248.0625,26.1875 248.4688,25.8281 Q248.7344,25.625 248.875,25.5625 Q249.0156,25.5 249.1875,25.5 Q249.5156,25.5 249.75,25.7656 Q250,26.0156 250,26.375 Q250,26.7188 249.6563,27.125 Q249.1563,27.7188 248.3594,28.0469 Q247.3125,28.5 246.0313,28.5 Q244.5313,28.5 243.3281,27.9063 Q242.3594,27.4375 241.6719,26.4219 Q241,25.4063 241,24.2031 L241,23.1094 Q241,21.8594 241.5938,20.7656 Q242.2031,19.6719 243.25,19.0938 Q244.3125,18.5 245.5,18.5 Q246.2188,18.5 246.8438,18.75 Q247.4688,19 248,19.5 Z " fill="#000000"/><text fill="#000000" font-family="sans-serif" font-size="12" lengthAdjust="spacing" textLength="94" x="260" y="27.9102">ListEmployeesUI</text><line style="stroke:#A80036;stroke-width:1.5;" x1="232" x2="356" y1="39" y2="39"/><line style="stroke:#A80036;stroke-width:1.5;" x1="232" x2="356" y1="47" y2="47"/><!--MD5=[94b983e2e44331786e92eb2608126439]
link ListEmployeesUI to ListEmployeesController--><path codeLine="56" d="M294,55.18 C294,70.59 294,91.42 294,110.45 " fill="none" id="ListEmployeesUI-to-ListEmployeesController" style="stroke:#A80036;stroke-width:1.0;stroke-dasharray:7.0,7.0;"/><polygon fill="#A80036" points="294,115.76,298,106.76,294,110.76,290,106.76,294,115.76" style="stroke:#A80036;stroke-width:1.0;"/><!--MD5=[257881cbd1505910d1e0acea46545f34]
link ListEmployeesController to Application--><path codeLine="57" d="M294,206.3 C294,223.64 294,243.6 294,261.41 " fill="none" id="ListEmployeesController-to-Application" style="stroke:#A80036;stroke-width:1.0;stroke-dasharray:7.0,7.0;"/><polygon fill="#A80036" points="294,266.87,298,257.87,294,261.87,290,257.87,294,266.87" style="stroke:#A80036;stroke-width:1.0;"/><!--MD5=[a132349728275be400c8947f68dc1735]
link ListEmployeesController to Company--><path codeLine="58" d="M247.32,206.3 C228.42,224.24 206.56,244.98 187.31,263.25 " fill="none" id="ListEmployeesController-to-Company" style="stroke:#A80036;stroke-width:1.0;stroke-dasharray:7.0,7.0;"/><polygon fill="#A80036" points="183.5,266.87,192.782,263.577,187.1271,263.4285,187.2756,257.7736,183.5,266.87" style="stroke:#A80036;stroke-width:1.0;"/><!--MD5=[717d4b03d3c4372f4eafe5e342a0a7dd]
link Company to AuthFacade--><path codeLine="59" d="M119.66,357 C106.24,391.06 87.78,437.93 74.56,471.48 " fill="none" id="Company-to-AuthFacade" style="stroke:#A80036;stroke-width:1.0;stroke-dasharray:7.0,7.0;"/><polygon fill="#A80036" points="72.65,476.33,79.6626,469.4145,74.4774,471.6759,72.216,466.4907,72.65,476.33" style="stroke:#A80036;stroke-width:1.0;"/><!--MD5=[11b5509dc1688020c021c7cd88911254]
reverse link AuthFacade to RegisterEmployee--><path codeLine="60" d="M114.24,514.5 C124.07,514.5 133.9,514.5 143.73,514.5 " fill="none" id="AuthFacade-backto-RegisterEmployee" style="stroke:#A80036;stroke-width:1.0;stroke-dasharray:7.0,7.0;"/><polygon fill="#A80036" points="109.1,514.5,118.1,518.5,114.1,514.5,118.1,510.5,109.1,514.5" style="stroke:#A80036;stroke-width:1.0;"/><!--MD5=[d98eb5731e3c34bd6641649e5213cfb1]
link ListEmployeesController to Employee--><path codeLine="61" d="M333.29,206.14 C347.05,223.9 361.24,245.3 370,267 C390.89,318.73 399.61,380.96 403.13,429.94 " fill="none" id="ListEmployeesController-to-Employee" style="stroke:#A80036;stroke-width:1.0;stroke-dasharray:7.0,7.0;"/><polygon fill="#A80036" points="403.47,434.94,406.8431,425.6868,403.127,429.9518,398.862,426.2356,403.47,434.94" style="stroke:#A80036;stroke-width:1.0;"/><!--MD5=[ed6a947b97adec5d468f4a39fd1050c1]
link Company to RegisterEmployee--><path codeLine="62" d="M153.24,357 C166.7,393.48 185.59,444.65 198.05,478.41 " fill="none" id="Company-to-RegisterEmployee" style="stroke:#A80036;stroke-width:1.0;"/><polygon fill="#A80036" points="199.84,483.26,200.4779,473.4318,198.1095,478.569,192.9723,476.2006,199.84,483.26" style="stroke:#A80036;stroke-width:1.0;"/><text fill="#000000" font-family="sans-serif" font-size="13" lengthAdjust="spacing" textLength="21" x="171" y="401.4951">has</text><text fill="#000000" font-family="sans-serif" font-size="13" lengthAdjust="spacing" textLength="7" x="148.0316" y="378.0076">1</text><text fill="#000000" font-family="sans-serif" font-size="13" lengthAdjust="spacing" textLength="7" x="189.8164" y="472.715">1</text><!--MD5=[eab00be0507a9170c24b1176aa61d4c9]
link RegisterEmployee to Employee--><path codeLine="63" d="M278.04,514.5 C300.24,514.5 324.77,514.5 346.3,514.5 " fill="none" id="RegisterEmployee-to-Employee" style="stroke:#A80036;stroke-width:1.0;"/><polygon fill="#A80036" points="351.42,514.5,342.42,510.5,346.42,514.5,342.42,518.5,351.42,514.5" style="stroke:#A80036;stroke-width:1.0;"/><text fill="#000000" font-family="sans-serif" font-size="13" lengthAdjust="spacing" textLength="37" x="296.25" y="507.9951">knows</text><!--MD5=[e6f67e15b47fa788f0f65ed5c3c01936]
@startuml
skinparam classAttributeIconSize 0


class AuthFacade{
+getUserRoles()
+existsUser(email)
}

class Application {
  +static getInstance()
  +getCurrentSession()
  +getCompany()

}

class Company {
+getplatform()
+getAuthFacade()
+getRegisterEmployee()
}

class Employee {
-name
-phoneNumber
-address
-emailAddress
-citizenCardNumber
-companyID
+getEmailAddress()
+getName()
}


class RegisterEmployee{
+getListEmployees()

}






class ListEmployeesController {
+getRoles()
  +getListEmployees()
  +listEmployeesByRole(role)


}

class ListEmployeesUI {

}

ListEmployeesUI ..> ListEmployeesController
ListEmployeesController ..> Application
ListEmployeesController ..> Company
Company ..> AuthFacade
RegisterEmployee .left.> AuthFacade
ListEmployeesController ..> Employee
Company "1" - -> "1" RegisterEmployee : has
RegisterEmployee -right-> Employee : knows





@enduml

PlantUML version 1.2022.1(Tue Feb 01 18:19:58 GMT 2022)
(GPL source distribution)
Java Runtime: OpenJDK Runtime Environment
JVM: OpenJDK 64-Bit Server VM
Default Encoding: Cp1252
Language: en
Country: US
--></g></svg>