<?xml version="1.0" encoding="UTF-8" standalone="no"?><svg xmlns="http://www.w3.org/2000/svg" xmlns:xlink="http://www.w3.org/1999/xlink" contentScriptType="application/ecmascript" contentStyleType="text/css" height="593px" preserveAspectRatio="none" style="width:486px;height:593px;background:#FFFFFF;" version="1.1" viewBox="0 0 486 593" width="486px" zoomAndPan="magnify"><defs><filter height="300%" id="f963phtsgdnoj" width="300%" x="-1" y="-1"><feGaussianBlur result="blurOut" stdDeviation="2.0"/><feColorMatrix in="blurOut" result="blurOut2" type="matrix" values="0 0 0 0 0 0 0 0 0 0 0 0 0 0 0 0 0 0 .4 0"/><feOffset dx="4.0" dy="4.0" in="blurOut2" result="blurOut3"/><feBlend in="SourceGraphic" in2="blurOut3" mode="normal"/></filter></defs><g><!--MD5=[8ae808d068a8995f06b9b3ec51357f0b]
class AuthFacade--><rect codeLine="4" fill="#FEFECE" filter="url(#f963phtsgdnoj)" height="75.6719" id="AuthFacade" style="stroke:#A80036;stroke-width:1.5;" width="102" x="7" y="462.5"/><ellipse cx="24.25" cy="478.5" fill="#ADD1B2" rx="11" ry="11" style="stroke:#A80036;stroke-width:1.0;"/><path d="M26.25,475 Q26.4531,474.5 26.6875,474.25 Q26.9219,474 27.1875,474 Q27.6563,474 27.9531,474.2813 Q28.25,474.5625 28.25,475.2188 L28.25,476.7813 Q28.25,477.4375 27.9688,477.7188 Q27.6875,478 27.25,478 Q26.8594,478 26.6094,477.8281 Q26.3594,477.6563 26.25,477.2031 Q26.2031,476.8906 26.0313,476.7188 Q25.7188,476.3906 25.1563,476.2031 Q24.5938,476 24.0313,476 Q23.3281,476 22.7344,476.2813 Q22.1563,476.5625 21.7031,477.1875 Q21.25,477.8125 21.25,478.6719 L21.25,479.5938 Q21.25,480.625 22.0938,481.3125 Q22.9375,482 24.4375,482 Q25.3281,482 25.9531,481.7969 Q26.3125,481.6875 26.7188,481.3281 Q26.9844,481.125 27.125,481.0625 Q27.2656,481 27.4375,481 Q27.7656,481 28,481.2656 Q28.25,481.5156 28.25,481.875 Q28.25,482.2188 27.9063,482.625 Q27.4063,483.2188 26.6094,483.5469 Q25.5625,484 24.2813,484 Q22.7813,484 21.5781,483.4063 Q20.6094,482.9375 19.9219,481.9219 Q19.25,480.9063 19.25,479.7031 L19.25,478.6094 Q19.25,477.3594 19.8438,476.2656 Q20.4531,475.1719 21.5,474.5938 Q22.5625,474 23.75,474 Q24.4688,474 25.0938,474.25 Q25.7188,474.5 26.25,475 Z " fill="#000000"/><text fill="#000000" font-family="sans-serif" font-size="12" lengthAdjust="spacing" textLength="65" x="38.75" y="483.4102">AuthFacade</text><line style="stroke:#A80036;stroke-width:1.5;" x1="8" x2="108" y1="494.5" y2="494.5"/><line style="stroke:#A80036;stroke-width:1.5;" x1="8" x2="108" y1="502.5" y2="502.5"/><text fill="#000000" font-family="sans-serif" font-size="11" lengthAdjust="spacing" textLength="79" x="13" y="517.9189">+getUserRoles()</text><text fill="#000000" font-family="sans-serif" font-size="11" lengthAdjust="spacing" textLength="90" x="13" y="531.7549">+existsUser(email)</text><!--MD5=[0b4e4b4980470ea387cc45de9bd14b5b]
class Application--><rect codeLine="9" fill="#FEFECE" filter="url(#f963phtsgdnoj)" height="89.5078" id="Application" style="stroke:#A80036;stroke-width:1.5;" width="116" x="250" y="253"/><ellipse cx="275.8" cy="269" fill="#ADD1B2" rx="11" ry="11" style="stroke:#A80036;stroke-width:1.0;"/><path d="M277.8,265.5 Q278.0031,265 278.2375,264.75 Q278.4719,264.5 278.7375,264.5 Q279.2063,264.5 279.5031,264.7813 Q279.8,265.0625 279.8,265.7188 L279.8,267.2813 Q279.8,267.9375 279.5188,268.2188 Q279.2375,268.5 278.8,268.5 Q278.4094,268.5 278.1594,268.3281 Q277.9094,268.1563 277.8,267.7031 Q277.7531,267.3906 277.5813,267.2188 Q277.2688,266.8906 276.7063,266.7031 Q276.1438,266.5 275.5813,266.5 Q274.8781,266.5 274.2844,266.7813 Q273.7063,267.0625 273.2531,267.6875 Q272.8,268.3125 272.8,269.1719 L272.8,270.0938 Q272.8,271.125 273.6438,271.8125 Q274.4875,272.5 275.9875,272.5 Q276.8781,272.5 277.5031,272.2969 Q277.8625,272.1875 278.2688,271.8281 Q278.5344,271.625 278.675,271.5625 Q278.8156,271.5 278.9875,271.5 Q279.3156,271.5 279.55,271.7656 Q279.8,272.0156 279.8,272.375 Q279.8,272.7188 279.4563,273.125 Q278.9563,273.7188 278.1594,274.0469 Q277.1125,274.5 275.8313,274.5 Q274.3313,274.5 273.1281,273.9063 Q272.1594,273.4375 271.4719,272.4219 Q270.8,271.4063 270.8,270.2031 L270.8,269.1094 Q270.8,267.8594 271.3938,266.7656 Q272.0031,265.6719 273.05,265.0938 Q274.1125,264.5 275.3,264.5 Q276.0188,264.5 276.6438,264.75 Q277.2688,265 277.8,265.5 Z " fill="#000000"/><text fill="#000000" font-family="sans-serif" font-size="12" lengthAdjust="spacing" textLength="60" x="292.2" y="273.9102">Application</text><line style="stroke:#A80036;stroke-width:1.5;" x1="251" x2="365" y1="285" y2="285"/><line style="stroke:#A80036;stroke-width:1.5;" x1="251" x2="365" y1="293" y2="293"/><text fill="#000000" font-family="sans-serif" font-size="11" lengthAdjust="spacing" textLength="99" x="256" y="308.4189">+static getInstance()</text><text fill="#000000" font-family="sans-serif" font-size="11" lengthAdjust="spacing" textLength="104" x="256" y="322.2549">+getCurrentSession()</text><text fill="#000000" font-family="sans-serif" font-size="11" lengthAdjust="spacing" textLength="74" x="256" y="336.0908">+getCompany()</text><!--MD5=[02e4b9b7573f1156f41e60aa5b4e25a4]
class Company--><rect codeLine="16" fill="#FEFECE" filter="url(#f963phtsgdnoj)" height="89.5078" id="Company" style="stroke:#A80036;stroke-width:1.5;" width="127" x="87.5" y="253"/><ellipse cx="121.4" cy="269" fill="#ADD1B2" rx="11" ry="11" style="stroke:#A80036;stroke-width:1.0;"/><path d="M123.4,265.5 Q123.6031,265 123.8375,264.75 Q124.0719,264.5 124.3375,264.5 Q124.8063,264.5 125.1031,264.7813 Q125.4,265.0625 125.4,265.7188 L125.4,267.2813 Q125.4,267.9375 125.1188,268.2188 Q124.8375,268.5 124.4,268.5 Q124.0094,268.5 123.7594,268.3281 Q123.5094,268.1563 123.4,267.7031 Q123.3531,267.3906 123.1813,267.2188 Q122.8688,266.8906 122.3063,266.7031 Q121.7438,266.5 121.1813,266.5 Q120.4781,266.5 119.8844,266.7813 Q119.3063,267.0625 118.8531,267.6875 Q118.4,268.3125 118.4,269.1719 L118.4,270.0938 Q118.4,271.125 119.2438,271.8125 Q120.0875,272.5 121.5875,272.5 Q122.4781,272.5 123.1031,272.2969 Q123.4625,272.1875 123.8688,271.8281 Q124.1344,271.625 124.275,271.5625 Q124.4156,271.5 124.5875,271.5 Q124.9156,271.5 125.15,271.7656 Q125.4,272.0156 125.4,272.375 Q125.4,272.7188 125.0563,273.125 Q124.5563,273.7188 123.7594,274.0469 Q122.7125,274.5 121.4313,274.5 Q119.9313,274.5 118.7281,273.9063 Q117.7594,273.4375 117.0719,272.4219 Q116.4,271.4063 116.4,270.2031 L116.4,269.1094 Q116.4,267.8594 116.9938,266.7656 Q117.6031,265.6719 118.65,265.0938 Q119.7125,264.5 120.9,264.5 Q121.6188,264.5 122.2438,264.75 Q122.8688,265 123.4,265.5 Z " fill="#000000"/><text fill="#000000" font-family="sans-serif" font-size="12" lengthAdjust="spacing" textLength="53" x="139.6" y="273.9102">Company</text><line style="stroke:#A80036;stroke-width:1.5;" x1="88.5" x2="213.5" y1="285" y2="285"/><line style="stroke:#A80036;stroke-width:1.5;" x1="88.5" x2="213.5" y1="293" y2="293"/><text fill="#000000" font-family="sans-serif" font-size="11" lengthAdjust="spacing" textLength="68" x="93.5" y="308.4189">+getplatform()</text><text fill="#000000" font-family="sans-serif" font-size="11" lengthAdjust="spacing" textLength="88" x="93.5" y="322.2549">+getAuthFacade()</text><text fill="#000000" font-family="sans-serif" font-size="11" lengthAdjust="spacing" textLength="115" x="93.5" y="336.0908">+getRegisterEmployee()</text><!--MD5=[7421f545a0d8420c5bec41e74b387d9c]
class Employee--><rect codeLine="22" fill="#FEFECE" filter="url(#f963phtsgdnoj)" height="158.6875" id="Employee" style="stroke:#A80036;stroke-width:1.5;" width="107" x="365.5" y="421"/><ellipse cx="389.5" cy="437" fill="#ADD1B2" rx="11" ry="11" style="stroke:#A80036;stroke-width:1.0;"/><path d="M391.5,433.5 Q391.7031,433 391.9375,432.75 Q392.1719,432.5 392.4375,432.5 Q392.9063,432.5 393.2031,432.7813 Q393.5,433.0625 393.5,433.7188 L393.5,435.2813 Q393.5,435.9375 393.2188,436.2188 Q392.9375,436.5 392.5,436.5 Q392.1094,436.5 391.8594,436.3281 Q391.6094,436.1563 391.5,435.7031 Q391.4531,435.3906 391.2813,435.2188 Q390.9688,434.8906 390.4063,434.7031 Q389.8438,434.5 389.2813,434.5 Q388.5781,434.5 387.9844,434.7813 Q387.4063,435.0625 386.9531,435.6875 Q386.5,436.3125 386.5,437.1719 L386.5,438.0938 Q386.5,439.125 387.3438,439.8125 Q388.1875,440.5 389.6875,440.5 Q390.5781,440.5 391.2031,440.2969 Q391.5625,440.1875 391.9688,439.8281 Q392.2344,439.625 392.375,439.5625 Q392.5156,439.5 392.6875,439.5 Q393.0156,439.5 393.25,439.7656 Q393.5,440.0156 393.5,440.375 Q393.5,440.7188 393.1563,441.125 Q392.6563,441.7188 391.8594,442.0469 Q390.8125,442.5 389.5313,442.5 Q388.0313,442.5 386.8281,441.9063 Q385.8594,441.4375 385.1719,440.4219 Q384.5,439.4063 384.5,438.2031 L384.5,437.1094 Q384.5,435.8594 385.0938,434.7656 Q385.7031,433.6719 386.75,433.0938 Q387.8125,432.5 389,432.5 Q389.7188,432.5 390.3438,432.75 Q390.9688,433 391.5,433.5 Z " fill="#000000"/><text fill="#000000" font-family="sans-serif" font-size="12" lengthAdjust="spacing" textLength="55" x="405.5" y="441.9102">Employee</text><line style="stroke:#A80036;stroke-width:1.5;" x1="366.5" x2="471.5" y1="453" y2="453"/><text fill="#000000" font-family="sans-serif" font-size="11" lengthAdjust="spacing" textLength="30" x="371.5" y="468.4189">-name</text><text fill="#000000" font-family="sans-serif" font-size="11" lengthAdjust="spacing" textLength="71" x="371.5" y="482.2549">-phoneNumber</text><text fill="#000000" font-family="sans-serif" font-size="11" lengthAdjust="spacing" textLength="44" x="371.5" y="496.0908">-address</text><text fill="#000000" font-family="sans-serif" font-size="11" lengthAdjust="spacing" textLength="70" x="371.5" y="509.9268">-emailAddress</text><text fill="#000000" font-family="sans-serif" font-size="11" lengthAdjust="spacing" textLength="95" x="371.5" y="523.7627">-citizenCardNumber</text><text fill="#000000" font-family="sans-serif" font-size="11" lengthAdjust="spacing" textLength="57" x="371.5" y="537.5986">-companyID</text><line style="stroke:#A80036;stroke-width:1.5;" x1="366.5" x2="471.5" y1="544.0156" y2="544.0156"/><text fill="#000000" font-family="sans-serif" font-size="11" lengthAdjust="spacing" textLength="95" x="371.5" y="559.4346">+getEmailAddress()</text><text fill="#000000" font-family="sans-serif" font-size="11" lengthAdjust="spacing" textLength="56" x="371.5" y="573.2705">+getName()</text><!--MD5=[1607d1a70f046fb6f069cf8c3b040e6d]
class RegisterEmployee--><rect codeLine="34" fill="#FEFECE" filter="url(#f963phtsgdnoj)" height="75.6719" id="RegisterEmployee" style="stroke:#A80036;stroke-width:1.5;" width="147" x="144.5" y="462.5"/><ellipse cx="165.35" cy="478.5" fill="#ADD1B2" rx="11" ry="11" style="stroke:#A80036;stroke-width:1.0;"/><path d="M167.35,475 Q167.5531,474.5 167.7875,474.25 Q168.0219,474 168.2875,474 Q168.7563,474 169.0531,474.2813 Q169.35,474.5625 169.35,475.2188 L169.35,476.7813 Q169.35,477.4375 169.0688,477.7188 Q168.7875,478 168.35,478 Q167.9594,478 167.7094,477.8281 Q167.4594,477.6563 167.35,477.2031 Q167.3031,476.8906 167.1313,476.7188 Q166.8188,476.3906 166.2563,476.2031 Q165.6938,476 165.1313,476 Q164.4281,476 163.8344,476.2813 Q163.2563,476.5625 162.8031,477.1875 Q162.35,477.8125 162.35,478.6719 L162.35,479.5938 Q162.35,480.625 163.1938,481.3125 Q164.0375,482 165.5375,482 Q166.4281,482 167.0531,481.7969 Q167.4125,481.6875 167.8188,481.3281 Q168.0844,481.125 168.225,481.0625 Q168.3656,481 168.5375,481 Q168.8656,481 169.1,481.2656 Q169.35,481.5156 169.35,481.875 Q169.35,482.2188 169.0063,482.625 Q168.5063,483.2188 167.7094,483.5469 Q166.6625,484 165.3813,484 Q163.8813,484 162.6781,483.4063 Q161.7094,482.9375 161.0219,481.9219 Q160.35,480.9063 160.35,479.7031 L160.35,478.6094 Q160.35,477.3594 160.9438,476.2656 Q161.5531,475.1719 162.6,474.5938 Q163.6625,474 164.85,474 Q165.5688,474 166.1938,474.25 Q166.8188,474.5 167.35,475 Z " fill="#000000"/><text fill="#000000" font-family="sans-serif" font-size="12" lengthAdjust="spacing" textLength="102" x="180.65" y="483.4102">RegisterEmployee</text><line style="stroke:#A80036;stroke-width:1.5;" x1="145.5" x2="290.5" y1="494.5" y2="494.5"/><line style="stroke:#A80036;stroke-width:1.5;" x1="145.5" x2="290.5" y1="502.5" y2="502.5"/><text fill="#000000" font-family="sans-serif" font-size="11" lengthAdjust="spacing" textLength="98" x="150.5" y="517.9189">+getListEmployees()</text><text fill="#000000" font-family="sans-serif" font-size="11" lengthAdjust="spacing" textLength="135" x="150.5" y="531.7549">+ListEmployeesByRole(role)</text><!--MD5=[c965f96328c76f4a67994668cc18633e]
class ListEmployeesController--><rect codeLine="45" fill="#FEFECE" filter="url(#f963phtsgdnoj)" height="75.6719" id="ListEmployeesController" style="stroke:#A80036;stroke-width:1.5;" width="168" x="224" y="116"/><ellipse cx="239" cy="132" fill="#ADD1B2" rx="11" ry="11" style="stroke:#A80036;stroke-width:1.0;"/><path d="M241,128.5 Q241.2031,128 241.4375,127.75 Q241.6719,127.5 241.9375,127.5 Q242.4063,127.5 242.7031,127.7813 Q243,128.0625 243,128.7188 L243,130.2813 Q243,130.9375 242.7188,131.2188 Q242.4375,131.5 242,131.5 Q241.6094,131.5 241.3594,131.3281 Q241.1094,131.1563 241,130.7031 Q240.9531,130.3906 240.7813,130.2188 Q240.4688,129.8906 239.9063,129.7031 Q239.3438,129.5 238.7813,129.5 Q238.0781,129.5 237.4844,129.7813 Q236.9063,130.0625 236.4531,130.6875 Q236,131.3125 236,132.1719 L236,133.0938 Q236,134.125 236.8438,134.8125 Q237.6875,135.5 239.1875,135.5 Q240.0781,135.5 240.7031,135.2969 Q241.0625,135.1875 241.4688,134.8281 Q241.7344,134.625 241.875,134.5625 Q242.0156,134.5 242.1875,134.5 Q242.5156,134.5 242.75,134.7656 Q243,135.0156 243,135.375 Q243,135.7188 242.6563,136.125 Q242.1563,136.7188 241.3594,137.0469 Q240.3125,137.5 239.0313,137.5 Q237.5313,137.5 236.3281,136.9063 Q235.3594,136.4375 234.6719,135.4219 Q234,134.4063 234,133.2031 L234,132.1094 Q234,130.8594 234.5938,129.7656 Q235.2031,128.6719 236.25,128.0938 Q237.3125,127.5 238.5,127.5 Q239.2188,127.5 239.8438,127.75 Q240.4688,128 241,128.5 Z " fill="#000000"/><text fill="#000000" font-family="sans-serif" font-size="12" lengthAdjust="spacing" textLength="136" x="253" y="136.9102">ListEmployeesController</text><line style="stroke:#A80036;stroke-width:1.5;" x1="225" x2="391" y1="148" y2="148"/><line style="stroke:#A80036;stroke-width:1.5;" x1="225" x2="391" y1="156" y2="156"/><text fill="#000000" font-family="sans-serif" font-size="11" lengthAdjust="spacing" textLength="56" x="230" y="171.4189">+getRoles()</text><text fill="#000000" font-family="sans-serif" font-size="11" lengthAdjust="spacing" textLength="98" x="230" y="185.2549">+getListEmployees()</text><!--MD5=[c83fedea286ad617fcddfa50cfbf3c46]
class ListEmployeesUI--><rect codeLine="54" fill="#FEFECE" filter="url(#f963phtsgdnoj)" height="48" id="ListEmployeesUI" style="stroke:#A80036;stroke-width:1.5;" width="126" x="245" y="7"/><ellipse cx="260" cy="23" fill="#ADD1B2" rx="11" ry="11" style="stroke:#A80036;stroke-width:1.0;"/><path d="M262,19.5 Q262.2031,19 262.4375,18.75 Q262.6719,18.5 262.9375,18.5 Q263.4063,18.5 263.7031,18.7813 Q264,19.0625 264,19.7188 L264,21.2813 Q264,21.9375 263.7188,22.2188 Q263.4375,22.5 263,22.5 Q262.6094,22.5 262.3594,22.3281 Q262.1094,22.1563 262,21.7031 Q261.9531,21.3906 261.7813,21.2188 Q261.4688,20.8906 260.9063,20.7031 Q260.3438,20.5 259.7813,20.5 Q259.0781,20.5 258.4844,20.7813 Q257.9063,21.0625 257.4531,21.6875 Q257,22.3125 257,23.1719 L257,24.0938 Q257,25.125 257.8438,25.8125 Q258.6875,26.5 260.1875,26.5 Q261.0781,26.5 261.7031,26.2969 Q262.0625,26.1875 262.4688,25.8281 Q262.7344,25.625 262.875,25.5625 Q263.0156,25.5 263.1875,25.5 Q263.5156,25.5 263.75,25.7656 Q264,26.0156 264,26.375 Q264,26.7188 263.6563,27.125 Q263.1563,27.7188 262.3594,28.0469 Q261.3125,28.5 260.0313,28.5 Q258.5313,28.5 257.3281,27.9063 Q256.3594,27.4375 255.6719,26.4219 Q255,25.4063 255,24.2031 L255,23.1094 Q255,21.8594 255.5938,20.7656 Q256.2031,19.6719 257.25,19.0938 Q258.3125,18.5 259.5,18.5 Q260.2188,18.5 260.8438,18.75 Q261.4688,19 262,19.5 Z " fill="#000000"/><text fill="#000000" font-family="sans-serif" font-size="12" lengthAdjust="spacing" textLength="94" x="274" y="27.9102">ListEmployeesUI</text><line style="stroke:#A80036;stroke-width:1.5;" x1="246" x2="370" y1="39" y2="39"/><line style="stroke:#A80036;stroke-width:1.5;" x1="246" x2="370" y1="47" y2="47"/><!--MD5=[94b983e2e44331786e92eb2608126439]
link ListEmployeesUI to ListEmployeesController--><path codeLine="58" d="M308,55.04 C308,70.71 308,91.91 308,110.58 " fill="none" id="ListEmployeesUI-to-ListEmployeesController" style="stroke:#A80036;stroke-width:1.0;stroke-dasharray:7.0,7.0;"/><polygon fill="#A80036" points="308,115.77,312,106.77,308,110.77,304,106.77,308,115.77" style="stroke:#A80036;stroke-width:1.0;"/><!--MD5=[257881cbd1505910d1e0acea46545f34]
link ListEmployeesController to Application--><path codeLine="59" d="M308,192.31 C308,209.28 308,229.6 308,247.81 " fill="none" id="ListEmployeesController-to-Application" style="stroke:#A80036;stroke-width:1.0;stroke-dasharray:7.0,7.0;"/><polygon fill="#A80036" points="308,252.88,312,243.88,308,247.88,304,243.88,308,252.88" style="stroke:#A80036;stroke-width:1.0;"/><!--MD5=[a132349728275be400c8947f68dc1735]
link ListEmployeesController to Company--><path codeLine="60" d="M266.75,192.31 C247.42,209.79 224.17,230.82 203.59,249.43 " fill="none" id="ListEmployeesController-to-Company" style="stroke:#A80036;stroke-width:1.0;stroke-dasharray:7.0,7.0;"/><polygon fill="#A80036" points="199.78,252.88,209.1396,249.8146,203.4901,249.5281,203.7765,243.8785,199.78,252.88" style="stroke:#A80036;stroke-width:1.0;"/><!--MD5=[717d4b03d3c4372f4eafe5e342a0a7dd]
link Company to AuthFacade--><path codeLine="61" d="M130.59,343 C114.79,377.06 93.05,423.93 77.49,457.48 " fill="none" id="Company-to-AuthFacade" style="stroke:#A80036;stroke-width:1.0;stroke-dasharray:7.0,7.0;"/><polygon fill="#A80036" points="75.24,462.33,82.655,455.8479,77.3435,457.794,75.3974,452.4824,75.24,462.33" style="stroke:#A80036;stroke-width:1.0;"/><!--MD5=[11b5509dc1688020c021c7cd88911254]
reverse link AuthFacade to RegisterEmployee--><path codeLine="62" d="M114.42,500.5 C124.31,500.5 134.2,500.5 144.08,500.5 " fill="none" id="AuthFacade-backto-RegisterEmployee" style="stroke:#A80036;stroke-width:1.0;stroke-dasharray:7.0,7.0;"/><polygon fill="#A80036" points="109.25,500.5,118.25,504.5,114.25,500.5,118.25,496.5,109.25,500.5" style="stroke:#A80036;stroke-width:1.0;"/><!--MD5=[d98eb5731e3c34bd6641649e5213cfb1]
link ListEmployeesController to Employee--><path codeLine="63" d="M344.17,192.06 C358.88,209.26 374.6,230.79 384,253 C405.78,304.47 414.49,366.84 417.77,415.96 " fill="none" id="ListEmployeesController-to-Employee" style="stroke:#A80036;stroke-width:1.0;stroke-dasharray:7.0,7.0;"/><polygon fill="#A80036" points="418.09,420.97,421.5159,411.7362,417.7754,415.9799,413.5317,412.2395,418.09,420.97" style="stroke:#A80036;stroke-width:1.0;"/><!--MD5=[ed6a947b97adec5d468f4a39fd1050c1]
link Company to RegisterEmployee--><path codeLine="64" d="M165.7,343 C177.09,377.06 192.75,423.93 203.96,457.48 " fill="none" id="Company-to-RegisterEmployee" style="stroke:#A80036;stroke-width:1.0;"/><polygon fill="#A80036" points="205.58,462.33,206.5198,452.5261,203.9946,457.588,198.9326,455.0628,205.58,462.33" style="stroke:#A80036;stroke-width:1.0;"/><text fill="#000000" font-family="sans-serif" font-size="13" lengthAdjust="spacing" textLength="21" x="182" y="387.4951">has</text><text fill="#000000" font-family="sans-serif" font-size="13" lengthAdjust="spacing" textLength="7" x="160.275" y="364.0076">1</text><text fill="#000000" font-family="sans-serif" font-size="13" lengthAdjust="spacing" textLength="7" x="195.7443" y="451.6616">1</text><!--MD5=[eab00be0507a9170c24b1176aa61d4c9]
link RegisterEmployee to Employee--><path codeLine="65" d="M291.7,500.5 C314.32,500.5 338.88,500.5 360.35,500.5 " fill="none" id="RegisterEmployee-to-Employee" style="stroke:#A80036;stroke-width:1.0;"/><polygon fill="#A80036" points="365.45,500.5,356.45,496.5,360.45,500.5,356.45,504.5,365.45,500.5" style="stroke:#A80036;stroke-width:1.0;"/><text fill="#000000" font-family="sans-serif" font-size="13" lengthAdjust="spacing" textLength="37" x="310" y="493.9951">knows</text><!--MD5=[e8afcab7170f5562b035e987f998d0b1]
@startuml
skinparam classAttributeIconSize 0


class AuthFacade{
+getUserRoles()
+existsUser(email)
}

class Application {
  +static getInstance()
  +getCurrentSession()
  +getCompany()

}

class Company {
+getplatform()
+getAuthFacade()
+getRegisterEmployee()
}

class Employee {
-name
-phoneNumber
-address
-emailAddress
-citizenCardNumber
-companyID
+getEmailAddress()
+getName()
}


class RegisterEmployee{
+getListEmployees()
+ListEmployeesByRole(role)

}






class ListEmployeesController {
+getRoles()
  +getListEmployees()




}

class ListEmployeesUI {

}

ListEmployeesUI ..> ListEmployeesController
ListEmployeesController ..> Application
ListEmployeesController ..> Company
Company ..> AuthFacade
RegisterEmployee .left.> AuthFacade
ListEmployeesController ..> Employee
Company "1" - -> "1" RegisterEmployee : has
RegisterEmployee -right-> Employee : knows





@enduml

PlantUML version 1.2022.1(Tue Feb 01 18:19:58 GMT 2022)
(GPL source distribution)
Java Runtime: OpenJDK Runtime Environment
JVM: OpenJDK 64-Bit Server VM
Default Encoding: Cp1252
Language: en
Country: US
--></g></svg>