<?xml version="1.0" encoding="UTF-8" standalone="no"?><svg xmlns="http://www.w3.org/2000/svg" xmlns:xlink="http://www.w3.org/1999/xlink" contentScriptType="application/ecmascript" contentStyleType="text/css" height="261px" preserveAspectRatio="none" style="width:652px;height:261px;background:#FFFFFF;" version="1.1" viewBox="0 0 652 261" width="652px" zoomAndPan="magnify"><defs><filter height="300%" id="f1p66nxxwmtkey" width="300%" x="-1" y="-1"><feGaussianBlur result="blurOut" stdDeviation="2.0"/><feColorMatrix in="blurOut" result="blurOut2" type="matrix" values="0 0 0 0 0 0 0 0 0 0 0 0 0 0 0 0 0 0 .4 0"/><feOffset dx="4.0" dy="4.0" in="blurOut2" result="blurOut3"/><feBlend in="SourceGraphic" in2="blurOut3" mode="normal"/></filter></defs><g><!--MD5=[03960189e81aa2c066c762ffabbee709]
class Receptionist--><rect codeLine="3" fill="#FEFECE" filter="url(#f1p66nxxwmtkey)" height="48" id="Receptionist" style="stroke:#A80036;stroke-width:1.5;" width="101" x="7" y="199"/><ellipse cx="22" cy="215" fill="#ADD1B2" rx="11" ry="11" style="stroke:#A80036;stroke-width:1.0;"/><path d="M24,211.5 Q24.2031,211 24.4375,210.75 Q24.6719,210.5 24.9375,210.5 Q25.4063,210.5 25.7031,210.7813 Q26,211.0625 26,211.7188 L26,213.2813 Q26,213.9375 25.7188,214.2188 Q25.4375,214.5 25,214.5 Q24.6094,214.5 24.3594,214.3281 Q24.1094,214.1563 24,213.7031 Q23.9531,213.3906 23.7813,213.2188 Q23.4688,212.8906 22.9063,212.7031 Q22.3438,212.5 21.7813,212.5 Q21.0781,212.5 20.4844,212.7813 Q19.9063,213.0625 19.4531,213.6875 Q19,214.3125 19,215.1719 L19,216.0938 Q19,217.125 19.8438,217.8125 Q20.6875,218.5 22.1875,218.5 Q23.0781,218.5 23.7031,218.2969 Q24.0625,218.1875 24.4688,217.8281 Q24.7344,217.625 24.875,217.5625 Q25.0156,217.5 25.1875,217.5 Q25.5156,217.5 25.75,217.7656 Q26,218.0156 26,218.375 Q26,218.7188 25.6563,219.125 Q25.1563,219.7188 24.3594,220.0469 Q23.3125,220.5 22.0313,220.5 Q20.5313,220.5 19.3281,219.9063 Q18.3594,219.4375 17.6719,218.4219 Q17,217.4063 17,216.2031 L17,215.1094 Q17,213.8594 17.5938,212.7656 Q18.2031,211.6719 19.25,211.0938 Q20.3125,210.5 21.5,210.5 Q22.2188,210.5 22.8438,210.75 Q23.4688,211 24,211.5 Z " fill="#000000"/><text fill="#000000" font-family="sans-serif" font-size="12" lengthAdjust="spacing" textLength="69" x="36" y="219.9102">Receptionist</text><line style="stroke:#A80036;stroke-width:1.5;" x1="8" x2="107" y1="231" y2="231"/><line style="stroke:#A80036;stroke-width:1.5;" x1="8" x2="107" y1="239" y2="239"/><!--MD5=[da547346deef918ea16944ba046651ef]
class Administrator--><rect codeLine="4" fill="#FEFECE" filter="url(#f1p66nxxwmtkey)" height="48" id="Administrator" style="stroke:#A80036;stroke-width:1.5;" width="105" x="533" y="48.5"/><ellipse cx="548" cy="64.5" fill="#ADD1B2" rx="11" ry="11" style="stroke:#A80036;stroke-width:1.0;"/><path d="M550,61 Q550.2031,60.5 550.4375,60.25 Q550.6719,60 550.9375,60 Q551.4063,60 551.7031,60.2813 Q552,60.5625 552,61.2188 L552,62.7813 Q552,63.4375 551.7188,63.7188 Q551.4375,64 551,64 Q550.6094,64 550.3594,63.8281 Q550.1094,63.6563 550,63.2031 Q549.9531,62.8906 549.7813,62.7188 Q549.4688,62.3906 548.9063,62.2031 Q548.3438,62 547.7813,62 Q547.0781,62 546.4844,62.2813 Q545.9063,62.5625 545.4531,63.1875 Q545,63.8125 545,64.6719 L545,65.5938 Q545,66.625 545.8438,67.3125 Q546.6875,68 548.1875,68 Q549.0781,68 549.7031,67.7969 Q550.0625,67.6875 550.4688,67.3281 Q550.7344,67.125 550.875,67.0625 Q551.0156,67 551.1875,67 Q551.5156,67 551.75,67.2656 Q552,67.5156 552,67.875 Q552,68.2188 551.6563,68.625 Q551.1563,69.2188 550.3594,69.5469 Q549.3125,70 548.0313,70 Q546.5313,70 545.3281,69.4063 Q544.3594,68.9375 543.6719,67.9219 Q543,66.9063 543,65.7031 L543,64.6094 Q543,63.3594 543.5938,62.2656 Q544.2031,61.1719 545.25,60.5938 Q546.3125,60 547.5,60 Q548.2188,60 548.8438,60.25 Q549.4688,60.5 550,61 Z " fill="#000000"/><text fill="#000000" font-family="sans-serif" font-size="12" lengthAdjust="spacing" textLength="73" x="562" y="69.4102">Administrator</text><line style="stroke:#A80036;stroke-width:1.5;" x1="534" x2="637" y1="80.5" y2="80.5"/><line style="stroke:#A80036;stroke-width:1.5;" x1="534" x2="637" y1="88.5" y2="88.5"/><!--MD5=[a059576e163b46f56762f12600c49258]
class Nurse--><rect codeLine="5" fill="#FEFECE" filter="url(#f1p66nxxwmtkey)" height="48" id="Nurse" style="stroke:#A80036;stroke-width:1.5;" width="66" x="143.5" y="199"/><ellipse cx="158.5" cy="215" fill="#ADD1B2" rx="11" ry="11" style="stroke:#A80036;stroke-width:1.0;"/><path d="M160.5,211.5 Q160.7031,211 160.9375,210.75 Q161.1719,210.5 161.4375,210.5 Q161.9063,210.5 162.2031,210.7813 Q162.5,211.0625 162.5,211.7188 L162.5,213.2813 Q162.5,213.9375 162.2188,214.2188 Q161.9375,214.5 161.5,214.5 Q161.1094,214.5 160.8594,214.3281 Q160.6094,214.1563 160.5,213.7031 Q160.4531,213.3906 160.2813,213.2188 Q159.9688,212.8906 159.4063,212.7031 Q158.8438,212.5 158.2813,212.5 Q157.5781,212.5 156.9844,212.7813 Q156.4063,213.0625 155.9531,213.6875 Q155.5,214.3125 155.5,215.1719 L155.5,216.0938 Q155.5,217.125 156.3438,217.8125 Q157.1875,218.5 158.6875,218.5 Q159.5781,218.5 160.2031,218.2969 Q160.5625,218.1875 160.9688,217.8281 Q161.2344,217.625 161.375,217.5625 Q161.5156,217.5 161.6875,217.5 Q162.0156,217.5 162.25,217.7656 Q162.5,218.0156 162.5,218.375 Q162.5,218.7188 162.1563,219.125 Q161.6563,219.7188 160.8594,220.0469 Q159.8125,220.5 158.5313,220.5 Q157.0313,220.5 155.8281,219.9063 Q154.8594,219.4375 154.1719,218.4219 Q153.5,217.4063 153.5,216.2031 L153.5,215.1094 Q153.5,213.8594 154.0938,212.7656 Q154.7031,211.6719 155.75,211.0938 Q156.8125,210.5 158,210.5 Q158.7188,210.5 159.3438,210.75 Q159.9688,211 160.5,211.5 Z " fill="#000000"/><text fill="#000000" font-family="sans-serif" font-size="12" lengthAdjust="spacing" textLength="34" x="172.5" y="219.9102">Nurse</text><line style="stroke:#A80036;stroke-width:1.5;" x1="144.5" x2="208.5" y1="231" y2="231"/><line style="stroke:#A80036;stroke-width:1.5;" x1="144.5" x2="208.5" y1="239" y2="239"/><!--MD5=[7421f545a0d8420c5bec41e74b387d9c]
class Employee--><rect codeLine="6" fill="#FEFECE" filter="url(#f1p66nxxwmtkey)" height="131.0156" id="Employee" style="stroke:#A80036;stroke-width:1.5;" width="103" x="125" y="7"/><ellipse cx="147.2" cy="23" fill="#ADD1B2" rx="11" ry="11" style="stroke:#A80036;stroke-width:1.0;"/><path d="M149.2,19.5 Q149.4031,19 149.6375,18.75 Q149.8719,18.5 150.1375,18.5 Q150.6063,18.5 150.9031,18.7813 Q151.2,19.0625 151.2,19.7188 L151.2,21.2813 Q151.2,21.9375 150.9188,22.2188 Q150.6375,22.5 150.2,22.5 Q149.8094,22.5 149.5594,22.3281 Q149.3094,22.1563 149.2,21.7031 Q149.1531,21.3906 148.9813,21.2188 Q148.6688,20.8906 148.1063,20.7031 Q147.5438,20.5 146.9813,20.5 Q146.2781,20.5 145.6844,20.7813 Q145.1063,21.0625 144.6531,21.6875 Q144.2,22.3125 144.2,23.1719 L144.2,24.0938 Q144.2,25.125 145.0438,25.8125 Q145.8875,26.5 147.3875,26.5 Q148.2781,26.5 148.9031,26.2969 Q149.2625,26.1875 149.6688,25.8281 Q149.9344,25.625 150.075,25.5625 Q150.2156,25.5 150.3875,25.5 Q150.7156,25.5 150.95,25.7656 Q151.2,26.0156 151.2,26.375 Q151.2,26.7188 150.8563,27.125 Q150.3563,27.7188 149.5594,28.0469 Q148.5125,28.5 147.2313,28.5 Q145.7313,28.5 144.5281,27.9063 Q143.5594,27.4375 142.8719,26.4219 Q142.2,25.4063 142.2,24.2031 L142.2,23.1094 Q142.2,21.8594 142.7938,20.7656 Q143.4031,19.6719 144.45,19.0938 Q145.5125,18.5 146.7,18.5 Q147.4188,18.5 148.0438,18.75 Q148.6688,19 149.2,19.5 Z " fill="#000000"/><text fill="#000000" font-family="sans-serif" font-size="12" lengthAdjust="spacing" textLength="55" x="162.8" y="27.9102">Employee</text><line style="stroke:#A80036;stroke-width:1.5;" x1="126" x2="227" y1="39" y2="39"/><text fill="#000000" font-family="sans-serif" font-size="11" lengthAdjust="spacing" textLength="26" x="131" y="54.4189">name</text><text fill="#000000" font-family="sans-serif" font-size="11" lengthAdjust="spacing" textLength="67" x="131" y="68.2549">phoneNumber</text><text fill="#000000" font-family="sans-serif" font-size="11" lengthAdjust="spacing" textLength="40" x="131" y="82.0908">address</text><text fill="#000000" font-family="sans-serif" font-size="11" lengthAdjust="spacing" textLength="66" x="131" y="95.9268">emailAddress</text><text fill="#000000" font-family="sans-serif" font-size="11" lengthAdjust="spacing" textLength="91" x="131" y="109.7627">citizenCardNumber</text><text fill="#000000" font-family="sans-serif" font-size="11" lengthAdjust="spacing" textLength="53" x="131" y="123.5986">companyID</text><line style="stroke:#A80036;stroke-width:1.5;" x1="126" x2="227" y1="130.0156" y2="130.0156"/><!--MD5=[2d935fd2dd068a13da1ae531f9857c4f]
class CenterCoordinator--><rect fill="#FEFECE" filter="url(#f1p66nxxwmtkey)" height="48" id="CenterCoordinator" style="stroke:#A80036;stroke-width:1.5;" width="134" x="244.5" y="199"/><ellipse cx="259.5" cy="215" fill="#ADD1B2" rx="11" ry="11" style="stroke:#A80036;stroke-width:1.0;"/><path d="M261.5,211.5 Q261.7031,211 261.9375,210.75 Q262.1719,210.5 262.4375,210.5 Q262.9063,210.5 263.2031,210.7813 Q263.5,211.0625 263.5,211.7188 L263.5,213.2813 Q263.5,213.9375 263.2188,214.2188 Q262.9375,214.5 262.5,214.5 Q262.1094,214.5 261.8594,214.3281 Q261.6094,214.1563 261.5,213.7031 Q261.4531,213.3906 261.2813,213.2188 Q260.9688,212.8906 260.4063,212.7031 Q259.8438,212.5 259.2813,212.5 Q258.5781,212.5 257.9844,212.7813 Q257.4063,213.0625 256.9531,213.6875 Q256.5,214.3125 256.5,215.1719 L256.5,216.0938 Q256.5,217.125 257.3438,217.8125 Q258.1875,218.5 259.6875,218.5 Q260.5781,218.5 261.2031,218.2969 Q261.5625,218.1875 261.9688,217.8281 Q262.2344,217.625 262.375,217.5625 Q262.5156,217.5 262.6875,217.5 Q263.0156,217.5 263.25,217.7656 Q263.5,218.0156 263.5,218.375 Q263.5,218.7188 263.1563,219.125 Q262.6563,219.7188 261.8594,220.0469 Q260.8125,220.5 259.5313,220.5 Q258.0313,220.5 256.8281,219.9063 Q255.8594,219.4375 255.1719,218.4219 Q254.5,217.4063 254.5,216.2031 L254.5,215.1094 Q254.5,213.8594 255.0938,212.7656 Q255.7031,211.6719 256.75,211.0938 Q257.8125,210.5 259,210.5 Q259.7188,210.5 260.3438,210.75 Q260.9688,211 261.5,211.5 Z " fill="#000000"/><text fill="#000000" font-family="sans-serif" font-size="12" lengthAdjust="spacing" textLength="102" x="273.5" y="219.9102">CenterCoordinator</text><line style="stroke:#A80036;stroke-width:1.5;" x1="245.5" x2="377.5" y1="231" y2="231"/><line style="stroke:#A80036;stroke-width:1.5;" x1="245.5" x2="377.5" y1="239" y2="239"/><!--MD5=[6716344a46572fc99c27bf4e50ddbd3d]
reverse link Employee to Nurse--><path codeLine="14" d="M176.5,158.27 C176.5,173.16 176.5,187.47 176.5,198.75 " fill="none" id="Employee-backto-Nurse" style="stroke:#A80036;stroke-width:1.0;"/><polygon fill="none" points="169.5,158.2,176.5,138.2,183.5,158.2,169.5,158.2" style="stroke:#A80036;stroke-width:1.0;"/><!--MD5=[bfff716514ca687b645fe473c6e098a4]
reverse link Employee to Receptionist--><path codeLine="15" d="M112.44,153.44 C99.06,170.13 86,186.44 75.97,198.96 " fill="none" id="Employee-backto-Receptionist" style="stroke:#A80036;stroke-width:1.0;"/><polygon fill="none" points="107.03,149,125,137.77,117.95,157.76,107.03,149" style="stroke:#A80036;stroke-width:1.0;"/><!--MD5=[98f7f3dc8d9719d04ad14614c4ea123f]
reverse link Employee to CenterCoordinator--><path codeLine="16" d="M241.91,145.45 C259.43,164.72 277.14,184.2 290.3,198.68 " fill="none" id="Employee-backto-CenterCoordinator" style="stroke:#A80036;stroke-width:1.0;"/><polygon fill="none" points="236.58,150,228.31,130.49,246.94,140.58,236.58,150" style="stroke:#A80036;stroke-width:1.0;"/><!--MD5=[b8a4f1f13c2d56b2385b1bfafed8418f]
link Employee to Administrator--><path codeLine="19" d="M228.3,72.5 C306.54,72.5 454.07,72.5 532.83,72.5 " fill="none" id="Employee-Administrator" style="stroke:#A80036;stroke-width:1.0;"/><polygon fill="#000000" points="245.5,60.6758,254.5451,63.6147,254.5451,57.7369,245.5,60.6758" style="stroke:#000000;stroke-width:1.0;"/><text fill="#000000" font-family="sans-serif" font-size="13" lengthAdjust="spacing" textLength="255" x="259.5" y="65.9951">requires a list of employees with a given role</text><text fill="#000000" font-family="sans-serif" font-size="13" lengthAdjust="spacing" textLength="5" x="235.9359" y="68.8937">*</text><text fill="#000000" font-family="sans-serif" font-size="13" lengthAdjust="spacing" textLength="7" x="517.9311" y="68.8948">1</text><!--MD5=[e02abdda80afed76b6eabbefb561e086]
@startuml
'https://plantuml.com/class-diagram

class Receptionist
class Administrator
class Nurse
class Employee{
name
phoneNumber
address
emailAddress
citizenCardNumber
companyID
}
Employee <|-down- Nurse
Employee <|-down- Receptionist
Employee <|-down- CenterCoordinator


Administrator "1" -left- "*" Employee : requires a list of employees with a given role >

@enduml

@startuml

class Receptionist
class Administrator
class Nurse
class Employee{
name
phoneNumber
address
emailAddress
citizenCardNumber
companyID
}
Employee <|-down- Nurse
Employee <|-down- Receptionist
Employee <|-down- CenterCoordinator


Administrator "1" -left- "*" Employee : requires a list of employees with a given role >

@enduml

PlantUML version 1.2022.1(Tue Feb 01 18:19:58 GMT 2022)
(GPL source distribution)
Java Runtime: OpenJDK Runtime Environment
JVM: OpenJDK 64-Bit Server VM
Default Encoding: Cp1252
Language: en
Country: US
--></g></svg>