<?xml version="1.0" encoding="UTF-8" standalone="no"?><svg xmlns="http://www.w3.org/2000/svg" xmlns:xlink="http://www.w3.org/1999/xlink" contentStyleType="text/css" height="958px" preserveAspectRatio="none" style="width:2080px;height:958px;background:#FFFFFF;" version="1.1" viewBox="0 0 2080 958" width="2080px" zoomAndPan="magnify"><defs/><g><rect fill="#FFFFFF" height="765.9375" style="stroke:#181818;stroke-width:1.0;" width="10" x="44.5" y="92.6094"/><rect fill="#FFFFFF" height="393.1641" style="stroke:#181818;stroke-width:1.0;" width="10" x="292.5" y="114.9609"/><rect fill="#FFFFFF" height="320.0703" style="stroke:#181818;stroke-width:1.0;" width="10" x="292.5" y="538.4766"/><rect fill="#FFFFFF" height="332.4609" style="stroke:#181818;stroke-width:1.0;" width="10" x="472.5" y="145.3125"/><rect fill="#FFFFFF" height="252.3672" style="stroke:#181818;stroke-width:1.0;" width="10" x="472.5" y="568.8281"/><rect fill="#FFFFFF" height="30" style="stroke:#181818;stroke-width:1.0;" width="10" x="624.5" y="175.6641"/><rect fill="#FFFFFF" height="30" style="stroke:#181818;stroke-width:1.0;" width="10" x="719.5" y="236.0156"/><rect fill="#FFFFFF" height="30.3516" style="stroke:#181818;stroke-width:1.0;" width="10" x="829" y="296.3672"/><rect fill="#FFFFFF" height="30" style="stroke:#181818;stroke-width:1.0;" width="10" x="829" y="599.1797"/><rect fill="#FFFFFF" height="161.6641" style="stroke:#181818;stroke-width:1.0;" width="10" x="952" y="659.5313"/><rect fill="#FFFFFF" height="28" style="stroke:#181818;stroke-width:1.0;" width="10" x="957" y="793.1953"/><rect fill="#FFFFFF" height="120.7031" style="stroke:#181818;stroke-width:1.0;" width="10" x="1293.5" y="357.0703"/><rect fill="#FFFFFF" height="30" style="stroke:#181818;stroke-width:1.0;" width="10" x="1430.5" y="387.4219"/><rect fill="#FFFFFF" height="30" style="stroke:#181818;stroke-width:1.0;" width="10" x="1557.5" y="447.7734"/><line style="stroke:#181818;stroke-width:0.5;stroke-dasharray:5.0,5.0;" x1="49" x2="49" y1="82.6094" y2="876.5469"/><line style="stroke:#181818;stroke-width:0.5;stroke-dasharray:5.0,5.0;" x1="297" x2="297" y1="82.6094" y2="876.5469"/><line style="stroke:#181818;stroke-width:0.5;stroke-dasharray:5.0,5.0;" x1="477" x2="477" y1="82.6094" y2="876.5469"/><line style="stroke:#181818;stroke-width:0.5;stroke-dasharray:5.0,5.0;" x1="629" x2="629" y1="82.6094" y2="876.5469"/><line style="stroke:#181818;stroke-width:0.5;stroke-dasharray:5.0,5.0;" x1="724" x2="724" y1="82.6094" y2="876.5469"/><line style="stroke:#181818;stroke-width:0.5;stroke-dasharray:5.0,5.0;" x1="834" x2="834" y1="82.6094" y2="876.5469"/><line style="stroke:#181818;stroke-width:0.5;stroke-dasharray:5.0,5.0;" x1="957" x2="957" y1="82.6094" y2="876.5469"/><line style="stroke:#181818;stroke-width:0.5;stroke-dasharray:5.0,5.0;" x1="1185" x2="1185" y1="698.8359" y2="876.5469"/><line style="stroke:#181818;stroke-width:0.5;stroke-dasharray:5.0,5.0;" x1="1298" x2="1298" y1="82.6094" y2="876.5469"/><line style="stroke:#181818;stroke-width:0.5;stroke-dasharray:5.0,5.0;" x1="1435.5" x2="1435.5" y1="82.6094" y2="876.5469"/><line style="stroke:#181818;stroke-width:0.5;stroke-dasharray:5.0,5.0;" x1="1562.5" x2="1562.5" y1="82.6094" y2="876.5469"/><line style="stroke:#181818;stroke-width:0.5;stroke-dasharray:5.0,5.0;" x1="1708.5" x2="1708.5" y1="82.6094" y2="876.5469"/><line style="stroke:#181818;stroke-width:0.5;stroke-dasharray:5.0,5.0;" x1="1850.5" x2="1850.5" y1="82.6094" y2="876.5469"/><line style="stroke:#181818;stroke-width:0.5;stroke-dasharray:5.0,5.0;" x1="1996.5" x2="1996.5" y1="82.6094" y2="876.5469"/><text fill="#000000" font-family="sans-serif" font-size="14" lengthAdjust="spacing" textLength="83" x="5" y="79.5332">Administrator</text><ellipse cx="49.5" cy="13.5" fill="#E2E2F0" rx="8" ry="8" style="stroke:#181818;stroke-width:0.5;"/><path d="M49.5,21.5 L49.5,48.5 M36.5,29.5 L62.5,29.5 M49.5,48.5 L36.5,63.5 M49.5,48.5 L62.5,63.5 " fill="none" style="stroke:#181818;stroke-width:0.5;"/><text fill="#000000" font-family="sans-serif" font-size="14" lengthAdjust="spacing" textLength="83" x="5" y="890.0801">Administrator</text><ellipse cx="49.5" cy="901.6563" fill="#E2E2F0" rx="8" ry="8" style="stroke:#181818;stroke-width:0.5;"/><path d="M49.5,909.6563 L49.5,936.6563 M36.5,917.6563 L62.5,917.6563 M49.5,936.6563 L36.5,951.6563 M49.5,936.6563 L62.5,951.6563 " fill="none" style="stroke:#181818;stroke-width:0.5;"/><rect fill="#E2E2F0" height="31.6094" rx="2.5" ry="2.5" style="stroke:#181818;stroke-width:0.5;" width="121" x="237" y="50"/><text fill="#000000" font-family="sans-serif" font-size="14" lengthAdjust="spacing" textLength="107" x="244" y="71.5332">:ListEmployeesUI</text><rect fill="#E2E2F0" height="31.6094" rx="2.5" ry="2.5" style="stroke:#181818;stroke-width:0.5;" width="121" x="237" y="875.5469"/><text fill="#000000" font-family="sans-serif" font-size="14" lengthAdjust="spacing" textLength="107" x="244" y="897.0801">:ListEmployeesUI</text><rect fill="#E2E2F0" height="31.6094" rx="2.5" ry="2.5" style="stroke:#181818;stroke-width:0.5;" width="171" x="392" y="50"/><text fill="#000000" font-family="sans-serif" font-size="14" lengthAdjust="spacing" textLength="157" x="399" y="71.5332">:ListEmployeesController</text><rect fill="#E2E2F0" height="31.6094" rx="2.5" ry="2.5" style="stroke:#181818;stroke-width:0.5;" width="171" x="392" y="875.5469"/><text fill="#000000" font-family="sans-serif" font-size="14" lengthAdjust="spacing" textLength="157" x="399" y="897.0801">:ListEmployeesController</text><rect fill="#E2E2F0" height="31.6094" rx="2.5" ry="2.5" style="stroke:#181818;stroke-width:0.5;" width="83" x="588" y="50"/><text fill="#000000" font-family="sans-serif" font-size="14" lengthAdjust="spacing" textLength="69" x="595" y="71.5332">Application</text><rect fill="#E2E2F0" height="31.6094" rx="2.5" ry="2.5" style="stroke:#181818;stroke-width:0.5;" width="83" x="588" y="875.5469"/><text fill="#000000" font-family="sans-serif" font-size="14" lengthAdjust="spacing" textLength="69" x="595" y="897.0801">Application</text><rect fill="#E2E2F0" height="49.2188" rx="2.5" ry="2.5" style="stroke:#181818;stroke-width:0.5;" width="87" x="681" y="32.3906"/><text fill="#000000" font-family="sans-serif" font-size="14" lengthAdjust="spacing" textLength="24" x="712.5" y="53.9238">app</text><text fill="#000000" font-family="sans-serif" font-size="14" lengthAdjust="spacing" textLength="73" x="688" y="71.5332">:Application</text><rect fill="#E2E2F0" height="49.2188" rx="2.5" ry="2.5" style="stroke:#181818;stroke-width:0.5;" width="87" x="681" y="875.5469"/><text fill="#000000" font-family="sans-serif" font-size="14" lengthAdjust="spacing" textLength="24" x="712.5" y="897.0801">app</text><text fill="#000000" font-family="sans-serif" font-size="14" lengthAdjust="spacing" textLength="73" x="688" y="914.6895">:Application</text><rect fill="#E2E2F0" height="31.6094" rx="2.5" ry="2.5" style="stroke:#181818;stroke-width:0.5;" width="112" x="778" y="50"/><text fill="#000000" font-family="sans-serif" font-size="14" lengthAdjust="spacing" textLength="98" x="785" y="71.5332">comp:Company</text><rect fill="#E2E2F0" height="31.6094" rx="2.5" ry="2.5" style="stroke:#181818;stroke-width:0.5;" width="112" x="778" y="875.5469"/><text fill="#000000" font-family="sans-serif" font-size="14" lengthAdjust="spacing" textLength="98" x="785" y="897.0801">comp:Company</text><rect fill="#E2E2F0" height="49.2188" rx="2.5" ry="2.5" style="stroke:#181818;stroke-width:0.5;" width="114" x="900" y="32.3906"/><text fill="#000000" font-family="sans-serif" font-size="14" lengthAdjust="spacing" textLength="21" x="946.5" y="53.9238">gre</text><text fill="#000000" font-family="sans-serif" font-size="14" lengthAdjust="spacing" textLength="100" x="907" y="71.5332">:EmployeeStore</text><rect fill="#E2E2F0" height="49.2188" rx="2.5" ry="2.5" style="stroke:#181818;stroke-width:0.5;" width="114" x="900" y="875.5469"/><text fill="#000000" font-family="sans-serif" font-size="14" lengthAdjust="spacing" textLength="21" x="946.5" y="897.0801">gre</text><text fill="#000000" font-family="sans-serif" font-size="14" lengthAdjust="spacing" textLength="100" x="907" y="914.6895">:EmployeeStore</text><rect fill="#E2E2F0" height="31.6094" rx="2.5" ry="2.5" style="stroke:#181818;stroke-width:0.5;" width="111" x="1130" y="875.5469"/><text fill="#000000" font-family="sans-serif" font-size="14" lengthAdjust="spacing" textLength="97" x="1137" y="897.0801">emp: Employee</text><rect fill="#E2E2F0" height="49.2188" rx="2.5" ry="2.5" style="stroke:#181818;stroke-width:0.5;" width="95" x="1251" y="32.3906"/><text fill="#000000" font-family="sans-serif" font-size="14" lengthAdjust="spacing" textLength="28" x="1284.5" y="53.9238">auth</text><text fill="#000000" font-family="sans-serif" font-size="14" lengthAdjust="spacing" textLength="81" x="1258" y="71.5332">:AuthFacade</text><rect fill="#E2E2F0" height="49.2188" rx="2.5" ry="2.5" style="stroke:#181818;stroke-width:0.5;" width="95" x="1251" y="875.5469"/><text fill="#000000" font-family="sans-serif" font-size="14" lengthAdjust="spacing" textLength="28" x="1284.5" y="897.0801">auth</text><text fill="#000000" font-family="sans-serif" font-size="14" lengthAdjust="spacing" textLength="81" x="1258" y="914.6895">:AuthFacade</text><rect fill="#E2E2F0" height="31.6094" rx="2.5" ry="2.5" style="stroke:#181818;stroke-width:0.5;" width="110" x="1380.5" y="50"/><text fill="#000000" font-family="sans-serif" font-size="14" lengthAdjust="spacing" textLength="96" x="1387.5" y="71.5332">:UserRoleStore</text><rect fill="#E2E2F0" height="31.6094" rx="2.5" ry="2.5" style="stroke:#181818;stroke-width:0.5;" width="110" x="1380.5" y="875.5469"/><text fill="#000000" font-family="sans-serif" font-size="14" lengthAdjust="spacing" textLength="96" x="1387.5" y="897.0801">:UserRoleStore</text><rect fill="#E2E2F0" height="31.6094" rx="2.5" ry="2.5" style="stroke:#181818;stroke-width:0.5;" width="124" x="1500.5" y="50"/><text fill="#000000" font-family="sans-serif" font-size="14" lengthAdjust="spacing" textLength="110" x="1507.5" y="71.5332">:UserRoleMapper</text><rect fill="#E2E2F0" height="31.6094" rx="2.5" ry="2.5" style="stroke:#181818;stroke-width:0.5;" width="124" x="1500.5" y="875.5469"/><text fill="#000000" font-family="sans-serif" font-size="14" lengthAdjust="spacing" textLength="110" x="1507.5" y="897.0801">:UserRoleMapper</text><rect fill="#E2E2F0" height="49.2188" rx="2.5" ry="2.5" style="stroke:#181818;stroke-width:0.5;" width="148" x="1634.5" y="32.3906"/><text fill="#000000" font-family="sans-serif" font-size="14" lengthAdjust="spacing" textLength="69" x="1674" y="53.9238">lRolesDTO</text><text fill="#000000" font-family="sans-serif" font-size="14" lengthAdjust="spacing" textLength="134" x="1641.5" y="71.5332">: List&lt;UserRoleDTO&gt;</text><rect fill="#E2E2F0" height="49.2188" rx="2.5" ry="2.5" style="stroke:#181818;stroke-width:0.5;" width="148" x="1634.5" y="875.5469"/><text fill="#000000" font-family="sans-serif" font-size="14" lengthAdjust="spacing" textLength="69" x="1674" y="897.0801">lRolesDTO</text><text fill="#000000" font-family="sans-serif" font-size="14" lengthAdjust="spacing" textLength="134" x="1641.5" y="914.6895">: List&lt;UserRoleDTO&gt;</text><rect fill="#E2E2F0" height="49.2188" rx="2.5" ry="2.5" style="stroke:#181818;stroke-width:0.5;" width="117" x="1792.5" y="32.3906"/><text fill="#000000" font-family="sans-serif" font-size="14" lengthAdjust="spacing" textLength="43" x="1829.5" y="53.9238">sRoles</text><text fill="#000000" font-family="sans-serif" font-size="14" lengthAdjust="spacing" textLength="103" x="1799.5" y="71.5332">: Set&lt;UserRole&gt;</text><rect fill="#E2E2F0" height="49.2188" rx="2.5" ry="2.5" style="stroke:#181818;stroke-width:0.5;" width="117" x="1792.5" y="875.5469"/><text fill="#000000" font-family="sans-serif" font-size="14" lengthAdjust="spacing" textLength="43" x="1829.5" y="897.0801">sRoles</text><text fill="#000000" font-family="sans-serif" font-size="14" lengthAdjust="spacing" textLength="103" x="1799.5" y="914.6895">: Set&lt;UserRole&gt;</text><rect fill="#E2E2F0" height="49.2188" rx="2.5" ry="2.5" style="stroke:#181818;stroke-width:0.5;" width="155" x="1919.5" y="32.3906"/><text fill="#000000" font-family="sans-serif" font-size="14" lengthAdjust="spacing" textLength="8" x="1993" y="53.9238">rl</text><text fill="#000000" font-family="sans-serif" font-size="14" lengthAdjust="spacing" textLength="137" x="1930.5" y="71.5332">List&lt;String&gt; RolesList</text><rect fill="#E2E2F0" height="49.2188" rx="2.5" ry="2.5" style="stroke:#181818;stroke-width:0.5;" width="155" x="1919.5" y="875.5469"/><text fill="#000000" font-family="sans-serif" font-size="14" lengthAdjust="spacing" textLength="8" x="1993" y="897.0801">rl</text><text fill="#000000" font-family="sans-serif" font-size="14" lengthAdjust="spacing" textLength="137" x="1930.5" y="914.6895">List&lt;String&gt; RolesList</text><rect fill="#FFFFFF" height="765.9375" style="stroke:#181818;stroke-width:1.0;" width="10" x="44.5" y="92.6094"/><rect fill="#FFFFFF" height="393.1641" style="stroke:#181818;stroke-width:1.0;" width="10" x="292.5" y="114.9609"/><rect fill="#FFFFFF" height="320.0703" style="stroke:#181818;stroke-width:1.0;" width="10" x="292.5" y="538.4766"/><rect fill="#FFFFFF" height="332.4609" style="stroke:#181818;stroke-width:1.0;" width="10" x="472.5" y="145.3125"/><rect fill="#FFFFFF" height="252.3672" style="stroke:#181818;stroke-width:1.0;" width="10" x="472.5" y="568.8281"/><rect fill="#FFFFFF" height="30" style="stroke:#181818;stroke-width:1.0;" width="10" x="624.5" y="175.6641"/><rect fill="#FFFFFF" height="30" style="stroke:#181818;stroke-width:1.0;" width="10" x="719.5" y="236.0156"/><rect fill="#FFFFFF" height="30.3516" style="stroke:#181818;stroke-width:1.0;" width="10" x="829" y="296.3672"/><rect fill="#FFFFFF" height="30" style="stroke:#181818;stroke-width:1.0;" width="10" x="829" y="599.1797"/><rect fill="#FFFFFF" height="161.6641" style="stroke:#181818;stroke-width:1.0;" width="10" x="952" y="659.5313"/><rect fill="#FFFFFF" height="28" style="stroke:#181818;stroke-width:1.0;" width="10" x="957" y="793.1953"/><rect fill="#FFFFFF" height="120.7031" style="stroke:#181818;stroke-width:1.0;" width="10" x="1293.5" y="357.0703"/><rect fill="#FFFFFF" height="30" style="stroke:#181818;stroke-width:1.0;" width="10" x="1430.5" y="387.4219"/><rect fill="#FFFFFF" height="30" style="stroke:#181818;stroke-width:1.0;" width="10" x="1557.5" y="447.7734"/><polygon fill="#181818" points="280.5,110.9609,290.5,114.9609,280.5,118.9609,284.5,114.9609" style="stroke:#181818;stroke-width:1.0;"/><line style="stroke:#181818;stroke-width:1.0;" x1="54.5" x2="286.5" y1="114.9609" y2="114.9609"/><text fill="#000000" font-family="sans-serif" font-size="13" font-weight="bold" lengthAdjust="spacing" textLength="7" x="61.5" y="110.1045">1</text><text fill="#000000" font-family="sans-serif" font-size="13" lengthAdjust="spacing" textLength="208" x="72.5" y="110.1045">asks to return list of Employees     .</text><polygon fill="#181818" points="460.5,141.3125,470.5,145.3125,460.5,149.3125,464.5,145.3125" style="stroke:#181818;stroke-width:1.0;"/><line style="stroke:#181818;stroke-width:1.0;" x1="302.5" x2="466.5" y1="145.3125" y2="145.3125"/><text fill="#000000" font-family="sans-serif" font-size="13" font-weight="bold" lengthAdjust="spacing" textLength="7" x="309.5" y="140.4561">2</text><text fill="#000000" font-family="sans-serif" font-size="13" lengthAdjust="spacing" textLength="82" x="320.5" y="140.4561">rl = getRoles()</text><polygon fill="#181818" points="612.5,171.6641,622.5,175.6641,612.5,179.6641,616.5,175.6641" style="stroke:#181818;stroke-width:1.0;"/><line style="stroke:#181818;stroke-width:1.0;" x1="482.5" x2="618.5" y1="175.6641" y2="175.6641"/><text fill="#000000" font-family="sans-serif" font-size="13" font-weight="bold" lengthAdjust="spacing" textLength="7" x="489.5" y="170.8076">3</text><text fill="#000000" font-family="sans-serif" font-size="13" lengthAdjust="spacing" textLength="112" x="500.5" y="170.8076">app = getInstance()</text><polygon fill="#181818" points="707.5,232.0156,717.5,236.0156,707.5,240.0156,711.5,236.0156" style="stroke:#181818;stroke-width:1.0;"/><line style="stroke:#181818;stroke-width:1.0;" x1="482.5" x2="713.5" y1="236.0156" y2="236.0156"/><text fill="#000000" font-family="sans-serif" font-size="13" font-weight="bold" lengthAdjust="spacing" textLength="7" x="489.5" y="231.1592">4</text><text fill="#000000" font-family="sans-serif" font-size="13" lengthAdjust="spacing" textLength="129" x="500.5" y="231.1592">comp = getCompany()</text><polygon fill="#181818" points="817,292.3672,827,296.3672,817,300.3672,821,296.3672" style="stroke:#181818;stroke-width:1.0;"/><line style="stroke:#181818;stroke-width:1.0;" x1="482.5" x2="823" y1="296.3672" y2="296.3672"/><text fill="#000000" font-family="sans-serif" font-size="13" font-weight="bold" lengthAdjust="spacing" textLength="7" x="489.5" y="291.5107">5</text><text fill="#000000" font-family="sans-serif" font-size="13" lengthAdjust="spacing" textLength="137" x="500.5" y="291.5107">auth = getAuthFacade()</text><polygon fill="#181818" points="822,322.7188,832,326.7188,822,330.7188,826,326.7188" style="stroke:#181818;stroke-width:1.0;"/><line style="stroke:#181818;stroke-width:1.0;" x1="482.5" x2="828" y1="326.7188" y2="326.7188"/><text fill="#000000" font-family="sans-serif" font-size="13" font-weight="bold" lengthAdjust="spacing" textLength="7" x="489.5" y="321.8623">6</text><text fill="#000000" font-family="sans-serif" font-size="13" lengthAdjust="spacing" textLength="111" x="500.5" y="321.8623">lRoles = getRoles()</text><polygon fill="#181818" points="1281.5,353.0703,1291.5,357.0703,1281.5,361.0703,1285.5,357.0703" style="stroke:#181818;stroke-width:1.0;"/><line style="stroke:#181818;stroke-width:1.0;" x1="482.5" x2="1287.5" y1="357.0703" y2="357.0703"/><text fill="#000000" font-family="sans-serif" font-size="13" font-weight="bold" lengthAdjust="spacing" textLength="7" x="489.5" y="352.2139">7</text><text fill="#000000" font-family="sans-serif" font-size="13" lengthAdjust="spacing" textLength="164" x="500.5" y="352.2139">lRolesDTO = getUserRoles()</text><polygon fill="#181818" points="1418.5,383.4219,1428.5,387.4219,1418.5,391.4219,1422.5,387.4219" style="stroke:#181818;stroke-width:1.0;"/><line style="stroke:#181818;stroke-width:1.0;" x1="1303.5" x2="1424.5" y1="387.4219" y2="387.4219"/><text fill="#000000" font-family="sans-serif" font-size="13" font-weight="bold" lengthAdjust="spacing" textLength="7" x="1310.5" y="382.5654">8</text><text fill="#000000" font-family="sans-serif" font-size="13" lengthAdjust="spacing" textLength="97" x="1321.5" y="382.5654">sRoles = getAll()</text><polygon fill="#181818" points="1545.5,443.7734,1555.5,447.7734,1545.5,451.7734,1549.5,447.7734" style="stroke:#181818;stroke-width:1.0;"/><line style="stroke:#181818;stroke-width:1.0;" x1="1303.5" x2="1551.5" y1="447.7734" y2="447.7734"/><text fill="#000000" font-family="sans-serif" font-size="13" font-weight="bold" lengthAdjust="spacing" textLength="7" x="1310.5" y="442.917">9</text><text fill="#000000" font-family="sans-serif" font-size="13" lengthAdjust="spacing" textLength="85" x="1321.5" y="442.917">toDTO(sRoles)</text><polygon fill="#181818" points="65.5,504.125,55.5,508.125,65.5,512.125,61.5,508.125" style="stroke:#181818;stroke-width:1.0;"/><line style="stroke:#181818;stroke-width:1.0;stroke-dasharray:2.0,2.0;" x1="59.5" x2="296.5" y1="508.125" y2="508.125"/><text fill="#000000" font-family="sans-serif" font-size="13" font-weight="bold" lengthAdjust="spacing" textLength="14" x="71.5" y="503.2686">10</text><text fill="#000000" font-family="sans-serif" font-size="13" lengthAdjust="spacing" textLength="160" x="89.5" y="503.2686">ask to select employee role</text><polygon fill="#181818" points="280.5,534.4766,290.5,538.4766,280.5,542.4766,284.5,538.4766" style="stroke:#181818;stroke-width:1.0;"/><line style="stroke:#181818;stroke-width:1.0;" x1="54.5" x2="286.5" y1="538.4766" y2="538.4766"/><text fill="#000000" font-family="sans-serif" font-size="13" font-weight="bold" lengthAdjust="spacing" textLength="14" x="61.5" y="533.6201">11</text><text fill="#000000" font-family="sans-serif" font-size="13" lengthAdjust="spacing" textLength="150" x="79.5" y="533.6201">selects the requested role</text><polygon fill="#181818" points="460.5,564.8281,470.5,568.8281,460.5,572.8281,464.5,568.8281" style="stroke:#181818;stroke-width:1.0;"/><line style="stroke:#181818;stroke-width:1.0;" x1="302.5" x2="466.5" y1="568.8281" y2="568.8281"/><text fill="#000000" font-family="sans-serif" font-size="13" font-weight="bold" lengthAdjust="spacing" textLength="14" x="309.5" y="563.9717">12</text><text fill="#000000" font-family="sans-serif" font-size="13" lengthAdjust="spacing" textLength="133" x="327.5" y="563.9717">getListEmployees(role)</text><polygon fill="#181818" points="817,595.1797,827,599.1797,817,603.1797,821,599.1797" style="stroke:#181818;stroke-width:1.0;"/><line style="stroke:#181818;stroke-width:1.0;" x1="482.5" x2="823" y1="599.1797" y2="599.1797"/><text fill="#000000" font-family="sans-serif" font-size="13" font-weight="bold" lengthAdjust="spacing" textLength="14" x="489.5" y="594.3232">13</text><text fill="#000000" font-family="sans-serif" font-size="13" lengthAdjust="spacing" textLength="149" x="507.5" y="594.3232">gre = getEmployeeStore()</text><polygon fill="#181818" points="940,655.5313,950,659.5313,940,663.5313,944,659.5313" style="stroke:#181818;stroke-width:1.0;"/><line style="stroke:#181818;stroke-width:1.0;" x1="482.5" x2="946" y1="659.5313" y2="659.5313"/><text fill="#000000" font-family="sans-serif" font-size="13" font-weight="bold" lengthAdjust="spacing" textLength="14" x="489.5" y="654.6748">14</text><text fill="#000000" font-family="sans-serif" font-size="13" lengthAdjust="spacing" textLength="112" x="507.5" y="654.6748">getListEmployees()</text><polygon fill="#181818" points="1118,685.8828,1128,689.8828,1118,693.8828,1122,689.8828" style="stroke:#181818;stroke-width:1.0;"/><line style="stroke:#181818;stroke-width:1.0;stroke-dasharray:2.0,2.0;" x1="962" x2="1124" y1="689.8828" y2="689.8828"/><text fill="#000000" font-family="sans-serif" font-size="13" font-weight="bold" lengthAdjust="spacing" textLength="14" x="969" y="685.0264">15</text><text fill="#000000" font-family="sans-serif" font-size="13" lengthAdjust="spacing" textLength="126" x="987" y="685.0264">getn iListEmployees()</text><rect fill="#E2E2F0" height="31.6094" rx="2.5" ry="2.5" style="stroke:#181818;stroke-width:0.5;" width="111" x="1130" y="667.5313"/><text fill="#000000" font-family="sans-serif" font-size="14" lengthAdjust="spacing" textLength="97" x="1137" y="689.0645">emp: Employee</text><path d="M976,715.1406 L976,757.1406 L1395,757.1406 L1395,725.1406 L1385,715.1406 L976,715.1406 " fill="#FEFFDD" style="stroke:#181818;stroke-width:0.5;"/><path d="M1385,715.1406 L1385,725.1406 L1395,725.1406 L1385,715.1406 " fill="#FEFFDD" style="stroke:#181818;stroke-width:0.5;"/><text fill="#000000" font-family="sans-serif" font-size="13" font-weight="bold" lengthAdjust="spacing" textLength="28" x="982" y="733.6357">emp</text><text fill="#000000" font-family="sans-serif" font-size="13" lengthAdjust="spacing" textLength="366" x="1014" y="733.6357">might be anstance of Nurse, Receptionist or CenterCoordinator.</text><text fill="#000000" font-family="sans-serif" font-size="13" lengthAdjust="spacing" textLength="334" x="982" y="749.9873">It depends of the type of Employee requested to be listed.</text><line style="stroke:#181818;stroke-width:1.0;" x1="967" x2="1009" y1="785.1953" y2="785.1953"/><line style="stroke:#181818;stroke-width:1.0;" x1="1009" x2="1009" y1="785.1953" y2="798.1953"/><line style="stroke:#181818;stroke-width:1.0;" x1="968" x2="1009" y1="798.1953" y2="798.1953"/><polygon fill="#181818" points="978,794.1953,968,798.1953,978,802.1953,974,798.1953" style="stroke:#181818;stroke-width:1.0;"/><text fill="#000000" font-family="sans-serif" font-size="13" font-weight="bold" lengthAdjust="spacing" textLength="14" x="974" y="780.3389">16</text><text fill="#000000" font-family="sans-serif" font-size="13" lengthAdjust="spacing" textLength="157" x="992" y="780.3389">ListEmployeesByRole(role)</text><polygon fill="#181818" points="60.5,854.5469,50.5,858.5469,60.5,862.5469,56.5,858.5469" style="stroke:#181818;stroke-width:1.0;"/><line style="stroke:#181818;stroke-width:1.0;stroke-dasharray:2.0,2.0;" x1="54.5" x2="296.5" y1="858.5469" y2="858.5469"/><text fill="#000000" font-family="sans-serif" font-size="13" font-weight="bold" lengthAdjust="spacing" textLength="14" x="66.5" y="853.6904">17</text><text fill="#000000" font-family="sans-serif" font-size="13" lengthAdjust="spacing" textLength="108" x="84.5" y="853.6904">shows required list</text><!--MD5=[7b45f874b45a1f19106572b4c8923417]
@startuml
autonumber
actor "Administrator" as ADM


participant ":ListEmployeesUI" as UI
participant ":ListEmployeesController" as CTRL
participant ":ListEmployeesUI" as UI
participant ":ListEmployeesController" as CTRL
participant "Application" as APP
participant "app\n:Application" as App
participant "comp:Company" as COMP
participant "gre\n:EmployeeStore" as ES
participant "emp: Employee" as EMP
participant "auth\n:AuthFacade" as AF
participant ":UserRoleStore" as URS
participant ":UserRoleMapper" as URM
participant "lRolesDTO\n: List<UserRoleDTO>" as lRDTO
participant "sRoles\n: Set<UserRole>" as SR
participant "rl\n List<String> RolesList" as rl


activate ADM

ADM -> UI : asks to return list of Employees     .
activate UI

UI -> CTRL : rl = getRoles()
activate CTRL

CTRL -> APP : app = getInstance()
activate APP
deactivate APP

CTRL -> App : comp = getCompany()
activate App
deactivate App


CTRL -> COMP: auth = getAuthFacade()
activate COMP


CTRL -> COMP: lRoles = getRoles()
deactivate COMP


CTRL -> AF : lRolesDTO = getUserRoles()
activate AF

AF -> URS : sRoles = getAll()
activate URS
deactivate URS

AF -> URM :  toDTO(sRoles)
activate URM

deactivate URM
deactivate AF
deactivate CTRL

UI - -> ADM : ask to select employee role
deactivate UI



ADM -> UI : selects the requested role
activate UI



UI -> CTRL : getListEmployees(role)
activate CTRL

CTRL -> COMP : gre = getEmployeeStore()
activate COMP
deactivate COMP

CTRL -> ES : getListEmployees()
activate ES


ES - -> EMP** : getn iListEmployees()
                                     note over EMP : **emp** might be anstance of Nurse, Receptionist or CenterCoordinator.\nIt depends of the type of Employee requested to be listed.


ES -> ES : ListEmployeesByRole(role)
activate ES
deactivate ES
deactivate ES





deactivate CTRL
deactivate ES

UI - -> ADM : shows required list
deactivate UI



deactivate ADM

@enduml

PlantUML version 1.2022.4(Sat Apr 09 14:29:17 BST 2022)
(GPL source distribution)
Java Runtime: OpenJDK Runtime Environment
JVM: OpenJDK 64-Bit Server VM
Default Encoding: Cp1252
Language: en
Country: US
--></g></svg>