<?xml version="1.0" encoding="UTF-8" standalone="no"?><svg xmlns="http://www.w3.org/2000/svg" xmlns:xlink="http://www.w3.org/1999/xlink" contentStyleType="text/css" height="491.4px" preserveAspectRatio="none" style="width:1055px;height:491px;background:#FFFFFF;" version="1.1" viewBox="0 0 1055 491" width="1055.4px" zoomAndPan="magnify"><defs/><g><rect fill="#FFFFFF" height="381.7641" style="stroke:#181818;stroke-width:0.6;" width="6" x="25.2" y="55.5656"/><rect fill="#FFFFFF" height="163.2656" style="stroke:#181818;stroke-width:0.6;" width="6" x="192.6" y="68.9766"/><rect fill="#FFFFFF" height="181.4766" style="stroke:#181818;stroke-width:0.6;" width="6" x="192.6" y="250.4531"/><rect fill="#FFFFFF" height="72.4219" style="stroke:#181818;stroke-width:0.6;" width="6" x="350.4" y="87.1875"/><rect fill="#FFFFFF" height="36.2109" style="stroke:#181818;stroke-width:0.6;" width="6" x="350.4" y="177.8203"/><rect fill="#FFFFFF" height="145.0547" style="stroke:#181818;stroke-width:0.6;" width="6" x="350.4" y="268.6641"/><rect fill="#FFFFFF" height="18" style="stroke:#181818;stroke-width:0.6;" width="6" x="444.9" y="105.3984"/><rect fill="#FFFFFF" height="18" style="stroke:#181818;stroke-width:0.6;" width="6" x="492" y="141.6094"/><rect fill="#FFFFFF" height="54.4219" style="stroke:#181818;stroke-width:0.6;" width="6" x="492" y="286.875"/><rect fill="#FFFFFF" height="18" style="stroke:#181818;stroke-width:0.6;" width="6" x="618.3" y="359.5078"/><rect fill="#FFFFFF" height="18" style="stroke:#181818;stroke-width:0.6;" width="6" x="708.9" y="196.0313"/><rect fill="#FFFFFF" height="36.2109" style="stroke:#181818;stroke-width:0.6;" width="6" x="794.4" y="305.0859"/><rect fill="#FFFFFF" height="18" style="stroke:#181818;stroke-width:0.6;" width="6" x="979.5" y="323.2969"/><rect fill="#FFFFFF" height="18" style="stroke:#181818;stroke-width:0.6;" width="6" x="1025.1" y="395.7188"/><line style="stroke:#181818;stroke-width:0.3;stroke-dasharray:5.0,5.0;" x1="28.2" x2="28.2" y1="49.5656" y2="442.7297"/><line style="stroke:#181818;stroke-width:0.3;stroke-dasharray:5.0,5.0;" x1="195.6" x2="195.6" y1="49.5656" y2="442.7297"/><line style="stroke:#181818;stroke-width:0.3;stroke-dasharray:5.0,5.0;" x1="353.4" x2="353.4" y1="49.5656" y2="442.7297"/><line style="stroke:#181818;stroke-width:0.3;stroke-dasharray:5.0,5.0;" x1="447.6" x2="447.6" y1="49.5656" y2="442.7297"/><line style="stroke:#181818;stroke-width:0.3;stroke-dasharray:5.0,5.0;" x1="494.7" x2="494.7" y1="49.5656" y2="442.7297"/><line style="stroke:#181818;stroke-width:0.3;stroke-dasharray:5.0,5.0;" x1="547.5" x2="547.5" y1="49.5656" y2="442.7297"/><line style="stroke:#181818;stroke-width:0.3;stroke-dasharray:5.0,5.0;" x1="621.3" x2="621.3" y1="49.5656" y2="442.7297"/><line style="stroke:#181818;stroke-width:0.3;stroke-dasharray:5.0,5.0;" x1="711.9" x2="711.9" y1="49.5656" y2="442.7297"/><line style="stroke:#181818;stroke-width:0.3;stroke-dasharray:5.0,5.0;" x1="797.1" x2="797.1" y1="49.5656" y2="442.7297"/><line style="stroke:#181818;stroke-width:0.3;stroke-dasharray:5.0,5.0;" x1="864.9" x2="864.9" y1="49.5656" y2="442.7297"/><line style="stroke:#181818;stroke-width:0.3;stroke-dasharray:5.0,5.0;" x1="932.1" x2="932.1" y1="49.5656" y2="442.7297"/><line style="stroke:#181818;stroke-width:0.3;stroke-dasharray:5.0,5.0;" x1="982.5" x2="982.5" y1="49.5656" y2="442.7297"/><line style="stroke:#181818;stroke-width:0.3;stroke-dasharray:5.0,5.0;" x1="1028.1" x2="1028.1" y1="49.5656" y2="442.7297"/><text fill="#000000" font-family="sans-serif" font-size="8.4" lengthAdjust="spacing" textLength="46.8" x="3" y="47.7199">Receptionist</text><ellipse cx="28.2" cy="8.1" fill="#E2E2F0" rx="4.8" ry="4.8" style="stroke:#181818;stroke-width:0.3;"/><path d="M28.2,12.9 L28.2,29.1 M20.4,17.7 L36,17.7 M28.2,29.1 L20.4,38.1 M28.2,29.1 L36,38.1 " fill="none" style="stroke:#181818;stroke-width:0.3;"/><text fill="#000000" font-family="sans-serif" font-size="8.4" lengthAdjust="spacing" textLength="46.8" x="3" y="450.8496">Receptionist</text><ellipse cx="28.2" cy="457.7953" fill="#E2E2F0" rx="4.8" ry="4.8" style="stroke:#181818;stroke-width:0.3;"/><path d="M28.2,462.5953 L28.2,478.7953 M20.4,467.3953 L36,467.3953 M28.2,478.7953 L20.4,487.7953 M28.2,478.7953 L36,487.7953 " fill="none" style="stroke:#181818;stroke-width:0.3;"/><rect fill="#E2E2F0" height="18.9656" rx="1.5" ry="1.5" style="stroke:#181818;stroke-width:0.3;" width="123.6" x="133.8" y="30"/><text fill="#000000" font-family="sans-serif" font-size="8.4" lengthAdjust="spacing" textLength="115.2" x="138" y="42.9199">:ChoosingVaccinationCenterUI</text><rect fill="#E2E2F0" height="18.9656" rx="1.5" ry="1.5" style="stroke:#181818;stroke-width:0.3;" width="123.6" x="133.8" y="442.1297"/><text fill="#000000" font-family="sans-serif" font-size="8.4" lengthAdjust="spacing" textLength="115.2" x="138" y="455.0496">:ChoosingVaccinationCenterUI</text><rect fill="#E2E2F0" height="18.9656" rx="1.5" ry="1.5" style="stroke:#181818;stroke-width:0.3;" width="153.6" x="276.6" y="30"/><text fill="#000000" font-family="sans-serif" font-size="8.4" lengthAdjust="spacing" textLength="145.2" x="280.8" y="42.9199">:ChoosingVaccinationCenterController</text><rect fill="#E2E2F0" height="18.9656" rx="1.5" ry="1.5" style="stroke:#181818;stroke-width:0.3;" width="153.6" x="276.6" y="442.1297"/><text fill="#000000" font-family="sans-serif" font-size="8.4" lengthAdjust="spacing" textLength="145.2" x="280.8" y="455.0496">:ChoosingVaccinationCenterController</text><rect fill="#E2E2F0" height="18.9656" rx="1.5" ry="1.5" style="stroke:#181818;stroke-width:0.3;" width="23.4" x="436.2" y="30"/><text fill="#000000" font-family="sans-serif" font-size="8.4" lengthAdjust="spacing" textLength="15" x="440.4" y="42.9199">App</text><rect fill="#E2E2F0" height="18.9656" rx="1.5" ry="1.5" style="stroke:#181818;stroke-width:0.3;" width="23.4" x="436.2" y="442.1297"/><text fill="#000000" font-family="sans-serif" font-size="8.4" lengthAdjust="spacing" textLength="15" x="440.4" y="455.0496">App</text><rect fill="#E2E2F0" height="29.5313" rx="1.5" ry="1.5" style="stroke:#181818;stroke-width:0.3;" width="25.8" x="482.1" y="19.4344"/><text fill="#000000" font-family="sans-serif" font-size="8.4" lengthAdjust="spacing" textLength="14.4" x="487.8" y="32.3543">app</text><text fill="#000000" font-family="sans-serif" font-size="8.4" lengthAdjust="spacing" textLength="17.4" x="486.3" y="42.9199">:App</text><rect fill="#E2E2F0" height="29.5313" rx="1.5" ry="1.5" style="stroke:#181818;stroke-width:0.3;" width="25.8" x="482.1" y="442.1297"/><text fill="#000000" font-family="sans-serif" font-size="8.4" lengthAdjust="spacing" textLength="14.4" x="487.8" y="455.0496">app</text><text fill="#000000" font-family="sans-serif" font-size="8.4" lengthAdjust="spacing" textLength="17.4" x="486.3" y="465.6152">:App</text><rect fill="#E2E2F0" height="18.9656" rx="1.5" ry="1.5" style="stroke:#181818;stroke-width:0.3;" width="67.2" x="513.9" y="30"/><text fill="#000000" font-family="sans-serif" font-size="8.4" lengthAdjust="spacing" textLength="58.8" x="518.1" y="42.9199">comp:Company</text><rect fill="#E2E2F0" height="18.9656" rx="1.5" ry="1.5" style="stroke:#181818;stroke-width:0.3;" width="67.2" x="513.9" y="442.1297"/><text fill="#000000" font-family="sans-serif" font-size="8.4" lengthAdjust="spacing" textLength="58.8" x="518.1" y="455.0496">comp:Company</text><rect fill="#E2E2F0" height="29.5313" rx="1.5" ry="1.5" style="stroke:#181818;stroke-width:0.3;" width="68.4" x="587.1" y="19.4344"/><text fill="#000000" font-family="sans-serif" font-size="8.4" lengthAdjust="spacing" textLength="20.4" x="611.1" y="32.3543">emps</text><text fill="#000000" font-family="sans-serif" font-size="8.4" lengthAdjust="spacing" textLength="60" x="591.3" y="42.9199">:EmployeeStore</text><rect fill="#E2E2F0" height="29.5313" rx="1.5" ry="1.5" style="stroke:#181818;stroke-width:0.3;" width="68.4" x="587.1" y="442.1297"/><text fill="#000000" font-family="sans-serif" font-size="8.4" lengthAdjust="spacing" textLength="20.4" x="611.1" y="455.0496">emps</text><text fill="#000000" font-family="sans-serif" font-size="8.4" lengthAdjust="spacing" textLength="60" x="591.3" y="465.6152">:EmployeeStore</text><rect fill="#E2E2F0" height="29.5313" rx="1.5" ry="1.5" style="stroke:#181818;stroke-width:0.3;" width="100.8" x="661.5" y="19.4344"/><text fill="#000000" font-family="sans-serif" font-size="8.4" lengthAdjust="spacing" textLength="12.6" x="705.6" y="32.3543">vcs</text><text fill="#000000" font-family="sans-serif" font-size="8.4" lengthAdjust="spacing" textLength="92.4" x="665.7" y="42.9199">:VaccinationCenterStore</text><rect fill="#E2E2F0" height="29.5313" rx="1.5" ry="1.5" style="stroke:#181818;stroke-width:0.3;" width="100.8" x="661.5" y="442.1297"/><text fill="#000000" font-family="sans-serif" font-size="8.4" lengthAdjust="spacing" textLength="12.6" x="705.6" y="455.0496">vcs</text><text fill="#000000" font-family="sans-serif" font-size="8.4" lengthAdjust="spacing" textLength="92.4" x="665.7" y="465.6152">:VaccinationCenterStore</text><rect fill="#E2E2F0" height="29.5313" rx="1.5" ry="1.5" style="stroke:#181818;stroke-width:0.3;" width="58.2" x="768.3" y="19.4344"/><text fill="#000000" font-family="sans-serif" font-size="8.4" lengthAdjust="spacing" textLength="9" x="792.9" y="32.3543">us</text><text fill="#000000" font-family="sans-serif" font-size="8.4" lengthAdjust="spacing" textLength="49.8" x="772.5" y="42.9199">:UserSession</text><rect fill="#E2E2F0" height="29.5313" rx="1.5" ry="1.5" style="stroke:#181818;stroke-width:0.3;" width="58.2" x="768.3" y="442.1297"/><text fill="#000000" font-family="sans-serif" font-size="8.4" lengthAdjust="spacing" textLength="9" x="792.9" y="455.0496">us</text><text fill="#000000" font-family="sans-serif" font-size="8.4" lengthAdjust="spacing" textLength="49.8" x="772.5" y="465.6152">:UserSession</text><rect fill="#E2E2F0" height="18.9656" rx="1.5" ry="1.5" style="stroke:#181818;stroke-width:0.3;" width="65.4" x="832.5" y="30"/><text fill="#000000" font-family="sans-serif" font-size="8.4" lengthAdjust="spacing" textLength="57" x="836.7" y="42.9199">snsU: SNSUser</text><rect fill="#E2E2F0" height="18.9656" rx="1.5" ry="1.5" style="stroke:#181818;stroke-width:0.3;" width="65.4" x="832.5" y="442.1297"/><text fill="#000000" font-family="sans-serif" font-size="8.4" lengthAdjust="spacing" textLength="57" x="836.7" y="455.0496">snsU: SNSUser</text><rect fill="#E2E2F0" height="29.5313" rx="1.5" ry="1.5" style="stroke:#181818;stroke-width:0.3;" width="57" x="903.9" y="19.4344"/><text fill="#000000" font-family="sans-serif" font-size="8.4" lengthAdjust="spacing" textLength="16.8" x="924" y="32.3543">auth</text><text fill="#000000" font-family="sans-serif" font-size="8.4" lengthAdjust="spacing" textLength="48.6" x="908.1" y="42.9199">:AuthFacade</text><rect fill="#E2E2F0" height="29.5313" rx="1.5" ry="1.5" style="stroke:#181818;stroke-width:0.3;" width="57" x="903.9" y="442.1297"/><text fill="#000000" font-family="sans-serif" font-size="8.4" lengthAdjust="spacing" textLength="16.8" x="924" y="455.0496">auth</text><text fill="#000000" font-family="sans-serif" font-size="8.4" lengthAdjust="spacing" textLength="48.6" x="908.1" y="465.6152">:AuthFacade</text><rect fill="#E2E2F0" height="29.5313" rx="1.5" ry="1.5" style="stroke:#181818;stroke-width:0.3;" width="31.2" x="966.9" y="19.4344"/><text fill="#000000" font-family="sans-serif" font-size="8.4" lengthAdjust="spacing" textLength="11.4" x="976.8" y="32.3543">em</text><text fill="#000000" font-family="sans-serif" font-size="8.4" lengthAdjust="spacing" textLength="22.8" x="971.1" y="42.9199">:Email</text><rect fill="#E2E2F0" height="29.5313" rx="1.5" ry="1.5" style="stroke:#181818;stroke-width:0.3;" width="31.2" x="966.9" y="442.1297"/><text fill="#000000" font-family="sans-serif" font-size="8.4" lengthAdjust="spacing" textLength="11.4" x="976.8" y="455.0496">em</text><text fill="#000000" font-family="sans-serif" font-size="8.4" lengthAdjust="spacing" textLength="22.8" x="971.1" y="465.6152">:Email</text><rect fill="#E2E2F0" height="29.5313" rx="1.5" ry="1.5" style="stroke:#181818;stroke-width:0.3;" width="48" x="1004.1" y="19.4344"/><text fill="#000000" font-family="sans-serif" font-size="8.4" lengthAdjust="spacing" textLength="16.2" x="1020" y="32.3543">emp</text><text fill="#000000" font-family="sans-serif" font-size="8.4" lengthAdjust="spacing" textLength="39.6" x="1008.3" y="42.9199">:Employee</text><rect fill="#E2E2F0" height="29.5313" rx="1.5" ry="1.5" style="stroke:#181818;stroke-width:0.3;" width="48" x="1004.1" y="442.1297"/><text fill="#000000" font-family="sans-serif" font-size="8.4" lengthAdjust="spacing" textLength="16.2" x="1020" y="455.0496">emp</text><text fill="#000000" font-family="sans-serif" font-size="8.4" lengthAdjust="spacing" textLength="39.6" x="1008.3" y="465.6152">:Employee</text><rect fill="#FFFFFF" height="381.7641" style="stroke:#181818;stroke-width:0.6;" width="6" x="25.2" y="55.5656"/><rect fill="#FFFFFF" height="163.2656" style="stroke:#181818;stroke-width:0.6;" width="6" x="192.6" y="68.9766"/><rect fill="#FFFFFF" height="181.4766" style="stroke:#181818;stroke-width:0.6;" width="6" x="192.6" y="250.4531"/><rect fill="#FFFFFF" height="72.4219" style="stroke:#181818;stroke-width:0.6;" width="6" x="350.4" y="87.1875"/><rect fill="#FFFFFF" height="36.2109" style="stroke:#181818;stroke-width:0.6;" width="6" x="350.4" y="177.8203"/><rect fill="#FFFFFF" height="145.0547" style="stroke:#181818;stroke-width:0.6;" width="6" x="350.4" y="268.6641"/><rect fill="#FFFFFF" height="18" style="stroke:#181818;stroke-width:0.6;" width="6" x="444.9" y="105.3984"/><rect fill="#FFFFFF" height="18" style="stroke:#181818;stroke-width:0.6;" width="6" x="492" y="141.6094"/><rect fill="#FFFFFF" height="54.4219" style="stroke:#181818;stroke-width:0.6;" width="6" x="492" y="286.875"/><rect fill="#FFFFFF" height="18" style="stroke:#181818;stroke-width:0.6;" width="6" x="618.3" y="359.5078"/><rect fill="#FFFFFF" height="18" style="stroke:#181818;stroke-width:0.6;" width="6" x="708.9" y="196.0313"/><rect fill="#FFFFFF" height="36.2109" style="stroke:#181818;stroke-width:0.6;" width="6" x="794.4" y="305.0859"/><rect fill="#FFFFFF" height="18" style="stroke:#181818;stroke-width:0.6;" width="6" x="979.5" y="323.2969"/><rect fill="#FFFFFF" height="18" style="stroke:#181818;stroke-width:0.6;" width="6" x="1025.1" y="395.7188"/><polygon fill="#181818" points="185.4,66.5766,191.4,68.9766,185.4,71.3766,187.8,68.9766" style="stroke:#181818;stroke-width:0.6;"/><line style="stroke:#181818;stroke-width:0.6;" x1="31.2" x2="189" y1="68.9766" y2="68.9766"/><text fill="#000000" font-family="sans-serif" font-size="7.8" font-weight="bold" lengthAdjust="spacing" textLength="4.2" x="35.4" y="66.0627">1</text><text fill="#000000" font-family="sans-serif" font-size="7.8" lengthAdjust="spacing" textLength="69.6" x="42" y="66.0627">login as receptionist</text><polygon fill="#181818" points="343.2,84.7875,349.2,87.1875,343.2,89.5875,345.6,87.1875" style="stroke:#181818;stroke-width:0.6;"/><line style="stroke:#181818;stroke-width:0.6;" x1="198.6" x2="346.8" y1="87.1875" y2="87.1875"/><text fill="#000000" font-family="sans-serif" font-size="7.8" font-weight="bold" lengthAdjust="spacing" textLength="4.2" x="202.8" y="84.2736">2</text><text fill="#000000" font-family="sans-serif" font-size="7.8" lengthAdjust="spacing" textLength="133.8" x="209.4" y="84.2736">ChoosingVaccinationCenterController()</text><polygon fill="#181818" points="437.7,102.9984,443.7,105.3984,437.7,107.7984,440.1,105.3984" style="stroke:#181818;stroke-width:0.6;"/><line style="stroke:#181818;stroke-width:0.6;" x1="356.4" x2="441.3" y1="105.3984" y2="105.3984"/><text fill="#000000" font-family="sans-serif" font-size="7.8" font-weight="bold" lengthAdjust="spacing" textLength="4.2" x="360.6" y="102.4846">3</text><text fill="#000000" font-family="sans-serif" font-size="7.8" lengthAdjust="spacing" textLength="67.2" x="367.2" y="102.4846">app = getInstance()</text><polygon fill="#181818" points="484.8,139.2094,490.8,141.6094,484.8,144.0094,487.2,141.6094" style="stroke:#181818;stroke-width:0.6;"/><line style="stroke:#181818;stroke-width:0.6;" x1="356.4" x2="488.4" y1="141.6094" y2="141.6094"/><text fill="#000000" font-family="sans-serif" font-size="7.8" font-weight="bold" lengthAdjust="spacing" textLength="4.2" x="360.6" y="138.6955">4</text><text fill="#000000" font-family="sans-serif" font-size="7.8" lengthAdjust="spacing" textLength="77.4" x="367.2" y="138.6955">comp = getCompany()</text><polygon fill="#181818" points="343.2,175.4203,349.2,177.8203,343.2,180.2203,345.6,177.8203" style="stroke:#181818;stroke-width:0.6;"/><line style="stroke:#181818;stroke-width:0.6;" x1="198.6" x2="346.8" y1="177.8203" y2="177.8203"/><text fill="#000000" font-family="sans-serif" font-size="7.8" font-weight="bold" lengthAdjust="spacing" textLength="4.2" x="202.8" y="174.9064">5</text><text fill="#000000" font-family="sans-serif" font-size="7.8" lengthAdjust="spacing" textLength="83.4" x="209.4" y="174.9064">getVaccinationCenters()</text><polygon fill="#181818" points="701.7,193.6313,707.7,196.0313,701.7,198.4313,704.1,196.0313" style="stroke:#181818;stroke-width:0.6;"/><line style="stroke:#181818;stroke-width:0.6;" x1="356.4" x2="705.3" y1="196.0313" y2="196.0313"/><text fill="#000000" font-family="sans-serif" font-size="7.8" font-weight="bold" lengthAdjust="spacing" textLength="4.2" x="360.6" y="193.1174">6</text><text fill="#000000" font-family="sans-serif" font-size="7.8" lengthAdjust="spacing" textLength="83.4" x="367.2" y="193.1174">getVaccinationCenters()</text><polygon fill="#181818" points="37.8,229.8422,31.8,232.2422,37.8,234.6422,35.4,232.2422" style="stroke:#181818;stroke-width:0.6;"/><line style="stroke:#181818;stroke-width:0.6;stroke-dasharray:2.0,2.0;" x1="34.2" x2="195" y1="232.2422" y2="232.2422"/><text fill="#000000" font-family="sans-serif" font-size="7.8" font-weight="bold" lengthAdjust="spacing" textLength="4.2" x="41.4" y="229.3283">7</text><text fill="#000000" font-family="sans-serif" font-size="7.8" lengthAdjust="spacing" textLength="140.4" x="48" y="229.3283">show list of vaccination centers to select</text><polygon fill="#181818" points="185.4,248.0531,191.4,250.4531,185.4,252.8531,187.8,250.4531" style="stroke:#181818;stroke-width:0.6;"/><line style="stroke:#181818;stroke-width:0.6;" x1="31.2" x2="189" y1="250.4531" y2="250.4531"/><text fill="#000000" font-family="sans-serif" font-size="7.8" font-weight="bold" lengthAdjust="spacing" textLength="4.2" x="35.4" y="247.5393">8</text><text fill="#000000" font-family="sans-serif" font-size="7.8" lengthAdjust="spacing" textLength="125.4" x="42" y="247.5393">select the current vaccination center</text><polygon fill="#181818" points="343.2,266.2641,349.2,268.6641,343.2,271.0641,345.6,268.6641" style="stroke:#181818;stroke-width:0.6;"/><line style="stroke:#181818;stroke-width:0.6;" x1="198.6" x2="346.8" y1="268.6641" y2="268.6641"/><text fill="#000000" font-family="sans-serif" font-size="7.8" font-weight="bold" lengthAdjust="spacing" textLength="4.2" x="202.8" y="265.7502">9</text><text fill="#000000" font-family="sans-serif" font-size="7.8" lengthAdjust="spacing" textLength="51.6" x="209.4" y="265.7502">setWorking(vc)</text><polygon fill="#181818" points="484.8,284.475,490.8,286.875,484.8,289.275,487.2,286.875" style="stroke:#181818;stroke-width:0.6;"/><line style="stroke:#181818;stroke-width:0.6;" x1="356.4" x2="488.4" y1="286.875" y2="286.875"/><text fill="#000000" font-family="sans-serif" font-size="7.8" font-weight="bold" lengthAdjust="spacing" textLength="8.4" x="360.6" y="283.9611">10</text><text fill="#000000" font-family="sans-serif" font-size="7.8" lengthAdjust="spacing" textLength="113.4" x="371.4" y="283.9611">email = getCurrentUserSession()</text><polygon fill="#181818" points="787.2,302.6859,793.2,305.0859,787.2,307.4859,789.6,305.0859" style="stroke:#181818;stroke-width:0.6;"/><line style="stroke:#181818;stroke-width:0.6;" x1="498" x2="790.8" y1="305.0859" y2="305.0859"/><text fill="#000000" font-family="sans-serif" font-size="7.8" font-weight="bold" lengthAdjust="spacing" textLength="8.4" x="502.2" y="302.1721">11</text><text fill="#000000" font-family="sans-serif" font-size="7.8" lengthAdjust="spacing" textLength="37.8" x="513" y="302.1721">getUserId()</text><polygon fill="#181818" points="972.3,320.8969,978.3,323.2969,972.3,325.6969,974.7,323.2969" style="stroke:#181818;stroke-width:0.6;"/><line style="stroke:#181818;stroke-width:0.6;" x1="800.4" x2="975.9" y1="323.2969" y2="323.2969"/><text fill="#000000" font-family="sans-serif" font-size="7.8" font-weight="bold" lengthAdjust="spacing" textLength="8.4" x="804.6" y="320.383">12</text><text fill="#000000" font-family="sans-serif" font-size="7.8" lengthAdjust="spacing" textLength="35.4" x="815.4" y="320.383">getEmail()</text><polygon fill="#181818" points="611.1,357.1078,617.1,359.5078,611.1,361.9078,613.5,359.5078" style="stroke:#181818;stroke-width:0.6;"/><line style="stroke:#181818;stroke-width:0.6;" x1="356.4" x2="614.7" y1="359.5078" y2="359.5078"/><text fill="#000000" font-family="sans-serif" font-size="7.8" font-weight="bold" lengthAdjust="spacing" textLength="8.4" x="360.6" y="356.5939">13</text><text fill="#000000" font-family="sans-serif" font-size="7.8" lengthAdjust="spacing" textLength="151.8" x="371.4" y="356.5939">employee = getEmployeeUsingEmail(email)</text><polygon fill="#181818" points="1017.9,393.3187,1023.9,395.7188,1017.9,398.1188,1020.3,395.7188" style="stroke:#181818;stroke-width:0.6;"/><line style="stroke:#181818;stroke-width:0.6;" x1="356.4" x2="1021.5" y1="395.7188" y2="395.7188"/><text fill="#000000" font-family="sans-serif" font-size="7.8" font-weight="bold" lengthAdjust="spacing" textLength="8.4" x="360.6" y="392.8049">14</text><text fill="#000000" font-family="sans-serif" font-size="7.8" lengthAdjust="spacing" textLength="51.6" x="371.4" y="392.8049">setWorking(vc)</text><polygon fill="#181818" points="37.8,429.5297,31.8,431.9297,37.8,434.3297,35.4,431.9297" style="stroke:#181818;stroke-width:0.6;"/><line style="stroke:#181818;stroke-width:0.6;stroke-dasharray:2.0,2.0;" x1="34.2" x2="195" y1="431.9297" y2="431.9297"/><text fill="#000000" font-family="sans-serif" font-size="7.8" font-weight="bold" lengthAdjust="spacing" textLength="8.4" x="41.4" y="429.0158">15</text><text fill="#000000" font-family="sans-serif" font-size="7.8" lengthAdjust="spacing" textLength="111" x="52.2" y="429.0158">continue with the arrival process</text><!--MD5=[30e2d114b067a925ac5f9aeefb457c6d]
@startuml
autonumber
actor "Receptionist" as RCP


participant ":ChoosingVaccinationCenterUI" as UI
participant ":ChoosingVaccinationCenterController" as CTRL
participant "App" as APP
participant "app\n:App" as App
participant "comp:Company" as COMP
participant "emps\n:EmployeeStore" as EMPS
participant "vcs\n:VaccinationCenterStore" as VCS
participant "us\n:UserSession" as US
participant "snsU: SNSUser" as snsU
participant "auth\n:AuthFacade" as AF
participant "em\n:Email" as EM
participant "emp\n:Employee" as EMP



activate RCP
RCP ->  UI :  login as receptionist
activate UI
UI -> CTRL : ChoosingVaccinationCenterController()
activate CTRL
CTRL -> APP : app = getInstance()
activate APP
deactivate APP
CTRL -> App : comp = getCompany()
activate App
deactivate App
deactivate CTRL


UI->CTRL : getVaccinationCenters()
activate CTRL
CTRL -> VCS : getVaccinationCenters()
activate VCS
deactivate VCS
deactivate CTRL




UI - -> RCP : show list of vaccination centers to select
deactivate UI
RCP ->  UI :  select the current vaccination center
activate UI
UI->CTRL : setWorking(vc)
activate CTRL
CTRL -> App : email = getCurrentUserSession()
activate App
App -> US : getUserId()
activate US
US-> EM : getEmail()
activate EM
deactivate EM
deactivate US
deactivate App
CTRL->EMPS : employee = getEmployeeUsingEmail(email)
activate EMPS
deactivate EMPS
CTRL->EMP : setWorking(vc)
activate EMP
deactivate EMP
deactivate CTRL
UI - -> RCP : continue with the arrival process
deactivate UI




@enduml

PlantUML version 1.2022.5(Sat Apr 30 11:55:52 BST 2022)
(GPL source distribution)
Java Runtime: OpenJDK Runtime Environment
JVM: OpenJDK 64-Bit Server VM
Default Encoding: Cp1252
Language: en
Country: GB
--></g></svg>