<?xml version="1.0" encoding="UTF-8" standalone="no"?><svg xmlns="http://www.w3.org/2000/svg" xmlns:xlink="http://www.w3.org/1999/xlink" contentStyleType="text/css" height="862px" preserveAspectRatio="none" style="width:529px;height:862px;background:#FFFFFF;" version="1.1" viewBox="0 0 529 862" width="529px" zoomAndPan="magnify"><defs/><g><!--MD5=[03960189e81aa2c066c762ffabbee709]
class Receptionist--><g id="elem_Receptionist"><rect codeLine="2" fill="#F1F1F1" height="48" id="Receptionist" rx="2.5" ry="2.5" style="stroke:#181818;stroke-width:0.5;" width="110" x="24.5" y="576"/><ellipse cx="39.5" cy="592" fill="#ADD1B2" rx="11" ry="11" style="stroke:#181818;stroke-width:1.0;"/><path d="M41.5,588.5 Q41.7031,588 41.9375,587.75 Q42.1719,587.5 42.4375,587.5 Q42.9063,587.5 43.2031,587.7813 Q43.5,588.0625 43.5,588.7188 L43.5,590.2813 Q43.5,590.9375 43.2188,591.2188 Q42.9375,591.5 42.5,591.5 Q42.1094,591.5 41.8594,591.3281 Q41.6094,591.1563 41.5,590.7031 Q41.4531,590.3906 41.2813,590.2188 Q40.9688,589.8906 40.4063,589.7031 Q39.8438,589.5 39.2813,589.5 Q38.5781,589.5 37.9844,589.7813 Q37.4063,590.0625 36.9531,590.6875 Q36.5,591.3125 36.5,592.1719 L36.5,593.0938 Q36.5,594.125 37.3438,594.8125 Q38.1875,595.5 39.6875,595.5 Q40.5781,595.5 41.2031,595.2969 Q41.5625,595.1875 41.9688,594.8281 Q42.2344,594.625 42.375,594.5625 Q42.5156,594.5 42.6875,594.5 Q43.0156,594.5 43.25,594.7656 Q43.5,595.0156 43.5,595.375 Q43.5,595.7188 43.1563,596.125 Q42.6563,596.7188 41.8594,597.0469 Q40.8125,597.5 39.5313,597.5 Q38.0313,597.5 36.8281,596.9063 Q35.8594,596.4375 35.1719,595.4219 Q34.5,594.4063 34.5,593.2031 L34.5,592.1094 Q34.5,590.8594 35.0938,589.7656 Q35.7031,588.6719 36.75,588.0938 Q37.8125,587.5 39,587.5 Q39.7188,587.5 40.3438,587.75 Q40.9688,588 41.5,588.5 Z " fill="#000000"/><text fill="#000000" font-family="sans-serif" font-size="14" lengthAdjust="spacing" textLength="78" x="53.5" y="597.7285">Receptionist</text><line style="stroke:#181818;stroke-width:0.5;" x1="25.5" x2="133.5" y1="608" y2="608"/><line style="stroke:#181818;stroke-width:0.5;" x1="25.5" x2="133.5" y1="616" y2="616"/></g><!--MD5=[aaa7e27c4ec43917c82a021675d2c87a]
class WaitingRoom--><g id="elem_WaitingRoom"><rect codeLine="4" fill="#F1F1F1" height="48" id="WaitingRoom" rx="2.5" ry="2.5" style="stroke:#181818;stroke-width:0.5;" width="116" x="294.5" y="576"/><ellipse cx="309.5" cy="592" fill="#ADD1B2" rx="11" ry="11" style="stroke:#181818;stroke-width:1.0;"/><path d="M311.5,588.5 Q311.7031,588 311.9375,587.75 Q312.1719,587.5 312.4375,587.5 Q312.9063,587.5 313.2031,587.7813 Q313.5,588.0625 313.5,588.7188 L313.5,590.2813 Q313.5,590.9375 313.2188,591.2188 Q312.9375,591.5 312.5,591.5 Q312.1094,591.5 311.8594,591.3281 Q311.6094,591.1563 311.5,590.7031 Q311.4531,590.3906 311.2813,590.2188 Q310.9688,589.8906 310.4063,589.7031 Q309.8438,589.5 309.2813,589.5 Q308.5781,589.5 307.9844,589.7813 Q307.4063,590.0625 306.9531,590.6875 Q306.5,591.3125 306.5,592.1719 L306.5,593.0938 Q306.5,594.125 307.3438,594.8125 Q308.1875,595.5 309.6875,595.5 Q310.5781,595.5 311.2031,595.2969 Q311.5625,595.1875 311.9688,594.8281 Q312.2344,594.625 312.375,594.5625 Q312.5156,594.5 312.6875,594.5 Q313.0156,594.5 313.25,594.7656 Q313.5,595.0156 313.5,595.375 Q313.5,595.7188 313.1563,596.125 Q312.6563,596.7188 311.8594,597.0469 Q310.8125,597.5 309.5313,597.5 Q308.0313,597.5 306.8281,596.9063 Q305.8594,596.4375 305.1719,595.4219 Q304.5,594.4063 304.5,593.2031 L304.5,592.1094 Q304.5,590.8594 305.0938,589.7656 Q305.7031,588.6719 306.75,588.0938 Q307.8125,587.5 309,587.5 Q309.7188,587.5 310.3438,587.75 Q310.9688,588 311.5,588.5 Z " fill="#000000"/><text fill="#000000" font-family="sans-serif" font-size="14" lengthAdjust="spacing" textLength="84" x="323.5" y="597.7285">WaitingRoom</text><line style="stroke:#181818;stroke-width:0.5;" x1="295.5" x2="409.5" y1="608" y2="608"/><line style="stroke:#181818;stroke-width:0.5;" x1="295.5" x2="409.5" y1="616" y2="616"/></g><!--MD5=[de60e6d4f424ae4d0522096f76a59010]
class VaccinationCenter--><g id="elem_VaccinationCenter"><rect codeLine="6" fill="#F1F1F1" height="224.0938" id="VaccinationCenter" rx="2.5" ry="2.5" style="stroke:#181818;stroke-width:0.5;" width="157" x="365" y="274"/><ellipse cx="384.05" cy="290" fill="#ADD1B2" rx="11" ry="11" style="stroke:#181818;stroke-width:1.0;"/><path d="M386.05,286.5 Q386.2531,286 386.4875,285.75 Q386.7219,285.5 386.9875,285.5 Q387.4563,285.5 387.7531,285.7813 Q388.05,286.0625 388.05,286.7188 L388.05,288.2813 Q388.05,288.9375 387.7688,289.2188 Q387.4875,289.5 387.05,289.5 Q386.6594,289.5 386.4094,289.3281 Q386.1594,289.1563 386.05,288.7031 Q386.0031,288.3906 385.8313,288.2188 Q385.5188,287.8906 384.9563,287.7031 Q384.3938,287.5 383.8313,287.5 Q383.1281,287.5 382.5344,287.7813 Q381.9563,288.0625 381.5031,288.6875 Q381.05,289.3125 381.05,290.1719 L381.05,291.0938 Q381.05,292.125 381.8938,292.8125 Q382.7375,293.5 384.2375,293.5 Q385.1281,293.5 385.7531,293.2969 Q386.1125,293.1875 386.5188,292.8281 Q386.7844,292.625 386.925,292.5625 Q387.0656,292.5 387.2375,292.5 Q387.5656,292.5 387.8,292.7656 Q388.05,293.0156 388.05,293.375 Q388.05,293.7188 387.7063,294.125 Q387.2063,294.7188 386.4094,295.0469 Q385.3625,295.5 384.0813,295.5 Q382.5813,295.5 381.3781,294.9063 Q380.4094,294.4375 379.7219,293.4219 Q379.05,292.4063 379.05,291.2031 L379.05,290.1094 Q379.05,288.8594 379.6438,287.7656 Q380.2531,286.6719 381.3,286.0938 Q382.3625,285.5 383.55,285.5 Q384.2688,285.5 384.8938,285.75 Q385.5188,286 386.05,286.5 Z " fill="#000000"/><text fill="#000000" font-family="sans-serif" font-size="14" lengthAdjust="spacing" textLength="116" x="398.95" y="295.7285">VaccinationCenter</text><line style="stroke:#181818;stroke-width:0.5;" x1="366" x2="521" y1="306" y2="306"/><rect fill="none" height="6" style="stroke:#C82930;stroke-width:1.0;" width="6" x="373" y="314"/><text fill="#000000" font-family="sans-serif" font-size="14" lengthAdjust="spacing" textLength="35" x="385" y="324.5332">name</text><rect fill="none" height="6" style="stroke:#C82930;stroke-width:1.0;" width="6" x="373" y="331.6094"/><text fill="#000000" font-family="sans-serif" font-size="14" lengthAdjust="spacing" textLength="51" x="385" y="342.1426">address</text><rect fill="none" height="6" style="stroke:#C82930;stroke-width:1.0;" width="6" x="373" y="349.2188"/><text fill="#000000" font-family="sans-serif" font-size="14" lengthAdjust="spacing" textLength="89" x="385" y="359.752">phoneNumber</text><rect fill="none" height="6" style="stroke:#C82930;stroke-width:1.0;" width="6" x="373" y="366.8281"/><text fill="#000000" font-family="sans-serif" font-size="14" lengthAdjust="spacing" textLength="85" x="385" y="377.3613">emailAddress</text><rect fill="none" height="6" style="stroke:#C82930;stroke-width:1.0;" width="6" x="373" y="384.4375"/><text fill="#000000" font-family="sans-serif" font-size="14" lengthAdjust="spacing" textLength="67" x="385" y="394.9707">faxNumber</text><rect fill="none" height="6" style="stroke:#C82930;stroke-width:1.0;" width="6" x="373" y="402.0469"/><text fill="#000000" font-family="sans-serif" font-size="14" lengthAdjust="spacing" textLength="51" x="385" y="412.5801">Website</text><rect fill="none" height="6" style="stroke:#C82930;stroke-width:1.0;" width="6" x="373" y="419.6563"/><text fill="#000000" font-family="sans-serif" font-size="14" lengthAdjust="spacing" textLength="88" x="385" y="430.1895">openingHours</text><rect fill="none" height="6" style="stroke:#C82930;stroke-width:1.0;" width="6" x="373" y="437.2656"/><text fill="#000000" font-family="sans-serif" font-size="14" lengthAdjust="spacing" textLength="81" x="385" y="447.7988">closingHours</text><rect fill="none" height="6" style="stroke:#C82930;stroke-width:1.0;" width="6" x="373" y="454.875"/><text fill="#000000" font-family="sans-serif" font-size="14" lengthAdjust="spacing" textLength="76" x="385" y="465.4082">slotDuration</text><rect fill="none" height="6" style="stroke:#C82930;stroke-width:1.0;" width="6" x="373" y="472.4844"/><text fill="#000000" font-family="sans-serif" font-size="14" lengthAdjust="spacing" textLength="131" x="385" y="483.0176">maxNumberVaccines</text><line style="stroke:#181818;stroke-width:0.5;" x1="366" x2="521" y1="490.0938" y2="490.0938"/></g><!--MD5=[72be06cc7ae02ccc98efe28a50e62246]
class SNSUser--><g id="elem_SNSUser"><rect codeLine="19" fill="#F1F1F1" height="188.875" id="SNSUser" rx="2.5" ry="2.5" style="stroke:#181818;stroke-width:0.5;" width="145" x="100" y="7"/><ellipse cx="140.65" cy="23" fill="#ADD1B2" rx="11" ry="11" style="stroke:#181818;stroke-width:1.0;"/><path d="M142.65,19.5 Q142.8531,19 143.0875,18.75 Q143.3219,18.5 143.5875,18.5 Q144.0563,18.5 144.3531,18.7813 Q144.65,19.0625 144.65,19.7188 L144.65,21.2813 Q144.65,21.9375 144.3688,22.2188 Q144.0875,22.5 143.65,22.5 Q143.2594,22.5 143.0094,22.3281 Q142.7594,22.1563 142.65,21.7031 Q142.6031,21.3906 142.4313,21.2188 Q142.1188,20.8906 141.5563,20.7031 Q140.9938,20.5 140.4313,20.5 Q139.7281,20.5 139.1344,20.7813 Q138.5563,21.0625 138.1031,21.6875 Q137.65,22.3125 137.65,23.1719 L137.65,24.0938 Q137.65,25.125 138.4938,25.8125 Q139.3375,26.5 140.8375,26.5 Q141.7281,26.5 142.3531,26.2969 Q142.7125,26.1875 143.1188,25.8281 Q143.3844,25.625 143.525,25.5625 Q143.6656,25.5 143.8375,25.5 Q144.1656,25.5 144.4,25.7656 Q144.65,26.0156 144.65,26.375 Q144.65,26.7188 144.3063,27.125 Q143.8063,27.7188 143.0094,28.0469 Q141.9625,28.5 140.6813,28.5 Q139.1813,28.5 137.9781,27.9063 Q137.0094,27.4375 136.3219,26.4219 Q135.65,25.4063 135.65,24.2031 L135.65,23.1094 Q135.65,21.8594 136.2438,20.7656 Q136.8531,19.6719 137.9,19.0938 Q138.9625,18.5 140.15,18.5 Q140.8688,18.5 141.4938,18.75 Q142.1188,19 142.65,19.5 Z " fill="#000000"/><text fill="#000000" font-family="sans-serif" font-size="14" lengthAdjust="spacing" textLength="56" x="160.35" y="28.7285">SNSUser</text><line style="stroke:#181818;stroke-width:0.5;" x1="101" x2="244" y1="39" y2="39"/><rect fill="none" height="6" style="stroke:#C82930;stroke-width:1.0;" width="6" x="108" y="47"/><text fill="#000000" font-family="sans-serif" font-size="14" lengthAdjust="spacing" textLength="35" x="120" y="57.5332">name</text><rect fill="none" height="6" style="stroke:#C82930;stroke-width:1.0;" width="6" x="108" y="64.6094"/><text fill="#000000" font-family="sans-serif" font-size="14" lengthAdjust="spacing" textLength="51" x="120" y="75.1426">address</text><rect fill="none" height="6" style="stroke:#C82930;stroke-width:1.0;" width="6" x="108" y="82.2188"/><text fill="#000000" font-family="sans-serif" font-size="14" lengthAdjust="spacing" textLength="45" x="120" y="92.752">gender</text><rect fill="none" height="6" style="stroke:#C82930;stroke-width:1.0;" width="6" x="108" y="99.8281"/><text fill="#000000" font-family="sans-serif" font-size="14" lengthAdjust="spacing" textLength="89" x="120" y="110.3613">phoneNumber</text><rect fill="none" height="6" style="stroke:#C82930;stroke-width:1.0;" width="6" x="108" y="117.4375"/><text fill="#000000" font-family="sans-serif" font-size="14" lengthAdjust="spacing" textLength="58" x="120" y="127.9707">birthDate</text><rect fill="none" height="6" style="stroke:#C82930;stroke-width:1.0;" width="6" x="108" y="135.0469"/><text fill="#000000" font-family="sans-serif" font-size="14" lengthAdjust="spacing" textLength="85" x="120" y="145.5801">emailAddress</text><rect fill="none" height="6" style="stroke:#C82930;stroke-width:1.0;" width="6" x="108" y="152.6563"/><text fill="#000000" font-family="sans-serif" font-size="14" lengthAdjust="spacing" textLength="100" x="120" y="163.1895">snsUserNumber</text><rect fill="none" height="6" style="stroke:#C82930;stroke-width:1.0;" width="6" x="108" y="170.2656"/><text fill="#000000" font-family="sans-serif" font-size="14" lengthAdjust="spacing" textLength="119" x="120" y="180.7988">citizenCardNumber</text><line style="stroke:#181818;stroke-width:0.5;" x1="101" x2="244" y1="187.875" y2="187.875"/></g><!--MD5=[02e4b9b7573f1156f41e60aa5b4e25a4]
class Company--><g id="elem_Company"><rect codeLine="30" fill="#F1F1F1" height="65.6094" id="Company" rx="2.5" ry="2.5" style="stroke:#181818;stroke-width:0.5;" width="99" x="394" y="68.5"/><ellipse cx="412.15" cy="84.5" fill="#ADD1B2" rx="11" ry="11" style="stroke:#181818;stroke-width:1.0;"/><path d="M414.15,81 Q414.3531,80.5 414.5875,80.25 Q414.8219,80 415.0875,80 Q415.5563,80 415.8531,80.2813 Q416.15,80.5625 416.15,81.2188 L416.15,82.7813 Q416.15,83.4375 415.8688,83.7188 Q415.5875,84 415.15,84 Q414.7594,84 414.5094,83.8281 Q414.2594,83.6563 414.15,83.2031 Q414.1031,82.8906 413.9313,82.7188 Q413.6188,82.3906 413.0563,82.2031 Q412.4938,82 411.9313,82 Q411.2281,82 410.6344,82.2813 Q410.0563,82.5625 409.6031,83.1875 Q409.15,83.8125 409.15,84.6719 L409.15,85.5938 Q409.15,86.625 409.9938,87.3125 Q410.8375,88 412.3375,88 Q413.2281,88 413.8531,87.7969 Q414.2125,87.6875 414.6188,87.3281 Q414.8844,87.125 415.025,87.0625 Q415.1656,87 415.3375,87 Q415.6656,87 415.9,87.2656 Q416.15,87.5156 416.15,87.875 Q416.15,88.2188 415.8063,88.625 Q415.3063,89.2188 414.5094,89.5469 Q413.4625,90 412.1813,90 Q410.6813,90 409.4781,89.4063 Q408.5094,88.9375 407.8219,87.9219 Q407.15,86.9063 407.15,85.7031 L407.15,84.6094 Q407.15,83.3594 407.7438,82.2656 Q408.3531,81.1719 409.4,80.5938 Q410.4625,80 411.65,80 Q412.3688,80 412.9938,80.25 Q413.6188,80.5 414.15,81 Z " fill="#000000"/><text fill="#000000" font-family="sans-serif" font-size="14" lengthAdjust="spacing" textLength="60" x="426.85" y="90.2285">Company</text><line style="stroke:#181818;stroke-width:0.5;" x1="395" x2="492" y1="100.5" y2="100.5"/><rect fill="none" height="6" style="stroke:#C82930;stroke-width:1.0;" width="6" x="402" y="108.5"/><text fill="#000000" font-family="sans-serif" font-size="14" lengthAdjust="spacing" textLength="73" x="414" y="119.0332">designation</text><line style="stroke:#181818;stroke-width:0.5;" x1="395" x2="492" y1="126.1094" y2="126.1094"/></g><!--MD5=[7421f545a0d8420c5bec41e74b387d9c]
class Employee--><g id="elem_Employee"><rect codeLine="34" fill="#F1F1F1" height="153.6563" id="Employee" rx="2.5" ry="2.5" style="stroke:#181818;stroke-width:0.5;" width="145" x="7" y="702"/><ellipse cx="44.95" cy="718" fill="#ADD1B2" rx="11" ry="11" style="stroke:#181818;stroke-width:1.0;"/><path d="M46.95,714.5 Q47.1531,714 47.3875,713.75 Q47.6219,713.5 47.8875,713.5 Q48.3563,713.5 48.6531,713.7813 Q48.95,714.0625 48.95,714.7188 L48.95,716.2813 Q48.95,716.9375 48.6688,717.2188 Q48.3875,717.5 47.95,717.5 Q47.5594,717.5 47.3094,717.3281 Q47.0594,717.1563 46.95,716.7031 Q46.9031,716.3906 46.7313,716.2188 Q46.4188,715.8906 45.8563,715.7031 Q45.2938,715.5 44.7313,715.5 Q44.0281,715.5 43.4344,715.7813 Q42.8563,716.0625 42.4031,716.6875 Q41.95,717.3125 41.95,718.1719 L41.95,719.0938 Q41.95,720.125 42.7938,720.8125 Q43.6375,721.5 45.1375,721.5 Q46.0281,721.5 46.6531,721.2969 Q47.0125,721.1875 47.4188,720.8281 Q47.6844,720.625 47.825,720.5625 Q47.9656,720.5 48.1375,720.5 Q48.4656,720.5 48.7,720.7656 Q48.95,721.0156 48.95,721.375 Q48.95,721.7188 48.6063,722.125 Q48.1063,722.7188 47.3094,723.0469 Q46.2625,723.5 44.9813,723.5 Q43.4813,723.5 42.2781,722.9063 Q41.3094,722.4375 40.6219,721.4219 Q39.95,720.4063 39.95,719.2031 L39.95,718.1094 Q39.95,716.8594 40.5438,715.7656 Q41.1531,714.6719 42.2,714.0938 Q43.2625,713.5 44.45,713.5 Q45.1688,713.5 45.7938,713.75 Q46.4188,714 46.95,714.5 Z " fill="#000000"/><text fill="#000000" font-family="sans-serif" font-size="14" lengthAdjust="spacing" textLength="62" x="64.05" y="723.7285">Employee</text><line style="stroke:#181818;stroke-width:0.5;" x1="8" x2="151" y1="734" y2="734"/><rect fill="none" height="6" style="stroke:#C82930;stroke-width:1.0;" width="6" x="15" y="742"/><text fill="#000000" font-family="sans-serif" font-size="14" lengthAdjust="spacing" textLength="35" x="27" y="752.5332">name</text><rect fill="none" height="6" style="stroke:#C82930;stroke-width:1.0;" width="6" x="15" y="759.6094"/><text fill="#000000" font-family="sans-serif" font-size="14" lengthAdjust="spacing" textLength="89" x="27" y="770.1426">phoneNumber</text><rect fill="none" height="6" style="stroke:#C82930;stroke-width:1.0;" width="6" x="15" y="777.2188"/><text fill="#000000" font-family="sans-serif" font-size="14" lengthAdjust="spacing" textLength="51" x="27" y="787.752">address</text><rect fill="none" height="6" style="stroke:#C82930;stroke-width:1.0;" width="6" x="15" y="794.8281"/><text fill="#000000" font-family="sans-serif" font-size="14" lengthAdjust="spacing" textLength="85" x="27" y="805.3613">emailAddress</text><rect fill="none" height="6" style="stroke:#C82930;stroke-width:1.0;" width="6" x="15" y="812.4375"/><text fill="#000000" font-family="sans-serif" font-size="14" lengthAdjust="spacing" textLength="119" x="27" y="822.9707">citizenCardNumber</text><rect fill="none" height="6" style="stroke:#C82930;stroke-width:1.0;" width="6" x="15" y="830.0469"/><text fill="#000000" font-family="sans-serif" font-size="14" lengthAdjust="spacing" textLength="11" x="27" y="840.5801">id</text><line style="stroke:#181818;stroke-width:0.5;" x1="8" x2="151" y1="847.6563" y2="847.6563"/></g><!--MD5=[06bb7d2a85a007b79d10922b2d5e4cdd]
link Receptionist to Employee--><g id="link_Receptionist_Employee"><path codeLine="43" d="M79.5,624.14 C79.5,642.76 79.5,670.11 79.5,696.61 " fill="none" id="Receptionist-to-Employee" style="stroke:#181818;stroke-width:1.0;"/><polygon fill="#181818" points="79.5,701.89,83.5,692.89,79.5,696.89,75.5,692.89,79.5,701.89" style="stroke:#181818;stroke-width:1.0;"/><text fill="#000000" font-family="sans-serif" font-size="13" lengthAdjust="spacing" textLength="21" x="80.5" y="668.4951">is a</text></g><!--MD5=[1dfd2b8cef5257ed6efd914f274c3279]
link WaitingRoom to SNSUser--><g id="link_WaitingRoom_SNSUser"><path codeLine="44" d="M333.24,575.93 C317.76,556.32 296.53,526.84 283.5,498 C241.21,404.38 254.6,372.81 226.5,274 C219.28,248.63 210.95,221.32 203.02,196.12 " fill="none" id="WaitingRoom-SNSUser" style="stroke:#181818;stroke-width:1.0;"/><polygon fill="#000000" points="286.8784,381.446,287.0318,390.9554,292.592,389.0491,286.8784,381.446" style="stroke:#000000;stroke-width:1.0;"/><text fill="#000000" font-family="sans-serif" font-size="13" lengthAdjust="spacing" textLength="49" x="297.5" y="391.4951">contains</text><text fill="#000000" font-family="sans-serif" font-size="13" lengthAdjust="spacing" textLength="7" x="320.4078" y="565.2522">1</text><text fill="#000000" font-family="sans-serif" font-size="13" lengthAdjust="spacing" textLength="5" x="200.1653" y="217.4902">*</text></g><!--MD5=[eebe9b198877275d05dd12630ed9e401]
link Company to VaccinationCenter--><g id="link_Company_VaccinationCenter"><path codeLine="45" d="M443.5,134.63 C443.5,168.54 443.5,223.91 443.5,273.97 " fill="none" id="Company-VaccinationCenter" style="stroke:#181818;stroke-width:1.0;"/><polygon fill="#000000" points="448.5,240.1758,451.4389,231.1307,445.5611,231.1307,448.5,240.1758" style="stroke:#000000;stroke-width:1.0;"/><text fill="#000000" font-family="sans-serif" font-size="13" lengthAdjust="spacing" textLength="21" x="457.5" y="240.4951">has</text><text fill="#000000" font-family="sans-serif" font-size="13" lengthAdjust="spacing" textLength="7" x="435.8766" y="155.5175">1</text><text fill="#000000" font-family="sans-serif" font-size="13" lengthAdjust="spacing" textLength="5" x="438.3242" y="263.0346">*</text></g><!--MD5=[de78e1efbcb885042a1719c3cec87a53]
link VaccinationCenter to WaitingRoom--><g id="link_VaccinationCenter_WaitingRoom"><path codeLine="46" d="M395.73,498.28 C383.12,527.67 370.74,556.52 362.48,575.75 " fill="none" id="VaccinationCenter-WaitingRoom" style="stroke:#181818;stroke-width:1.0;"/><polygon fill="#000000" points="385.528,541.7705,391.7961,534.6177,386.3947,532.2995,385.528,541.7705" style="stroke:#000000;stroke-width:1.0;"/><text fill="#000000" font-family="sans-serif" font-size="13" lengthAdjust="spacing" textLength="21" x="396.5" y="542.4951">has</text><text fill="#000000" font-family="sans-serif" font-size="13" lengthAdjust="spacing" textLength="7" x="385.4455" y="519.4888">1</text><text fill="#000000" font-family="sans-serif" font-size="13" lengthAdjust="spacing" textLength="7" x="357.1405" y="565.0261">1</text></g><!--MD5=[9c3cd67dac7b49ab3c0a1c71a5351391]
link SNSUser to Receptionist--><g id="link_SNSUser_Receptionist"><path codeLine="47" d="M130.91,196.24 C121.43,221.09 112.41,248.19 106.5,274 C81.1,384.93 78.94,522.02 79.19,575.8 " fill="none" id="SNSUser-Receptionist" style="stroke:#181818;stroke-width:1.0;"/><polygon fill="#000000" points="112.1751,381.2216,108.0418,389.787,113.8659,390.5806,112.1751,381.2216" style="stroke:#000000;stroke-width:1.0;"/><text fill="#000000" font-family="sans-serif" font-size="13" lengthAdjust="spacing" textLength="101" x="120.5" y="391.4951">registers arrival of</text><text fill="#000000" font-family="sans-serif" font-size="13" lengthAdjust="spacing" textLength="5" x="122.6721" y="217.2976">*</text><text fill="#000000" font-family="sans-serif" font-size="13" lengthAdjust="spacing" textLength="5" x="73.4699" y="565.0889">*</text></g><!--MD5=[120e6d7c8a557e6251338e72fb523695]
link Receptionist to WaitingRoom--><g id="link_Receptionist_WaitingRoom"><path codeLine="48" d="M134.75,600 C181.02,600 246.88,600 294.03,600 " fill="none" id="Receptionist-WaitingRoom" style="stroke:#181818;stroke-width:1.0;"/><polygon fill="#000000" points="162,588.1758,152.9549,585.2369,152.9549,591.1147,162,588.1758" style="stroke:#000000;stroke-width:1.0;"/><text fill="#000000" font-family="sans-serif" font-size="13" lengthAdjust="spacing" textLength="110" x="166" y="593.4951">sends SNS user to</text><text fill="#000000" font-family="sans-serif" font-size="13" lengthAdjust="spacing" textLength="20" x="142.7023" y="614.4915">1..*</text><text fill="#000000" font-family="sans-serif" font-size="13" lengthAdjust="spacing" textLength="20" x="266.5411" y="614.3893">1..*</text></g><!--MD5=[9a01068024e778289aa5e50549cfd60a]
@startuml

class Receptionist

class WaitingRoom

class VaccinationCenter{
-name
-address
-phoneNumber
-emailAddress
-faxNumber
-Website
-openingHours
-closingHours
-slotDuration
-maxNumberVaccines
}

class SNSUser{
-name
-address
-gender
-phoneNumber
-birthDate
-emailAddress
-snsUserNumber
-citizenCardNumber
}

class Company{
-designation
}

class Employee{
-name
-phoneNumber
-address
-emailAddress
-citizenCardNumber
-id
}

Receptionist - -> Employee:is a
WaitingRoom "1"- -"*"SNSUser: contains >
Company "1"- -"*"VaccinationCenter: has >
VaccinationCenter "1"- -"1" WaitingRoom: has >
Receptionist "*" -up- - "*" SNSUser : registers arrival of >
Receptionist "1..*"-right- - "1..*"WaitingRoom : sends SNS user to >
@enduml

PlantUML version 1.2022.5(Sat Apr 30 11:55:52 BST 2022)
(GPL source distribution)
Java Runtime: OpenJDK Runtime Environment
JVM: OpenJDK 64-Bit Server VM
Default Encoding: Cp1252
Language: en
Country: GB
--></g></svg>