<?xml version="1.0" encoding="UTF-8" standalone="no"?><svg xmlns="http://www.w3.org/2000/svg" xmlns:xlink="http://www.w3.org/1999/xlink" contentStyleType="text/css" height="681.6px" preserveAspectRatio="none" style="width:370px;height:681px;background:#FFFFFF;" version="1.1" viewBox="0 0 370 681" width="370.2px" zoomAndPan="magnify"><defs/><g><!--MD5=[0b4e4b4980470ea387cc45de9bd14b5b]
class Application--><g id="elem_Application"><rect codeLine="3" fill="#F1F1F1" height="60.4969" id="Application" rx="1.5" ry="1.5" style="stroke:#181818;stroke-width:0.3;" width="106.2" x="53.7" y="177"/><ellipse cx="83.55" cy="186.6" fill="#ADD1B2" rx="6.6" ry="6.6" style="stroke:#181818;stroke-width:0.6;"/><path d="M84.75,184.5 Q84.8719,184.2 85.0125,184.05 Q85.1531,183.9 85.3125,183.9 Q85.5938,183.9 85.7719,184.0688 Q85.95,184.2375 85.95,184.6313 L85.95,185.5688 Q85.95,185.9625 85.7813,186.1313 Q85.6125,186.3 85.35,186.3 Q85.1156,186.3 84.9656,186.1969 Q84.8156,186.0938 84.75,185.8219 Q84.7219,185.6344 84.6187,185.5313 Q84.4312,185.3344 84.0938,185.2219 Q83.7563,185.1 83.4188,185.1 Q82.9969,185.1 82.6406,185.2687 Q82.2938,185.4375 82.0219,185.8125 Q81.75,186.1875 81.75,186.7031 L81.75,187.2563 Q81.75,187.875 82.2563,188.2875 Q82.7625,188.7 83.6625,188.7 Q84.1969,188.7 84.5719,188.5781 Q84.7875,188.5125 85.0313,188.2969 Q85.1906,188.175 85.275,188.1375 Q85.3594,188.1 85.4625,188.1 Q85.6594,188.1 85.8,188.2594 Q85.95,188.4094 85.95,188.625 Q85.95,188.8312 85.7437,189.075 Q85.4438,189.4313 84.9656,189.6281 Q84.3375,189.9 83.5688,189.9 Q82.6688,189.9 81.9469,189.5438 Q81.3656,189.2625 80.9531,188.6531 Q80.55,188.0438 80.55,187.3219 L80.55,186.6656 Q80.55,185.9156 80.9063,185.2594 Q81.2719,184.6031 81.9,184.2563 Q82.5375,183.9 83.25,183.9 Q83.6812,183.9 84.0562,184.05 Q84.4312,184.2 84.75,184.5 Z " fill="#000000"/><text fill="#000000" font-family="sans-serif" font-size="8.4" lengthAdjust="spacing" textLength="41.4" x="95.85" y="190.0371">Application</text><line style="stroke:#181818;stroke-width:0.3;" x1="54.3" x2="159.3" y1="196.2" y2="196.2"/><line style="stroke:#181818;stroke-width:0.3;" x1="54.3" x2="159.3" y1="201" y2="201"/><text fill="#000000" font-family="sans-serif" font-size="8.4" lengthAdjust="spacing" textLength="76.8" x="57.3" y="212.1199">+static getInstance()</text><text fill="#000000" font-family="sans-serif" font-size="8.4" lengthAdjust="spacing" textLength="58.8" x="57.3" y="222.6855">+getCompany()</text><text fill="#000000" font-family="sans-serif" font-size="8.4" lengthAdjust="spacing" textLength="99" x="57.3" y="233.2512">+getCurrentUserSession()</text></g><!--MD5=[d2cde82c346a91ca14143d0569ca0dea]
class UserArrivalStore--><g id="elem_UserArrivalStore"><rect codeLine="10" fill="#F1F1F1" height="81.6281" id="UserArrivalStore" rx="1.5" ry="1.5" style="stroke:#181818;stroke-width:0.3;" width="168.6" x="150.3" y="370.8"/><ellipse cx="201.15" cy="380.4" fill="#ADD1B2" rx="6.6" ry="6.6" style="stroke:#181818;stroke-width:0.6;"/><path d="M202.35,378.3 Q202.4719,378 202.6125,377.85 Q202.7531,377.7 202.9125,377.7 Q203.1938,377.7 203.3719,377.8688 Q203.55,378.0375 203.55,378.4313 L203.55,379.3688 Q203.55,379.7625 203.3813,379.9313 Q203.2125,380.1 202.95,380.1 Q202.7156,380.1 202.5656,379.9969 Q202.4156,379.8938 202.35,379.6219 Q202.3219,379.4344 202.2188,379.3313 Q202.0313,379.1344 201.6938,379.0219 Q201.3563,378.9 201.0187,378.9 Q200.5969,378.9 200.2406,379.0687 Q199.8937,379.2375 199.6219,379.6125 Q199.35,379.9875 199.35,380.5031 L199.35,381.0563 Q199.35,381.675 199.8563,382.0875 Q200.3625,382.5 201.2625,382.5 Q201.7969,382.5 202.1719,382.3781 Q202.3875,382.3125 202.6313,382.0969 Q202.7906,381.975 202.875,381.9375 Q202.9594,381.9 203.0625,381.9 Q203.2594,381.9 203.4,382.0594 Q203.55,382.2094 203.55,382.425 Q203.55,382.6312 203.3438,382.875 Q203.0438,383.2313 202.5656,383.4281 Q201.9375,383.7 201.1688,383.7 Q200.2687,383.7 199.5469,383.3438 Q198.9656,383.0625 198.5531,382.4531 Q198.15,381.8438 198.15,381.1219 L198.15,380.4656 Q198.15,379.7156 198.5063,379.0594 Q198.8719,378.4031 199.5,378.0563 Q200.1375,377.7 200.85,377.7 Q201.2813,377.7 201.6563,377.85 Q202.0313,378 202.35,378.3 Z " fill="#000000"/><text fill="#000000" font-family="sans-serif" font-size="8.4" lengthAdjust="spacing" textLength="61.8" x="213.45" y="383.8371">UserArrivalStore</text><line style="stroke:#181818;stroke-width:0.3;" x1="150.9" x2="318.3" y1="390" y2="390"/><line style="stroke:#181818;stroke-width:0.3;" x1="150.9" x2="318.3" y1="394.8" y2="394.8"/><text fill="#000000" font-family="sans-serif" font-size="8.4" lengthAdjust="spacing" textLength="139.8" x="153.9" y="405.9199">+createUser (name, snsUserNumber,</text><text fill="#000000" font-family="sans-serif" font-size="8.4" lengthAdjust="spacing" textLength="161.4" x="153.9" y="416.4855">citizenCardNumber, vaccineScheduleDate)</text><text fill="#000000" font-family="sans-serif" font-size="8.4" lengthAdjust="spacing" textLength="76.2" x="153.9" y="427.0512">+validateUser(snsU)</text><text fill="#000000" font-family="sans-serif" font-size="8.4" lengthAdjust="spacing" textLength="64.8" x="153.9" y="437.6168">+saveUser(snsU)</text><text fill="#000000" font-family="sans-serif" font-size="8.4" lengthAdjust="spacing" textLength="93.6" x="153.9" y="448.1824">+addUserToRoom(snsU)</text></g><!--MD5=[02e4b9b7573f1156f41e60aa5b4e25a4]
class Company--><g id="elem_Company"><rect codeLine="18" fill="#F1F1F1" height="49.9313" id="Company" rx="1.5" ry="1.5" style="stroke:#181818;stroke-width:0.3;" width="117" x="76.5" y="274.2"/><ellipse cx="114.45" cy="283.8" fill="#ADD1B2" rx="6.6" ry="6.6" style="stroke:#181818;stroke-width:0.6;"/><path d="M115.65,281.7 Q115.7719,281.4 115.9125,281.25 Q116.0531,281.1 116.2125,281.1 Q116.4937,281.1 116.6719,281.2688 Q116.85,281.4375 116.85,281.8313 L116.85,282.7688 Q116.85,283.1625 116.6812,283.3313 Q116.5125,283.5 116.25,283.5 Q116.0156,283.5 115.8656,283.3969 Q115.7156,283.2938 115.65,283.0219 Q115.6219,282.8344 115.5188,282.7313 Q115.3313,282.5344 114.9937,282.4219 Q114.6563,282.3 114.3188,282.3 Q113.8969,282.3 113.5406,282.4688 Q113.1938,282.6375 112.9219,283.0125 Q112.65,283.3875 112.65,283.9031 L112.65,284.4563 Q112.65,285.075 113.1563,285.4875 Q113.6625,285.9 114.5625,285.9 Q115.0969,285.9 115.4719,285.7781 Q115.6875,285.7125 115.9312,285.4969 Q116.0906,285.375 116.175,285.3375 Q116.2594,285.3 116.3625,285.3 Q116.5594,285.3 116.7,285.4594 Q116.85,285.6094 116.85,285.825 Q116.85,286.0313 116.6438,286.275 Q116.3438,286.6312 115.8656,286.8281 Q115.2375,287.1 114.4688,287.1 Q113.5688,287.1 112.8469,286.7438 Q112.2656,286.4625 111.8531,285.8531 Q111.45,285.2438 111.45,284.5219 L111.45,283.8656 Q111.45,283.1156 111.8062,282.4594 Q112.1719,281.8031 112.8,281.4563 Q113.4375,281.1 114.15,281.1 Q114.5813,281.1 114.9563,281.25 Q115.3313,281.4 115.65,281.7 Z " fill="#000000"/><text fill="#000000" font-family="sans-serif" font-size="8.4" lengthAdjust="spacing" textLength="36" x="126.75" y="287.2371">Company</text><line style="stroke:#181818;stroke-width:0.3;" x1="77.1" x2="192.9" y1="293.4" y2="293.4"/><line style="stroke:#181818;stroke-width:0.3;" x1="77.1" x2="192.9" y1="298.2" y2="298.2"/><text fill="#000000" font-family="sans-serif" font-size="8.4" lengthAdjust="spacing" textLength="84.6" x="80.1" y="309.3199">+getUserArrivalStore()</text><text fill="#000000" font-family="sans-serif" font-size="8.4" lengthAdjust="spacing" textLength="109.8" x="80.1" y="319.8855">+getUsersVaccineSchedule()</text></g><!--MD5=[72be06cc7ae02ccc98efe28a50e62246]
class SNSUser--><g id="elem_SNSUser"><rect codeLine="24" fill="#F1F1F1" height="92.1938" id="SNSUser" rx="1.5" ry="1.5" style="stroke:#181818;stroke-width:0.3;" width="81.6" x="193.8" y="585.6"/><ellipse cx="215.76" cy="595.2" fill="#ADD1B2" rx="6.6" ry="6.6" style="stroke:#181818;stroke-width:0.6;"/><path d="M216.96,593.1 Q217.0819,592.8 217.2225,592.65 Q217.3631,592.5 217.5225,592.5 Q217.8038,592.5 217.9819,592.6687 Q218.16,592.8375 218.16,593.2312 L218.16,594.1687 Q218.16,594.5625 217.9913,594.7312 Q217.8225,594.9 217.56,594.9 Q217.3256,594.9 217.1756,594.7969 Q217.0256,594.6938 216.96,594.4219 Q216.9319,594.2344 216.8288,594.1313 Q216.6413,593.9344 216.3038,593.8219 Q215.9663,593.7 215.6288,593.7 Q215.2069,593.7 214.8506,593.8688 Q214.5038,594.0375 214.2319,594.4125 Q213.96,594.7875 213.96,595.3031 L213.96,595.8562 Q213.96,596.475 214.4663,596.8875 Q214.9725,597.3 215.8725,597.3 Q216.4069,597.3 216.7819,597.1781 Q216.9975,597.1125 217.2413,596.8969 Q217.4006,596.775 217.485,596.7375 Q217.5694,596.7 217.6725,596.7 Q217.8694,596.7 218.01,596.8594 Q218.16,597.0094 218.16,597.225 Q218.16,597.4313 217.9538,597.675 Q217.6538,598.0313 217.1756,598.2281 Q216.5475,598.5 215.7788,598.5 Q214.8788,598.5 214.1569,598.1438 Q213.5756,597.8625 213.1631,597.2531 Q212.76,596.6438 212.76,595.9219 L212.76,595.2656 Q212.76,594.5156 213.1163,593.8594 Q213.4819,593.2031 214.11,592.8562 Q214.7475,592.5 215.46,592.5 Q215.8913,592.5 216.2663,592.65 Q216.6413,592.8 216.96,593.1 Z " fill="#000000"/><text fill="#000000" font-family="sans-serif" font-size="8.4" lengthAdjust="spacing" textLength="33.6" x="227.04" y="598.6371">SNSUser</text><line style="stroke:#181818;stroke-width:0.3;" x1="194.4" x2="274.8" y1="604.8" y2="604.8"/><text fill="#000000" font-family="sans-serif" font-size="8.4" lengthAdjust="spacing" textLength="24" x="197.4" y="615.9199">-name</text><text fill="#000000" font-family="sans-serif" font-size="8.4" lengthAdjust="spacing" textLength="30" x="197.4" y="626.4855">-gender</text><text fill="#000000" font-family="sans-serif" font-size="8.4" lengthAdjust="spacing" textLength="22.8" x="197.4" y="637.0512">-email</text><text fill="#000000" font-family="sans-serif" font-size="8.4" lengthAdjust="spacing" textLength="36.6" x="197.4" y="647.6168">-birthdate</text><text fill="#000000" font-family="sans-serif" font-size="8.4" lengthAdjust="spacing" textLength="63" x="197.4" y="658.1824">-snsUserNumber</text><text fill="#000000" font-family="sans-serif" font-size="8.4" lengthAdjust="spacing" textLength="74.4" x="197.4" y="668.748">-citizenCardNumber</text><line style="stroke:#181818;stroke-width:0.3;" x1="194.4" x2="274.8" y1="672.9938" y2="672.9938"/></g><!--MD5=[aaa7e27c4ec43917c82a021675d2c87a]
class WaitingRoom--><g id="elem_WaitingRoom"><rect codeLine="33" fill="#F1F1F1" height="39.3656" id="WaitingRoom" rx="1.5" ry="1.5" style="stroke:#181818;stroke-width:0.3;" width="106.8" x="181.2" y="499.2"/><ellipse cx="206.94" cy="508.8" fill="#ADD1B2" rx="6.6" ry="6.6" style="stroke:#181818;stroke-width:0.6;"/><path d="M208.14,506.7 Q208.2619,506.4 208.4025,506.25 Q208.5431,506.1 208.7025,506.1 Q208.9838,506.1 209.1619,506.2687 Q209.34,506.4375 209.34,506.8312 L209.34,507.7687 Q209.34,508.1625 209.1713,508.3312 Q209.0025,508.5 208.74,508.5 Q208.5056,508.5 208.3556,508.3969 Q208.2056,508.2938 208.14,508.0219 Q208.1119,507.8344 208.0088,507.7313 Q207.8213,507.5344 207.4838,507.4219 Q207.1462,507.3 206.8087,507.3 Q206.3869,507.3 206.0306,507.4688 Q205.6837,507.6375 205.4119,508.0125 Q205.14,508.3875 205.14,508.9031 L205.14,509.4562 Q205.14,510.075 205.6462,510.4875 Q206.1525,510.9 207.0525,510.9 Q207.5869,510.9 207.9619,510.7781 Q208.1775,510.7125 208.4213,510.4969 Q208.5806,510.375 208.665,510.3375 Q208.7494,510.3 208.8525,510.3 Q209.0494,510.3 209.19,510.4594 Q209.34,510.6094 209.34,510.825 Q209.34,511.0313 209.1338,511.275 Q208.8337,511.6312 208.3556,511.8281 Q207.7275,512.1 206.9587,512.1 Q206.0587,512.1 205.3369,511.7438 Q204.7556,511.4625 204.3431,510.8531 Q203.94,510.2438 203.94,509.5219 L203.94,508.8656 Q203.94,508.1156 204.2963,507.4594 Q204.6619,506.8031 205.29,506.4562 Q205.9275,506.1 206.64,506.1 Q207.0713,506.1 207.4463,506.25 Q207.8213,506.4 208.14,506.7 Z " fill="#000000"/><text fill="#000000" font-family="sans-serif" font-size="8.4" lengthAdjust="spacing" textLength="50.4" x="219.06" y="512.2371">WaitingRoom</text><line style="stroke:#181818;stroke-width:0.3;" x1="181.8" x2="287.4" y1="518.4" y2="518.4"/><line style="stroke:#181818;stroke-width:0.3;" x1="181.8" x2="287.4" y1="523.2" y2="523.2"/><text fill="#000000" font-family="sans-serif" font-size="8.4" lengthAdjust="spacing" textLength="99.6" x="184.8" y="534.3199">+registerUserArrival(snsU)</text></g><!--MD5=[5d909b6c20725e19f5c6863827561ff4]
class Constants--><g id="elem_Constants"><rect codeLine="38" fill="#F1F1F1" height="39.3656" id="Constants" rx="1.5" ry="1.5" style="stroke:#181818;stroke-width:0.3;" width="99.6" x="266.4" y="187.5"/><ellipse cx="294.45" cy="197.1" fill="#ADD1B2" rx="6.6" ry="6.6" style="stroke:#181818;stroke-width:0.6;"/><path d="M295.65,195 Q295.7719,194.7 295.9125,194.55 Q296.0531,194.4 296.2125,194.4 Q296.4938,194.4 296.6719,194.5688 Q296.85,194.7375 296.85,195.1313 L296.85,196.0688 Q296.85,196.4625 296.6813,196.6313 Q296.5125,196.8 296.25,196.8 Q296.0156,196.8 295.8656,196.6969 Q295.7156,196.5938 295.65,196.3219 Q295.6219,196.1344 295.5188,196.0313 Q295.3313,195.8344 294.9938,195.7219 Q294.6563,195.6 294.3187,195.6 Q293.8969,195.6 293.5406,195.7687 Q293.1937,195.9375 292.9219,196.3125 Q292.65,196.6875 292.65,197.2031 L292.65,197.7563 Q292.65,198.375 293.1563,198.7875 Q293.6625,199.2 294.5625,199.2 Q295.0969,199.2 295.4719,199.0781 Q295.6875,199.0125 295.9313,198.7969 Q296.0906,198.675 296.175,198.6375 Q296.2594,198.6 296.3625,198.6 Q296.5594,198.6 296.7,198.7594 Q296.85,198.9094 296.85,199.125 Q296.85,199.3312 296.6438,199.575 Q296.3438,199.9313 295.8656,200.1281 Q295.2375,200.4 294.4688,200.4 Q293.5687,200.4 292.8469,200.0438 Q292.2656,199.7625 291.8531,199.1531 Q291.45,198.5438 291.45,197.8219 L291.45,197.1656 Q291.45,196.4156 291.8063,195.7594 Q292.1719,195.1031 292.8,194.7563 Q293.4375,194.4 294.15,194.4 Q294.5813,194.4 294.9563,194.55 Q295.3313,194.7 295.65,195 Z " fill="#000000"/><text fill="#000000" font-family="sans-serif" font-size="8.4" lengthAdjust="spacing" textLength="38.4" x="306.75" y="200.5371">Constants</text><line style="stroke:#181818;stroke-width:0.3;" x1="267" x2="365.4" y1="206.7" y2="206.7"/><text fill="#000000" font-family="sans-serif" font-size="8.4" lengthAdjust="spacing" textLength="92.4" x="270" y="217.8199">+ROLE_RECEPTIONIST</text><line style="stroke:#181818;stroke-width:0.3;" x1="267" x2="365.4" y1="222.0656" y2="222.0656"/></g><!--MD5=[c7a73f84dd6572af345c1577e1f39510]
class ChoosingVaccinationCenter--><g id="elem_ChoosingVaccinationCenter"><rect codeLine="42" fill="#F1F1F1" height="39.3656" id="ChoosingVaccinationCenter" rx="1.5" ry="1.5" style="stroke:#181818;stroke-width:0.3;" width="124.8" x="4.2" y="391.8"/><ellipse cx="13.2" cy="401.4" fill="#ADD1B2" rx="6.6" ry="6.6" style="stroke:#181818;stroke-width:0.6;"/><path d="M14.4,399.3 Q14.5219,399 14.6625,398.85 Q14.8031,398.7 14.9625,398.7 Q15.2437,398.7 15.4219,398.8688 Q15.6,399.0375 15.6,399.4313 L15.6,400.3688 Q15.6,400.7625 15.4312,400.9313 Q15.2625,401.1 15,401.1 Q14.7656,401.1 14.6156,400.9969 Q14.4656,400.8938 14.4,400.6219 Q14.3719,400.4344 14.2687,400.3313 Q14.0812,400.1344 13.7438,400.0219 Q13.4063,399.9 13.0688,399.9 Q12.6469,399.9 12.2906,400.0687 Q11.9438,400.2375 11.6719,400.6125 Q11.4,400.9875 11.4,401.5031 L11.4,402.0563 Q11.4,402.675 11.9063,403.0875 Q12.4125,403.5 13.3125,403.5 Q13.8469,403.5 14.2219,403.3781 Q14.4375,403.3125 14.6812,403.0969 Q14.8406,402.975 14.925,402.9375 Q15.0094,402.9 15.1125,402.9 Q15.3094,402.9 15.45,403.0594 Q15.6,403.2094 15.6,403.425 Q15.6,403.6312 15.3937,403.875 Q15.0938,404.2313 14.6156,404.4281 Q13.9875,404.7 13.2188,404.7 Q12.3188,404.7 11.5969,404.3438 Q11.0156,404.0625 10.6031,403.4531 Q10.2,402.8438 10.2,402.1219 L10.2,401.4656 Q10.2,400.7156 10.5563,400.0594 Q10.9219,399.4031 11.55,399.0563 Q12.1875,398.7 12.9,398.7 Q13.3312,398.7 13.7062,398.85 Q14.0812,399 14.4,399.3 Z " fill="#000000"/><text fill="#000000" font-family="sans-serif" font-size="8.4" lengthAdjust="spacing" textLength="105.6" x="21.6" y="404.8371">ChoosingVaccinationCenter</text><line style="stroke:#181818;stroke-width:0.3;" x1="4.8" x2="128.4" y1="411" y2="411"/><line style="stroke:#181818;stroke-width:0.3;" x1="4.8" x2="128.4" y1="415.8" y2="415.8"/><text fill="#000000" font-family="sans-serif" font-size="8.4" lengthAdjust="spacing" textLength="96.6" x="7.8" y="426.9199">+getVaccinationCenters()</text></g><!--MD5=[0ac2cb8497f2ad6ecb53d599020522d6]
class UserArrivalController--><g id="elem_UserArrivalController"><rect codeLine="48" fill="#F1F1F1" height="71.0625" id="UserArrivalController" rx="1.5" ry="1.5" style="stroke:#181818;stroke-width:0.3;" width="148.2" x="138.9" y="69.6"/><ellipse cx="171.15" cy="79.2" fill="#ADD1B2" rx="6.6" ry="6.6" style="stroke:#181818;stroke-width:0.6;"/><path d="M172.35,77.1 Q172.4719,76.8 172.6125,76.65 Q172.7531,76.5 172.9125,76.5 Q173.1938,76.5 173.3719,76.6688 Q173.55,76.8375 173.55,77.2313 L173.55,78.1688 Q173.55,78.5625 173.3813,78.7313 Q173.2125,78.9 172.95,78.9 Q172.7156,78.9 172.5656,78.7969 Q172.4156,78.6938 172.35,78.4219 Q172.3219,78.2344 172.2188,78.1313 Q172.0313,77.9344 171.6938,77.8219 Q171.3563,77.7 171.0187,77.7 Q170.5969,77.7 170.2406,77.8687 Q169.8937,78.0375 169.6219,78.4125 Q169.35,78.7875 169.35,79.3031 L169.35,79.8563 Q169.35,80.475 169.8563,80.8875 Q170.3625,81.3 171.2625,81.3 Q171.7969,81.3 172.1719,81.1781 Q172.3875,81.1125 172.6313,80.8969 Q172.7906,80.775 172.875,80.7375 Q172.9594,80.7 173.0625,80.7 Q173.2594,80.7 173.4,80.8594 Q173.55,81.0094 173.55,81.225 Q173.55,81.4312 173.3438,81.675 Q173.0438,82.0313 172.5656,82.2281 Q171.9375,82.5 171.1688,82.5 Q170.2687,82.5 169.5469,82.1438 Q168.9656,81.8625 168.5531,81.2531 Q168.15,80.6438 168.15,79.9219 L168.15,79.2656 Q168.15,78.5156 168.5063,77.8594 Q168.8719,77.2031 169.5,76.8563 Q170.1375,76.5 170.85,76.5 Q171.2813,76.5 171.6563,76.65 Q172.0313,76.8 172.35,77.1 Z " fill="#000000"/><text fill="#000000" font-family="sans-serif" font-size="8.4" lengthAdjust="spacing" textLength="78.6" x="183.45" y="82.6371">UserArrivalController</text><line style="stroke:#181818;stroke-width:0.3;" x1="139.5" x2="286.5" y1="88.8" y2="88.8"/><line style="stroke:#181818;stroke-width:0.3;" x1="139.5" x2="286.5" y1="93.6" y2="93.6"/><text fill="#000000" font-family="sans-serif" font-size="8.4" lengthAdjust="spacing" textLength="54" x="142.5" y="104.7199">+getWorking()</text><text fill="#000000" font-family="sans-serif" font-size="8.4" lengthAdjust="spacing" textLength="67.2" x="142.5" y="115.2855">+newUserArrival()</text><text fill="#000000" font-family="sans-serif" font-size="8.4" lengthAdjust="spacing" textLength="141" x="142.5" y="125.8512">+registerUserArrival(snsUserNumber)</text><text fill="#000000" font-family="sans-serif" font-size="8.4" lengthAdjust="spacing" textLength="86.4" x="142.5" y="136.4168">+getUserArrivalString()</text></g><!--MD5=[02dc92f8846c746bf412791e8edc0264]
class UserArrivalUI--><g id="elem_UserArrivalUI"><rect codeLine="56" fill="#F1F1F1" height="28.8" id="UserArrivalUI" rx="1.5" ry="1.5" style="stroke:#181818;stroke-width:0.3;" width="67.8" x="179.1" y="4.2"/><ellipse cx="188.1" cy="13.8" fill="#ADD1B2" rx="6.6" ry="6.6" style="stroke:#181818;stroke-width:0.6;"/><path d="M189.3,11.7 Q189.4219,11.4 189.5625,11.25 Q189.7031,11.1 189.8625,11.1 Q190.1437,11.1 190.3219,11.2687 Q190.5,11.4375 190.5,11.8312 L190.5,12.7687 Q190.5,13.1625 190.3312,13.3312 Q190.1625,13.5 189.9,13.5 Q189.6656,13.5 189.5156,13.3969 Q189.3656,13.2938 189.3,13.0219 Q189.2719,12.8344 189.1688,12.7313 Q188.9813,12.5344 188.6437,12.4219 Q188.3063,12.3 187.9688,12.3 Q187.5469,12.3 187.1906,12.4688 Q186.8438,12.6375 186.5719,13.0125 Q186.3,13.3875 186.3,13.9031 L186.3,14.4562 Q186.3,15.075 186.8063,15.4875 Q187.3125,15.9 188.2125,15.9 Q188.7469,15.9 189.1219,15.7781 Q189.3375,15.7125 189.5812,15.4969 Q189.7406,15.375 189.825,15.3375 Q189.9094,15.3 190.0125,15.3 Q190.2094,15.3 190.35,15.4594 Q190.5,15.6094 190.5,15.825 Q190.5,16.0313 190.2938,16.275 Q189.9938,16.6312 189.5156,16.8281 Q188.8875,17.1 188.1188,17.1 Q187.2188,17.1 186.4969,16.7438 Q185.9156,16.4625 185.5031,15.8531 Q185.1,15.2437 185.1,14.5219 L185.1,13.8656 Q185.1,13.1156 185.4562,12.4594 Q185.8219,11.8031 186.45,11.4562 Q187.0875,11.1 187.8,11.1 Q188.2313,11.1 188.6063,11.25 Q188.9813,11.4 189.3,11.7 Z " fill="#000000"/><text fill="#000000" font-family="sans-serif" font-size="8.4" lengthAdjust="spacing" textLength="48.6" x="196.5" y="17.2371">UserArrivalUI</text><line style="stroke:#181818;stroke-width:0.3;" x1="179.7" x2="246.3" y1="23.4" y2="23.4"/><line style="stroke:#181818;stroke-width:0.3;" x1="179.7" x2="246.3" y1="28.2" y2="28.2"/></g><!--MD5=[de60e6d4f424ae4d0522096f76a59010]
class VaccinationCenter--><g id="elem_VaccinationCenter"><rect fill="#F1F1F1" height="28.8" id="VaccinationCenter" rx="1.5" ry="1.5" style="stroke:#181818;stroke-width:0.3;" width="88.8" x="22.2" y="504.6"/><ellipse cx="31.2" cy="514.2" fill="#ADD1B2" rx="6.6" ry="6.6" style="stroke:#181818;stroke-width:0.6;"/><path d="M32.4,512.1 Q32.5219,511.8 32.6625,511.65 Q32.8031,511.5 32.9625,511.5 Q33.2438,511.5 33.4219,511.6688 Q33.6,511.8375 33.6,512.2312 L33.6,513.1687 Q33.6,513.5625 33.4313,513.7312 Q33.2625,513.9 33,513.9 Q32.7656,513.9 32.6156,513.7969 Q32.4656,513.6938 32.4,513.4219 Q32.3719,513.2344 32.2688,513.1313 Q32.0813,512.9344 31.7438,512.8219 Q31.4063,512.7 31.0687,512.7 Q30.6469,512.7 30.2906,512.8688 Q29.9437,513.0375 29.6719,513.4125 Q29.4,513.7875 29.4,514.3031 L29.4,514.8562 Q29.4,515.475 29.9063,515.8875 Q30.4125,516.3 31.3125,516.3 Q31.8469,516.3 32.2219,516.1781 Q32.4375,516.1125 32.6813,515.8969 Q32.8406,515.775 32.925,515.7375 Q33.0094,515.7 33.1125,515.7 Q33.3094,515.7 33.45,515.8594 Q33.6,516.0094 33.6,516.225 Q33.6,516.4313 33.3938,516.675 Q33.0938,517.0313 32.6156,517.2281 Q31.9875,517.5 31.2188,517.5 Q30.3187,517.5 29.5969,517.1438 Q29.0156,516.8625 28.6031,516.2531 Q28.2,515.6438 28.2,514.9219 L28.2,514.2656 Q28.2,513.5156 28.5563,512.8594 Q28.9219,512.2031 29.55,511.8563 Q30.1875,511.5 30.9,511.5 Q31.3312,511.5 31.7062,511.65 Q32.0813,511.8 32.4,512.1 Z " fill="#000000"/><text fill="#000000" font-family="sans-serif" font-size="8.4" lengthAdjust="spacing" textLength="69.6" x="39.6" y="517.6371">VaccinationCenter</text><line style="stroke:#181818;stroke-width:0.3;" x1="22.8" x2="110.4" y1="523.8" y2="523.8"/><line style="stroke:#181818;stroke-width:0.3;" x1="22.8" x2="110.4" y1="528.6" y2="528.6"/></g><!--MD5=[57687aa6913a41fa7e7c2d5d6f687e1e]
link UserArrivalUI to UserArrivalController--><g id="link_UserArrivalUI_UserArrivalController"><path codeLine="61" d="M213,33.078 C213,42.21 213,54.63 213,66.552 " fill="none" id="UserArrivalUI-to-UserArrivalController" style="stroke:#181818;stroke-width:0.6;stroke-dasharray:7.0,7.0;"/><polygon fill="#181818" points="213,69.564,215.4,64.164,213,66.564,210.6,64.164,213,69.564" style="stroke:#181818;stroke-width:0.6;"/></g><!--MD5=[18a19f1b604523a35f3c091e6f16dba8]
link UserArrivalController to Company--><g id="link_UserArrivalController_Company"><path codeLine="62" d="M203.94,140.544 C196.398,167.598 184.62,205.71 170.4,237.6 C165.306,249.03 158.628,261.054 152.448,271.368 " fill="none" id="UserArrivalController-to-Company" style="stroke:#181818;stroke-width:0.6;stroke-dasharray:7.0,7.0;"/><polygon fill="#181818" points="150.888,273.954,155.7326,270.5702,152.4378,271.3853,151.6226,268.0905,150.888,273.954" style="stroke:#181818;stroke-width:0.6;"/></g><!--MD5=[a0ac00c55deed25d3bf5b88660a1b367]
link UserArrivalController to Constants--><g id="link_UserArrivalController_Constants"><path codeLine="63" d="M248.802,140.676 C263.886,155.448 280.956,172.17 294.144,185.088 " fill="none" id="UserArrivalController-to-Constants" style="stroke:#181818;stroke-width:0.6;stroke-dasharray:7.0,7.0;"/><polygon fill="#181818" points="296.388,187.296,294.2111,181.8023,294.2454,185.1962,290.8514,185.2305,296.388,187.296" style="stroke:#181818;stroke-width:0.6;"/></g><!--MD5=[e18b27c4d7603be97050ce57bbd48002]
link UserArrivalStore to WaitingRoom--><g id="link_UserArrivalStore_WaitingRoom"><path codeLine="64" d="M234.6,452.502 C234.6,467.214 234.6,483.324 234.6,495.93 " fill="none" id="UserArrivalStore-to-WaitingRoom" style="stroke:#181818;stroke-width:0.6;"/><polygon fill="#181818" points="234.6,499.056,237,493.656,234.6,496.056,232.2,493.656,234.6,499.056" style="stroke:#181818;stroke-width:0.6;"/><text fill="#000000" font-family="sans-serif" font-size="7.8" lengthAdjust="spacing" textLength="12.6" x="235.2" y="479.0971">has</text><text fill="#000000" font-family="sans-serif" font-size="7.8" lengthAdjust="spacing" textLength="4.2" x="230.1834" y="465.3215">1</text><text fill="#000000" font-family="sans-serif" font-size="7.8" lengthAdjust="spacing" textLength="4.2" x="229.9866" y="492.7254">1</text></g><!--MD5=[1dfd2b8cef5257ed6efd914f274c3279]
link WaitingRoom to SNSUser--><g id="link_WaitingRoom_SNSUser"><path codeLine="65" d="M234.6,539.04 C234.6,551.1 234.6,567.174 234.6,582.516 " fill="none" id="WaitingRoom-to-SNSUser" style="stroke:#181818;stroke-width:0.6;"/><polygon fill="#181818" points="234.6,585.576,237,580.176,234.6,582.576,232.2,580.176,234.6,585.576" style="stroke:#181818;stroke-width:0.6;"/><text fill="#000000" font-family="sans-serif" font-size="7.8" lengthAdjust="spacing" textLength="29.4" x="235.2" y="565.4971">contains</text><text fill="#000000" font-family="sans-serif" font-size="7.8" lengthAdjust="spacing" textLength="4.2" x="230.0391" y="551.4447">1</text><text fill="#000000" font-family="sans-serif" font-size="7.8" lengthAdjust="spacing" textLength="3" x="231.4523" y="579.0709">*</text></g><!--MD5=[bde38ea8192347716a1485a9b50780aa]
link UserArrivalController to Application--><g id="link_UserArrivalController_Application"><path codeLine="66" d="M176.154,140.676 C164.526,151.746 151.752,163.908 140.37,174.744 " fill="none" id="UserArrivalController-to-Application" style="stroke:#181818;stroke-width:0.6;stroke-dasharray:7.0,7.0;"/><polygon fill="#181818" points="138.108,176.892,143.6733,174.9052,140.2802,174.8228,140.3626,171.4297,138.108,176.892" style="stroke:#181818;stroke-width:0.6;"/></g><!--MD5=[aa87414629f40b8871c38fc4fdff0b84]
link Application to Company--><g id="link_Application_Company"><path codeLine="67" d="M116.112,237.816 C119.454,248.556 123.204,260.61 126.48,271.122 " fill="none" id="Application-to-Company" style="stroke:#181818;stroke-width:0.6;stroke-dasharray:7.0,7.0;"/><polygon fill="#181818" points="127.386,274.05,128.0721,268.1806,126.4941,271.1856,123.4891,269.6077,127.386,274.05" style="stroke:#181818;stroke-width:0.6;"/></g><!--MD5=[9774c5098ee68955886994c6e79dd567]
link Company to ChoosingVaccinationCenter--><g id="link_Company_ChoosingVaccinationCenter"><path codeLine="68" d="M119.988,324.126 C108.072,343.518 91.554,370.398 80.058,389.1 " fill="none" id="Company-to-ChoosingVaccinationCenter" style="stroke:#181818;stroke-width:0.6;"/><polygon fill="#181818" points="78.402,391.8,83.268,388.447,79.9681,389.2412,79.1739,385.9413,78.402,391.8" style="stroke:#181818;stroke-width:0.6;"/><text fill="#000000" font-family="sans-serif" font-size="7.8" lengthAdjust="spacing" textLength="12.6" x="109.8" y="350.6971">has</text><text fill="#000000" font-family="sans-serif" font-size="7.8" lengthAdjust="spacing" textLength="4.2" x="113.0608" y="336.9829">1</text><text fill="#000000" font-family="sans-serif" font-size="7.8" lengthAdjust="spacing" textLength="4.2" x="76.203" y="385.2692">1</text></g><!--MD5=[3514cd16eeef828c1cd296bb5786fb0b]
link ChoosingVaccinationCenter to VaccinationCenter--><g id="link_ChoosingVaccinationCenter_VaccinationCenter"><path codeLine="69" d="M66.6,431.43 C66.6,451.38 66.6,482.268 66.6,501.36 " fill="none" id="ChoosingVaccinationCenter-to-VaccinationCenter" style="stroke:#181818;stroke-width:0.6;"/><polygon fill="#181818" points="66.6,504.552,69,499.152,66.6,501.552,64.2,499.152,66.6,504.552" style="stroke:#181818;stroke-width:0.6;"/><text fill="#000000" font-family="sans-serif" font-size="7.8" lengthAdjust="spacing" textLength="22.2" x="67.2" y="479.0971">knows</text><text fill="#000000" font-family="sans-serif" font-size="7.8" lengthAdjust="spacing" textLength="4.2" x="62.0128" y="444.1093">1</text><text fill="#000000" font-family="sans-serif" font-size="7.8" lengthAdjust="spacing" textLength="3" x="63.2156" y="498.1438">*</text></g><!--MD5=[9f9ec9868cc6fe31251fe04901880c3e]
link UserArrivalController to UserArrivalStore--><g id="link_UserArrivalController_UserArrivalStore"><path codeLine="70" d="M215.478,140.634 C219.444,196.716 227.214,306.534 231.528,367.536 " fill="none" id="UserArrivalController-to-UserArrivalStore" style="stroke:#181818;stroke-width:0.6;stroke-dasharray:7.0,7.0;"/><polygon fill="#181818" points="231.744,370.584,233.7679,365.0321,231.5382,367.5911,228.9792,365.3614,231.744,370.584" style="stroke:#181818;stroke-width:0.6;"/></g><!--MD5=[d28d31b1227178bd8717fb503a0f0075]
link Company to UserArrivalStore--><g id="link_Company_UserArrivalStore"><path codeLine="71" d="M156.858,324.126 C168.438,337.062 182.994,353.328 196.368,368.28 " fill="none" id="Company-to-UserArrivalStore" style="stroke:#181818;stroke-width:0.6;"/><polygon fill="#181818" points="198.504,370.668,196.6755,365.0487,196.4971,368.4381,193.1077,368.2597,198.504,370.668" style="stroke:#181818;stroke-width:0.6;"/><text fill="#000000" font-family="sans-serif" font-size="7.8" lengthAdjust="spacing" textLength="12.6" x="182.4" y="350.6971">has</text><text fill="#000000" font-family="sans-serif" font-size="7.8" lengthAdjust="spacing" textLength="4.2" x="155.8069" y="336.9829">1</text><text fill="#000000" font-family="sans-serif" font-size="7.8" lengthAdjust="spacing" textLength="4.2" x="190.1263" y="364.1731">1</text></g><!--MD5=[be51fb16c7ab5866d52c304076e19501]
@startuml
skinparam classAttributeIconSize 0

class Application {
  +static getInstance()
  +getCompany()
  +getCurrentUserSession()

}

class UserArrivalStore {
+createUser (name, snsUserNumber, \ncitizenCardNumber, vaccineScheduleDate)
+validateUser(snsU)
+saveUser(snsU)
+addUserToRoom(snsU)
}


class Company {
+getUserArrivalStore()
+getUsersVaccineSchedule()

}

class SNSUser{
-name
-gender
-email
-birthdate
-snsUserNumber
-citizenCardNumber
}

class WaitingRoom{
+registerUserArrival(snsU)
}


class Constants{
+ROLE_RECEPTIONIST
}

class ChoosingVaccinationCenter{
+getVaccinationCenters()
}



class UserArrivalController {
+getWorking()
+newUserArrival()
+registerUserArrival(snsUserNumber)
+getUserArrivalString()

}

class UserArrivalUI {

}


UserArrivalUI ..> UserArrivalController
UserArrivalController ..> Company
UserArrivalController ..> Constants
UserArrivalStore "1"- ->"1" WaitingRoom:has
WaitingRoom "1"- ->"*" SNSUser: contains
UserArrivalController ..> Application
Application ..> Company
Company "1"- ->"1" ChoosingVaccinationCenter: has
ChoosingVaccinationCenter "1"- ->"*"VaccinationCenter :knows
UserArrivalController ..> UserArrivalStore
Company "1" - -> "1" UserArrivalStore : has




@enduml

PlantUML version 1.2022.5(Sat Apr 30 11:55:52 BST 2022)
(GPL source distribution)
Java Runtime: OpenJDK Runtime Environment
JVM: OpenJDK 64-Bit Server VM
Default Encoding: Cp1252
Language: en
Country: GB
--></g></svg>