<?xml version="1.0" encoding="UTF-8" standalone="no"?><svg xmlns="http://www.w3.org/2000/svg" xmlns:xlink="http://www.w3.org/1999/xlink" contentStyleType="text/css" height="391px" preserveAspectRatio="none" style="width:410px;height:391px;background:#FFFFFF;" version="1.1" viewBox="0 0 410 391" width="410px" zoomAndPan="magnify"><defs/><g><!--MD5=[03960189e81aa2c066c762ffabbee709]
class Receptionist--><g id="elem_Receptionist"><rect codeLine="2" fill="#F1F1F1" height="48" id="Receptionist" rx="2.5" ry="2.5" style="stroke:#181818;stroke-width:0.5;" width="110" x="17.5" y="336"/><ellipse cx="32.5" cy="352" fill="#ADD1B2" rx="11" ry="11" style="stroke:#181818;stroke-width:1.0;"/><path d="M34.5,348.5 Q34.7031,348 34.9375,347.75 Q35.1719,347.5 35.4375,347.5 Q35.9063,347.5 36.2031,347.7813 Q36.5,348.0625 36.5,348.7188 L36.5,350.2813 Q36.5,350.9375 36.2188,351.2188 Q35.9375,351.5 35.5,351.5 Q35.1094,351.5 34.8594,351.3281 Q34.6094,351.1563 34.5,350.7031 Q34.4531,350.3906 34.2813,350.2188 Q33.9688,349.8906 33.4063,349.7031 Q32.8438,349.5 32.2813,349.5 Q31.5781,349.5 30.9844,349.7813 Q30.4063,350.0625 29.9531,350.6875 Q29.5,351.3125 29.5,352.1719 L29.5,353.0938 Q29.5,354.125 30.3438,354.8125 Q31.1875,355.5 32.6875,355.5 Q33.5781,355.5 34.2031,355.2969 Q34.5625,355.1875 34.9688,354.8281 Q35.2344,354.625 35.375,354.5625 Q35.5156,354.5 35.6875,354.5 Q36.0156,354.5 36.25,354.7656 Q36.5,355.0156 36.5,355.375 Q36.5,355.7188 36.1563,356.125 Q35.6563,356.7188 34.8594,357.0469 Q33.8125,357.5 32.5313,357.5 Q31.0313,357.5 29.8281,356.9063 Q28.8594,356.4375 28.1719,355.4219 Q27.5,354.4063 27.5,353.2031 L27.5,352.1094 Q27.5,350.8594 28.0938,349.7656 Q28.7031,348.6719 29.75,348.0938 Q30.8125,347.5 32,347.5 Q32.7188,347.5 33.3438,347.75 Q33.9688,348 34.5,348.5 Z " fill="#000000"/><text fill="#000000" font-family="sans-serif" font-size="14" lengthAdjust="spacing" textLength="78" x="46.5" y="357.7285">Receptionist</text><line style="stroke:#181818;stroke-width:0.5;" x1="18.5" x2="126.5" y1="368" y2="368"/><line style="stroke:#181818;stroke-width:0.5;" x1="18.5" x2="126.5" y1="376" y2="376"/></g><!--MD5=[aaa7e27c4ec43917c82a021675d2c87a]
class WaitingRoom--><g id="elem_WaitingRoom"><rect codeLine="4" fill="#F1F1F1" height="48" id="WaitingRoom" rx="2.5" ry="2.5" style="stroke:#181818;stroke-width:0.5;" width="116" x="287.5" y="336"/><ellipse cx="302.5" cy="352" fill="#ADD1B2" rx="11" ry="11" style="stroke:#181818;stroke-width:1.0;"/><path d="M304.5,348.5 Q304.7031,348 304.9375,347.75 Q305.1719,347.5 305.4375,347.5 Q305.9063,347.5 306.2031,347.7813 Q306.5,348.0625 306.5,348.7188 L306.5,350.2813 Q306.5,350.9375 306.2188,351.2188 Q305.9375,351.5 305.5,351.5 Q305.1094,351.5 304.8594,351.3281 Q304.6094,351.1563 304.5,350.7031 Q304.4531,350.3906 304.2813,350.2188 Q303.9688,349.8906 303.4063,349.7031 Q302.8438,349.5 302.2813,349.5 Q301.5781,349.5 300.9844,349.7813 Q300.4063,350.0625 299.9531,350.6875 Q299.5,351.3125 299.5,352.1719 L299.5,353.0938 Q299.5,354.125 300.3438,354.8125 Q301.1875,355.5 302.6875,355.5 Q303.5781,355.5 304.2031,355.2969 Q304.5625,355.1875 304.9688,354.8281 Q305.2344,354.625 305.375,354.5625 Q305.5156,354.5 305.6875,354.5 Q306.0156,354.5 306.25,354.7656 Q306.5,355.0156 306.5,355.375 Q306.5,355.7188 306.1563,356.125 Q305.6563,356.7188 304.8594,357.0469 Q303.8125,357.5 302.5313,357.5 Q301.0313,357.5 299.8281,356.9063 Q298.8594,356.4375 298.1719,355.4219 Q297.5,354.4063 297.5,353.2031 L297.5,352.1094 Q297.5,350.8594 298.0938,349.7656 Q298.7031,348.6719 299.75,348.0938 Q300.8125,347.5 302,347.5 Q302.7188,347.5 303.3438,347.75 Q303.9688,348 304.5,348.5 Z " fill="#000000"/><text fill="#000000" font-family="sans-serif" font-size="14" lengthAdjust="spacing" textLength="84" x="316.5" y="357.7285">WaitingRoom</text><line style="stroke:#181818;stroke-width:0.5;" x1="288.5" x2="402.5" y1="368" y2="368"/><line style="stroke:#181818;stroke-width:0.5;" x1="288.5" x2="402.5" y1="376" y2="376"/></g><!--MD5=[72be06cc7ae02ccc98efe28a50e62246]
class SNSUser--><g id="elem_SNSUser"><rect codeLine="6" fill="#F1F1F1" height="188.875" id="SNSUser" rx="2.5" ry="2.5" style="stroke:#181818;stroke-width:0.5;" width="131" x="7" y="7"/><ellipse cx="41.35" cy="23" fill="#ADD1B2" rx="11" ry="11" style="stroke:#181818;stroke-width:1.0;"/><path d="M43.35,19.5 Q43.5531,19 43.7875,18.75 Q44.0219,18.5 44.2875,18.5 Q44.7563,18.5 45.0531,18.7813 Q45.35,19.0625 45.35,19.7188 L45.35,21.2813 Q45.35,21.9375 45.0688,22.2188 Q44.7875,22.5 44.35,22.5 Q43.9594,22.5 43.7094,22.3281 Q43.4594,22.1563 43.35,21.7031 Q43.3031,21.3906 43.1313,21.2188 Q42.8188,20.8906 42.2563,20.7031 Q41.6938,20.5 41.1313,20.5 Q40.4281,20.5 39.8344,20.7813 Q39.2563,21.0625 38.8031,21.6875 Q38.35,22.3125 38.35,23.1719 L38.35,24.0938 Q38.35,25.125 39.1938,25.8125 Q40.0375,26.5 41.5375,26.5 Q42.4281,26.5 43.0531,26.2969 Q43.4125,26.1875 43.8188,25.8281 Q44.0844,25.625 44.225,25.5625 Q44.3656,25.5 44.5375,25.5 Q44.8656,25.5 45.1,25.7656 Q45.35,26.0156 45.35,26.375 Q45.35,26.7188 45.0063,27.125 Q44.5063,27.7188 43.7094,28.0469 Q42.6625,28.5 41.3813,28.5 Q39.8813,28.5 38.6781,27.9063 Q37.7094,27.4375 37.0219,26.4219 Q36.35,25.4063 36.35,24.2031 L36.35,23.1094 Q36.35,21.8594 36.9438,20.7656 Q37.5531,19.6719 38.6,19.0938 Q39.6625,18.5 40.85,18.5 Q41.5688,18.5 42.1938,18.75 Q42.8188,19 43.35,19.5 Z " fill="#000000"/><text fill="#000000" font-family="sans-serif" font-size="14" lengthAdjust="spacing" textLength="56" x="59.65" y="28.7285">SNSUser</text><line style="stroke:#181818;stroke-width:0.5;" x1="8" x2="137" y1="39" y2="39"/><text fill="#000000" font-family="sans-serif" font-size="14" lengthAdjust="spacing" textLength="35" x="13" y="57.5332">name</text><text fill="#000000" font-family="sans-serif" font-size="14" lengthAdjust="spacing" textLength="51" x="13" y="75.1426">address</text><text fill="#000000" font-family="sans-serif" font-size="14" lengthAdjust="spacing" textLength="45" x="13" y="92.752">gender</text><text fill="#000000" font-family="sans-serif" font-size="14" lengthAdjust="spacing" textLength="89" x="13" y="110.3613">phoneNumber</text><text fill="#000000" font-family="sans-serif" font-size="14" lengthAdjust="spacing" textLength="58" x="13" y="127.9707">birthDate</text><text fill="#000000" font-family="sans-serif" font-size="14" lengthAdjust="spacing" textLength="85" x="13" y="145.5801">emailAddress</text><text fill="#000000" font-family="sans-serif" font-size="14" lengthAdjust="spacing" textLength="100" x="13" y="163.1895">snsUserNumber</text><text fill="#000000" font-family="sans-serif" font-size="14" lengthAdjust="spacing" textLength="119" x="13" y="180.7988">citizenCardNumber</text><line style="stroke:#181818;stroke-width:0.5;" x1="8" x2="137" y1="187.875" y2="187.875"/></g><!--MD5=[9c3cd67dac7b49ab3c0a1c71a5351391]
link SNSUser to Receptionist--><g id="link_SNSUser_Receptionist"><path codeLine="17" d="M72.5,196.19 C72.5,246.57 72.5,304.63 72.5,336 " fill="none" id="SNSUser-Receptionist" style="stroke:#181818;stroke-width:1.0;"/><polygon fill="#000000" points="77.5,261.1758,74.5611,270.2209,80.4389,270.2209,77.5,261.1758" style="stroke:#000000;stroke-width:1.0;"/><text fill="#000000" font-family="sans-serif" font-size="13" lengthAdjust="spacing" textLength="101" x="86.5" y="271.4951">registers arrival of</text><text fill="#000000" font-family="sans-serif" font-size="13" lengthAdjust="spacing" textLength="5" x="67.3164" y="217.2439">*</text><text fill="#000000" font-family="sans-serif" font-size="13" lengthAdjust="spacing" textLength="5" x="66.8594" y="325.3402">*</text></g><!--MD5=[120e6d7c8a557e6251338e72fb523695]
link Receptionist to WaitingRoom--><g id="link_Receptionist_WaitingRoom"><path codeLine="18" d="M127.75,360 C174.02,360 239.88,360 287.03,360 " fill="none" id="Receptionist-WaitingRoom" style="stroke:#181818;stroke-width:1.0;"/><polygon fill="#000000" points="155,348.1758,145.9549,345.2369,145.9549,351.1147,155,348.1758" style="stroke:#000000;stroke-width:1.0;"/><text fill="#000000" font-family="sans-serif" font-size="13" lengthAdjust="spacing" textLength="110" x="159" y="353.4951">sends SNS user to</text><text fill="#000000" font-family="sans-serif" font-size="13" lengthAdjust="spacing" textLength="20" x="135.7023" y="374.4915">1..*</text><text fill="#000000" font-family="sans-serif" font-size="13" lengthAdjust="spacing" textLength="20" x="259.5411" y="374.3893">1..*</text></g><!--MD5=[64a84b9d066d7c8158970159690641bb]
@startuml

class Receptionist

class WaitingRoom

class SNSUser{
name
address
gender
phoneNumber
birthDate
emailAddress
snsUserNumber
citizenCardNumber
}

Receptionist "*" -up- - "*" SNSUser : registers arrival of >
Receptionist "1..*"-right- - "1..*"WaitingRoom : sends SNS user to >
@enduml

PlantUML version 1.2022.4(Sat Apr 09 14:29:17 BST 2022)
(GPL source distribution)
Java Runtime: OpenJDK Runtime Environment
JVM: OpenJDK 64-Bit Server VM
Default Encoding: Cp1252
Language: en
Country: GB
--></g></svg>