<?xml version="1.0" encoding="UTF-8" standalone="no"?><svg xmlns="http://www.w3.org/2000/svg" xmlns:xlink="http://www.w3.org/1999/xlink" contentStyleType="text/css" height="507.5px" preserveAspectRatio="none" style="width:780px;height:507px;background:#FFFFFF;" version="1.1" viewBox="0 0 780 507" width="780px" zoomAndPan="magnify"><defs/><g><rect fill="#FFFFFF" height="411.3672" style="stroke:#181818;stroke-width:0.5;" width="5" x="21" y="46.3047"/><rect fill="#FFFFFF" height="129.0547" style="stroke:#181818;stroke-width:0.5;" width="5" x="174" y="57.4805"/><rect fill="#FFFFFF" height="121.9063" style="stroke:#181818;stroke-width:0.5;" width="5" x="174" y="201.7109"/><rect fill="#FFFFFF" height="118.8789" style="stroke:#181818;stroke-width:0.5;" width="5" x="174" y="338.793"/><rect fill="#FFFFFF" height="90.5273" style="stroke:#181818;stroke-width:0.5;" width="5" x="324.5" y="72.6563"/><rect fill="#FFFFFF" height="98.5547" style="stroke:#181818;stroke-width:0.5;" width="5" x="324.5" y="225.0625"/><rect fill="#FFFFFF" height="85.0273" style="stroke:#181818;stroke-width:0.5;" width="5" x="324.5" y="353.9688"/><rect fill="#FFFFFF" height="15" style="stroke:#181818;stroke-width:0.5;" width="5" x="400.5" y="87.832"/><rect fill="#FFFFFF" height="15" style="stroke:#181818;stroke-width:0.5;" width="5" x="426" y="118.0078"/><rect fill="#FFFFFF" height="15" style="stroke:#181818;stroke-width:0.5;" width="5" x="469.75" y="148.1836"/><rect fill="#FFFFFF" height="75.2031" style="stroke:#181818;stroke-width:0.5;" width="5" x="533" y="248.4141"/><rect fill="#FFFFFF" height="14" style="stroke:#181818;stroke-width:0.5;" width="5" x="535.5" y="290.9414"/><rect fill="#FFFFFF" height="69.8516" style="stroke:#181818;stroke-width:0.5;" width="5" x="533" y="369.1445"/><rect fill="#FFFFFF" height="14" style="stroke:#181818;stroke-width:0.5;" width="5" x="535.5" y="388.3203"/><rect fill="#FFFFFF" height="14" style="stroke:#181818;stroke-width:0.5;" width="5" x="535.5" y="424.9961"/><line style="stroke:#181818;stroke-width:0.25;stroke-dasharray:5.0,5.0;" x1="23.5" x2="23.5" y1="41.3047" y2="466.6719"/><line style="stroke:#181818;stroke-width:0.25;stroke-dasharray:5.0,5.0;" x1="176.25" x2="176.25" y1="41.3047" y2="466.6719"/><line style="stroke:#181818;stroke-width:0.25;stroke-dasharray:5.0,5.0;" x1="326.75" x2="326.75" y1="41.3047" y2="466.6719"/><line style="stroke:#181818;stroke-width:0.25;stroke-dasharray:5.0,5.0;" x1="402.75" x2="402.75" y1="41.3047" y2="466.6719"/><line style="stroke:#181818;stroke-width:0.25;stroke-dasharray:5.0,5.0;" x1="428.25" x2="428.25" y1="41.3047" y2="466.6719"/><line style="stroke:#181818;stroke-width:0.25;stroke-dasharray:5.0,5.0;" x1="472.25" x2="472.25" y1="41.3047" y2="466.6719"/><line style="stroke:#181818;stroke-width:0.25;stroke-dasharray:5.0,5.0;" x1="535.25" x2="535.25" y1="41.3047" y2="466.6719"/><line style="stroke:#181818;stroke-width:0.25;stroke-dasharray:5.0,5.0;" x1="697" x2="697" y1="269.0898" y2="466.6719"/><line style="stroke:#181818;stroke-width:0.25;stroke-dasharray:5.0,5.0;" x1="753" x2="753" y1="41.3047" y2="466.6719"/><text fill="#000000" font-family="sans-serif" font-size="7" lengthAdjust="spacing" textLength="39" x="2.5" y="39.7666">Receptionist</text><ellipse cx="23.5" cy="6.75" fill="#E2E2F0" rx="4" ry="4" style="stroke:#181818;stroke-width:0.25;"/><path d="M23.5,10.75 L23.5,24.25 M17,14.75 L30,14.75 M23.5,24.25 L17,31.75 M23.5,24.25 L30,31.75 " fill="none" style="stroke:#181818;stroke-width:0.25;"/><text fill="#000000" font-family="sans-serif" font-size="7" lengthAdjust="spacing" textLength="39" x="2.5" y="473.4385">Receptionist</text><ellipse cx="23.5" cy="479.2266" fill="#E2E2F0" rx="4" ry="4" style="stroke:#181818;stroke-width:0.25;"/><path d="M23.5,483.2266 L23.5,496.7266 M17,487.2266 L30,487.2266 M23.5,496.7266 L17,504.2266 M23.5,496.7266 L30,504.2266 " fill="none" style="stroke:#181818;stroke-width:0.25;"/><rect fill="#E2E2F0" height="15.8047" rx="1.25" ry="1.25" style="stroke:#181818;stroke-width:0.25;" width="49.5" x="151.75" y="25"/><text fill="#000000" font-family="sans-serif" font-size="7" lengthAdjust="spacing" textLength="42.5" x="155.25" y="35.7666">:UserArrivalUI</text><rect fill="#E2E2F0" height="15.8047" rx="1.25" ry="1.25" style="stroke:#181818;stroke-width:0.25;" width="49.5" x="151.75" y="466.1719"/><text fill="#000000" font-family="sans-serif" font-size="7" lengthAdjust="spacing" textLength="42.5" x="155.25" y="476.9385">:UserArrivalUI</text><rect fill="#E2E2F0" height="15.8047" rx="1.25" ry="1.25" style="stroke:#181818;stroke-width:0.25;" width="74.5" x="289.75" y="25"/><text fill="#000000" font-family="sans-serif" font-size="7" lengthAdjust="spacing" textLength="67.5" x="293.25" y="35.7666">:UserArrivalController</text><rect fill="#E2E2F0" height="15.8047" rx="1.25" ry="1.25" style="stroke:#181818;stroke-width:0.25;" width="74.5" x="289.75" y="466.1719"/><text fill="#000000" font-family="sans-serif" font-size="7" lengthAdjust="spacing" textLength="67.5" x="293.25" y="476.9385">:UserArrivalController</text><rect fill="#E2E2F0" height="15.8047" rx="1.25" ry="1.25" style="stroke:#181818;stroke-width:0.25;" width="19.5" x="393.25" y="25"/><text fill="#000000" font-family="sans-serif" font-size="7" lengthAdjust="spacing" textLength="12.5" x="396.75" y="35.7666">App</text><rect fill="#E2E2F0" height="15.8047" rx="1.25" ry="1.25" style="stroke:#181818;stroke-width:0.25;" width="19.5" x="393.25" y="466.1719"/><text fill="#000000" font-family="sans-serif" font-size="7" lengthAdjust="spacing" textLength="12.5" x="396.75" y="476.9385">App</text><rect fill="#E2E2F0" height="24.6094" rx="1.25" ry="1.25" style="stroke:#181818;stroke-width:0.25;" width="21.5" x="417.75" y="16.1953"/><text fill="#000000" font-family="sans-serif" font-size="7" lengthAdjust="spacing" textLength="12" x="422.5" y="26.9619">app</text><text fill="#000000" font-family="sans-serif" font-size="7" lengthAdjust="spacing" textLength="14.5" x="421.25" y="35.7666">:App</text><rect fill="#E2E2F0" height="24.6094" rx="1.25" ry="1.25" style="stroke:#181818;stroke-width:0.25;" width="21.5" x="417.75" y="466.1719"/><text fill="#000000" font-family="sans-serif" font-size="7" lengthAdjust="spacing" textLength="12" x="422.5" y="476.9385">app</text><text fill="#000000" font-family="sans-serif" font-size="7" lengthAdjust="spacing" textLength="14.5" x="421.25" y="485.7432">:App</text><rect fill="#E2E2F0" height="15.8047" rx="1.25" ry="1.25" style="stroke:#181818;stroke-width:0.25;" width="56" x="444.25" y="25"/><text fill="#000000" font-family="sans-serif" font-size="7" lengthAdjust="spacing" textLength="49" x="447.75" y="35.7666">comp:Company</text><rect fill="#E2E2F0" height="15.8047" rx="1.25" ry="1.25" style="stroke:#181818;stroke-width:0.25;" width="56" x="444.25" y="466.1719"/><text fill="#000000" font-family="sans-serif" font-size="7" lengthAdjust="spacing" textLength="49" x="447.75" y="476.9385">comp:Company</text><rect fill="#E2E2F0" height="24.6094" rx="1.25" ry="1.25" style="stroke:#181818;stroke-width:0.25;" width="60.5" x="505.25" y="16.1953"/><text fill="#000000" font-family="sans-serif" font-size="7" lengthAdjust="spacing" textLength="11.5" x="529.75" y="26.9619">uas</text><text fill="#000000" font-family="sans-serif" font-size="7" lengthAdjust="spacing" textLength="53.5" x="508.75" y="35.7666">:UserArrivalStore</text><rect fill="#E2E2F0" height="24.6094" rx="1.25" ry="1.25" style="stroke:#181818;stroke-width:0.25;" width="60.5" x="505.25" y="466.1719"/><text fill="#000000" font-family="sans-serif" font-size="7" lengthAdjust="spacing" textLength="11.5" x="529.75" y="476.9385">uas</text><text fill="#000000" font-family="sans-serif" font-size="7" lengthAdjust="spacing" textLength="53.5" x="508.75" y="485.7432">:UserArrivalStore</text><rect fill="#E2E2F0" height="15.8047" rx="1.25" ry="1.25" style="stroke:#181818;stroke-width:0.25;" width="54.5" x="670" y="466.1719"/><text fill="#000000" font-family="sans-serif" font-size="7" lengthAdjust="spacing" textLength="47.5" x="673.5" y="476.9385">snsU: SNSUser</text><rect fill="#E2E2F0" height="24.6094" rx="1.25" ry="1.25" style="stroke:#181818;stroke-width:0.25;" width="47.5" x="729.5" y="16.1953"/><text fill="#000000" font-family="sans-serif" font-size="7" lengthAdjust="spacing" textLength="14" x="746.25" y="26.9619">auth</text><text fill="#000000" font-family="sans-serif" font-size="7" lengthAdjust="spacing" textLength="40.5" x="733" y="35.7666">:AuthFacade</text><rect fill="#E2E2F0" height="24.6094" rx="1.25" ry="1.25" style="stroke:#181818;stroke-width:0.25;" width="47.5" x="729.5" y="466.1719"/><text fill="#000000" font-family="sans-serif" font-size="7" lengthAdjust="spacing" textLength="14" x="746.25" y="476.9385">auth</text><text fill="#000000" font-family="sans-serif" font-size="7" lengthAdjust="spacing" textLength="40.5" x="733" y="485.7432">:AuthFacade</text><rect fill="#FFFFFF" height="411.3672" style="stroke:#181818;stroke-width:0.5;" width="5" x="21" y="46.3047"/><rect fill="#FFFFFF" height="129.0547" style="stroke:#181818;stroke-width:0.5;" width="5" x="174" y="57.4805"/><rect fill="#FFFFFF" height="121.9063" style="stroke:#181818;stroke-width:0.5;" width="5" x="174" y="201.7109"/><rect fill="#FFFFFF" height="118.8789" style="stroke:#181818;stroke-width:0.5;" width="5" x="174" y="338.793"/><rect fill="#FFFFFF" height="90.5273" style="stroke:#181818;stroke-width:0.5;" width="5" x="324.5" y="72.6563"/><rect fill="#FFFFFF" height="98.5547" style="stroke:#181818;stroke-width:0.5;" width="5" x="324.5" y="225.0625"/><rect fill="#FFFFFF" height="85.0273" style="stroke:#181818;stroke-width:0.5;" width="5" x="324.5" y="353.9688"/><rect fill="#FFFFFF" height="15" style="stroke:#181818;stroke-width:0.5;" width="5" x="400.5" y="87.832"/><rect fill="#FFFFFF" height="15" style="stroke:#181818;stroke-width:0.5;" width="5" x="426" y="118.0078"/><rect fill="#FFFFFF" height="15" style="stroke:#181818;stroke-width:0.5;" width="5" x="469.75" y="148.1836"/><rect fill="#FFFFFF" height="75.2031" style="stroke:#181818;stroke-width:0.5;" width="5" x="533" y="248.4141"/><rect fill="#FFFFFF" height="14" style="stroke:#181818;stroke-width:0.5;" width="5" x="535.5" y="290.9414"/><rect fill="#FFFFFF" height="69.8516" style="stroke:#181818;stroke-width:0.5;" width="5" x="533" y="369.1445"/><rect fill="#FFFFFF" height="14" style="stroke:#181818;stroke-width:0.5;" width="5" x="535.5" y="388.3203"/><rect fill="#FFFFFF" height="14" style="stroke:#181818;stroke-width:0.5;" width="5" x="535.5" y="424.9961"/><polygon fill="#181818" points="168,55.4805,173,57.4805,168,59.4805,170,57.4805" style="stroke:#181818;stroke-width:0.5;"/><line style="stroke:#181818;stroke-width:0.5;" x1="26" x2="171" y1="57.4805" y2="57.4805"/><text fill="#000000" font-family="sans-serif" font-size="6.5" font-weight="bold" lengthAdjust="spacing" textLength="3.5" x="29.5" y="55.0522">1</text><text fill="#000000" font-family="sans-serif" font-size="6.5" lengthAdjust="spacing" textLength="110.5" x="35" y="55.0522">starts registering the arrival of the user</text><polygon fill="#181818" points="318.5,70.6563,323.5,72.6563,318.5,74.6563,320.5,72.6563" style="stroke:#181818;stroke-width:0.5;"/><line style="stroke:#181818;stroke-width:0.5;" x1="179" x2="321.5" y1="72.6563" y2="72.6563"/><text fill="#000000" font-family="sans-serif" font-size="6.5" font-weight="bold" lengthAdjust="spacing" textLength="3.5" x="182.5" y="70.228">2</text><text fill="#000000" font-family="sans-serif" font-size="6.5" lengthAdjust="spacing" textLength="80.5" x="188" y="70.228">getUsersVaccineSchedule()</text><polygon fill="#181818" points="394.5,85.832,399.5,87.832,394.5,89.832,396.5,87.832" style="stroke:#181818;stroke-width:0.5;"/><line style="stroke:#181818;stroke-width:0.5;" x1="329.5" x2="397.5" y1="87.832" y2="87.832"/><text fill="#000000" font-family="sans-serif" font-size="6.5" font-weight="bold" lengthAdjust="spacing" textLength="3.5" x="333" y="85.4038">3</text><text fill="#000000" font-family="sans-serif" font-size="6.5" lengthAdjust="spacing" textLength="56" x="338.5" y="85.4038">app = getInstance()</text><polygon fill="#181818" points="420,116.0078,425,118.0078,420,120.0078,422,118.0078" style="stroke:#181818;stroke-width:0.5;"/><line style="stroke:#181818;stroke-width:0.5;" x1="329.5" x2="423" y1="118.0078" y2="118.0078"/><text fill="#000000" font-family="sans-serif" font-size="6.5" font-weight="bold" lengthAdjust="spacing" textLength="3.5" x="333" y="115.5796">4</text><text fill="#000000" font-family="sans-serif" font-size="6.5" lengthAdjust="spacing" textLength="64.5" x="338.5" y="115.5796">comp = getCompany()</text><polygon fill="#181818" points="463.75,146.1836,468.75,148.1836,463.75,150.1836,465.75,148.1836" style="stroke:#181818;stroke-width:0.5;"/><line style="stroke:#181818;stroke-width:0.5;" x1="329.5" x2="466.75" y1="148.1836" y2="148.1836"/><text fill="#000000" font-family="sans-serif" font-size="6.5" font-weight="bold" lengthAdjust="spacing" textLength="3.5" x="333" y="145.7554">5</text><text fill="#000000" font-family="sans-serif" font-size="6.5" lengthAdjust="spacing" textLength="101.5" x="338.5" y="145.7554">guvs = getUsersVaccineSchedule()</text><polygon fill="#181818" points="31.5,184.5352,26.5,186.5352,31.5,188.5352,29.5,186.5352" style="stroke:#181818;stroke-width:0.5;"/><line style="stroke:#181818;stroke-width:0.5;stroke-dasharray:2.0,2.0;" x1="28.5" x2="176" y1="186.5352" y2="186.5352"/><text fill="#000000" font-family="sans-serif" font-size="6.5" font-weight="bold" lengthAdjust="spacing" textLength="3.5" x="34.5" y="180.019">6</text><text fill="#000000" font-family="sans-serif" font-size="6.5" lengthAdjust="spacing" textLength="124" x="40" y="175.9312">request data (name, vaccineScheduleDate,</text><text fill="#000000" font-family="sans-serif" font-size="6.5" lengthAdjust="spacing" textLength="130.5" x="40" y="184.1069">arrivalTime,  citizenCardNumber, snsNumber)</text><polygon fill="#181818" points="168,199.7109,173,201.7109,168,203.7109,170,201.7109" style="stroke:#181818;stroke-width:0.5;"/><line style="stroke:#181818;stroke-width:0.5;" x1="26" x2="171" y1="201.7109" y2="201.7109"/><text fill="#000000" font-family="sans-serif" font-size="6.5" font-weight="bold" lengthAdjust="spacing" textLength="3.5" x="29.5" y="199.2827">7</text><text fill="#000000" font-family="sans-serif" font-size="6.5" lengthAdjust="spacing" textLength="61" x="35" y="199.2827">types requested data</text><polygon fill="#181818" points="318.5,223.0625,323.5,225.0625,318.5,227.0625,320.5,225.0625" style="stroke:#181818;stroke-width:0.5;"/><line style="stroke:#181818;stroke-width:0.5;" x1="179" x2="321.5" y1="225.0625" y2="225.0625"/><text fill="#000000" font-family="sans-serif" font-size="6.5" font-weight="bold" lengthAdjust="spacing" textLength="3.5" x="182.5" y="218.5464">8</text><text fill="#000000" font-family="sans-serif" font-size="6.5" lengthAdjust="spacing" textLength="119.5" x="188" y="214.4585">createUser (name, vaccineScheduleDate,</text><text fill="#000000" font-family="sans-serif" font-size="6.5" lengthAdjust="spacing" textLength="130.5" x="188" y="222.6343">arrivalTime,  citizenCardNumber, snsNumber)</text><polygon fill="#181818" points="527,246.4141,532,248.4141,527,250.4141,529,248.4141" style="stroke:#181818;stroke-width:0.5;"/><line style="stroke:#181818;stroke-width:0.5;" x1="329.5" x2="530" y1="248.4141" y2="248.4141"/><text fill="#000000" font-family="sans-serif" font-size="6.5" font-weight="bold" lengthAdjust="spacing" textLength="3.5" x="333" y="241.8979">9</text><text fill="#000000" font-family="sans-serif" font-size="6.5" lengthAdjust="spacing" textLength="142.5" x="338.5" y="237.8101">snsU = createUser (name, vaccineScheduleDate,</text><text fill="#000000" font-family="sans-serif" font-size="6.5" lengthAdjust="spacing" textLength="130.5" x="338.5" y="245.9858">arrivalTime,  citizenCardNumber, snsNumber)</text><polygon fill="#181818" points="664,269.7656,669,271.7656,664,273.7656,666,271.7656" style="stroke:#181818;stroke-width:0.5;"/><line style="stroke:#181818;stroke-width:0.5;stroke-dasharray:2.0,2.0;" x1="538" x2="667" y1="271.7656" y2="271.7656"/><text fill="#000000" font-family="sans-serif" font-size="6.5" font-weight="bold" lengthAdjust="spacing" textLength="7" x="541.5" y="265.2495">10</text><text fill="#000000" font-family="sans-serif" font-size="6.5" lengthAdjust="spacing" textLength="109" x="550.5" y="261.1616">create(name, phoneNumber, address,</text><text fill="#000000" font-family="sans-serif" font-size="6.5" lengthAdjust="spacing" textLength="100.5" x="550.5" y="269.3374">emailAddress, citizenCardNumber)</text><rect fill="#E2E2F0" height="15.8047" rx="1.25" ry="1.25" style="stroke:#181818;stroke-width:0.25;" width="54.5" x="670" y="254.4609"/><text fill="#000000" font-family="sans-serif" font-size="7" lengthAdjust="spacing" textLength="47.5" x="673.5" y="265.2275">snsU: SNSUser</text><line style="stroke:#181818;stroke-width:0.5;stroke-dasharray:2.0,2.0;" x1="540.5" x2="561.5" y1="286.9414" y2="286.9414"/><line style="stroke:#181818;stroke-width:0.5;stroke-dasharray:2.0,2.0;" x1="561.5" x2="561.5" y1="286.9414" y2="293.4414"/><line style="stroke:#181818;stroke-width:0.5;stroke-dasharray:2.0,2.0;" x1="541" x2="561.5" y1="293.4414" y2="293.4414"/><polygon fill="#181818" points="546,291.4414,541,293.4414,546,295.4414,544,293.4414" style="stroke:#181818;stroke-width:0.5;"/><text fill="#000000" font-family="sans-serif" font-size="6.5" font-weight="bold" lengthAdjust="spacing" textLength="7" x="544" y="284.5132">11</text><text fill="#000000" font-family="sans-serif" font-size="6.5" lengthAdjust="spacing" textLength="54" x="553" y="284.5132">validateUser(snsU)</text><polygon fill="#181818" points="31.5,321.6172,26.5,323.6172,31.5,325.6172,29.5,323.6172" style="stroke:#181818;stroke-width:0.5;"/><line style="stroke:#181818;stroke-width:0.5;stroke-dasharray:2.0,2.0;" x1="28.5" x2="176" y1="323.6172" y2="323.6172"/><text fill="#000000" font-family="sans-serif" font-size="6.5" font-weight="bold" lengthAdjust="spacing" textLength="7" x="34.5" y="321.189">12</text><text fill="#000000" font-family="sans-serif" font-size="6.5" lengthAdjust="spacing" textLength="126" x="43.5" y="321.189">shows the data and requests a confirmation</text><polygon fill="#181818" points="168,336.793,173,338.793,168,340.793,170,338.793" style="stroke:#181818;stroke-width:0.5;"/><line style="stroke:#181818;stroke-width:0.5;" x1="26" x2="171" y1="338.793" y2="338.793"/><text fill="#000000" font-family="sans-serif" font-size="6.5" font-weight="bold" lengthAdjust="spacing" textLength="7" x="29.5" y="336.3647">13</text><text fill="#000000" font-family="sans-serif" font-size="6.5" lengthAdjust="spacing" textLength="50" x="38.5" y="336.3647">confirms the data</text><polygon fill="#181818" points="318.5,351.9688,323.5,353.9688,318.5,355.9688,320.5,353.9688" style="stroke:#181818;stroke-width:0.5;"/><line style="stroke:#181818;stroke-width:0.5;" x1="179" x2="321.5" y1="353.9688" y2="353.9688"/><text fill="#000000" font-family="sans-serif" font-size="6.5" font-weight="bold" lengthAdjust="spacing" textLength="7" x="182.5" y="351.5405">14</text><text fill="#000000" font-family="sans-serif" font-size="6.5" lengthAdjust="spacing" textLength="30.5" x="191.5" y="351.5405">saveUser()</text><polygon fill="#181818" points="527,367.1445,532,369.1445,527,371.1445,529,369.1445" style="stroke:#181818;stroke-width:0.5;"/><line style="stroke:#181818;stroke-width:0.5;" x1="329.5" x2="530" y1="369.1445" y2="369.1445"/><text fill="#000000" font-family="sans-serif" font-size="6.5" font-weight="bold" lengthAdjust="spacing" textLength="7" x="333" y="366.7163">15</text><text fill="#000000" font-family="sans-serif" font-size="6.5" lengthAdjust="spacing" textLength="45.5" x="342" y="366.7163">saveUser(snsU)</text><line style="stroke:#181818;stroke-width:0.5;" x1="540.5" x2="561.5" y1="384.3203" y2="384.3203"/><line style="stroke:#181818;stroke-width:0.5;" x1="561.5" x2="561.5" y1="384.3203" y2="390.8203"/><line style="stroke:#181818;stroke-width:0.5;" x1="541" x2="561.5" y1="390.8203" y2="390.8203"/><polygon fill="#181818" points="546,388.8203,541,390.8203,546,392.8203,544,390.8203" style="stroke:#181818;stroke-width:0.5;"/><text fill="#000000" font-family="sans-serif" font-size="6.5" font-weight="bold" lengthAdjust="spacing" textLength="7" x="544" y="381.8921">16</text><text fill="#000000" font-family="sans-serif" font-size="6.5" lengthAdjust="spacing" textLength="54" x="553" y="381.8921">validateUser(snsU)</text><line style="stroke:#181818;stroke-width:0.5;" x1="540.5" x2="561.5" y1="420.9961" y2="420.9961"/><line style="stroke:#181818;stroke-width:0.5;" x1="561.5" x2="561.5" y1="420.9961" y2="427.4961"/><line style="stroke:#181818;stroke-width:0.5;" x1="541" x2="561.5" y1="427.4961" y2="427.4961"/><polygon fill="#181818" points="546,425.4961,541,427.4961,546,429.4961,544,427.4961" style="stroke:#181818;stroke-width:0.5;"/><text fill="#000000" font-family="sans-serif" font-size="6.5" font-weight="bold" lengthAdjust="spacing" textLength="7" x="544" y="418.5679">17</text><text fill="#000000" font-family="sans-serif" font-size="6.5" lengthAdjust="spacing" textLength="67" x="553" y="418.5679">addUserToRoom(snsU)</text><polygon fill="#181818" points="29,455.6719,24,457.6719,29,459.6719,27,457.6719" style="stroke:#181818;stroke-width:0.5;"/><line style="stroke:#181818;stroke-width:0.5;stroke-dasharray:2.0,2.0;" x1="26" x2="176" y1="457.6719" y2="457.6719"/><text fill="#000000" font-family="sans-serif" font-size="6.5" font-weight="bold" lengthAdjust="spacing" textLength="7" x="32" y="455.2437">18</text><text fill="#000000" font-family="sans-serif" font-size="6.5" lengthAdjust="spacing" textLength="76" x="41" y="455.2437">informs operation success</text><!--MD5=[60fa4e30295958f3ad321a87264cb845]
@startuml
autonumber
actor "Receptionist" as RCP


participant ":UserArrivalUI" as UI
participant ":UserArrivalController" as CTRL
participant "App" as APP
participant "app\n:App" as App
participant "comp:Company" as COMP
participant "uas\n:UserArrivalStore" as UAS
participant "snsU: SNSUser" as snsU
participant "auth\n:AuthFacade" as AF



activate RCP
RCP -> UI : starts registering the arrival of the user
activate UI
UI -> CTRL : getUsersVaccineSchedule()
activate CTRL
CTRL -> APP : app = getInstance()
activate APP
deactivate APP
CTRL -> App : comp = getCompany()
activate App
deactivate App
CTRL -> COMP : guvs = getUsersVaccineSchedule()
activate COMP
deactivate COMP
deactivate CTRL


UI - -> RCP : request data (name, vaccineScheduleDate, \narrivalTime,  citizenCardNumber, snsNumber)

deactivate UI

RCP -> UI : types requested data
activate UI

UI -> CTRL :createUser (name, vaccineScheduleDate, \narrivalTime,  citizenCardNumber, snsNumber)
activate CTRL


CTRL -> UAS : snsU = createUser (name, vaccineScheduleDate, \narrivalTime,  citizenCardNumber, snsNumber)
activate UAS

UAS - -> snsU** : create(name, phoneNumber, address, \nemailAddress, citizenCardNumber)

UAS - -> UAS : validateUser(snsU)
activate UAS
deactivate UAS


UI - -> RCP : shows the data and requests a confirmation
deactivate UI
deactivate CTRL
deactivate UAS





RCP -> UI : confirms the data
activate UI

UI -> CTRL : saveUser()
activate CTRL

CTRL -> UAS: saveUser(snsU)
activate UAS

UAS -> UAS : validateUser(snsU)
activate UAS
deactivate UAS

UAS -> UAS : addUserToRoom(snsU)
activate UAS
deactivate UAS
deactivate UAS
deactivate CTRL

UI - -> RCP : informs operation success
deactivate UI


deactivate RCP

@enduml

PlantUML version 1.2022.4(Sat Apr 09 14:29:17 BST 2022)
(GPL source distribution)
Java Runtime: OpenJDK Runtime Environment
JVM: OpenJDK 64-Bit Server VM
Default Encoding: Cp1252
Language: en
Country: GB
--></g></svg>