<?xml version="1.0" encoding="UTF-8" standalone="no"?><svg xmlns="http://www.w3.org/2000/svg" xmlns:xlink="http://www.w3.org/1999/xlink" contentStyleType="text/css" height="609px" preserveAspectRatio="none" style="width:940px;height:609px;background:#FFFFFF;" version="1.1" viewBox="0 0 940 609" width="940.2px" zoomAndPan="magnify"><defs/><g><rect fill="#FFFFFF" height="493.6406" style="stroke:#181818;stroke-width:0.6;" width="6" x="25.2" y="55.5656"/><rect fill="#FFFFFF" height="154.8656" style="stroke:#181818;stroke-width:0.6;" width="6" x="207.6" y="68.9766"/><rect fill="#FFFFFF" height="146.2875" style="stroke:#181818;stroke-width:0.6;" width="6" x="207.6" y="242.0531"/><rect fill="#FFFFFF" height="142.6547" style="stroke:#181818;stroke-width:0.6;" width="6" x="207.6" y="406.5516"/><rect fill="#FFFFFF" height="108.6328" style="stroke:#181818;stroke-width:0.6;" width="6" x="379.2" y="87.1875"/><rect fill="#FFFFFF" height="118.2656" style="stroke:#181818;stroke-width:0.6;" width="6" x="379.2" y="270.075"/><rect fill="#FFFFFF" height="124.4438" style="stroke:#181818;stroke-width:0.6;" width="6" x="379.2" y="424.7625"/><rect fill="#FFFFFF" height="18" style="stroke:#181818;stroke-width:0.6;" width="6" x="470.4" y="105.3984"/><rect fill="#FFFFFF" height="18" style="stroke:#181818;stroke-width:0.6;" width="6" x="501" y="141.6094"/><rect fill="#FFFFFF" height="18" style="stroke:#181818;stroke-width:0.6;" width="6" x="553.5" y="177.8203"/><rect fill="#FFFFFF" height="90.2437" style="stroke:#181818;stroke-width:0.6;" width="6" x="629.4" y="298.0969"/><rect fill="#FFFFFF" height="16.8" style="stroke:#181818;stroke-width:0.6;" width="6" x="632.4" y="349.1297"/><rect fill="#FFFFFF" height="106.2328" style="stroke:#181818;stroke-width:0.6;" width="6" x="629.4" y="442.9734"/><rect fill="#FFFFFF" height="16.8" style="stroke:#181818;stroke-width:0.6;" width="6" x="632.4" y="465.9844"/><rect fill="#FFFFFF" height="16.8" style="stroke:#181818;stroke-width:0.6;" width="6" x="632.4" y="509.9953"/><line style="stroke:#181818;stroke-width:0.3;stroke-dasharray:5.0,5.0;" x1="28.2" x2="28.2" y1="49.5656" y2="560.0063"/><line style="stroke:#181818;stroke-width:0.3;stroke-dasharray:5.0,5.0;" x1="210.3" x2="210.3" y1="49.5656" y2="560.0063"/><line style="stroke:#181818;stroke-width:0.3;stroke-dasharray:5.0,5.0;" x1="381.9" x2="381.9" y1="49.5656" y2="560.0063"/><line style="stroke:#181818;stroke-width:0.3;stroke-dasharray:5.0,5.0;" x1="473.1" x2="473.1" y1="49.5656" y2="560.0063"/><line style="stroke:#181818;stroke-width:0.3;stroke-dasharray:5.0,5.0;" x1="503.7" x2="503.7" y1="49.5656" y2="560.0063"/><line style="stroke:#181818;stroke-width:0.3;stroke-dasharray:5.0,5.0;" x1="556.5" x2="556.5" y1="49.5656" y2="560.0063"/><line style="stroke:#181818;stroke-width:0.3;stroke-dasharray:5.0,5.0;" x1="632.1" x2="632.1" y1="49.5656" y2="560.0063"/><line style="stroke:#181818;stroke-width:0.3;stroke-dasharray:5.0,5.0;" x1="840.6" x2="840.6" y1="322.9078" y2="560.0063"/><line style="stroke:#181818;stroke-width:0.3;stroke-dasharray:5.0,5.0;" x1="907.8" x2="907.8" y1="49.5656" y2="560.0063"/><text fill="#000000" font-family="sans-serif" font-size="8.4" lengthAdjust="spacing" textLength="46.8" x="3" y="47.7199">Receptionist</text><ellipse cx="28.2" cy="8.1" fill="#E2E2F0" rx="4.8" ry="4.8" style="stroke:#181818;stroke-width:0.3;"/><path d="M28.2,12.9 L28.2,29.1 M20.4,17.7 L36,17.7 M28.2,29.1 L20.4,38.1 M28.2,29.1 L36,38.1 " fill="none" style="stroke:#181818;stroke-width:0.3;"/><text fill="#000000" font-family="sans-serif" font-size="8.4" lengthAdjust="spacing" textLength="46.8" x="3" y="568.1262">Receptionist</text><ellipse cx="28.2" cy="575.0719" fill="#E2E2F0" rx="4.8" ry="4.8" style="stroke:#181818;stroke-width:0.3;"/><path d="M28.2,579.8719 L28.2,596.0719 M20.4,584.6719 L36,584.6719 M28.2,596.0719 L20.4,605.0719 M28.2,596.0719 L36,605.0719 " fill="none" style="stroke:#181818;stroke-width:0.3;"/><rect fill="#E2E2F0" height="18.9656" rx="1.5" ry="1.5" style="stroke:#181818;stroke-width:0.3;" width="59.4" x="180.9" y="30"/><text fill="#000000" font-family="sans-serif" font-size="8.4" lengthAdjust="spacing" textLength="51" x="185.1" y="42.9199">:UserArrivalUI</text><rect fill="#E2E2F0" height="18.9656" rx="1.5" ry="1.5" style="stroke:#181818;stroke-width:0.3;" width="59.4" x="180.9" y="559.4063"/><text fill="#000000" font-family="sans-serif" font-size="8.4" lengthAdjust="spacing" textLength="51" x="185.1" y="572.3262">:UserArrivalUI</text><rect fill="#E2E2F0" height="18.9656" rx="1.5" ry="1.5" style="stroke:#181818;stroke-width:0.3;" width="89.4" x="337.5" y="30"/><text fill="#000000" font-family="sans-serif" font-size="8.4" lengthAdjust="spacing" textLength="81" x="341.7" y="42.9199">:UserArrivalController</text><rect fill="#E2E2F0" height="18.9656" rx="1.5" ry="1.5" style="stroke:#181818;stroke-width:0.3;" width="89.4" x="337.5" y="559.4063"/><text fill="#000000" font-family="sans-serif" font-size="8.4" lengthAdjust="spacing" textLength="81" x="341.7" y="572.3262">:UserArrivalController</text><rect fill="#E2E2F0" height="18.9656" rx="1.5" ry="1.5" style="stroke:#181818;stroke-width:0.3;" width="23.4" x="461.7" y="30"/><text fill="#000000" font-family="sans-serif" font-size="8.4" lengthAdjust="spacing" textLength="15" x="465.9" y="42.9199">App</text><rect fill="#E2E2F0" height="18.9656" rx="1.5" ry="1.5" style="stroke:#181818;stroke-width:0.3;" width="23.4" x="461.7" y="559.4063"/><text fill="#000000" font-family="sans-serif" font-size="8.4" lengthAdjust="spacing" textLength="15" x="465.9" y="572.3262">App</text><rect fill="#E2E2F0" height="29.5313" rx="1.5" ry="1.5" style="stroke:#181818;stroke-width:0.3;" width="25.8" x="491.1" y="19.4344"/><text fill="#000000" font-family="sans-serif" font-size="8.4" lengthAdjust="spacing" textLength="14.4" x="496.8" y="32.3543">app</text><text fill="#000000" font-family="sans-serif" font-size="8.4" lengthAdjust="spacing" textLength="17.4" x="495.3" y="42.9199">:App</text><rect fill="#E2E2F0" height="29.5313" rx="1.5" ry="1.5" style="stroke:#181818;stroke-width:0.3;" width="25.8" x="491.1" y="559.4063"/><text fill="#000000" font-family="sans-serif" font-size="8.4" lengthAdjust="spacing" textLength="14.4" x="496.8" y="572.3262">app</text><text fill="#000000" font-family="sans-serif" font-size="8.4" lengthAdjust="spacing" textLength="17.4" x="495.3" y="582.8918">:App</text><rect fill="#E2E2F0" height="18.9656" rx="1.5" ry="1.5" style="stroke:#181818;stroke-width:0.3;" width="67.2" x="522.9" y="30"/><text fill="#000000" font-family="sans-serif" font-size="8.4" lengthAdjust="spacing" textLength="58.8" x="527.1" y="42.9199">comp:Company</text><rect fill="#E2E2F0" height="18.9656" rx="1.5" ry="1.5" style="stroke:#181818;stroke-width:0.3;" width="67.2" x="522.9" y="559.4063"/><text fill="#000000" font-family="sans-serif" font-size="8.4" lengthAdjust="spacing" textLength="58.8" x="527.1" y="572.3262">comp:Company</text><rect fill="#E2E2F0" height="29.5313" rx="1.5" ry="1.5" style="stroke:#181818;stroke-width:0.3;" width="72.6" x="596.1" y="19.4344"/><text fill="#000000" font-family="sans-serif" font-size="8.4" lengthAdjust="spacing" textLength="13.8" x="625.5" y="32.3543">uas</text><text fill="#000000" font-family="sans-serif" font-size="8.4" lengthAdjust="spacing" textLength="64.2" x="600.3" y="42.9199">:UserArrivalStore</text><rect fill="#E2E2F0" height="29.5313" rx="1.5" ry="1.5" style="stroke:#181818;stroke-width:0.3;" width="72.6" x="596.1" y="559.4063"/><text fill="#000000" font-family="sans-serif" font-size="8.4" lengthAdjust="spacing" textLength="13.8" x="625.5" y="572.3262">uas</text><text fill="#000000" font-family="sans-serif" font-size="8.4" lengthAdjust="spacing" textLength="64.2" x="600.3" y="582.8918">:UserArrivalStore</text><rect fill="#E2E2F0" height="18.9656" rx="1.5" ry="1.5" style="stroke:#181818;stroke-width:0.3;" width="65.4" x="808.2" y="559.4063"/><text fill="#000000" font-family="sans-serif" font-size="8.4" lengthAdjust="spacing" textLength="57" x="812.4" y="572.3262">snsU: SNSUser</text><rect fill="#E2E2F0" height="29.5313" rx="1.5" ry="1.5" style="stroke:#181818;stroke-width:0.3;" width="57" x="879.6" y="19.4344"/><text fill="#000000" font-family="sans-serif" font-size="8.4" lengthAdjust="spacing" textLength="16.8" x="899.7" y="32.3543">auth</text><text fill="#000000" font-family="sans-serif" font-size="8.4" lengthAdjust="spacing" textLength="48.6" x="883.8" y="42.9199">:AuthFacade</text><rect fill="#E2E2F0" height="29.5313" rx="1.5" ry="1.5" style="stroke:#181818;stroke-width:0.3;" width="57" x="879.6" y="559.4063"/><text fill="#000000" font-family="sans-serif" font-size="8.4" lengthAdjust="spacing" textLength="16.8" x="899.7" y="572.3262">auth</text><text fill="#000000" font-family="sans-serif" font-size="8.4" lengthAdjust="spacing" textLength="48.6" x="883.8" y="582.8918">:AuthFacade</text><rect fill="#FFFFFF" height="493.6406" style="stroke:#181818;stroke-width:0.6;" width="6" x="25.2" y="55.5656"/><rect fill="#FFFFFF" height="154.8656" style="stroke:#181818;stroke-width:0.6;" width="6" x="207.6" y="68.9766"/><rect fill="#FFFFFF" height="146.2875" style="stroke:#181818;stroke-width:0.6;" width="6" x="207.6" y="242.0531"/><rect fill="#FFFFFF" height="142.6547" style="stroke:#181818;stroke-width:0.6;" width="6" x="207.6" y="406.5516"/><rect fill="#FFFFFF" height="108.6328" style="stroke:#181818;stroke-width:0.6;" width="6" x="379.2" y="87.1875"/><rect fill="#FFFFFF" height="118.2656" style="stroke:#181818;stroke-width:0.6;" width="6" x="379.2" y="270.075"/><rect fill="#FFFFFF" height="124.4438" style="stroke:#181818;stroke-width:0.6;" width="6" x="379.2" y="424.7625"/><rect fill="#FFFFFF" height="18" style="stroke:#181818;stroke-width:0.6;" width="6" x="470.4" y="105.3984"/><rect fill="#FFFFFF" height="18" style="stroke:#181818;stroke-width:0.6;" width="6" x="501" y="141.6094"/><rect fill="#FFFFFF" height="18" style="stroke:#181818;stroke-width:0.6;" width="6" x="553.5" y="177.8203"/><rect fill="#FFFFFF" height="90.2437" style="stroke:#181818;stroke-width:0.6;" width="6" x="629.4" y="298.0969"/><rect fill="#FFFFFF" height="16.8" style="stroke:#181818;stroke-width:0.6;" width="6" x="632.4" y="349.1297"/><rect fill="#FFFFFF" height="106.2328" style="stroke:#181818;stroke-width:0.6;" width="6" x="629.4" y="442.9734"/><rect fill="#FFFFFF" height="16.8" style="stroke:#181818;stroke-width:0.6;" width="6" x="632.4" y="465.9844"/><rect fill="#FFFFFF" height="16.8" style="stroke:#181818;stroke-width:0.6;" width="6" x="632.4" y="509.9953"/><polygon fill="#181818" points="200.4,66.5766,206.4,68.9766,200.4,71.3766,202.8,68.9766" style="stroke:#181818;stroke-width:0.6;"/><line style="stroke:#181818;stroke-width:0.6;" x1="31.2" x2="204" y1="68.9766" y2="68.9766"/><text fill="#000000" font-family="sans-serif" font-size="7.8" font-weight="bold" lengthAdjust="spacing" textLength="4.2" x="35.4" y="66.0627">1</text><text fill="#000000" font-family="sans-serif" font-size="7.8" lengthAdjust="spacing" textLength="132.6" x="42" y="66.0627">starts registering the arrival of the user</text><polygon fill="#181818" points="372,84.7875,378,87.1875,372,89.5875,374.4,87.1875" style="stroke:#181818;stroke-width:0.6;"/><line style="stroke:#181818;stroke-width:0.6;" x1="213.6" x2="375.6" y1="87.1875" y2="87.1875"/><text fill="#000000" font-family="sans-serif" font-size="7.8" font-weight="bold" lengthAdjust="spacing" textLength="4.2" x="217.8" y="84.2736">2</text><text fill="#000000" font-family="sans-serif" font-size="7.8" lengthAdjust="spacing" textLength="96.6" x="224.4" y="84.2736">getUsersVaccineSchedule()</text><polygon fill="#181818" points="463.2,102.9984,469.2,105.3984,463.2,107.7984,465.6,105.3984" style="stroke:#181818;stroke-width:0.6;"/><line style="stroke:#181818;stroke-width:0.6;" x1="385.2" x2="466.8" y1="105.3984" y2="105.3984"/><text fill="#000000" font-family="sans-serif" font-size="7.8" font-weight="bold" lengthAdjust="spacing" textLength="4.2" x="389.4" y="102.4846">3</text><text fill="#000000" font-family="sans-serif" font-size="7.8" lengthAdjust="spacing" textLength="67.2" x="396" y="102.4846">app = getInstance()</text><polygon fill="#181818" points="493.8,139.2094,499.8,141.6094,493.8,144.0094,496.2,141.6094" style="stroke:#181818;stroke-width:0.6;"/><line style="stroke:#181818;stroke-width:0.6;" x1="385.2" x2="497.4" y1="141.6094" y2="141.6094"/><text fill="#000000" font-family="sans-serif" font-size="7.8" font-weight="bold" lengthAdjust="spacing" textLength="4.2" x="389.4" y="138.6955">4</text><text fill="#000000" font-family="sans-serif" font-size="7.8" lengthAdjust="spacing" textLength="77.4" x="396" y="138.6955">comp = getCompany()</text><polygon fill="#181818" points="546.3,175.4203,552.3,177.8203,546.3,180.2203,548.7,177.8203" style="stroke:#181818;stroke-width:0.6;"/><line style="stroke:#181818;stroke-width:0.6;" x1="385.2" x2="549.9" y1="177.8203" y2="177.8203"/><text fill="#000000" font-family="sans-serif" font-size="7.8" font-weight="bold" lengthAdjust="spacing" textLength="4.2" x="389.4" y="174.9064">5</text><text fill="#000000" font-family="sans-serif" font-size="7.8" lengthAdjust="spacing" textLength="121.8" x="396" y="174.9064">guvs = getUsersVaccineSchedule()</text><polygon fill="#181818" points="37.8,221.4422,31.8,223.8422,37.8,226.2422,35.4,223.8422" style="stroke:#181818;stroke-width:0.6;"/><line style="stroke:#181818;stroke-width:0.6;stroke-dasharray:2.0,2.0;" x1="34.2" x2="210" y1="223.8422" y2="223.8422"/><text fill="#000000" font-family="sans-serif" font-size="7.8" font-weight="bold" lengthAdjust="spacing" textLength="4.2" x="41.4" y="216.0229">6</text><text fill="#000000" font-family="sans-serif" font-size="7.8" lengthAdjust="spacing" textLength="130.2" x="48" y="211.1174">request data (name, snsUserNumber,</text><text fill="#000000" font-family="sans-serif" font-size="7.8" lengthAdjust="spacing" textLength="147.6" x="48" y="220.9283">citizenCardNumber, vaccineScheduleDate)</text><polygon fill="#181818" points="200.4,239.6531,206.4,242.0531,200.4,244.4531,202.8,242.0531" style="stroke:#181818;stroke-width:0.6;"/><line style="stroke:#181818;stroke-width:0.6;" x1="31.2" x2="204" y1="242.0531" y2="242.0531"/><text fill="#000000" font-family="sans-serif" font-size="7.8" font-weight="bold" lengthAdjust="spacing" textLength="4.2" x="35.4" y="239.1393">7</text><text fill="#000000" font-family="sans-serif" font-size="7.8" lengthAdjust="spacing" textLength="73.2" x="42" y="239.1393">types requested data</text><polygon fill="#181818" points="372,267.675,378,270.075,372,272.475,374.4,270.075" style="stroke:#181818;stroke-width:0.6;"/><line style="stroke:#181818;stroke-width:0.6;" x1="213.6" x2="375.6" y1="270.075" y2="270.075"/><text fill="#000000" font-family="sans-serif" font-size="7.8" font-weight="bold" lengthAdjust="spacing" textLength="4.2" x="217.8" y="262.2557">8</text><text fill="#000000" font-family="sans-serif" font-size="7.8" lengthAdjust="spacing" textLength="124.8" x="224.4" y="257.3502">createUser (name, snsUserNumber,</text><text fill="#000000" font-family="sans-serif" font-size="7.8" lengthAdjust="spacing" textLength="147.6" x="224.4" y="267.1611">citizenCardNumber, vaccineScheduleDate)</text><polygon fill="#181818" points="622.2,295.6969,628.2,298.0969,622.2,300.4969,624.6,298.0969" style="stroke:#181818;stroke-width:0.6;"/><line style="stroke:#181818;stroke-width:0.6;" x1="385.2" x2="625.8" y1="298.0969" y2="298.0969"/><text fill="#000000" font-family="sans-serif" font-size="7.8" font-weight="bold" lengthAdjust="spacing" textLength="4.2" x="389.4" y="290.2775">9</text><text fill="#000000" font-family="sans-serif" font-size="7.8" lengthAdjust="spacing" textLength="152.4" x="396" y="285.3721">snsU = createUser (name, snsUserNumber,</text><text fill="#000000" font-family="sans-serif" font-size="7.8" lengthAdjust="spacing" textLength="147.6" x="396" y="295.183">citizenCardNumber, vaccineScheduleDate)</text><polygon fill="#181818" points="801,323.7188,807,326.1188,801,328.5188,803.4,326.1188" style="stroke:#181818;stroke-width:0.6;"/><line style="stroke:#181818;stroke-width:0.6;stroke-dasharray:2.0,2.0;" x1="635.4" x2="804.6" y1="326.1188" y2="326.1188"/><text fill="#000000" font-family="sans-serif" font-size="7.8" font-weight="bold" lengthAdjust="spacing" textLength="8.4" x="639.6" y="318.2994">10</text><text fill="#000000" font-family="sans-serif" font-size="7.8" lengthAdjust="spacing" textLength="124.8" x="650.4" y="313.3939">createUser (name, snsUserNumber,</text><text fill="#000000" font-family="sans-serif" font-size="7.8" lengthAdjust="spacing" textLength="147.6" x="650.4" y="323.2049">citizenCardNumber, vaccineScheduleDate)</text><rect fill="#E2E2F0" height="18.9656" rx="1.5" ry="1.5" style="stroke:#181818;stroke-width:0.3;" width="65.4" x="808.2" y="305.3531"/><text fill="#000000" font-family="sans-serif" font-size="8.4" lengthAdjust="spacing" textLength="57" x="812.4" y="318.273">snsU: SNSUser</text><line style="stroke:#181818;stroke-width:0.6;" x1="638.4" x2="663.6" y1="344.3297" y2="344.3297"/><line style="stroke:#181818;stroke-width:0.6;" x1="663.6" x2="663.6" y1="344.3297" y2="352.1297"/><line style="stroke:#181818;stroke-width:0.6;" x1="639" x2="663.6" y1="352.1297" y2="352.1297"/><polygon fill="#181818" points="645,349.7297,639,352.1297,645,354.5297,642.6,352.1297" style="stroke:#181818;stroke-width:0.6;"/><text fill="#000000" font-family="sans-serif" font-size="7.8" font-weight="bold" lengthAdjust="spacing" textLength="8.4" x="642.6" y="341.4158">11</text><text fill="#000000" font-family="sans-serif" font-size="7.8" lengthAdjust="spacing" textLength="64.8" x="653.4" y="341.4158">validateUser(snsU)</text><polygon fill="#181818" points="37.8,385.9406,31.8,388.3406,37.8,390.7406,35.4,388.3406" style="stroke:#181818;stroke-width:0.6;"/><line style="stroke:#181818;stroke-width:0.6;stroke-dasharray:2.0,2.0;" x1="34.2" x2="210" y1="388.3406" y2="388.3406"/><text fill="#000000" font-family="sans-serif" font-size="7.8" font-weight="bold" lengthAdjust="spacing" textLength="8.4" x="41.4" y="385.4268">12</text><text fill="#000000" font-family="sans-serif" font-size="7.8" lengthAdjust="spacing" textLength="151.2" x="52.2" y="385.4268">shows the data and requests a confirmation</text><polygon fill="#181818" points="200.4,404.1516,206.4,406.5516,200.4,408.9516,202.8,406.5516" style="stroke:#181818;stroke-width:0.6;"/><line style="stroke:#181818;stroke-width:0.6;" x1="31.2" x2="204" y1="406.5516" y2="406.5516"/><text fill="#000000" font-family="sans-serif" font-size="7.8" font-weight="bold" lengthAdjust="spacing" textLength="8.4" x="35.4" y="403.6377">13</text><text fill="#000000" font-family="sans-serif" font-size="7.8" lengthAdjust="spacing" textLength="60" x="46.2" y="403.6377">confirms the data</text><polygon fill="#181818" points="372,422.3625,378,424.7625,372,427.1625,374.4,424.7625" style="stroke:#181818;stroke-width:0.6;"/><line style="stroke:#181818;stroke-width:0.6;" x1="213.6" x2="375.6" y1="424.7625" y2="424.7625"/><text fill="#000000" font-family="sans-serif" font-size="7.8" font-weight="bold" lengthAdjust="spacing" textLength="8.4" x="217.8" y="421.8486">14</text><text fill="#000000" font-family="sans-serif" font-size="7.8" lengthAdjust="spacing" textLength="36.6" x="228.6" y="421.8486">saveUser()</text><polygon fill="#181818" points="622.2,440.5734,628.2,442.9734,622.2,445.3734,624.6,442.9734" style="stroke:#181818;stroke-width:0.6;"/><line style="stroke:#181818;stroke-width:0.6;" x1="385.2" x2="625.8" y1="442.9734" y2="442.9734"/><text fill="#000000" font-family="sans-serif" font-size="7.8" font-weight="bold" lengthAdjust="spacing" textLength="8.4" x="389.4" y="440.0596">15</text><text fill="#000000" font-family="sans-serif" font-size="7.8" lengthAdjust="spacing" textLength="54.6" x="400.2" y="440.0596">saveUser(snsU)</text><line style="stroke:#181818;stroke-width:0.6;" x1="638.4" x2="663.6" y1="461.1844" y2="461.1844"/><line style="stroke:#181818;stroke-width:0.6;" x1="663.6" x2="663.6" y1="461.1844" y2="468.9844"/><line style="stroke:#181818;stroke-width:0.6;" x1="639" x2="663.6" y1="468.9844" y2="468.9844"/><polygon fill="#181818" points="645,466.5844,639,468.9844,645,471.3844,642.6,468.9844" style="stroke:#181818;stroke-width:0.6;"/><text fill="#000000" font-family="sans-serif" font-size="7.8" font-weight="bold" lengthAdjust="spacing" textLength="8.4" x="642.6" y="458.2705">16</text><text fill="#000000" font-family="sans-serif" font-size="7.8" lengthAdjust="spacing" textLength="64.8" x="653.4" y="458.2705">validateUser(snsU)</text><line style="stroke:#181818;stroke-width:0.6;" x1="638.4" x2="663.6" y1="505.1953" y2="505.1953"/><line style="stroke:#181818;stroke-width:0.6;" x1="663.6" x2="663.6" y1="505.1953" y2="512.9953"/><line style="stroke:#181818;stroke-width:0.6;" x1="639" x2="663.6" y1="512.9953" y2="512.9953"/><polygon fill="#181818" points="645,510.5953,639,512.9953,645,515.3953,642.6,512.9953" style="stroke:#181818;stroke-width:0.6;"/><text fill="#000000" font-family="sans-serif" font-size="7.8" font-weight="bold" lengthAdjust="spacing" textLength="8.4" x="642.6" y="502.2814">17</text><text fill="#000000" font-family="sans-serif" font-size="7.8" lengthAdjust="spacing" textLength="80.4" x="653.4" y="502.2814">addUserToRoom(snsU)</text><polygon fill="#181818" points="34.8,546.8063,28.8,549.2063,34.8,551.6062,32.4,549.2063" style="stroke:#181818;stroke-width:0.6;"/><line style="stroke:#181818;stroke-width:0.6;stroke-dasharray:2.0,2.0;" x1="31.2" x2="210" y1="549.2063" y2="549.2063"/><text fill="#000000" font-family="sans-serif" font-size="7.8" font-weight="bold" lengthAdjust="spacing" textLength="8.4" x="38.4" y="546.2924">18</text><text fill="#000000" font-family="sans-serif" font-size="7.8" lengthAdjust="spacing" textLength="91.2" x="49.2" y="546.2924">informs operation success</text><!--MD5=[541b341c83160ae4e8ee6342c7ec9d3a]
@startuml
autonumber
actor "Receptionist" as RCP


participant ":UserArrivalUI" as UI
participant ":UserArrivalController" as CTRL
participant "App" as APP
participant "app\n:App" as App
participant "comp:Company" as COMP
participant "uas\n:UserArrivalStore" as UAS
participant "snsU: SNSUser" as snsU
participant "auth\n:AuthFacade" as AF



activate RCP
RCP -> UI : starts registering the arrival of the user
activate UI
UI -> CTRL : getUsersVaccineSchedule()
activate CTRL
CTRL -> APP : app = getInstance()
activate APP
deactivate APP
CTRL -> App : comp = getCompany()
activate App
deactivate App
CTRL -> COMP : guvs = getUsersVaccineSchedule()
activate COMP
deactivate COMP
deactivate CTRL


UI - -> RCP : request data (name, snsUserNumber, \ncitizenCardNumber, vaccineScheduleDate)

deactivate UI

RCP -> UI : types requested data
activate UI

UI -> CTRL : createUser (name, snsUserNumber, \ncitizenCardNumber, vaccineScheduleDate)
activate CTRL

CTRL -> UAS : snsU = createUser (name, snsUserNumber, \ncitizenCardNumber, vaccineScheduleDate)
activate UAS

UAS - -> snsU** : createUser (name, snsUserNumber, \ncitizenCardNumber, vaccineScheduleDate)

UAS -> UAS : validateUser(snsU)
activate UAS
deactivate UAS

UI - -> RCP : shows the data and requests a confirmation
deactivate UI
deactivate CTRL
deactivate UAS

RCP -> UI : confirms the data
activate UI

UI -> CTRL : saveUser()
activate CTRL

CTRL -> UAS: saveUser(snsU)
activate UAS

UAS -> UAS : validateUser(snsU)
activate UAS
deactivate UAS

UAS -> UAS : addUserToRoom(snsU)
activate UAS
deactivate UAS


UI - -> RCP : informs operation success
deactivate UAS
deactivate CTRL
deactivate UI
deactivate RCP

@enduml

PlantUML version 1.2022.4(Sat Apr 09 14:29:17 BST 2022)
(GPL source distribution)
Java Runtime: OpenJDK Runtime Environment
JVM: OpenJDK 64-Bit Server VM
Default Encoding: Cp1252
Language: en
Country: GB
--></g></svg>