<?xml version="1.0" encoding="UTF-8" standalone="no"?><svg xmlns="http://www.w3.org/2000/svg" xmlns:xlink="http://www.w3.org/1999/xlink" contentStyleType="text/css" height="888px" preserveAspectRatio="none" style="width:1647px;height:888px;background:#FFFFFF;" version="1.1" viewBox="0 0 1647 888" width="1647px" zoomAndPan="magnify"><defs/><g><rect fill="#FFFFFF" height="181.4063" style="stroke:#181818;stroke-width:1.0;" width="10" x="324" y="114.9609"/><rect fill="#FFFFFF" height="267.3672" style="stroke:#181818;stroke-width:1.0;" width="10" x="324" y="326.7188"/><rect fill="#FFFFFF" height="164.4063" style="stroke:#181818;stroke-width:1.0;" width="10" x="324" y="624.4375"/><rect fill="#FFFFFF" height="120.7031" style="stroke:#181818;stroke-width:1.0;" width="10" x="558" y="145.3125"/><rect fill="#FFFFFF" height="237.0156" style="stroke:#181818;stroke-width:1.0;" width="10" x="558" y="357.0703"/><rect fill="#FFFFFF" height="134.0547" style="stroke:#181818;stroke-width:1.0;" width="10" x="558" y="654.7891"/><rect fill="#FFFFFF" height="30" style="stroke:#181818;stroke-width:1.0;" width="10" x="710" y="175.6641"/><rect fill="#FFFFFF" height="30" style="stroke:#181818;stroke-width:1.0;" width="10" x="761" y="236.0156"/><rect fill="#FFFFFF" height="206.6641" style="stroke:#181818;stroke-width:1.0;" width="10" x="975" y="387.4219"/><rect fill="#FFFFFF" height="28" style="stroke:#181818;stroke-width:1.0;" width="10" x="980" y="528.7344"/><rect fill="#FFFFFF" height="103.7031" style="stroke:#181818;stroke-width:1.0;" width="10" x="975" y="685.1406"/><rect fill="#FFFFFF" height="28" style="stroke:#181818;stroke-width:1.0;" width="10" x="980" y="723.4922"/><rect fill="#FFFFFF" height="30" style="stroke:#181818;stroke-width:1.0;" width="10" x="1450.5" y="460.3828"/><line style="stroke:#181818;stroke-width:0.5;stroke-dasharray:5.0,5.0;" x1="47" x2="47" y1="82.6094" y2="806.8438"/><line style="stroke:#181818;stroke-width:0.5;stroke-dasharray:5.0,5.0;" x1="328.5" x2="328.5" y1="82.6094" y2="806.8438"/><line style="stroke:#181818;stroke-width:0.5;stroke-dasharray:5.0,5.0;" x1="562.5" x2="562.5" y1="82.6094" y2="806.8438"/><line style="stroke:#181818;stroke-width:0.5;stroke-dasharray:5.0,5.0;" x1="714.5" x2="714.5" y1="82.6094" y2="806.8438"/><line style="stroke:#181818;stroke-width:0.5;stroke-dasharray:5.0,5.0;" x1="765.5" x2="765.5" y1="82.6094" y2="806.8438"/><line style="stroke:#181818;stroke-width:0.5;stroke-dasharray:5.0,5.0;" x1="853.5" x2="853.5" y1="82.6094" y2="806.8438"/><line style="stroke:#181818;stroke-width:0.5;stroke-dasharray:5.0,5.0;" x1="979.5" x2="979.5" y1="82.6094" y2="806.8438"/><line style="stroke:#181818;stroke-width:0.5;stroke-dasharray:5.0,5.0;" x1="1310" x2="1310" y1="426.7266" y2="806.8438"/><line style="stroke:#181818;stroke-width:0.5;stroke-dasharray:5.0,5.0;" x1="1455" x2="1455" y1="82.6094" y2="806.8438"/><line style="stroke:#181818;stroke-width:0.5;stroke-dasharray:5.0,5.0;" x1="1593" x2="1593" y1="82.6094" y2="806.8438"/><text fill="#000000" font-family="sans-serif" font-size="14" lengthAdjust="spacing" textLength="78" x="5" y="79.5332">Receptionist</text><ellipse cx="47" cy="13.5" fill="#E2E2F0" rx="8" ry="8" style="stroke:#181818;stroke-width:0.5;"/><path d="M47,21.5 L47,48.5 M34,29.5 L60,29.5 M47,48.5 L34,63.5 M47,48.5 L60,63.5 " fill="none" style="stroke:#181818;stroke-width:0.5;"/><text fill="#000000" font-family="sans-serif" font-size="14" lengthAdjust="spacing" textLength="78" x="5" y="820.377">Receptionist</text><ellipse cx="47" cy="831.9531" fill="#E2E2F0" rx="8" ry="8" style="stroke:#181818;stroke-width:0.5;"/><path d="M47,839.9531 L47,866.9531 M34,847.9531 L60,847.9531 M47,866.9531 L34,881.9531 M47,866.9531 L60,881.9531 " fill="none" style="stroke:#181818;stroke-width:0.5;"/><rect fill="#E2E2F0" height="31.6094" rx="2.5" ry="2.5" style="stroke:#181818;stroke-width:0.5;" width="99" x="279.5" y="50"/><text fill="#000000" font-family="sans-serif" font-size="14" lengthAdjust="spacing" textLength="85" x="286.5" y="71.5332">:UserArrivalUI</text><rect fill="#E2E2F0" height="31.6094" rx="2.5" ry="2.5" style="stroke:#181818;stroke-width:0.5;" width="99" x="279.5" y="805.8438"/><text fill="#000000" font-family="sans-serif" font-size="14" lengthAdjust="spacing" textLength="85" x="286.5" y="827.377">:UserArrivalUI</text><rect fill="#E2E2F0" height="31.6094" rx="2.5" ry="2.5" style="stroke:#181818;stroke-width:0.5;" width="149" x="488.5" y="50"/><text fill="#000000" font-family="sans-serif" font-size="14" lengthAdjust="spacing" textLength="135" x="495.5" y="71.5332">:UserArrivalController</text><rect fill="#E2E2F0" height="31.6094" rx="2.5" ry="2.5" style="stroke:#181818;stroke-width:0.5;" width="149" x="488.5" y="805.8438"/><text fill="#000000" font-family="sans-serif" font-size="14" lengthAdjust="spacing" textLength="135" x="495.5" y="827.377">:UserArrivalController</text><rect fill="#E2E2F0" height="31.6094" rx="2.5" ry="2.5" style="stroke:#181818;stroke-width:0.5;" width="39" x="695.5" y="50"/><text fill="#000000" font-family="sans-serif" font-size="14" lengthAdjust="spacing" textLength="25" x="702.5" y="71.5332">App</text><rect fill="#E2E2F0" height="31.6094" rx="2.5" ry="2.5" style="stroke:#181818;stroke-width:0.5;" width="39" x="695.5" y="805.8438"/><text fill="#000000" font-family="sans-serif" font-size="14" lengthAdjust="spacing" textLength="25" x="702.5" y="827.377">App</text><rect fill="#E2E2F0" height="49.2188" rx="2.5" ry="2.5" style="stroke:#181818;stroke-width:0.5;" width="43" x="744.5" y="32.3906"/><text fill="#000000" font-family="sans-serif" font-size="14" lengthAdjust="spacing" textLength="24" x="754" y="53.9238">app</text><text fill="#000000" font-family="sans-serif" font-size="14" lengthAdjust="spacing" textLength="29" x="751.5" y="71.5332">:App</text><rect fill="#E2E2F0" height="49.2188" rx="2.5" ry="2.5" style="stroke:#181818;stroke-width:0.5;" width="43" x="744.5" y="805.8438"/><text fill="#000000" font-family="sans-serif" font-size="14" lengthAdjust="spacing" textLength="24" x="754" y="827.377">app</text><text fill="#000000" font-family="sans-serif" font-size="14" lengthAdjust="spacing" textLength="29" x="751.5" y="844.9863">:App</text><rect fill="#E2E2F0" height="31.6094" rx="2.5" ry="2.5" style="stroke:#181818;stroke-width:0.5;" width="112" x="797.5" y="50"/><text fill="#000000" font-family="sans-serif" font-size="14" lengthAdjust="spacing" textLength="98" x="804.5" y="71.5332">comp:Company</text><rect fill="#E2E2F0" height="31.6094" rx="2.5" ry="2.5" style="stroke:#181818;stroke-width:0.5;" width="112" x="797.5" y="805.8438"/><text fill="#000000" font-family="sans-serif" font-size="14" lengthAdjust="spacing" textLength="98" x="804.5" y="827.377">comp:Company</text><rect fill="#E2E2F0" height="49.2188" rx="2.5" ry="2.5" style="stroke:#181818;stroke-width:0.5;" width="121" x="919.5" y="32.3906"/><text fill="#000000" font-family="sans-serif" font-size="14" lengthAdjust="spacing" textLength="23" x="968.5" y="53.9238">uas</text><text fill="#000000" font-family="sans-serif" font-size="14" lengthAdjust="spacing" textLength="107" x="926.5" y="71.5332">:UserArrivalStore</text><rect fill="#E2E2F0" height="49.2188" rx="2.5" ry="2.5" style="stroke:#181818;stroke-width:0.5;" width="121" x="919.5" y="805.8438"/><text fill="#000000" font-family="sans-serif" font-size="14" lengthAdjust="spacing" textLength="23" x="968.5" y="827.377">uas</text><text fill="#000000" font-family="sans-serif" font-size="14" lengthAdjust="spacing" textLength="107" x="926.5" y="844.9863">:UserArrivalStore</text><rect fill="#E2E2F0" height="31.6094" rx="2.5" ry="2.5" style="stroke:#181818;stroke-width:0.5;" width="109" x="1256" y="805.8438"/><text fill="#000000" font-family="sans-serif" font-size="14" lengthAdjust="spacing" textLength="95" x="1263" y="827.377">snsU: SNSUser</text><rect fill="#E2E2F0" height="49.2188" rx="2.5" ry="2.5" style="stroke:#181818;stroke-width:0.5;" width="161" x="1375" y="32.3906"/><text fill="#000000" font-family="sans-serif" font-size="14" lengthAdjust="spacing" textLength="21" x="1445" y="53.9238">svs</text><text fill="#000000" font-family="sans-serif" font-size="14" lengthAdjust="spacing" textLength="147" x="1382" y="71.5332">:ScheduleVaccineStore</text><rect fill="#E2E2F0" height="49.2188" rx="2.5" ry="2.5" style="stroke:#181818;stroke-width:0.5;" width="161" x="1375" y="805.8438"/><text fill="#000000" font-family="sans-serif" font-size="14" lengthAdjust="spacing" textLength="21" x="1445" y="827.377">svs</text><text fill="#000000" font-family="sans-serif" font-size="14" lengthAdjust="spacing" textLength="147" x="1382" y="844.9863">:ScheduleVaccineStore</text><rect fill="#E2E2F0" height="49.2188" rx="2.5" ry="2.5" style="stroke:#181818;stroke-width:0.5;" width="95" x="1546" y="32.3906"/><text fill="#000000" font-family="sans-serif" font-size="14" lengthAdjust="spacing" textLength="28" x="1579.5" y="53.9238">auth</text><text fill="#000000" font-family="sans-serif" font-size="14" lengthAdjust="spacing" textLength="81" x="1553" y="71.5332">:AuthFacade</text><rect fill="#E2E2F0" height="49.2188" rx="2.5" ry="2.5" style="stroke:#181818;stroke-width:0.5;" width="95" x="1546" y="805.8438"/><text fill="#000000" font-family="sans-serif" font-size="14" lengthAdjust="spacing" textLength="28" x="1579.5" y="827.377">auth</text><text fill="#000000" font-family="sans-serif" font-size="14" lengthAdjust="spacing" textLength="81" x="1553" y="844.9863">:AuthFacade</text><rect fill="#FFFFFF" height="181.4063" style="stroke:#181818;stroke-width:1.0;" width="10" x="324" y="114.9609"/><rect fill="#FFFFFF" height="267.3672" style="stroke:#181818;stroke-width:1.0;" width="10" x="324" y="326.7188"/><rect fill="#FFFFFF" height="164.4063" style="stroke:#181818;stroke-width:1.0;" width="10" x="324" y="624.4375"/><rect fill="#FFFFFF" height="120.7031" style="stroke:#181818;stroke-width:1.0;" width="10" x="558" y="145.3125"/><rect fill="#FFFFFF" height="237.0156" style="stroke:#181818;stroke-width:1.0;" width="10" x="558" y="357.0703"/><rect fill="#FFFFFF" height="134.0547" style="stroke:#181818;stroke-width:1.0;" width="10" x="558" y="654.7891"/><rect fill="#FFFFFF" height="30" style="stroke:#181818;stroke-width:1.0;" width="10" x="710" y="175.6641"/><rect fill="#FFFFFF" height="30" style="stroke:#181818;stroke-width:1.0;" width="10" x="761" y="236.0156"/><rect fill="#FFFFFF" height="206.6641" style="stroke:#181818;stroke-width:1.0;" width="10" x="975" y="387.4219"/><rect fill="#FFFFFF" height="28" style="stroke:#181818;stroke-width:1.0;" width="10" x="980" y="528.7344"/><rect fill="#FFFFFF" height="103.7031" style="stroke:#181818;stroke-width:1.0;" width="10" x="975" y="685.1406"/><rect fill="#FFFFFF" height="28" style="stroke:#181818;stroke-width:1.0;" width="10" x="980" y="723.4922"/><rect fill="#FFFFFF" height="30" style="stroke:#181818;stroke-width:1.0;" width="10" x="1450.5" y="460.3828"/><polygon fill="#181818" points="312,110.9609,322,114.9609,312,118.9609,316,114.9609" style="stroke:#181818;stroke-width:1.0;"/><line style="stroke:#181818;stroke-width:1.0;" x1="47" x2="318" y1="114.9609" y2="114.9609"/><text fill="#000000" font-family="sans-serif" font-size="13" font-weight="bold" lengthAdjust="spacing" textLength="7" x="54" y="110.1045">1</text><text fill="#000000" font-family="sans-serif" font-size="13" lengthAdjust="spacing" textLength="221" x="65" y="110.1045">starts registering the arrival of the user</text><polygon fill="#181818" points="546,141.3125,556,145.3125,546,149.3125,550,145.3125" style="stroke:#181818;stroke-width:1.0;"/><line style="stroke:#181818;stroke-width:1.0;" x1="334" x2="552" y1="145.3125" y2="145.3125"/><text fill="#000000" font-family="sans-serif" font-size="13" font-weight="bold" lengthAdjust="spacing" textLength="7" x="341" y="140.4561">2</text><text fill="#000000" font-family="sans-serif" font-size="13" lengthAdjust="spacing" textLength="194" x="352" y="140.4561">controller = UserArrivalController()</text><polygon fill="#181818" points="698,171.6641,708,175.6641,698,179.6641,702,175.6641" style="stroke:#181818;stroke-width:1.0;"/><line style="stroke:#181818;stroke-width:1.0;" x1="568" x2="704" y1="175.6641" y2="175.6641"/><text fill="#000000" font-family="sans-serif" font-size="13" font-weight="bold" lengthAdjust="spacing" textLength="7" x="575" y="170.8076">3</text><text fill="#000000" font-family="sans-serif" font-size="13" lengthAdjust="spacing" textLength="112" x="586" y="170.8076">app = getInstance()</text><polygon fill="#181818" points="749,232.0156,759,236.0156,749,240.0156,753,236.0156" style="stroke:#181818;stroke-width:1.0;"/><line style="stroke:#181818;stroke-width:1.0;" x1="568" x2="755" y1="236.0156" y2="236.0156"/><text fill="#000000" font-family="sans-serif" font-size="13" font-weight="bold" lengthAdjust="spacing" textLength="7" x="575" y="231.1592">4</text><text fill="#000000" font-family="sans-serif" font-size="13" lengthAdjust="spacing" textLength="150" x="586" y="231.1592">company = getCompany()</text><polygon fill="#181818" points="58,292.3672,48,296.3672,58,300.3672,54,296.3672" style="stroke:#181818;stroke-width:1.0;"/><line style="stroke:#181818;stroke-width:1.0;stroke-dasharray:2.0,2.0;" x1="52" x2="328" y1="296.3672" y2="296.3672"/><text fill="#000000" font-family="sans-serif" font-size="13" font-weight="bold" lengthAdjust="spacing" textLength="7" x="64" y="291.5107">5</text><text fill="#000000" font-family="sans-serif" font-size="13" lengthAdjust="spacing" textLength="177" x="75" y="291.5107">request data (snsUserNumber)</text><polygon fill="#181818" points="312,322.7188,322,326.7188,312,330.7188,316,326.7188" style="stroke:#181818;stroke-width:1.0;"/><line style="stroke:#181818;stroke-width:1.0;" x1="47" x2="318" y1="326.7188" y2="326.7188"/><text fill="#000000" font-family="sans-serif" font-size="13" font-weight="bold" lengthAdjust="spacing" textLength="7" x="54" y="321.8623">6</text><text fill="#000000" font-family="sans-serif" font-size="13" lengthAdjust="spacing" textLength="122" x="65" y="321.8623">types requested data</text><polygon fill="#181818" points="546,353.0703,556,357.0703,546,361.0703,550,357.0703" style="stroke:#181818;stroke-width:1.0;"/><line style="stroke:#181818;stroke-width:1.0;" x1="334" x2="552" y1="357.0703" y2="357.0703"/><text fill="#000000" font-family="sans-serif" font-size="13" font-weight="bold" lengthAdjust="spacing" textLength="7" x="341" y="352.2139">7</text><text fill="#000000" font-family="sans-serif" font-size="13" lengthAdjust="spacing" textLength="190" x="352" y="352.2139">newUserArrival (snsUserNumber)</text><polygon fill="#181818" points="963,383.4219,973,387.4219,963,391.4219,967,387.4219" style="stroke:#181818;stroke-width:1.0;"/><line style="stroke:#181818;stroke-width:1.0;" x1="568" x2="969" y1="387.4219" y2="387.4219"/><text fill="#000000" font-family="sans-serif" font-size="13" font-weight="bold" lengthAdjust="spacing" textLength="7" x="575" y="382.5654">8</text><text fill="#000000" font-family="sans-serif" font-size="13" lengthAdjust="spacing" textLength="236" x="586" y="382.5654">snsU = newUserArrival (snsUserNumber)</text><polygon fill="#181818" points="1244,413.7734,1254,417.7734,1244,421.7734,1248,417.7734" style="stroke:#181818;stroke-width:1.0;"/><line style="stroke:#181818;stroke-width:1.0;stroke-dasharray:2.0,2.0;" x1="985" x2="1250" y1="417.7734" y2="417.7734"/><text fill="#000000" font-family="sans-serif" font-size="13" font-weight="bold" lengthAdjust="spacing" textLength="7" x="992" y="412.917">9</text><text fill="#000000" font-family="sans-serif" font-size="13" lengthAdjust="spacing" textLength="236" x="1003" y="412.917">snsU = newUserArrival (snsUserNumber)</text><rect fill="#E2E2F0" height="31.6094" rx="2.5" ry="2.5" style="stroke:#181818;stroke-width:0.5;" width="109" x="1256" y="395.4219"/><text fill="#000000" font-family="sans-serif" font-size="14" lengthAdjust="spacing" textLength="95" x="1263" y="416.9551">snsU: SNSUser</text><polygon fill="#181818" points="1438.5,456.3828,1448.5,460.3828,1438.5,464.3828,1442.5,460.3828" style="stroke:#181818;stroke-width:1.0;"/><line style="stroke:#181818;stroke-width:1.0;" x1="985" x2="1444.5" y1="460.3828" y2="460.3828"/><text fill="#000000" font-family="sans-serif" font-size="13" font-weight="bold" lengthAdjust="spacing" textLength="14" x="992" y="455.5264">10</text><text fill="#000000" font-family="sans-serif" font-size="13" lengthAdjust="spacing" textLength="282" x="1010" y="455.5264">listScheduleVaccine = getListScheduleVaccine()</text><line style="stroke:#181818;stroke-width:1.0;" x1="990" x2="1032" y1="520.7344" y2="520.7344"/><line style="stroke:#181818;stroke-width:1.0;" x1="1032" x2="1032" y1="520.7344" y2="533.7344"/><line style="stroke:#181818;stroke-width:1.0;" x1="991" x2="1032" y1="533.7344" y2="533.7344"/><polygon fill="#181818" points="1001,529.7344,991,533.7344,1001,537.7344,997,533.7344" style="stroke:#181818;stroke-width:1.0;"/><text fill="#000000" font-family="sans-serif" font-size="13" font-weight="bold" lengthAdjust="spacing" textLength="14" x="997" y="515.8779">11</text><text fill="#000000" font-family="sans-serif" font-size="13" lengthAdjust="spacing" textLength="162" x="1015" y="515.8779">validateUserSchedule(snsU)</text><polygon fill="#181818" points="58,590.0859,48,594.0859,58,598.0859,54,594.0859" style="stroke:#181818;stroke-width:1.0;"/><line style="stroke:#181818;stroke-width:1.0;stroke-dasharray:2.0,2.0;" x1="52" x2="328" y1="594.0859" y2="594.0859"/><text fill="#000000" font-family="sans-serif" font-size="13" font-weight="bold" lengthAdjust="spacing" textLength="14" x="64" y="589.2295">12</text><text fill="#000000" font-family="sans-serif" font-size="13" lengthAdjust="spacing" textLength="235" x="82" y="589.2295">ask to send the User to the waiting room</text><polygon fill="#181818" points="312,620.4375,322,624.4375,312,628.4375,316,624.4375" style="stroke:#181818;stroke-width:1.0;"/><line style="stroke:#181818;stroke-width:1.0;" x1="47" x2="318" y1="624.4375" y2="624.4375"/><text fill="#000000" font-family="sans-serif" font-size="13" font-weight="bold" lengthAdjust="spacing" textLength="14" x="54" y="619.5811">13</text><text fill="#000000" font-family="sans-serif" font-size="13" lengthAdjust="spacing" textLength="100" x="72" y="619.5811">confirms the data</text><polygon fill="#181818" points="546,650.7891,556,654.7891,546,658.7891,550,654.7891" style="stroke:#181818;stroke-width:1.0;"/><line style="stroke:#181818;stroke-width:1.0;" x1="334" x2="552" y1="654.7891" y2="654.7891"/><text fill="#000000" font-family="sans-serif" font-size="13" font-weight="bold" lengthAdjust="spacing" textLength="14" x="341" y="649.9326">14</text><text fill="#000000" font-family="sans-serif" font-size="13" lengthAdjust="spacing" textLength="113" x="359" y="649.9326">registerUserArrival()</text><polygon fill="#181818" points="963,681.1406,973,685.1406,963,689.1406,967,685.1406" style="stroke:#181818;stroke-width:1.0;"/><line style="stroke:#181818;stroke-width:1.0;" x1="568" x2="969" y1="685.1406" y2="685.1406"/><text fill="#000000" font-family="sans-serif" font-size="13" font-weight="bold" lengthAdjust="spacing" textLength="14" x="575" y="680.2842">15</text><text fill="#000000" font-family="sans-serif" font-size="13" lengthAdjust="spacing" textLength="143" x="593" y="680.2842">registerUserArrival(snsU)</text><line style="stroke:#181818;stroke-width:1.0;" x1="990" x2="1032" y1="715.4922" y2="715.4922"/><line style="stroke:#181818;stroke-width:1.0;" x1="1032" x2="1032" y1="715.4922" y2="728.4922"/><line style="stroke:#181818;stroke-width:1.0;" x1="991" x2="1032" y1="728.4922" y2="728.4922"/><polygon fill="#181818" points="1001,724.4922,991,728.4922,1001,732.4922,997,728.4922" style="stroke:#181818;stroke-width:1.0;"/><text fill="#000000" font-family="sans-serif" font-size="13" font-weight="bold" lengthAdjust="spacing" textLength="14" x="997" y="710.6357">16</text><text fill="#000000" font-family="sans-serif" font-size="13" lengthAdjust="spacing" textLength="178" x="1015" y="710.6357">addUserToWaitingRoom(snsU)</text><polygon fill="#181818" points="58,784.8438,48,788.8438,58,792.8438,54,788.8438" style="stroke:#181818;stroke-width:1.0;"/><line style="stroke:#181818;stroke-width:1.0;stroke-dasharray:2.0,2.0;" x1="52" x2="328" y1="788.8438" y2="788.8438"/><text fill="#000000" font-family="sans-serif" font-size="13" font-weight="bold" lengthAdjust="spacing" textLength="14" x="64" y="783.9873">17</text><text fill="#000000" font-family="sans-serif" font-size="13" lengthAdjust="spacing" textLength="152" x="82" y="783.9873">informs operation success</text><!--MD5=[5524cec21be2072716fd5b92cc59bcec]
@startuml
autonumber
actor "Receptionist" as RCP


participant ":UserArrivalUI" as UI
participant ":UserArrivalController" as CTRL
participant "App" as APP
participant "app\n:App" as App
participant "comp:Company" as COMP
participant "uas\n:UserArrivalStore" as UAS
participant "snsU: SNSUser" as snsU
participant "svs\n:ScheduleVaccineStore" as SVS
participant "auth\n:AuthFacade" as AF




RCP -> UI : starts registering the arrival of the user
activate UI
UI -> CTRL : controller = UserArrivalController()
activate CTRL
CTRL -> APP : app = getInstance()
activate APP
deactivate APP
CTRL -> App : company = getCompany()
activate App
deactivate App

deactivate CTRL


UI - -> RCP : request data (snsUserNumber)

deactivate UI

RCP -> UI : types requested data
activate UI

UI -> CTRL : newUserArrival (snsUserNumber)
activate CTRL

CTRL -> UAS : snsU = newUserArrival (snsUserNumber)
activate UAS

UAS - -> snsU** : snsU = newUserArrival (snsUserNumber)

UAS -> SVS: listScheduleVaccine = getListScheduleVaccine()
activate SVS
deactivate SVS


UAS -> UAS : validateUserSchedule(snsU)
activate UAS
deactivate UAS

UI - -> RCP : ask to send the User to the waiting room
deactivate UI
deactivate CTRL
deactivate UAS

RCP -> UI : confirms the data
activate UI

UI -> CTRL : registerUserArrival()
activate CTRL

CTRL -> UAS: registerUserArrival(snsU)
activate UAS

UAS -> UAS : addUserToWaitingRoom(snsU)
activate UAS
deactivate UAS


UI - -> RCP : informs operation success
deactivate UAS
deactivate CTRL
deactivate UI
deactivate RCP

@enduml

PlantUML version 1.2022.5(Sat Apr 30 11:55:52 BST 2022)
(GPL source distribution)
Java Runtime: OpenJDK Runtime Environment
JVM: OpenJDK 64-Bit Server VM
Default Encoding: Cp1252
Language: en
Country: GB
--></g></svg>