<?xml version="1.0" encoding="UTF-8" standalone="no"?><svg xmlns="http://www.w3.org/2000/svg" xmlns:xlink="http://www.w3.org/1999/xlink" contentStyleType="text/css" height="508.2px" preserveAspectRatio="none" style="width:248px;height:508px;background:#FFFFFF;" version="1.1" viewBox="0 0 248 508" width="248.5px" zoomAndPan="magnify"><defs/><g><!--MD5=[0b4e4b4980470ea387cc45de9bd14b5b]
class Application--><g id="elem_Application"><rect codeLine="3" fill="#F1F1F1" height="58.2531" id="Application" rx="1.75" ry="1.75" style="stroke:#181818;stroke-width:0.3499999999999999;" width="98" x="4.9" y="206.5"/><ellipse cx="27.685" cy="217.7" fill="#ADD1B2" rx="7.7" ry="7.7" style="stroke:#181818;stroke-width:0.6999999999999998;"/><path d="M29.085,215.25 Q29.2272,214.9 29.3912,214.725 Q29.5553,214.55 29.7412,214.55 Q30.0694,214.55 30.2772,214.7469 Q30.485,214.9437 30.485,215.4031 L30.485,216.4969 Q30.485,216.9562 30.2881,217.1531 Q30.0912,217.35 29.785,217.35 Q29.5116,217.35 29.3366,217.2297 Q29.1616,217.1094 29.085,216.7922 Q29.0522,216.5734 28.9319,216.4531 Q28.7131,216.2234 28.3194,216.0922 Q27.9256,215.95 27.5319,215.95 Q27.0397,215.95 26.6241,216.1469 Q26.2194,216.3437 25.9022,216.7812 Q25.585,217.2187 25.585,217.8203 L25.585,218.4656 Q25.585,219.1875 26.1756,219.6687 Q26.7662,220.15 27.8162,220.15 Q28.4397,220.15 28.8772,220.0078 Q29.1287,219.9312 29.4131,219.6797 Q29.5991,219.5375 29.6975,219.4937 Q29.7959,219.45 29.9162,219.45 Q30.1459,219.45 30.31,219.6359 Q30.485,219.8109 30.485,220.0625 Q30.485,220.3031 30.2444,220.5875 Q29.8944,221.0031 29.3366,221.2328 Q28.6037,221.55 27.7069,221.55 Q26.6569,221.55 25.8147,221.1344 Q25.1366,220.8062 24.6553,220.0953 Q24.185,219.3844 24.185,218.5422 L24.185,217.7766 Q24.185,216.9016 24.6006,216.1359 Q25.0272,215.3703 25.76,214.9656 Q26.5037,214.55 27.335,214.55 Q27.8381,214.55 28.2756,214.725 Q28.7131,214.9 29.085,215.25 Z " fill="#000000"/><text fill="#000000" font-family="sans-serif" font-size="9.8" lengthAdjust="spacing" textLength="48.3" x="40.215" y="221.71">Application</text><line style="stroke:#181818;stroke-width:0.3499999999999999;" x1="5.6" x2="102.2" y1="228.9" y2="228.9"/><line style="stroke:#181818;stroke-width:0.3499999999999999;" x1="5.6" x2="102.2" y1="234.5" y2="234.5"/><text fill="#000000" font-family="sans-serif" font-size="9.8" lengthAdjust="spacing" textLength="89.6" x="9.1" y="247.4732">+static getInstance()</text><text fill="#000000" font-family="sans-serif" font-size="9.8" lengthAdjust="spacing" textLength="68.6" x="9.1" y="259.7998">+getCompany()</text></g><!--MD5=[d2cde82c346a91ca14143d0569ca0dea]
class UserArrivalStore--><g id="elem_UserArrivalStore"><rect codeLine="9" fill="#F1F1F1" height="95.2328" id="UserArrivalStore" rx="1.75" ry="1.75" style="stroke:#181818;stroke-width:0.3499999999999999;" width="196.7" x="38.85" y="408.1"/><ellipse cx="98.175" cy="419.3" fill="#ADD1B2" rx="7.7" ry="7.7" style="stroke:#181818;stroke-width:0.6999999999999998;"/><path d="M99.575,416.85 Q99.7172,416.5 99.8812,416.325 Q100.0453,416.15 100.2312,416.15 Q100.5594,416.15 100.7672,416.3469 Q100.975,416.5437 100.975,417.0031 L100.975,418.0969 Q100.975,418.5562 100.7781,418.7531 Q100.5812,418.95 100.275,418.95 Q100.0016,418.95 99.8266,418.8297 Q99.6516,418.7094 99.575,418.3922 Q99.5422,418.1734 99.4219,418.0531 Q99.2031,417.8234 98.8094,417.6922 Q98.4156,417.55 98.0219,417.55 Q97.5297,417.55 97.1141,417.7469 Q96.7094,417.9437 96.3922,418.3812 Q96.075,418.8187 96.075,419.4203 L96.075,420.0656 Q96.075,420.7875 96.6656,421.2687 Q97.2562,421.75 98.3062,421.75 Q98.9297,421.75 99.3672,421.6078 Q99.6187,421.5312 99.9031,421.2797 Q100.0891,421.1375 100.1875,421.0937 Q100.2859,421.05 100.4062,421.05 Q100.6359,421.05 100.8,421.2359 Q100.975,421.4109 100.975,421.6625 Q100.975,421.9031 100.7344,422.1875 Q100.3844,422.6031 99.8266,422.8328 Q99.0937,423.15 98.1969,423.15 Q97.1469,423.15 96.3047,422.7344 Q95.6266,422.4062 95.1453,421.6953 Q94.675,420.9844 94.675,420.1422 L94.675,419.3766 Q94.675,418.5016 95.0906,417.7359 Q95.5172,416.9703 96.25,416.5656 Q96.9937,416.15 97.825,416.15 Q98.3281,416.15 98.7656,416.325 Q99.2031,416.5 99.575,416.85 Z " fill="#000000"/><text fill="#000000" font-family="sans-serif" font-size="9.8" lengthAdjust="spacing" textLength="72.1" x="112.525" y="423.31">UserArrivalStore</text><line style="stroke:#181818;stroke-width:0.3499999999999999;" x1="39.55" x2="234.85" y1="430.5" y2="430.5"/><line style="stroke:#181818;stroke-width:0.3499999999999999;" x1="39.55" x2="234.85" y1="436.1" y2="436.1"/><text fill="#000000" font-family="sans-serif" font-size="9.8" lengthAdjust="spacing" textLength="163.1" x="43.05" y="449.0732">+createUser (name, snsUserNumber,</text><text fill="#000000" font-family="sans-serif" font-size="9.8" lengthAdjust="spacing" textLength="188.3" x="43.05" y="461.3998">citizenCardNumber, vaccineScheduleDate)</text><text fill="#000000" font-family="sans-serif" font-size="9.8" lengthAdjust="spacing" textLength="88.9" x="43.05" y="473.7264">+validateUser(snsU)</text><text fill="#000000" font-family="sans-serif" font-size="9.8" lengthAdjust="spacing" textLength="75.6" x="43.05" y="486.0529">+saveUser(snsU)</text><text fill="#000000" font-family="sans-serif" font-size="9.8" lengthAdjust="spacing" textLength="109.2" x="43.05" y="498.3795">+addUserToRoom(snsU)</text></g><!--MD5=[02e4b9b7573f1156f41e60aa5b4e25a4]
class Company--><g id="elem_Company"><rect codeLine="17" fill="#F1F1F1" height="45.9266" id="Company" rx="1.75" ry="1.75" style="stroke:#181818;stroke-width:0.3499999999999999;" width="136.5" x="15.75" y="307.3"/><ellipse cx="60.025" cy="318.5" fill="#ADD1B2" rx="7.7" ry="7.7" style="stroke:#181818;stroke-width:0.6999999999999998;"/><path d="M61.425,316.05 Q61.5672,315.7 61.7312,315.525 Q61.8953,315.35 62.0812,315.35 Q62.4094,315.35 62.6172,315.5469 Q62.825,315.7437 62.825,316.2031 L62.825,317.2969 Q62.825,317.7562 62.6281,317.9531 Q62.4312,318.15 62.125,318.15 Q61.8516,318.15 61.6766,318.0297 Q61.5016,317.9094 61.425,317.5922 Q61.3922,317.3734 61.2719,317.2531 Q61.0531,317.0234 60.6594,316.8922 Q60.2656,316.75 59.8719,316.75 Q59.3797,316.75 58.9641,316.9469 Q58.5594,317.1437 58.2422,317.5812 Q57.925,318.0187 57.925,318.6203 L57.925,319.2656 Q57.925,319.9875 58.5156,320.4687 Q59.1062,320.95 60.1562,320.95 Q60.7797,320.95 61.2172,320.8078 Q61.4687,320.7312 61.7531,320.4797 Q61.9391,320.3375 62.0375,320.2937 Q62.1359,320.25 62.2562,320.25 Q62.4859,320.25 62.65,320.4359 Q62.825,320.6109 62.825,320.8625 Q62.825,321.1031 62.5844,321.3875 Q62.2344,321.8031 61.6766,322.0328 Q60.9437,322.35 60.0469,322.35 Q58.9969,322.35 58.1547,321.9344 Q57.4766,321.6062 56.9953,320.8953 Q56.525,320.1844 56.525,319.3422 L56.525,318.5766 Q56.525,317.7016 56.9406,316.9359 Q57.3672,316.1703 58.1,315.7656 Q58.8437,315.35 59.675,315.35 Q60.1781,315.35 60.6156,315.525 Q61.0531,315.7 61.425,316.05 Z " fill="#000000"/><text fill="#000000" font-family="sans-serif" font-size="9.8" lengthAdjust="spacing" textLength="42" x="74.375" y="322.51">Company</text><line style="stroke:#181818;stroke-width:0.3499999999999999;" x1="16.45" x2="151.55" y1="329.7" y2="329.7"/><line style="stroke:#181818;stroke-width:0.3499999999999999;" x1="16.45" x2="151.55" y1="335.3" y2="335.3"/><text fill="#000000" font-family="sans-serif" font-size="9.8" lengthAdjust="spacing" textLength="128.1" x="19.95" y="348.2732">+getUsersVaccineSchedule()</text></g><!--MD5=[0ac2cb8497f2ad6ecb53d599020522d6]
class UserArrivalController--><g id="elem_UserArrivalController"><rect codeLine="24" fill="#F1F1F1" height="82.9062" id="UserArrivalController" rx="1.75" ry="1.75" style="stroke:#181818;stroke-width:0.3499999999999999;" width="207.9" x="36.05" y="81.2"/><ellipse cx="91.175" cy="92.4" fill="#ADD1B2" rx="7.7" ry="7.7" style="stroke:#181818;stroke-width:0.6999999999999998;"/><path d="M92.575,89.95 Q92.7172,89.6 92.8812,89.425 Q93.0453,89.25 93.2312,89.25 Q93.5594,89.25 93.7672,89.4469 Q93.975,89.6437 93.975,90.1031 L93.975,91.1969 Q93.975,91.6562 93.7781,91.8531 Q93.5812,92.05 93.275,92.05 Q93.0016,92.05 92.8266,91.9297 Q92.6516,91.8094 92.575,91.4922 Q92.5422,91.2734 92.4219,91.1531 Q92.2031,90.9234 91.8094,90.7922 Q91.4156,90.65 91.0219,90.65 Q90.5297,90.65 90.1141,90.8469 Q89.7094,91.0437 89.3922,91.4812 Q89.075,91.9187 89.075,92.5203 L89.075,93.1656 Q89.075,93.8875 89.6656,94.3687 Q90.2562,94.85 91.3062,94.85 Q91.9297,94.85 92.3672,94.7078 Q92.6187,94.6312 92.9031,94.3797 Q93.0891,94.2375 93.1875,94.1937 Q93.2859,94.15 93.4062,94.15 Q93.6359,94.15 93.8,94.3359 Q93.975,94.5109 93.975,94.7625 Q93.975,95.0031 93.7344,95.2875 Q93.3844,95.7031 92.8266,95.9328 Q92.0937,96.25 91.1969,96.25 Q90.1469,96.25 89.3047,95.8344 Q88.6266,95.5062 88.1453,94.7953 Q87.675,94.0844 87.675,93.2422 L87.675,92.4766 Q87.675,91.6016 88.0906,90.8359 Q88.5172,90.0703 89.25,89.6656 Q89.9937,89.25 90.825,89.25 Q91.3281,89.25 91.7656,89.425 Q92.2031,89.6 92.575,89.95 Z " fill="#000000"/><text fill="#000000" font-family="sans-serif" font-size="9.8" lengthAdjust="spacing" textLength="91.7" x="105.525" y="96.41">UserArrivalController</text><line style="stroke:#181818;stroke-width:0.3499999999999999;" x1="36.75" x2="243.25" y1="103.6" y2="103.6"/><line style="stroke:#181818;stroke-width:0.3499999999999999;" x1="36.75" x2="243.25" y1="109.2" y2="109.2"/><text fill="#000000" font-family="sans-serif" font-size="9.8" lengthAdjust="spacing" textLength="128.1" x="40.25" y="122.1732">+getUsersVaccineSchedule()</text><text fill="#000000" font-family="sans-serif" font-size="9.8" lengthAdjust="spacing" textLength="189" x="40.25" y="134.4998">+createUser (name, vaccineScheduleDate,</text><text fill="#000000" font-family="sans-serif" font-size="9.8" lengthAdjust="spacing" textLength="199.5" x="40.25" y="146.8264">arrivalTime,  citizenCardNumber, snsNumber)</text><text fill="#000000" font-family="sans-serif" font-size="9.8" lengthAdjust="spacing" textLength="53.9" x="40.25" y="159.1529">+saveUser()</text></g><!--MD5=[02dc92f8846c746bf412791e8edc0264]
class UserArrivalUI--><g id="elem_UserArrivalUI"><rect codeLine="30" fill="#F1F1F1" height="33.6" id="UserArrivalUI" rx="1.75" ry="1.75" style="stroke:#181818;stroke-width:0.3499999999999999;" width="79.1" x="100.45" y="4.9"/><ellipse cx="110.95" cy="16.1" fill="#ADD1B2" rx="7.7" ry="7.7" style="stroke:#181818;stroke-width:0.6999999999999998;"/><path d="M112.35,13.65 Q112.4922,13.3 112.6562,13.125 Q112.8203,12.95 113.0062,12.95 Q113.3344,12.95 113.5422,13.1469 Q113.75,13.3437 113.75,13.8031 L113.75,14.8969 Q113.75,15.3562 113.5531,15.5531 Q113.3562,15.75 113.05,15.75 Q112.7766,15.75 112.6016,15.6297 Q112.4266,15.5094 112.35,15.1922 Q112.3172,14.9734 112.1969,14.8531 Q111.9781,14.6234 111.5844,14.4922 Q111.1906,14.35 110.7969,14.35 Q110.3047,14.35 109.8891,14.5469 Q109.4844,14.7437 109.1672,15.1812 Q108.85,15.6187 108.85,16.2203 L108.85,16.8656 Q108.85,17.5875 109.4406,18.0687 Q110.0312,18.55 111.0812,18.55 Q111.7047,18.55 112.1422,18.4078 Q112.3937,18.3312 112.6781,18.0797 Q112.8641,17.9375 112.9625,17.8937 Q113.0609,17.85 113.1812,17.85 Q113.4109,17.85 113.575,18.0359 Q113.75,18.2109 113.75,18.4625 Q113.75,18.7031 113.5094,18.9875 Q113.1594,19.4031 112.6016,19.6328 Q111.8687,19.95 110.9719,19.95 Q109.9219,19.95 109.0797,19.5344 Q108.4016,19.2062 107.9203,18.4953 Q107.45,17.7844 107.45,16.9422 L107.45,16.1766 Q107.45,15.3016 107.8656,14.5359 Q108.2922,13.7703 109.025,13.3656 Q109.7687,12.95 110.6,12.95 Q111.1031,12.95 111.5406,13.125 Q111.9781,13.3 112.35,13.65 Z " fill="#000000"/><text fill="#000000" font-family="sans-serif" font-size="9.8" lengthAdjust="spacing" textLength="56.7" x="120.75" y="20.11">UserArrivalUI</text><line style="stroke:#181818;stroke-width:0.3499999999999999;" x1="101.15" x2="178.85" y1="27.3" y2="27.3"/><line style="stroke:#181818;stroke-width:0.3499999999999999;" x1="101.15" x2="178.85" y1="32.9" y2="32.9"/></g><!--MD5=[57687aa6913a41fa7e7c2d5d6f687e1e]
link UserArrivalUI to UserArrivalController--><g id="link_UserArrivalUI_UserArrivalController"><path codeLine="35" d="M140,38.591 C140,49.245 140,63.735 140,77.644 " fill="none" id="UserArrivalUI-to-UserArrivalController" style="stroke:#181818;stroke-width:0.6999999999999998;stroke-dasharray:7.0,7.0;"/><polygon fill="#181818" points="140,81.158,142.8,74.858,140,77.658,137.2,74.858,140,81.158" style="stroke:#181818;stroke-width:0.6999999999999998;"/></g><!--MD5=[18a19f1b604523a35f3c091e6f16dba8]
link UserArrivalController to Company--><g id="link_UserArrivalController_Company"><path codeLine="36" d="M135.667,163.814 C131.915,192.451 125.384,231.462 114.8,264.6 C110.523,277.991 104.062,292.173 98.161,303.877 " fill="none" id="UserArrivalController-to-Company" style="stroke:#181818;stroke-width:0.6999999999999998;stroke-dasharray:7.0,7.0;"/><polygon fill="#181818" points="96.516,307.104,101.8713,302.7622,98.1052,303.9856,96.8818,300.2195,96.516,307.104" style="stroke:#181818;stroke-width:0.6999999999999998;"/></g><!--MD5=[bde38ea8192347716a1485a9b50780aa]
link UserArrivalController to Application--><g id="link_UserArrivalController_Application"><path codeLine="37" d="M108.675,163.821 C98.658,176.813 87.717,190.995 78.274,203.245 " fill="none" id="UserArrivalController-to-Application" style="stroke:#181818;stroke-width:0.6999999999999998;stroke-dasharray:7.0,7.0;"/><polygon fill="#181818" points="75.908,206.311,81.9622,203.0131,78.0367,203.5327,77.517,199.6072,75.908,206.311" style="stroke:#181818;stroke-width:0.6999999999999998;"/></g><!--MD5=[aa87414629f40b8871c38fc4fdff0b84]
link Application to Company--><g id="link_Application_Company"><path codeLine="38" d="M63.098,264.796 C67.109,277.256 71.778,291.767 75.691,303.898 " fill="none" id="Application-to-Company" style="stroke:#181818;stroke-width:0.6999999999999998;stroke-dasharray:7.0,7.0;"/><polygon fill="#181818" points="76.769,307.251,77.5075,300.3965,75.6983,303.9188,72.176,302.1096,76.769,307.251" style="stroke:#181818;stroke-width:0.6999999999999998;"/></g><!--MD5=[9f9ec9868cc6fe31251fe04901880c3e]
link UserArrivalController to UserArrivalStore--><g id="link_UserArrivalController_UserArrivalStore"><path codeLine="39" d="M150.15,163.835 C160.307,209.909 173.257,287.231 164.5,353.5 C162.267,370.391 158.032,388.458 153.552,404.6 " fill="none" id="UserArrivalController-to-UserArrivalStore" style="stroke:#181818;stroke-width:0.6999999999999998;stroke-dasharray:7.0,7.0;"/><polygon fill="#181818" points="152.593,408.016,156.9973,402.712,153.5426,404.6473,151.6074,401.1926,152.593,408.016" style="stroke:#181818;stroke-width:0.6999999999999998;"/></g><!--MD5=[d28d31b1227178bd8717fb503a0f0075]
link Company to UserArrivalStore--><g id="link_Company_UserArrivalStore"><path codeLine="40" d="M93.632,353.535 C99.778,367.85 107.996,386.988 115.64,404.789 " fill="none" id="Company-to-UserArrivalStore" style="stroke:#181818;stroke-width:0.6999999999999998;"/><polygon fill="#181818" points="117.061,408.093,117.1451,401.1993,115.6787,404.8775,112.0004,403.4111,117.061,408.093" style="stroke:#181818;stroke-width:0.6999999999999998;"/><text fill="#000000" font-family="sans-serif" font-size="9.1" lengthAdjust="spacing" textLength="14.7" x="108.5" y="384.6466">has</text><text fill="#000000" font-family="sans-serif" font-size="9.1" lengthAdjust="spacing" textLength="4.9" x="90.0562" y="368.3275">1</text><text fill="#000000" font-family="sans-serif" font-size="9.1" lengthAdjust="spacing" textLength="4.9" x="109.6903" y="400.5317">1</text></g><!--MD5=[3027af982af4e680925664cfab449418]
@startuml
skinparam classAttributeIconSize 0

class Application {
  +static getInstance()
  +getCompany()

}

class UserArrivalStore {
+createUser (name, snsUserNumber, \ncitizenCardNumber, vaccineScheduleDate)
+validateUser(snsU)
+saveUser(snsU)
+addUserToRoom(snsU)
}


class Company {
+getUsersVaccineSchedule()

}



class UserArrivalController {
+getUsersVaccineSchedule()
+createUser (name, vaccineScheduleDate, \narrivalTime,  citizenCardNumber, snsNumber)
+saveUser()
}

class UserArrivalUI {

}


UserArrivalUI ..> UserArrivalController
UserArrivalController ..> Company
UserArrivalController ..> Application
Application ..> Company
UserArrivalController ..> UserArrivalStore
Company "1" - -> "1" UserArrivalStore : has




@enduml

PlantUML version 1.2022.4(Sat Apr 09 14:29:17 BST 2022)
(GPL source distribution)
Java Runtime: OpenJDK Runtime Environment
JVM: OpenJDK 64-Bit Server VM
Default Encoding: Cp1252
Language: en
Country: GB
--></g></svg>