<?xml version="1.0" encoding="UTF-8" standalone="no"?><svg xmlns="http://www.w3.org/2000/svg" xmlns:xlink="http://www.w3.org/1999/xlink" contentScriptType="application/ecmascript" contentStyleType="text/css" height="1285px" preserveAspectRatio="none" style="width:525px;height:1285px;background:#FFFFFF;" version="1.1" viewBox="0 0 525 1285" width="525px" zoomAndPan="magnify"><defs><filter height="300%" id="flxdcu3wtzg5w" width="300%" x="-1" y="-1"><feGaussianBlur result="blurOut" stdDeviation="2.0"/><feColorMatrix in="blurOut" result="blurOut2" type="matrix" values="0 0 0 0 0 0 0 0 0 0 0 0 0 0 0 0 0 0 .4 0"/><feOffset dx="4.0" dy="4.0" in="blurOut2" result="blurOut3"/><feBlend in="SourceGraphic" in2="blurOut3" mode="normal"/></filter></defs><g><!--MD5=[dfd4219ae26b16e6e974a23a737c25b1]
entity Coordinator--><ellipse cx="45" cy="1206.5" fill="#FEFECE" filter="url(#flxdcu3wtzg5w)" rx="8" ry="8" style="stroke:#A80036;stroke-width:1.5;"/><path d="M45,1214.5 L45,1241.5 M32,1222.5 L58,1222.5 M45,1241.5 L32,1256.5 M45,1241.5 L58,1256.5 " fill="none" filter="url(#flxdcu3wtzg5w)" style="stroke:#A80036;stroke-width:1.5;"/><text fill="#000000" font-family="sans-serif" font-size="14" lengthAdjust="spacing" textLength="75" x="7.5" y="1276.5332">Coordinator</text><ellipse cx="328.9823" cy="1238.6965" fill="#FEFECE" filter="url(#flxdcu3wtzg5w)" rx="121.4823" ry="26.6965" style="stroke:#A80036;stroke-width:1.5;"/><text fill="#000000" font-family="sans-serif" font-size="14" lengthAdjust="spacing" textLength="208" x="224.9823" y="1242.425">UC014 Manage Centers Analysis</text><!--MD5=[dadd680571e2ee7a6b53223d26ce7e08]
entity Adm--><ellipse cx="45" cy="1024.5" fill="#FEFECE" filter="url(#flxdcu3wtzg5w)" rx="8" ry="8" style="stroke:#A80036;stroke-width:1.5;"/><path d="M45,1032.5 L45,1059.5 M32,1040.5 L58,1040.5 M45,1059.5 L32,1074.5 M45,1059.5 L58,1074.5 " fill="none" filter="url(#flxdcu3wtzg5w)" style="stroke:#A80036;stroke-width:1.5;"/><text fill="#000000" font-family="sans-serif" font-size="14" lengthAdjust="spacing" textLength="28" x="31" y="1094.5332">Adm</text><ellipse cx="328.7518" cy="966.4504" fill="#FEFECE" filter="url(#flxdcu3wtzg5w)" rx="140.2518" ry="30.4504" style="stroke:#A80036;stroke-width:1.5;"/><text fill="#000000" font-family="sans-serif" font-size="14" lengthAdjust="spacing" textLength="248" x="204.7518" y="970.1789">UC011 Register Employees and Center</text><ellipse cx="328.9781" cy="1056.3956" fill="#FEFECE" filter="url(#flxdcu3wtzg5w)" rx="109.9781" ry="24.3956" style="stroke:#A80036;stroke-width:1.5;"/><text fill="#000000" font-family="sans-serif" font-size="14" lengthAdjust="spacing" textLength="183" x="237.4781" y="1060.1241">UC012 Specify Vaccine Type</text><ellipse cx="328.9415" cy="1146.2883" fill="#FEFECE" filter="url(#flxdcu3wtzg5w)" rx="136.9415" ry="29.7883" style="stroke:#A80036;stroke-width:1.5;"/><text fill="#000000" font-family="sans-serif" font-size="14" lengthAdjust="spacing" textLength="241" x="208.4415" y="1150.0168">UC013 Specify Administration Process</text><!--MD5=[c8b2cb7ab209025f476c1467c68b906a]
entity Nurse--><ellipse cx="45" cy="637.5" fill="#FEFECE" filter="url(#flxdcu3wtzg5w)" rx="8" ry="8" style="stroke:#A80036;stroke-width:1.5;"/><path d="M45,645.5 L45,672.5 M32,653.5 L58,653.5 M45,672.5 L32,687.5 M45,672.5 L58,687.5 " fill="none" filter="url(#flxdcu3wtzg5w)" style="stroke:#A80036;stroke-width:1.5;"/><text fill="#000000" font-family="sans-serif" font-size="14" lengthAdjust="spacing" textLength="37" x="26.5" y="707.5332">Nurse</text><ellipse cx="328.7597" cy="488.2519" fill="#FEFECE" filter="url(#flxdcu3wtzg5w)" rx="131.7597" ry="28.7519" style="stroke:#A80036;stroke-width:1.5;"/><text fill="#000000" font-family="sans-serif" font-size="14" lengthAdjust="spacing" textLength="230" x="213.7597" y="491.9805">UC006 List of Users Waiting Vaccine</text><ellipse cx="328.8821" cy="581.3764" fill="#FEFECE" filter="url(#flxdcu3wtzg5w)" rx="129.8821" ry="28.3764" style="stroke:#A80036;stroke-width:1.5;"/><text fill="#000000" font-family="sans-serif" font-size="14" lengthAdjust="spacing" textLength="226" x="215.8821" y="585.1049">UC007 Identifies Adverse Reactions</text><ellipse cx="329.1585" cy="669.5317" fill="#FEFECE" filter="url(#flxdcu3wtzg5w)" rx="108.1585" ry="24.0317" style="stroke:#A80036;stroke-width:1.5;"/><text fill="#000000" font-family="sans-serif" font-size="14" lengthAdjust="spacing" textLength="179" x="239.6585" y="673.2602">UC008 Administrate Vaccine</text><ellipse cx="329.141" cy="757.6282" fill="#FEFECE" filter="url(#flxdcu3wtzg5w)" rx="133.641" ry="29.1282" style="stroke:#A80036;stroke-width:1.5;"/><text fill="#000000" font-family="sans-serif" font-size="14" lengthAdjust="spacing" textLength="234" x="212.141" y="761.3567">UC009 Send User to Recovery Room</text><ellipse cx="328.9074" cy="861.3815" fill="#FEFECE" filter="url(#flxdcu3wtzg5w)" rx="184.9074" ry="39.3815" style="stroke:#A80036;stroke-width:1.5;"/><text fill="#000000" font-family="sans-serif" font-size="14" lengthAdjust="spacing" textLength="341" x="158.4074" y="865.11">UC010 Information About Patient Vaccine and Dosage</text><!--MD5=[87a04b683345c3cce94ac9a6e159ab2f]
entity Receptionist--><ellipse cx="45" cy="320.5" fill="#FEFECE" filter="url(#flxdcu3wtzg5w)" rx="8" ry="8" style="stroke:#A80036;stroke-width:1.5;"/><path d="M45,328.5 L45,355.5 M32,336.5 L58,336.5 M45,355.5 L32,370.5 M45,355.5 L58,370.5 " fill="none" filter="url(#flxdcu3wtzg5w)" style="stroke:#A80036;stroke-width:1.5;"/><text fill="#000000" font-family="sans-serif" font-size="14" lengthAdjust="spacing" textLength="78" x="6" y="390.5332">Receptionist</text><ellipse cx="329.2192" cy="308.4438" fill="#FEFECE" filter="url(#flxdcu3wtzg5w)" rx="112.7192" ry="24.9438" style="stroke:#A80036;stroke-width:1.5;"/><text fill="#000000" font-family="sans-serif" font-size="14" lengthAdjust="spacing" textLength="189" x="234.7192" y="312.1724">UC004 Register User´s Arrival</text><ellipse cx="329.0728" cy="396.3146" fill="#FEFECE" filter="url(#flxdcu3wtzg5w)" rx="127.0728" ry="27.8146" style="stroke:#A80036;stroke-width:1.5;"/><text fill="#000000" font-family="sans-serif" font-size="14" lengthAdjust="spacing" textLength="220" x="219.0728" y="400.0431">UC005 Confirms Vaccine Schedule</text><!--MD5=[fee662a292a0353a69bd162820bae93b]
entity User--><ellipse cx="45" cy="84.5" fill="#FEFECE" filter="url(#flxdcu3wtzg5w)" rx="8" ry="8" style="stroke:#A80036;stroke-width:1.5;"/><path d="M45,92.5 L45,119.5 M32,100.5 L58,100.5 M45,119.5 L32,134.5 M45,119.5 L58,134.5 " fill="none" filter="url(#flxdcu3wtzg5w)" style="stroke:#A80036;stroke-width:1.5;"/><text fill="#000000" font-family="sans-serif" font-size="14" lengthAdjust="spacing" textLength="60" x="15" y="154.5332">SNS User</text><ellipse cx="329.113" cy="28.3226" fill="#FEFECE" filter="url(#flxdcu3wtzg5w)" rx="99.613" ry="22.3226" style="stroke:#A80036;stroke-width:1.5;"/><text fill="#000000" font-family="sans-serif" font-size="14" lengthAdjust="spacing" textLength="160" x="249.113" y="32.0511">UC001 Schedule Vaccine</text><ellipse cx="329.1994" cy="116.6399" fill="#FEFECE" filter="url(#flxdcu3wtzg5w)" rx="141.1994" ry="30.6399" style="stroke:#A80036;stroke-width:1.5;"/><text fill="#000000" font-family="sans-serif" font-size="14" lengthAdjust="spacing" textLength="250" x="204.1994" y="120.3684">UC002 Authorize Appointment Message</text><ellipse cx="329.1453" cy="215.3291" fill="#FEFECE" filter="url(#flxdcu3wtzg5w)" rx="152.1453" ry="32.8291" style="stroke:#A80036;stroke-width:1.5;"/><text fill="#000000" font-family="sans-serif" font-size="14" lengthAdjust="spacing" textLength="273" x="192.6453" y="219.0576">UC003 Request EU Covid Digital Certificate</text><!--MD5=[4ee2da33096bfebad16a335b04ffa789]
link Coordinator to UC014 Manage Centers Analysis--><path d="M82.58,1238.5 C113.21,1238.5 158.81,1238.5 202.42,1238.5 " fill="none" id="Coordinator-to-UC014 Manage Centers Analysis" style="stroke:#A80036;stroke-width:1.0;"/><polygon fill="#A80036" points="207.46,1238.5,198.46,1234.5,202.46,1238.5,198.46,1242.5,207.46,1238.5" style="stroke:#A80036;stroke-width:1.0;"/><!--MD5=[90b383d38c03ff528bacfee335dcdffd]
link Adm to UC011 Register Employees and Center--><path d="M59.7,1049.85 C78.42,1040.95 113.18,1025.06 144,1014.5 C170.61,1005.38 199.89,997.02 227.11,989.92 " fill="none" id="Adm-to-UC011 Register Employees and Center" style="stroke:#A80036;stroke-width:1.0;"/><polygon fill="#A80036" points="232.17,988.6,222.4525,986.9966,227.3313,989.8598,224.4682,994.7386,232.17,988.6" style="stroke:#A80036;stroke-width:1.0;"/><!--MD5=[5fbadfa78faa50f8315f703a9391f975]
link Adm to UC012 Specify Vaccine Type--><path d="M59.6,1056.5 C87.59,1056.5 154,1056.5 213.76,1056.5 " fill="none" id="Adm-to-UC012 Specify Vaccine Type" style="stroke:#A80036;stroke-width:1.0;"/><polygon fill="#A80036" points="218.79,1056.5,209.79,1052.5,213.79,1056.5,209.79,1060.5,218.79,1056.5" style="stroke:#A80036;stroke-width:1.0;"/><!--MD5=[6dd1a9d5dabd7655dd4505f366a1e9f1]
link Adm to UC013 Specify Administration Process--><path d="M59.7,1063.15 C78.42,1072.05 113.18,1087.94 144,1098.5 C171.05,1107.77 200.86,1116.26 228.46,1123.44 " fill="none" id="Adm-to-UC013 Specify Administration Process" style="stroke:#A80036;stroke-width:1.0;"/><polygon fill="#A80036" points="233.59,1124.76,225.8712,1118.6428,228.7478,1123.5136,223.877,1126.3903,233.59,1124.76" style="stroke:#A80036;stroke-width:1.0;"/><!--MD5=[55bb0cd2ec0541463a1c1c6f32e51f15]
link Nurse to UC006 List of Users Waiting Vaccine--><path d="M63.58,632.97 C80.15,602.4 107.83,559.96 144,535.5 C164.14,521.88 187.95,512.2 211.64,505.33 " fill="none" id="Nurse-to-UC006 List of Users Waiting Vaccine" style="stroke:#A80036;stroke-width:1.0;"/><polygon fill="#A80036" points="216.69,503.91,206.9423,502.502,211.8776,505.2666,209.1129,510.2019,216.69,503.91" style="stroke:#A80036;stroke-width:1.0;"/><!--MD5=[d9df73636c4690f8daebba2ad15fe96c]
link Nurse to UC007 Identifies Adverse Reactions--><path d="M63.76,661.14 C83.17,652.23 115.32,638.11 144,628.5 C172.37,619 203.75,610.33 232.44,603.09 " fill="none" id="Nurse-to-UC007 Identifies Adverse Reactions" style="stroke:#A80036;stroke-width:1.0;"/><polygon fill="#A80036" points="237.39,601.85,227.6827,600.1859,232.5435,603.0795,229.6499,607.9403,237.39,601.85" style="stroke:#A80036;stroke-width:1.0;"/><!--MD5=[2aecc437bf239f1198e7bc7a15364d5c]
link Nurse to UC008 Administrate Vaccine--><path d="M63.64,669.5 C93.9,669.5 157.99,669.5 215.49,669.5 " fill="none" id="Nurse-to-UC008 Administrate Vaccine" style="stroke:#A80036;stroke-width:1.0;"/><polygon fill="#A80036" points="220.68,669.5,211.68,665.5,215.68,669.5,211.68,673.5,220.68,669.5" style="stroke:#A80036;stroke-width:1.0;"/><!--MD5=[ba81e1fa8d277825c33838d6a6c7f309]
link Nurse to UC009 Send User to Recovery Room--><path d="M63.73,678.12 C83.1,687.3 115.23,701.81 144,711.5 C171.17,720.65 201.15,728.9 228.88,735.8 " fill="none" id="Nurse-to-UC009 Send User to Recovery Room" style="stroke:#A80036;stroke-width:1.0;"/><polygon fill="#A80036" points="234.03,737.08,226.2354,731.0597,229.1726,735.8942,224.3381,738.8315,234.03,737.08" style="stroke:#A80036;stroke-width:1.0;"/><!--MD5=[69314b5a181f25472cf43c760a1d23d7]
link Nurse to UC010 Information About Patient Vaccine and Dosage--><path d="M63.66,705.54 C80.37,736.08 108.21,778.86 144,804.5 C159.16,815.36 176.44,824.19 194.21,831.37 " fill="none" id="Nurse-to-UC010 Information About Patient Vaccine and Dosage" style="stroke:#A80036;stroke-width:1.0;"/><polygon fill="#A80036" points="199.23,833.35,192.3145,826.3374,194.5759,831.5226,189.3907,833.784,199.23,833.35" style="stroke:#A80036;stroke-width:1.0;"/><!--MD5=[2cce9ffab76d0a40b65dffd26f6b61cc]
link Receptionist to UC004 Register User´s Arrival--><path d="M84.03,346.57 C121.6,340.7 180.62,331.49 231.2,323.6 " fill="none" id="Receptionist-to-UC004 Register User´s Arrival" style="stroke:#A80036;stroke-width:1.0;"/><polygon fill="#A80036" points="236.38,322.79,226.8697,320.2299,231.4401,323.5632,228.1068,328.1336,236.38,322.79" style="stroke:#A80036;stroke-width:1.0;"/><!--MD5=[514260f798969c8d96221b0fe31b0d81]
link Receptionist to UC005 Confirms Vaccine Schedule--><path d="M84.03,358.43 C118.77,363.85 171.85,372.14 219.64,379.59 " fill="none" id="Receptionist-to-UC005 Confirms Vaccine Schedule" style="stroke:#A80036;stroke-width:1.0;"/><polygon fill="#A80036" points="224.84,380.4,216.5645,375.06,219.8998,379.629,215.3308,382.9643,224.84,380.4" style="stroke:#A80036;stroke-width:1.0;"/><!--MD5=[b078458f885bed099a0587ed8d3f80e8]
link User to UC001 Schedule Vaccine--><path d="M75.22,99.87 C94.3,89.6 120.02,76.84 144,68.5 C175.51,57.54 211.13,48.96 242.58,42.61 " fill="none" id="User-to-UC001 Schedule Vaccine" style="stroke:#A80036;stroke-width:1.0;"/><polygon fill="#A80036" points="247.59,41.61,237.984,39.4366,242.6855,42.5823,239.5397,47.2838,247.59,41.61" style="stroke:#A80036;stroke-width:1.0;"/><!--MD5=[4cec0ca1010c2f69937c8ee1e2837174]
link User to UC002 Authorize Appointment Message--><path d="M75.12,116.5 C101.28,116.5 141.8,116.5 182.79,116.5 " fill="none" id="User-to-UC002 Authorize Appointment Message" style="stroke:#A80036;stroke-width:1.0;"/><polygon fill="#A80036" points="187.79,116.5,178.79,112.5,182.79,116.5,178.79,120.5,187.79,116.5" style="stroke:#A80036;stroke-width:1.0;"/><!--MD5=[25ff4139f504502ab7a278aeae1b9d2e]
link User to UC003 Request EU Covid Digital Certificate--><path d="M75.39,132.67 C94.53,142.76 120.27,155.49 144,164.5 C168.69,173.88 195.84,182.36 221.53,189.59 " fill="none" id="User-to-UC003 Request EU Covid Digital Certificate" style="stroke:#A80036;stroke-width:1.0;"/><polygon fill="#A80036" points="226.64,191.02,219.0456,184.749,221.8238,189.6766,216.8962,192.4548,226.64,191.02" style="stroke:#A80036;stroke-width:1.0;"/><!--MD5=[db57e4133db9a70b8fb35f51df2d275b]
@startuml
left to right direction
skinparam packageStyle rect

Coordinator - -> (UC014 Manage Centers Analysis)

Adm - -> (UC011 Register Employees and Center)
Adm - -> (UC012 Specify Vaccine Type)
Adm - -> (UC013 Specify Administration Process)

Nurse - -> (UC006 List of Users Waiting Vaccine)
Nurse - -> (UC007 Identifies Adverse Reactions)
Nurse - -> (UC008 Administrate Vaccine)
Nurse - -> (UC009 Send User to Recovery Room)
Nurse - -> (UC010 Information About Patient Vaccine and Dosage)

Receptionist - -> (UC004 Register User´s Arrival)
Receptionist - -> (UC005 Confirms Vaccine Schedule)

:SNS User: as User

User - -> (UC001 Schedule Vaccine)
User - -> (UC002 Authorize Appointment Message)
User - -> (UC003 Request EU Covid Digital Certificate)

@enduml

PlantUML version 1.2022.1(Tue Feb 01 18:19:58 GMT 2022)
(GPL source distribution)
Java Runtime: OpenJDK Runtime Environment
JVM: OpenJDK 64-Bit Server VM
Default Encoding: Cp1252
Language: en
Country: GB
--></g></svg>