<?xml version="1.0" encoding="UTF-8" standalone="no"?><svg xmlns="http://www.w3.org/2000/svg" xmlns:xlink="http://www.w3.org/1999/xlink" contentScriptType="application/ecmascript" contentStyleType="text/css" height="1275px" preserveAspectRatio="none" style="width:519px;height:1275px;background:#FFFFFF;" version="1.1" viewBox="0 0 519 1275" width="519px" zoomAndPan="magnify"><defs><filter height="300%" id="f1vdcvn530vnsc" width="300%" x="-1" y="-1"><feGaussianBlur result="blurOut" stdDeviation="2.0"/><feColorMatrix in="blurOut" result="blurOut2" type="matrix" values="0 0 0 0 0 0 0 0 0 0 0 0 0 0 0 0 0 0 .4 0"/><feOffset dx="4.0" dy="4.0" in="blurOut2" result="blurOut3"/><feBlend in="SourceGraphic" in2="blurOut3" mode="normal"/></filter></defs><g><!--MD5=[dfd4219ae26b16e6e974a23a737c25b1]
entity Coordinator--><ellipse cx="45" cy="1196.5" fill="#FEFECE" filter="url(#f1vdcvn530vnsc)" rx="8" ry="8" style="stroke:#A80036;stroke-width:1.5;"/><path d="M45,1204.5 L45,1231.5 M32,1212.5 L58,1212.5 M45,1231.5 L32,1246.5 M45,1231.5 L58,1246.5 " fill="none" filter="url(#f1vdcvn530vnsc)" style="stroke:#A80036;stroke-width:1.5;"/><text fill="#000000" font-family="sans-serif" font-size="14" lengthAdjust="spacing" textLength="75" x="7.5" y="1266.5332">Coordinator</text><ellipse cx="326.1279" cy="1228.3256" fill="#FEFECE" filter="url(#f1vdcvn530vnsc)" rx="119.6279" ry="26.3256" style="stroke:#A80036;stroke-width:1.5;"/><text fill="#000000" font-family="sans-serif" font-size="14" lengthAdjust="spacing" textLength="204" x="224.1279" y="1232.0541">UC014 Manage centers analysis</text><!--MD5=[dadd680571e2ee7a6b53223d26ce7e08]
entity Adm--><ellipse cx="45" cy="1016.5" fill="#FEFECE" filter="url(#f1vdcvn530vnsc)" rx="8" ry="8" style="stroke:#A80036;stroke-width:1.5;"/><path d="M45,1024.5 L45,1051.5 M32,1032.5 L58,1032.5 M45,1051.5 L32,1066.5 M45,1051.5 L58,1066.5 " fill="none" filter="url(#f1vdcvn530vnsc)" style="stroke:#A80036;stroke-width:1.5;"/><text fill="#000000" font-family="sans-serif" font-size="14" lengthAdjust="spacing" textLength="28" x="31" y="1086.5332">Adm</text><ellipse cx="325.859" cy="958.5718" fill="#FEFECE" filter="url(#f1vdcvn530vnsc)" rx="138.359" ry="30.0718" style="stroke:#A80036;stroke-width:1.5;"/><text fill="#000000" font-family="sans-serif" font-size="14" lengthAdjust="spacing" textLength="244" x="203.859" y="962.3003">UC011 Register employees and center</text><ellipse cx="325.9781" cy="1048.3956" fill="#FEFECE" filter="url(#f1vdcvn530vnsc)" rx="109.9781" ry="24.3956" style="stroke:#A80036;stroke-width:1.5;"/><text fill="#000000" font-family="sans-serif" font-size="14" lengthAdjust="spacing" textLength="183" x="234.4781" y="1052.1241">UC012 Specify Vaccine Type</text><ellipse cx="325.9974" cy="1137.5995" fill="#FEFECE" filter="url(#f1vdcvn530vnsc)" rx="135.9974" ry="29.5995" style="stroke:#A80036;stroke-width:1.5;"/><text fill="#000000" font-family="sans-serif" font-size="14" lengthAdjust="spacing" textLength="239" x="206.4974" y="1141.328">UC013 Specify administration process</text><!--MD5=[c8b2cb7ab209025f476c1467c68b906a]
entity Nurse--><ellipse cx="45" cy="633.5" fill="#FEFECE" filter="url(#f1vdcvn530vnsc)" rx="8" ry="8" style="stroke:#A80036;stroke-width:1.5;"/><path d="M45,641.5 L45,668.5 M32,649.5 L58,649.5 M45,668.5 L32,683.5 M45,668.5 L58,683.5 " fill="none" filter="url(#f1vdcvn530vnsc)" style="stroke:#A80036;stroke-width:1.5;"/><text fill="#000000" font-family="sans-serif" font-size="14" lengthAdjust="spacing" textLength="37" x="26.5" y="703.5332">Nurse</text><ellipse cx="325.9763" cy="487.5953" fill="#FEFECE" filter="url(#f1vdcvn530vnsc)" rx="128.4763" ry="28.0953" style="stroke:#A80036;stroke-width:1.5;"/><text fill="#000000" font-family="sans-serif" font-size="14" lengthAdjust="spacing" textLength="223" x="214.4763" y="491.3238">UC006 List of users waiting vaccine</text><ellipse cx="326.0728" cy="578.3146" fill="#FEFECE" filter="url(#f1vdcvn530vnsc)" rx="127.0728" ry="27.8146" style="stroke:#A80036;stroke-width:1.5;"/><text fill="#000000" font-family="sans-serif" font-size="14" lengthAdjust="spacing" textLength="220" x="216.0728" y="582.0431">UC007 Identifies adverse reactions</text><ellipse cx="325.7512" cy="665.3502" fill="#FEFECE" filter="url(#f1vdcvn530vnsc)" rx="107.2512" ry="23.8502" style="stroke:#A80036;stroke-width:1.5;"/><text fill="#000000" font-family="sans-serif" font-size="14" lengthAdjust="spacing" textLength="177" x="237.2512" y="669.0788">UC008 Administrate vaccine</text><ellipse cx="325.9763" cy="752.5953" fill="#FEFECE" filter="url(#f1vdcvn530vnsc)" rx="128.4763" ry="28.0953" style="stroke:#A80036;stroke-width:1.5;"/><text fill="#000000" font-family="sans-serif" font-size="14" lengthAdjust="spacing" textLength="223" x="214.4763" y="756.3238">UC009 Send user to recovery room</text><ellipse cx="325.9981" cy="854.2996" fill="#FEFECE" filter="url(#f1vdcvn530vnsc)" rx="181.9981" ry="38.7996" style="stroke:#A80036;stroke-width:1.5;"/><text fill="#000000" font-family="sans-serif" font-size="14" lengthAdjust="spacing" textLength="335" x="158.4981" y="858.0281">UC010 Information about patient vaccine and dosage</text><!--MD5=[87a04b683345c3cce94ac9a6e159ab2f]
entity Receptionist--><ellipse cx="45" cy="320.5" fill="#FEFECE" filter="url(#f1vdcvn530vnsc)" rx="8" ry="8" style="stroke:#A80036;stroke-width:1.5;"/><path d="M45,328.5 L45,355.5 M32,336.5 L58,336.5 M45,355.5 L32,370.5 M45,355.5 L58,370.5 " fill="none" filter="url(#f1vdcvn530vnsc)" style="stroke:#A80036;stroke-width:1.5;"/><text fill="#000000" font-family="sans-serif" font-size="14" lengthAdjust="spacing" textLength="78" x="6" y="390.5332">Receptionist</text><ellipse cx="325.7614" cy="308.3523" fill="#FEFECE" filter="url(#f1vdcvn530vnsc)" rx="112.2614" ry="24.8523" style="stroke:#A80036;stroke-width:1.5;"/><text fill="#000000" font-family="sans-serif" font-size="14" lengthAdjust="spacing" textLength="188" x="231.7614" y="312.0808">UC004 Register User´s arrival</text><ellipse cx="326.205" cy="396.441" fill="#FEFECE" filter="url(#f1vdcvn530vnsc)" rx="125.205" ry="27.441" style="stroke:#A80036;stroke-width:1.5;"/><text fill="#000000" font-family="sans-serif" font-size="14" lengthAdjust="spacing" textLength="216" x="218.205" y="400.1695">UC005 Confirms vaccine schedule</text><!--MD5=[fee662a292a0353a69bd162820bae93b]
entity User--><ellipse cx="45" cy="84.5" fill="#FEFECE" filter="url(#f1vdcvn530vnsc)" rx="8" ry="8" style="stroke:#A80036;stroke-width:1.5;"/><path d="M45,92.5 L45,119.5 M32,100.5 L58,100.5 M45,119.5 L32,134.5 M45,119.5 L58,134.5 " fill="none" filter="url(#f1vdcvn530vnsc)" style="stroke:#A80036;stroke-width:1.5;"/><text fill="#000000" font-family="sans-serif" font-size="14" lengthAdjust="spacing" textLength="60" x="15" y="154.5332">SNS User</text><ellipse cx="326.113" cy="28.3226" fill="#FEFECE" filter="url(#f1vdcvn530vnsc)" rx="99.613" ry="22.3226" style="stroke:#A80036;stroke-width:1.5;"/><text fill="#000000" font-family="sans-serif" font-size="14" lengthAdjust="spacing" textLength="160" x="246.113" y="32.0511">UC001 Schedule Vaccine</text><ellipse cx="326.1994" cy="116.6399" fill="#FEFECE" filter="url(#f1vdcvn530vnsc)" rx="141.1994" ry="30.6399" style="stroke:#A80036;stroke-width:1.5;"/><text fill="#000000" font-family="sans-serif" font-size="14" lengthAdjust="spacing" textLength="250" x="201.1994" y="120.3684">UC002 Authorize Appointment Message</text><ellipse cx="326.1453" cy="215.3291" fill="#FEFECE" filter="url(#f1vdcvn530vnsc)" rx="152.1453" ry="32.8291" style="stroke:#A80036;stroke-width:1.5;"/><text fill="#000000" font-family="sans-serif" font-size="14" lengthAdjust="spacing" textLength="273" x="189.6453" y="219.0576">UC003 Request EU Covid Digital Certificate</text><!--MD5=[c2432b5e93af262fbd939b18df9c1386]
link Coordinator to UC014 Manage centers analysis--><path d="M82.76,1228.5 C113.12,1228.5 158.04,1228.5 200.98,1228.5 " fill="none" id="Coordinator-to-UC014 Manage centers analysis" style="stroke:#A80036;stroke-width:1.0;"/><polygon fill="#A80036" points="206.21,1228.5,197.21,1224.5,201.21,1228.5,197.21,1232.5,206.21,1228.5" style="stroke:#A80036;stroke-width:1.0;"/><!--MD5=[681c0f001fd358f09eba23b9405c1e86]
link Adm to UC011 Register employees and center--><path d="M59.71,1041.87 C78.43,1032.99 113.2,1017.12 144,1006.5 C170.47,997.37 199.62,988.95 226.65,981.8 " fill="none" id="Adm-to-UC011 Register employees and center" style="stroke:#A80036;stroke-width:1.0;"/><polygon fill="#A80036" points="231.67,980.48,221.9481,978.9036,226.8348,981.7532,223.9852,986.6399,231.67,980.48" style="stroke:#A80036;stroke-width:1.0;"/><!--MD5=[5fbadfa78faa50f8315f703a9391f975]
link Adm to UC012 Specify Vaccine Type--><path d="M59.84,1048.5 C87.53,1048.5 152.16,1048.5 210.68,1048.5 " fill="none" id="Adm-to-UC012 Specify Vaccine Type" style="stroke:#A80036;stroke-width:1.0;"/><polygon fill="#A80036" points="215.96,1048.5,206.96,1044.5,210.96,1048.5,206.96,1052.5,215.96,1048.5" style="stroke:#A80036;stroke-width:1.0;"/><!--MD5=[f970249fb9512874695c36de27cb6fc3]
link Adm to UC013 Specify administration process--><path d="M59.7,1055.15 C78.41,1064.06 113.17,1079.96 144,1090.5 C170.46,1099.55 199.61,1107.83 226.64,1114.83 " fill="none" id="Adm-to-UC013 Specify administration process" style="stroke:#A80036;stroke-width:1.0;"/><polygon fill="#A80036" points="231.66,1116.13,223.9368,1110.0183,226.8169,1114.8871,221.9482,1117.7672,231.66,1116.13" style="stroke:#A80036;stroke-width:1.0;"/><!--MD5=[3d76066d25a8d99e26bb14759b95c147]
link Nurse to UC006 List of users waiting vaccine--><path d="M63.54,629.8 C80.17,599.66 107.96,557.66 144,533.5 C164.11,520.02 187.9,510.49 211.5,503.75 " fill="none" id="Nurse-to-UC006 List of users waiting vaccine" style="stroke:#A80036;stroke-width:1.0;"/><polygon fill="#A80036" points="216.53,502.35,206.7873,500.9077,211.7128,503.6897,208.9308,508.6152,216.53,502.35" style="stroke:#A80036;stroke-width:1.0;"/><!--MD5=[8b8745eb5c8d3f5e3e59d7e8bfbbfeeb]
link Nurse to UC007 Identifies adverse reactions--><path d="M63.76,657.14 C83.16,648.22 115.31,634.09 144,624.5 C171.91,615.17 202.77,606.68 230.99,599.6 " fill="none" id="Nurse-to-UC007 Identifies adverse reactions" style="stroke:#A80036;stroke-width:1.0;"/><polygon fill="#A80036" points="235.86,598.38,226.1586,596.6823,231.0093,599.5927,228.0989,604.4434,235.86,598.38" style="stroke:#A80036;stroke-width:1.0;"/><!--MD5=[40514f585452156e674daced83f310b4]
link Nurse to UC008 Administrate vaccine--><path d="M63.88,665.5 C93.88,665.5 156.64,665.5 213.11,665.5 " fill="none" id="Nurse-to-UC008 Administrate vaccine" style="stroke:#A80036;stroke-width:1.0;"/><polygon fill="#A80036" points="218.2,665.5,209.2,661.5,213.2,665.5,209.2,669.5,218.2,665.5" style="stroke:#A80036;stroke-width:1.0;"/><!--MD5=[d7d6a4493ca6aca1f6be9a082f967383]
link Nurse to UC009 Send user to recovery room--><path d="M63.72,674.13 C83.1,683.31 115.22,697.83 144,707.5 C171.16,716.63 201.17,724.83 228.82,731.64 " fill="none" id="Nurse-to-UC009 Send user to recovery room" style="stroke:#A80036;stroke-width:1.0;"/><polygon fill="#A80036" points="233.95,732.9,226.1554,726.8797,229.0926,731.7142,224.2581,734.6515,233.95,732.9" style="stroke:#A80036;stroke-width:1.0;"/><!--MD5=[c364e905e5ca9e93f0a5b758f1af9c83]
link Nurse to UC010 Information about patient vaccine and dosage--><path d="M63.62,700.71 C80.4,730.81 108.35,773.16 144,798.5 C158.83,809.04 175.69,817.64 193.03,824.64 " fill="none" id="Nurse-to-UC010 Information about patient vaccine and dosage" style="stroke:#A80036;stroke-width:1.0;"/><polygon fill="#A80036" points="197.93,826.58,191.0145,819.5674,193.2759,824.7526,188.0907,827.014,197.93,826.58" style="stroke:#A80036;stroke-width:1.0;"/><!--MD5=[4df31dd7026f18a035305a7b8a3a5975]
link Receptionist to UC004 Register User´s arrival--><path d="M84.21,346.47 C121.29,340.63 179.09,331.51 228.76,323.68 " fill="none" id="Receptionist-to-UC004 Register User´s arrival" style="stroke:#A80036;stroke-width:1.0;"/><polygon fill="#A80036" points="233.85,322.87,224.3325,320.3368,228.9124,323.6572,225.592,328.237,233.85,322.87" style="stroke:#A80036;stroke-width:1.0;"/><!--MD5=[ec3360090c935efcb88659716ed7c357]
link Receptionist to UC005 Confirms vaccine schedule--><path d="M84.21,358.53 C118.84,363.99 171.54,372.3 218.82,379.75 " fill="none" id="Receptionist-to-UC005 Confirms vaccine schedule" style="stroke:#A80036;stroke-width:1.0;"/><polygon fill="#A80036" points="223.96,380.57,215.6845,375.23,219.0198,379.799,214.4508,383.1343,223.96,380.57" style="stroke:#A80036;stroke-width:1.0;"/><!--MD5=[b078458f885bed099a0587ed8d3f80e8]
link User to UC001 Schedule Vaccine--><path d="M75.23,99.9 C94.31,89.64 120.04,76.88 144,68.5 C174.85,57.71 209.71,49.18 240.55,42.83 " fill="none" id="User-to-UC001 Schedule Vaccine" style="stroke:#A80036;stroke-width:1.0;"/><polygon fill="#A80036" points="245.46,41.82,235.8419,39.7004,240.561,42.8198,237.4416,47.5389,245.46,41.82" style="stroke:#A80036;stroke-width:1.0;"/><!--MD5=[4cec0ca1010c2f69937c8ee1e2837174]
link User to UC002 Authorize Appointment Message--><path d="M75.07,116.5 C100.58,116.5 139.73,116.5 179.53,116.5 " fill="none" id="User-to-UC002 Authorize Appointment Message" style="stroke:#A80036;stroke-width:1.0;"/><polygon fill="#A80036" points="184.9,116.5,175.9,112.5,179.9,116.5,175.9,120.5,184.9,116.5" style="stroke:#A80036;stroke-width:1.0;"/><!--MD5=[25ff4139f504502ab7a278aeae1b9d2e]
link User to UC003 Request EU Covid Digital Certificate--><path d="M75.4,132.64 C94.55,142.71 120.29,155.44 144,164.5 C168.16,173.73 194.7,182.14 219.83,189.34 " fill="none" id="User-to-UC003 Request EU Covid Digital Certificate" style="stroke:#A80036;stroke-width:1.0;"/><polygon fill="#A80036" points="224.84,190.76,217.2802,184.4473,220.0313,189.3902,215.0885,192.1413,224.84,190.76" style="stroke:#A80036;stroke-width:1.0;"/><!--MD5=[209e549c30e5fbb2c115a3e4f335d23f]
@startuml
left to right direction
skinparam packageStyle rect

Coordinator - -> (UC014 Manage centers analysis)

Adm - -> (UC011 Register employees and center)
Adm - -> (UC012 Specify Vaccine Type)
Adm - -> (UC013 Specify administration process)

Nurse - -> (UC006 List of users waiting vaccine)
Nurse - -> (UC007 Identifies adverse reactions)
Nurse - -> (UC008 Administrate vaccine)
Nurse - -> (UC009 Send user to recovery room)
Nurse - -> (UC010 Information about patient vaccine and dosage)

Receptionist - -> (UC004 Register User´s arrival)
Receptionist - -> (UC005 Confirms vaccine schedule)

:SNS User: as User

User - -> (UC001 Schedule Vaccine)
User - -> (UC002 Authorize Appointment Message)
User - -> (UC003 Request EU Covid Digital Certificate)

@enduml

PlantUML version 1.2022.1(Tue Feb 01 18:19:58 GMT 2022)
(GPL source distribution)
Java Runtime: OpenJDK Runtime Environment
JVM: OpenJDK 64-Bit Server VM
Default Encoding: Cp1252
Language: en
Country: GB
--></g></svg>