<?xml version="1.0" encoding="UTF-8" standalone="no"?><svg xmlns="http://www.w3.org/2000/svg" xmlns:xlink="http://www.w3.org/1999/xlink" contentScriptType="application/ecmascript" contentStyleType="text/css" height="1263px" preserveAspectRatio="none" style="width:512px;height:1263px;background:#FFFFFF;" version="1.1" viewBox="0 0 512 1263" width="512px" zoomAndPan="magnify"><defs><filter height="300%" id="fy312ud3yw6ch" width="300%" x="-1" y="-1"><feGaussianBlur result="blurOut" stdDeviation="2.0"/><feColorMatrix in="blurOut" result="blurOut2" type="matrix" values="0 0 0 0 0 0 0 0 0 0 0 0 0 0 0 0 0 0 .4 0"/><feOffset dx="4.0" dy="4.0" in="blurOut2" result="blurOut3"/><feBlend in="SourceGraphic" in2="blurOut3" mode="normal"/></filter></defs><g><!--MD5=[fee662a292a0353a69bd162820bae93b]
entity User--><ellipse cx="45" cy="1090.5" fill="#FEFECE" filter="url(#fy312ud3yw6ch)" rx="8" ry="8" style="stroke:#A80036;stroke-width:1.5;"/><path d="M45,1098.5 L45,1125.5 M32,1106.5 L58,1106.5 M45,1125.5 L32,1140.5 M45,1125.5 L58,1140.5 " fill="none" filter="url(#fy312ud3yw6ch)" style="stroke:#A80036;stroke-width:1.5;"/><text fill="#000000" font-family="sans-serif" font-size="14" lengthAdjust="spacing" textLength="60" x="15" y="1160.5332">SNS User</text><!--MD5=[dadd680571e2ee7a6b53223d26ce7e08]
entity Adm--><ellipse cx="45" cy="829.5" fill="#FEFECE" filter="url(#fy312ud3yw6ch)" rx="8" ry="8" style="stroke:#A80036;stroke-width:1.5;"/><path d="M45,837.5 L45,864.5 M32,845.5 L58,845.5 M45,864.5 L32,879.5 M45,864.5 L58,879.5 " fill="none" filter="url(#fy312ud3yw6ch)" style="stroke:#A80036;stroke-width:1.5;"/><text fill="#000000" font-family="sans-serif" font-size="14" lengthAdjust="spacing" textLength="28" x="31" y="899.5332">Adm</text><ellipse cx="322.0829" cy="773.3166" fill="#FEFECE" filter="url(#fy312ud3yw6ch)" rx="134.5829" ry="29.3166" style="stroke:#A80036;stroke-width:1.5;"/><text fill="#000000" font-family="sans-serif" font-size="14" lengthAdjust="spacing" textLength="236" x="204.0829" y="777.0451">UC?? Register employees and center</text><ellipse cx="321.8456" cy="861.6691" fill="#FEFECE" filter="url(#fy312ud3yw6ch)" rx="106.3456" ry="23.6691" style="stroke:#A80036;stroke-width:1.5;"/><text fill="#000000" font-family="sans-serif" font-size="14" lengthAdjust="spacing" textLength="175" x="234.3456" y="865.3976">UC12 Specify Vaccine Type</text><ellipse cx="322.2297" cy="949.3459" fill="#FEFECE" filter="url(#fy312ud3yw6ch)" rx="132.2297" ry="28.8459" style="stroke:#A80036;stroke-width:1.5;"/><text fill="#000000" font-family="sans-serif" font-size="14" lengthAdjust="spacing" textLength="231" x="206.7297" y="953.0745">UC13 Specify administration process</text><ellipse cx="322.0702" cy="1035.614" fill="#FEFECE" filter="url(#fy312ud3yw6ch)" rx="96.0702" ry="21.614" style="stroke:#A80036;stroke-width:1.5;"/><text fill="#000000" font-family="sans-serif" font-size="14" lengthAdjust="spacing" textLength="152" x="246.0702" y="1039.3426">UC01 Schedule Vaccine</text><ellipse cx="321.9138" cy="1122.3828" fill="#FEFECE" filter="url(#fy312ud3yw6ch)" rx="137.4138" ry="29.8828" style="stroke:#A80036;stroke-width:1.5;"/><text fill="#000000" font-family="sans-serif" font-size="14" lengthAdjust="spacing" textLength="242" x="200.9138" y="1126.1113">UC?? Authorize Appointment Message</text><ellipse cx="321.8283" cy="1219.5657" fill="#FEFECE" filter="url(#fy312ud3yw6ch)" rx="148.3283" ry="32.0657" style="stroke:#A80036;stroke-width:1.5;"/><text fill="#000000" font-family="sans-serif" font-size="14" lengthAdjust="spacing" textLength="265" x="189.3283" y="1223.2942">UC?? Request EU Covid Digital Certificate</text><!--MD5=[c8b2cb7ab209025f476c1467c68b906a]
entity Nurse--><ellipse cx="45" cy="473.5" fill="#FEFECE" filter="url(#fy312ud3yw6ch)" rx="8" ry="8" style="stroke:#A80036;stroke-width:1.5;"/><path d="M45,481.5 L45,508.5 M32,489.5 L58,489.5 M45,508.5 L32,523.5 M45,508.5 L58,523.5 " fill="none" filter="url(#fy312ud3yw6ch)" style="stroke:#A80036;stroke-width:1.5;"/><text fill="#000000" font-family="sans-serif" font-size="14" lengthAdjust="spacing" textLength="37" x="26.5" y="543.5332">Nurse</text><ellipse cx="322.2387" cy="308.3477" fill="#FEFECE" filter="url(#fy312ud3yw6ch)" rx="124.7387" ry="27.3477" style="stroke:#A80036;stroke-width:1.5;"/><text fill="#000000" font-family="sans-serif" font-size="14" lengthAdjust="spacing" textLength="215" x="214.7387" y="312.0763">UC?? List of users waiting vaccine</text><ellipse cx="322.1237" cy="409.5247" fill="#FEFECE" filter="url(#fy312ud3yw6ch)" rx="178.1237" ry="38.0247" style="stroke:#A80036;stroke-width:1.5;"/><text fill="#000000" font-family="sans-serif" font-size="14" lengthAdjust="spacing" textLength="327" x="158.6237" y="413.2533">UC?? Information about patient vaccine and dosage</text><ellipse cx="322.1395" cy="505.6279" fill="#FEFECE" filter="url(#fy312ud3yw6ch)" rx="103.6395" ry="23.1279" style="stroke:#A80036;stroke-width:1.5;"/><text fill="#000000" font-family="sans-serif" font-size="14" lengthAdjust="spacing" textLength="169" x="237.6395" y="509.3564">UC08 Administrate vaccine</text><ellipse cx="322.2387" cy="591.3477" fill="#FEFECE" filter="url(#fy312ud3yw6ch)" rx="124.7387" ry="27.3477" style="stroke:#A80036;stroke-width:1.5;"/><text fill="#000000" font-family="sans-serif" font-size="14" lengthAdjust="spacing" textLength="215" x="214.7387" y="595.0763">UC?? Send user to recovery room</text><ellipse cx="321.8414" cy="681.5683" fill="#FEFECE" filter="url(#fy312ud3yw6ch)" rx="123.3414" ry="27.0683" style="stroke:#A80036;stroke-width:1.5;"/><text fill="#000000" font-family="sans-serif" font-size="14" lengthAdjust="spacing" textLength="212" x="215.8414" y="685.2968">UC07 Identifies adverse reactions</text><!--MD5=[dfd4219ae26b16e6e974a23a737c25b1]
entity Coordinator--><ellipse cx="45" cy="188.5" fill="#FEFECE" filter="url(#fy312ud3yw6ch)" rx="8" ry="8" style="stroke:#A80036;stroke-width:1.5;"/><path d="M45,196.5 L45,223.5 M32,204.5 L58,204.5 M45,223.5 L32,238.5 M45,223.5 L58,238.5 " fill="none" filter="url(#fy312ud3yw6ch)" style="stroke:#A80036;stroke-width:1.5;"/><text fill="#000000" font-family="sans-serif" font-size="14" lengthAdjust="spacing" textLength="75" x="7.5" y="258.5332">Coordinator</text><ellipse cx="321.9339" cy="220.5868" fill="#FEFECE" filter="url(#fy312ud3yw6ch)" rx="115.9339" ry="25.5868" style="stroke:#A80036;stroke-width:1.5;"/><text fill="#000000" font-family="sans-serif" font-size="14" lengthAdjust="spacing" textLength="196" x="223.9339" y="224.3153">UC?? Manage centers analysis</text><!--MD5=[87a04b683345c3cce94ac9a6e159ab2f]
entity Receptionist--><ellipse cx="45" cy="70.5" fill="#FEFECE" filter="url(#fy312ud3yw6ch)" rx="8" ry="8" style="stroke:#A80036;stroke-width:1.5;"/><path d="M45,78.5 L45,105.5 M32,86.5 L58,86.5 M45,105.5 L32,120.5 M45,105.5 L58,120.5 " fill="none" filter="url(#fy312ud3yw6ch)" style="stroke:#A80036;stroke-width:1.5;"/><text fill="#000000" font-family="sans-serif" font-size="14" lengthAdjust="spacing" textLength="78" x="6" y="140.5332">Receptionist</text><ellipse cx="321.9823" cy="32.6965" fill="#FEFECE" filter="url(#fy312ud3yw6ch)" rx="121.4823" ry="26.6965" style="stroke:#A80036;stroke-width:1.5;"/><text fill="#000000" font-family="sans-serif" font-size="14" lengthAdjust="spacing" textLength="208" x="217.9823" y="36.425">UC?? Confirms vaccine schedule</text><ellipse cx="322.1128" cy="118.6226" fill="#FEFECE" filter="url(#fy312ud3yw6ch)" rx="108.6128" ry="24.1226" style="stroke:#A80036;stroke-width:1.5;"/><text fill="#000000" font-family="sans-serif" font-size="14" lengthAdjust="spacing" textLength="180" x="232.1128" y="122.3511">UC04 Register User´s arrival</text><!--MD5=[59bec645182afe815e5d2b33f315aaa5]
link Adm to UC?? Register employees and center--><path d="M59.73,855.05 C78.47,846.41 113.27,830.95 144,820.5 C169.93,811.68 198.45,803.47 224.88,796.47 " fill="none" id="Adm-to-UC?? Register employees and center" style="stroke:#A80036;stroke-width:1.0;"/><polygon fill="#A80036" points="229.79,795.17,220.0681,793.5936,224.9548,796.4432,222.1052,801.3299,229.79,795.17" style="stroke:#A80036;stroke-width:1.0;"/><!--MD5=[abf114cc7bab068a422e1be376d2687d]
link Adm to UC12 Specify Vaccine Type--><path d="M59.64,861.5 C87.2,861.5 151.87,861.5 209.98,861.5 " fill="none" id="Adm-to-UC12 Specify Vaccine Type" style="stroke:#A80036;stroke-width:1.0;"/><polygon fill="#A80036" points="215.22,861.5,206.22,857.5,210.22,861.5,206.22,865.5,215.22,861.5" style="stroke:#A80036;stroke-width:1.0;"/><!--MD5=[d0c3ee0a9d52bab86d8469453593c401]
link Adm to UC13 Specify administration process--><path d="M59.73,867.95 C78.47,876.59 113.27,892.05 144,902.5 C170.49,911.51 199.69,919.88 226.61,926.99 " fill="none" id="Adm-to-UC13 Specify administration process" style="stroke:#A80036;stroke-width:1.0;"/><polygon fill="#A80036" points="231.61,928.3,223.9082,922.1614,226.7713,927.0402,221.8925,929.9034,231.61,928.3" style="stroke:#A80036;stroke-width:1.0;"/><!--MD5=[a94e38ceac2c204b2b62d1f0f4c3ae0f]
link User to UC01 Schedule Vaccine--><path d="M75.29,1106.31 C94.39,1096.29 120.12,1083.81 144,1075.5 C174.8,1064.79 209.63,1056.2 240.2,1049.77 " fill="none" id="User-to-UC01 Schedule Vaccine" style="stroke:#A80036;stroke-width:1.0;"/><polygon fill="#A80036" points="245.46,1048.67,235.8348,1046.5829,240.5644,1049.6863,237.461,1054.4159,245.46,1048.67" style="stroke:#A80036;stroke-width:1.0;"/><!--MD5=[e43a7bf4df97c08552beb8f727bac4d8]
link User to UC?? Authorize Appointment Message--><path d="M75.17,1122.5 C100.64,1122.5 139.6,1122.5 179.06,1122.5 " fill="none" id="User-to-UC?? Authorize Appointment Message" style="stroke:#A80036;stroke-width:1.0;"/><polygon fill="#A80036" points="184.38,1122.5,175.38,1118.5,179.38,1122.5,175.38,1126.5,184.38,1122.5" style="stroke:#A80036;stroke-width:1.0;"/><!--MD5=[4f9c2741486f3956a101a053b068cf67]
link User to UC?? Request EU Covid Digital Certificate--><path d="M75.39,1138.68 C94.53,1148.76 120.27,1161.49 144,1170.5 C167.34,1179.36 192.95,1187.38 217.27,1194.25 " fill="none" id="User-to-UC?? Request EU Covid Digital Certificate" style="stroke:#A80036;stroke-width:1.0;"/><polygon fill="#A80036" points="222.11,1195.61,214.5156,1189.339,217.2938,1194.2666,212.3662,1197.0448,222.11,1195.61" style="stroke:#A80036;stroke-width:1.0;"/><!--MD5=[d71705a02f0d70f51dbacc5cb4d78b41]
link Nurse to UC?? List of users waiting vaccine--><path d="M62.77,463.72 C78.68,429.36 105.85,382.01 144,354.5 C163.36,340.54 186.6,330.82 209.78,324.04 " fill="none" id="Nurse-to-UC?? List of users waiting vaccine" style="stroke:#A80036;stroke-width:1.0;"/><polygon fill="#A80036" points="214.73,322.64,204.9785,321.2587,209.9213,324.0098,207.1702,328.9527,214.73,322.64" style="stroke:#A80036;stroke-width:1.0;"/><!--MD5=[96b5b5b4aaf825164f1271138f3d05f3]
link Nurse to UC?? Information about patient vaccine and dosage--><path d="M63.54,497.84 C83.02,489.45 115.49,475.81 144,465.5 C166.21,457.47 190.21,449.44 213.16,442.08 " fill="none" id="Nurse-to-UC?? Information about patient vaccine and dosage" style="stroke:#A80036;stroke-width:1.0;"/><polygon fill="#A80036" points="218.04,440.52,208.2478,439.465,213.2797,442.0496,210.6951,447.0815,218.04,440.52" style="stroke:#A80036;stroke-width:1.0;"/><!--MD5=[4bca511425dfccb14ad69c72115ebbd6]
link Nurse to UC08 Administrate vaccine--><path d="M63.62,505.5 C93.65,505.5 156.99,505.5 213.31,505.5 " fill="none" id="Nurse-to-UC08 Administrate vaccine" style="stroke:#A80036;stroke-width:1.0;"/><polygon fill="#A80036" points="218.39,505.5,209.39,501.5,213.39,505.5,209.39,509.5,218.39,505.5" style="stroke:#A80036;stroke-width:1.0;"/><!--MD5=[05ff42d99c03fdb58358f74e00a76008]
link Nurse to UC?? Send user to recovery room--><path d="M63.76,513.86 C83.16,522.78 115.31,536.91 144,546.5 C171.18,555.58 201.22,563.86 228.73,570.77 " fill="none" id="Nurse-to-UC?? Send user to recovery room" style="stroke:#A80036;stroke-width:1.0;"/><polygon fill="#A80036" points="233.83,572.05,226.0731,565.9812,228.9801,570.834,224.1274,573.741,233.83,572.05" style="stroke:#A80036;stroke-width:1.0;"/><!--MD5=[179a5e4d8b177b046306b3a555f1783a]
link Nurse to UC07 Identifies adverse reactions--><path d="M63.6,540.92 C80.28,570.84 108.1,612.53 144,636.5 C164.06,649.9 187.84,659.31 211.34,665.91 " fill="none" id="Nurse-to-UC07 Identifies adverse reactions" style="stroke:#A80036;stroke-width:1.0;"/><polygon fill="#A80036" points="216.35,667.28,208.7212,661.051,211.5265,665.9632,206.6143,668.7686,216.35,667.28" style="stroke:#A80036;stroke-width:1.0;"/><!--MD5=[d1b4d874e237b830aed4174b084cd12b]
link Coordinator to UC?? Manage centers analysis--><path d="M82.52,220.5 C112.91,220.5 157.98,220.5 200.78,220.5 " fill="none" id="Coordinator-to-UC?? Manage centers analysis" style="stroke:#A80036;stroke-width:1.0;"/><polygon fill="#A80036" points="205.99,220.5,196.99,216.5,200.99,220.5,196.99,224.5,205.99,220.5" style="stroke:#A80036;stroke-width:1.0;"/><!--MD5=[193cd808a6fdfb8815537959f55a672d]
link Receptionist to UC?? Confirms vaccine schedule--><path d="M84.13,92.24 C102.25,87.4 124.22,81.58 144,76.5 C173.72,68.87 206.29,60.71 235.31,53.51 " fill="none" id="Receptionist-to-UC?? Confirms vaccine schedule" style="stroke:#A80036;stroke-width:1.0;"/><polygon fill="#A80036" points="240.31,52.28,230.6133,50.5554,235.4559,53.4792,232.5321,58.3219,240.31,52.28" style="stroke:#A80036;stroke-width:1.0;"/><!--MD5=[81fffc700f1210e60ac7c3e6d316f1e1]
link Receptionist to UC04 Register User´s arrival--><path d="M84.24,104.72 C117.21,106.64 166.48,109.51 211.55,112.13 " fill="none" id="Receptionist-to-UC04 Register User´s arrival" style="stroke:#A80036;stroke-width:1.0;"/><polygon fill="#A80036" points="216.74,112.43,207.9836,107.9216,211.7482,112.1439,207.5259,115.9085,216.74,112.43" style="stroke:#A80036;stroke-width:1.0;"/><!--MD5=[64f638b33799880d45ab91819401451f]
@startuml
left to right direction
skinparam packageStyle rect

:SNS User: as User

Adm - -> (UC?? Register employees and center)
Adm - -> (UC12 Specify Vaccine Type)
Adm - -> (UC13 Specify administration process)

User - -> (UC01 Schedule Vaccine)
User - -> (UC?? Authorize Appointment Message)
User - -> (UC?? Request EU Covid Digital Certificate)

Nurse - -> (UC?? List of users waiting vaccine)
Nurse - -> (UC?? Information about patient vaccine and dosage)
Nurse - -> (UC08 Administrate vaccine)
Nurse - -> (UC?? Send user to recovery room)
Nurse - -> (UC07 Identifies adverse reactions)

Coordinator - -> (UC?? Manage centers analysis)

Receptionist - -> (UC?? Confirms vaccine schedule)
Receptionist - -> (UC04 Register User´s arrival)





@enduml

PlantUML version 1.2022.1(Tue Feb 01 18:19:58 GMT 2022)
(GPL source distribution)
Java Runtime: OpenJDK Runtime Environment
JVM: OpenJDK 64-Bit Server VM
Default Encoding: Cp1252
Language: en
Country: GB
--></g></svg>