<?xml version="1.0" encoding="UTF-8" standalone="no"?><svg xmlns="http://www.w3.org/2000/svg" xmlns:xlink="http://www.w3.org/1999/xlink" contentScriptType="application/ecmascript" contentStyleType="text/css" height="1219px" preserveAspectRatio="none" style="width:438px;height:1219px;background:#FFFFFF;" version="1.1" viewBox="0 0 438 1219" width="438px" zoomAndPan="magnify"><defs><filter height="300%" id="f1f2p5h3e105si" width="300%" x="-1" y="-1"><feGaussianBlur result="blurOut" stdDeviation="2.0"/><feColorMatrix in="blurOut" result="blurOut2" type="matrix" values="0 0 0 0 0 0 0 0 0 0 0 0 0 0 0 0 0 0 .4 0"/><feOffset dx="4.0" dy="4.0" in="blurOut2" result="blurOut3"/><feBlend in="SourceGraphic" in2="blurOut3" mode="normal"/></filter></defs><g><!--MD5=[dfd4219ae26b16e6e974a23a737c25b1]
entity Coordinator--><ellipse cx="45" cy="1140.5" fill="#FEFECE" filter="url(#f1f2p5h3e105si)" rx="8" ry="8" style="stroke:#A80036;stroke-width:1.5;"/><path d="M45,1148.5 L45,1175.5 M32,1156.5 L58,1156.5 M45,1175.5 L32,1190.5 M45,1175.5 L58,1190.5 " fill="none" filter="url(#f1f2p5h3e105si)" style="stroke:#A80036;stroke-width:1.5;"/><text fill="#000000" font-family="sans-serif" font-size="14" lengthAdjust="spacing" textLength="75" x="7.5" y="1210.5332">Coordinator</text><ellipse cx="284.9823" cy="1172.6965" fill="#FEFECE" filter="url(#f1f2p5h3e105si)" rx="121.4823" ry="26.6965" style="stroke:#A80036;stroke-width:1.5;"/><text fill="#000000" font-family="sans-serif" font-size="14" lengthAdjust="spacing" textLength="208" x="180.9823" y="1176.425">UC014 Manage Centers Analysis</text><!--MD5=[dadd680571e2ee7a6b53223d26ce7e08]
entity Adm--><ellipse cx="45" cy="871.5" fill="#FEFECE" filter="url(#f1f2p5h3e105si)" rx="8" ry="8" style="stroke:#A80036;stroke-width:1.5;"/><path d="M45,879.5 L45,906.5 M32,887.5 L58,887.5 M45,906.5 L32,921.5 M45,906.5 L58,921.5 " fill="none" filter="url(#f1f2p5h3e105si)" style="stroke:#A80036;stroke-width:1.5;"/><text fill="#000000" font-family="sans-serif" font-size="14" lengthAdjust="spacing" textLength="28" x="31" y="941.5332">Adm</text><ellipse cx="284.9447" cy="732.6889" fill="#FEFECE" filter="url(#f1f2p5h3e105si)" rx="128.9447" ry="28.1889" style="stroke:#A80036;stroke-width:1.5;"/><text fill="#000000" font-family="sans-serif" font-size="14" lengthAdjust="spacing" textLength="224" x="172.9447" y="736.4175">UC009 Register Vaccination Center</text><ellipse cx="284.7928" cy="818.3586" fill="#FEFECE" filter="url(#f1f2p5h3e105si)" rx="102.2928" ry="22.8586" style="stroke:#A80036;stroke-width:1.5;"/><text fill="#000000" font-family="sans-serif" font-size="14" lengthAdjust="spacing" textLength="166" x="201.7928" y="822.0871">UC010 Register Employee</text><ellipse cx="284.9113" cy="903.3823" fill="#FEFECE" filter="url(#f1f2p5h3e105si)" rx="122.4113" ry="26.8823" style="stroke:#A80036;stroke-width:1.5;"/><text fill="#000000" font-family="sans-serif" font-size="14" lengthAdjust="spacing" textLength="210" x="179.9113" y="907.1108">UC011 List of Employees by Role</text><ellipse cx="284.9781" cy="990.3956" fill="#FEFECE" filter="url(#f1f2p5h3e105si)" rx="109.9781" ry="24.3956" style="stroke:#A80036;stroke-width:1.5;"/><text fill="#000000" font-family="sans-serif" font-size="14" lengthAdjust="spacing" textLength="183" x="193.4781" y="994.1241">UC012 Specify Vaccine Type</text><ellipse cx="284.9415" cy="1080.2883" fill="#FEFECE" filter="url(#f1f2p5h3e105si)" rx="136.9415" ry="29.7883" style="stroke:#A80036;stroke-width:1.5;"/><text fill="#000000" font-family="sans-serif" font-size="14" lengthAdjust="spacing" textLength="241" x="164.4415" y="1084.0168">UC013 Specify Administration Process</text><!--MD5=[c8b2cb7ab209025f476c1467c68b906a]
entity Nurse--><ellipse cx="45" cy="479.5" fill="#FEFECE" filter="url(#f1f2p5h3e105si)" rx="8" ry="8" style="stroke:#A80036;stroke-width:1.5;"/><path d="M45,487.5 L45,514.5 M32,495.5 L58,495.5 M45,514.5 L32,529.5 M45,514.5 L58,529.5 " fill="none" filter="url(#f1f2p5h3e105si)" style="stroke:#A80036;stroke-width:1.5;"/><text fill="#000000" font-family="sans-serif" font-size="14" lengthAdjust="spacing" textLength="37" x="26.5" y="549.5332">Nurse</text><ellipse cx="285.2025" cy="374.6405" fill="#FEFECE" filter="url(#f1f2p5h3e105si)" rx="118.7025" ry="26.1405" style="stroke:#A80036;stroke-width:1.5;"/><text fill="#000000" font-family="sans-serif" font-size="14" lengthAdjust="spacing" textLength="202" x="184.2025" y="378.369">UC005 Consult User Information</text><ellipse cx="285.141" cy="464.6282" fill="#FEFECE" filter="url(#f1f2p5h3e105si)" rx="133.641" ry="29.1282" style="stroke:#A80036;stroke-width:1.5;"/><text fill="#000000" font-family="sans-serif" font-size="14" lengthAdjust="spacing" textLength="234" x="168.141" y="468.3567">UC006 Send User to Recovery Room</text><ellipse cx="284.8821" cy="557.3764" fill="#FEFECE" filter="url(#f1f2p5h3e105si)" rx="129.8821" ry="28.3764" style="stroke:#A80036;stroke-width:1.5;"/><text fill="#000000" font-family="sans-serif" font-size="14" lengthAdjust="spacing" textLength="226" x="171.8821" y="561.1049">UC007 Identifies Adverse Reactions</text><ellipse cx="285.1585" cy="645.5317" fill="#FEFECE" filter="url(#f1f2p5h3e105si)" rx="108.1585" ry="24.0317" style="stroke:#A80036;stroke-width:1.5;"/><text fill="#000000" font-family="sans-serif" font-size="14" lengthAdjust="spacing" textLength="179" x="195.6585" y="649.2602">UC008 Administrate Vaccine</text><!--MD5=[87a04b683345c3cce94ac9a6e159ab2f]
entity Receptionist--><ellipse cx="45" cy="212.5" fill="#FEFECE" filter="url(#f1f2p5h3e105si)" rx="8" ry="8" style="stroke:#A80036;stroke-width:1.5;"/><path d="M45,220.5 L45,247.5 M32,228.5 L58,228.5 M45,247.5 L32,262.5 M45,247.5 L58,262.5 " fill="none" filter="url(#f1f2p5h3e105si)" style="stroke:#A80036;stroke-width:1.5;"/><text fill="#000000" font-family="sans-serif" font-size="14" lengthAdjust="spacing" textLength="78" x="6" y="282.5332">Receptionist</text><ellipse cx="284.8193" cy="202.4639" fill="#FEFECE" filter="url(#f1f2p5h3e105si)" rx="87.8193" ry="19.9639" style="stroke:#A80036;stroke-width:1.5;"/><text fill="#000000" font-family="sans-serif" font-size="14" lengthAdjust="spacing" textLength="133" x="218.3193" y="206.1924">UC003 Register User</text><ellipse cx="285.0728" cy="285.3146" fill="#FEFECE" filter="url(#f1f2p5h3e105si)" rx="127.0728" ry="27.8146" style="stroke:#A80036;stroke-width:1.5;"/><text fill="#000000" font-family="sans-serif" font-size="14" lengthAdjust="spacing" textLength="220" x="175.0728" y="289.0431">UC004 Confirms Vaccine Schedule</text><!--MD5=[fee662a292a0353a69bd162820bae93b]
entity User--><ellipse cx="45" cy="40.5" fill="#FEFECE" filter="url(#f1f2p5h3e105si)" rx="8" ry="8" style="stroke:#A80036;stroke-width:1.5;"/><path d="M45,48.5 L45,75.5 M32,56.5 L58,56.5 M45,75.5 L32,90.5 M45,75.5 L58,90.5 " fill="none" filter="url(#f1f2p5h3e105si)" style="stroke:#A80036;stroke-width:1.5;"/><text fill="#000000" font-family="sans-serif" font-size="14" lengthAdjust="spacing" textLength="60" x="15" y="110.5332">SNS User</text><ellipse cx="285.113" cy="28.3226" fill="#FEFECE" filter="url(#f1f2p5h3e105si)" rx="99.613" ry="22.3226" style="stroke:#A80036;stroke-width:1.5;"/><text fill="#000000" font-family="sans-serif" font-size="14" lengthAdjust="spacing" textLength="160" x="205.113" y="32.0511">UC001 Schedule Vaccine</text><ellipse cx="285.1994" cy="116.6399" fill="#FEFECE" filter="url(#f1f2p5h3e105si)" rx="141.1994" ry="30.6399" style="stroke:#A80036;stroke-width:1.5;"/><text fill="#000000" font-family="sans-serif" font-size="14" lengthAdjust="spacing" textLength="250" x="160.1994" y="120.3684">UC002 Authorize Appointment Message</text><!--MD5=[4ee2da33096bfebad16a335b04ffa789]
link Coordinator to UC014 Manage Centers Analysis--><path d="M82.67,1172.5 C103.35,1172.5 130.54,1172.5 158.23,1172.5 " fill="none" id="Coordinator-to-UC014 Manage Centers Analysis" style="stroke:#A80036;stroke-width:1.0;"/><polygon fill="#A80036" points="163.4,1172.5,154.4,1168.5,158.4,1172.5,154.4,1176.5,163.4,1172.5" style="stroke:#A80036;stroke-width:1.0;"/><!--MD5=[94859064a9c0bf7f2aa6d84b89f09e11]
link Adm to UC009 Register Vaccination Center--><path d="M59.63,878.27 C76.08,850.08 106.3,804.94 144,778.5 C157.95,768.71 174.12,760.91 190.41,754.71 " fill="none" id="Adm-to-UC009 Register Vaccination Center" style="stroke:#A80036;stroke-width:1.0;"/><polygon fill="#A80036" points="195.47,752.84,185.6425,752.1924,190.7773,754.5659,188.4039,759.7007,195.47,752.84" style="stroke:#A80036;stroke-width:1.0;"/><!--MD5=[cc56e4548ca4c4d28405062c9abd02f3]
link Adm to UC010 Register Employee--><path d="M59.71,896.62 C78.43,887.4 113.2,870.86 144,859.5 C165.98,851.39 190.35,843.79 212.52,837.39 " fill="none" id="Adm-to-UC010 Register Employee" style="stroke:#A80036;stroke-width:1.0;"/><polygon fill="#A80036" points="217.51,835.95,207.7585,834.5687,212.7013,837.3198,209.9502,842.2627,217.51,835.95" style="stroke:#A80036;stroke-width:1.0;"/><!--MD5=[cb419b51db24be759ce3c1e3a910f94c]
link Adm to UC011 List of Employees by Role--><path d="M59.82,903.5 C79.53,903.5 117.67,903.5 156.98,903.5 " fill="none" id="Adm-to-UC011 List of Employees by Role" style="stroke:#A80036;stroke-width:1.0;"/><polygon fill="#A80036" points="162.28,903.5,153.28,899.5,157.28,903.5,153.28,907.5,162.28,903.5" style="stroke:#A80036;stroke-width:1.0;"/><!--MD5=[5fbadfa78faa50f8315f703a9391f975]
link Adm to UC012 Specify Vaccine Type--><path d="M59.7,910.53 C78.41,919.96 113.17,936.86 144,948.5 C164.97,956.42 188.13,963.87 209.48,970.24 " fill="none" id="Adm-to-UC012 Specify Vaccine Type" style="stroke:#A80036;stroke-width:1.0;"/><polygon fill="#A80036" points="214.29,971.66,206.7875,965.2794,209.4939,970.2469,204.5264,972.9532,214.29,971.66" style="stroke:#A80036;stroke-width:1.0;"/><!--MD5=[6dd1a9d5dabd7655dd4505f366a1e9f1]
link Adm to UC013 Specify Administration Process--><path d="M59.64,929.72 C76,958.75 106.04,1005.07 144,1032.5 C157.31,1042.11 172.69,1049.92 188.29,1056.22 " fill="none" id="Adm-to-UC013 Specify Administration Process" style="stroke:#A80036;stroke-width:1.0;"/><polygon fill="#A80036" points="193.13,1058.13,186.2219,1051.1102,188.4778,1056.2978,183.2903,1058.5537,193.13,1058.13" style="stroke:#A80036;stroke-width:1.0;"/><!--MD5=[3d94a43f5f3eaebaec6c7a336d3fb6ca]
link Nurse to UC005 Consult User Information--><path d="M63.7,489.71 C81.84,468.71 111.86,437.41 144,418.5 C160.36,408.87 179.05,401.13 197.33,394.97 " fill="none" id="Nurse-to-UC005 Consult User Information" style="stroke:#A80036;stroke-width:1.0;"/><polygon fill="#A80036" points="202.48,393.28,192.6795,392.3048,197.7323,394.8483,195.1888,399.9011,202.48,393.28" style="stroke:#A80036;stroke-width:1.0;"/><!--MD5=[4a76b9bfe9b79271f18359e9373ec3d3]
link Nurse to UC006 Send User to Recovery Room--><path d="M63.5,508.04 C88.36,503.13 135.84,493.76 180.39,484.96 " fill="none" id="Nurse-to-UC006 Send User to Recovery Room" style="stroke:#A80036;stroke-width:1.0;"/><polygon fill="#A80036" points="185.53,483.95,175.924,481.7766,180.6255,484.9223,177.4797,489.6238,185.53,483.95" style="stroke:#A80036;stroke-width:1.0;"/><!--MD5=[d9df73636c4690f8daebba2ad15fe96c]
link Nurse to UC007 Identifies Adverse Reactions--><path d="M63.5,514.88 C88.62,519.74 136.83,529.06 181.78,537.74 " fill="none" id="Nurse-to-UC007 Identifies Adverse Reactions" style="stroke:#A80036;stroke-width:1.0;"/><polygon fill="#A80036" points="186.96,538.74,178.8779,533.1115,182.0501,537.7952,177.3663,540.9674,186.96,538.74" style="stroke:#A80036;stroke-width:1.0;"/><!--MD5=[2aecc437bf239f1198e7bc7a15364d5c]
link Nurse to UC008 Administrate Vaccine--><path d="M63.7,533.14 C81.83,553.97 111.85,584.98 144,603.5 C161.53,613.6 181.73,621.48 201.22,627.55 " fill="none" id="Nurse-to-UC008 Administrate Vaccine" style="stroke:#A80036;stroke-width:1.0;"/><polygon fill="#A80036" points="206.16,629.06,198.7153,622.612,201.3768,627.6036,196.3851,630.2651,206.16,629.06" style="stroke:#A80036;stroke-width:1.0;"/><!--MD5=[7d9b88f40cf6ed3977ce0494eb70360d]
link Receptionist to UC003 Register User--><path d="M84.24,237.75 C117.95,231.8 168.04,222.96 209.63,215.62 " fill="none" id="Receptionist-to-UC003 Register User" style="stroke:#A80036;stroke-width:1.0;"/><polygon fill="#A80036" points="214.65,214.74,205.0977,212.3412,209.7239,215.5967,206.4685,220.2229,214.65,214.74" style="stroke:#A80036;stroke-width:1.0;"/><!--MD5=[f4f8b020c85b04f689e3ebfc199d92ba]
link Receptionist to UC004 Confirms Vaccine Schedule--><path d="M84.24,251.09 C110.1,255.54 145.6,261.66 179.5,267.5 " fill="none" id="Receptionist-to-UC004 Confirms Vaccine Schedule" style="stroke:#A80036;stroke-width:1.0;"/><polygon fill="#A80036" points="184.49,268.36,176.2931,262.9001,179.5615,267.5172,174.9445,270.7857,184.49,268.36" style="stroke:#A80036;stroke-width:1.0;"/><!--MD5=[b078458f885bed099a0587ed8d3f80e8]
link User to UC001 Schedule Vaccine--><path d="M75.18,67.1 C106.74,61.27 158.43,51.71 202.49,43.57 " fill="none" id="User-to-UC001 Schedule Vaccine" style="stroke:#A80036;stroke-width:1.0;"/><polygon fill="#A80036" points="207.55,42.63,197.9702,40.3437,202.6343,43.5445,199.4335,48.2087,207.55,42.63" style="stroke:#A80036;stroke-width:1.0;"/><!--MD5=[4cec0ca1010c2f69937c8ee1e2837174]
link User to UC002 Authorize Appointment Message--><path d="M75.18,77.9 C99.67,82.42 136.3,89.19 172.07,95.81 " fill="none" id="User-to-UC002 Authorize Appointment Message" style="stroke:#A80036;stroke-width:1.0;"/><polygon fill="#A80036" points="177.33,96.78,169.2135,91.2013,172.4143,95.8655,167.7502,99.0663,177.33,96.78" style="stroke:#A80036;stroke-width:1.0;"/><!--MD5=[318f6fe3ae8e7edc440e84085482e4c4]
@startuml
left to right direction
skinparam packageStyle rect

Coordinator - -> (UC014 Manage Centers Analysis)

Adm - -> (UC009 Register Vaccination Center)
Adm - -> (UC010 Register Employee)
Adm - -> (UC011 List of Employees by Role)
Adm - -> (UC012 Specify Vaccine Type)
Adm - -> (UC013 Specify Administration Process)

Nurse - -> (UC005 Consult User Information)
Nurse - -> (UC006 Send User to Recovery Room)
Nurse - -> (UC007 Identifies Adverse Reactions)
Nurse - -> (UC008 Administrate Vaccine)

Receptionist - -> (UC003 Register User)
Receptionist - -> (UC004 Confirms Vaccine Schedule)

:SNS User: as User

User - -> (UC001 Schedule Vaccine)
User - -> (UC002 Authorize Appointment Message)


@enduml

PlantUML version 1.2022.1(Tue Feb 01 18:19:58 GMT 2022)
(GPL source distribution)
Java Runtime: OpenJDK Runtime Environment
JVM: OpenJDK 64-Bit Server VM
Default Encoding: Cp1252
Language: en
Country: GB
--></g></svg>