<?xml version="1.0" encoding="UTF-8" standalone="no"?><svg xmlns="http://www.w3.org/2000/svg" xmlns:xlink="http://www.w3.org/1999/xlink" contentScriptType="application/ecmascript" contentStyleType="text/css" height="261px" preserveAspectRatio="none" style="width:445px;height:261px;background:#FFFFFF;" version="1.1" viewBox="0 0 445 261" width="445px" zoomAndPan="magnify"><defs><filter height="300%" id="fr2ymjscxu6nz" width="300%" x="-1" y="-1"><feGaussianBlur result="blurOut" stdDeviation="2.0"/><feColorMatrix in="blurOut" result="blurOut2" type="matrix" values="0 0 0 0 0 0 0 0 0 0 0 0 0 0 0 0 0 0 .4 0"/><feOffset dx="4.0" dy="4.0" in="blurOut2" result="blurOut3"/><feBlend in="SourceGraphic" in2="blurOut3" mode="normal"/></filter></defs><g><!--MD5=[a059576e163b46f56762f12600c49258]
class Nurse--><rect codeLine="3" fill="#FEFECE" filter="url(#fr2ymjscxu6nz)" height="48" id="Nurse" style="stroke:#A80036;stroke-width:1.5;" width="66" x="25.5" y="7"/><ellipse cx="40.5" cy="23" fill="#ADD1B2" rx="11" ry="11" style="stroke:#A80036;stroke-width:1.0;"/><path d="M42.5,19.5 Q42.7031,19 42.9375,18.75 Q43.1719,18.5 43.4375,18.5 Q43.9063,18.5 44.2031,18.7813 Q44.5,19.0625 44.5,19.7188 L44.5,21.2813 Q44.5,21.9375 44.2188,22.2188 Q43.9375,22.5 43.5,22.5 Q43.1094,22.5 42.8594,22.3281 Q42.6094,22.1563 42.5,21.7031 Q42.4531,21.3906 42.2813,21.2188 Q41.9688,20.8906 41.4063,20.7031 Q40.8438,20.5 40.2813,20.5 Q39.5781,20.5 38.9844,20.7813 Q38.4063,21.0625 37.9531,21.6875 Q37.5,22.3125 37.5,23.1719 L37.5,24.0938 Q37.5,25.125 38.3438,25.8125 Q39.1875,26.5 40.6875,26.5 Q41.5781,26.5 42.2031,26.2969 Q42.5625,26.1875 42.9688,25.8281 Q43.2344,25.625 43.375,25.5625 Q43.5156,25.5 43.6875,25.5 Q44.0156,25.5 44.25,25.7656 Q44.5,26.0156 44.5,26.375 Q44.5,26.7188 44.1563,27.125 Q43.6563,27.7188 42.8594,28.0469 Q41.8125,28.5 40.5313,28.5 Q39.0313,28.5 37.8281,27.9063 Q36.8594,27.4375 36.1719,26.4219 Q35.5,25.4063 35.5,24.2031 L35.5,23.1094 Q35.5,21.8594 36.0938,20.7656 Q36.7031,19.6719 37.75,19.0938 Q38.8125,18.5 40,18.5 Q40.7188,18.5 41.3438,18.75 Q41.9688,19 42.5,19.5 Z " fill="#000000"/><text fill="#000000" font-family="sans-serif" font-size="12" lengthAdjust="spacing" textLength="34" x="54.5" y="27.9102">Nurse</text><line style="stroke:#A80036;stroke-width:1.5;" x1="26.5" x2="90.5" y1="39" y2="39"/><line style="stroke:#A80036;stroke-width:1.5;" x1="26.5" x2="90.5" y1="47" y2="47"/><!--MD5=[7421f545a0d8420c5bec41e74b387d9c]
class Employee--><rect codeLine="6" fill="#FEFECE" filter="url(#fr2ymjscxu6nz)" height="131.0156" id="Employee" style="stroke:#A80036;stroke-width:1.5;" width="103" x="7" y="116"/><ellipse cx="29.2" cy="132" fill="#ADD1B2" rx="11" ry="11" style="stroke:#A80036;stroke-width:1.0;"/><path d="M31.2,128.5 Q31.4031,128 31.6375,127.75 Q31.8719,127.5 32.1375,127.5 Q32.6063,127.5 32.9031,127.7813 Q33.2,128.0625 33.2,128.7188 L33.2,130.2813 Q33.2,130.9375 32.9188,131.2188 Q32.6375,131.5 32.2,131.5 Q31.8094,131.5 31.5594,131.3281 Q31.3094,131.1563 31.2,130.7031 Q31.1531,130.3906 30.9813,130.2188 Q30.6688,129.8906 30.1063,129.7031 Q29.5438,129.5 28.9813,129.5 Q28.2781,129.5 27.6844,129.7813 Q27.1063,130.0625 26.6531,130.6875 Q26.2,131.3125 26.2,132.1719 L26.2,133.0938 Q26.2,134.125 27.0438,134.8125 Q27.8875,135.5 29.3875,135.5 Q30.2781,135.5 30.9031,135.2969 Q31.2625,135.1875 31.6688,134.8281 Q31.9344,134.625 32.075,134.5625 Q32.2156,134.5 32.3875,134.5 Q32.7156,134.5 32.95,134.7656 Q33.2,135.0156 33.2,135.375 Q33.2,135.7188 32.8563,136.125 Q32.3563,136.7188 31.5594,137.0469 Q30.5125,137.5 29.2313,137.5 Q27.7313,137.5 26.5281,136.9063 Q25.5594,136.4375 24.8719,135.4219 Q24.2,134.4063 24.2,133.2031 L24.2,132.1094 Q24.2,130.8594 24.7938,129.7656 Q25.4031,128.6719 26.45,128.0938 Q27.5125,127.5 28.7,127.5 Q29.4188,127.5 30.0438,127.75 Q30.6688,128 31.2,128.5 Z " fill="#000000"/><text fill="#000000" font-family="sans-serif" font-size="12" lengthAdjust="spacing" textLength="55" x="44.8" y="136.9102">Employee</text><line style="stroke:#A80036;stroke-width:1.5;" x1="8" x2="109" y1="148" y2="148"/><text fill="#000000" font-family="sans-serif" font-size="11" lengthAdjust="spacing" textLength="26" x="13" y="163.4189">name</text><text fill="#000000" font-family="sans-serif" font-size="11" lengthAdjust="spacing" textLength="67" x="13" y="177.2549">phoneNumber</text><text fill="#000000" font-family="sans-serif" font-size="11" lengthAdjust="spacing" textLength="40" x="13" y="191.0908">address</text><text fill="#000000" font-family="sans-serif" font-size="11" lengthAdjust="spacing" textLength="66" x="13" y="204.9268">emailAddress</text><text fill="#000000" font-family="sans-serif" font-size="11" lengthAdjust="spacing" textLength="91" x="13" y="218.7627">citizenCardNumber</text><text fill="#000000" font-family="sans-serif" font-size="11" lengthAdjust="spacing" textLength="53" x="13" y="232.5986">companyID</text><line style="stroke:#A80036;stroke-width:1.5;" x1="8" x2="109" y1="239.0156" y2="239.0156"/><!--MD5=[aaa7e27c4ec43917c82a021675d2c87a]
class WaitingRoom--><rect codeLine="18" fill="#FEFECE" filter="url(#fr2ymjscxu6nz)" height="48" id="WaitingRoom" style="stroke:#A80036;stroke-width:1.5;" width="107" x="324" y="7"/><ellipse cx="339" cy="23" fill="#ADD1B2" rx="11" ry="11" style="stroke:#A80036;stroke-width:1.0;"/><path d="M341,19.5 Q341.2031,19 341.4375,18.75 Q341.6719,18.5 341.9375,18.5 Q342.4063,18.5 342.7031,18.7813 Q343,19.0625 343,19.7188 L343,21.2813 Q343,21.9375 342.7188,22.2188 Q342.4375,22.5 342,22.5 Q341.6094,22.5 341.3594,22.3281 Q341.1094,22.1563 341,21.7031 Q340.9531,21.3906 340.7813,21.2188 Q340.4688,20.8906 339.9063,20.7031 Q339.3438,20.5 338.7813,20.5 Q338.0781,20.5 337.4844,20.7813 Q336.9063,21.0625 336.4531,21.6875 Q336,22.3125 336,23.1719 L336,24.0938 Q336,25.125 336.8438,25.8125 Q337.6875,26.5 339.1875,26.5 Q340.0781,26.5 340.7031,26.2969 Q341.0625,26.1875 341.4688,25.8281 Q341.7344,25.625 341.875,25.5625 Q342.0156,25.5 342.1875,25.5 Q342.5156,25.5 342.75,25.7656 Q343,26.0156 343,26.375 Q343,26.7188 342.6563,27.125 Q342.1563,27.7188 341.3594,28.0469 Q340.3125,28.5 339.0313,28.5 Q337.5313,28.5 336.3281,27.9063 Q335.3594,27.4375 334.6719,26.4219 Q334,25.4063 334,24.2031 L334,23.1094 Q334,21.8594 334.5938,20.7656 Q335.2031,19.6719 336.25,19.0938 Q337.3125,18.5 338.5,18.5 Q339.2188,18.5 339.8438,18.75 Q340.4688,19 341,19.5 Z " fill="#000000"/><text fill="#000000" font-family="sans-serif" font-size="12" lengthAdjust="spacing" textLength="75" x="353" y="27.9102">WaitingRoom</text><line style="stroke:#A80036;stroke-width:1.5;" x1="325" x2="430" y1="39" y2="39"/><line style="stroke:#A80036;stroke-width:1.5;" x1="325" x2="430" y1="47" y2="47"/><!--MD5=[411632688047b95e932f260c55f2de54]
link Nurse to Employee--><path codeLine="21" d="M58.5,55.2 C58.5,66.48 58.5,80.81 58.5,95.71 " fill="none" id="Nurse-to-Employee" style="stroke:#A80036;stroke-width:1.0;"/><polygon fill="none" points="65.5,95.8,58.5,115.8,51.5,95.8,65.5,95.8" style="stroke:#A80036;stroke-width:1.0;"/><!--MD5=[aa988044c6ccb0a3eab3a4065e30c3e5]
link Nurse to WaitingRoom--><path codeLine="22" d="M91.74,31 C146.87,31 257.72,31 323.99,31 " fill="none" id="Nurse-WaitingRoom" style="stroke:#A80036;stroke-width:1.0;"/><text fill="#000000" font-family="sans-serif" font-size="13" lengthAdjust="spacing" textLength="196" x="109.75" y="24.4951">Consults Users in Waiting Rooom</text><text fill="#000000" font-family="sans-serif" font-size="13" lengthAdjust="spacing" textLength="5" x="99.5581" y="26.7836">*</text><text fill="#000000" font-family="sans-serif" font-size="13" lengthAdjust="spacing" textLength="20" x="295.8528" y="45.5426">1..*</text><!--MD5=[b07c25b3e6b80a3a85a38b75d4e6b064]
@startuml
'https://plantuml.com/class-diagram

class Nurse{}


class Employee{
name
phoneNumber
address
emailAddress
citizenCardNumber
companyID
}




class WaitingRoom{}


Nurse- -|>Employee
Nurse "*" -right- "1..*" WaitingRoom : Consults Users in Waiting Rooom
@enduml

@startuml

class Nurse{}


class Employee{
name
phoneNumber
address
emailAddress
citizenCardNumber
companyID
}




class WaitingRoom{}


Nurse- -|>Employee
Nurse "*" -right- "1..*" WaitingRoom : Consults Users in Waiting Rooom
@enduml

PlantUML version 1.2022.1(Tue Feb 01 18:19:58 GMT 2022)
(GPL source distribution)
Java Runtime: OpenJDK Runtime Environment
JVM: OpenJDK 64-Bit Server VM
Default Encoding: Cp1252
Language: en
Country: US
--></g></svg>