<?xml version="1.0" encoding="UTF-8" standalone="no"?><svg xmlns="http://www.w3.org/2000/svg" xmlns:xlink="http://www.w3.org/1999/xlink" contentStyleType="text/css" height="1147.2px" preserveAspectRatio="none" style="width:1427px;height:1147px;background:#FFFFFF;" version="1.1" viewBox="0 0 1427 1147" width="1427.2px" zoomAndPan="magnify"><defs/><g><rect fill="#FFFFFF" height="1002.1563" style="stroke:#181818;stroke-width:0.8000000000000002;" width="8" x="40.4" y="73.1906"/><rect fill="#FFFFFF" height="43.4484" style="stroke:#181818;stroke-width:0.8000000000000002;" width="8" x="293.2" y="90.2391"/><rect fill="#FFFFFF" height="459.2297" style="stroke:#181818;stroke-width:0.8000000000000002;" width="8" x="293.2" y="177.1359"/><rect fill="#FFFFFF" height="388.3328" style="stroke:#181818;stroke-width:0.8000000000000002;" width="8" x="293.2" y="679.8141"/><rect fill="#FFFFFF" height="418.7328" style="stroke:#181818;stroke-width:0.8000000000000002;" width="8" x="434.8" y="200.5844"/><rect fill="#FFFFFF" height="341.4359" style="stroke:#181818;stroke-width:0.8000000000000002;" width="8" x="434.8" y="703.2625"/><rect fill="#FFFFFF" height="24" style="stroke:#181818;stroke-width:0.8000000000000002;" width="8" x="566" y="224.0328"/><rect fill="#FFFFFF" height="24" style="stroke:#181818;stroke-width:0.8000000000000002;" width="8" x="609.2" y="271.4813"/><rect fill="#FFFFFF" height="24" style="stroke:#181818;stroke-width:0.8000000000000002;" width="8" x="668.8" y="318.9297"/><rect fill="#FFFFFF" height="24" style="stroke:#181818;stroke-width:0.8000000000000002;" width="8" x="668.8" y="726.7109"/><rect fill="#FFFFFF" height="252.9391" style="stroke:#181818;stroke-width:0.8000000000000002;" width="8" x="747.2" y="366.3781"/><rect fill="#FFFFFF" height="22.4" style="stroke:#181818;stroke-width:0.8000000000000002;" width="8" x="751.2" y="396.2266"/><rect fill="#FFFFFF" height="22.4" style="stroke:#181818;stroke-width:0.8000000000000002;" width="8" x="751.2" y="454.075"/><rect fill="#FFFFFF" height="22.4" style="stroke:#181818;stroke-width:0.8000000000000002;" width="8" x="751.2" y="579.3172"/><rect fill="#FFFFFF" height="71.6969" style="stroke:#181818;stroke-width:0.8000000000000002;" width="8" x="889.6" y="774.1594"/><rect fill="#FFFFFF" height="22.4" style="stroke:#181818;stroke-width:0.8000000000000002;" width="8" x="893.6" y="823.4563"/><rect fill="#FFFFFF" height="147.1453" style="stroke:#181818;stroke-width:0.8000000000000002;" width="8" x="893.6" y="880.5047"/><rect fill="#FFFFFF" height="129.5453" style="stroke:#181818;stroke-width:0.8000000000000002;" width="8" x="893.6" y="880.5047"/><rect fill="#FFFFFF" height="22.4" style="stroke:#181818;stroke-width:0.8000000000000002;" width="8" x="897.6" y="929.8016"/><rect fill="#FFFFFF" height="22.4" style="stroke:#181818;stroke-width:0.8000000000000002;" width="8" x="897.6" y="987.65"/><rect height="119.6422" style="stroke:#000000;stroke-width:1.2000000000000002;fill:none;" width="389.2" x="706" y="494.075"/><rect height="71.6969" style="stroke:#000000;stroke-width:1.2000000000000002;fill:none;" width="185.2" x="841.2" y="786.1594"/><rect height="129.5453" style="stroke:#000000;stroke-width:1.2000000000000002;fill:none;" width="184.4" x="841.2" y="892.5047"/><line style="stroke:#181818;stroke-width:0.4000000000000001;fill:none;stroke-dasharray:5.0,5.0;" x1="44" x2="44" y1="65.1906" y2="1082.5469"/><line style="stroke:#181818;stroke-width:0.4000000000000001;fill:none;stroke-dasharray:5.0,5.0;" x1="296.8" x2="296.8" y1="65.1906" y2="1082.5469"/><line style="stroke:#181818;stroke-width:0.4000000000000001;fill:none;stroke-dasharray:5.0,5.0;" x1="438.4" x2="438.4" y1="65.1906" y2="1082.5469"/><line style="stroke:#181818;stroke-width:0.4000000000000001;fill:none;stroke-dasharray:5.0,5.0;" x1="570" x2="570" y1="65.1906" y2="1082.5469"/><line style="stroke:#181818;stroke-width:0.4000000000000001;fill:none;stroke-dasharray:5.0,5.0;" x1="613.2" x2="613.2" y1="65.1906" y2="1082.5469"/><line style="stroke:#181818;stroke-width:0.4000000000000001;fill:none;stroke-dasharray:5.0,5.0;" x1="672.4" x2="672.4" y1="65.1906" y2="1082.5469"/><line style="stroke:#181818;stroke-width:0.4000000000000001;fill:none;stroke-dasharray:5.0,5.0;" x1="750.8" x2="750.8" y1="65.1906" y2="1082.5469"/><line style="stroke:#181818;stroke-width:0.4000000000000001;fill:none;stroke-dasharray:5.0,5.0;" x1="893.2" x2="893.2" y1="65.1906" y2="1082.5469"/><line style="stroke:#181818;stroke-width:0.4000000000000001;fill:none;stroke-dasharray:5.0,5.0;" x1="1056.8" x2="1056.8" y1="539.8961" y2="1082.5469"/><line style="stroke:#181818;stroke-width:0.4000000000000001;fill:none;stroke-dasharray:5.0,5.0;" x1="1172.8" x2="1172.8" y1="65.1906" y2="1082.5469"/><line style="stroke:#181818;stroke-width:0.4000000000000001;fill:none;stroke-dasharray:5.0,5.0;" x1="1340" x2="1340" y1="65.1906" y2="1082.5469"/><text fill="#000000" font-family="sans-serif" font-size="11.2" lengthAdjust="spacing" textLength="76" x="4" y="62.8281">Administrator</text><ellipse cx="44.4" cy="10.8" fill="#E2E2F0" rx="6.4" ry="6.4" style="stroke:#181818;stroke-width:0.4000000000000001;"/><path d="M44.4,17.2 L44.4,38.8 M34,23.6 L54.8,23.6 M44.4,38.8 L34,50.8 M44.4,38.8 L54.8,50.8 " fill="none" style="stroke:#181818;stroke-width:0.4000000000000001;"/><text fill="#000000" font-family="sans-serif" font-size="11.2" lengthAdjust="spacing" textLength="76" x="4" y="1092.575">Administrator</text><ellipse cx="44.4" cy="1101.7375" fill="#E2E2F0" rx="6.4" ry="6.4" style="stroke:#181818;stroke-width:0.4000000000000001;"/><path d="M44.4,1108.1375 L44.4,1129.7375 M34,1114.5375 L54.8,1114.5375 M44.4,1129.7375 L34,1141.7375 M44.4,1129.7375 L54.8,1141.7375 " fill="none" style="stroke:#181818;stroke-width:0.4000000000000001;"/><rect fill="#E2E2F0" height="24.3906" rx="2" ry="2" style="stroke:#181818;stroke-width:0.4000000000000001;" width="103.2" x="245.6" y="40"/><text fill="#000000" font-family="sans-serif" font-size="11.2" lengthAdjust="spacing" textLength="92" x="251.2" y="56.4281">:LoadSNSUsersUI</text><rect fill="#E2E2F0" height="24.3906" rx="2" ry="2" style="stroke:#181818;stroke-width:0.4000000000000001;" width="103.2" x="245.6" y="1081.7469"/><text fill="#000000" font-family="sans-serif" font-size="11.2" lengthAdjust="spacing" textLength="92" x="251.2" y="1098.175">:LoadSNSUsersUI</text><rect fill="#E2E2F0" height="24.3906" rx="2" ry="2" style="stroke:#181818;stroke-width:0.4000000000000001;" width="148" x="364.8" y="40"/><text fill="#000000" font-family="sans-serif" font-size="11.2" lengthAdjust="spacing" textLength="136.8" x="370.4" y="56.4281">:LoadSNSUsersController</text><rect fill="#E2E2F0" height="24.3906" rx="2" ry="2" style="stroke:#181818;stroke-width:0.4000000000000001;" width="148" x="364.8" y="1081.7469"/><text fill="#000000" font-family="sans-serif" font-size="11.2" lengthAdjust="spacing" textLength="136.8" x="370.4" y="1098.175">:LoadSNSUsersController</text><rect fill="#E2E2F0" height="24.3906" rx="2" ry="2" style="stroke:#181818;stroke-width:0.4000000000000001;" width="33.6" x="553.2" y="40"/><text fill="#000000" font-family="sans-serif" font-size="11.2" lengthAdjust="spacing" textLength="22.4" x="558.8" y="56.4281">App</text><rect fill="#E2E2F0" height="24.3906" rx="2" ry="2" style="stroke:#181818;stroke-width:0.4000000000000001;" width="33.6" x="553.2" y="1081.7469"/><text fill="#000000" font-family="sans-serif" font-size="11.2" lengthAdjust="spacing" textLength="22.4" x="558.8" y="1098.175">App</text><rect fill="#E2E2F0" height="37.5813" rx="2" ry="2" style="stroke:#181818;stroke-width:0.4000000000000001;" width="36.8" x="594.8" y="26.8094"/><text fill="#000000" font-family="sans-serif" font-size="11.2" lengthAdjust="spacing" textLength="20.8" x="602.8" y="43.2375">app</text><text fill="#000000" font-family="sans-serif" font-size="11.2" lengthAdjust="spacing" textLength="25.6" x="600.4" y="56.4281">:App</text><rect fill="#E2E2F0" height="37.5813" rx="2" ry="2" style="stroke:#181818;stroke-width:0.4000000000000001;" width="36.8" x="594.8" y="1081.7469"/><text fill="#000000" font-family="sans-serif" font-size="11.2" lengthAdjust="spacing" textLength="20.8" x="602.8" y="1098.175">app</text><text fill="#000000" font-family="sans-serif" font-size="11.2" lengthAdjust="spacing" textLength="25.6" x="600.4" y="1111.3656">:App</text><rect fill="#E2E2F0" height="37.5813" rx="2" ry="2" style="stroke:#181818;stroke-width:0.4000000000000001;" width="66.4" x="639.6" y="26.8094"/><text fill="#000000" font-family="sans-serif" font-size="11.2" lengthAdjust="spacing" textLength="30.4" x="657.6" y="43.2375">comp</text><text fill="#000000" font-family="sans-serif" font-size="11.2" lengthAdjust="spacing" textLength="55.2" x="645.2" y="56.4281">:Company</text><rect fill="#E2E2F0" height="37.5813" rx="2" ry="2" style="stroke:#181818;stroke-width:0.4000000000000001;" width="66.4" x="639.6" y="1081.7469"/><text fill="#000000" font-family="sans-serif" font-size="11.2" lengthAdjust="spacing" textLength="30.4" x="657.6" y="1098.175">comp</text><text fill="#000000" font-family="sans-serif" font-size="11.2" lengthAdjust="spacing" textLength="55.2" x="645.2" y="1111.3656">:Company</text><rect fill="#E2E2F0" height="24.3906" rx="2" ry="2" style="stroke:#181818;stroke-width:0.4000000000000001;" width="74.4" x="714" y="40"/><text fill="#000000" font-family="sans-serif" font-size="11.2" lengthAdjust="spacing" textLength="63.2" x="719.6" y="56.4281">:CSVReader</text><rect fill="#E2E2F0" height="24.3906" rx="2" ry="2" style="stroke:#181818;stroke-width:0.4000000000000001;" width="74.4" x="714" y="1081.7469"/><text fill="#000000" font-family="sans-serif" font-size="11.2" lengthAdjust="spacing" textLength="63.2" x="719.6" y="1098.175">:CSVReader</text><rect fill="#E2E2F0" height="37.5813" rx="2" ry="2" style="stroke:#181818;stroke-width:0.4000000000000001;" width="88.8" x="849.2" y="26.8094"/><text fill="#000000" font-family="sans-serif" font-size="11.2" lengthAdjust="spacing" textLength="28" x="879.6" y="43.2375">store</text><text fill="#000000" font-family="sans-serif" font-size="11.2" lengthAdjust="spacing" textLength="77.6" x="854.8" y="56.4281">:SNSUserStore</text><rect fill="#E2E2F0" height="37.5813" rx="2" ry="2" style="stroke:#181818;stroke-width:0.4000000000000001;" width="88.8" x="849.2" y="1081.7469"/><text fill="#000000" font-family="sans-serif" font-size="11.2" lengthAdjust="spacing" textLength="28" x="879.6" y="1098.175">store</text><text fill="#000000" font-family="sans-serif" font-size="11.2" lengthAdjust="spacing" textLength="77.6" x="854.8" y="1111.3656">:SNSUserStore</text><rect fill="#E2E2F0" height="37.5813" rx="2" ry="2" style="stroke:#181818;stroke-width:0.4000000000000001;" width="60" x="1027.2" y="1081.7469"/><text fill="#000000" font-family="sans-serif" font-size="11.2" lengthAdjust="spacing" textLength="24" x="1045.2" y="1098.175">user</text><text fill="#000000" font-family="sans-serif" font-size="11.2" lengthAdjust="spacing" textLength="48.8" x="1032.8" y="1111.3656">:SNSUser</text><rect fill="#E2E2F0" height="37.5813" rx="2" ry="2" style="stroke:#181818;stroke-width:0.4000000000000001;" width="155.2" x="1095.2" y="26.8094"/><text fill="#000000" font-family="sans-serif" font-size="11.2" lengthAdjust="spacing" textLength="9.6" x="1168" y="43.2375">ts</text><text fill="#000000" font-family="sans-serif" font-size="11.2" lengthAdjust="spacing" textLength="144" x="1100.8" y="56.4281">:List &lt;SNSUser&gt; tempSave</text><rect fill="#E2E2F0" height="37.5813" rx="2" ry="2" style="stroke:#181818;stroke-width:0.4000000000000001;" width="155.2" x="1095.2" y="1081.7469"/><text fill="#000000" font-family="sans-serif" font-size="11.2" lengthAdjust="spacing" textLength="9.6" x="1168" y="1098.175">ts</text><text fill="#000000" font-family="sans-serif" font-size="11.2" lengthAdjust="spacing" textLength="144" x="1100.8" y="1111.3656">:List &lt;SNSUser&gt; tempSave</text><rect fill="#E2E2F0" height="37.5813" rx="2" ry="2" style="stroke:#181818;stroke-width:0.4000000000000001;" width="164" x="1258.4" y="26.8094"/><text fill="#000000" font-family="sans-serif" font-size="11.2" lengthAdjust="spacing" textLength="16" x="1332.4" y="43.2375">lsu</text><text fill="#000000" font-family="sans-serif" font-size="11.2" lengthAdjust="spacing" textLength="152.8" x="1264" y="56.4281">:List &lt;SNSUser&gt; listSNSUser</text><rect fill="#E2E2F0" height="37.5813" rx="2" ry="2" style="stroke:#181818;stroke-width:0.4000000000000001;" width="164" x="1258.4" y="1081.7469"/><text fill="#000000" font-family="sans-serif" font-size="11.2" lengthAdjust="spacing" textLength="16" x="1332.4" y="1098.175">lsu</text><text fill="#000000" font-family="sans-serif" font-size="11.2" lengthAdjust="spacing" textLength="152.8" x="1264" y="1111.3656">:List &lt;SNSUser&gt; listSNSUser</text><rect fill="#FFFFFF" height="1002.1563" style="stroke:#181818;stroke-width:0.8000000000000002;" width="8" x="40.4" y="73.1906"/><rect fill="#FFFFFF" height="43.4484" style="stroke:#181818;stroke-width:0.8000000000000002;" width="8" x="293.2" y="90.2391"/><rect fill="#FFFFFF" height="459.2297" style="stroke:#181818;stroke-width:0.8000000000000002;" width="8" x="293.2" y="177.1359"/><rect fill="#FFFFFF" height="388.3328" style="stroke:#181818;stroke-width:0.8000000000000002;" width="8" x="293.2" y="679.8141"/><rect fill="#FFFFFF" height="418.7328" style="stroke:#181818;stroke-width:0.8000000000000002;" width="8" x="434.8" y="200.5844"/><rect fill="#FFFFFF" height="341.4359" style="stroke:#181818;stroke-width:0.8000000000000002;" width="8" x="434.8" y="703.2625"/><rect fill="#FFFFFF" height="24" style="stroke:#181818;stroke-width:0.8000000000000002;" width="8" x="566" y="224.0328"/><rect fill="#FFFFFF" height="24" style="stroke:#181818;stroke-width:0.8000000000000002;" width="8" x="609.2" y="271.4813"/><rect fill="#FFFFFF" height="24" style="stroke:#181818;stroke-width:0.8000000000000002;" width="8" x="668.8" y="318.9297"/><rect fill="#FFFFFF" height="24" style="stroke:#181818;stroke-width:0.8000000000000002;" width="8" x="668.8" y="726.7109"/><rect fill="#FFFFFF" height="252.9391" style="stroke:#181818;stroke-width:0.8000000000000002;" width="8" x="747.2" y="366.3781"/><rect fill="#FFFFFF" height="22.4" style="stroke:#181818;stroke-width:0.8000000000000002;" width="8" x="751.2" y="396.2266"/><rect fill="#FFFFFF" height="22.4" style="stroke:#181818;stroke-width:0.8000000000000002;" width="8" x="751.2" y="454.075"/><rect fill="#FFFFFF" height="22.4" style="stroke:#181818;stroke-width:0.8000000000000002;" width="8" x="751.2" y="579.3172"/><rect fill="#FFFFFF" height="71.6969" style="stroke:#181818;stroke-width:0.8000000000000002;" width="8" x="889.6" y="774.1594"/><rect fill="#FFFFFF" height="22.4" style="stroke:#181818;stroke-width:0.8000000000000002;" width="8" x="893.6" y="823.4563"/><rect fill="#FFFFFF" height="147.1453" style="stroke:#181818;stroke-width:0.8000000000000002;" width="8" x="893.6" y="880.5047"/><rect fill="#FFFFFF" height="129.5453" style="stroke:#181818;stroke-width:0.8000000000000002;" width="8" x="893.6" y="880.5047"/><rect fill="#FFFFFF" height="22.4" style="stroke:#181818;stroke-width:0.8000000000000002;" width="8" x="897.6" y="929.8016"/><rect fill="#FFFFFF" height="22.4" style="stroke:#181818;stroke-width:0.8000000000000002;" width="8" x="897.6" y="987.65"/><polygon fill="#181818" points="283.6,87.0391,291.6,90.2391,283.6,93.4391,286.8,90.2391" style="stroke:#181818;stroke-width:0.8000000000000002;"/><line style="stroke:#181818;stroke-width:0.8000000000000002;" x1="48.4" x2="288.4" y1="90.2391" y2="90.2391"/><text fill="#000000" font-family="sans-serif" font-size="10.4" font-weight="bold" lengthAdjust="spacing" textLength="7.2" x="54" y="86.4453">1</text><text fill="#000000" font-family="sans-serif" font-size="10.4" lengthAdjust="spacing" textLength="192" x="64.4" y="86.4453">asks to load SNS users from a CSV file</text><polygon fill="#181818" points="57.2,130.4875,49.2,133.6875,57.2,136.8875,54,133.6875" style="stroke:#181818;stroke-width:0.8000000000000002;"/><line style="stroke:#181818;stroke-width:0.8000000000000002;stroke-dasharray:2.0,2.0;" x1="52.4" x2="296.4" y1="133.6875" y2="133.6875"/><text fill="#000000" font-family="sans-serif" font-size="10.4" font-weight="bold" lengthAdjust="spacing" textLength="7.2" x="62" y="129.8938">2</text><text fill="#000000" font-family="sans-serif" font-size="10.4" lengthAdjust="spacing" textLength="136.8" x="72.4" y="129.8938">requests data (fileLocation)</text><polygon fill="#181818" points="283.6,173.9359,291.6,177.1359,283.6,180.3359,286.8,177.1359" style="stroke:#181818;stroke-width:0.8000000000000002;"/><line style="stroke:#181818;stroke-width:0.8000000000000002;" x1="48.4" x2="288.4" y1="177.1359" y2="177.1359"/><text fill="#000000" font-family="sans-serif" font-size="10.4" font-weight="bold" lengthAdjust="spacing" textLength="7.2" x="54" y="173.3422">3</text><text fill="#000000" font-family="sans-serif" font-size="10.4" lengthAdjust="spacing" textLength="104.8" x="64.4" y="173.3422">types requested data</text><polygon fill="#181818" points="425.2,197.3844,433.2,200.5844,425.2,203.7844,428.4,200.5844" style="stroke:#181818;stroke-width:0.8000000000000002;"/><line style="stroke:#181818;stroke-width:0.8000000000000002;" x1="301.2" x2="430" y1="200.5844" y2="200.5844"/><text fill="#000000" font-family="sans-serif" font-size="10.4" font-weight="bold" lengthAdjust="spacing" textLength="7.2" x="306.8" y="196.7906">4</text><text fill="#000000" font-family="sans-serif" font-size="10.4" lengthAdjust="spacing" textLength="79.2" x="317.2" y="196.7906">newCSVReader()</text><polygon fill="#181818" points="556.4,220.8328,564.4,224.0328,556.4,227.2328,559.6,224.0328" style="stroke:#181818;stroke-width:0.8000000000000002;"/><line style="stroke:#181818;stroke-width:0.8000000000000002;" x1="442.8" x2="561.2" y1="224.0328" y2="224.0328"/><text fill="#000000" font-family="sans-serif" font-size="10.4" font-weight="bold" lengthAdjust="spacing" textLength="7.2" x="448.4" y="220.2391">5</text><text fill="#000000" font-family="sans-serif" font-size="10.4" lengthAdjust="spacing" textLength="97.6" x="458.8" y="220.2391">app = getInstance()</text><polygon fill="#181818" points="599.6,268.2813,607.6,271.4813,599.6,274.6813,602.8,271.4813" style="stroke:#181818;stroke-width:0.8000000000000002;"/><line style="stroke:#181818;stroke-width:0.8000000000000002;" x1="442.8" x2="604.4" y1="271.4813" y2="271.4813"/><text fill="#000000" font-family="sans-serif" font-size="10.4" font-weight="bold" lengthAdjust="spacing" textLength="7.2" x="448.4" y="267.6875">6</text><text fill="#000000" font-family="sans-serif" font-size="10.4" lengthAdjust="spacing" textLength="112" x="458.8" y="267.6875">comp = getCompany()</text><polygon fill="#181818" points="659.2,315.7297,667.2,318.9297,659.2,322.1297,662.4,318.9297" style="stroke:#181818;stroke-width:0.8000000000000002;"/><line style="stroke:#181818;stroke-width:0.8000000000000002;" x1="442.8" x2="664" y1="318.9297" y2="318.9297"/><text fill="#000000" font-family="sans-serif" font-size="10.4" font-weight="bold" lengthAdjust="spacing" textLength="7.2" x="448.4" y="315.1359">7</text><text fill="#000000" font-family="sans-serif" font-size="10.4" lengthAdjust="spacing" textLength="110.4" x="458.8" y="315.1359">csvr = getCSVReader()</text><polygon fill="#181818" points="737.6,363.1781,745.6,366.3781,737.6,369.5781,740.8,366.3781" style="stroke:#181818;stroke-width:0.8000000000000002;"/><line style="stroke:#181818;stroke-width:0.8000000000000002;" x1="442.8" x2="742.4" y1="366.3781" y2="366.3781"/><text fill="#000000" font-family="sans-serif" font-size="10.4" font-weight="bold" lengthAdjust="spacing" textLength="7.2" x="448.4" y="362.5844">8</text><text fill="#000000" font-family="sans-serif" font-size="10.4" lengthAdjust="spacing" textLength="163.2" x="458.8" y="362.5844">rcsvf = readCSVFile(fileLocation)</text><line style="stroke:#181818;stroke-width:0.8000000000000002;" x1="759.2" x2="792.8" y1="389.8266" y2="389.8266"/><line style="stroke:#181818;stroke-width:0.8000000000000002;" x1="792.8" x2="792.8" y1="389.8266" y2="400.2266"/><line style="stroke:#181818;stroke-width:0.8000000000000002;" x1="760" x2="792.8" y1="400.2266" y2="400.2266"/><polygon fill="#181818" points="768,397.0266,760,400.2266,768,403.4266,764.8,400.2266" style="stroke:#181818;stroke-width:0.8000000000000002;"/><text fill="#000000" font-family="sans-serif" font-size="10.4" font-weight="bold" lengthAdjust="spacing" textLength="7.2" x="764.8" y="386.0328">9</text><text fill="#000000" font-family="sans-serif" font-size="10.4" lengthAdjust="spacing" textLength="99.2" x="775.2" y="386.0328">validateHeader(line)</text><line style="stroke:#181818;stroke-width:0.8000000000000002;" x1="759.2" x2="792.8" y1="447.675" y2="447.675"/><line style="stroke:#181818;stroke-width:0.8000000000000002;" x1="792.8" x2="792.8" y1="447.675" y2="458.075"/><line style="stroke:#181818;stroke-width:0.8000000000000002;" x1="760" x2="792.8" y1="458.075" y2="458.075"/><polygon fill="#181818" points="768,454.875,760,458.075,768,461.275,764.8,458.075" style="stroke:#181818;stroke-width:0.8000000000000002;"/><text fill="#000000" font-family="sans-serif" font-size="10.4" font-weight="bold" lengthAdjust="spacing" textLength="14.4" x="764.8" y="443.8813">10</text><text fill="#000000" font-family="sans-serif" font-size="10.4" lengthAdjust="spacing" textLength="105.6" x="782.4" y="443.8813">getCompleteHeader()</text><path d="M706,494.075 L765.2,494.075 L765.2,499.9234 L757.2,507.9234 L706,507.9234 L706,494.075 " fill="#EEEEEE" style="stroke:#000000;stroke-width:1.2000000000000002;"/><rect fill="none" height="119.6422" style="stroke:#000000;stroke-width:1.2000000000000002;" width="389.2" x="706" y="494.075"/><text fill="#000000" font-family="sans-serif" font-size="10.4" font-weight="bold" lengthAdjust="spacing" textLength="23.2" x="718" y="504.9297">loop</text><text fill="#000000" font-family="sans-serif" font-size="8.8" font-weight="bold" lengthAdjust="spacing" textLength="56.8" x="777.2" y="504.1828">[line != null]</text><polygon fill="#181818" points="1017.6,546.2688,1025.6,549.4688,1017.6,552.6688,1020.8,549.4688" style="stroke:#181818;stroke-width:0.8000000000000002;"/><line style="stroke:#181818;stroke-width:0.8000000000000002;" x1="755.2" x2="1022.4" y1="549.4688" y2="549.4688"/><text fill="#000000" font-family="sans-serif" font-size="10.4" font-weight="bold" lengthAdjust="spacing" textLength="14.4" x="760.8" y="533.4266">11</text><text fill="#000000" font-family="sans-serif" font-size="10.4" lengthAdjust="spacing" textLength="216.8" x="778.4" y="521.1781">create(name, sex, birthDate, homeAddress,</text><text fill="#000000" font-family="sans-serif" font-size="10.4" lengthAdjust="spacing" textLength="235.2" x="778.4" y="533.4266">phoneNumber, emailAddress, snsUserNumber,</text><text fill="#000000" font-family="sans-serif" font-size="10.4" lengthAdjust="spacing" textLength="100" x="778.4" y="545.675">citizenCardNumber)</text><rect fill="#E2E2F0" height="37.5813" rx="2" ry="2" style="stroke:#181818;stroke-width:0.4000000000000001;" width="60" x="1027.2" y="509.4875"/><text fill="#000000" font-family="sans-serif" font-size="11.2" lengthAdjust="spacing" textLength="24" x="1045.2" y="525.9156">user</text><text fill="#000000" font-family="sans-serif" font-size="11.2" lengthAdjust="spacing" textLength="48.8" x="1032.8" y="539.1063">:SNSUser</text><line style="stroke:#181818;stroke-width:0.8000000000000002;" x1="759.2" x2="792.8" y1="572.9172" y2="572.9172"/><line style="stroke:#181818;stroke-width:0.8000000000000002;" x1="792.8" x2="792.8" y1="572.9172" y2="583.3172"/><line style="stroke:#181818;stroke-width:0.8000000000000002;" x1="760" x2="792.8" y1="583.3172" y2="583.3172"/><polygon fill="#181818" points="768,580.1172,760,583.3172,768,586.5172,764.8,583.3172" style="stroke:#181818;stroke-width:0.8000000000000002;"/><text fill="#000000" font-family="sans-serif" font-size="10.4" font-weight="bold" lengthAdjust="spacing" textLength="14.4" x="764.8" y="569.1234">12</text><text fill="#000000" font-family="sans-serif" font-size="10.4" lengthAdjust="spacing" textLength="70.4" x="782.4" y="569.1234">saveSNSUser()</text><polygon fill="#181818" points="57.2,633.1656,49.2,636.3656,57.2,639.5656,54,636.3656" style="stroke:#181818;stroke-width:0.8000000000000002;"/><line style="stroke:#181818;stroke-width:0.8000000000000002;stroke-dasharray:2.0,2.0;" x1="52.4" x2="296.4" y1="636.3656" y2="636.3656"/><text fill="#000000" font-family="sans-serif" font-size="10.4" font-weight="bold" lengthAdjust="spacing" textLength="14.4" x="62" y="632.5719">13</text><text fill="#000000" font-family="sans-serif" font-size="10.4" lengthAdjust="spacing" textLength="208" x="79.6" y="632.5719">shows all data and requests confirmation</text><polygon fill="#181818" points="283.6,676.6141,291.6,679.8141,283.6,683.0141,286.8,679.8141" style="stroke:#181818;stroke-width:0.8000000000000002;"/><line style="stroke:#181818;stroke-width:0.8000000000000002;" x1="48.4" x2="288.4" y1="679.8141" y2="679.8141"/><text fill="#000000" font-family="sans-serif" font-size="10.4" font-weight="bold" lengthAdjust="spacing" textLength="14.4" x="54" y="676.0203">14</text><text fill="#000000" font-family="sans-serif" font-size="10.4" lengthAdjust="spacing" textLength="88.8" x="71.6" y="676.0203">confirms the data</text><polygon fill="#181818" points="425.2,700.0625,433.2,703.2625,425.2,706.4625,428.4,703.2625" style="stroke:#181818;stroke-width:0.8000000000000002;"/><line style="stroke:#181818;stroke-width:0.8000000000000002;" x1="301.2" x2="430" y1="703.2625" y2="703.2625"/><text fill="#000000" font-family="sans-serif" font-size="10.4" font-weight="bold" lengthAdjust="spacing" textLength="14.4" x="306.8" y="699.4688">15</text><text fill="#000000" font-family="sans-serif" font-size="10.4" lengthAdjust="spacing" textLength="100.8" x="324.4" y="699.4688">importSNSUserCSV()</text><polygon fill="#181818" points="659.2,723.5109,667.2,726.7109,659.2,729.9109,662.4,726.7109" style="stroke:#181818;stroke-width:0.8000000000000002;"/><line style="stroke:#181818;stroke-width:0.8000000000000002;" x1="442.8" x2="664" y1="726.7109" y2="726.7109"/><text fill="#000000" font-family="sans-serif" font-size="10.4" font-weight="bold" lengthAdjust="spacing" textLength="14.4" x="448.4" y="722.9172">16</text><text fill="#000000" font-family="sans-serif" font-size="10.4" lengthAdjust="spacing" textLength="129.6" x="466" y="722.9172">store = getSNSUserStore()</text><polygon fill="#181818" points="880,770.9594,888,774.1594,880,777.3594,883.2,774.1594" style="stroke:#181818;stroke-width:0.8000000000000002;"/><line style="stroke:#181818;stroke-width:0.8000000000000002;" x1="442.8" x2="884.8" y1="774.1594" y2="774.1594"/><text fill="#000000" font-family="sans-serif" font-size="10.4" font-weight="bold" lengthAdjust="spacing" textLength="14.4" x="448.4" y="770.3656">17</text><text fill="#000000" font-family="sans-serif" font-size="10.4" lengthAdjust="spacing" textLength="119.2" x="466" y="770.3656">vtl = validateTempList()</text><path d="M841.2,786.1594 L900.4,786.1594 L900.4,792.0078 L892.4,800.0078 L841.2,800.0078 L841.2,786.1594 " fill="#EEEEEE" style="stroke:#000000;stroke-width:1.2000000000000002;"/><rect fill="none" height="71.6969" style="stroke:#000000;stroke-width:1.2000000000000002;" width="185.2" x="841.2" y="786.1594"/><text fill="#000000" font-family="sans-serif" font-size="10.4" font-weight="bold" lengthAdjust="spacing" textLength="23.2" x="853.2" y="797.0141">loop</text><line style="stroke:#181818;stroke-width:0.8000000000000002;" x1="901.6" x2="935.2" y1="817.0563" y2="817.0563"/><line style="stroke:#181818;stroke-width:0.8000000000000002;" x1="935.2" x2="935.2" y1="817.0563" y2="827.4563"/><line style="stroke:#181818;stroke-width:0.8000000000000002;" x1="902.4" x2="935.2" y1="827.4563" y2="827.4563"/><polygon fill="#181818" points="910.4,824.2563,902.4,827.4563,910.4,830.6563,907.2,827.4563" style="stroke:#181818;stroke-width:0.8000000000000002;"/><text fill="#000000" font-family="sans-serif" font-size="10.4" font-weight="bold" lengthAdjust="spacing" textLength="14.4" x="907.2" y="813.2625">18</text><text fill="#000000" font-family="sans-serif" font-size="10.4" lengthAdjust="spacing" textLength="92" x="924.8" y="813.2625">validateTempList()</text><polygon fill="#181818" points="884,877.3047,892,880.5047,884,883.7047,887.2,880.5047" style="stroke:#181818;stroke-width:0.8000000000000002;"/><line style="stroke:#181818;stroke-width:0.8000000000000002;" x1="442.8" x2="888.8" y1="880.5047" y2="880.5047"/><text fill="#000000" font-family="sans-serif" font-size="10.4" font-weight="bold" lengthAdjust="spacing" textLength="14.4" x="448.4" y="876.7109">19</text><text fill="#000000" font-family="sans-serif" font-size="10.4" lengthAdjust="spacing" textLength="184" x="466" y="876.7109">isuc = importSNSUserCSV(tempSave)</text><path d="M841.2,892.5047 L900.4,892.5047 L900.4,898.3531 L892.4,906.3531 L841.2,906.3531 L841.2,892.5047 " fill="#EEEEEE" style="stroke:#000000;stroke-width:1.2000000000000002;"/><rect fill="none" height="129.5453" style="stroke:#000000;stroke-width:1.2000000000000002;" width="184.4" x="841.2" y="892.5047"/><text fill="#000000" font-family="sans-serif" font-size="10.4" font-weight="bold" lengthAdjust="spacing" textLength="23.2" x="853.2" y="903.3594">loop</text><line style="stroke:#181818;stroke-width:0.8000000000000002;" x1="905.6" x2="939.2" y1="923.4016" y2="923.4016"/><line style="stroke:#181818;stroke-width:0.8000000000000002;" x1="939.2" x2="939.2" y1="923.4016" y2="933.8016"/><line style="stroke:#181818;stroke-width:0.8000000000000002;" x1="906.4" x2="939.2" y1="933.8016" y2="933.8016"/><polygon fill="#181818" points="914.4,930.6016,906.4,933.8016,914.4,937.0016,911.2,933.8016" style="stroke:#181818;stroke-width:0.8000000000000002;"/><text fill="#000000" font-family="sans-serif" font-size="10.4" font-weight="bold" lengthAdjust="spacing" textLength="14.4" x="911.2" y="919.6078">20</text><text fill="#000000" font-family="sans-serif" font-size="10.4" lengthAdjust="spacing" textLength="87.2" x="928.8" y="919.6078">validateSNSUser()</text><line style="stroke:#181818;stroke-width:0.8000000000000002;" x1="905.6" x2="939.2" y1="981.25" y2="981.25"/><line style="stroke:#181818;stroke-width:0.8000000000000002;" x1="939.2" x2="939.2" y1="981.25" y2="991.65"/><line style="stroke:#181818;stroke-width:0.8000000000000002;" x1="906.4" x2="939.2" y1="991.65" y2="991.65"/><polygon fill="#181818" points="914.4,988.45,906.4,991.65,914.4,994.85,911.2,991.65" style="stroke:#181818;stroke-width:0.8000000000000002;"/><text fill="#000000" font-family="sans-serif" font-size="10.4" font-weight="bold" lengthAdjust="spacing" textLength="14.4" x="911.2" y="977.4563">21</text><text fill="#000000" font-family="sans-serif" font-size="10.4" lengthAdjust="spacing" textLength="66.4" x="928.8" y="977.4563">addSNSUser()</text><polygon fill="#181818" points="429.2,1041.4984,437.2,1044.6984,429.2,1047.8984,432.4,1044.6984" style="stroke:#181818;stroke-width:0.8000000000000002;"/><line style="stroke:#181818;stroke-width:0.8000000000000002;" x1="301.2" x2="434" y1="1044.6984" y2="1044.6984"/><text fill="#000000" font-family="sans-serif" font-size="10.4" font-weight="bold" lengthAdjust="spacing" textLength="14.4" x="306.8" y="1040.9047">22</text><text fill="#000000" font-family="sans-serif" font-size="10.4" lengthAdjust="spacing" textLength="84.8" x="324.4" y="1040.9047">clearTempArray()</text><polygon fill="#181818" points="57.2,1064.9469,49.2,1068.1469,57.2,1071.3469,54,1068.1469" style="stroke:#181818;stroke-width:0.8000000000000002;"/><line style="stroke:#181818;stroke-width:0.8000000000000002;stroke-dasharray:2.0,2.0;" x1="52.4" x2="296.4" y1="1068.1469" y2="1068.1469"/><text fill="#000000" font-family="sans-serif" font-size="10.4" font-weight="bold" lengthAdjust="spacing" textLength="14.4" x="62" y="1064.3531">23</text><text fill="#000000" font-family="sans-serif" font-size="10.4" lengthAdjust="spacing" textLength="133.6" x="79.6" y="1064.3531">informs operation success</text><!--MD5=[a44ef53f6a15ea17f382f5d6b2ecbc7a]
@startuml
autonumber
'hide footbox
actor "Administrator" as ADM

participant ":LoadSNSUsersUI" as UI
participant ":LoadSNSUsersController" as CTRL
participant "App" as _APP
participant "app\n:App" as APP
participant "comp\n:Company" as COMP
participant ":CSVReader" as CSV
participant "store\n:SNSUserStore" as STORE
participant "user\n:SNSUser" as SU
participant "ts\n:List <SNSUser> tempSave"
participant "lsu\n:List <SNSUser> listSNSUser"

activate ADM
ADM -> UI : asks to load SNS users from a CSV file
activate UI
|||
UI - -> ADM : requests data (fileLocation)
deactivate UI
|||

ADM -> UI : types requested data
activate UI
UI -> CTRL : newCSVReader()
activate CTRL
CTRL -> _APP : app = getInstance()
activate _APP
deactivate _APP
CTRL -> APP : comp = getCompany()
activate APP
deactivate APP
CTRL -> COMP : csvr = getCSVReader()
activate COMP
deactivate COMP
CTRL -> CSV : rcsvf = readCSVFile(fileLocation)
activate CSV
CSV -> CSV : validateHeader(line)
activate CSV
deactivate CSV
CSV -> CSV : getCompleteHeader()
activate CSV
deactivate CSV
loop line != null
    CSV -> SU **: create(name, sex, birthDate, homeAddress,\nphoneNumber, emailAddress, snsUserNumber,\ncitizenCardNumber)
    CSV -> CSV : saveSNSUser()
    activate CSV
    deactivate CSV

end

deactivate CSV
deactivate CTRL
UI - -> ADM : shows all data and requests confirmation
deactivate UI
|||

ADM -> UI : confirms the data
activate UI
UI -> CTRL: importSNSUserCSV()
activate CTRL
CTRL -> COMP: store = getSNSUserStore()
activate COMP
deactivate COMP
CTRL -> STORE: vtl = validateTempList()
loop
    activate STORE
    STORE -> STORE: validateTempList()
    activate STORE
    deactivate STORE
    deactivate STORE
end
CTRL -> STORE: isuc = importSNSUserCSV(tempSave)
activate STORE
loop
    activate STORE
    STORE -> STORE: validateSNSUser()
    activate STORE
    deactivate STORE
    STORE -> STORE: addSNSUser()
    activate STORE
    deactivate STORE
    deactivate STORE
end
activate STORE
deactivate STORE
UI -> CTRL : clearTempArray()
deactivate CTRL
UI - -> ADM : informs operation success
deactivate UI
@enduml

@startuml
autonumber
actor "Administrator" as ADM

participant ":LoadSNSUsersUI" as UI
participant ":LoadSNSUsersController" as CTRL
participant "App" as _APP
participant "app\n:App" as APP
participant "comp\n:Company" as COMP
participant ":CSVReader" as CSV
participant "store\n:SNSUserStore" as STORE
participant "user\n:SNSUser" as SU
participant "ts\n:List <SNSUser> tempSave"
participant "lsu\n:List <SNSUser> listSNSUser"

activate ADM
ADM -> UI : asks to load SNS users from a CSV file
activate UI
|||
UI - -> ADM : requests data (fileLocation)
deactivate UI
|||

ADM -> UI : types requested data
activate UI
UI -> CTRL : newCSVReader()
activate CTRL
CTRL -> _APP : app = getInstance()
activate _APP
deactivate _APP
CTRL -> APP : comp = getCompany()
activate APP
deactivate APP
CTRL -> COMP : csvr = getCSVReader()
activate COMP
deactivate COMP
CTRL -> CSV : rcsvf = readCSVFile(fileLocation)
activate CSV
CSV -> CSV : validateHeader(line)
activate CSV
deactivate CSV
CSV -> CSV : getCompleteHeader()
activate CSV
deactivate CSV
loop line != null
    CSV -> SU **: create(name, sex, birthDate, homeAddress,\nphoneNumber, emailAddress, snsUserNumber,\ncitizenCardNumber)
    CSV -> CSV : saveSNSUser()
    activate CSV
    deactivate CSV

end

deactivate CSV
deactivate CTRL
UI - -> ADM : shows all data and requests confirmation
deactivate UI
|||

ADM -> UI : confirms the data
activate UI
UI -> CTRL: importSNSUserCSV()
activate CTRL
CTRL -> COMP: store = getSNSUserStore()
activate COMP
deactivate COMP
CTRL -> STORE: vtl = validateTempList()
loop
    activate STORE
    STORE -> STORE: validateTempList()
    activate STORE
    deactivate STORE
    deactivate STORE
end
CTRL -> STORE: isuc = importSNSUserCSV(tempSave)
activate STORE
loop
    activate STORE
    STORE -> STORE: validateSNSUser()
    activate STORE
    deactivate STORE
    STORE -> STORE: addSNSUser()
    activate STORE
    deactivate STORE
    deactivate STORE
end
activate STORE
deactivate STORE
UI -> CTRL : clearTempArray()
deactivate CTRL
UI - -> ADM : informs operation success
deactivate UI
@enduml

PlantUML version 1.2022.5(Sat Apr 30 11:55:52 WEST 2022)
(GPL source distribution)
Java Runtime: OpenJDK Runtime Environment
JVM: OpenJDK 64-Bit Server VM
Default Encoding: UTF-8
Language: en
Country: PT
--></g></svg>