<?xml version="1.0" encoding="UTF-8" standalone="no"?><svg xmlns="http://www.w3.org/2000/svg" xmlns:xlink="http://www.w3.org/1999/xlink" contentStyleType="text/css" height="318px" preserveAspectRatio="none" style="width:254px;height:318px;background:#FFFFFF;" version="1.1" viewBox="0 0 254 318" width="254px" zoomAndPan="magnify"><defs/><g><!--MD5=[da547346deef918ea16944ba046651ef]
class Administrator--><g id="elem_Administrator"><rect codeLine="3" fill="#F1F1F1" height="48" id="Administrator" rx="2.5" ry="2.5" style="stroke:#181818;stroke-width:0.5;" width="127" x="16" y="7"/><ellipse cx="31" cy="23" fill="#ADD1B2" rx="11" ry="11" style="stroke:#181818;stroke-width:1.0;"/><path d="M33.4731,29.1431 Q32.8921,29.4419 32.2529,29.5913 Q31.6138,29.7407 30.9082,29.7407 Q28.4014,29.7407 27.0815,28.0889 Q25.7617,26.437 25.7617,23.3159 Q25.7617,20.1865 27.0815,18.5347 Q28.4014,16.8828 30.9082,16.8828 Q31.6138,16.8828 32.2612,17.0322 Q32.9087,17.1816 33.4731,17.4805 L33.4731,20.2031 Q32.8423,19.6221 32.2488,19.3523 Q31.6553,19.0825 31.0244,19.0825 Q29.6797,19.0825 28.9949,20.1492 Q28.3101,21.2158 28.3101,23.3159 Q28.3101,25.4077 28.9949,26.4744 Q29.6797,27.541 31.0244,27.541 Q31.6553,27.541 32.2488,27.2712 Q32.8423,27.0015 33.4731,26.4204 Z " fill="#000000"/><text fill="#000000" font-family="sans-serif" font-size="14" lengthAdjust="spacing" textLength="95" x="45" y="28.291">Administrator</text><line style="stroke:#181818;stroke-width:0.5;" x1="17" x2="142" y1="39" y2="39"/><line style="stroke:#181818;stroke-width:0.5;" x1="17" x2="142" y1="47" y2="47"/></g><!--MD5=[72be06cc7ae02ccc98efe28a50e62246]
class SNSUser--><g id="elem_SNSUser"><rect codeLine="5" fill="#F1F1F1" height="179.9063" id="SNSUser" rx="2.5" ry="2.5" style="stroke:#181818;stroke-width:0.5;" width="145" x="7" y="132"/><ellipse cx="47.2" cy="148" fill="#ADD1B2" rx="11" ry="11" style="stroke:#181818;stroke-width:1.0;"/><path d="M49.6731,154.1431 Q49.0921,154.4419 48.4529,154.5913 Q47.8138,154.7407 47.1082,154.7407 Q44.6014,154.7407 43.2815,153.0889 Q41.9617,151.437 41.9617,148.3159 Q41.9617,145.1865 43.2815,143.5347 Q44.6014,141.8828 47.1082,141.8828 Q47.8138,141.8828 48.4612,142.0322 Q49.1087,142.1816 49.6731,142.4805 L49.6731,145.2031 Q49.0423,144.6221 48.4488,144.3523 Q47.8553,144.0825 47.2244,144.0825 Q45.8797,144.0825 45.1949,145.1492 Q44.5101,146.2158 44.5101,148.3159 Q44.5101,150.4077 45.1949,151.4744 Q45.8797,152.541 47.2244,152.541 Q47.8553,152.541 48.4488,152.2712 Q49.0423,152.0015 49.6731,151.4204 Z " fill="#000000"/><text fill="#000000" font-family="sans-serif" font-size="14" lengthAdjust="spacing" textLength="57" x="66.8" y="153.291">SNSUser</text><line style="stroke:#181818;stroke-width:0.5;" x1="8" x2="151" y1="164" y2="164"/><text fill="#000000" font-family="sans-serif" font-size="14" lengthAdjust="spacing" textLength="38" x="13" y="181.5352">name</text><text fill="#000000" font-family="sans-serif" font-size="14" lengthAdjust="spacing" textLength="54" x="13" y="198.0234">address</text><text fill="#000000" font-family="sans-serif" font-size="14" lengthAdjust="spacing" textLength="49" x="13" y="214.5117">gender</text><text fill="#000000" font-family="sans-serif" font-size="14" lengthAdjust="spacing" textLength="99" x="13" y="231">phoneNumber</text><text fill="#000000" font-family="sans-serif" font-size="14" lengthAdjust="spacing" textLength="64" x="13" y="247.4883">birthDate</text><text fill="#000000" font-family="sans-serif" font-size="14" lengthAdjust="spacing" textLength="93" x="13" y="263.9766">emailAddress</text><text fill="#000000" font-family="sans-serif" font-size="14" lengthAdjust="spacing" textLength="109" x="13" y="280.4648">snsUserNumber</text><text fill="#000000" font-family="sans-serif" font-size="14" lengthAdjust="spacing" textLength="133" x="13" y="296.9531">citizenCardNumber</text><line style="stroke:#181818;stroke-width:0.5;" x1="8" x2="151" y1="303.9063" y2="303.9063"/></g><!--MD5=[2b5fc2dce8eec1aafb1a3721aa50d3a4]
link Administrator to SNSUser--><g id="link_Administrator_SNSUser"><path codeLine="16" d="M79.5,55.18 C79.5,74.59 79.5,103.62 79.5,131.98 " fill="none" id="Administrator-SNSUser" style="stroke:#181818;stroke-width:1.0;"/><polygon fill="#000000" points="84.5,98.6553,87.4389,89.6102,81.5611,89.6102,84.5,98.6553" style="stroke:#000000;stroke-width:1.0;"/><text fill="#000000" font-family="sans-serif" font-size="13" lengthAdjust="spacing" textLength="153" x="93.5" y="98.5684">registers and configures</text><text fill="#000000" font-family="sans-serif" font-size="13" lengthAdjust="spacing" textLength="8" x="70.525" y="75.5082">1</text><text fill="#000000" font-family="sans-serif" font-size="13" lengthAdjust="spacing" textLength="6" x="73.2422" y="121.1851">*</text></g><!--MD5=[59e626357ca7a112bebeb65f6beb9055]
@startuml
'https://plantuml.com/class-diagram

class Administrator

class SNSUser{
name
address
gender
phoneNumber
birthDate
emailAddress
snsUserNumber
citizenCardNumber
}

Administrator "1" -down- "*" SNSUser : registers and configures >

@enduml

@startuml

class Administrator

class SNSUser{
name
address
gender
phoneNumber
birthDate
emailAddress
snsUserNumber
citizenCardNumber
}

Administrator "1" -down- "*" SNSUser : registers and configures >

@enduml

PlantUML version 1.2022.5(Sat Apr 30 11:55:52 WEST 2022)
(GPL source distribution)
Java Runtime: OpenJDK Runtime Environment
JVM: OpenJDK 64-Bit Server VM
Default Encoding: UTF-8
Language: en
Country: PT
--></g></svg>