<?xml version="1.0" encoding="UTF-8" standalone="no"?><svg xmlns="http://www.w3.org/2000/svg" xmlns:xlink="http://www.w3.org/1999/xlink" contentStyleType="text/css" height="1580px" preserveAspectRatio="none" style="width:498px;height:1580px;background:#FFFFFF;" version="1.1" viewBox="0 0 498 1580" width="498px" zoomAndPan="magnify"><defs/><g><!--MD5=[dfd4219ae26b16e6e974a23a737c25b1]
entity Coordinator--><g id="elem_Coordinator"><ellipse cx="45" cy="1391" fill="#F1F1F1" rx="8" ry="8" style="stroke:#181818;stroke-width:0.5;"/><path d="M45,1399 L45,1426 M32,1407 L58,1407 M45,1426 L32,1441 M45,1426 L58,1441 " fill="none" style="stroke:#181818;stroke-width:0.5;"/><text fill="#000000" font-family="sans-serif" font-size="14" lengthAdjust="spacing" textLength="75" x="7.5" y="1457.0332">Coordinator</text></g><g id="elem_UC015 Export Vaccination Statistics"><ellipse cx="318.4447" cy="1282.6889" fill="#F1F1F1" rx="128.9447" ry="28.1889" style="stroke:#181818;stroke-width:0.5;"/><text fill="#000000" font-family="sans-serif" font-size="14" lengthAdjust="spacing" textLength="224" x="206.4447" y="1286.4175">UC015 Export Vaccination Statistics</text></g><g id="elem_UC016 Analyze Center's Performance"><ellipse cx="318.5257" cy="1375.5051" fill="#F1F1F1" rx="135.5257" ry="29.5051" style="stroke:#181818;stroke-width:0.5;"/><text fill="#000000" font-family="sans-serif" font-size="14" lengthAdjust="spacing" textLength="238" x="199.5257" y="1379.2337">UC016 Analyze Center's Performance</text></g><g id="elem_UC017 Import Legacy System Data"><ellipse cx="318.5728" cy="1468.3146" fill="#F1F1F1" rx="127.0728" ry="27.8146" style="stroke:#181818;stroke-width:0.5;"/><text fill="#000000" font-family="sans-serif" font-size="14" lengthAdjust="spacing" textLength="220" x="208.5728" y="1472.0431">UC017 Import Legacy System Data</text></g><g id="elem_UC018 List all Vaccines"><ellipse cx="318.313" cy="1553.2626" fill="#F1F1F1" rx="94.313" ry="21.2626" style="stroke:#181818;stroke-width:0.5;"/><text fill="#000000" font-family="sans-serif" font-size="14" lengthAdjust="spacing" textLength="148" x="244.313" y="1556.9911">UC018 List all Vaccines</text></g><!--MD5=[dadd680571e2ee7a6b53223d26ce7e08]
entity Adm--><g id="elem_Adm"><ellipse cx="45" cy="980" fill="#F1F1F1" rx="8" ry="8" style="stroke:#181818;stroke-width:0.5;"/><path d="M45,988 L45,1015 M32,996 L58,996 M45,1015 L32,1030 M45,1015 L58,1030 " fill="none" style="stroke:#181818;stroke-width:0.5;"/><text fill="#000000" font-family="sans-serif" font-size="14" lengthAdjust="spacing" textLength="28" x="31" y="1046.0332">Adm</text></g><g id="elem_UC010 Register Employee"><ellipse cx="318.2928" cy="838.3586" fill="#F1F1F1" rx="102.2928" ry="22.8586" style="stroke:#181818;stroke-width:0.5;"/><text fill="#000000" font-family="sans-serif" font-size="14" lengthAdjust="spacing" textLength="166" x="235.2928" y="842.0871">UC010 Register Employee</text></g><g id="elem_UC011 List of Employees by Role"><ellipse cx="318.4113" cy="923.3823" fill="#F1F1F1" rx="122.4113" ry="26.8823" style="stroke:#181818;stroke-width:0.5;"/><text fill="#000000" font-family="sans-serif" font-size="14" lengthAdjust="spacing" textLength="210" x="213.4113" y="927.1108">UC011 List of Employees by Role</text></g><g id="elem_UC012 Specify Vaccine Type"><ellipse cx="318.4781" cy="1010.3956" fill="#F1F1F1" rx="109.9781" ry="24.3956" style="stroke:#181818;stroke-width:0.5;"/><text fill="#000000" font-family="sans-serif" font-size="14" lengthAdjust="spacing" textLength="183" x="226.9781" y="1014.1241">UC012 Specify Vaccine Type</text></g><g id="elem_UC013 Specify Administration Process"><ellipse cx="318.4415" cy="1100.2883" fill="#F1F1F1" rx="136.9415" ry="29.7883" style="stroke:#181818;stroke-width:0.5;"/><text fill="#000000" font-family="sans-serif" font-size="14" lengthAdjust="spacing" textLength="241" x="197.9415" y="1104.0168">UC013 Specify Administration Process</text></g><g id="elem_UC014 Load Users from CSV File"><ellipse cx="318.4113" cy="1192.3823" fill="#F1F1F1" rx="122.4113" ry="26.8823" style="stroke:#181818;stroke-width:0.5;"/><text fill="#000000" font-family="sans-serif" font-size="14" lengthAdjust="spacing" textLength="210" x="213.4113" y="1196.1108">UC014 Load Users from CSV File</text></g><!--MD5=[c8b2cb7ab209025f476c1467c68b906a]
entity Nurse--><g id="elem_Nurse"><ellipse cx="45" cy="590" fill="#F1F1F1" rx="8" ry="8" style="stroke:#181818;stroke-width:0.5;"/><path d="M45,598 L45,625 M32,606 L58,606 M45,625 L32,640 M45,625 L58,640 " fill="none" style="stroke:#181818;stroke-width:0.5;"/><text fill="#000000" font-family="sans-serif" font-size="14" lengthAdjust="spacing" textLength="37" x="26.5" y="656.0332">Nurse</text></g><g id="elem_UC005 Consult Waiting Room User's List"><ellipse cx="318.5463" cy="482.7093" fill="#F1F1F1" rx="144.0463" ry="31.2093" style="stroke:#181818;stroke-width:0.5;"/><text fill="#000000" font-family="sans-serif" font-size="14" lengthAdjust="spacing" textLength="256" x="190.5463" y="486.4378">UC005 Consult Waiting Room User's List</text></g><g id="elem_UC007 Record Adverse Reactions"><ellipse cx="318.705" cy="576.441" fill="#F1F1F1" rx="125.205" ry="27.441" style="stroke:#181818;stroke-width:0.5;"/><text fill="#000000" font-family="sans-serif" font-size="14" lengthAdjust="spacing" textLength="216" x="210.705" y="580.1695">UC007 Record Adverse Reactions</text></g><g id="elem_UC008 Administrate Vaccine"><ellipse cx="318.6585" cy="663.5317" fill="#F1F1F1" rx="108.1585" ry="24.0317" style="stroke:#181818;stroke-width:0.5;"/><text fill="#000000" font-family="sans-serif" font-size="14" lengthAdjust="spacing" textLength="179" x="229.1585" y="667.2602">UC008 Administrate Vaccine</text></g><g id="elem_UC009 Send User to Recovery Room"><ellipse cx="318.641" cy="751.6282" fill="#F1F1F1" rx="133.641" ry="29.1282" style="stroke:#181818;stroke-width:0.5;"/><text fill="#000000" font-family="sans-serif" font-size="14" lengthAdjust="spacing" textLength="234" x="201.641" y="755.3567">UC009 Send User to Recovery Room</text></g><!--MD5=[abea0b42432aea0f9ce66e53feda8644]
entity System--><g id="elem_System"><ellipse cx="45" cy="348" fill="#F1F1F1" rx="8" ry="8" style="stroke:#181818;stroke-width:0.5;"/><path d="M45,356 L45,383 M32,364 L58,364 M45,383 L32,398 M45,383 L58,398 " fill="none" style="stroke:#181818;stroke-width:0.5;"/><text fill="#000000" font-family="sans-serif" font-size="14" lengthAdjust="spacing" textLength="46" x="22" y="414.0332">System</text></g><g id="elem_UC006 Record Daily Number of People Vaccinated"><ellipse cx="318.2551" cy="378.251" fill="#F1F1F1" rx="174.2551" ry="37.251" style="stroke:#181818;stroke-width:0.5;"/><text fill="#000000" font-family="sans-serif" font-size="14" lengthAdjust="spacing" textLength="319" x="158.7551" y="381.9795">UC006 Record Daily Number of People Vaccinated</text></g><!--MD5=[87a04b683345c3cce94ac9a6e159ab2f]
entity Receptionist--><g id="elem_Receptionist"><ellipse cx="45" cy="172" fill="#F1F1F1" rx="8" ry="8" style="stroke:#181818;stroke-width:0.5;"/><path d="M45,180 L45,207 M32,188 L58,188 M45,207 L32,222 M45,207 L58,222 " fill="none" style="stroke:#181818;stroke-width:0.5;"/><text fill="#000000" font-family="sans-serif" font-size="14" lengthAdjust="spacing" textLength="78" x="6" y="238.0332">Receptionist</text></g><g id="elem_UC002 Schedule Vaccine"><ellipse cx="318.613" cy="124.3226" fill="#F1F1F1" rx="99.613" ry="22.3226" style="stroke:#181818;stroke-width:0.5;"/><text fill="#000000" font-family="sans-serif" font-size="14" lengthAdjust="spacing" textLength="160" x="238.613" y="128.0511">UC002 Schedule Vaccine</text></g><g id="elem_UC003 Register User"><ellipse cx="318.3193" cy="202.4639" fill="#F1F1F1" rx="87.8193" ry="19.9639" style="stroke:#181818;stroke-width:0.5;"/><text fill="#000000" font-family="sans-serif" font-size="14" lengthAdjust="spacing" textLength="133" x="251.8193" y="206.1924">UC003 Register User</text></g><g id="elem_UC004 Register User Arrival"><ellipse cx="318.2512" cy="281.3502" fill="#F1F1F1" rx="107.2512" ry="23.8502" style="stroke:#181818;stroke-width:0.5;"/><text fill="#000000" font-family="sans-serif" font-size="14" lengthAdjust="spacing" textLength="177" x="229.7512" y="285.0788">UC004 Register User Arrival</text></g><!--MD5=[fee662a292a0353a69bd162820bae93b]
entity User--><g id="elem_User"><ellipse cx="45" cy="14" fill="#F1F1F1" rx="8" ry="8" style="stroke:#181818;stroke-width:0.5;"/><path d="M45,22 L45,49 M32,30 L58,30 M45,49 L32,64 M45,49 L58,64 " fill="none" style="stroke:#181818;stroke-width:0.5;"/><text fill="#000000" font-family="sans-serif" font-size="14" lengthAdjust="spacing" textLength="60" x="15" y="80.0332">SNS User</text></g><g id="elem_UC001 Schedule Vaccine"><ellipse cx="318.613" cy="44.3226" fill="#F1F1F1" rx="99.613" ry="22.3226" style="stroke:#181818;stroke-width:0.5;"/><text fill="#000000" font-family="sans-serif" font-size="14" lengthAdjust="spacing" textLength="160" x="238.613" y="48.0511">UC001 Schedule Vaccine</text></g><!--MD5=[01f43ba0f9cdf701d1f2bf41aa122736]
link Coordinator to UC015 Export Vaccination Statistics--><g id="link_Coordinator_UC015 Export Vaccination Statistics"><path d="M78.78,1382.26 C96.35,1363.51 119.42,1342.22 144,1328.5 C164.96,1316.8 189.01,1307.98 212.4,1301.36 " fill="none" id="Coordinator-to-UC015 Export Vaccination Statistics" style="stroke:#181818;stroke-width:1.0;"/><polygon fill="#181818" points="217.37,1299.98,207.6302,1298.5183,212.5502,1301.3101,209.7584,1306.2301,217.37,1299.98" style="stroke:#181818;stroke-width:1.0;"/></g><!--MD5=[bb1340728452cf34bc5ec02754322484]
link Coordinator to UC016 Analyze Center's Performance--><g id="link_Coordinator_UC016 Analyze Center's Performance"><path d="M82.62,1415.3 C114.32,1409.92 161.89,1401.86 205.95,1394.4 " fill="none" id="Coordinator-to-UC016 Analyze Center's Performance" style="stroke:#181818;stroke-width:1.0;"/><polygon fill="#181818" points="211.03,1393.54,201.4914,1391.0875,206.0992,1394.3689,202.8177,1398.9767,211.03,1393.54" style="stroke:#181818;stroke-width:1.0;"/></g><!--MD5=[915599528551ba3c1a2c4db6d064a567]
link Coordinator to UC017 Import Legacy System Data--><g id="link_Coordinator_UC017 Import Legacy System Data"><path d="M82.62,1427.84 C116.06,1433.63 167.16,1442.47 213.17,1450.44 " fill="none" id="Coordinator-to-UC017 Import Legacy System Data" style="stroke:#181818;stroke-width:1.0;"/><polygon fill="#181818" points="218.18,1451.31,209.9985,1445.8271,213.2539,1450.4533,208.6277,1453.7088,218.18,1451.31" style="stroke:#181818;stroke-width:1.0;"/></g><!--MD5=[c6b2dccdb3e6b153ac32d639dacd69b7]
link Coordinator to UC018 List all Vaccines--><g id="link_Coordinator_UC018 List all Vaccines"><path d="M78.13,1460.66 C95.7,1479.63 118.96,1501.14 144,1514.5 C169.77,1528.25 200.19,1537.16 228.3,1542.94 " fill="none" id="Coordinator-to-UC018 List all Vaccines" style="stroke:#181818;stroke-width:1.0;"/><polygon fill="#181818" points="233.52,1543.98,225.4697,1538.3062,228.6155,1543.0077,223.914,1546.1534,233.52,1543.98" style="stroke:#181818;stroke-width:1.0;"/></g><!--MD5=[cc56e4548ca4c4d28405062c9abd02f3]
link Adm to UC010 Register Employee--><g id="link_Adm_UC010 Register Employee"><path d="M59.06,983.17 C74.89,953.04 104.45,905.43 144,879.5 C166.45,864.78 193.59,855.33 219.68,849.27 " fill="none" id="Adm-to-UC010 Register Employee" style="stroke:#181818;stroke-width:1.0;"/><polygon fill="#181818" points="224.89,848.1,215.23,846.1806,220.0128,849.2013,216.9921,853.9841,224.89,848.1" style="stroke:#181818;stroke-width:1.0;"/></g><!--MD5=[cb419b51db24be759ce3c1e3a910f94c]
link Adm to UC011 List of Employees by Role--><g id="link_Adm_UC011 List of Employees by Role"><path d="M59.07,1004.15 C77.62,995.3 112.82,979.16 144,968.5 C170.75,959.36 200.36,951.04 227.44,944.11 " fill="none" id="Adm-to-UC011 List of Employees by Role" style="stroke:#181818;stroke-width:1.0;"/><polygon fill="#181818" points="232.46,942.83,222.7539,941.1591,227.6127,944.0561,224.7157,948.9148,232.46,942.83" style="stroke:#181818;stroke-width:1.0;"/></g><!--MD5=[5fbadfa78faa50f8315f703a9391f975]
link Adm to UC012 Specify Vaccine Type--><g id="link_Adm_UC012 Specify Vaccine Type"><path d="M59.1,1010.5 C85.37,1010.5 146.82,1010.5 203.21,1010.5 " fill="none" id="Adm-to-UC012 Specify Vaccine Type" style="stroke:#181818;stroke-width:1.0;"/><polygon fill="#181818" points="208.3,1010.5,199.3,1006.5,203.3,1010.5,199.3,1014.5,208.3,1010.5" style="stroke:#181818;stroke-width:1.0;"/></g><!--MD5=[6dd1a9d5dabd7655dd4505f366a1e9f1]
link Adm to UC013 Specify Administration Process--><g id="link_Adm_UC013 Specify Administration Process"><path d="M59.09,1016.78 C77.67,1025.55 112.91,1041.59 144,1052.5 C169.02,1061.28 196.51,1069.51 222.09,1076.59 " fill="none" id="Adm-to-UC013 Specify Administration Process" style="stroke:#181818;stroke-width:1.0;"/><polygon fill="#181818" points="227.18,1077.99,219.5684,1071.7399,222.3602,1076.6599,217.4402,1079.4517,227.18,1077.99" style="stroke:#181818;stroke-width:1.0;"/></g><!--MD5=[187503625536c06e5bb38112916b3426]
link Adm to UC014 Load Users from CSV File--><g id="link_Adm_UC014 Load Users from CSV File"><path d="M59.04,1039.74 C74.68,1071.39 103.89,1121.01 144,1148.5 C163.14,1161.62 185.89,1170.83 208.5,1177.3 " fill="none" id="Adm-to-UC014 Load Users from CSV File" style="stroke:#181818;stroke-width:1.0;"/><polygon fill="#181818" points="213.32,1178.63,205.7256,1172.359,208.5038,1177.2866,203.5762,1180.0648,213.32,1178.63" style="stroke:#181818;stroke-width:1.0;"/></g><!--MD5=[2e7ba532a89c241ee01d27cdf9a88de2]
link Nurse to UC005 Consult Waiting Room User's List--><g id="link_Nurse_UC005 Consult Waiting Room User's List"><path d="M63.78,599.48 C81.98,579.26 112.04,549.22 144,531.5 C163.6,520.63 185.8,512.01 207.62,505.23 " fill="none" id="Nurse-to-UC005 Consult Waiting Room User's List" style="stroke:#181818;stroke-width:1.0;"/><polygon fill="#181818" points="212.56,503.73,202.7851,502.5249,207.7768,505.1864,205.1153,510.178,212.56,503.73" style="stroke:#181818;stroke-width:1.0;"/></g><!--MD5=[8090229758a82128717f619eeff669cb]
link Nurse to UC007 Record Adverse Reactions--><g id="link_Nurse_UC007 Record Adverse Reactions"><path d="M63.81,617.61 C93.82,612.75 156.61,602.57 212.21,593.56 " fill="none" id="Nurse-to-UC007 Record Adverse Reactions" style="stroke:#181818;stroke-width:1.0;"/><polygon fill="#181818" points="217.22,592.75,207.6965,590.2393,212.2842,593.5489,208.9747,598.1366,217.22,592.75" style="stroke:#181818;stroke-width:1.0;"/></g><!--MD5=[2aecc437bf239f1198e7bc7a15364d5c]
link Nurse to UC008 Administrate Vaccine--><g id="link_Nurse_UC008 Administrate Vaccine"><path d="M63.81,623.32 C96.11,628.44 166.38,639.57 224.8,648.82 " fill="none" id="Nurse-to-UC008 Administrate Vaccine" style="stroke:#181818;stroke-width:1.0;"/><polygon fill="#181818" points="230.05,649.65,221.7896,644.2867,225.112,648.8651,220.5336,652.1875,230.05,649.65" style="stroke:#181818;stroke-width:1.0;"/></g><!--MD5=[ba81e1fa8d277825c33838d6a6c7f309]
link Nurse to UC009 Send User to Recovery Room--><g id="link_Nurse_UC009 Send User to Recovery Room"><path d="M63.57,640.28 C81.83,659.65 112.15,688.64 144,705.5 C164.7,716.46 188.2,724.94 211.07,731.47 " fill="none" id="Nurse-to-UC009 Send User to Recovery Room" style="stroke:#181818;stroke-width:1.0;"/><polygon fill="#181818" points="215.94,732.83,208.3456,726.559,211.1238,731.4866,206.1962,734.2648,215.94,732.83" style="stroke:#181818;stroke-width:1.0;"/></g><!--MD5=[c72aed6470ff07f5e98081900ae0993c]
link System to UC006 Record Daily Number of People Vaccinated--><g id="link_System_UC006 Record Daily Number of People Vaccinated"><path d="M68.22,378.5 C85.27,378.5 110.58,378.5 138.64,378.5 " fill="none" id="System-to-UC006 Record Daily Number of People Vaccinated" style="stroke:#181818;stroke-width:1.0;"/><polygon fill="#181818" points="143.91,378.5,134.91,374.5,138.91,378.5,134.91,382.5,143.91,378.5" style="stroke:#181818;stroke-width:1.0;"/></g><!--MD5=[6ada03aeceabc0eb4d59d8f259fa6088]
link Receptionist to UC002 Schedule Vaccine--><g id="link_Receptionist_UC002 Schedule Vaccine"><path d="M84.24,186.75 C102.19,179.7 124,171.61 144,165.5 C174.78,156.1 209.18,147.57 239.18,140.75 " fill="none" id="Receptionist-to-UC002 Schedule Vaccine" style="stroke:#181818;stroke-width:1.0;"/><polygon fill="#181818" points="244.34,139.59,234.6812,137.6645,239.4621,140.6882,236.4384,145.4691,244.34,139.59" style="stroke:#181818;stroke-width:1.0;"/></g><!--MD5=[7d9b88f40cf6ed3977ce0494eb70360d]
link Receptionist to UC003 Register User--><g id="link_Receptionist_UC003 Register User"><path d="M84.04,202.5 C120.44,202.5 176.77,202.5 224.99,202.5 " fill="none" id="Receptionist-to-UC003 Register User" style="stroke:#181818;stroke-width:1.0;"/><polygon fill="#181818" points="230.22,202.5,221.22,198.5,225.22,202.5,221.22,206.5,230.22,202.5" style="stroke:#181818;stroke-width:1.0;"/></g><!--MD5=[cbd3a851df647e592eb46783d5fc46e3]
link Receptionist to UC004 Register User Arrival--><g id="link_Receptionist_UC004 Register User Arrival"><path d="M84.2,218.72 C102.15,225.98 123.96,234.28 144,240.5 C172.92,249.48 205.08,257.58 233.77,264.17 " fill="none" id="Receptionist-to-UC004 Register User Arrival" style="stroke:#181818;stroke-width:1.0;"/><polygon fill="#181818" points="238.72,265.3,230.8385,259.3939,233.8459,264.1851,229.0547,267.1925,238.72,265.3" style="stroke:#181818;stroke-width:1.0;"/></g><!--MD5=[b078458f885bed099a0587ed8d3f80e8]
link User to UC001 Schedule Vaccine--><g id="link_User_UC001 Schedule Vaccine"><path d="M75.06,44.5 C108.12,44.5 163.99,44.5 213.78,44.5 " fill="none" id="User-to-UC001 Schedule Vaccine" style="stroke:#181818;stroke-width:1.0;"/><polygon fill="#181818" points="218.88,44.5,209.88,40.5,213.88,44.5,209.88,48.5,218.88,44.5" style="stroke:#181818;stroke-width:1.0;"/></g><!--MD5=[465af9c0b828c26a9253588b8476f2d1]
@startuml
left to right direction
skinparam packageStyle rect

Coordinator - -> (UC015 Export Vaccination Statistics)
Coordinator - -> (UC016 Analyze Center's Performance)
Coordinator - -> (UC017 Import Legacy System Data)
Coordinator - -> (UC018 List all Vaccines)

Adm - -> (UC010 Register Employee)
Adm - -> (UC011 List of Employees by Role)
Adm - -> (UC012 Specify Vaccine Type)
Adm - -> (UC013 Specify Administration Process)
Adm - -> (UC014 Load Users from CSV File)

Nurse - -> (UC005 Consult Waiting Room User's List)
Nurse - -> (UC007 Record Adverse Reactions)
Nurse - -> (UC008 Administrate Vaccine)
Nurse - -> (UC009 Send User to Recovery Room)

System - -> (UC006 Record Daily Number of People Vaccinated)

Receptionist - -> (UC002 Schedule Vaccine)
Receptionist - -> (UC003 Register User)
Receptionist - -> (UC004 Register User Arrival)


:SNS User: as User

User - -> (UC001 Schedule Vaccine)



@enduml

PlantUML version 1.2022.5(Sat Apr 30 11:55:52 BST 2022)
(GPL source distribution)
Java Runtime: OpenJDK Runtime Environment
JVM: OpenJDK 64-Bit Server VM
Default Encoding: Cp1252
Language: en
Country: GB
--></g></svg>