<?xml version="1.0" encoding="UTF-8" standalone="no"?><svg xmlns="http://www.w3.org/2000/svg" xmlns:xlink="http://www.w3.org/1999/xlink" contentScriptType="application/ecmascript" contentStyleType="text/css" height="810px" preserveAspectRatio="none" style="width:475px;height:810px;background:#FFFFFF;" version="1.1" viewBox="0 0 475 810" width="475px" zoomAndPan="magnify"><defs><filter height="300%" id="fmzpy74lf9xvh" width="300%" x="-1" y="-1"><feGaussianBlur result="blurOut" stdDeviation="2.0"/><feColorMatrix in="blurOut" result="blurOut2" type="matrix" values="0 0 0 0 0 0 0 0 0 0 0 0 0 0 0 0 0 0 .4 0"/><feOffset dx="4.0" dy="4.0" in="blurOut2" result="blurOut3"/><feBlend in="SourceGraphic" in2="blurOut3" mode="normal"/></filter></defs><g><!--MD5=[cd4ce1c0d44638ff9f42448de30e6b92]
class VaccineSchedule--><rect codeLine="3" fill="#FEFECE" filter="url(#fmzpy74lf9xvh)" height="117.1797" id="VaccineSchedule" style="stroke:#A80036;stroke-width:1.5;" width="127" x="232" y="271.5"/><ellipse cx="247" cy="287.5" fill="#ADD1B2" rx="11" ry="11" style="stroke:#A80036;stroke-width:1.0;"/><path d="M249,284 Q249.2031,283.5 249.4375,283.25 Q249.6719,283 249.9375,283 Q250.4063,283 250.7031,283.2813 Q251,283.5625 251,284.2188 L251,285.7813 Q251,286.4375 250.7188,286.7188 Q250.4375,287 250,287 Q249.6094,287 249.3594,286.8281 Q249.1094,286.6563 249,286.2031 Q248.9531,285.8906 248.7813,285.7188 Q248.4688,285.3906 247.9063,285.2031 Q247.3438,285 246.7813,285 Q246.0781,285 245.4844,285.2813 Q244.9063,285.5625 244.4531,286.1875 Q244,286.8125 244,287.6719 L244,288.5938 Q244,289.625 244.8438,290.3125 Q245.6875,291 247.1875,291 Q248.0781,291 248.7031,290.7969 Q249.0625,290.6875 249.4688,290.3281 Q249.7344,290.125 249.875,290.0625 Q250.0156,290 250.1875,290 Q250.5156,290 250.75,290.2656 Q251,290.5156 251,290.875 Q251,291.2188 250.6563,291.625 Q250.1563,292.2188 249.3594,292.5469 Q248.3125,293 247.0313,293 Q245.5313,293 244.3281,292.4063 Q243.3594,291.9375 242.6719,290.9219 Q242,289.9063 242,288.7031 L242,287.6094 Q242,286.3594 242.5938,285.2656 Q243.2031,284.1719 244.25,283.5938 Q245.3125,283 246.5,283 Q247.2188,283 247.8438,283.25 Q248.4688,283.5 249,284 Z " fill="#000000"/><text fill="#000000" font-family="sans-serif" font-size="12" lengthAdjust="spacing" textLength="95" x="261" y="292.4102">VaccineSchedule</text><line style="stroke:#A80036;stroke-width:1.5;" x1="233" x2="358" y1="303.5" y2="303.5"/><text fill="#000000" font-family="sans-serif" font-size="11" lengthAdjust="spacing" textLength="21" x="238" y="318.9189">date</text><text fill="#000000" font-family="sans-serif" font-size="11" lengthAdjust="spacing" textLength="19" x="238" y="332.7549">time</text><text fill="#000000" font-family="sans-serif" font-size="11" lengthAdjust="spacing" textLength="59" x="238" y="346.5908">userNumber</text><text fill="#000000" font-family="sans-serif" font-size="11" lengthAdjust="spacing" textLength="87" x="238" y="360.4268">vaccinationCenter</text><text fill="#000000" font-family="sans-serif" font-size="11" lengthAdjust="spacing" textLength="99" x="238" y="374.2627">scheduleVerification</text><line style="stroke:#A80036;stroke-width:1.5;" x1="233" x2="358" y1="380.6797" y2="380.6797"/><!--MD5=[76b5e19c9337179d2d7ae334371d68c8]
class Notification--><rect codeLine="11" fill="#FEFECE" filter="url(#fmzpy74lf9xvh)" height="48" id="Notification" style="stroke:#A80036;stroke-width:1.5;" width="93" x="325" y="28"/><ellipse cx="340" cy="44" fill="#ADD1B2" rx="11" ry="11" style="stroke:#A80036;stroke-width:1.0;"/><path d="M342,40.5 Q342.2031,40 342.4375,39.75 Q342.6719,39.5 342.9375,39.5 Q343.4063,39.5 343.7031,39.7813 Q344,40.0625 344,40.7188 L344,42.2813 Q344,42.9375 343.7188,43.2188 Q343.4375,43.5 343,43.5 Q342.6094,43.5 342.3594,43.3281 Q342.1094,43.1563 342,42.7031 Q341.9531,42.3906 341.7813,42.2188 Q341.4688,41.8906 340.9063,41.7031 Q340.3438,41.5 339.7813,41.5 Q339.0781,41.5 338.4844,41.7813 Q337.9063,42.0625 337.4531,42.6875 Q337,43.3125 337,44.1719 L337,45.0938 Q337,46.125 337.8438,46.8125 Q338.6875,47.5 340.1875,47.5 Q341.0781,47.5 341.7031,47.2969 Q342.0625,47.1875 342.4688,46.8281 Q342.7344,46.625 342.875,46.5625 Q343.0156,46.5 343.1875,46.5 Q343.5156,46.5 343.75,46.7656 Q344,47.0156 344,47.375 Q344,47.7188 343.6563,48.125 Q343.1563,48.7188 342.3594,49.0469 Q341.3125,49.5 340.0313,49.5 Q338.5313,49.5 337.3281,48.9063 Q336.3594,48.4375 335.6719,47.4219 Q335,46.4063 335,45.2031 L335,44.1094 Q335,42.8594 335.5938,41.7656 Q336.2031,40.6719 337.25,40.0938 Q338.3125,39.5 339.5,39.5 Q340.2188,39.5 340.8438,39.75 Q341.4688,40 342,40.5 Z " fill="#000000"/><text fill="#000000" font-family="sans-serif" font-size="12" lengthAdjust="spacing" textLength="61" x="354" y="48.9102">Notification</text><line style="stroke:#A80036;stroke-width:1.5;" x1="326" x2="417" y1="60" y2="60"/><line style="stroke:#A80036;stroke-width:1.5;" x1="326" x2="417" y1="68" y2="68"/><!--MD5=[72be06cc7ae02ccc98efe28a50e62246]
class SNSUser--><rect codeLine="13" fill="#FEFECE" filter="url(#fmzpy74lf9xvh)" height="158.6875" id="SNSUser" style="stroke:#A80036;stroke-width:1.5;" width="103" x="156" y="638"/><ellipse cx="179.55" cy="654" fill="#ADD1B2" rx="11" ry="11" style="stroke:#A80036;stroke-width:1.0;"/><path d="M181.55,650.5 Q181.7531,650 181.9875,649.75 Q182.2219,649.5 182.4875,649.5 Q182.9563,649.5 183.2531,649.7813 Q183.55,650.0625 183.55,650.7188 L183.55,652.2813 Q183.55,652.9375 183.2688,653.2188 Q182.9875,653.5 182.55,653.5 Q182.1594,653.5 181.9094,653.3281 Q181.6594,653.1563 181.55,652.7031 Q181.5031,652.3906 181.3313,652.2188 Q181.0188,651.8906 180.4563,651.7031 Q179.8938,651.5 179.3313,651.5 Q178.6281,651.5 178.0344,651.7813 Q177.4563,652.0625 177.0031,652.6875 Q176.55,653.3125 176.55,654.1719 L176.55,655.0938 Q176.55,656.125 177.3938,656.8125 Q178.2375,657.5 179.7375,657.5 Q180.6281,657.5 181.2531,657.2969 Q181.6125,657.1875 182.0188,656.8281 Q182.2844,656.625 182.425,656.5625 Q182.5656,656.5 182.7375,656.5 Q183.0656,656.5 183.3,656.7656 Q183.55,657.0156 183.55,657.375 Q183.55,657.7188 183.2063,658.125 Q182.7063,658.7188 181.9094,659.0469 Q180.8625,659.5 179.5813,659.5 Q178.0813,659.5 176.8781,658.9063 Q175.9094,658.4375 175.2219,657.4219 Q174.55,656.4063 174.55,655.2031 L174.55,654.1094 Q174.55,652.8594 175.1438,651.7656 Q175.7531,650.6719 176.8,650.0938 Q177.8625,649.5 179.05,649.5 Q179.7688,649.5 180.3938,649.75 Q181.0188,650 181.55,650.5 Z " fill="#000000"/><text fill="#000000" font-family="sans-serif" font-size="12" lengthAdjust="spacing" textLength="52" x="195.45" y="658.9102">SNSUser</text><line style="stroke:#A80036;stroke-width:1.5;" x1="157" x2="258" y1="670" y2="670"/><text fill="#000000" font-family="sans-serif" font-size="11" lengthAdjust="spacing" textLength="26" x="162" y="685.4189">name</text><text fill="#000000" font-family="sans-serif" font-size="11" lengthAdjust="spacing" textLength="40" x="162" y="699.2549">address</text><text fill="#000000" font-family="sans-serif" font-size="11" lengthAdjust="spacing" textLength="34" x="162" y="713.0908">gender</text><text fill="#000000" font-family="sans-serif" font-size="11" lengthAdjust="spacing" textLength="67" x="162" y="726.9268">phoneNumber</text><text fill="#000000" font-family="sans-serif" font-size="11" lengthAdjust="spacing" textLength="43" x="162" y="740.7627">birthDate</text><text fill="#000000" font-family="sans-serif" font-size="11" lengthAdjust="spacing" textLength="66" x="162" y="754.5986">emailAddress</text><text fill="#000000" font-family="sans-serif" font-size="11" lengthAdjust="spacing" textLength="78" x="162" y="768.4346">snsUserNumber</text><text fill="#000000" font-family="sans-serif" font-size="11" lengthAdjust="spacing" textLength="91" x="162" y="782.2705">citizenCardNumber</text><line style="stroke:#A80036;stroke-width:1.5;" x1="157" x2="258" y1="788.6875" y2="788.6875"/><!--MD5=[0e501da62322464167c8ec4d233a6b7e]
class VaccineType--><rect codeLine="24" fill="#FEFECE" filter="url(#fmzpy74lf9xvh)" height="89.5078" id="VaccineType" style="stroke:#A80036;stroke-width:1.5;" width="106" x="166.5" y="7"/><ellipse cx="183.75" cy="23" fill="#ADD1B2" rx="11" ry="11" style="stroke:#A80036;stroke-width:1.0;"/><path d="M185.75,19.5 Q185.9531,19 186.1875,18.75 Q186.4219,18.5 186.6875,18.5 Q187.1563,18.5 187.4531,18.7813 Q187.75,19.0625 187.75,19.7188 L187.75,21.2813 Q187.75,21.9375 187.4688,22.2188 Q187.1875,22.5 186.75,22.5 Q186.3594,22.5 186.1094,22.3281 Q185.8594,22.1563 185.75,21.7031 Q185.7031,21.3906 185.5313,21.2188 Q185.2188,20.8906 184.6563,20.7031 Q184.0938,20.5 183.5313,20.5 Q182.8281,20.5 182.2344,20.7813 Q181.6563,21.0625 181.2031,21.6875 Q180.75,22.3125 180.75,23.1719 L180.75,24.0938 Q180.75,25.125 181.5938,25.8125 Q182.4375,26.5 183.9375,26.5 Q184.8281,26.5 185.4531,26.2969 Q185.8125,26.1875 186.2188,25.8281 Q186.4844,25.625 186.625,25.5625 Q186.7656,25.5 186.9375,25.5 Q187.2656,25.5 187.5,25.7656 Q187.75,26.0156 187.75,26.375 Q187.75,26.7188 187.4063,27.125 Q186.9063,27.7188 186.1094,28.0469 Q185.0625,28.5 183.7813,28.5 Q182.2813,28.5 181.0781,27.9063 Q180.1094,27.4375 179.4219,26.4219 Q178.75,25.4063 178.75,24.2031 L178.75,23.1094 Q178.75,21.8594 179.3438,20.7656 Q179.9531,19.6719 181,19.0938 Q182.0625,18.5 183.25,18.5 Q183.9688,18.5 184.5938,18.75 Q185.2188,19 185.75,19.5 Z " fill="#000000"/><text fill="#000000" font-family="sans-serif" font-size="12" lengthAdjust="spacing" textLength="69" x="198.25" y="27.9102">VaccineType</text><line style="stroke:#A80036;stroke-width:1.5;" x1="167.5" x2="271.5" y1="39" y2="39"/><text fill="#000000" font-family="sans-serif" font-size="11" lengthAdjust="spacing" textLength="24" x="172.5" y="54.4189">code</text><text fill="#000000" font-family="sans-serif" font-size="11" lengthAdjust="spacing" textLength="55" x="172.5" y="68.2549">designation</text><text fill="#000000" font-family="sans-serif" font-size="11" lengthAdjust="spacing" textLength="94" x="172.5" y="82.0908">vaccineTechnology</text><line style="stroke:#A80036;stroke-width:1.5;" x1="167.5" x2="271.5" y1="88.5078" y2="88.5078"/><!--MD5=[de60e6d4f424ae4d0522096f76a59010]
class VaccinationCenter--><rect codeLine="30" fill="#FEFECE" filter="url(#fmzpy74lf9xvh)" height="186.3594" id="VaccinationCenter" style="stroke:#A80036;stroke-width:1.5;" width="133" x="7" y="237"/><ellipse cx="22.45" cy="253" fill="#ADD1B2" rx="11" ry="11" style="stroke:#A80036;stroke-width:1.0;"/><path d="M24.45,249.5 Q24.6531,249 24.8875,248.75 Q25.1219,248.5 25.3875,248.5 Q25.8563,248.5 26.1531,248.7813 Q26.45,249.0625 26.45,249.7188 L26.45,251.2813 Q26.45,251.9375 26.1688,252.2188 Q25.8875,252.5 25.45,252.5 Q25.0594,252.5 24.8094,252.3281 Q24.5594,252.1563 24.45,251.7031 Q24.4031,251.3906 24.2313,251.2188 Q23.9188,250.8906 23.3563,250.7031 Q22.7938,250.5 22.2313,250.5 Q21.5281,250.5 20.9344,250.7813 Q20.3563,251.0625 19.9031,251.6875 Q19.45,252.3125 19.45,253.1719 L19.45,254.0938 Q19.45,255.125 20.2938,255.8125 Q21.1375,256.5 22.6375,256.5 Q23.5281,256.5 24.1531,256.2969 Q24.5125,256.1875 24.9188,255.8281 Q25.1844,255.625 25.325,255.5625 Q25.4656,255.5 25.6375,255.5 Q25.9656,255.5 26.2,255.7656 Q26.45,256.0156 26.45,256.375 Q26.45,256.7188 26.1063,257.125 Q25.6063,257.7188 24.8094,258.0469 Q23.7625,258.5 22.4813,258.5 Q20.9813,258.5 19.7781,257.9063 Q18.8094,257.4375 18.1219,256.4219 Q17.45,255.4063 17.45,254.2031 L17.45,253.1094 Q17.45,251.8594 18.0438,250.7656 Q18.6531,249.6719 19.7,249.0938 Q20.7625,248.5 21.95,248.5 Q22.6688,248.5 23.2938,248.75 Q23.9188,249 24.45,249.5 Z " fill="#000000"/><text fill="#000000" font-family="sans-serif" font-size="12" lengthAdjust="spacing" textLength="100" x="36.55" y="257.9102">VaccinationCenter</text><line style="stroke:#A80036;stroke-width:1.5;" x1="8" x2="139" y1="269" y2="269"/><text fill="#000000" font-family="sans-serif" font-size="11" lengthAdjust="spacing" textLength="26" x="13" y="284.4189">name</text><text fill="#000000" font-family="sans-serif" font-size="11" lengthAdjust="spacing" textLength="67" x="13" y="298.2549">phoneNumber</text><text fill="#000000" font-family="sans-serif" font-size="11" lengthAdjust="spacing" textLength="53" x="13" y="312.0908">faxNumber</text><text fill="#000000" font-family="sans-serif" font-size="11" lengthAdjust="spacing" textLength="68" x="13" y="325.9268">homeAddress</text><text fill="#000000" font-family="sans-serif" font-size="11" lengthAdjust="spacing" textLength="66" x="13" y="339.7627">emailAddress</text><text fill="#000000" font-family="sans-serif" font-size="11" lengthAdjust="spacing" textLength="81" x="13" y="353.5986">websiteAddress</text><text fill="#000000" font-family="sans-serif" font-size="11" lengthAdjust="spacing" textLength="67" x="13" y="367.4346">openingHours</text><text fill="#000000" font-family="sans-serif" font-size="11" lengthAdjust="spacing" textLength="63" x="13" y="381.2705">closingHours</text><text fill="#000000" font-family="sans-serif" font-size="11" lengthAdjust="spacing" textLength="57" x="13" y="395.1064">slotDuration</text><text fill="#000000" font-family="sans-serif" font-size="11" lengthAdjust="spacing" textLength="121" x="13" y="408.9424">maxNumVaccinesPerSlot</text><line style="stroke:#A80036;stroke-width:1.5;" x1="8" x2="139" y1="415.3594" y2="415.3594"/><!--MD5=[107cfa23aa516ff83d0cf17a6f9fe7ba]
class VaccineAdministration--><rect codeLine="43" fill="#FEFECE" filter="url(#fmzpy74lf9xvh)" height="75.6719" id="VaccineAdministration" style="stroke:#A80036;stroke-width:1.5;" width="154" x="307.5" y="501"/><ellipse cx="322.5" cy="517" fill="#ADD1B2" rx="11" ry="11" style="stroke:#A80036;stroke-width:1.0;"/><path d="M324.5,513.5 Q324.7031,513 324.9375,512.75 Q325.1719,512.5 325.4375,512.5 Q325.9063,512.5 326.2031,512.7813 Q326.5,513.0625 326.5,513.7188 L326.5,515.2813 Q326.5,515.9375 326.2188,516.2188 Q325.9375,516.5 325.5,516.5 Q325.1094,516.5 324.8594,516.3281 Q324.6094,516.1563 324.5,515.7031 Q324.4531,515.3906 324.2813,515.2188 Q323.9688,514.8906 323.4063,514.7031 Q322.8438,514.5 322.2813,514.5 Q321.5781,514.5 320.9844,514.7813 Q320.4063,515.0625 319.9531,515.6875 Q319.5,516.3125 319.5,517.1719 L319.5,518.0938 Q319.5,519.125 320.3438,519.8125 Q321.1875,520.5 322.6875,520.5 Q323.5781,520.5 324.2031,520.2969 Q324.5625,520.1875 324.9688,519.8281 Q325.2344,519.625 325.375,519.5625 Q325.5156,519.5 325.6875,519.5 Q326.0156,519.5 326.25,519.7656 Q326.5,520.0156 326.5,520.375 Q326.5,520.7188 326.1563,521.125 Q325.6563,521.7188 324.8594,522.0469 Q323.8125,522.5 322.5313,522.5 Q321.0313,522.5 319.8281,521.9063 Q318.8594,521.4375 318.1719,520.4219 Q317.5,519.4063 317.5,518.2031 L317.5,517.1094 Q317.5,515.8594 318.0938,514.7656 Q318.7031,513.6719 319.75,513.0938 Q320.8125,512.5 322,512.5 Q322.7188,512.5 323.3438,512.75 Q323.9688,513 324.5,513.5 Z " fill="#000000"/><text fill="#000000" font-family="sans-serif" font-size="12" lengthAdjust="spacing" textLength="122" x="336.5" y="521.9102">VaccineAdministration</text><line style="stroke:#A80036;stroke-width:1.5;" x1="308.5" x2="460.5" y1="533" y2="533"/><text fill="#000000" font-family="sans-serif" font-size="11" lengthAdjust="spacing" textLength="55" x="313.5" y="548.4189">designation</text><text fill="#000000" font-family="sans-serif" font-size="11" lengthAdjust="spacing" textLength="48" x="313.5" y="562.2549">ageGroup</text><line style="stroke:#A80036;stroke-width:1.5;" x1="308.5" x2="460.5" y1="568.6719" y2="568.6719"/><!--MD5=[1fe780c5042c93c38b83d74528355a6b]
link VaccinationCenter to VaccineSchedule--><path codeLine="49" d="M140.11,330 C169.23,330 203.23,330 231.99,330 " fill="none" id="VaccinationCenter-VaccineSchedule" style="stroke:#A80036;stroke-width:1.0;"/><polygon fill="#000000" points="167.5,318.1758,158.4549,315.2369,158.4549,321.1147,167.5,318.1758" style="stroke:#000000;stroke-width:1.0;"/><text fill="#000000" font-family="sans-serif" font-size="13" lengthAdjust="spacing" textLength="42" x="171.5" y="323.4951">fulfilling</text><text fill="#000000" font-family="sans-serif" font-size="13" lengthAdjust="spacing" textLength="22" x="148.1135" y="344.3197">0..1</text><text fill="#000000" font-family="sans-serif" font-size="13" lengthAdjust="spacing" textLength="22" x="201.8405" y="344.3795">0..1</text><!--MD5=[ecc31a84e2534092f0eabbadf1526e79]
link Notification to VaccineSchedule--><path codeLine="51" d="M365.15,76.06 C353.41,118.68 328,210.97 311.33,271.49 " fill="none" id="Notification-VaccineSchedule" style="stroke:#A80036;stroke-width:1.0;"/><polygon fill="#000000" points="348.8275,162.3552,343.5926,170.2954,349.2594,171.856,348.8275,162.3552" style="stroke:#000000;stroke-width:1.0;"/><text fill="#000000" font-family="sans-serif" font-size="13" lengthAdjust="spacing" textLength="32" x="356.5" y="172.4951">emits</text><text fill="#000000" font-family="sans-serif" font-size="13" lengthAdjust="spacing" textLength="22" x="338.9209" y="97.4126">0..1</text><text fill="#000000" font-family="sans-serif" font-size="13" lengthAdjust="spacing" textLength="7" x="305.9098" y="260.4745">1</text><!--MD5=[8e51fd2526d7ed1449c2aa4f1c32bf49]
link VaccineSchedule to SNSUser--><path codeLine="53" d="M265.95,388.85 C250.9,421.03 233.86,462.29 224.5,501 C213.74,545.5 209.38,596.53 207.75,637.76 " fill="none" id="VaccineSchedule-SNSUser" style="stroke:#A80036;stroke-width:1.0;"/><polygon fill="#000000" points="228.3616,544.0445,233.2827,535.9061,227.5592,534.5678,228.3616,544.0445" style="stroke:#000000;stroke-width:1.0;"/><text fill="#000000" font-family="sans-serif" font-size="13" lengthAdjust="spacing" textLength="50" x="238.5" y="544.4951">made for</text><text fill="#000000" font-family="sans-serif" font-size="13" lengthAdjust="spacing" textLength="5" x="257.2442" y="410.0846">*</text><text fill="#000000" font-family="sans-serif" font-size="13" lengthAdjust="spacing" textLength="7" x="200.4504" y="627.1972">1</text><!--MD5=[f6be7cdc65b3bb5ddb6a4a4767df2d99]
link VaccineType to VaccineSchedule--><path codeLine="54" d="M229.13,97.01 C234.47,120.54 241.44,149.95 248.5,176 C257.08,207.65 267.74,242.63 276.73,271.14 " fill="none" id="VaccineType-VaccineSchedule" style="stroke:#A80036;stroke-width:1.0;"/><polygon fill="#000000" points="252.1816,162.3527,251.7317,171.8527,257.4015,170.3028,252.1816,162.3527" style="stroke:#000000;stroke-width:1.0;"/><text fill="#000000" font-family="sans-serif" font-size="13" lengthAdjust="spacing" textLength="67" x="262.5" y="172.4951">administers</text><text fill="#000000" font-family="sans-serif" font-size="13" lengthAdjust="spacing" textLength="22" x="206.9373" y="118.019">0..1</text><text fill="#000000" font-family="sans-serif" font-size="13" lengthAdjust="spacing" textLength="7" x="267.0158" y="260.497">1</text><!--MD5=[3b876de517d62b3a52dcab1870863716]
link VaccineSchedule to VaccineAdministration--><path codeLine="56" d="M320.29,388.66 C335.72,424.55 355.11,469.65 368.53,500.85 " fill="none" id="VaccineSchedule-VaccineAdministration" style="stroke:#A80036;stroke-width:1.0;"/><polygon fill="#000000" points="360.4751,466.7692,359.602,457.2987,354.2022,459.6206,360.4751,466.7692" style="stroke:#000000;stroke-width:1.0;"/><text fill="#000000" font-family="sans-serif" font-size="13" lengthAdjust="spacing" textLength="21" x="367.5" y="467.4951">has</text><text fill="#000000" font-family="sans-serif" font-size="13" lengthAdjust="spacing" textLength="7" x="315.8847" y="410.2898">0</text><text fill="#000000" font-family="sans-serif" font-size="13" lengthAdjust="spacing" textLength="7" x="358.0619" y="490.1852">1</text><!--MD5=[73e5bcc8d5f3d0e8a4f8526dc6d49d39]
@startuml
'https://plantuml.com/sequence-diagram

class VaccineSchedule{
date
time
userNumber
vaccinationCenter
scheduleVerification
}

class Notification

class SNSUser{
name
address
gender
phoneNumber
birthDate
emailAddress
snsUserNumber
citizenCardNumber
}

class VaccineType{
code
designation
vaccineTechnology
}

class VaccinationCenter{
name
phoneNumber
faxNumber
homeAddress
emailAddress
websiteAddress
openingHours
closingHours
slotDuration
maxNumVaccinesPerSlot
}

class VaccineAdministration{
designation
ageGroup
}


VaccinationCenter "0..1" -right- "0..1" VaccineSchedule : > fulfilling

VaccineSchedule "1" -up- - "0..1" Notification : emits >

VaccineSchedule "*" -down- - "1" SNSUser : made for >
VaccineSchedule "1" -up- - "0..1" VaccineType : administers >

VaccineSchedule "0" - - "1" VaccineAdministration : has >
@enduml

@startuml

class VaccineSchedule{
date
time
userNumber
vaccinationCenter
scheduleVerification
}

class Notification

class SNSUser{
name
address
gender
phoneNumber
birthDate
emailAddress
snsUserNumber
citizenCardNumber
}

class VaccineType{
code
designation
vaccineTechnology
}

class VaccinationCenter{
name
phoneNumber
faxNumber
homeAddress
emailAddress
websiteAddress
openingHours
closingHours
slotDuration
maxNumVaccinesPerSlot
}

class VaccineAdministration{
designation
ageGroup
}


VaccinationCenter "0..1" -right- "0..1" VaccineSchedule : > fulfilling

VaccineSchedule "1" -up- - "0..1" Notification : emits >

VaccineSchedule "*" -down- - "1" SNSUser : made for >
VaccineSchedule "1" -up- - "0..1" VaccineType : administers >

VaccineSchedule "0" - - "1" VaccineAdministration : has >
@enduml

PlantUML version 1.2022.1(Tue Feb 01 18:19:58 GMT 2022)
(GPL source distribution)
Java Runtime: OpenJDK Runtime Environment
JVM: OpenJDK 64-Bit Server VM
Default Encoding: Cp1252
Language: pt
Country: PT
--></g></svg>