<?xml version="1.0" encoding="UTF-8" standalone="no"?><svg xmlns="http://www.w3.org/2000/svg" xmlns:xlink="http://www.w3.org/1999/xlink" contentScriptType="application/ecmascript" contentStyleType="text/css" height="573px" preserveAspectRatio="none" style="width:838px;height:573px;background:#FFFFFF;" version="1.1" viewBox="0 0 838 573" width="838px" zoomAndPan="magnify"><defs><filter height="300%" id="f1cj65j2vuc51i" width="300%" x="-1" y="-1"><feGaussianBlur result="blurOut" stdDeviation="2.0"/><feColorMatrix in="blurOut" result="blurOut2" type="matrix" values="0 0 0 0 0 0 0 0 0 0 0 0 0 0 0 0 0 0 .4 0"/><feOffset dx="4.0" dy="4.0" in="blurOut2" result="blurOut3"/><feBlend in="SourceGraphic" in2="blurOut3" mode="normal"/></filter></defs><g><!--MD5=[f6c4ddcb8ab0ba42ee4498672e538bba]
class ScheduleVaccineController--><rect codeLine="3" fill="#FEFECE" filter="url(#f1cj65j2vuc51i)" height="89.5078" id="ScheduleVaccineController" style="stroke:#A80036;stroke-width:1.5;" width="429" x="219" y="115"/><ellipse cx="354.75" cy="131" fill="#ADD1B2" rx="11" ry="11" style="stroke:#A80036;stroke-width:1.0;"/><path d="M356.75,127.5 Q356.9531,127 357.1875,126.75 Q357.4219,126.5 357.6875,126.5 Q358.1563,126.5 358.4531,126.7813 Q358.75,127.0625 358.75,127.7188 L358.75,129.2813 Q358.75,129.9375 358.4688,130.2188 Q358.1875,130.5 357.75,130.5 Q357.3594,130.5 357.1094,130.3281 Q356.8594,130.1563 356.75,129.7031 Q356.7031,129.3906 356.5313,129.2188 Q356.2188,128.8906 355.6563,128.7031 Q355.0938,128.5 354.5313,128.5 Q353.8281,128.5 353.2344,128.7813 Q352.6563,129.0625 352.2031,129.6875 Q351.75,130.3125 351.75,131.1719 L351.75,132.0938 Q351.75,133.125 352.5938,133.8125 Q353.4375,134.5 354.9375,134.5 Q355.8281,134.5 356.4531,134.2969 Q356.8125,134.1875 357.2188,133.8281 Q357.4844,133.625 357.625,133.5625 Q357.7656,133.5 357.9375,133.5 Q358.2656,133.5 358.5,133.7656 Q358.75,134.0156 358.75,134.375 Q358.75,134.7188 358.4063,135.125 Q357.9063,135.7188 357.1094,136.0469 Q356.0625,136.5 354.7813,136.5 Q353.2813,136.5 352.0781,135.9063 Q351.1094,135.4375 350.4219,134.4219 Q349.75,133.4063 349.75,132.2031 L349.75,131.1094 Q349.75,129.8594 350.3438,128.7656 Q350.9531,127.6719 352,127.0938 Q353.0625,126.5 354.25,126.5 Q354.9688,126.5 355.5938,126.75 Q356.2188,127 356.75,127.5 Z " fill="#000000"/><text fill="#000000" font-family="sans-serif" font-size="12" lengthAdjust="spacing" textLength="149" x="375.25" y="135.9102">ScheduleVaccineController</text><line style="stroke:#A80036;stroke-width:1.5;" x1="220" x2="647" y1="147" y2="147"/><line style="stroke:#A80036;stroke-width:1.5;" x1="220" x2="647" y1="155" y2="155"/><ellipse cx="230" cy="166" fill="#84BE84" rx="3" ry="3" style="stroke:#038048;stroke-width:1.0;"/><text fill="#000000" font-family="sans-serif" font-size="11" lengthAdjust="spacing" textLength="112" x="239" y="170.4189">getVaccinationCenter()</text><ellipse cx="230" cy="179.8359" fill="#84BE84" rx="3" ry="3" style="stroke:#038048;stroke-width:1.0;"/><text fill="#000000" font-family="sans-serif" font-size="11" lengthAdjust="spacing" textLength="93" x="239" y="184.2549">getVaccineTypes()</text><ellipse cx="230" cy="193.6719" fill="#84BE84" rx="3" ry="3" style="stroke:#038048;stroke-width:1.0;"/><text fill="#000000" font-family="sans-serif" font-size="11" lengthAdjust="spacing" textLength="403" x="239" y="198.0908">newScheduleVaccine(snsUserNumber, vaccinationCenter, dateTime, vaccineType)</text><!--MD5=[b2e86da990ee9e769b8776cd15ea5c5f]
class ScheduleVaccineUI--><rect codeLine="9" fill="#FEFECE" filter="url(#f1cj65j2vuc51i)" height="48" id="ScheduleVaccineUI" style="stroke:#A80036;stroke-width:1.5;" width="139" x="364" y="7"/><ellipse cx="379" cy="23" fill="#ADD1B2" rx="11" ry="11" style="stroke:#A80036;stroke-width:1.0;"/><path d="M381,19.5 Q381.2031,19 381.4375,18.75 Q381.6719,18.5 381.9375,18.5 Q382.4063,18.5 382.7031,18.7813 Q383,19.0625 383,19.7188 L383,21.2813 Q383,21.9375 382.7188,22.2188 Q382.4375,22.5 382,22.5 Q381.6094,22.5 381.3594,22.3281 Q381.1094,22.1563 381,21.7031 Q380.9531,21.3906 380.7813,21.2188 Q380.4688,20.8906 379.9063,20.7031 Q379.3438,20.5 378.7813,20.5 Q378.0781,20.5 377.4844,20.7813 Q376.9063,21.0625 376.4531,21.6875 Q376,22.3125 376,23.1719 L376,24.0938 Q376,25.125 376.8438,25.8125 Q377.6875,26.5 379.1875,26.5 Q380.0781,26.5 380.7031,26.2969 Q381.0625,26.1875 381.4688,25.8281 Q381.7344,25.625 381.875,25.5625 Q382.0156,25.5 382.1875,25.5 Q382.5156,25.5 382.75,25.7656 Q383,26.0156 383,26.375 Q383,26.7188 382.6563,27.125 Q382.1563,27.7188 381.3594,28.0469 Q380.3125,28.5 379.0313,28.5 Q377.5313,28.5 376.3281,27.9063 Q375.3594,27.4375 374.6719,26.4219 Q374,25.4063 374,24.2031 L374,23.1094 Q374,21.8594 374.5938,20.7656 Q375.2031,19.6719 376.25,19.0938 Q377.3125,18.5 378.5,18.5 Q379.2188,18.5 379.8438,18.75 Q380.4688,19 381,19.5 Z " fill="#000000"/><text fill="#000000" font-family="sans-serif" font-size="12" lengthAdjust="spacing" textLength="107" x="393" y="27.9102">ScheduleVaccineUI</text><line style="stroke:#A80036;stroke-width:1.5;" x1="365" x2="502" y1="39" y2="39"/><line style="stroke:#A80036;stroke-width:1.5;" x1="365" x2="502" y1="47" y2="47"/><!--MD5=[8d21a970f1bd1e0e0584d0ecf91221be]
class ScheduleVaccine--><rect codeLine="12" fill="#FEFECE" filter="url(#f1cj65j2vuc51i)" height="117.1797" id="ScheduleVaccine" style="stroke:#A80036;stroke-width:1.5;" width="353" x="471" y="442"/><ellipse cx="595.75" cy="458" fill="#ADD1B2" rx="11" ry="11" style="stroke:#A80036;stroke-width:1.0;"/><path d="M597.75,454.5 Q597.9531,454 598.1875,453.75 Q598.4219,453.5 598.6875,453.5 Q599.1563,453.5 599.4531,453.7813 Q599.75,454.0625 599.75,454.7188 L599.75,456.2813 Q599.75,456.9375 599.4688,457.2188 Q599.1875,457.5 598.75,457.5 Q598.3594,457.5 598.1094,457.3281 Q597.8594,457.1563 597.75,456.7031 Q597.7031,456.3906 597.5313,456.2188 Q597.2188,455.8906 596.6563,455.7031 Q596.0938,455.5 595.5313,455.5 Q594.8281,455.5 594.2344,455.7813 Q593.6563,456.0625 593.2031,456.6875 Q592.75,457.3125 592.75,458.1719 L592.75,459.0938 Q592.75,460.125 593.5938,460.8125 Q594.4375,461.5 595.9375,461.5 Q596.8281,461.5 597.4531,461.2969 Q597.8125,461.1875 598.2188,460.8281 Q598.4844,460.625 598.625,460.5625 Q598.7656,460.5 598.9375,460.5 Q599.2656,460.5 599.5,460.7656 Q599.75,461.0156 599.75,461.375 Q599.75,461.7188 599.4063,462.125 Q598.9063,462.7188 598.1094,463.0469 Q597.0625,463.5 595.7813,463.5 Q594.2813,463.5 593.0781,462.9063 Q592.1094,462.4375 591.4219,461.4219 Q590.75,460.4063 590.75,459.2031 L590.75,458.1094 Q590.75,456.8594 591.3438,455.7656 Q591.9531,454.6719 593,454.0938 Q594.0625,453.5 595.25,453.5 Q595.9688,453.5 596.5938,453.75 Q597.2188,454 597.75,454.5 Z " fill="#000000"/><text fill="#000000" font-family="sans-serif" font-size="12" lengthAdjust="spacing" textLength="95" x="616.25" y="462.9102">ScheduleVaccine</text><line style="stroke:#A80036;stroke-width:1.5;" x1="472" x2="823" y1="474" y2="474"/><ellipse cx="482" cy="485" fill="none" rx="3" ry="3" style="stroke:#038048;stroke-width:1.0;"/><text fill="#000000" font-family="sans-serif" font-size="11" lengthAdjust="spacing" textLength="78" x="491" y="489.4189">snsUserNumber</text><ellipse cx="482" cy="498.8359" fill="none" rx="3" ry="3" style="stroke:#038048;stroke-width:1.0;"/><text fill="#000000" font-family="sans-serif" font-size="11" lengthAdjust="spacing" textLength="87" x="491" y="503.2549">vaccinationCenter</text><ellipse cx="482" cy="512.6719" fill="none" rx="3" ry="3" style="stroke:#038048;stroke-width:1.0;"/><text fill="#000000" font-family="sans-serif" font-size="11" lengthAdjust="spacing" textLength="43" x="491" y="517.0908">dateTime</text><ellipse cx="482" cy="526.5078" fill="none" rx="3" ry="3" style="stroke:#038048;stroke-width:1.0;"/><text fill="#000000" font-family="sans-serif" font-size="11" lengthAdjust="spacing" textLength="62" x="491" y="530.9268">vaccineType</text><line style="stroke:#A80036;stroke-width:1.5;" x1="472" x2="823" y1="537.3438" y2="537.3438"/><ellipse cx="482" cy="548.3438" fill="#84BE84" rx="3" ry="3" style="stroke:#038048;stroke-width:1.0;"/><text fill="#000000" font-family="sans-serif" font-size="11" lengthAdjust="spacing" textLength="327" x="491" y="552.7627">create(snsUserNumber, vaccinationCenter, dateTime, vaccineType)</text><!--MD5=[02e4b9b7573f1156f41e60aa5b4e25a4]
class Company--><rect codeLine="20" fill="#FEFECE" filter="url(#f1cj65j2vuc51i)" height="117.1797" id="Company" style="stroke:#A80036;stroke-width:1.5;" width="160" x="287.5" y="265"/><ellipse cx="336.75" cy="281" fill="#ADD1B2" rx="11" ry="11" style="stroke:#A80036;stroke-width:1.0;"/><path d="M338.75,277.5 Q338.9531,277 339.1875,276.75 Q339.4219,276.5 339.6875,276.5 Q340.1563,276.5 340.4531,276.7813 Q340.75,277.0625 340.75,277.7188 L340.75,279.2813 Q340.75,279.9375 340.4688,280.2188 Q340.1875,280.5 339.75,280.5 Q339.3594,280.5 339.1094,280.3281 Q338.8594,280.1563 338.75,279.7031 Q338.7031,279.3906 338.5313,279.2188 Q338.2188,278.8906 337.6563,278.7031 Q337.0938,278.5 336.5313,278.5 Q335.8281,278.5 335.2344,278.7813 Q334.6563,279.0625 334.2031,279.6875 Q333.75,280.3125 333.75,281.1719 L333.75,282.0938 Q333.75,283.125 334.5938,283.8125 Q335.4375,284.5 336.9375,284.5 Q337.8281,284.5 338.4531,284.2969 Q338.8125,284.1875 339.2188,283.8281 Q339.4844,283.625 339.625,283.5625 Q339.7656,283.5 339.9375,283.5 Q340.2656,283.5 340.5,283.7656 Q340.75,284.0156 340.75,284.375 Q340.75,284.7188 340.4063,285.125 Q339.9063,285.7188 339.1094,286.0469 Q338.0625,286.5 336.7813,286.5 Q335.2813,286.5 334.0781,285.9063 Q333.1094,285.4375 332.4219,284.4219 Q331.75,283.4063 331.75,282.2031 L331.75,281.1094 Q331.75,279.8594 332.3438,278.7656 Q332.9531,277.6719 334,277.0938 Q335.0625,276.5 336.25,276.5 Q336.9688,276.5 337.5938,276.75 Q338.2188,277 338.75,277.5 Z " fill="#000000"/><text fill="#000000" font-family="sans-serif" font-size="12" lengthAdjust="spacing" textLength="53" x="357.25" y="285.9102">Company</text><line style="stroke:#A80036;stroke-width:1.5;" x1="288.5" x2="446.5" y1="297" y2="297"/><rect fill="none" height="6" style="stroke:#C82930;stroke-width:1.0;" width="6" x="295.5" y="305"/><text fill="#000000" font-family="sans-serif" font-size="11" lengthAdjust="spacing" textLength="55" x="307.5" y="312.4189">designation</text><line style="stroke:#A80036;stroke-width:1.5;" x1="288.5" x2="446.5" y1="318.8359" y2="318.8359"/><ellipse cx="298.5" cy="329.8359" fill="#84BE84" rx="3" ry="3" style="stroke:#038048;stroke-width:1.0;"/><text fill="#000000" font-family="sans-serif" font-size="11" lengthAdjust="spacing" textLength="112" x="307.5" y="334.2549">getVaccinationCenter()</text><ellipse cx="298.5" cy="343.6719" fill="#84BE84" rx="3" ry="3" style="stroke:#038048;stroke-width:1.0;"/><text fill="#000000" font-family="sans-serif" font-size="11" lengthAdjust="spacing" textLength="93" x="307.5" y="348.0908">getVaccineTypes()</text><ellipse cx="298.5" cy="357.5078" fill="#84BE84" rx="3" ry="3" style="stroke:#038048;stroke-width:1.0;"/><text fill="#000000" font-family="sans-serif" font-size="11" lengthAdjust="spacing" textLength="134" x="307.5" y="361.9268">getScheduleVaccineStore()</text><ellipse cx="298.5" cy="371.3438" fill="#84BE84" rx="3" ry="3" style="stroke:#038048;stroke-width:1.0;"/><text fill="#000000" font-family="sans-serif" font-size="11" lengthAdjust="spacing" textLength="106" x="307.5" y="375.7627">listScheduleVaccine()</text><!--MD5=[dddfbbf04cd811976a8d1b68c187d8cc]
class ScheduleVaccineStore--><rect codeLine="28" fill="#FEFECE" filter="url(#f1cj65j2vuc51i)" height="117.1797" id="ScheduleVaccineStore" style="stroke:#A80036;stroke-width:1.5;" width="429" x="7" y="442"/><ellipse cx="155.25" cy="458" fill="#ADD1B2" rx="11" ry="11" style="stroke:#A80036;stroke-width:1.0;"/><path d="M157.25,454.5 Q157.4531,454 157.6875,453.75 Q157.9219,453.5 158.1875,453.5 Q158.6563,453.5 158.9531,453.7813 Q159.25,454.0625 159.25,454.7188 L159.25,456.2813 Q159.25,456.9375 158.9688,457.2188 Q158.6875,457.5 158.25,457.5 Q157.8594,457.5 157.6094,457.3281 Q157.3594,457.1563 157.25,456.7031 Q157.2031,456.3906 157.0313,456.2188 Q156.7188,455.8906 156.1563,455.7031 Q155.5938,455.5 155.0313,455.5 Q154.3281,455.5 153.7344,455.7813 Q153.1563,456.0625 152.7031,456.6875 Q152.25,457.3125 152.25,458.1719 L152.25,459.0938 Q152.25,460.125 153.0938,460.8125 Q153.9375,461.5 155.4375,461.5 Q156.3281,461.5 156.9531,461.2969 Q157.3125,461.1875 157.7188,460.8281 Q157.9844,460.625 158.125,460.5625 Q158.2656,460.5 158.4375,460.5 Q158.7656,460.5 159,460.7656 Q159.25,461.0156 159.25,461.375 Q159.25,461.7188 158.9063,462.125 Q158.4063,462.7188 157.6094,463.0469 Q156.5625,463.5 155.2813,463.5 Q153.7813,463.5 152.5781,462.9063 Q151.6094,462.4375 150.9219,461.4219 Q150.25,460.4063 150.25,459.2031 L150.25,458.1094 Q150.25,456.8594 150.8438,455.7656 Q151.4531,454.6719 152.5,454.0938 Q153.5625,453.5 154.75,453.5 Q155.4688,453.5 156.0938,453.75 Q156.7188,454 157.25,454.5 Z " fill="#000000"/><text fill="#000000" font-family="sans-serif" font-size="12" lengthAdjust="spacing" textLength="124" x="175.75" y="462.9102">ScheduleVaccineStore</text><line style="stroke:#A80036;stroke-width:1.5;" x1="8" x2="435" y1="474" y2="474"/><line style="stroke:#A80036;stroke-width:1.5;" x1="8" x2="435" y1="482" y2="482"/><ellipse cx="18" cy="493" fill="#84BE84" rx="3" ry="3" style="stroke:#038048;stroke-width:1.0;"/><text fill="#000000" font-family="sans-serif" font-size="11" lengthAdjust="spacing" textLength="403" x="27" y="497.4189">newScheduleVaccine(snsUserNumber, vaccinationCenter, dateTime, vaccineType)</text><ellipse cx="18" cy="506.8359" fill="#84BE84" rx="3" ry="3" style="stroke:#038048;stroke-width:1.0;"/><text fill="#000000" font-family="sans-serif" font-size="11" lengthAdjust="spacing" textLength="214" x="27" y="511.2549">registerScheduleVaccine(scheduleVaccine)</text><ellipse cx="18" cy="520.6719" fill="#84BE84" rx="3" ry="3" style="stroke:#038048;stroke-width:1.0;"/><text fill="#000000" font-family="sans-serif" font-size="11" lengthAdjust="spacing" textLength="214" x="27" y="525.0908">validateScheduleVaccine(scheduleVaccine)</text><ellipse cx="18" cy="534.5078" fill="#84BE84" rx="3" ry="3" style="stroke:#038048;stroke-width:1.0;"/><text fill="#000000" font-family="sans-serif" font-size="11" lengthAdjust="spacing" textLength="206" x="27" y="538.9268">existsScheduleVaccine(scheduleVaccine)</text><ellipse cx="18" cy="548.3438" fill="#84BE84" rx="3" ry="3" style="stroke:#038048;stroke-width:1.0;"/><text fill="#000000" font-family="sans-serif" font-size="11" lengthAdjust="spacing" textLength="195" x="27" y="552.7627">addScheduleVaccine(scheduleVaccine)</text><!--MD5=[335f4d9be48430461c68bf6d6fdba145]
class App--><rect codeLine="36" fill="#FEFECE" filter="url(#f1cj65j2vuc51i)" height="75.6719" id="App" style="stroke:#A80036;stroke-width:1.5;" width="94" x="683.5" y="122"/><ellipse cx="716.95" cy="138" fill="#ADD1B2" rx="11" ry="11" style="stroke:#A80036;stroke-width:1.0;"/><path d="M718.95,134.5 Q719.1531,134 719.3875,133.75 Q719.6219,133.5 719.8875,133.5 Q720.3563,133.5 720.6531,133.7813 Q720.95,134.0625 720.95,134.7188 L720.95,136.2813 Q720.95,136.9375 720.6688,137.2188 Q720.3875,137.5 719.95,137.5 Q719.5594,137.5 719.3094,137.3281 Q719.0594,137.1563 718.95,136.7031 Q718.9031,136.3906 718.7313,136.2188 Q718.4188,135.8906 717.8563,135.7031 Q717.2938,135.5 716.7313,135.5 Q716.0281,135.5 715.4344,135.7813 Q714.8563,136.0625 714.4031,136.6875 Q713.95,137.3125 713.95,138.1719 L713.95,139.0938 Q713.95,140.125 714.7938,140.8125 Q715.6375,141.5 717.1375,141.5 Q718.0281,141.5 718.6531,141.2969 Q719.0125,141.1875 719.4188,140.8281 Q719.6844,140.625 719.825,140.5625 Q719.9656,140.5 720.1375,140.5 Q720.4656,140.5 720.7,140.7656 Q720.95,141.0156 720.95,141.375 Q720.95,141.7188 720.6063,142.125 Q720.1063,142.7188 719.3094,143.0469 Q718.2625,143.5 716.9813,143.5 Q715.4813,143.5 714.2781,142.9063 Q713.3094,142.4375 712.6219,141.4219 Q711.95,140.4063 711.95,139.2031 L711.95,138.1094 Q711.95,136.8594 712.5438,135.7656 Q713.1531,134.6719 714.2,134.0938 Q715.2625,133.5 716.45,133.5 Q717.1688,133.5 717.7938,133.75 Q718.4188,134 718.95,134.5 Z " fill="#000000"/><text fill="#000000" font-family="sans-serif" font-size="12" lengthAdjust="spacing" textLength="21" x="735.05" y="142.9102">App</text><line style="stroke:#A80036;stroke-width:1.5;" x1="684.5" x2="776.5" y1="154" y2="154"/><line style="stroke:#A80036;stroke-width:1.5;" x1="684.5" x2="776.5" y1="162" y2="162"/><ellipse cx="694.5" cy="173" fill="#84BE84" rx="3" ry="3" style="stroke:#038048;stroke-width:1.0;"/><text fill="#000000" font-family="sans-serif" font-size="11" lengthAdjust="spacing" textLength="64" x="703.5" y="177.4189">getInstance()</text><ellipse cx="694.5" cy="186.8359" fill="#84BE84" rx="3" ry="3" style="stroke:#038048;stroke-width:1.0;"/><text fill="#000000" font-family="sans-serif" font-size="11" lengthAdjust="spacing" textLength="68" x="703.5" y="191.2549">getCompany()</text><!--MD5=[77f394cc6139a22c0e019720b3e71c2a]
link ScheduleVaccineUI to ScheduleVaccineController--><path codeLine="41" d="M433.5,55.29 C433.5,70.48 433.5,90.88 433.5,109.56 " fill="none" id="ScheduleVaccineUI-to-ScheduleVaccineController" style="stroke:#A80036;stroke-width:1.0;stroke-dasharray:7.0,7.0;"/><polygon fill="#A80036" points="433.5,114.78,437.5,105.78,433.5,109.78,429.5,105.78,433.5,114.78" style="stroke:#A80036;stroke-width:1.0;"/><!--MD5=[db2a7a64eac7f92e6334ba110bbdde2d]
link ScheduleVaccineController to Company--><path codeLine="42" d="M415.47,205.13 C408.53,222.09 400.48,241.79 392.98,260.14 " fill="none" id="ScheduleVaccineController-to-Company" style="stroke:#A80036;stroke-width:1.0;stroke-dasharray:7.0,7.0;"/><polygon fill="#A80036" points="391.09,264.78,398.19,257.9544,392.9765,260.1495,390.7813,254.936,391.09,264.78" style="stroke:#A80036;stroke-width:1.0;"/><!--MD5=[fb3bcdf2c7f97dffb71eafbed7adc4ab]
link ScheduleVaccineController to ScheduleVaccine--><path codeLine="43" d="M461.48,205.25 C499,264.61 565.83,370.32 608.34,437.56 " fill="none" id="ScheduleVaccineController-to-ScheduleVaccine" style="stroke:#A80036;stroke-width:1.0;stroke-dasharray:7.0,7.0;"/><polygon fill="#A80036" points="611.11,441.93,609.6848,432.1848,608.4395,437.7029,602.9214,436.4576,611.11,441.93" style="stroke:#A80036;stroke-width:1.0;"/><!--MD5=[f7223943621a611b0496bafee4b93b3c]
link ScheduleVaccineController to App--><path codeLine="44" d="M648.13,160 C658.08,160 668.04,160 677.99,160 " fill="none" id="ScheduleVaccineController-to-App" style="stroke:#A80036;stroke-width:1.0;stroke-dasharray:7.0,7.0;"/><polygon fill="#A80036" points="683.2,160,674.2,156,678.2,160,674.2,164,683.2,160" style="stroke:#A80036;stroke-width:1.0;"/><!--MD5=[52ae4d8a6b0a2770e74afc7d92a6c1a2]
link Company to ScheduleVaccineStore--><path codeLine="45" d="M319.29,382.29 C304.46,400.06 288.09,419.68 273.05,437.71 " fill="none" id="Company-to-ScheduleVaccineStore" style="stroke:#A80036;stroke-width:1.0;stroke-dasharray:7.0,7.0;"/><polygon fill="#A80036" points="269.66,441.77,278.5025,437.4329,272.8679,437.9347,272.3661,432.3002,269.66,441.77" style="stroke:#A80036;stroke-width:1.0;"/><!--MD5=[ae079024cf27d29372468b55c046dba2]
link ScheduleVaccineStore to ScheduleVaccine--><path codeLine="46" d="M436.16,500.5 C446.01,500.5 455.85,500.5 465.69,500.5 " fill="none" id="ScheduleVaccineStore-to-ScheduleVaccine" style="stroke:#A80036;stroke-width:1.0;stroke-dasharray:7.0,7.0;"/><polygon fill="#A80036" points="470.84,500.5,461.84,496.5,465.84,500.5,461.84,504.5,470.84,500.5" style="stroke:#A80036;stroke-width:1.0;"/><!--MD5=[59b04ef3620930e9afb4984fec807760]
@startuml
'https://plantuml.com/sequence-diagram

class ScheduleVaccineController{
+getVaccinationCenter()
+getVaccineTypes()
+newScheduleVaccine(snsUserNumber, vaccinationCenter, dateTime, vaccineType)
}

class ScheduleVaccineUI{
}

class ScheduleVaccine{
+snsUserNumber
+ vaccinationCenter
+dateTime
+vaccineType
+create(snsUserNumber, vaccinationCenter, dateTime, vaccineType)
}

class Company{
-designation
+getVaccinationCenter()
+getVaccineTypes()
+getScheduleVaccineStore()
+listScheduleVaccine()
}

class ScheduleVaccineStore{
+newScheduleVaccine(snsUserNumber, vaccinationCenter, dateTime, vaccineType)
+registerScheduleVaccine(scheduleVaccine)
+validateScheduleVaccine(scheduleVaccine)
+existsScheduleVaccine(scheduleVaccine)
+addScheduleVaccine(scheduleVaccine)
}

class App{
+getInstance()
+getCompany()
}

ScheduleVaccineUI .down.> ScheduleVaccineController
ScheduleVaccineController .down.> Company
ScheduleVaccineController .> ScheduleVaccine
ScheduleVaccineController .>App
Company .down.> ScheduleVaccineStore
ScheduleVaccineStore .> ScheduleVaccine
@enduml

@startuml

class ScheduleVaccineController{
+getVaccinationCenter()
+getVaccineTypes()
+newScheduleVaccine(snsUserNumber, vaccinationCenter, dateTime, vaccineType)
}

class ScheduleVaccineUI{
}

class ScheduleVaccine{
+snsUserNumber
+ vaccinationCenter
+dateTime
+vaccineType
+create(snsUserNumber, vaccinationCenter, dateTime, vaccineType)
}

class Company{
-designation
+getVaccinationCenter()
+getVaccineTypes()
+getScheduleVaccineStore()
+listScheduleVaccine()
}

class ScheduleVaccineStore{
+newScheduleVaccine(snsUserNumber, vaccinationCenter, dateTime, vaccineType)
+registerScheduleVaccine(scheduleVaccine)
+validateScheduleVaccine(scheduleVaccine)
+existsScheduleVaccine(scheduleVaccine)
+addScheduleVaccine(scheduleVaccine)
}

class App{
+getInstance()
+getCompany()
}

ScheduleVaccineUI .down.> ScheduleVaccineController
ScheduleVaccineController .down.> Company
ScheduleVaccineController .> ScheduleVaccine
ScheduleVaccineController .>App
Company .down.> ScheduleVaccineStore
ScheduleVaccineStore .> ScheduleVaccine
@enduml

PlantUML version 1.2022.1(Tue Feb 01 18:19:58 GMT 2022)
(GPL source distribution)
Java Runtime: OpenJDK Runtime Environment
JVM: OpenJDK 64-Bit Server VM
Default Encoding: Cp1252
Language: pt
Country: PT
--></g></svg>