<?xml version="1.0" encoding="UTF-8" standalone="no"?><svg xmlns="http://www.w3.org/2000/svg" xmlns:xlink="http://www.w3.org/1999/xlink" contentStyleType="text/css" height="1642px" preserveAspectRatio="none" style="width:2554px;height:1642px;background:#FFFFFF;" version="1.1" viewBox="0 0 2554 1642" width="2554px" zoomAndPan="magnify"><defs/><g><rect fill="#FFFFFF" height="1451.5586" style="stroke:#181818;stroke-width:1.0;" width="10" x="23" y="91.4883"/><rect fill="#FFFFFF" height="295.8633" style="stroke:#181818;stroke-width:1.0;" width="10" x="380" y="112.7988"/><rect fill="#FFFFFF" height="780.5898" style="stroke:#181818;stroke-width:1.0;" width="10" x="380" y="437.9727"/><rect fill="#FFFFFF" height="295.1738" style="stroke:#181818;stroke-width:1.0;" width="10" x="380" y="1247.873"/><rect fill="#FFFFFF" height="237.2422" style="stroke:#181818;stroke-width:1.0;" width="10" x="736" y="142.1094"/><rect fill="#FFFFFF" height="59.3105" style="stroke:#181818;stroke-width:1.0;" width="10" x="736" y="467.2832"/><rect fill="#FFFFFF" height="118.6211" style="stroke:#181818;stroke-width:1.0;" width="10" x="736" y="555.9043"/><rect fill="#FFFFFF" height="263.8633" style="stroke:#181818;stroke-width:1.0;" width="10" x="736" y="703.8359"/><rect fill="#FFFFFF" height="175.9316" style="stroke:#181818;stroke-width:1.0;" width="10" x="736" y="1021.3203"/><rect fill="#FFFFFF" height="59.3105" style="stroke:#181818;stroke-width:1.0;" width="10" x="736" y="1277.1836"/><rect fill="#FFFFFF" height="59.3105" style="stroke:#181818;stroke-width:1.0;" width="10" x="736" y="1365.8047"/><rect fill="#FFFFFF" height="59.3105" style="stroke:#181818;stroke-width:1.0;" width="10" x="736" y="1454.4258"/><rect fill="#FFFFFF" height="30" style="stroke:#181818;stroke-width:1.0;" width="10" x="900" y="171.4199"/><rect fill="#FFFFFF" height="30" style="stroke:#181818;stroke-width:1.0;" width="10" x="954" y="230.7305"/><rect fill="#FFFFFF" height="30" style="stroke:#181818;stroke-width:1.0;" width="10" x="1028.5" y="290.041"/><rect fill="#FFFFFF" height="30" style="stroke:#181818;stroke-width:1.0;" width="10" x="1140" y="349.3516"/><rect fill="#FFFFFF" height="30" style="stroke:#181818;stroke-width:1.0;" width="10" x="1279.5" y="496.5938"/><rect fill="#FFFFFF" height="183.2422" style="stroke:#181818;stroke-width:1.0;" width="10" x="1279.5" y="733.1465"/><rect fill="#FFFFFF" height="124.6211" style="stroke:#181818;stroke-width:1.0;" width="10" x="1279.5" y="1050.6309"/><rect fill="#FFFFFF" height="28" style="stroke:#181818;stroke-width:1.0;" width="10" x="1284.5" y="1147.252"/><rect fill="#FFFFFF" height="30" style="stroke:#181818;stroke-width:1.0;" width="10" x="1279.5" y="1306.4941"/><rect fill="#FFFFFF" height="30" style="stroke:#181818;stroke-width:1.0;" width="10" x="1279.5" y="1395.1152"/><rect fill="#FFFFFF" height="30" style="stroke:#181818;stroke-width:1.0;" width="10" x="1279.5" y="1483.7363"/><rect fill="#FFFFFF" height="30" style="stroke:#181818;stroke-width:1.0;" width="10" x="1602.5" y="585.2148"/><rect fill="#FFFFFF" height="30" style="stroke:#181818;stroke-width:1.0;" width="10" x="1721.5" y="644.5254"/><rect fill="#FFFFFF" height="30" style="stroke:#181818;stroke-width:1.0;" width="10" x="1879.5" y="871.3887"/><rect fill="#FFFFFF" height="30" style="stroke:#181818;stroke-width:1.0;" width="10" x="1879.5" y="937.6992"/><rect fill="#FFFFFF" height="30" style="stroke:#181818;stroke-width:1.0;" width="10" x="1879.5" y="1079.9414"/><rect height="118.9316" style="stroke:#000000;stroke-width:1.5;fill:none;" width="773.5" x="1205" y="790.457"/><rect height="207.5527" style="stroke:#000000;stroke-width:1.5;fill:none;" width="1694.5" x="284" y="982.6992"/><line style="stroke:#181818;stroke-width:0.5;fill:none;stroke-dasharray:5.0,5.0;" x1="28" x2="28" y1="81.4883" y2="1561.0469"/><line style="stroke:#181818;stroke-width:0.5;fill:none;stroke-dasharray:5.0,5.0;" x1="385" x2="385" y1="81.4883" y2="1561.0469"/><line style="stroke:#181818;stroke-width:0.5;fill:none;stroke-dasharray:5.0,5.0;" x1="741" x2="741" y1="81.4883" y2="1561.0469"/><line style="stroke:#181818;stroke-width:0.5;fill:none;stroke-dasharray:5.0,5.0;" x1="905" x2="905" y1="81.4883" y2="1561.0469"/><line style="stroke:#181818;stroke-width:0.5;fill:none;stroke-dasharray:5.0,5.0;" x1="959" x2="959" y1="81.4883" y2="1561.0469"/><line style="stroke:#181818;stroke-width:0.5;fill:none;stroke-dasharray:5.0,5.0;" x1="1033" x2="1033" y1="81.4883" y2="1561.0469"/><line style="stroke:#181818;stroke-width:0.5;fill:none;stroke-dasharray:5.0,5.0;" x1="1145" x2="1145" y1="81.4883" y2="1561.0469"/><line style="stroke:#181818;stroke-width:0.5;fill:none;stroke-dasharray:5.0,5.0;" x1="1284" x2="1284" y1="81.4883" y2="1561.0469"/><line style="stroke:#181818;stroke-width:0.5;fill:none;stroke-dasharray:5.0,5.0;" x1="1607.5" x2="1607.5" y1="81.4883" y2="1561.0469"/><line style="stroke:#181818;stroke-width:0.5;fill:none;stroke-dasharray:5.0,5.0;" x1="1726.5" x2="1726.5" y1="81.4883" y2="1561.0469"/><line style="stroke:#181818;stroke-width:0.5;fill:none;stroke-dasharray:5.0,5.0;" x1="1884.5" x2="1884.5" y1="81.4883" y2="1561.0469"/><line style="stroke:#181818;stroke-width:0.5;fill:none;stroke-dasharray:5.0,5.0;" x1="2096.5" x2="2096.5" y1="81.4883" y2="1561.0469"/><line style="stroke:#181818;stroke-width:0.5;fill:none;stroke-dasharray:5.0,5.0;" x1="2386.5" x2="2386.5" y1="81.4883" y2="1561.0469"/><text fill="#000000" font-family="sans-serif" font-size="14" lengthAdjust="spacing" textLength="40" x="5" y="78.5352">Nurse</text><ellipse cx="28" cy="13.5" fill="#E2E2F0" rx="8" ry="8" style="stroke:#181818;stroke-width:0.5;"/><path d="M28,21.5 L28,48.5 M15,29.5 L41,29.5 M28,48.5 L15,63.5 M28,48.5 L41,63.5 " fill="none" style="stroke:#181818;stroke-width:0.5;"/><text fill="#000000" font-family="sans-serif" font-size="14" lengthAdjust="spacing" textLength="40" x="5" y="1573.582">Nurse</text><ellipse cx="28" cy="1585.0352" fill="#E2E2F0" rx="8" ry="8" style="stroke:#181818;stroke-width:0.5;"/><path d="M28,1593.0352 L28,1620.0352 M15,1601.0352 L41,1601.0352 M28,1620.0352 L15,1635.0352 M28,1620.0352 L41,1635.0352 " fill="none" style="stroke:#181818;stroke-width:0.5;"/><rect fill="#E2E2F0" height="30.4883" rx="2.5" ry="2.5" style="stroke:#181818;stroke-width:0.5;" width="182" x="294" y="50"/><text fill="#000000" font-family="sans-serif" font-size="14" lengthAdjust="spacing" textLength="168" x="301" y="70.5352">VaccineAdministrationUI</text><rect fill="#E2E2F0" height="30.4883" rx="2.5" ry="2.5" style="stroke:#181818;stroke-width:0.5;" width="182" x="294" y="1560.0469"/><text fill="#000000" font-family="sans-serif" font-size="14" lengthAdjust="spacing" textLength="168" x="301" y="1580.582">VaccineAdministrationUI</text><rect fill="#E2E2F0" height="30.4883" rx="2.5" ry="2.5" style="stroke:#181818;stroke-width:0.5;" width="238" x="622" y="50"/><text fill="#000000" font-family="sans-serif" font-size="14" lengthAdjust="spacing" textLength="224" x="629" y="70.5352">VaccineAdministrationController</text><rect fill="#E2E2F0" height="30.4883" rx="2.5" ry="2.5" style="stroke:#181818;stroke-width:0.5;" width="238" x="622" y="1560.0469"/><text fill="#000000" font-family="sans-serif" font-size="14" lengthAdjust="spacing" textLength="224" x="629" y="1580.582">VaccineAdministrationController</text><rect fill="#E2E2F0" height="30.4883" rx="2.5" ry="2.5" style="stroke:#181818;stroke-width:0.5;" width="42" x="884" y="50"/><text fill="#000000" font-family="sans-serif" font-size="14" lengthAdjust="spacing" textLength="28" x="891" y="70.5352">App</text><rect fill="#E2E2F0" height="30.4883" rx="2.5" ry="2.5" style="stroke:#181818;stroke-width:0.5;" width="42" x="884" y="1560.0469"/><text fill="#000000" font-family="sans-serif" font-size="14" lengthAdjust="spacing" textLength="28" x="891" y="1580.582">App</text><rect fill="#E2E2F0" height="46.9766" rx="2.5" ry="2.5" style="stroke:#181818;stroke-width:0.5;" width="46" x="936" y="33.5117"/><text fill="#000000" font-family="sans-serif" font-size="14" lengthAdjust="spacing" textLength="26" x="946" y="54.0469">app</text><text fill="#000000" font-family="sans-serif" font-size="14" lengthAdjust="spacing" textLength="32" x="943" y="70.5352">:App</text><rect fill="#E2E2F0" height="46.9766" rx="2.5" ry="2.5" style="stroke:#181818;stroke-width:0.5;" width="46" x="936" y="1560.0469"/><text fill="#000000" font-family="sans-serif" font-size="14" lengthAdjust="spacing" textLength="26" x="946" y="1580.582">app</text><text fill="#000000" font-family="sans-serif" font-size="14" lengthAdjust="spacing" textLength="32" x="943" y="1597.0703">:App</text><rect fill="#E2E2F0" height="46.9766" rx="2.5" ry="2.5" style="stroke:#181818;stroke-width:0.5;" width="83" x="992" y="33.5117"/><text fill="#000000" font-family="sans-serif" font-size="14" lengthAdjust="spacing" textLength="38" x="1014.5" y="54.0469">comp</text><text fill="#000000" font-family="sans-serif" font-size="14" lengthAdjust="spacing" textLength="69" x="999" y="70.5352">:Company</text><rect fill="#E2E2F0" height="46.9766" rx="2.5" ry="2.5" style="stroke:#181818;stroke-width:0.5;" width="83" x="992" y="1560.0469"/><text fill="#000000" font-family="sans-serif" font-size="14" lengthAdjust="spacing" textLength="38" x="1014.5" y="1580.582">comp</text><text fill="#000000" font-family="sans-serif" font-size="14" lengthAdjust="spacing" textLength="69" x="999" y="1597.0703">:Company</text><rect fill="#E2E2F0" height="46.9766" rx="2.5" ry="2.5" style="stroke:#181818;stroke-width:0.5;" width="120" x="1085" y="33.5117"/><text fill="#000000" font-family="sans-serif" font-size="14" lengthAdjust="spacing" textLength="66" x="1112" y="54.0469">empStore</text><text fill="#000000" font-family="sans-serif" font-size="14" lengthAdjust="spacing" textLength="106" x="1092" y="70.5352">:EmployeeStore</text><rect fill="#E2E2F0" height="46.9766" rx="2.5" ry="2.5" style="stroke:#181818;stroke-width:0.5;" width="120" x="1085" y="1560.0469"/><text fill="#000000" font-family="sans-serif" font-size="14" lengthAdjust="spacing" textLength="66" x="1112" y="1580.582">empStore</text><text fill="#000000" font-family="sans-serif" font-size="14" lengthAdjust="spacing" textLength="106" x="1092" y="1597.0703">:EmployeeStore</text><rect fill="#E2E2F0" height="30.4883" rx="2.5" ry="2.5" style="stroke:#181818;stroke-width:0.5;" width="139" x="1215" y="50"/><text fill="#000000" font-family="sans-serif" font-size="14" lengthAdjust="spacing" textLength="125" x="1222" y="70.5352">VaccinationCenter</text><rect fill="#E2E2F0" height="30.4883" rx="2.5" ry="2.5" style="stroke:#181818;stroke-width:0.5;" width="139" x="1215" y="1560.0469"/><text fill="#000000" font-family="sans-serif" font-size="14" lengthAdjust="spacing" textLength="125" x="1222" y="1580.582">VaccinationCenter</text><rect fill="#E2E2F0" height="30.4883" rx="2.5" ry="2.5" style="stroke:#181818;stroke-width:0.5;" width="90" x="1562.5" y="50"/><text fill="#000000" font-family="sans-serif" font-size="14" lengthAdjust="spacing" textLength="76" x="1569.5" y="70.5352">UserArrival</text><rect fill="#E2E2F0" height="30.4883" rx="2.5" ry="2.5" style="stroke:#181818;stroke-width:0.5;" width="90" x="1562.5" y="1560.0469"/><text fill="#000000" font-family="sans-serif" font-size="14" lengthAdjust="spacing" textLength="76" x="1569.5" y="1580.582">UserArrival</text><rect fill="#E2E2F0" height="30.4883" rx="2.5" ry="2.5" style="stroke:#181818;stroke-width:0.5;" width="128" x="1662.5" y="50"/><text fill="#000000" font-family="sans-serif" font-size="14" lengthAdjust="spacing" textLength="114" x="1669.5" y="70.5352">VaccineSchedule</text><rect fill="#E2E2F0" height="30.4883" rx="2.5" ry="2.5" style="stroke:#181818;stroke-width:0.5;" width="128" x="1662.5" y="1560.0469"/><text fill="#000000" font-family="sans-serif" font-size="14" lengthAdjust="spacing" textLength="114" x="1669.5" y="1580.582">VaccineSchedule</text><rect fill="#E2E2F0" height="30.4883" rx="2.5" ry="2.5" style="stroke:#181818;stroke-width:0.5;" width="168" x="1800.5" y="50"/><text fill="#000000" font-family="sans-serif" font-size="14" lengthAdjust="spacing" textLength="154" x="1807.5" y="70.5352">VaccineAdministration</text><rect fill="#E2E2F0" height="30.4883" rx="2.5" ry="2.5" style="stroke:#181818;stroke-width:0.5;" width="168" x="1800.5" y="1560.0469"/><text fill="#000000" font-family="sans-serif" font-size="14" lengthAdjust="spacing" textLength="154" x="1807.5" y="1580.582">VaccineAdministration</text><rect fill="#E2E2F0" height="46.9766" rx="2.5" ry="2.5" style="stroke:#181818;stroke-width:0.5;" width="237" x="1978.5" y="33.5117"/><text fill="#000000" font-family="sans-serif" font-size="14" lengthAdjust="spacing" textLength="17" x="2088.5" y="54.0469">wr</text><text fill="#000000" font-family="sans-serif" font-size="14" lengthAdjust="spacing" textLength="223" x="1985.5" y="70.5352">:List &lt;UserArrival&gt; waitingRoom</text><rect fill="#E2E2F0" height="46.9766" rx="2.5" ry="2.5" style="stroke:#181818;stroke-width:0.5;" width="237" x="1978.5" y="1560.0469"/><text fill="#000000" font-family="sans-serif" font-size="14" lengthAdjust="spacing" textLength="17" x="2088.5" y="1580.582">wr</text><text fill="#000000" font-family="sans-serif" font-size="14" lengthAdjust="spacing" textLength="223" x="1985.5" y="1597.0703">:List &lt;UserArrival&gt; waitingRoom</text><rect fill="#E2E2F0" height="46.9766" rx="2.5" ry="2.5" style="stroke:#181818;stroke-width:0.5;" width="323" x="2225.5" y="33.5117"/><text fill="#000000" font-family="sans-serif" font-size="14" lengthAdjust="spacing" textLength="12" x="2381" y="54.0469">rr</text><text fill="#000000" font-family="sans-serif" font-size="14" lengthAdjust="spacing" textLength="309" x="2232.5" y="70.5352">:List &lt;VaccineAdministration&gt; recoveryRoom</text><rect fill="#E2E2F0" height="46.9766" rx="2.5" ry="2.5" style="stroke:#181818;stroke-width:0.5;" width="323" x="2225.5" y="1560.0469"/><text fill="#000000" font-family="sans-serif" font-size="14" lengthAdjust="spacing" textLength="12" x="2381" y="1580.582">rr</text><text fill="#000000" font-family="sans-serif" font-size="14" lengthAdjust="spacing" textLength="309" x="2232.5" y="1597.0703">:List &lt;VaccineAdministration&gt; recoveryRoom</text><rect fill="#FFFFFF" height="1451.5586" style="stroke:#181818;stroke-width:1.0;" width="10" x="23" y="91.4883"/><rect fill="#FFFFFF" height="295.8633" style="stroke:#181818;stroke-width:1.0;" width="10" x="380" y="112.7988"/><rect fill="#FFFFFF" height="780.5898" style="stroke:#181818;stroke-width:1.0;" width="10" x="380" y="437.9727"/><rect fill="#FFFFFF" height="295.1738" style="stroke:#181818;stroke-width:1.0;" width="10" x="380" y="1247.873"/><rect fill="#FFFFFF" height="237.2422" style="stroke:#181818;stroke-width:1.0;" width="10" x="736" y="142.1094"/><rect fill="#FFFFFF" height="59.3105" style="stroke:#181818;stroke-width:1.0;" width="10" x="736" y="467.2832"/><rect fill="#FFFFFF" height="118.6211" style="stroke:#181818;stroke-width:1.0;" width="10" x="736" y="555.9043"/><rect fill="#FFFFFF" height="263.8633" style="stroke:#181818;stroke-width:1.0;" width="10" x="736" y="703.8359"/><rect fill="#FFFFFF" height="175.9316" style="stroke:#181818;stroke-width:1.0;" width="10" x="736" y="1021.3203"/><rect fill="#FFFFFF" height="59.3105" style="stroke:#181818;stroke-width:1.0;" width="10" x="736" y="1277.1836"/><rect fill="#FFFFFF" height="59.3105" style="stroke:#181818;stroke-width:1.0;" width="10" x="736" y="1365.8047"/><rect fill="#FFFFFF" height="59.3105" style="stroke:#181818;stroke-width:1.0;" width="10" x="736" y="1454.4258"/><rect fill="#FFFFFF" height="30" style="stroke:#181818;stroke-width:1.0;" width="10" x="900" y="171.4199"/><rect fill="#FFFFFF" height="30" style="stroke:#181818;stroke-width:1.0;" width="10" x="954" y="230.7305"/><rect fill="#FFFFFF" height="30" style="stroke:#181818;stroke-width:1.0;" width="10" x="1028.5" y="290.041"/><rect fill="#FFFFFF" height="30" style="stroke:#181818;stroke-width:1.0;" width="10" x="1140" y="349.3516"/><rect fill="#FFFFFF" height="30" style="stroke:#181818;stroke-width:1.0;" width="10" x="1279.5" y="496.5938"/><rect fill="#FFFFFF" height="183.2422" style="stroke:#181818;stroke-width:1.0;" width="10" x="1279.5" y="733.1465"/><rect fill="#FFFFFF" height="124.6211" style="stroke:#181818;stroke-width:1.0;" width="10" x="1279.5" y="1050.6309"/><rect fill="#FFFFFF" height="28" style="stroke:#181818;stroke-width:1.0;" width="10" x="1284.5" y="1147.252"/><rect fill="#FFFFFF" height="30" style="stroke:#181818;stroke-width:1.0;" width="10" x="1279.5" y="1306.4941"/><rect fill="#FFFFFF" height="30" style="stroke:#181818;stroke-width:1.0;" width="10" x="1279.5" y="1395.1152"/><rect fill="#FFFFFF" height="30" style="stroke:#181818;stroke-width:1.0;" width="10" x="1279.5" y="1483.7363"/><rect fill="#FFFFFF" height="30" style="stroke:#181818;stroke-width:1.0;" width="10" x="1602.5" y="585.2148"/><rect fill="#FFFFFF" height="30" style="stroke:#181818;stroke-width:1.0;" width="10" x="1721.5" y="644.5254"/><rect fill="#FFFFFF" height="30" style="stroke:#181818;stroke-width:1.0;" width="10" x="1879.5" y="871.3887"/><rect fill="#FFFFFF" height="30" style="stroke:#181818;stroke-width:1.0;" width="10" x="1879.5" y="937.6992"/><rect fill="#FFFFFF" height="30" style="stroke:#181818;stroke-width:1.0;" width="10" x="1879.5" y="1079.9414"/><polygon fill="#181818" points="368,108.7988,378,112.7988,368,116.7988,372,112.7988" style="stroke:#181818;stroke-width:1.0;"/><line style="stroke:#181818;stroke-width:1.0;" x1="33" x2="374" y1="112.7988" y2="112.7988"/><text fill="#000000" font-family="sans-serif" font-size="13" font-weight="bold" lengthAdjust="spacing" textLength="9" x="40" y="108.0566">1</text><text fill="#000000" font-family="sans-serif" font-size="13" lengthAdjust="spacing" textLength="289" x="53" y="108.0566">asks to record the administration of a vaccine</text><polygon fill="#181818" points="724,138.1094,734,142.1094,724,146.1094,728,142.1094" style="stroke:#181818;stroke-width:1.0;"/><line style="stroke:#181818;stroke-width:1.0;" x1="390" x2="730" y1="142.1094" y2="142.1094"/><text fill="#000000" font-family="sans-serif" font-size="13" font-weight="bold" lengthAdjust="spacing" textLength="9" x="397" y="137.3672">2</text><text fill="#000000" font-family="sans-serif" font-size="13" lengthAdjust="spacing" textLength="80" x="410" y="137.3672">getWorking()</text><polygon fill="#181818" points="888,167.4199,898,171.4199,888,175.4199,892,171.4199" style="stroke:#181818;stroke-width:1.0;"/><line style="stroke:#181818;stroke-width:1.0;" x1="746" x2="894" y1="171.4199" y2="171.4199"/><text fill="#000000" font-family="sans-serif" font-size="13" font-weight="bold" lengthAdjust="spacing" textLength="9" x="753" y="166.6777">3</text><text fill="#000000" font-family="sans-serif" font-size="13" lengthAdjust="spacing" textLength="122" x="766" y="166.6777">app = getInstance()</text><polygon fill="#181818" points="942,226.7305,952,230.7305,942,234.7305,946,230.7305" style="stroke:#181818;stroke-width:1.0;"/><line style="stroke:#181818;stroke-width:1.0;" x1="746" x2="948" y1="230.7305" y2="230.7305"/><text fill="#000000" font-family="sans-serif" font-size="13" font-weight="bold" lengthAdjust="spacing" textLength="9" x="753" y="225.9883">4</text><text fill="#000000" font-family="sans-serif" font-size="13" lengthAdjust="spacing" textLength="140" x="766" y="225.9883">comp = getCompany()</text><polygon fill="#181818" points="1016.5,286.041,1026.5,290.041,1016.5,294.041,1020.5,290.041" style="stroke:#181818;stroke-width:1.0;"/><line style="stroke:#181818;stroke-width:1.0;" x1="746" x2="1022.5" y1="290.041" y2="290.041"/><text fill="#000000" font-family="sans-serif" font-size="13" font-weight="bold" lengthAdjust="spacing" textLength="9" x="753" y="285.2988">5</text><text fill="#000000" font-family="sans-serif" font-size="13" lengthAdjust="spacing" textLength="197" x="766" y="285.2988">empStore = getEmployeeStore()</text><polygon fill="#181818" points="1128,345.3516,1138,349.3516,1128,353.3516,1132,349.3516" style="stroke:#181818;stroke-width:1.0;"/><line style="stroke:#181818;stroke-width:1.0;" x1="746" x2="1134" y1="349.3516" y2="349.3516"/><text fill="#000000" font-family="sans-serif" font-size="13" font-weight="bold" lengthAdjust="spacing" textLength="9" x="753" y="344.6094">6</text><text fill="#000000" font-family="sans-serif" font-size="13" lengthAdjust="spacing" textLength="149" x="766" y="344.6094">working = getWorking()</text><polygon fill="#181818" points="44,404.6621,34,408.6621,44,412.6621,40,408.6621" style="stroke:#181818;stroke-width:1.0;"/><line style="stroke:#181818;stroke-width:1.0;stroke-dasharray:2.0,2.0;" x1="38" x2="384" y1="408.6621" y2="408.6621"/><text fill="#000000" font-family="sans-serif" font-size="13" font-weight="bold" lengthAdjust="spacing" textLength="9" x="50" y="403.9199">7</text><text fill="#000000" font-family="sans-serif" font-size="13" lengthAdjust="spacing" textLength="310" x="63" y="403.9199">shows data (user, vaccine) and asks to select one</text><polygon fill="#181818" points="368,433.9727,378,437.9727,368,441.9727,372,437.9727" style="stroke:#181818;stroke-width:1.0;"/><line style="stroke:#181818;stroke-width:1.0;" x1="33" x2="374" y1="437.9727" y2="437.9727"/><text fill="#000000" font-family="sans-serif" font-size="13" font-weight="bold" lengthAdjust="spacing" textLength="9" x="40" y="433.2305">8</text><text fill="#000000" font-family="sans-serif" font-size="13" lengthAdjust="spacing" textLength="125" x="53" y="433.2305">selects desired data</text><polygon fill="#181818" points="724,463.2832,734,467.2832,724,471.2832,728,467.2832" style="stroke:#181818;stroke-width:1.0;"/><line style="stroke:#181818;stroke-width:1.0;" x1="390" x2="730" y1="467.2832" y2="467.2832"/><text fill="#000000" font-family="sans-serif" font-size="13" font-weight="bold" lengthAdjust="spacing" textLength="9" x="397" y="462.541">9</text><text fill="#000000" font-family="sans-serif" font-size="13" lengthAdjust="spacing" textLength="111" x="410" y="462.541">getWaitingRoom()</text><polygon fill="#181818" points="1267.5,492.5938,1277.5,496.5938,1267.5,500.5938,1271.5,496.5938" style="stroke:#181818;stroke-width:1.0;"/><line style="stroke:#181818;stroke-width:1.0;" x1="746" x2="1273.5" y1="496.5938" y2="496.5938"/><text fill="#000000" font-family="sans-serif" font-size="13" font-weight="bold" lengthAdjust="spacing" textLength="18" x="753" y="491.8516">10</text><text fill="#000000" font-family="sans-serif" font-size="13" lengthAdjust="spacing" textLength="223" x="775" y="491.8516">user = getListUserToWaitingRoom()</text><polygon fill="#181818" points="724,551.9043,734,555.9043,724,559.9043,728,555.9043" style="stroke:#181818;stroke-width:1.0;"/><line style="stroke:#181818;stroke-width:1.0;" x1="390" x2="730" y1="555.9043" y2="555.9043"/><text fill="#000000" font-family="sans-serif" font-size="13" font-weight="bold" lengthAdjust="spacing" textLength="18" x="397" y="551.1621">11</text><text fill="#000000" font-family="sans-serif" font-size="13" lengthAdjust="spacing" textLength="215" x="419" y="551.1621">getAvailableVaccinesForUser(user)</text><polygon fill="#181818" points="1590.5,581.2148,1600.5,585.2148,1590.5,589.2148,1594.5,585.2148" style="stroke:#181818;stroke-width:1.0;"/><line style="stroke:#181818;stroke-width:1.0;" x1="746" x2="1596.5" y1="585.2148" y2="585.2148"/><text fill="#000000" font-family="sans-serif" font-size="13" font-weight="bold" lengthAdjust="spacing" textLength="18" x="753" y="580.4727">12</text><text fill="#000000" font-family="sans-serif" font-size="13" lengthAdjust="spacing" textLength="158" x="775" y="580.4727">schedule = getSchedule()</text><polygon fill="#181818" points="1709.5,640.5254,1719.5,644.5254,1709.5,648.5254,1713.5,644.5254" style="stroke:#181818;stroke-width:1.0;"/><line style="stroke:#181818;stroke-width:1.0;" x1="746" x2="1715.5" y1="644.5254" y2="644.5254"/><text fill="#000000" font-family="sans-serif" font-size="13" font-weight="bold" lengthAdjust="spacing" textLength="18" x="753" y="639.7832">13</text><text fill="#000000" font-family="sans-serif" font-size="13" lengthAdjust="spacing" textLength="99" x="775" y="639.7832">getVaccineList()</text><polygon fill="#181818" points="724,699.8359,734,703.8359,724,707.8359,728,703.8359" style="stroke:#181818;stroke-width:1.0;"/><line style="stroke:#181818;stroke-width:1.0;" x1="390" x2="730" y1="703.8359" y2="703.8359"/><text fill="#000000" font-family="sans-serif" font-size="13" font-weight="bold" lengthAdjust="spacing" textLength="18" x="397" y="699.0938">14</text><text fill="#000000" font-family="sans-serif" font-size="13" lengthAdjust="spacing" textLength="281" x="419" y="699.0938">validateVaccineAdministration(user, vaccine)</text><polygon fill="#181818" points="1267.5,729.1465,1277.5,733.1465,1267.5,737.1465,1271.5,733.1465" style="stroke:#181818;stroke-width:1.0;"/><line style="stroke:#181818;stroke-width:1.0;" x1="746" x2="1273.5" y1="733.1465" y2="733.1465"/><text fill="#000000" font-family="sans-serif" font-size="13" font-weight="bold" lengthAdjust="spacing" textLength="18" x="753" y="728.4043">15</text><text fill="#000000" font-family="sans-serif" font-size="13" lengthAdjust="spacing" textLength="391" x="775" y="728.4043">administration =  validateVaccineAdministration(user,vaccine)</text><line style="stroke:#181818;stroke-width:1.0;" x1="1289.5" x2="1331.5" y1="762.457" y2="762.457"/><line style="stroke:#181818;stroke-width:1.0;" x1="1331.5" x2="1331.5" y1="762.457" y2="775.457"/><line style="stroke:#181818;stroke-width:1.0;" x1="1290.5" x2="1331.5" y1="775.457" y2="775.457"/><polygon fill="#181818" points="1300.5,771.457,1290.5,775.457,1300.5,779.457,1296.5,775.457" style="stroke:#181818;stroke-width:1.0;"/><text fill="#000000" font-family="sans-serif" font-size="13" font-weight="bold" lengthAdjust="spacing" textLength="18" x="1296.5" y="757.7148">16</text><text fill="#000000" font-family="sans-serif" font-size="13" lengthAdjust="spacing" textLength="170" x="1318.5" y="757.7148">getVaccineAdministration()</text><path d="M1205,790.457 L1279,790.457 L1279,797.7676 L1269,807.7676 L1205,807.7676 L1205,790.457 " fill="#EEEEEE" style="stroke:#000000;stroke-width:1.5;"/><rect fill="none" height="118.9316" style="stroke:#000000;stroke-width:1.5;" width="773.5" x="1205" y="790.457"/><text fill="#000000" font-family="sans-serif" font-size="13" font-weight="bold" lengthAdjust="spacing" textLength="29" x="1220" y="804.0254">loop</text><line style="stroke:#181818;stroke-width:1.0;" x1="1289.5" x2="1331.5" y1="829.0781" y2="829.0781"/><line style="stroke:#181818;stroke-width:1.0;" x1="1331.5" x2="1331.5" y1="829.0781" y2="842.0781"/><line style="stroke:#181818;stroke-width:1.0;" x1="1290.5" x2="1331.5" y1="842.0781" y2="842.0781"/><polygon fill="#181818" points="1300.5,838.0781,1290.5,842.0781,1300.5,846.0781,1296.5,842.0781" style="stroke:#181818;stroke-width:1.0;"/><text fill="#000000" font-family="sans-serif" font-size="13" font-weight="bold" lengthAdjust="spacing" textLength="18" x="1296.5" y="824.3359">17</text><text fill="#000000" font-family="sans-serif" font-size="13" lengthAdjust="spacing" textLength="277" x="1318.5" y="824.3359">validateVaccineAdministration(user,vaccine)</text><polygon fill="#181818" points="1867.5,867.3887,1877.5,871.3887,1867.5,875.3887,1871.5,871.3887" style="stroke:#181818;stroke-width:1.0;"/><line style="stroke:#181818;stroke-width:1.0;" x1="1289.5" x2="1873.5" y1="871.3887" y2="871.3887"/><text fill="#000000" font-family="sans-serif" font-size="13" font-weight="bold" lengthAdjust="spacing" textLength="18" x="1296.5" y="866.6465">18</text><text fill="#000000" font-family="sans-serif" font-size="13" lengthAdjust="spacing" textLength="158" x="1318.5" y="866.6465">setVaccinationTime(date)</text><polygon fill="#181818" points="1867.5,933.6992,1877.5,937.6992,1867.5,941.6992,1871.5,937.6992" style="stroke:#181818;stroke-width:1.0;"/><line style="stroke:#181818;stroke-width:1.0;" x1="746" x2="1873.5" y1="937.6992" y2="937.6992"/><text fill="#000000" font-family="sans-serif" font-size="13" font-weight="bold" lengthAdjust="spacing" textLength="18" x="753" y="932.957">19</text><text fill="#000000" font-family="sans-serif" font-size="13" lengthAdjust="spacing" textLength="102" x="775" y="932.957">date = getDate()</text><path d="M284,982.6992 L346,982.6992 L346,990.0098 L336,1000.0098 L284,1000.0098 L284,982.6992 " fill="#EEEEEE" style="stroke:#000000;stroke-width:1.5;"/><rect fill="none" height="207.5527" style="stroke:#000000;stroke-width:1.5;" width="1694.5" x="284" y="982.6992"/><text fill="#000000" font-family="sans-serif" font-size="13" font-weight="bold" lengthAdjust="spacing" textLength="17" x="299" y="996.2676">alt</text><text fill="#000000" font-family="sans-serif" font-size="11" font-weight="bold" lengthAdjust="spacing" textLength="151" x="361" y="995.334">[if administration == null]</text><polygon fill="#181818" points="724,1017.3203,734,1021.3203,724,1025.3203,728,1021.3203" style="stroke:#181818;stroke-width:1.0;"/><line style="stroke:#181818;stroke-width:1.0;" x1="390" x2="730" y1="1021.3203" y2="1021.3203"/><text fill="#000000" font-family="sans-serif" font-size="13" font-weight="bold" lengthAdjust="spacing" textLength="18" x="397" y="1016.5781">20</text><text fill="#000000" font-family="sans-serif" font-size="13" lengthAdjust="spacing" textLength="305" x="419" y="1016.5781">createVaccineAdministration(user, vaccine, date)</text><polygon fill="#181818" points="1267.5,1046.6309,1277.5,1050.6309,1267.5,1054.6309,1271.5,1050.6309" style="stroke:#181818;stroke-width:1.0;"/><line style="stroke:#181818;stroke-width:1.0;" x1="746" x2="1273.5" y1="1050.6309" y2="1050.6309"/><text fill="#000000" font-family="sans-serif" font-size="13" font-weight="bold" lengthAdjust="spacing" textLength="18" x="753" y="1045.8887">21</text><text fill="#000000" font-family="sans-serif" font-size="13" lengthAdjust="spacing" textLength="305" x="775" y="1045.8887">createVaccineAdministration(user, vaccine, date)</text><polygon fill="#181818" points="1867.5,1075.9414,1877.5,1079.9414,1867.5,1083.9414,1871.5,1079.9414" style="stroke:#181818;stroke-width:1.0;"/><line style="stroke:#181818;stroke-width:1.0;" x1="1289.5" x2="1873.5" y1="1079.9414" y2="1079.9414"/><text fill="#000000" font-family="sans-serif" font-size="13" font-weight="bold" lengthAdjust="spacing" textLength="18" x="1296.5" y="1075.1992">22</text><text fill="#000000" font-family="sans-serif" font-size="13" lengthAdjust="spacing" textLength="163" x="1318.5" y="1075.1992">create(user, vaccine, date)</text><line style="stroke:#181818;stroke-width:1.0;" x1="1294.5" x2="1336.5" y1="1139.252" y2="1139.252"/><line style="stroke:#181818;stroke-width:1.0;" x1="1336.5" x2="1336.5" y1="1139.252" y2="1152.252"/><line style="stroke:#181818;stroke-width:1.0;" x1="1295.5" x2="1336.5" y1="1152.252" y2="1152.252"/><polygon fill="#181818" points="1305.5,1148.252,1295.5,1152.252,1305.5,1156.252,1301.5,1152.252" style="stroke:#181818;stroke-width:1.0;"/><text fill="#000000" font-family="sans-serif" font-size="13" font-weight="bold" lengthAdjust="spacing" textLength="18" x="1301.5" y="1134.5098">23</text><text fill="#000000" font-family="sans-serif" font-size="13" lengthAdjust="spacing" textLength="130" x="1323.5" y="1134.5098">saveAdministration()</text><polygon fill="#181818" points="44,1214.5625,34,1218.5625,44,1222.5625,40,1218.5625" style="stroke:#181818;stroke-width:1.0;"/><line style="stroke:#181818;stroke-width:1.0;stroke-dasharray:2.0,2.0;" x1="38" x2="384" y1="1218.5625" y2="1218.5625"/><text fill="#000000" font-family="sans-serif" font-size="13" font-weight="bold" lengthAdjust="spacing" textLength="18" x="50" y="1213.8203">24</text><text fill="#000000" font-family="sans-serif" font-size="13" lengthAdjust="spacing" textLength="260" x="72" y="1213.8203">shows all data and requests confirmation</text><polygon fill="#181818" points="368,1243.873,378,1247.873,368,1251.873,372,1247.873" style="stroke:#181818;stroke-width:1.0;"/><line style="stroke:#181818;stroke-width:1.0;" x1="33" x2="374" y1="1247.873" y2="1247.873"/><text fill="#000000" font-family="sans-serif" font-size="13" font-weight="bold" lengthAdjust="spacing" textLength="18" x="40" y="1243.1309">25</text><text fill="#000000" font-family="sans-serif" font-size="13" lengthAdjust="spacing" textLength="111" x="62" y="1243.1309">confirms the data</text><polygon fill="#181818" points="724,1273.1836,734,1277.1836,724,1281.1836,728,1277.1836" style="stroke:#181818;stroke-width:1.0;"/><line style="stroke:#181818;stroke-width:1.0;" x1="390" x2="730" y1="1277.1836" y2="1277.1836"/><text fill="#000000" font-family="sans-serif" font-size="13" font-weight="bold" lengthAdjust="spacing" textLength="18" x="397" y="1272.4414">26</text><text fill="#000000" font-family="sans-serif" font-size="13" lengthAdjust="spacing" textLength="265" x="419" y="1272.4414">addVaccineAdministration(administration)</text><polygon fill="#181818" points="1267.5,1302.4941,1277.5,1306.4941,1267.5,1310.4941,1271.5,1306.4941" style="stroke:#181818;stroke-width:1.0;"/><line style="stroke:#181818;stroke-width:1.0;" x1="746" x2="1273.5" y1="1306.4941" y2="1306.4941"/><text fill="#000000" font-family="sans-serif" font-size="13" font-weight="bold" lengthAdjust="spacing" textLength="18" x="753" y="1301.752">27</text><text fill="#000000" font-family="sans-serif" font-size="13" lengthAdjust="spacing" textLength="265" x="775" y="1301.752">addVaccineAdministration(administration)</text><polygon fill="#181818" points="724,1361.8047,734,1365.8047,724,1369.8047,728,1365.8047" style="stroke:#181818;stroke-width:1.0;"/><line style="stroke:#181818;stroke-width:1.0;" x1="390" x2="730" y1="1365.8047" y2="1365.8047"/><text fill="#000000" font-family="sans-serif" font-size="13" font-weight="bold" lengthAdjust="spacing" textLength="18" x="397" y="1361.0625">28</text><text fill="#000000" font-family="sans-serif" font-size="13" lengthAdjust="spacing" textLength="196" x="419" y="1361.0625">removeFromWaitingRoom(user)</text><polygon fill="#181818" points="1267.5,1391.1152,1277.5,1395.1152,1267.5,1399.1152,1271.5,1395.1152" style="stroke:#181818;stroke-width:1.0;"/><line style="stroke:#181818;stroke-width:1.0;" x1="746" x2="1273.5" y1="1395.1152" y2="1395.1152"/><text fill="#000000" font-family="sans-serif" font-size="13" font-weight="bold" lengthAdjust="spacing" textLength="18" x="753" y="1390.373">29</text><text fill="#000000" font-family="sans-serif" font-size="13" lengthAdjust="spacing" textLength="196" x="775" y="1390.373">removeFromWaitingRoom(user)</text><polygon fill="#181818" points="724,1450.4258,734,1454.4258,724,1458.4258,728,1454.4258" style="stroke:#181818;stroke-width:1.0;"/><line style="stroke:#181818;stroke-width:1.0;" x1="390" x2="730" y1="1454.4258" y2="1454.4258"/><text fill="#000000" font-family="sans-serif" font-size="13" font-weight="bold" lengthAdjust="spacing" textLength="18" x="397" y="1449.6836">30</text><text fill="#000000" font-family="sans-serif" font-size="13" lengthAdjust="spacing" textLength="297" x="419" y="1449.6836">moveToRecoveryRoom(administration, vaccine)</text><polygon fill="#181818" points="1267.5,1479.7363,1277.5,1483.7363,1267.5,1487.7363,1271.5,1483.7363" style="stroke:#181818;stroke-width:1.0;"/><line style="stroke:#181818;stroke-width:1.0;" x1="746" x2="1273.5" y1="1483.7363" y2="1483.7363"/><text fill="#000000" font-family="sans-serif" font-size="13" font-weight="bold" lengthAdjust="spacing" textLength="18" x="753" y="1478.9941">31</text><text fill="#000000" font-family="sans-serif" font-size="13" lengthAdjust="spacing" textLength="242" x="775" y="1478.9941">moveToRecoveryRoom(administration)</text><polygon fill="#181818" points="39,1539.0469,29,1543.0469,39,1547.0469,35,1543.0469" style="stroke:#181818;stroke-width:1.0;"/><line style="stroke:#181818;stroke-width:1.0;stroke-dasharray:2.0,2.0;" x1="33" x2="384" y1="1543.0469" y2="1543.0469"/><text fill="#000000" font-family="sans-serif" font-size="13" font-weight="bold" lengthAdjust="spacing" textLength="18" x="45" y="1538.3047">32</text><text fill="#000000" font-family="sans-serif" font-size="13" lengthAdjust="spacing" textLength="167" x="67" y="1538.3047">informs operation success</text><!--MD5=[776ceb4c6ff80f146ef625e514eebe9e]
@startuml
autonumber
actor "Nurse" as NU
participant "VaccineAdministrationUI" as UI
participant "VaccineAdministrationController" as CTRL
participant "App" as _APP
participant "app\n:App" as APP
participant "comp\n:Company" as COMP
participant "empStore\n:EmployeeStore" as EMPSTORE
participant "VaccinationCenter" as VC
participant "UserArrival" as UA
participant "VaccineSchedule" as VS
participant "VaccineAdministration" as VA
participant "wr\n:List <UserArrival> waitingRoom"
participant "rr\n:List <VaccineAdministration> recoveryRoom"



activate NU
NU -> UI : asks to record the administration of a vaccine
activate UI
UI -> CTRL : getWorking()
activate CTRL
CTRL -> _APP : app = getInstance()
activate _APP
deactivate _APP
CTRL -> APP : comp = getCompany()
activate APP
deactivate APP
CTRL -> COMP : empStore = getEmployeeStore()
activate COMP
deactivate COMP
CTRL -> EMPSTORE : working = getWorking()
activate EMPSTORE
deactivate EMPSTORE
deactivate CTRL
deactivate CTRL



UI - -> NU : shows data (user, vaccine) and asks to select one
deactivate UI

NU -> UI : selects desired data
activate UI
UI -> CTRL : getWaitingRoom()
activate CTRL
CTRL -> VC  : user = getListUserToWaitingRoom()
activate VC
deactivate VC
deactivate CTRL
UI -> CTRL : getAvailableVaccinesForUser(user)
activate CTRL
CTRL -> UA : schedule = getSchedule()
activate UA
deactivate UA
CTRL -> VS : getVaccineList()
activate VS
deactivate VS
deactivate CTRL
UI -> CTRL : validateVaccineAdministration(user, vaccine)
activate CTRL
CTRL -> VC : administration =  validateVaccineAdministration(user,vaccine)
activate VC
VC -> VC : getVaccineAdministration()
loop
VC -> VC : validateVaccineAdministration(user,vaccine)
VC -> VA : setVaccinationTime(date)
activate VA
deactivate VA
end
deactivate VC
CTRL -> VA : date = getDate()
activate VA
deactivate VA
deactivate CTRL
deactivate UA
alt if administration == null
UI -> CTRL : createVaccineAdministration(user, vaccine, date)
activate CTRL
    CTRL -> VC : createVaccineAdministration(user, vaccine, date)
    activate VC
    VC -> VA : create(user, vaccine, date)
    activate VA
    deactivate VA
    VC -> VC : saveAdministration()
    activate VC
    deactivate VC
    deactivate VC
end
deactivate CTRL


UI - -> NU : shows all data and requests confirmation
deactivate UI

NU -> UI : confirms the data

activate UI
UI->CTRL : addVaccineAdministration(administration)
activate CTRL
CTRL->VC : addVaccineAdministration(administration)
activate VC


deactivate VC


deactivate CTRL
UI->CTRL : removeFromWaitingRoom(user)
activate CTRL
CTRL->VC : removeFromWaitingRoom(user)
activate VC


deactivate VC

deactivate CTRL
UI->CTRL : moveToRecoveryRoom(administration, vaccine)
activate CTRL
CTRL->VC : moveToRecoveryRoom(administration)
activate VC
deactivate VC


deactivate CTRL


UI - -> NU : informs operation success
deactivate UI

deactivate NU
@enduml

PlantUML version 1.2022.5(Sat Apr 30 11:55:52 WEST 2022)
(GPL source distribution)
Java Runtime: OpenJDK Runtime Environment
JVM: OpenJDK 64-Bit Server VM
Default Encoding: UTF-8
Language: en
Country: PT
--></g></svg>