<?xml version="1.0" encoding="UTF-8" standalone="no"?><svg xmlns="http://www.w3.org/2000/svg" xmlns:xlink="http://www.w3.org/1999/xlink" contentStyleType="text/css" height="527.2px" preserveAspectRatio="none" style="width:2662px;height:527px;background:#FFFFFF;" version="1.1" viewBox="0 0 2662 527" width="2662.8px" zoomAndPan="magnify"><defs/><g><!--MD5=[0b1ce5251ebf137e6b3550dd84e6af65]
class HealthcareCenter--><g id="elem_HealthcareCenter"><rect codeLine="7" fill="#F1F1F1" height="20.4625" id="HealthcareCenter" rx="1" ry="1" style="stroke:#181818;stroke-width:0.20000000000000004;" width="77.2" x="583.8" y="337"/><ellipse cx="589.8" cy="345.6313" fill="#ADD1B2" rx="4.4" ry="4.4" style="stroke:#181818;stroke-width:0.4000000000000001;"/><path d="M590.6,344.2313 Q590.6813,344.0313 590.775,343.9313 Q590.8688,343.8313 590.975,343.8313 Q591.1625,343.8313 591.2813,343.9438 Q591.4,344.0563 591.4,344.3188 L591.4,344.9438 Q591.4,345.2063 591.2875,345.3188 Q591.175,345.4313 591,345.4313 Q590.8438,345.4313 590.7438,345.3625 Q590.6438,345.2938 590.6,345.1125 Q590.5813,344.9875 590.5125,344.9188 Q590.3875,344.7875 590.1625,344.7125 Q589.9375,344.6313 589.7125,344.6313 Q589.4313,344.6313 589.1938,344.7438 Q588.9625,344.8563 588.7813,345.1063 Q588.6,345.3563 588.6,345.7 L588.6,346.0688 Q588.6,346.4813 588.9375,346.7563 Q589.275,347.0313 589.875,347.0313 Q590.2313,347.0313 590.4813,346.95 Q590.625,346.9063 590.7875,346.7625 Q590.8938,346.6813 590.95,346.6563 Q591.0063,346.6313 591.075,346.6313 Q591.2063,346.6313 591.3,346.7375 Q591.4,346.8375 591.4,346.9813 Q591.4,347.1188 591.2625,347.2813 Q591.0625,347.5188 590.7438,347.65 Q590.325,347.8313 589.8125,347.8313 Q589.2125,347.8313 588.7313,347.5938 Q588.3438,347.4063 588.0688,347 Q587.8,346.5938 587.8,346.1125 L587.8,345.675 Q587.8,345.175 588.0375,344.7375 Q588.2813,344.3 588.7,344.0688 Q589.125,343.8313 589.6,343.8313 Q589.8875,343.8313 590.1375,343.9313 Q590.3875,344.0313 590.6,344.2313 Z " fill="#000000"/><text fill="#000000" font-family="sans-serif" font-size="8" lengthAdjust="spacing" textLength="61.2" x="597" y="348.9047">HealthcareCenter</text><line style="stroke:#181818;stroke-width:0.20000000000000004;" x1="584.2" x2="660.6" y1="354.2625" y2="354.2625"/></g><!--MD5=[f00dbe8c0302c6aec2cb26b3c659c8fc]
class Report--><g id="elem_Report"><rect codeLine="61" fill="#F1F1F1" height="20.4625" id="Report" rx="1" ry="1" style="stroke:#181818;stroke-width:0.20000000000000004;" width="40" x="2050.4" y="252.6"/><ellipse cx="2056.4" cy="261.2313" fill="#ADD1B2" rx="4.4" ry="4.4" style="stroke:#181818;stroke-width:0.4000000000000001;"/><path d="M2057.2,259.8313 Q2057.2813,259.6313 2057.375,259.5313 Q2057.4688,259.4313 2057.575,259.4313 Q2057.7625,259.4313 2057.8813,259.5438 Q2058,259.6563 2058,259.9188 L2058,260.5438 Q2058,260.8063 2057.8875,260.9188 Q2057.775,261.0313 2057.6,261.0313 Q2057.4438,261.0313 2057.3438,260.9625 Q2057.2438,260.8938 2057.2,260.7125 Q2057.1813,260.5875 2057.1125,260.5188 Q2056.9875,260.3875 2056.7625,260.3125 Q2056.5375,260.2313 2056.3125,260.2313 Q2056.0313,260.2313 2055.7938,260.3438 Q2055.5625,260.4563 2055.3813,260.7063 Q2055.2,260.9563 2055.2,261.3 L2055.2,261.6688 Q2055.2,262.0813 2055.5375,262.3563 Q2055.875,262.6313 2056.475,262.6313 Q2056.8313,262.6313 2057.0813,262.55 Q2057.225,262.5063 2057.3875,262.3625 Q2057.4938,262.2813 2057.55,262.2563 Q2057.6063,262.2313 2057.675,262.2313 Q2057.8063,262.2313 2057.9,262.3375 Q2058,262.4375 2058,262.5813 Q2058,262.7188 2057.8625,262.8813 Q2057.6625,263.1188 2057.3438,263.25 Q2056.925,263.4313 2056.4125,263.4313 Q2055.8125,263.4313 2055.3313,263.1938 Q2054.9438,263.0063 2054.6688,262.6 Q2054.4,262.1938 2054.4,261.7125 L2054.4,261.275 Q2054.4,260.775 2054.6375,260.3375 Q2054.8813,259.9 2055.3,259.6688 Q2055.725,259.4313 2056.2,259.4313 Q2056.4875,259.4313 2056.7375,259.5313 Q2056.9875,259.6313 2057.2,259.8313 Z " fill="#000000"/><text fill="#000000" font-family="sans-serif" font-size="8" lengthAdjust="spacing" textLength="24" x="2063.6" y="264.5047">Report</text><line style="stroke:#181818;stroke-width:0.20000000000000004;" x1="2050.8" x2="2090" y1="269.8625" y2="269.8625"/></g><!--MD5=[2d935fd2dd068a13da1ae531f9857c4f]
class CenterCoordinator--><g id="elem_CenterCoordinator"><rect codeLine="12" fill="#F1F1F1" height="20.4625" id="CenterCoordinator" rx="1" ry="1" style="stroke:#181818;stroke-width:0.20000000000000004;" width="80.8" x="1716.2" y="365.4"/><ellipse cx="1722.2" cy="374.0313" fill="#ADD1B2" rx="4.4" ry="4.4" style="stroke:#181818;stroke-width:0.4000000000000001;"/><path d="M1723,372.6313 Q1723.0813,372.4313 1723.175,372.3313 Q1723.2688,372.2313 1723.375,372.2313 Q1723.5625,372.2313 1723.6813,372.3438 Q1723.8,372.4563 1723.8,372.7188 L1723.8,373.3438 Q1723.8,373.6063 1723.6875,373.7188 Q1723.575,373.8313 1723.4,373.8313 Q1723.2438,373.8313 1723.1438,373.7625 Q1723.0438,373.6938 1723,373.5125 Q1722.9813,373.3875 1722.9125,373.3188 Q1722.7875,373.1875 1722.5625,373.1125 Q1722.3375,373.0313 1722.1125,373.0313 Q1721.8313,373.0313 1721.5938,373.1438 Q1721.3625,373.2563 1721.1813,373.5063 Q1721,373.7563 1721,374.1 L1721,374.4688 Q1721,374.8813 1721.3375,375.1563 Q1721.675,375.4313 1722.275,375.4313 Q1722.6313,375.4313 1722.8813,375.35 Q1723.025,375.3063 1723.1875,375.1625 Q1723.2938,375.0813 1723.35,375.0563 Q1723.4063,375.0313 1723.475,375.0313 Q1723.6063,375.0313 1723.7,375.1375 Q1723.8,375.2375 1723.8,375.3813 Q1723.8,375.5188 1723.6625,375.6813 Q1723.4625,375.9188 1723.1438,376.05 Q1722.725,376.2313 1722.2125,376.2313 Q1721.6125,376.2313 1721.1313,375.9938 Q1720.7438,375.8063 1720.4688,375.4 Q1720.2,374.9938 1720.2,374.5125 L1720.2,374.075 Q1720.2,373.575 1720.4375,373.1375 Q1720.6813,372.7 1721.1,372.4688 Q1721.525,372.2313 1722,372.2313 Q1722.2875,372.2313 1722.5375,372.3313 Q1722.7875,372.4313 1723,372.6313 Z " fill="#000000"/><text fill="#000000" font-family="sans-serif" font-size="8" lengthAdjust="spacing" textLength="64.8" x="1729.4" y="377.3047">CenterCoordinator</text><line style="stroke:#181818;stroke-width:0.20000000000000004;" x1="1716.6" x2="1796.6" y1="382.6625" y2="382.6625"/></g><!--MD5=[02e4b9b7573f1156f41e60aa5b4e25a4]
class Company--><g id="elem_Company"><rect codeLine="15" fill="#F1F1F1" height="33.725" id="Company" rx="1" ry="1" style="stroke:#181818;stroke-width:0.20000000000000004;" width="49.2" x="2045.8" y="310.8"/><ellipse cx="2051.8" cy="319.4313" fill="#ADD1B2" rx="4.4" ry="4.4" style="stroke:#181818;stroke-width:0.4000000000000001;"/><path d="M2052.6,318.0313 Q2052.6813,317.8313 2052.775,317.7313 Q2052.8688,317.6313 2052.975,317.6313 Q2053.1625,317.6313 2053.2813,317.7438 Q2053.4,317.8563 2053.4,318.1188 L2053.4,318.7438 Q2053.4,319.0063 2053.2875,319.1188 Q2053.175,319.2313 2053,319.2313 Q2052.8438,319.2313 2052.7438,319.1625 Q2052.6438,319.0938 2052.6,318.9125 Q2052.5813,318.7875 2052.5125,318.7188 Q2052.3875,318.5875 2052.1625,318.5125 Q2051.9375,318.4313 2051.7125,318.4313 Q2051.4313,318.4313 2051.1938,318.5438 Q2050.9625,318.6563 2050.7813,318.9063 Q2050.6,319.1563 2050.6,319.5 L2050.6,319.8688 Q2050.6,320.2813 2050.9375,320.5563 Q2051.275,320.8313 2051.875,320.8313 Q2052.2313,320.8313 2052.4813,320.75 Q2052.625,320.7063 2052.7875,320.5625 Q2052.8938,320.4813 2052.95,320.4563 Q2053.0063,320.4313 2053.075,320.4313 Q2053.2063,320.4313 2053.3,320.5375 Q2053.4,320.6375 2053.4,320.7813 Q2053.4,320.9188 2053.2625,321.0813 Q2053.0625,321.3188 2052.7438,321.45 Q2052.325,321.6313 2051.8125,321.6313 Q2051.2125,321.6313 2050.7313,321.3938 Q2050.3438,321.2063 2050.0688,320.8 Q2049.8,320.3938 2049.8,319.9125 L2049.8,319.475 Q2049.8,318.975 2050.0375,318.5375 Q2050.2813,318.1 2050.7,317.8688 Q2051.125,317.6313 2051.6,317.6313 Q2051.8875,317.6313 2052.1375,317.7313 Q2052.3875,317.8313 2052.6,318.0313 Z " fill="#000000"/><text fill="#000000" font-family="sans-serif" font-size="8" lengthAdjust="spacing" textLength="33.2" x="2059" y="322.7047">Company</text><line style="stroke:#181818;stroke-width:0.20000000000000004;" x1="2046.2" x2="2094.6" y1="328.0625" y2="328.0625"/><text fill="#000000" font-family="sans-serif" font-size="8" lengthAdjust="spacing" textLength="39.6" x="2049.8" y="339.5672">designation</text></g><!--MD5=[da547346deef918ea16944ba046651ef]
class Administrator--><g id="elem_Administrator"><rect codeLine="19" fill="#F1F1F1" height="20.4625" id="Administrator" rx="1" ry="1" style="stroke:#181818;stroke-width:0.20000000000000004;" width="62.4" x="389.6" y="258.6"/><ellipse cx="395.6" cy="267.2313" fill="#ADD1B2" rx="4.4" ry="4.4" style="stroke:#181818;stroke-width:0.4000000000000001;"/><path d="M396.4,265.8313 Q396.4813,265.6313 396.575,265.5313 Q396.6688,265.4313 396.775,265.4313 Q396.9625,265.4313 397.0813,265.5438 Q397.2,265.6563 397.2,265.9188 L397.2,266.5438 Q397.2,266.8063 397.0875,266.9188 Q396.975,267.0313 396.8,267.0313 Q396.6438,267.0313 396.5438,266.9625 Q396.4438,266.8938 396.4,266.7125 Q396.3813,266.5875 396.3125,266.5188 Q396.1875,266.3875 395.9625,266.3125 Q395.7375,266.2313 395.5125,266.2313 Q395.2313,266.2313 394.9938,266.3438 Q394.7625,266.4563 394.5813,266.7063 Q394.4,266.9563 394.4,267.3 L394.4,267.6688 Q394.4,268.0813 394.7375,268.3563 Q395.075,268.6313 395.675,268.6313 Q396.0313,268.6313 396.2813,268.55 Q396.425,268.5063 396.5875,268.3625 Q396.6938,268.2813 396.75,268.2563 Q396.8063,268.2313 396.875,268.2313 Q397.0063,268.2313 397.1,268.3375 Q397.2,268.4375 397.2,268.5813 Q397.2,268.7188 397.0625,268.8813 Q396.8625,269.1188 396.5438,269.25 Q396.125,269.4313 395.6125,269.4313 Q395.0125,269.4313 394.5313,269.1938 Q394.1438,269.0063 393.8688,268.6 Q393.6,268.1938 393.6,267.7125 L393.6,267.275 Q393.6,266.775 393.8375,266.3375 Q394.0813,265.9 394.5,265.6688 Q394.925,265.4313 395.4,265.4313 Q395.6875,265.4313 395.9375,265.5313 Q396.1875,265.6313 396.4,265.8313 Z " fill="#000000"/><text fill="#000000" font-family="sans-serif" font-size="8" lengthAdjust="spacing" textLength="46.4" x="402.8" y="270.5047">Administrator</text><line style="stroke:#181818;stroke-width:0.20000000000000004;" x1="390" x2="451.6" y1="275.8625" y2="275.8625"/></g><!--MD5=[19e445fc4d3b48519cbe33da05496394]
class Vaccine--><g id="elem_Vaccine"><rect codeLine="21" fill="#F1F1F1" height="126.5625" id="Vaccine" rx="1" ry="1" style="stroke:#181818;stroke-width:0.20000000000000004;" width="85.2" x="1228.4" y="228"/><ellipse cx="1253.9" cy="236.6313" fill="#ADD1B2" rx="4.4" ry="4.4" style="stroke:#181818;stroke-width:0.4000000000000001;"/><path d="M1254.7,235.2313 Q1254.7813,235.0313 1254.875,234.9313 Q1254.9688,234.8313 1255.075,234.8313 Q1255.2625,234.8313 1255.3813,234.9438 Q1255.5,235.0563 1255.5,235.3188 L1255.5,235.9438 Q1255.5,236.2063 1255.3875,236.3188 Q1255.275,236.4313 1255.1,236.4313 Q1254.9438,236.4313 1254.8438,236.3625 Q1254.7438,236.2938 1254.7,236.1125 Q1254.6813,235.9875 1254.6125,235.9188 Q1254.4875,235.7875 1254.2625,235.7125 Q1254.0375,235.6313 1253.8125,235.6313 Q1253.5313,235.6313 1253.2938,235.7438 Q1253.0625,235.8563 1252.8813,236.1063 Q1252.7,236.3563 1252.7,236.7 L1252.7,237.0688 Q1252.7,237.4813 1253.0375,237.7563 Q1253.375,238.0313 1253.975,238.0313 Q1254.3313,238.0313 1254.5813,237.95 Q1254.725,237.9063 1254.8875,237.7625 Q1254.9938,237.6813 1255.05,237.6563 Q1255.1063,237.6313 1255.175,237.6313 Q1255.3063,237.6313 1255.4,237.7375 Q1255.5,237.8375 1255.5,237.9813 Q1255.5,238.1188 1255.3625,238.2813 Q1255.1625,238.5188 1254.8438,238.65 Q1254.425,238.8313 1253.9125,238.8313 Q1253.3125,238.8313 1252.8313,238.5938 Q1252.4438,238.4063 1252.1688,238 Q1251.9,237.5938 1251.9,237.1125 L1251.9,236.675 Q1251.9,236.175 1252.1375,235.7375 Q1252.3813,235.3 1252.8,235.0688 Q1253.225,234.8313 1253.7,234.8313 Q1253.9875,234.8313 1254.2375,234.9313 Q1254.4875,235.0313 1254.7,235.2313 Z " fill="#000000"/><text fill="#000000" font-family="sans-serif" font-size="8" lengthAdjust="spacing" textLength="27.6" x="1263.7" y="239.9047">Vaccine</text><line style="stroke:#181818;stroke-width:0.20000000000000004;" x1="1228.8" x2="1313.2" y1="245.2625" y2="245.2625"/><text fill="#000000" font-family="sans-serif" font-size="8" lengthAdjust="spacing" textLength="6.8" x="1232.4" y="256.7672">Id</text><text fill="#000000" font-family="sans-serif" font-size="8" lengthAdjust="spacing" textLength="20.4" x="1232.4" y="270.0297">Name</text><text fill="#000000" font-family="sans-serif" font-size="8" lengthAdjust="spacing" textLength="20.8" x="1232.4" y="283.2922">Brand</text><text fill="#000000" font-family="sans-serif" font-size="8" lengthAdjust="spacing" textLength="47.6" x="1232.4" y="296.5547">Vaccine Type</text><text fill="#000000" font-family="sans-serif" font-size="8" lengthAdjust="spacing" textLength="38.4" x="1232.4" y="309.8172">Age Group</text><text fill="#000000" font-family="sans-serif" font-size="8" lengthAdjust="spacing" textLength="48" x="1232.4" y="323.0797">Dose Number</text><text fill="#000000" font-family="sans-serif" font-size="8" lengthAdjust="spacing" textLength="57.2" x="1232.4" y="336.3422">Vaccine Dosage</text><text fill="#000000" font-family="sans-serif" font-size="8" lengthAdjust="spacing" textLength="77.2" x="1232.4" y="349.6047">Time Since Last Dose</text></g><!--MD5=[cd4ce1c0d44638ff9f42448de30e6b92]
class VaccineSchedule--><g id="elem_VaccineSchedule"><rect codeLine="33" fill="#F1F1F1" height="86.775" id="VaccineSchedule" rx="1" ry="1" style="stroke:#181818;stroke-width:0.20000000000000004;" width="77.6" x="251.6" y="187"/><ellipse cx="258.5" cy="195.6313" fill="#ADD1B2" rx="4.4" ry="4.4" style="stroke:#181818;stroke-width:0.4000000000000001;"/><path d="M259.3,194.2313 Q259.3813,194.0313 259.475,193.9313 Q259.5688,193.8313 259.675,193.8313 Q259.8625,193.8313 259.9813,193.9438 Q260.1,194.0563 260.1,194.3188 L260.1,194.9438 Q260.1,195.2063 259.9875,195.3188 Q259.875,195.4313 259.7,195.4313 Q259.5438,195.4313 259.4438,195.3625 Q259.3438,195.2938 259.3,195.1125 Q259.2813,194.9875 259.2125,194.9188 Q259.0875,194.7875 258.8625,194.7125 Q258.6375,194.6313 258.4125,194.6313 Q258.1313,194.6313 257.8938,194.7438 Q257.6625,194.8563 257.4813,195.1063 Q257.3,195.3563 257.3,195.7 L257.3,196.0688 Q257.3,196.4813 257.6375,196.7563 Q257.975,197.0313 258.575,197.0313 Q258.9313,197.0313 259.1813,196.95 Q259.325,196.9063 259.4875,196.7625 Q259.5938,196.6813 259.65,196.6563 Q259.7063,196.6313 259.775,196.6313 Q259.9063,196.6313 260,196.7375 Q260.1,196.8375 260.1,196.9813 Q260.1,197.1188 259.9625,197.2813 Q259.7625,197.5188 259.4438,197.65 Q259.025,197.8313 258.5125,197.8313 Q257.9125,197.8313 257.4313,197.5938 Q257.0438,197.4063 256.7688,197 Q256.5,196.5938 256.5,196.1125 L256.5,195.675 Q256.5,195.175 256.7375,194.7375 Q256.9813,194.3 257.4,194.0688 Q257.825,193.8313 258.3,193.8313 Q258.5875,193.8313 258.8375,193.9313 Q259.0875,194.0313 259.3,194.2313 Z " fill="#000000"/><text fill="#000000" font-family="sans-serif" font-size="8" lengthAdjust="spacing" textLength="59.6" x="265.9" y="198.9047">VaccineSchedule</text><line style="stroke:#181818;stroke-width:0.20000000000000004;" x1="252" x2="328.8" y1="204.2625" y2="204.2625"/><text fill="#000000" font-family="sans-serif" font-size="8" lengthAdjust="spacing" textLength="15.6" x="255.6" y="215.7672">date</text><text fill="#000000" font-family="sans-serif" font-size="8" lengthAdjust="spacing" textLength="14.8" x="255.6" y="229.0297">time</text><text fill="#000000" font-family="sans-serif" font-size="8" lengthAdjust="spacing" textLength="42.4" x="255.6" y="242.2922">userNumber</text><text fill="#000000" font-family="sans-serif" font-size="8" lengthAdjust="spacing" textLength="62" x="255.6" y="255.5547">vaccinationCenter</text><text fill="#000000" font-family="sans-serif" font-size="8" lengthAdjust="spacing" textLength="69.6" x="255.6" y="268.8172">scheduleVerification</text></g><!--MD5=[03960189e81aa2c066c762ffabbee709]
class Receptionist--><g id="elem_Receptionist"><rect codeLine="41" fill="#F1F1F1" height="20.4625" id="Receptionist" rx="1" ry="1" style="stroke:#181818;stroke-width:0.20000000000000004;" width="59.2" x="2040.8" y="406.2"/><ellipse cx="2046.8" cy="414.8313" fill="#ADD1B2" rx="4.4" ry="4.4" style="stroke:#181818;stroke-width:0.4000000000000001;"/><path d="M2047.6,413.4313 Q2047.6813,413.2313 2047.775,413.1313 Q2047.8688,413.0313 2047.975,413.0313 Q2048.1625,413.0313 2048.2813,413.1438 Q2048.4,413.2563 2048.4,413.5188 L2048.4,414.1438 Q2048.4,414.4063 2048.2875,414.5188 Q2048.175,414.6313 2048,414.6313 Q2047.8438,414.6313 2047.7438,414.5625 Q2047.6438,414.4938 2047.6,414.3125 Q2047.5813,414.1875 2047.5125,414.1188 Q2047.3875,413.9875 2047.1625,413.9125 Q2046.9375,413.8313 2046.7125,413.8313 Q2046.4313,413.8313 2046.1938,413.9438 Q2045.9625,414.0563 2045.7813,414.3063 Q2045.6,414.5563 2045.6,414.9 L2045.6,415.2688 Q2045.6,415.6813 2045.9375,415.9563 Q2046.275,416.2313 2046.875,416.2313 Q2047.2313,416.2313 2047.4813,416.15 Q2047.625,416.1063 2047.7875,415.9625 Q2047.8938,415.8813 2047.95,415.8563 Q2048.0063,415.8313 2048.075,415.8313 Q2048.2063,415.8313 2048.3,415.9375 Q2048.4,416.0375 2048.4,416.1813 Q2048.4,416.3188 2048.2625,416.4813 Q2048.0625,416.7188 2047.7438,416.85 Q2047.325,417.0313 2046.8125,417.0313 Q2046.2125,417.0313 2045.7313,416.7938 Q2045.3438,416.6063 2045.0688,416.2 Q2044.8,415.7938 2044.8,415.3125 L2044.8,414.875 Q2044.8,414.375 2045.0375,413.9375 Q2045.2813,413.5 2045.7,413.2688 Q2046.125,413.0313 2046.6,413.0313 Q2046.8875,413.0313 2047.1375,413.1313 Q2047.3875,413.2313 2047.6,413.4313 Z " fill="#000000"/><text fill="#000000" font-family="sans-serif" font-size="8" lengthAdjust="spacing" textLength="43.2" x="2054" y="418.1047">Receptionist</text><line style="stroke:#181818;stroke-width:0.20000000000000004;" x1="2041.2" x2="2099.6" y1="423.4625" y2="423.4625"/></g><!--MD5=[72be06cc7ae02ccc98efe28a50e62246]
class SNSUser--><g id="elem_SNSUser"><rect codeLine="44" fill="#F1F1F1" height="126.5625" id="SNSUser" rx="1" ry="1" style="stroke:#181818;stroke-width:0.20000000000000004;" width="74" x="585.4" y="182"/><ellipse cx="603.1" cy="190.6313" fill="#ADD1B2" rx="4.4" ry="4.4" style="stroke:#181818;stroke-width:0.4000000000000001;"/><path d="M603.9,189.2313 Q603.9813,189.0313 604.075,188.9313 Q604.1688,188.8313 604.275,188.8313 Q604.4625,188.8313 604.5813,188.9438 Q604.7,189.0563 604.7,189.3188 L604.7,189.9438 Q604.7,190.2063 604.5875,190.3188 Q604.475,190.4313 604.3,190.4313 Q604.1438,190.4313 604.0438,190.3625 Q603.9438,190.2938 603.9,190.1125 Q603.8813,189.9875 603.8125,189.9188 Q603.6875,189.7875 603.4625,189.7125 Q603.2375,189.6313 603.0125,189.6313 Q602.7313,189.6313 602.4938,189.7438 Q602.2625,189.8563 602.0813,190.1063 Q601.9,190.3563 601.9,190.7 L601.9,191.0688 Q601.9,191.4813 602.2375,191.7563 Q602.575,192.0313 603.175,192.0313 Q603.5313,192.0313 603.7813,191.95 Q603.925,191.9063 604.0875,191.7625 Q604.1938,191.6813 604.25,191.6563 Q604.3063,191.6313 604.375,191.6313 Q604.5063,191.6313 604.6,191.7375 Q604.7,191.8375 604.7,191.9813 Q604.7,192.1188 604.5625,192.2813 Q604.3625,192.5188 604.0438,192.65 Q603.625,192.8313 603.1125,192.8313 Q602.5125,192.8313 602.0313,192.5938 Q601.6438,192.4063 601.3688,192 Q601.1,191.5938 601.1,191.1125 L601.1,190.675 Q601.1,190.175 601.3375,189.7375 Q601.5813,189.3 602,189.0688 Q602.425,188.8313 602.9,188.8313 Q603.1875,188.8313 603.4375,188.9313 Q603.6875,189.0313 603.9,189.2313 Z " fill="#000000"/><text fill="#000000" font-family="sans-serif" font-size="8" lengthAdjust="spacing" textLength="32" x="612.9" y="193.9047">SNSUser</text><line style="stroke:#181818;stroke-width:0.20000000000000004;" x1="585.8" x2="659" y1="199.2625" y2="199.2625"/><text fill="#000000" font-family="sans-serif" font-size="8" lengthAdjust="spacing" textLength="19.2" x="589.4" y="210.7672">name</text><text fill="#000000" font-family="sans-serif" font-size="8" lengthAdjust="spacing" textLength="28.4" x="589.4" y="224.0297">address</text><text fill="#000000" font-family="sans-serif" font-size="8" lengthAdjust="spacing" textLength="24.4" x="589.4" y="237.2922">gender</text><text fill="#000000" font-family="sans-serif" font-size="8" lengthAdjust="spacing" textLength="48.4" x="589.4" y="250.5547">phoneNumber</text><text fill="#000000" font-family="sans-serif" font-size="8" lengthAdjust="spacing" textLength="32" x="589.4" y="263.8172">birthDate</text><text fill="#000000" font-family="sans-serif" font-size="8" lengthAdjust="spacing" textLength="47.6" x="589.4" y="277.0797">emailAddress</text><text fill="#000000" font-family="sans-serif" font-size="8" lengthAdjust="spacing" textLength="55.6" x="589.4" y="290.3422">snsUserNumber</text><text fill="#000000" font-family="sans-serif" font-size="8" lengthAdjust="spacing" textLength="66" x="589.4" y="303.6047">citizenCardNumber</text></g><!--MD5=[76b5e19c9337179d2d7ae334371d68c8]
class Notification--><g id="elem_Notification"><rect codeLine="55" fill="#F1F1F1" height="20.4625" id="Notification" rx="1" ry="1" style="stroke:#181818;stroke-width:0.20000000000000004;" width="54.4" x="2.8" y="258.6"/><ellipse cx="8.8" cy="267.2313" fill="#ADD1B2" rx="4.4" ry="4.4" style="stroke:#181818;stroke-width:0.4000000000000001;"/><path d="M9.6,265.8313 Q9.6813,265.6313 9.775,265.5313 Q9.8688,265.4313 9.975,265.4313 Q10.1625,265.4313 10.2813,265.5438 Q10.4,265.6563 10.4,265.9188 L10.4,266.5438 Q10.4,266.8063 10.2875,266.9188 Q10.175,267.0313 10,267.0313 Q9.8438,267.0313 9.7438,266.9625 Q9.6438,266.8938 9.6,266.7125 Q9.5813,266.5875 9.5125,266.5188 Q9.3875,266.3875 9.1625,266.3125 Q8.9375,266.2313 8.7125,266.2313 Q8.4313,266.2313 8.1938,266.3438 Q7.9625,266.4563 7.7813,266.7063 Q7.6,266.9563 7.6,267.3 L7.6,267.6688 Q7.6,268.0813 7.9375,268.3563 Q8.275,268.6313 8.875,268.6313 Q9.2313,268.6313 9.4813,268.55 Q9.625,268.5063 9.7875,268.3625 Q9.8938,268.2813 9.95,268.2563 Q10.0063,268.2313 10.075,268.2313 Q10.2063,268.2313 10.3,268.3375 Q10.4,268.4375 10.4,268.5813 Q10.4,268.7188 10.2625,268.8813 Q10.0625,269.1188 9.7438,269.25 Q9.325,269.4313 8.8125,269.4313 Q8.2125,269.4313 7.7313,269.1938 Q7.3438,269.0063 7.0688,268.6 Q6.8,268.1938 6.8,267.7125 L6.8,267.275 Q6.8,266.775 7.0375,266.3375 Q7.2813,265.9 7.7,265.6688 Q8.125,265.4313 8.6,265.4313 Q8.8875,265.4313 9.1375,265.5313 Q9.3875,265.6313 9.6,265.8313 Z " fill="#000000"/><text fill="#000000" font-family="sans-serif" font-size="8" lengthAdjust="spacing" textLength="38.4" x="16" y="270.5047">Notification</text><line style="stroke:#181818;stroke-width:0.20000000000000004;" x1="3.2" x2="56.8" y1="275.8625" y2="275.8625"/></g><!--MD5=[17d776304760d17bcc13ba401441cbdd]
class SMSNotification--><g id="elem_SMSNotification"><rect codeLine="57" fill="#F1F1F1" height="20.4625" id="SMSNotification" rx="1" ry="1" style="stroke:#181818;stroke-width:0.20000000000000004;" width="71.6" x="118.6" y="258.6"/><ellipse cx="124.6" cy="267.2313" fill="#ADD1B2" rx="4.4" ry="4.4" style="stroke:#181818;stroke-width:0.4000000000000001;"/><path d="M125.4,265.8313 Q125.4813,265.6313 125.575,265.5313 Q125.6688,265.4313 125.775,265.4313 Q125.9625,265.4313 126.0813,265.5438 Q126.2,265.6563 126.2,265.9188 L126.2,266.5438 Q126.2,266.8063 126.0875,266.9188 Q125.975,267.0313 125.8,267.0313 Q125.6438,267.0313 125.5438,266.9625 Q125.4438,266.8938 125.4,266.7125 Q125.3813,266.5875 125.3125,266.5188 Q125.1875,266.3875 124.9625,266.3125 Q124.7375,266.2313 124.5125,266.2313 Q124.2313,266.2313 123.9938,266.3438 Q123.7625,266.4563 123.5813,266.7063 Q123.4,266.9563 123.4,267.3 L123.4,267.6688 Q123.4,268.0813 123.7375,268.3563 Q124.075,268.6313 124.675,268.6313 Q125.0313,268.6313 125.2813,268.55 Q125.425,268.5063 125.5875,268.3625 Q125.6938,268.2813 125.75,268.2563 Q125.8063,268.2313 125.875,268.2313 Q126.0063,268.2313 126.1,268.3375 Q126.2,268.4375 126.2,268.5813 Q126.2,268.7188 126.0625,268.8813 Q125.8625,269.1188 125.5438,269.25 Q125.125,269.4313 124.6125,269.4313 Q124.0125,269.4313 123.5313,269.1938 Q123.1438,269.0063 122.8688,268.6 Q122.6,268.1938 122.6,267.7125 L122.6,267.275 Q122.6,266.775 122.8375,266.3375 Q123.0813,265.9 123.5,265.6688 Q123.925,265.4313 124.4,265.4313 Q124.6875,265.4313 124.9375,265.5313 Q125.1875,265.6313 125.4,265.8313 Z " fill="#000000"/><text fill="#000000" font-family="sans-serif" font-size="8" lengthAdjust="spacing" textLength="55.6" x="131.8" y="270.5047">SMSNotification</text><line style="stroke:#181818;stroke-width:0.20000000000000004;" x1="119" x2="189.8" y1="275.8625" y2="275.8625"/></g><!--MD5=[7e2bc2f128e759c5889ccd6a2666d576]
class EmailNotification--><g id="elem_EmailNotification"><rect codeLine="59" fill="#F1F1F1" height="20.4625" id="EmailNotification" rx="1" ry="1" style="stroke:#181818;stroke-width:0.20000000000000004;" width="73.6" x="117.6" y="293"/><ellipse cx="123.6" cy="301.6313" fill="#ADD1B2" rx="4.4" ry="4.4" style="stroke:#181818;stroke-width:0.4000000000000001;"/><path d="M124.4,300.2313 Q124.4813,300.0313 124.575,299.9313 Q124.6688,299.8313 124.775,299.8313 Q124.9625,299.8313 125.0813,299.9438 Q125.2,300.0563 125.2,300.3188 L125.2,300.9438 Q125.2,301.2063 125.0875,301.3188 Q124.975,301.4313 124.8,301.4313 Q124.6438,301.4313 124.5438,301.3625 Q124.4438,301.2938 124.4,301.1125 Q124.3813,300.9875 124.3125,300.9188 Q124.1875,300.7875 123.9625,300.7125 Q123.7375,300.6313 123.5125,300.6313 Q123.2313,300.6313 122.9938,300.7438 Q122.7625,300.8563 122.5813,301.1063 Q122.4,301.3563 122.4,301.7 L122.4,302.0688 Q122.4,302.4813 122.7375,302.7563 Q123.075,303.0313 123.675,303.0313 Q124.0313,303.0313 124.2813,302.95 Q124.425,302.9063 124.5875,302.7625 Q124.6938,302.6813 124.75,302.6563 Q124.8063,302.6313 124.875,302.6313 Q125.0063,302.6313 125.1,302.7375 Q125.2,302.8375 125.2,302.9813 Q125.2,303.1188 125.0625,303.2813 Q124.8625,303.5188 124.5438,303.65 Q124.125,303.8313 123.6125,303.8313 Q123.0125,303.8313 122.5313,303.5938 Q122.1438,303.4063 121.8688,303 Q121.6,302.5938 121.6,302.1125 L121.6,301.675 Q121.6,301.175 121.8375,300.7375 Q122.0813,300.3 122.5,300.0688 Q122.925,299.8313 123.4,299.8313 Q123.6875,299.8313 123.9375,299.9313 Q124.1875,300.0313 124.4,300.2313 Z " fill="#000000"/><text fill="#000000" font-family="sans-serif" font-size="8" lengthAdjust="spacing" textLength="57.6" x="130.8" y="304.9047">EmailNotification</text><line style="stroke:#181818;stroke-width:0.20000000000000004;" x1="118" x2="190.8" y1="310.2625" y2="310.2625"/></g><!--MD5=[107cfa23aa516ff83d0cf17a6f9fe7ba]
class VaccineAdministration--><g id="elem_VaccineAdministration"><rect codeLine="63" fill="#F1F1F1" height="46.9875" id="VaccineAdministration" rx="1" ry="1" style="stroke:#181818;stroke-width:0.20000000000000004;" width="92.8" x="1555.6" y="73.4"/><ellipse cx="1561.6" cy="82.0313" fill="#ADD1B2" rx="4.4" ry="4.4" style="stroke:#181818;stroke-width:0.4000000000000001;"/><path d="M1562.4,80.6313 Q1562.4813,80.4313 1562.575,80.3313 Q1562.6688,80.2313 1562.775,80.2313 Q1562.9625,80.2313 1563.0813,80.3438 Q1563.2,80.4563 1563.2,80.7188 L1563.2,81.3438 Q1563.2,81.6063 1563.0875,81.7188 Q1562.975,81.8313 1562.8,81.8313 Q1562.6438,81.8313 1562.5438,81.7625 Q1562.4438,81.6938 1562.4,81.5125 Q1562.3813,81.3875 1562.3125,81.3188 Q1562.1875,81.1875 1561.9625,81.1125 Q1561.7375,81.0313 1561.5125,81.0313 Q1561.2313,81.0313 1560.9938,81.1438 Q1560.7625,81.2563 1560.5813,81.5063 Q1560.4,81.7563 1560.4,82.1 L1560.4,82.4688 Q1560.4,82.8813 1560.7375,83.1563 Q1561.075,83.4313 1561.675,83.4313 Q1562.0313,83.4313 1562.2813,83.35 Q1562.425,83.3063 1562.5875,83.1625 Q1562.6938,83.0813 1562.75,83.0563 Q1562.8063,83.0313 1562.875,83.0313 Q1563.0063,83.0313 1563.1,83.1375 Q1563.2,83.2375 1563.2,83.3813 Q1563.2,83.5188 1563.0625,83.6813 Q1562.8625,83.9188 1562.5438,84.05 Q1562.125,84.2313 1561.6125,84.2313 Q1561.0125,84.2313 1560.5313,83.9938 Q1560.1438,83.8063 1559.8688,83.4 Q1559.6,82.9938 1559.6,82.5125 L1559.6,82.075 Q1559.6,81.575 1559.8375,81.1375 Q1560.0813,80.7 1560.5,80.4688 Q1560.925,80.2313 1561.4,80.2313 Q1561.6875,80.2313 1561.9375,80.3313 Q1562.1875,80.4313 1562.4,80.6313 Z " fill="#000000"/><text fill="#000000" font-family="sans-serif" font-size="8" lengthAdjust="spacing" textLength="76.8" x="1568.8" y="85.3047">VaccineAdministration</text><line style="stroke:#181818;stroke-width:0.20000000000000004;" x1="1556" x2="1648" y1="90.6625" y2="90.6625"/><text fill="#000000" font-family="sans-serif" font-size="8" lengthAdjust="spacing" textLength="39.6" x="1559.6" y="102.1672">designation</text><text fill="#000000" font-family="sans-serif" font-size="8" lengthAdjust="spacing" textLength="35.2" x="1559.6" y="115.4297">ageGroup</text></g><!--MD5=[a059576e163b46f56762f12600c49258]
class Nurse--><g id="elem_Nurse"><rect codeLine="68" fill="#F1F1F1" height="20.4625" id="Nurse" rx="1" ry="1" style="stroke:#181818;stroke-width:0.20000000000000004;" width="36.4" x="2052.2" y="72.6"/><ellipse cx="2058.2" cy="81.2313" fill="#ADD1B2" rx="4.4" ry="4.4" style="stroke:#181818;stroke-width:0.4000000000000001;"/><path d="M2059,79.8313 Q2059.0813,79.6313 2059.175,79.5313 Q2059.2688,79.4313 2059.375,79.4313 Q2059.5625,79.4313 2059.6813,79.5438 Q2059.8,79.6563 2059.8,79.9188 L2059.8,80.5438 Q2059.8,80.8063 2059.6875,80.9188 Q2059.575,81.0313 2059.4,81.0313 Q2059.2438,81.0313 2059.1438,80.9625 Q2059.0438,80.8938 2059,80.7125 Q2058.9813,80.5875 2058.9125,80.5188 Q2058.7875,80.3875 2058.5625,80.3125 Q2058.3375,80.2313 2058.1125,80.2313 Q2057.8313,80.2313 2057.5938,80.3438 Q2057.3625,80.4563 2057.1813,80.7063 Q2057,80.9563 2057,81.3 L2057,81.6688 Q2057,82.0813 2057.3375,82.3563 Q2057.675,82.6313 2058.275,82.6313 Q2058.6313,82.6313 2058.8813,82.55 Q2059.025,82.5063 2059.1875,82.3625 Q2059.2938,82.2813 2059.35,82.2563 Q2059.4063,82.2313 2059.475,82.2313 Q2059.6063,82.2313 2059.7,82.3375 Q2059.8,82.4375 2059.8,82.5813 Q2059.8,82.7188 2059.6625,82.8813 Q2059.4625,83.1188 2059.1438,83.25 Q2058.725,83.4313 2058.2125,83.4313 Q2057.6125,83.4313 2057.1313,83.1938 Q2056.7438,83.0063 2056.4688,82.6 Q2056.2,82.1938 2056.2,81.7125 L2056.2,81.275 Q2056.2,80.775 2056.4375,80.3375 Q2056.6813,79.9 2057.1,79.6688 Q2057.525,79.4313 2058,79.4313 Q2058.2875,79.4313 2058.5375,79.5313 Q2058.7875,79.6313 2059,79.8313 Z " fill="#000000"/><text fill="#000000" font-family="sans-serif" font-size="8" lengthAdjust="spacing" textLength="20.4" x="2065.4" y="84.5047">Nurse</text><line style="stroke:#181818;stroke-width:0.20000000000000004;" x1="2052.6" x2="2088.2" y1="89.8625" y2="89.8625"/></g><!--MD5=[f24502e7c9b1056c4d1f73c3d80dda4c]
class RecoveryRoom--><g id="elem_RecoveryRoom"><rect codeLine="71" fill="#F1F1F1" height="33.725" id="RecoveryRoom" rx="1" ry="1" style="stroke:#181818;stroke-width:0.20000000000000004;" width="70" x="1906.2" y="104"/><ellipse cx="1912.2" cy="112.6313" fill="#ADD1B2" rx="4.4" ry="4.4" style="stroke:#181818;stroke-width:0.4000000000000001;"/><path d="M1913,111.2313 Q1913.0813,111.0313 1913.175,110.9313 Q1913.2688,110.8313 1913.375,110.8313 Q1913.5625,110.8313 1913.6813,110.9438 Q1913.8,111.0563 1913.8,111.3188 L1913.8,111.9438 Q1913.8,112.2063 1913.6875,112.3188 Q1913.575,112.4313 1913.4,112.4313 Q1913.2438,112.4313 1913.1438,112.3625 Q1913.0438,112.2938 1913,112.1125 Q1912.9813,111.9875 1912.9125,111.9188 Q1912.7875,111.7875 1912.5625,111.7125 Q1912.3375,111.6313 1912.1125,111.6313 Q1911.8313,111.6313 1911.5938,111.7438 Q1911.3625,111.8563 1911.1813,112.1063 Q1911,112.3563 1911,112.7 L1911,113.0688 Q1911,113.4813 1911.3375,113.7563 Q1911.675,114.0313 1912.275,114.0313 Q1912.6313,114.0313 1912.8813,113.95 Q1913.025,113.9063 1913.1875,113.7625 Q1913.2938,113.6813 1913.35,113.6563 Q1913.4063,113.6313 1913.475,113.6313 Q1913.6063,113.6313 1913.7,113.7375 Q1913.8,113.8375 1913.8,113.9813 Q1913.8,114.1188 1913.6625,114.2813 Q1913.4625,114.5188 1913.1438,114.65 Q1912.725,114.8313 1912.2125,114.8313 Q1911.6125,114.8313 1911.1313,114.5938 Q1910.7438,114.4063 1910.4688,114 Q1910.2,113.5938 1910.2,113.1125 L1910.2,112.675 Q1910.2,112.175 1910.4375,111.7375 Q1910.6813,111.3 1911.1,111.0688 Q1911.525,110.8313 1912,110.8313 Q1912.2875,110.8313 1912.5375,110.9313 Q1912.7875,111.0313 1913,111.2313 Z " fill="#000000"/><text fill="#000000" font-family="sans-serif" font-size="8" lengthAdjust="spacing" textLength="54" x="1919.4" y="115.9047">RecoveryRoom</text><line style="stroke:#181818;stroke-width:0.20000000000000004;" x1="1906.6" x2="1975.8" y1="121.2625" y2="121.2625"/><text fill="#000000" font-family="sans-serif" font-size="8" lengthAdjust="spacing" textLength="30" x="1910.2" y="132.7672">listUsers</text></g><!--MD5=[bbfceadfd3ca8502ba9e4eeb79b71174]
class CommunityCenter--><g id="elem_CommunityCenter"><rect codeLine="76" fill="#F1F1F1" height="20.4625" id="CommunityCenter" rx="1" ry="1" style="stroke:#181818;stroke-width:0.20000000000000004;" width="78.4" x="1902" y="263.4"/><ellipse cx="1908" cy="272.0313" fill="#ADD1B2" rx="4.4" ry="4.4" style="stroke:#181818;stroke-width:0.4000000000000001;"/><path d="M1908.8,270.6313 Q1908.8813,270.4313 1908.975,270.3313 Q1909.0688,270.2313 1909.175,270.2313 Q1909.3625,270.2313 1909.4813,270.3438 Q1909.6,270.4563 1909.6,270.7188 L1909.6,271.3438 Q1909.6,271.6063 1909.4875,271.7188 Q1909.375,271.8313 1909.2,271.8313 Q1909.0438,271.8313 1908.9438,271.7625 Q1908.8438,271.6938 1908.8,271.5125 Q1908.7813,271.3875 1908.7125,271.3188 Q1908.5875,271.1875 1908.3625,271.1125 Q1908.1375,271.0313 1907.9125,271.0313 Q1907.6313,271.0313 1907.3938,271.1438 Q1907.1625,271.2563 1906.9813,271.5063 Q1906.8,271.7563 1906.8,272.1 L1906.8,272.4688 Q1906.8,272.8813 1907.1375,273.1563 Q1907.475,273.4313 1908.075,273.4313 Q1908.4313,273.4313 1908.6813,273.35 Q1908.825,273.3063 1908.9875,273.1625 Q1909.0938,273.0813 1909.15,273.0563 Q1909.2063,273.0313 1909.275,273.0313 Q1909.4063,273.0313 1909.5,273.1375 Q1909.6,273.2375 1909.6,273.3813 Q1909.6,273.5188 1909.4625,273.6813 Q1909.2625,273.9188 1908.9438,274.05 Q1908.525,274.2313 1908.0125,274.2313 Q1907.4125,274.2313 1906.9313,273.9938 Q1906.5438,273.8063 1906.2688,273.4 Q1906,272.9938 1906,272.5125 L1906,272.075 Q1906,271.575 1906.2375,271.1375 Q1906.4813,270.7 1906.9,270.4688 Q1907.325,270.2313 1907.8,270.2313 Q1908.0875,270.2313 1908.3375,270.3313 Q1908.5875,270.4313 1908.8,270.6313 Z " fill="#000000"/><text fill="#000000" font-family="sans-serif" font-size="8" lengthAdjust="spacing" textLength="62.4" x="1915.2" y="275.3047">CommunityCenter</text><line style="stroke:#181818;stroke-width:0.20000000000000004;" x1="1902.4" x2="1980" y1="280.6625" y2="280.6625"/></g><!--MD5=[de60e6d4f424ae4d0522096f76a59010]
class VaccinationCenter--><g id="elem_VaccinationCenter"><rect codeLine="79" fill="#F1F1F1" height="153.0875" id="VaccinationCenter" rx="1" ry="1" style="stroke:#181818;stroke-width:0.20000000000000004;" width="95.6" x="1708.8" y="158.6"/><ellipse cx="1722" cy="167.2313" fill="#ADD1B2" rx="4.4" ry="4.4" style="stroke:#181818;stroke-width:0.4000000000000001;"/><path d="M1722.8,165.8313 Q1722.8813,165.6313 1722.975,165.5313 Q1723.0688,165.4313 1723.175,165.4313 Q1723.3625,165.4313 1723.4813,165.5438 Q1723.6,165.6563 1723.6,165.9188 L1723.6,166.5438 Q1723.6,166.8063 1723.4875,166.9188 Q1723.375,167.0313 1723.2,167.0313 Q1723.0438,167.0313 1722.9438,166.9625 Q1722.8438,166.8938 1722.8,166.7125 Q1722.7813,166.5875 1722.7125,166.5188 Q1722.5875,166.3875 1722.3625,166.3125 Q1722.1375,166.2313 1721.9125,166.2313 Q1721.6313,166.2313 1721.3938,166.3438 Q1721.1625,166.4563 1720.9813,166.7063 Q1720.8,166.9563 1720.8,167.3 L1720.8,167.6688 Q1720.8,168.0813 1721.1375,168.3563 Q1721.475,168.6313 1722.075,168.6313 Q1722.4313,168.6313 1722.6813,168.55 Q1722.825,168.5063 1722.9875,168.3625 Q1723.0938,168.2813 1723.15,168.2563 Q1723.2063,168.2313 1723.275,168.2313 Q1723.4063,168.2313 1723.5,168.3375 Q1723.6,168.4375 1723.6,168.5813 Q1723.6,168.7188 1723.4625,168.8813 Q1723.2625,169.1188 1722.9438,169.25 Q1722.525,169.4313 1722.0125,169.4313 Q1721.4125,169.4313 1720.9313,169.1938 Q1720.5438,169.0063 1720.2688,168.6 Q1720,168.1938 1720,167.7125 L1720,167.275 Q1720,166.775 1720.2375,166.3375 Q1720.4813,165.9 1720.9,165.6688 Q1721.325,165.4313 1721.8,165.4313 Q1722.0875,165.4313 1722.3375,165.5313 Q1722.5875,165.6313 1722.8,165.8313 Z " fill="#000000"/><text fill="#000000" font-family="sans-serif" font-size="8" lengthAdjust="spacing" textLength="63.6" x="1730.8" y="170.5047">VaccinationCenter</text><line style="stroke:#181818;stroke-width:0.20000000000000004;" x1="1709.2" x2="1804" y1="175.8625" y2="175.8625"/><text fill="#000000" font-family="sans-serif" font-size="8" lengthAdjust="spacing" textLength="19.2" x="1712.8" y="187.3672">name</text><text fill="#000000" font-family="sans-serif" font-size="8" lengthAdjust="spacing" textLength="48.4" x="1712.8" y="200.6297">phoneNumber</text><text fill="#000000" font-family="sans-serif" font-size="8" lengthAdjust="spacing" textLength="37.6" x="1712.8" y="213.8922">faxNumber</text><text fill="#000000" font-family="sans-serif" font-size="8" lengthAdjust="spacing" textLength="48.4" x="1712.8" y="227.1547">homeAddress</text><text fill="#000000" font-family="sans-serif" font-size="8" lengthAdjust="spacing" textLength="47.6" x="1712.8" y="240.4172">emailAddress</text><text fill="#000000" font-family="sans-serif" font-size="8" lengthAdjust="spacing" textLength="56.4" x="1712.8" y="253.6797">websiteAddress</text><text fill="#000000" font-family="sans-serif" font-size="8" lengthAdjust="spacing" textLength="47.6" x="1712.8" y="266.9422">openingHours</text><text fill="#000000" font-family="sans-serif" font-size="8" lengthAdjust="spacing" textLength="44.4" x="1712.8" y="280.2047">closingHours</text><text fill="#000000" font-family="sans-serif" font-size="8" lengthAdjust="spacing" textLength="41.6" x="1712.8" y="293.4672">slotDuration</text><text fill="#000000" font-family="sans-serif" font-size="8" lengthAdjust="spacing" textLength="87.6" x="1712.8" y="306.7297">maxNumVaccinesPerSlot</text></g><!--MD5=[0e501da62322464167c8ec4d233a6b7e]
class VaccineType--><g id="elem_VaccineType"><rect codeLine="92" fill="#F1F1F1" height="60.25" id="VaccineType" rx="1" ry="1" style="stroke:#181818;stroke-width:0.20000000000000004;" width="74" x="771.6" y="331.4"/><ellipse cx="783.36" cy="340.0313" fill="#ADD1B2" rx="4.4" ry="4.4" style="stroke:#181818;stroke-width:0.4000000000000001;"/><path d="M784.16,338.6313 Q784.2413,338.4313 784.335,338.3313 Q784.4288,338.2313 784.535,338.2313 Q784.7225,338.2313 784.8413,338.3438 Q784.96,338.4563 784.96,338.7188 L784.96,339.3438 Q784.96,339.6063 784.8475,339.7188 Q784.735,339.8313 784.56,339.8313 Q784.4038,339.8313 784.3038,339.7625 Q784.2038,339.6938 784.16,339.5125 Q784.1413,339.3875 784.0725,339.3188 Q783.9475,339.1875 783.7225,339.1125 Q783.4975,339.0313 783.2725,339.0313 Q782.9913,339.0313 782.7538,339.1438 Q782.5225,339.2563 782.3413,339.5063 Q782.16,339.7563 782.16,340.1 L782.16,340.4688 Q782.16,340.8813 782.4975,341.1563 Q782.835,341.4313 783.435,341.4313 Q783.7913,341.4313 784.0413,341.35 Q784.185,341.3063 784.3475,341.1625 Q784.4538,341.0813 784.51,341.0563 Q784.5663,341.0313 784.635,341.0313 Q784.7663,341.0313 784.86,341.1375 Q784.96,341.2375 784.96,341.3813 Q784.96,341.5188 784.8225,341.6813 Q784.6225,341.9188 784.3038,342.05 Q783.885,342.2313 783.3725,342.2313 Q782.7725,342.2313 782.2913,341.9938 Q781.9038,341.8063 781.6288,341.4 Q781.36,340.9938 781.36,340.5125 L781.36,340.075 Q781.36,339.575 781.5975,339.1375 Q781.8413,338.7 782.26,338.4688 Q782.685,338.2313 783.16,338.2313 Q783.4475,338.2313 783.6975,338.3313 Q783.9475,338.4313 784.16,338.6313 Z " fill="#000000"/><text fill="#000000" font-family="sans-serif" font-size="8" lengthAdjust="spacing" textLength="45.2" x="791.84" y="343.3047">VaccineType</text><line style="stroke:#181818;stroke-width:0.20000000000000004;" x1="772" x2="845.2" y1="348.6625" y2="348.6625"/><text fill="#000000" font-family="sans-serif" font-size="8" lengthAdjust="spacing" textLength="17.2" x="775.6" y="360.1672">code</text><text fill="#000000" font-family="sans-serif" font-size="8" lengthAdjust="spacing" textLength="39.6" x="775.6" y="373.4297">designation</text><text fill="#000000" font-family="sans-serif" font-size="8" lengthAdjust="spacing" textLength="66" x="775.6" y="386.6922">vaccineTechnology</text></g><!--MD5=[f082b347be438956eae752ed2dcedd8d]
class VaccinationCertificate--><g id="elem_VaccinationCertificate"><rect codeLine="98" fill="#F1F1F1" height="20.4625" id="VaccinationCertificate" rx="1" ry="1" style="stroke:#181818;stroke-width:0.20000000000000004;" width="92" x="576.4" y="76.6"/><ellipse cx="582.4" cy="85.2313" fill="#ADD1B2" rx="4.4" ry="4.4" style="stroke:#181818;stroke-width:0.4000000000000001;"/><path d="M583.2,83.8313 Q583.2813,83.6313 583.375,83.5313 Q583.4688,83.4313 583.575,83.4313 Q583.7625,83.4313 583.8813,83.5438 Q584,83.6563 584,83.9188 L584,84.5438 Q584,84.8063 583.8875,84.9188 Q583.775,85.0313 583.6,85.0313 Q583.4438,85.0313 583.3438,84.9625 Q583.2438,84.8938 583.2,84.7125 Q583.1813,84.5875 583.1125,84.5188 Q582.9875,84.3875 582.7625,84.3125 Q582.5375,84.2313 582.3125,84.2313 Q582.0313,84.2313 581.7938,84.3438 Q581.5625,84.4563 581.3813,84.7063 Q581.2,84.9563 581.2,85.3 L581.2,85.6688 Q581.2,86.0813 581.5375,86.3563 Q581.875,86.6313 582.475,86.6313 Q582.8313,86.6313 583.0813,86.55 Q583.225,86.5063 583.3875,86.3625 Q583.4938,86.2813 583.55,86.2563 Q583.6063,86.2313 583.675,86.2313 Q583.8063,86.2313 583.9,86.3375 Q584,86.4375 584,86.5813 Q584,86.7188 583.8625,86.8813 Q583.6625,87.1188 583.3438,87.25 Q582.925,87.4313 582.4125,87.4313 Q581.8125,87.4313 581.3313,87.1938 Q580.9438,87.0063 580.6688,86.6 Q580.4,86.1938 580.4,85.7125 L580.4,85.275 Q580.4,84.775 580.6375,84.3375 Q580.8813,83.9 581.3,83.6688 Q581.725,83.4313 582.2,83.4313 Q582.4875,83.4313 582.7375,83.5313 Q582.9875,83.6313 583.2,83.8313 Z " fill="#000000"/><text fill="#000000" font-family="sans-serif" font-size="8" lengthAdjust="spacing" textLength="76" x="589.6" y="88.5047">VaccinationCertificate</text><line style="stroke:#181818;stroke-width:0.20000000000000004;" x1="576.8" x2="668" y1="93.8625" y2="93.8625"/></g><!--MD5=[aaa7e27c4ec43917c82a021675d2c87a]
class WaitingRoom--><g id="elem_WaitingRoom"><rect codeLine="100" fill="#F1F1F1" height="20.4625" id="WaitingRoom" rx="1" ry="1" style="stroke:#181818;stroke-width:0.20000000000000004;" width="62.8" x="2597.2" y="72.6"/><ellipse cx="2603.2" cy="81.2313" fill="#ADD1B2" rx="4.4" ry="4.4" style="stroke:#181818;stroke-width:0.4000000000000001;"/><path d="M2604,79.8313 Q2604.0813,79.6313 2604.175,79.5313 Q2604.2688,79.4313 2604.375,79.4313 Q2604.5625,79.4313 2604.6813,79.5438 Q2604.8,79.6563 2604.8,79.9188 L2604.8,80.5438 Q2604.8,80.8063 2604.6875,80.9188 Q2604.575,81.0313 2604.4,81.0313 Q2604.2438,81.0313 2604.1438,80.9625 Q2604.0438,80.8938 2604,80.7125 Q2603.9813,80.5875 2603.9125,80.5188 Q2603.7875,80.3875 2603.5625,80.3125 Q2603.3375,80.2313 2603.1125,80.2313 Q2602.8313,80.2313 2602.5938,80.3438 Q2602.3625,80.4563 2602.1813,80.7063 Q2602,80.9563 2602,81.3 L2602,81.6688 Q2602,82.0813 2602.3375,82.3563 Q2602.675,82.6313 2603.275,82.6313 Q2603.6313,82.6313 2603.8813,82.55 Q2604.025,82.5063 2604.1875,82.3625 Q2604.2938,82.2813 2604.35,82.2563 Q2604.4063,82.2313 2604.475,82.2313 Q2604.6063,82.2313 2604.7,82.3375 Q2604.8,82.4375 2604.8,82.5813 Q2604.8,82.7188 2604.6625,82.8813 Q2604.4625,83.1188 2604.1438,83.25 Q2603.725,83.4313 2603.2125,83.4313 Q2602.6125,83.4313 2602.1313,83.1938 Q2601.7438,83.0063 2601.4688,82.6 Q2601.2,82.1938 2601.2,81.7125 L2601.2,81.275 Q2601.2,80.775 2601.4375,80.3375 Q2601.6813,79.9 2602.1,79.6688 Q2602.525,79.4313 2603,79.4313 Q2603.2875,79.4313 2603.5375,79.5313 Q2603.7875,79.6313 2604,79.8313 Z " fill="#000000"/><text fill="#000000" font-family="sans-serif" font-size="8" lengthAdjust="spacing" textLength="46.8" x="2610.4" y="84.5047">WaitingRoom</text><line style="stroke:#181818;stroke-width:0.20000000000000004;" x1="2597.6" x2="2659.6" y1="89.8625" y2="89.8625"/></g><!--MD5=[7421f545a0d8420c5bec41e74b387d9c]
class Employee--><g id="elem_Employee"><rect codeLine="102" fill="#F1F1F1" height="100.0375" id="Employee" rx="1" ry="1" style="stroke:#181818;stroke-width:0.20000000000000004;" width="74" x="1904.2" y="336.4"/><ellipse cx="1920.64" cy="345.0313" fill="#ADD1B2" rx="4.4" ry="4.4" style="stroke:#181818;stroke-width:0.4000000000000001;"/><path d="M1921.44,343.6313 Q1921.5213,343.4313 1921.615,343.3313 Q1921.7088,343.2313 1921.815,343.2313 Q1922.0025,343.2313 1922.1213,343.3438 Q1922.24,343.4563 1922.24,343.7188 L1922.24,344.3438 Q1922.24,344.6063 1922.1275,344.7188 Q1922.015,344.8313 1921.84,344.8313 Q1921.6838,344.8313 1921.5838,344.7625 Q1921.4838,344.6938 1921.44,344.5125 Q1921.4213,344.3875 1921.3525,344.3188 Q1921.2275,344.1875 1921.0025,344.1125 Q1920.7775,344.0313 1920.5525,344.0313 Q1920.2713,344.0313 1920.0338,344.1438 Q1919.8025,344.2563 1919.6213,344.5063 Q1919.44,344.7563 1919.44,345.1 L1919.44,345.4688 Q1919.44,345.8813 1919.7775,346.1563 Q1920.115,346.4313 1920.715,346.4313 Q1921.0713,346.4313 1921.3213,346.35 Q1921.465,346.3063 1921.6275,346.1625 Q1921.7338,346.0813 1921.79,346.0563 Q1921.8463,346.0313 1921.915,346.0313 Q1922.0463,346.0313 1922.14,346.1375 Q1922.24,346.2375 1922.24,346.3813 Q1922.24,346.5188 1922.1025,346.6813 Q1921.9025,346.9188 1921.5838,347.05 Q1921.165,347.2313 1920.6525,347.2313 Q1920.0525,347.2313 1919.5713,346.9938 Q1919.1838,346.8063 1918.9088,346.4 Q1918.64,345.9938 1918.64,345.5125 L1918.64,345.075 Q1918.64,344.575 1918.8775,344.1375 Q1919.1213,343.7 1919.54,343.4688 Q1919.965,343.2313 1920.44,343.2313 Q1920.7275,343.2313 1920.9775,343.3313 Q1921.2275,343.4313 1921.44,343.6313 Z " fill="#000000"/><text fill="#000000" font-family="sans-serif" font-size="8" lengthAdjust="spacing" textLength="34.8" x="1930.16" y="348.3047">Employee</text><line style="stroke:#181818;stroke-width:0.20000000000000004;" x1="1904.6" x2="1977.8" y1="353.6625" y2="353.6625"/><text fill="#000000" font-family="sans-serif" font-size="8" lengthAdjust="spacing" textLength="19.2" x="1908.2" y="365.1672">name</text><text fill="#000000" font-family="sans-serif" font-size="8" lengthAdjust="spacing" textLength="48.4" x="1908.2" y="378.4297">phoneNumber</text><text fill="#000000" font-family="sans-serif" font-size="8" lengthAdjust="spacing" textLength="28.4" x="1908.2" y="391.6922">address</text><text fill="#000000" font-family="sans-serif" font-size="8" lengthAdjust="spacing" textLength="47.6" x="1908.2" y="404.9547">emailAddress</text><text fill="#000000" font-family="sans-serif" font-size="8" lengthAdjust="spacing" textLength="66" x="1908.2" y="418.2172">citizenCardNumber</text><text fill="#000000" font-family="sans-serif" font-size="8" lengthAdjust="spacing" textLength="39.6" x="1908.2" y="431.4797">companyID</text></g><!--MD5=[b3411a3750bc281802b6652af7ee7751]
class Dosage--><g id="elem_Dosage"><rect fill="#F1F1F1" height="20.4625" id="Dosage" rx="1" ry="1" style="stroke:#181818;stroke-width:0.20000000000000004;" width="43.2" x="1426.8" y="289.4"/><ellipse cx="1432.8" cy="298.0313" fill="#ADD1B2" rx="4.4" ry="4.4" style="stroke:#181818;stroke-width:0.4000000000000001;"/><path d="M1433.6,296.6313 Q1433.6813,296.4313 1433.775,296.3313 Q1433.8688,296.2313 1433.975,296.2313 Q1434.1625,296.2313 1434.2813,296.3438 Q1434.4,296.4563 1434.4,296.7188 L1434.4,297.3438 Q1434.4,297.6063 1434.2875,297.7188 Q1434.175,297.8313 1434,297.8313 Q1433.8438,297.8313 1433.7438,297.7625 Q1433.6438,297.6938 1433.6,297.5125 Q1433.5813,297.3875 1433.5125,297.3188 Q1433.3875,297.1875 1433.1625,297.1125 Q1432.9375,297.0313 1432.7125,297.0313 Q1432.4313,297.0313 1432.1938,297.1438 Q1431.9625,297.2563 1431.7813,297.5063 Q1431.6,297.7563 1431.6,298.1 L1431.6,298.4688 Q1431.6,298.8813 1431.9375,299.1563 Q1432.275,299.4313 1432.875,299.4313 Q1433.2313,299.4313 1433.4813,299.35 Q1433.625,299.3063 1433.7875,299.1625 Q1433.8938,299.0813 1433.95,299.0563 Q1434.0063,299.0313 1434.075,299.0313 Q1434.2063,299.0313 1434.3,299.1375 Q1434.4,299.2375 1434.4,299.3813 Q1434.4,299.5188 1434.2625,299.6813 Q1434.0625,299.9188 1433.7438,300.05 Q1433.325,300.2313 1432.8125,300.2313 Q1432.2125,300.2313 1431.7313,299.9938 Q1431.3438,299.8063 1431.0688,299.4 Q1430.8,298.9938 1430.8,298.5125 L1430.8,298.075 Q1430.8,297.575 1431.0375,297.1375 Q1431.2813,296.7 1431.7,296.4688 Q1432.125,296.2313 1432.6,296.2313 Q1432.8875,296.2313 1433.1375,296.3313 Q1433.3875,296.4313 1433.6,296.6313 Z " fill="#000000"/><text fill="#000000" font-family="sans-serif" font-size="8" lengthAdjust="spacing" textLength="27.2" x="1440" y="301.3047">Dosage</text><line style="stroke:#181818;stroke-width:0.20000000000000004;" x1="1427.2" x2="1469.6" y1="306.6625" y2="306.6625"/></g><!--MD5=[c69bd8cf61f0ea6cbb315ff1a0821c7e]
class UserHealthHistoric--><g id="elem_UserHealthHistoric"><rect fill="#F1F1F1" height="20.4625" id="UserHealthHistoric" rx="1" ry="1" style="stroke:#181818;stroke-width:0.20000000000000004;" width="80.4" x="2334.8" y="97.8"/><ellipse cx="2340.8" cy="106.4313" fill="#ADD1B2" rx="4.4" ry="4.4" style="stroke:#181818;stroke-width:0.4000000000000001;"/><path d="M2341.6,105.0313 Q2341.6813,104.8313 2341.775,104.7313 Q2341.8688,104.6313 2341.975,104.6313 Q2342.1625,104.6313 2342.2813,104.7438 Q2342.4,104.8563 2342.4,105.1188 L2342.4,105.7438 Q2342.4,106.0063 2342.2875,106.1188 Q2342.175,106.2313 2342,106.2313 Q2341.8438,106.2313 2341.7438,106.1625 Q2341.6438,106.0938 2341.6,105.9125 Q2341.5813,105.7875 2341.5125,105.7188 Q2341.3875,105.5875 2341.1625,105.5125 Q2340.9375,105.4313 2340.7125,105.4313 Q2340.4313,105.4313 2340.1938,105.5438 Q2339.9625,105.6563 2339.7813,105.9063 Q2339.6,106.1563 2339.6,106.5 L2339.6,106.8688 Q2339.6,107.2813 2339.9375,107.5563 Q2340.275,107.8313 2340.875,107.8313 Q2341.2313,107.8313 2341.4813,107.75 Q2341.625,107.7063 2341.7875,107.5625 Q2341.8938,107.4813 2341.95,107.4563 Q2342.0063,107.4313 2342.075,107.4313 Q2342.2063,107.4313 2342.3,107.5375 Q2342.4,107.6375 2342.4,107.7813 Q2342.4,107.9188 2342.2625,108.0813 Q2342.0625,108.3188 2341.7438,108.45 Q2341.325,108.6313 2340.8125,108.6313 Q2340.2125,108.6313 2339.7313,108.3938 Q2339.3438,108.2063 2339.0688,107.8 Q2338.8,107.3938 2338.8,106.9125 L2338.8,106.475 Q2338.8,105.975 2339.0375,105.5375 Q2339.2813,105.1 2339.7,104.8688 Q2340.125,104.6313 2340.6,104.6313 Q2340.8875,104.6313 2341.1375,104.7313 Q2341.3875,104.8313 2341.6,105.0313 Z " fill="#000000"/><text fill="#000000" font-family="sans-serif" font-size="8" lengthAdjust="spacing" textLength="64.4" x="2348" y="109.7047">UserHealthHistoric</text><line style="stroke:#181818;stroke-width:0.20000000000000004;" x1="2335.2" x2="2414.8" y1="115.0625" y2="115.0625"/></g><ellipse cx="2375" cy="82.8" fill="#000000" rx="0.8" ry="0.8" style="stroke:none;stroke-width:0.4000000000000001;"/><!--MD5=[6716344a46572fc99c27bf4e50ddbd3d]
reverse link Employee to Nurse--><g id="link_Employee_Nurse"><path codeLine="111" d="M1978.624,329.092 C1979.232,327.924 1979.824,326.76 1980.4,325.6 C2023.252,239.272 2057.2,127.152 2067.076,93.068 " fill="none" id="Employee-backto-Nurse" style="stroke:#181818;stroke-width:0.4000000000000001;"/><polygon fill="none" points="1981.004,330.58,1974.736,336.288,1976.076,327.916,1981.004,330.58" style="stroke:#181818;stroke-width:0.4000000000000001;"/></g><!--MD5=[bfff716514ca687b645fe473c6e098a4]
reverse link Employee to Receptionist--><g id="link_Employee_Receptionist"><path codeLine="112" d="M1986.084,396.792 C2004.188,401.024 2024.604,405.792 2040.768,409.568 " fill="none" id="Employee-backto-Receptionist" style="stroke:#181818;stroke-width:0.4000000000000001;"/><polygon fill="none" points="1985.376,399.504,1978.224,394.956,1986.648,394.052,1985.376,399.504" style="stroke:#181818;stroke-width:0.4000000000000001;"/></g><!--MD5=[738a6f70211648d778fec4b79664b2f5]
link CenterCoordinator to Employee--><g id="link_CenterCoordinator_Employee"><path codeLine="113" d="M1797.108,377.956 C1826.28,379.672 1865.792,381.992 1895.996,383.768 " fill="none" id="CenterCoordinator-to-Employee" style="stroke:#181818;stroke-width:0.4000000000000001;"/><polygon fill="none" points="1896.232,380.976,1904.056,384.24,1895.904,386.568,1896.232,380.976" style="stroke:#181818;stroke-width:0.4000000000000001;"/></g><!--MD5=[98843e815386fb19a65c4c349019f4be]
link VaccinationCenter to Company--><g id="link_VaccinationCenter_Company"><path codeLine="115" d="M1804.428,231.944 C1850.98,230.504 1923.132,233.044 1980.4,256.4 C2010.204,268.556 2038.168,293.836 2054.684,310.768 " fill="none" id="VaccinationCenter-Company" style="stroke:#181818;stroke-width:0.4000000000000001;"/><polygon fill="#000000" points="1926.0924,231.4695,1929.1901,233.6777,1929.8965,231.4351,1926.0924,231.4695" style="stroke:#000000;stroke-width:0.4000000000000001;"/><text fill="#000000" font-family="sans-serif" font-size="5.2" lengthAdjust="spacing" textLength="21.2" x="1933.2" y="234.198">manages</text><text fill="#000000" font-family="sans-serif" font-size="5.2" lengthAdjust="spacing" textLength="2" x="1809.2585" y="239.0491">*</text><text fill="#000000" font-family="sans-serif" font-size="5.2" lengthAdjust="spacing" textLength="2.8" x="2047.4181" y="304.8548">1</text></g><!--MD5=[05986564e1c13a00611587b35563d868]
link Company to VaccineType--><g id="link_Company_VaccineType"><path codeLine="116" d="M2062.948,344.46 C2046.976,379.636 2004.488,457.6 1941.6,457.6 C1678.4,457.6 1678.4,457.6 1678.4,457.6 C1541.144,457.6 1507.856,432.4 1370.6,432.4 C929.4,432.4 929.4,432.4 929.4,432.4 C895.332,432.4 862.392,411.076 839.604,391.832 " fill="none" id="Company-VaccineType" style="stroke:#181818;stroke-width:0.4000000000000001;"/><polygon fill="#000000" points="1430.4015,428.9477,1434.0623,429.9824,1433.9713,427.633,1430.4015,428.9477" style="stroke:#000000;stroke-width:0.4000000000000001;"/><text fill="#000000" font-family="sans-serif" font-size="5.2" lengthAdjust="spacing" textLength="26.8" x="1437.6" y="430.998">administers</text><text fill="#000000" font-family="sans-serif" font-size="5.2" lengthAdjust="spacing" textLength="2.8" x="2056.9475" y="354.7759">1</text><text fill="#000000" font-family="sans-serif" font-size="5.2" lengthAdjust="spacing" textLength="2" x="838.445" y="401.8531">*</text></g><!--MD5=[2ca22bd8a754609e49e7920ac627679b]
link HealthcareCenter to VaccinationCenter--><g id="link_HealthcareCenter_VaccinationCenter"><path codeLine="118" d="M641.284,336.932 C685.416,313.032 801.096,254.016 906,231.6 C1083.22,193.732 1132.404,217.852 1313.6,220.8 C1452.9,223.064 1616.768,229.34 1700.62,232.812 " fill="none" id="HealthcareCenter-to-VaccinationCenter" style="stroke:#181818;stroke-width:0.4000000000000001;"/><polygon fill="none" points="1700.848,230.02,1708.724,233.148,1700.616,235.612,1700.848,230.02" style="stroke:#181818;stroke-width:0.4000000000000001;"/></g><!--MD5=[6cb3a2baddbe90cc101a2528c7285dc5]
reverse link VaccinationCenter to CommunityCenter--><g id="link_VaccinationCenter_CommunityCenter"><path codeLine="119" d="M1812.428,246.78 C1841.296,252.812 1875.888,260.04 1901.888,265.472 " fill="none" id="VaccinationCenter-backto-CommunityCenter" style="stroke:#181818;stroke-width:0.4000000000000001;"/><polygon fill="none" points="1811.712,249.492,1804.452,245.112,1812.856,244.008,1811.712,249.492" style="stroke:#181818;stroke-width:0.4000000000000001;"/></g><!--MD5=[759c7f6dbf62b13e16002bff783a0fa8]
link VaccinationCenter to Vaccine--><g id="link_VaccinationCenter_Vaccine"><path codeLine="120" d="M1708.728,244.96 C1698.86,246.796 1688.512,248.584 1678.8,250 C1609.116,260.164 1403.276,279.272 1313.768,287.392 " fill="none" id="VaccinationCenter-Vaccine" style="stroke:#181818;stroke-width:0.4000000000000001;"/><polygon fill="#000000" points="1500.0114,263.084,1503.7343,263.8663,1503.4832,261.5286,1500.0114,263.084" style="stroke:#000000;stroke-width:0.4000000000000001;"/><text fill="#000000" font-family="sans-serif" font-size="5.2" lengthAdjust="spacing" textLength="16.4" x="1507.2" y="264.998">applies</text><text fill="#000000" font-family="sans-serif" font-size="5.2" lengthAdjust="spacing" textLength="2.8" x="1701.228" y="252.853">1</text><text fill="#000000" font-family="sans-serif" font-size="5.2" lengthAdjust="spacing" textLength="2" x="1318.4162" y="294.456">*</text></g><!--MD5=[63959dc3b8de7f99f07ea41b8e53c850]
link Report to VaccinationCenter--><g id="link_Report_VaccinationCenter"><path codeLine="121" d="M2053.428,252.52 C2036,242.364 2007.412,227.512 1980.4,221.6 C1920.712,208.536 1850.06,216.652 1804.436,224.856 " fill="none" id="Report-VaccinationCenter" style="stroke:#181818;stroke-width:0.4000000000000001;"/><polygon fill="#000000" points="1932.5878,209.8912,1929.1217,208.3233,1928.862,210.66,1932.5878,209.8912" style="stroke:#000000;stroke-width:0.4000000000000001;"/><text fill="#000000" font-family="sans-serif" font-size="5.2" lengthAdjust="spacing" textLength="16" x="1935.8" y="211.798">reports</text><text fill="#000000" font-family="sans-serif" font-size="5.2" lengthAdjust="spacing" textLength="2" x="2045.5466" y="246.6278">*</text><text fill="#000000" font-family="sans-serif" font-size="5.2" lengthAdjust="spacing" textLength="2.8" x="1809.1338" y="221.3389">1</text></g><!--MD5=[6b276e2dfed8b8354946f9f8bab747bb]
link VaccinationCenter to VaccineType--><g id="link_VaccinationCenter_VaccineType"><path codeLine="122" d="M1708.776,254.5 C1609.788,292.984 1373.232,375.6 1166.6,375.6 C929.4,375.6 929.4,375.6 929.4,375.6 C901.148,375.6 869.416,371.748 845.624,368.088 " fill="none" id="VaccinationCenter-VaccineType" style="stroke:#181818;stroke-width:0.4000000000000001;"/><text fill="#000000" font-family="sans-serif" font-size="5.2" lengthAdjust="spacing" textLength="2.8" x="1701.2789" y="262.9744">1</text><text fill="#000000" font-family="sans-serif" font-size="5.2" lengthAdjust="spacing" textLength="2" x="850.3815" y="375.9971">*</text></g><!--MD5=[0026e2caddc4ad7d2f890d63204af1d5]
link Vaccine to Dosage--><g id="link_Vaccine_Dosage"><path codeLine="124" d="M1313.7,293.212 C1349.364,294.908 1398.916,297.264 1426.78,298.592 " fill="none" id="Vaccine-Dosage" style="stroke:#181818;stroke-width:0.4000000000000001;"/><text fill="#000000" font-family="sans-serif" font-size="5.2" lengthAdjust="spacing" textLength="2.8" x="1318.3705" y="300.667">1</text><text fill="#000000" font-family="sans-serif" font-size="5.2" lengthAdjust="spacing" textLength="2" x="1419.9254" y="306.1048">*</text></g><!--MD5=[3568623adf67b2630dce9e60c05bd02a]
link Vaccine to VaccineType--><g id="link_Vaccine_VaccineType"><path codeLine="125" d="M1228.384,302.272 C1218.584,304.624 1208.16,306.952 1198.4,308.8 C1069.696,333.144 915.008,350.672 845.712,357.916 " fill="none" id="Vaccine-VaccineType" style="stroke:#181818;stroke-width:0.4000000000000001;"/><polygon fill="#000000" points="990.0208,333.5581,993.7704,334.2008,993.432,331.8741,990.0208,333.5581" style="stroke:#000000;stroke-width:0.4000000000000001;"/><text fill="#000000" font-family="sans-serif" font-size="5.2" lengthAdjust="spacing" textLength="4" x="997.2" y="335.398">is</text><text fill="#000000" font-family="sans-serif" font-size="5.2" lengthAdjust="spacing" textLength="2" x="1221.6048" y="310.3853">*</text><text fill="#000000" font-family="sans-serif" font-size="5.2" lengthAdjust="spacing" textLength="2.8" x="850.3831" y="365.0106">1</text></g><!--MD5=[7991057a0b57fcb72665747661b5eb1a]
link VaccineType to Vaccine--><g id="link_VaccineType_Vaccine"><path codeLine="129" d="M845.712,351.452 C855.4,348.896 865.868,346.244 875.6,344 C889.02,340.904 892.456,340.488 906,338 C940.408,331.68 948.972,329.768 983.6,324.8 C1070.316,312.356 1172.268,301.256 1228.324,295.456 " fill="none" id="VaccineType-Vaccine" style="stroke:#181818;stroke-width:0.4000000000000001;"/><text fill="#000000" font-family="sans-serif" font-size="5.2" lengthAdjust="spacing" textLength="2.8" x="850.3831" y="347.7167">1</text><text fill="#000000" font-family="sans-serif" font-size="5.2" lengthAdjust="spacing" textLength="2" x="1221.5405" y="303.09">*</text></g><!--MD5=[9bd6858dc1902593544df99848a7a23f]
link Vaccine to VaccineAdministration--><g id="link_Vaccine_VaccineAdministration"><path codeLine="126" d="M1313.724,266.284 C1377.94,228.476 1499.12,157.132 1561.804,120.232 " fill="none" id="Vaccine-VaccineAdministration" style="stroke:#181818;stroke-width:0.4000000000000001;"/><polygon fill="#000000" points="1442.0765,170.685,1445.7907,169.8625,1444.5979,167.8364,1442.0765,170.685" style="stroke:#000000;stroke-width:0.4000000000000001;"/><text fill="#000000" font-family="sans-serif" font-size="5.2" lengthAdjust="spacing" textLength="4" x="1449" y="171.798">of</text><text fill="#000000" font-family="sans-serif" font-size="5.2" lengthAdjust="spacing" textLength="2.8" x="1318.3961" y="271.9298">1</text><text fill="#000000" font-family="sans-serif" font-size="5.2" lengthAdjust="spacing" textLength="2" x="1552.9882" y="130.668">*</text></g><!--MD5=[d25330f5b1a84b30603864e2663a2d50]
link Vaccine to SNSUser--><g id="link_Vaccine_SNSUser"><path codeLine="127" d="M1228.296,275.5 C1188.572,262.172 1127.18,245.2 1072.2,245.2 C808.2,245.2 808.2,245.2 808.2,245.2 C756.62,245.2 696.968,245.2 659.56,245.2 " fill="none" id="Vaccine-SNSUser" style="stroke:#181818;stroke-width:0.4000000000000001;"/><polygon fill="#000000" points="906.0028,239.9639,909.5532,241.3303,909.6783,238.9825,906.0028,239.9639" style="stroke:#000000;stroke-width:0.4000000000000001;"/><text fill="#000000" font-family="sans-serif" font-size="5.2" lengthAdjust="spacing" textLength="38.4" x="913.2" y="242.198">administrated on</text><text fill="#000000" font-family="sans-serif" font-size="5.2" lengthAdjust="spacing" textLength="2" x="1221.6521" y="281.765">*</text><text fill="#000000" font-family="sans-serif" font-size="5.2" lengthAdjust="spacing" textLength="2.8" x="664.2348" y="252.5647">1</text></g><!--MD5=[1fe780c5042c93c38b83d74528355a6b]
link VaccinationCenter to VaccineSchedule--><g id="link_VaccinationCenter_VaccineSchedule"><path codeLine="128" d="M1708.788,219.02 C1690.16,213.22 1668.464,207.144 1648.4,203.2 C1550.928,184.032 1523.74,195.712 1426.8,174 C1413.14,170.94 1410.176,168.532 1396.8,164.4 C1359.936,153.008 1351.576,146.444 1313.6,139.6 C1174.808,114.592 1138.028,118.4 997,118.4 C420.4,118.4 420.4,118.4 420.4,118.4 C376.612,118.4 340.32,155.456 317.384,186.936 " fill="none" id="VaccinationCenter-VaccineSchedule" style="stroke:#181818;stroke-width:0.4000000000000001;"/><polygon fill="#000000" points="983.6005,113.2242,987.1905,114.4829,987.2447,112.1324,983.6005,113.2242" style="stroke:#000000;stroke-width:0.4000000000000001;"/><text fill="#000000" font-family="sans-serif" font-size="5.2" lengthAdjust="spacing" textLength="16.8" x="990.8" y="115.398">fulfilling</text><text fill="#000000" font-family="sans-serif" font-size="5.2" lengthAdjust="spacing" textLength="8.8" x="1695.277" y="225.3675">0..1</text><text fill="#000000" font-family="sans-serif" font-size="5.2" lengthAdjust="spacing" textLength="8.8" x="308.3939" y="181.0969">0..1</text></g><!--MD5=[195cd4b2065cc6507c3064f693e1e4c8]
link Nurse to VaccineAdministration--><g id="link_Nurse_VaccineAdministration"><path codeLine="131" d="M2052.036,82.968 C1996.468,83.548 1822.436,85.764 1678.4,92 C1668.692,92.42 1658.292,92.996 1648.4,93.6 " fill="none" id="Nurse-VaccineAdministration" style="stroke:#181818;stroke-width:0.4000000000000001;"/><polygon fill="#000000" points="1838.3993,80.8176,1834.7516,79.7378,1834.8135,82.0881,1838.3993,80.8176" style="stroke:#000000;stroke-width:0.4000000000000001;"/><text fill="#000000" font-family="sans-serif" font-size="5.2" lengthAdjust="spacing" textLength="28.4" x="1841.6" y="82.998">executed by</text><text fill="#000000" font-family="sans-serif" font-size="5.2" lengthAdjust="spacing" textLength="2" x="2045.3569" y="90.7015">*</text><text fill="#000000" font-family="sans-serif" font-size="5.2" lengthAdjust="spacing" textLength="2.8" x="1653.1647" y="90.484">1</text></g><!--MD5=[6bb3ec5f470f72ee4f54b0838c98c655]
link VaccineAdministration to VaccinationCenter--><g id="link_VaccineAdministration_VaccinationCenter"><path codeLine="132" d="M1628.492,120.276 C1650.428,140.02 1682.356,168.752 1708.8,192.548 " fill="none" id="VaccineAdministration-VaccinationCenter" style="stroke:#181818;stroke-width:0.4000000000000001;"/><text fill="#000000" font-family="sans-serif" font-size="5.2" lengthAdjust="spacing" textLength="2.8" x="1626.8083" y="130.5407">1</text><text fill="#000000" font-family="sans-serif" font-size="5.2" lengthAdjust="spacing" textLength="2.8" x="1701.1456" y="197.1293">1</text></g><!--MD5=[fadf3c4cc459913b8138733d6e23cb41]
link HealthcareCenter to VaccineType--><g id="link_HealthcareCenter_VaccineType"><path codeLine="134" d="M661.104,350.176 C693.496,352.692 739.604,356.272 771.524,358.752 " fill="none" id="HealthcareCenter-VaccineType" style="stroke:#181818;stroke-width:0.4000000000000001;"/><polygon fill="#000000" points="702.394,347.8252,698.8779,346.373,698.6958,348.7171,702.394,347.8252" style="stroke:#000000;stroke-width:0.4000000000000001;"/><text fill="#000000" font-family="sans-serif" font-size="5.2" lengthAdjust="spacing" textLength="34" x="705.6" y="349.798">can administer</text><text fill="#000000" font-family="sans-serif" font-size="5.2" lengthAdjust="spacing" textLength="2" x="665.7373" y="357.748">*</text><text fill="#000000" font-family="sans-serif" font-size="5.2" lengthAdjust="spacing" textLength="2" x="764.7623" y="355.5522">*</text></g><!--MD5=[ac72c331c222beb829dc6bd1c1d7ffe6]
link CommunityCenter to VaccineType--><g id="link_CommunityCenter_VaccineType"><path codeLine="135" d="M1912.108,283.812 C1878.592,295.616 1825.096,314.032 1804.4,318.8 C1525.712,382.992 1452.584,404 1166.6,404 C929.4,404 929.4,404 929.4,404 C900.092,404 868.932,392.684 845.656,381.744 " fill="none" id="CommunityCenter-VaccineType" style="stroke:#181818;stroke-width:0.4000000000000001;"/><polygon fill="#000000" points="1348.6084,391.0532,1352.3188,391.893,1352.1038,389.5517,1348.6084,391.0532" style="stroke:#000000;stroke-width:0.4000000000000001;"/><text fill="#000000" font-family="sans-serif" font-size="5.2" lengthAdjust="spacing" textLength="34" x="1355.8" y="392.998">can administer</text><text fill="#000000" font-family="sans-serif" font-size="5.2" lengthAdjust="spacing" textLength="2" x="1901.5754" y="294.1025">*</text><text fill="#000000" font-family="sans-serif" font-size="5.2" lengthAdjust="spacing" textLength="2.8" x="850.448" y="390.7414">1</text></g><!--MD5=[8d58cf1c2119791001cf5144e9295faa]
link VaccinationCenter to CenterCoordinator--><g id="link_VaccinationCenter_CenterCoordinator"><path codeLine="138" d="M1756.6,311.884 C1756.6,333.152 1756.6,353.62 1756.6,365.388 " fill="none" id="VaccinationCenter-CenterCoordinator" style="stroke:#181818;stroke-width:0.4000000000000001;"/><polygon fill="#000000" points="1734.2,336.6703,1733.0244,340.2883,1735.3756,340.2883,1734.2,336.6703" style="stroke:#000000;stroke-width:0.4000000000000001;"/><text fill="#000000" font-family="sans-serif" font-size="5.2" lengthAdjust="spacing" textLength="26.8" x="1739.4" y="340.798">coordinates</text><text fill="#000000" font-family="sans-serif" font-size="5.2" lengthAdjust="spacing" textLength="2.8" x="1752.0922" y="321.8149">1</text><text fill="#000000" font-family="sans-serif" font-size="5.2" lengthAdjust="spacing" textLength="2.8" x="1751.5438" y="359.5107">1</text></g><!--MD5=[c0e5ad50a2b6f78d67c9ec501d1860d0]
link CenterCoordinator to Report--><g id="link_CenterCoordinator_Report"><path codeLine="139" d="M1790.612,365.368 C1834.6,351.76 1913.912,326.468 1980.4,301.2 C2004.764,291.94 2032.24,279.924 2050.264,271.82 " fill="none" id="CenterCoordinator-Report" style="stroke:#181818;stroke-width:0.4000000000000001;"/><polygon fill="#000000" points="1930.0816,295.3924,1926.2793,295.5128,1927.0762,297.7247,1930.0816,295.3924" style="stroke:#000000;stroke-width:0.4000000000000001;"/><text fill="#000000" font-family="sans-serif" font-size="5.2" lengthAdjust="spacing" textLength="20.8" x="1933.4" y="298.198">analyses</text><text fill="#000000" font-family="sans-serif" font-size="5.2" lengthAdjust="spacing" textLength="2" x="1793.8834" y="359.4863">*</text><text fill="#000000" font-family="sans-serif" font-size="5.2" lengthAdjust="spacing" textLength="2" x="2043.6089" y="280.6804">*</text></g><!--MD5=[8f7dd94d56b58fc07b233ccd3dd98f8c]
link Administrator to Employee--><g id="link_Administrator_Employee"><path codeLine="141" d="M424.448,279.004 C439.22,323.212 504.476,496 622,496 C622,496 622,496 1370.6,496 C1477.012,496 1795.724,421.456 1904.188,395.324 " fill="none" id="Administrator-Employee" style="stroke:#181818;stroke-width:0.4000000000000001;"/><polygon fill="#000000" points="1137.9938,491.027,1134.4791,489.5716,1134.2948,491.9155,1137.9938,491.027" style="stroke:#000000;stroke-width:0.4000000000000001;"/><text fill="#000000" font-family="sans-serif" font-size="5.2" lengthAdjust="spacing" textLength="55.2" x="1141.2" y="492.998">registers and configures</text><text fill="#000000" font-family="sans-serif" font-size="5.2" lengthAdjust="spacing" textLength="2.8" x="420.1898" y="289.2927">1</text><text fill="#000000" font-family="sans-serif" font-size="5.2" lengthAdjust="spacing" textLength="2" x="1897.4314" y="403.4198">*</text></g><!--MD5=[d497e8607f1e7b3d570c70d67196006d]
link Administrator to VaccinationCenter--><g id="link_Administrator_VaccinationCenter"><path codeLine="142" d="M434.336,258.568 C471.852,229.752 579.52,150 622,150 C622,150 622,150 1271.4,150 C1343.084,150 1356.428,179.544 1426.8,193.2 C1537.444,214.672 1567.244,205.528 1678.8,221.6 C1688.524,223 1698.9,224.688 1708.792,226.392 " fill="none" id="Administrator-VaccinationCenter" style="stroke:#181818;stroke-width:0.4000000000000001;"/><polygon fill="#000000" points="1043.5994,144.8198,1039.9528,143.736,1040.0122,146.0863,1043.5994,144.8198" style="stroke:#000000;stroke-width:0.4000000000000001;"/><text fill="#000000" font-family="sans-serif" font-size="5.2" lengthAdjust="spacing" textLength="55.2" x="1046.8" y="146.998">registers and configures</text><text fill="#000000" font-family="sans-serif" font-size="5.2" lengthAdjust="spacing" textLength="2.8" x="432.2408" y="252.6863">1</text><text fill="#000000" font-family="sans-serif" font-size="5.2" lengthAdjust="spacing" textLength="2" x="1701.9627" y="233.1414">*</text></g><!--MD5=[2b5fc2dce8eec1aafb1a3721aa50d3a4]
link Administrator to SNSUser--><g id="link_Administrator_SNSUser"><path codeLine="143" d="M452.024,265.176 C487.92,260.96 547.156,253.996 585.368,249.504 " fill="none" id="Administrator-SNSUser" style="stroke:#181818;stroke-width:0.4000000000000001;"/><polygon fill="#000000" points="485.9863,249.0369,482.2558,248.2916,482.5302,250.6267,485.9863,249.0369" style="stroke:#000000;stroke-width:0.4000000000000001;"/><text fill="#000000" font-family="sans-serif" font-size="5.2" lengthAdjust="spacing" textLength="55.2" x="489.2" y="251.398">registers and configures</text><text fill="#000000" font-family="sans-serif" font-size="5.2" lengthAdjust="spacing" textLength="2.8" x="456.779" y="272.2861">1</text><text fill="#000000" font-family="sans-serif" font-size="5.2" lengthAdjust="spacing" textLength="2" x="578.6098" y="257.2267">*</text></g><!--MD5=[4199e571ecf4f955a781f82efeea42b0]
link SNSUser to VaccinationCertificate--><g id="link_SNSUser_VaccinationCertificate"><path codeLine="145" d="M622.4,181.912 C622.4,149.856 622.4,114.172 622.4,97.056 " fill="none" id="SNSUser-VaccinationCertificate" style="stroke:#181818;stroke-width:0.4000000000000001;"/><polygon fill="#000000" points="603.4,137.5703,602.2244,141.1883,604.5756,141.1883,603.4,137.5703" style="stroke:#000000;stroke-width:0.4000000000000001;"/><text fill="#000000" font-family="sans-serif" font-size="5.2" lengthAdjust="spacing" textLength="20" x="608.6" y="141.698">requests</text><text fill="#000000" font-family="sans-serif" font-size="5.2" lengthAdjust="spacing" textLength="2.8" x="617.8547" y="176.0115">1</text><text fill="#000000" font-family="sans-serif" font-size="5.2" lengthAdjust="spacing" textLength="2.8" x="617.3813" y="107.1674">1</text></g><!--MD5=[951a07871a6512bd4f8e62baa1d062ce]
link VaccineAdministration to SNSUser--><g id="link_VaccineAdministration_SNSUser"><path codeLine="146" d="M1555.476,108.22 C1454.784,132.12 1207.44,185.2 997,185.2 C808.2,185.2 808.2,185.2 808.2,185.2 C754.492,185.2 696.1,208.272 659.488,225.804 " fill="none" id="VaccineAdministration-SNSUser" style="stroke:#181818;stroke-width:0.4000000000000001;"/><text fill="#000000" font-family="sans-serif" font-size="5.2" lengthAdjust="spacing" textLength="2.8" x="1548.0581" y="116.205">1</text><text fill="#000000" font-family="sans-serif" font-size="5.2" lengthAdjust="spacing" textLength="2.8" x="664.1572" y="231.6837">1</text></g><!--MD5=[d69bc8ed34e8077d31a90aa284af9b41]
link VaccinationCertificate to VaccineType--><g id="link_VaccinationCertificate_VaccineType"><path codeLine="148" d="M629.728,97.072 C655.532,135.316 746.656,270.38 787.788,331.348 " fill="none" id="VaccinationCertificate-VaccineType" style="stroke:#181818;stroke-width:0.4000000000000001;"/><text fill="#000000" font-family="sans-serif" font-size="5.2" lengthAdjust="spacing" textLength="2.8" x="626.2207" y="107.1867">1</text><text fill="#000000" font-family="sans-serif" font-size="5.2" lengthAdjust="spacing" textLength="2.8" x="781.1184" y="325.419">1</text></g><!--MD5=[95ac5d9b0c75b57399691685c69dae24]
link VaccinationCertificate to VaccineAdministration--><g id="link_VaccinationCertificate_VaccineAdministration"><path codeLine="149" d="M668.516,87.108 C706.04,87.332 760.564,87.6 808.2,87.6 C808.2,87.6 808.2,87.6 1448.8,87.6 C1484.676,87.6 1525.208,90.16 1555.508,92.576 " fill="none" id="VaccinationCertificate-VaccineAdministration" style="stroke:#181818;stroke-width:0.4000000000000001;"/><text fill="#000000" font-family="sans-serif" font-size="5.2" lengthAdjust="spacing" textLength="2.8" x="673.2625" y="94.4358">1</text><text fill="#000000" font-family="sans-serif" font-size="5.2" lengthAdjust="spacing" textLength="2.8" x="1547.9374" y="99.6094">1</text></g><!--MD5=[8e51fd2526d7ed1449c2aa4f1c32bf49]
link VaccineSchedule to SNSUser--><g id="link_VaccineSchedule_SNSUser"><path codeLine="151" d="M329.24,231.756 C379.264,233.564 469.384,236.992 546.4,240.8 C559.072,241.428 572.932,242.204 585.284,242.932 " fill="none" id="VaccineSchedule-SNSUser" style="stroke:#181818;stroke-width:0.4000000000000001;"/><polygon fill="#000000" points="410.1981,229.3575,406.6348,228.0253,406.5322,230.3742,410.1981,229.3575" style="stroke:#000000;stroke-width:0.4000000000000001;"/><text fill="#000000" font-family="sans-serif" font-size="5.2" lengthAdjust="spacing" textLength="20" x="413.4" y="231.398">made for</text><text fill="#000000" font-family="sans-serif" font-size="5.2" lengthAdjust="spacing" textLength="2" x="334.0128" y="239.2317">*</text><text fill="#000000" font-family="sans-serif" font-size="5.2" lengthAdjust="spacing" textLength="2.8" x="577.8126" y="250.1231">1</text></g><!--MD5=[f6be7cdc65b3bb5ddb6a4a4767df2d99]
link VaccineType to VaccineSchedule--><g id="link_VaccineType_VaccineSchedule"><path codeLine="152" d="M771.524,366.732 C725.456,372.112 644.212,378.052 576.4,364.4 C481.836,345.36 382.208,289.092 329.244,255.836 " fill="none" id="VaccineType-VaccineSchedule" style="stroke:#181818;stroke-width:0.4000000000000001;"/><polygon fill="#000000" points="500.1399,330.5567,496.9165,328.5365,496.3446,330.8171,500.1399,330.5567" style="stroke:#000000;stroke-width:0.4000000000000001;"/><text fill="#000000" font-family="sans-serif" font-size="5.2" lengthAdjust="spacing" textLength="26.8" x="503.4" y="332.198">administers</text><text fill="#000000" font-family="sans-serif" font-size="5.2" lengthAdjust="spacing" textLength="8.8" x="757.9606" y="374.4701">0..1</text><text fill="#000000" font-family="sans-serif" font-size="5.2" lengthAdjust="spacing" textLength="2.8" x="334.0477" y="265.1553">1</text></g><!--MD5=[3b876de517d62b3a52dcab1870863716]
link VaccineSchedule to VaccineAdministration--><g id="link_VaccineSchedule_VaccineAdministration"><path codeLine="153" d="M298.876,186.968 C312.596,128.248 346.496,30.8 420.4,30.8 C420.4,30.8 420.4,30.8 997,30.8 C1232.932,30.8 1292.58,42.636 1525.6,79.6 C1535.352,81.148 1545.724,83.212 1555.568,85.368 " fill="none" id="VaccineSchedule-VaccineAdministration" style="stroke:#181818;stroke-width:0.4000000000000001;"/><text fill="#000000" font-family="sans-serif" font-size="5.2" lengthAdjust="spacing" textLength="2.8" x="294.8439" y="181.131">0</text><text fill="#000000" font-family="sans-serif" font-size="5.2" lengthAdjust="spacing" textLength="2.8" x="1548.0013" y="81.7247">1</text></g><!--MD5=[9c3cd67dac7b49ab3c0a1c71a5351391]
link SNSUser to Receptionist--><g id="link_SNSUser_Receptionist"><path codeLine="155" d="M656.944,308.5 C668.52,326.308 682.58,344.74 698.4,359.2 C770.968,425.536 809.272,418.008 906,435.6 C992.596,451.348 1094.344,486 1678.4,486 C1678.4,486 1678.4,486 1941.6,486 C1990.792,486 2039.164,446.032 2059.708,426.668 " fill="none" id="SNSUser-Receptionist" style="stroke:#181818;stroke-width:0.4000000000000001;"/><polygon fill="#000000" points="1345.4071,475.5024,1348.9136,476.9776,1349.111,474.6347,1345.4071,475.5024" style="stroke:#000000;stroke-width:0.4000000000000001;"/><text fill="#000000" font-family="sans-serif" font-size="5.2" lengthAdjust="spacing" textLength="40.4" x="1352.6" y="477.798">registers arrival of</text><text fill="#000000" font-family="sans-serif" font-size="5.2" lengthAdjust="spacing" textLength="2" x="654.8913" y="318.7961">*</text><text fill="#000000" font-family="sans-serif" font-size="5.2" lengthAdjust="spacing" textLength="2" x="2053.3665" y="436.7819">*</text></g><!--MD5=[4b1cbd5f2b82fe473c8138e32680fa60]
link Receptionist to VaccineSchedule--><g id="link_Receptionist_VaccineSchedule"><path codeLine="156" d="M2064.316,426.756 C2048.632,453.788 2001.896,524.4 1941.6,524.4 C420.4,524.4 420.4,524.4 420.4,524.4 C312.256,524.4 293.58,355.78 290.888,273.94 " fill="none" id="Receptionist-VaccineSchedule" style="stroke:#181818;stroke-width:0.4000000000000001;"/><polygon fill="#000000" points="1151.8074,519.0986,1155.3111,520.5805,1155.513,518.238,1151.8074,519.0986" style="stroke:#000000;stroke-width:0.4000000000000001;"/><text fill="#000000" font-family="sans-serif" font-size="5.2" lengthAdjust="spacing" textLength="19.6" x="1159" y="521.398">confirms</text><text fill="#000000" font-family="sans-serif" font-size="5.2" lengthAdjust="spacing" textLength="2" x="2065.1974" y="436.888">*</text><text fill="#000000" font-family="sans-serif" font-size="5.2" lengthAdjust="spacing" textLength="2" x="287.1527" y="284.0401">*</text></g><!--MD5=[120e6d7c8a557e6251338e72fb523695]
link Receptionist to WaitingRoom--><g id="link_Receptionist_WaitingRoom"><path codeLine="157" d="M2075.636,406.1 C2091.816,371.976 2143.948,264.8 2160.4,264.8 C2160.4,264.8 2160.4,264.8 2536.8,264.8 C2614.232,264.8 2626.072,131.608 2627.876,93.108 " fill="none" id="Receptionist-WaitingRoom" style="stroke:#181818;stroke-width:0.4000000000000001;"/><polygon fill="#000000" points="2352.14,258.6842,2348.4127,259.4454,2349.572,261.4909,2352.14,258.6842" style="stroke:#000000;stroke-width:0.4000000000000001;"/><text fill="#000000" font-family="sans-serif" font-size="5.2" lengthAdjust="spacing" textLength="44" x="2355.6" y="261.798">sends SNS user to</text><text fill="#000000" font-family="sans-serif" font-size="5.2" lengthAdjust="spacing" textLength="8" x="2065.9564" y="400.2035">1..*</text><text fill="#000000" font-family="sans-serif" font-size="5.2" lengthAdjust="spacing" textLength="8" x="2616.9717" y="103.2301">1..*</text></g><!--MD5=[7b54b0617a1685549c3adc8afef9fa2f]
link Nurse to apoint28290--><g id="link_Nurse_apoint28290"><path d="M2088.668,82.8 C2151.756,82.8 2360.952,82.8 2373.964,82.8 " fill="none" id="Nurse-apoint28290" style="stroke:#181818;stroke-width:0.4000000000000001;"/><polygon fill="#000000" points="2194.8,77.6703,2191.182,76.4947,2191.182,78.8459,2194.8,77.6703" style="stroke:#000000;stroke-width:0.4000000000000001;"/><text fill="#000000" font-family="sans-serif" font-size="5.2" lengthAdjust="spacing" textLength="44" x="2198" y="79.798">sends SNS user to</text><text fill="#000000" font-family="sans-serif" font-size="5.2" lengthAdjust="spacing" textLength="2" x="2093.4634" y="90.539">*</text></g><!--MD5=[33f1945110be1c908ccb3d4bf791de5f]
link apoint28290 to WaitingRoom--><g id="link_apoint28290_WaitingRoom"><path d="M2375.812,82.8 C2384.58,82.8 2531.676,82.8 2597.172,82.8 " fill="none" id="apoint28290-WaitingRoom" style="stroke:#181818;stroke-width:0.4000000000000001;"/><text fill="#000000" font-family="sans-serif" font-size="5.2" lengthAdjust="spacing" textLength="8" x="2584.3899" y="90.2139">1..*</text></g><!--MD5=[6bfe990c1415b5d7ce3ceff30ddd5ca5]
link apoint28290 to UserHealthHistoric--><g id="link_apoint28290_UserHealthHistoric"><path d="M2375,83.62 C2375,88.332 2375,93.048 2375,97.764 " fill="none" id="apoint28290-UserHealthHistoric" style="stroke:#181818;stroke-width:0.4000000000000001;stroke-dasharray:7.0,7.0;"/></g><!--MD5=[af39a9728ae42892cc1cca452613b5da]
link VaccinationCertificate to Nurse--><g id="link_VaccinationCertificate_Nurse"><path codeLine="161" d="M666.544,76.564 C703.94,68.708 759.304,59.2 808.2,59.2 C808.2,59.2 808.2,59.2 997,59.2 C1163.168,59.2 1203.632,30.8 1369.8,30.8 C1369.8,30.8 1369.8,30.8 1941.6,30.8 C1985.612,30.8 2032.312,57.372 2055.368,72.528 " fill="none" id="VaccinationCertificate-Nurse" style="stroke:#181818;stroke-width:0.4000000000000001;"/><polygon fill="#000000" points="1343.6,25.6761,1347.2214,26.8412,1347.2146,24.49,1343.6,25.6761" style="stroke:#000000;stroke-width:0.4000000000000001;"/><text fill="#000000" font-family="sans-serif" font-size="5.2" lengthAdjust="spacing" textLength="44" x="1350.8" y="27.798">issues and delivers</text><text fill="#000000" font-family="sans-serif" font-size="5.2" lengthAdjust="spacing" textLength="2" x="672.0318" y="70.6815">*</text><text fill="#000000" font-family="sans-serif" font-size="5.2" lengthAdjust="spacing" textLength="2.8" x="2047.0235" y="66.6376">1</text></g><!--MD5=[8b118e370b7dcf2bae902bac0a04776d]
link VaccineAdministration to RecoveryRoom--><g id="link_VaccineAdministration_RecoveryRoom"><path codeLine="162" d="M1648.568,100.076 C1717.248,104.944 1844.812,113.992 1906.128,118.34 " fill="none" id="VaccineAdministration-RecoveryRoom" style="stroke:#181818;stroke-width:0.4000000000000001;"/><polygon fill="#000000" points="1740.195,99.4118,1736.6692,97.9832,1736.5029,100.3285,1740.195,99.4118" style="stroke:#000000;stroke-width:0.4000000000000001;"/><text fill="#000000" font-family="sans-serif" font-size="5.2" lengthAdjust="spacing" textLength="31.6" x="1743.4" y="101.398">sends user to</text><text fill="#000000" font-family="sans-serif" font-size="5.2" lengthAdjust="spacing" textLength="2" x="1653.1642" y="107.5647">*</text><text fill="#000000" font-family="sans-serif" font-size="5.2" lengthAdjust="spacing" textLength="2.8" x="1898.5752" y="125.5325">1</text></g><!--MD5=[92419aa19a3e91ef9e0a7810388c6119]
link WaitingRoom to VaccineAdministration--><g id="link_WaitingRoom_VaccineAdministration"><path codeLine="163" d="M2622.788,72.452 C2610.596,50.74 2578.752,2.4 2536.8,2.4 C1756.2,2.4 1756.2,2.4 1756.2,2.4 C1702.076,2.4 1650.964,45.388 1623.444,73.344 " fill="none" id="WaitingRoom-VaccineAdministration" style="stroke:#181818;stroke-width:0.4000000000000001;"/></g><!--MD5=[ecc31a84e2534092f0eabbadf1526e79]
link Notification to VaccineSchedule--><g id="link_Notification_VaccineSchedule"><path codeLine="165" d="M57.22,262.988 C74.42,259.392 97.26,254.852 117.6,251.6 C163.456,244.268 216.532,238.084 251.544,234.324 " fill="none" id="Notification-VaccineSchedule" style="stroke:#181818;stroke-width:0.4000000000000001;"/><polygon fill="#000000" points="143.4214,236.7622,147.1723,237.3972,146.8292,235.0712,143.4214,236.7622" style="stroke:#000000;stroke-width:0.4000000000000001;"/><text fill="#000000" font-family="sans-serif" font-size="5.2" lengthAdjust="spacing" textLength="12.8" x="150.6" y="238.598">emits</text><text fill="#000000" font-family="sans-serif" font-size="5.2" lengthAdjust="spacing" textLength="8.8" x="61.9863" y="269.8933">0..1</text><text fill="#000000" font-family="sans-serif" font-size="5.2" lengthAdjust="spacing" textLength="2.8" x="243.9394" y="241.9963">1</text></g><!--MD5=[0e746bf0fb50d7a50210c7c405534661]
reverse link Notification to SMSNotification--><g id="link_Notification_SMSNotification"><path codeLine="167" d="M65.232,268.8 C81.892,268.8 101.808,268.8 118.548,268.8 " fill="none" id="Notification-backto-SMSNotification" style="stroke:#181818;stroke-width:0.4000000000000001;"/><polygon fill="none" points="65.22,271.6,57.22,268.8,65.22,266,65.22,271.6" style="stroke:#181818;stroke-width:0.4000000000000001;"/></g><!--MD5=[a069fefa93fe627f96a6b9d57d25b567]
reverse link Notification to EmailNotification--><g id="link_Notification_EmailNotification"><path codeLine="168" d="M64.972,278.424 C81.34,282.976 100.896,288.42 117.504,293.044 " fill="none" id="Notification-backto-EmailNotification" style="stroke:#181818;stroke-width:0.4000000000000001;"/><polygon fill="none" points="64.176,281.108,57.22,276.264,65.676,275.712,64.176,281.108" style="stroke:#181818;stroke-width:0.4000000000000001;"/></g><!--MD5=[489696a9018d9c28571f14ea4fb81fb8]
@startuml
left to right direction
hide methods
skinparam classFontSize 20
skinparam padding 4
skinparam ranksep 150

class HealthcareCenter{
}

class Report

class CenterCoordinator{
}

class Company{
designation
}

class Administrator

class Vaccine{
Id
Name
Brand
Vaccine Type
Age Group
Dose Number
Vaccine Dosage
Time Since Last Dose
}


class VaccineSchedule{
date
time
userNumber
vaccinationCenter
scheduleVerification
}

class Receptionist


class SNSUser{
name
address
gender
phoneNumber
birthDate
emailAddress
snsUserNumber
citizenCardNumber
}

class Notification

class SMSNotification

class EmailNotification

class Report

class VaccineAdministration{
designation
ageGroup
}

class Nurse


class RecoveryRoom{
listUsers
}


class CommunityCenter{
}

class VaccinationCenter{
name
phoneNumber
faxNumber
homeAddress
emailAddress
websiteAddress
openingHours
closingHours
slotDuration
maxNumVaccinesPerSlot
}

class VaccineType{
code
designation
vaccineTechnology
}

class VaccinationCertificate

class WaitingRoom

class Employee{
name
phoneNumber
address
emailAddress
citizenCardNumber
companyID
}

Employee <|-down- Nurse
Employee <|-down- Receptionist
Employee <|-up- CenterCoordinator

Company "1" -up- - "*" VaccinationCenter : manages >
Company "1" -down- - "*" VaccineType : administers >

VaccinationCenter <|-up- HealthcareCenter
VaccinationCenter <|- - CommunityCenter
VaccinationCenter "1" -down- - "*"Vaccine : applies >
VaccinationCenter "1" -up- - "*" Report : reports >
VaccinationCenter "1"- -"*" VaccineType

Vaccine "1" - -"*" Dosage
Vaccine "*" -down- - - "1" VaccineType : is >
Vaccine "1" -down- - "*" VaccineAdministration : of <
Vaccine "*" -down- - "1" SNSUser : > administrated on
VaccinationCenter "0..1" -right- "0..1" VaccineSchedule : > fulfilling
VaccineType "1" - - "*" Vaccine

VaccineAdministration "1" -up- "*" Nurse : executed by >
VaccineAdministration "1" -down- "1" VaccinationCenter

HealthcareCenter "*" -down- "*" VaccineType : can administer >
CommunityCenter "*" -right- "1" VaccineType : can administer >


CenterCoordinator "1" -left- "1" VaccinationCenter : coordinates >
CenterCoordinator "*" - - - "*" Report : analyses >

Administrator "1" -right- "*" Employee : registers and configures >
Administrator "1" -right- "*" VaccinationCenter : registers and configures >
Administrator "1" -down- "*" SNSUser : registers and configures >

SNSUser "1" -right- - "1" VaccinationCertificate : requests >
SNSUser "1" -left- "1" VaccineAdministration

VaccinationCertificate "1"- -"1" VaccineType
VaccinationCertificate "1"- -"1" VaccineAdministration

VaccineSchedule "*" -down- - "1" SNSUser : made for >
VaccineSchedule "1" -up- - "0..1" VaccineType : administers >
VaccineSchedule "0" - - "1" VaccineAdministration

Receptionist "*" -up- - "*" SNSUser : registers arrival of >
Receptionist "*" -down- - - "*" VaccineSchedule : confirms >
Receptionist "1..*"-right- - "1..*"WaitingRoom : sends SNS user to >

Nurse "*" -down- - - "1..*" WaitingRoom : sends SNS user to >
(Nurse, WaitingRoom) .. UserHealthHistoric
Nurse "1" -up- - "*" VaccinationCertificate : issues and delivers >
VaccineAdministration "*" -down- - "1" RecoveryRoom : sends user to >
VaccineAdministration -up- - WaitingRoom

VaccineSchedule "1" -up- - "0..1" Notification : emits >

Notification <|- - SMSNotification
Notification <|- - EmailNotification
@enduml

PlantUML version 1.2022.4(Sat Apr 09 14:29:17 BST 2022)
(GPL source distribution)
Java Runtime: OpenJDK Runtime Environment
JVM: OpenJDK 64-Bit Server VM
Default Encoding: Cp1252
Language: en
Country: GB
--></g></svg>