<?xml version="1.0" encoding="UTF-8" standalone="no"?><svg xmlns="http://www.w3.org/2000/svg" xmlns:xlink="http://www.w3.org/1999/xlink" contentScriptType="application/ecmascript" contentStyleType="text/css" height="1019px" preserveAspectRatio="none" style="width:7283px;height:1019px;background:#FFFFFF;" version="1.1" viewBox="0 0 7283 1019" width="7283px" zoomAndPan="magnify"><defs><filter height="300%" id="fj0voomvxwcs9" width="300%" x="-1" y="-1"><feGaussianBlur result="blurOut" stdDeviation="2.0"/><feColorMatrix in="blurOut" result="blurOut2" type="matrix" values="0 0 0 0 0 0 0 0 0 0 0 0 0 0 0 0 0 0 .4 0"/><feOffset dx="4.0" dy="4.0" in="blurOut2" result="blurOut3"/><feBlend in="SourceGraphic" in2="blurOut3" mode="normal"/></filter></defs><g><!--MD5=[0b1ce5251ebf137e6b3550dd84e6af65]
class HealthcareCenter--><rect codeLine="7" fill="#FEFECE" filter="url(#fj0voomvxwcs9)" height="51.1563" id="HealthcareCenter" style="stroke:#A80036;stroke-width:1.5;" width="193" x="837" y="808.5"/><ellipse cx="852" cy="830.0781" fill="#ADD1B2" rx="11" ry="11" style="stroke:#A80036;stroke-width:1.0;"/><path d="M854,826.5781 Q854.2031,826.0781 854.4375,825.8281 Q854.6719,825.5781 854.9375,825.5781 Q855.4063,825.5781 855.7031,825.8594 Q856,826.1406 856,826.7969 L856,828.3594 Q856,829.0156 855.7188,829.2969 Q855.4375,829.5781 855,829.5781 Q854.6094,829.5781 854.3594,829.4063 Q854.1094,829.2344 854,828.7813 Q853.9531,828.4688 853.7813,828.2969 Q853.4688,827.9688 852.9063,827.7813 Q852.3438,827.5781 851.7813,827.5781 Q851.0781,827.5781 850.4844,827.8594 Q849.9063,828.1406 849.4531,828.7656 Q849,829.3906 849,830.25 L849,831.1719 Q849,832.2031 849.8438,832.8906 Q850.6875,833.5781 852.1875,833.5781 Q853.0781,833.5781 853.7031,833.375 Q854.0625,833.2656 854.4688,832.9063 Q854.7344,832.7031 854.875,832.6406 Q855.0156,832.5781 855.1875,832.5781 Q855.5156,832.5781 855.75,832.8438 Q856,833.0938 856,833.4531 Q856,833.7969 855.6563,834.2031 Q855.1563,834.7969 854.3594,835.125 Q853.3125,835.5781 852.0313,835.5781 Q850.5313,835.5781 849.3281,834.9844 Q848.3594,834.5156 847.6719,833.5 Q847,832.4844 847,831.2813 L847,830.1875 Q847,828.9375 847.5938,827.8438 Q848.2031,826.75 849.25,826.1719 Q850.3125,825.5781 851.5,825.5781 Q852.2188,825.5781 852.8438,825.8281 Q853.4688,826.0781 854,826.5781 Z " fill="#000000"/><text fill="#000000" font-family="sans-serif" font-size="20" lengthAdjust="spacing" textLength="153" x="870" y="838.2617">HealthcareCenter</text><line style="stroke:#A80036;stroke-width:1.5;" x1="838" x2="1029" y1="851.6563" y2="851.6563"/><!--MD5=[f00dbe8c0302c6aec2cb26b3c659c8fc]
class Report--><rect codeLine="60" fill="#FEFECE" filter="url(#fj0voomvxwcs9)" height="51.1563" id="Report" style="stroke:#A80036;stroke-width:1.5;" width="100" x="586" y="511.5"/><ellipse cx="601" cy="533.0781" fill="#ADD1B2" rx="11" ry="11" style="stroke:#A80036;stroke-width:1.0;"/><path d="M603,529.5781 Q603.2031,529.0781 603.4375,528.8281 Q603.6719,528.5781 603.9375,528.5781 Q604.4063,528.5781 604.7031,528.8594 Q605,529.1406 605,529.7969 L605,531.3594 Q605,532.0156 604.7188,532.2969 Q604.4375,532.5781 604,532.5781 Q603.6094,532.5781 603.3594,532.4063 Q603.1094,532.2344 603,531.7813 Q602.9531,531.4688 602.7813,531.2969 Q602.4688,530.9688 601.9063,530.7813 Q601.3438,530.5781 600.7813,530.5781 Q600.0781,530.5781 599.4844,530.8594 Q598.9063,531.1406 598.4531,531.7656 Q598,532.3906 598,533.25 L598,534.1719 Q598,535.2031 598.8438,535.8906 Q599.6875,536.5781 601.1875,536.5781 Q602.0781,536.5781 602.7031,536.375 Q603.0625,536.2656 603.4688,535.9063 Q603.7344,535.7031 603.875,535.6406 Q604.0156,535.5781 604.1875,535.5781 Q604.5156,535.5781 604.75,535.8438 Q605,536.0938 605,536.4531 Q605,536.7969 604.6563,537.2031 Q604.1563,537.7969 603.3594,538.125 Q602.3125,538.5781 601.0313,538.5781 Q599.5313,538.5781 598.3281,537.9844 Q597.3594,537.5156 596.6719,536.5 Q596,535.4844 596,534.2813 L596,533.1875 Q596,531.9375 596.5938,530.8438 Q597.2031,529.75 598.25,529.1719 Q599.3125,528.5781 600.5,528.5781 Q601.2188,528.5781 601.8438,528.8281 Q602.4688,529.0781 603,529.5781 Z " fill="#000000"/><text fill="#000000" font-family="sans-serif" font-size="20" lengthAdjust="spacing" textLength="60" x="619" y="541.2617">Report</text><line style="stroke:#A80036;stroke-width:1.5;" x1="587" x2="685" y1="554.6563" y2="554.6563"/><!--MD5=[2d935fd2dd068a13da1ae531f9857c4f]
class CenterCoordinator--><rect codeLine="12" fill="#FEFECE" filter="url(#fj0voomvxwcs9)" height="51.1563" id="CenterCoordinator" style="stroke:#A80036;stroke-width:1.5;" width="202" x="7" y="511.5"/><ellipse cx="22" cy="533.0781" fill="#ADD1B2" rx="11" ry="11" style="stroke:#A80036;stroke-width:1.0;"/><path d="M24,529.5781 Q24.2031,529.0781 24.4375,528.8281 Q24.6719,528.5781 24.9375,528.5781 Q25.4063,528.5781 25.7031,528.8594 Q26,529.1406 26,529.7969 L26,531.3594 Q26,532.0156 25.7188,532.2969 Q25.4375,532.5781 25,532.5781 Q24.6094,532.5781 24.3594,532.4063 Q24.1094,532.2344 24,531.7813 Q23.9531,531.4688 23.7813,531.2969 Q23.4688,530.9688 22.9063,530.7813 Q22.3438,530.5781 21.7813,530.5781 Q21.0781,530.5781 20.4844,530.8594 Q19.9063,531.1406 19.4531,531.7656 Q19,532.3906 19,533.25 L19,534.1719 Q19,535.2031 19.8438,535.8906 Q20.6875,536.5781 22.1875,536.5781 Q23.0781,536.5781 23.7031,536.375 Q24.0625,536.2656 24.4688,535.9063 Q24.7344,535.7031 24.875,535.6406 Q25.0156,535.5781 25.1875,535.5781 Q25.5156,535.5781 25.75,535.8438 Q26,536.0938 26,536.4531 Q26,536.7969 25.6563,537.2031 Q25.1563,537.7969 24.3594,538.125 Q23.3125,538.5781 22.0313,538.5781 Q20.5313,538.5781 19.3281,537.9844 Q18.3594,537.5156 17.6719,536.5 Q17,535.4844 17,534.2813 L17,533.1875 Q17,531.9375 17.5938,530.8438 Q18.2031,529.75 19.25,529.1719 Q20.3125,528.5781 21.5,528.5781 Q22.2188,528.5781 22.8438,528.8281 Q23.4688,529.0781 24,529.5781 Z " fill="#000000"/><text fill="#000000" font-family="sans-serif" font-size="20" lengthAdjust="spacing" textLength="162" x="40" y="541.2617">CenterCoordinator</text><line style="stroke:#A80036;stroke-width:1.5;" x1="8" x2="208" y1="554.6563" y2="554.6563"/><!--MD5=[02e4b9b7573f1156f41e60aa5b4e25a4]
class Company--><rect codeLine="15" fill="#FEFECE" filter="url(#fj0voomvxwcs9)" height="72.9922" id="Company" style="stroke:#A80036;stroke-width:1.5;" width="123" x="2278" y="636.5"/><ellipse cx="2293" cy="658.0781" fill="#ADD1B2" rx="11" ry="11" style="stroke:#A80036;stroke-width:1.0;"/><path d="M2295,654.5781 Q2295.2031,654.0781 2295.4375,653.8281 Q2295.6719,653.5781 2295.9375,653.5781 Q2296.4063,653.5781 2296.7031,653.8594 Q2297,654.1406 2297,654.7969 L2297,656.3594 Q2297,657.0156 2296.7188,657.2969 Q2296.4375,657.5781 2296,657.5781 Q2295.6094,657.5781 2295.3594,657.4063 Q2295.1094,657.2344 2295,656.7813 Q2294.9531,656.4688 2294.7813,656.2969 Q2294.4688,655.9688 2293.9063,655.7813 Q2293.3438,655.5781 2292.7813,655.5781 Q2292.0781,655.5781 2291.4844,655.8594 Q2290.9063,656.1406 2290.4531,656.7656 Q2290,657.3906 2290,658.25 L2290,659.1719 Q2290,660.2031 2290.8438,660.8906 Q2291.6875,661.5781 2293.1875,661.5781 Q2294.0781,661.5781 2294.7031,661.375 Q2295.0625,661.2656 2295.4688,660.9063 Q2295.7344,660.7031 2295.875,660.6406 Q2296.0156,660.5781 2296.1875,660.5781 Q2296.5156,660.5781 2296.75,660.8438 Q2297,661.0938 2297,661.4531 Q2297,661.7969 2296.6563,662.2031 Q2296.1563,662.7969 2295.3594,663.125 Q2294.3125,663.5781 2293.0313,663.5781 Q2291.5313,663.5781 2290.3281,662.9844 Q2289.3594,662.5156 2288.6719,661.5 Q2288,660.4844 2288,659.2813 L2288,658.1875 Q2288,656.9375 2288.5938,655.8438 Q2289.2031,654.75 2290.25,654.1719 Q2291.3125,653.5781 2292.5,653.5781 Q2293.2188,653.5781 2293.8438,653.8281 Q2294.4688,654.0781 2295,654.5781 Z " fill="#000000"/><text fill="#000000" font-family="sans-serif" font-size="20" lengthAdjust="spacing" textLength="83" x="2311" y="666.2617">Company</text><line style="stroke:#A80036;stroke-width:1.5;" x1="2279" x2="2400" y1="679.6563" y2="679.6563"/><text fill="#000000" font-family="sans-serif" font-size="11" lengthAdjust="spacing" textLength="55" x="2288" y="699.0752">designation</text><!--MD5=[da547346deef918ea16944ba046651ef]
class Administrator--><rect codeLine="19" fill="#FEFECE" filter="url(#fj0voomvxwcs9)" height="51.1563" id="Administrator" style="stroke:#A80036;stroke-width:1.5;" width="156" x="1202.5" y="126.5"/><ellipse cx="1217.5" cy="148.0781" fill="#ADD1B2" rx="11" ry="11" style="stroke:#A80036;stroke-width:1.0;"/><path d="M1219.5,144.5781 Q1219.7031,144.0781 1219.9375,143.8281 Q1220.1719,143.5781 1220.4375,143.5781 Q1220.9063,143.5781 1221.2031,143.8594 Q1221.5,144.1406 1221.5,144.7969 L1221.5,146.3594 Q1221.5,147.0156 1221.2188,147.2969 Q1220.9375,147.5781 1220.5,147.5781 Q1220.1094,147.5781 1219.8594,147.4063 Q1219.6094,147.2344 1219.5,146.7813 Q1219.4531,146.4688 1219.2813,146.2969 Q1218.9688,145.9688 1218.4063,145.7813 Q1217.8438,145.5781 1217.2813,145.5781 Q1216.5781,145.5781 1215.9844,145.8594 Q1215.4063,146.1406 1214.9531,146.7656 Q1214.5,147.3906 1214.5,148.25 L1214.5,149.1719 Q1214.5,150.2031 1215.3438,150.8906 Q1216.1875,151.5781 1217.6875,151.5781 Q1218.5781,151.5781 1219.2031,151.375 Q1219.5625,151.2656 1219.9688,150.9063 Q1220.2344,150.7031 1220.375,150.6406 Q1220.5156,150.5781 1220.6875,150.5781 Q1221.0156,150.5781 1221.25,150.8438 Q1221.5,151.0938 1221.5,151.4531 Q1221.5,151.7969 1221.1563,152.2031 Q1220.6563,152.7969 1219.8594,153.125 Q1218.8125,153.5781 1217.5313,153.5781 Q1216.0313,153.5781 1214.8281,152.9844 Q1213.8594,152.5156 1213.1719,151.5 Q1212.5,150.4844 1212.5,149.2813 L1212.5,148.1875 Q1212.5,146.9375 1213.0938,145.8438 Q1213.7031,144.75 1214.75,144.1719 Q1215.8125,143.5781 1217,143.5781 Q1217.7188,143.5781 1218.3438,143.8281 Q1218.9688,144.0781 1219.5,144.5781 Z " fill="#000000"/><text fill="#000000" font-family="sans-serif" font-size="20" lengthAdjust="spacing" textLength="116" x="1235.5" y="156.2617">Administrator</text><line style="stroke:#A80036;stroke-width:1.5;" x1="1203.5" x2="1357.5" y1="169.6563" y2="169.6563"/><!--MD5=[19e445fc4d3b48519cbe33da05496394]
class Vaccine--><rect codeLine="21" fill="#FEFECE" filter="url(#fj0voomvxwcs9)" height="225.8438" id="Vaccine" style="stroke:#A80036;stroke-width:1.5;" width="124" x="2079" y="717"/><ellipse cx="2100.75" cy="738.5781" fill="#ADD1B2" rx="11" ry="11" style="stroke:#A80036;stroke-width:1.0;"/><path d="M2102.75,735.0781 Q2102.9531,734.5781 2103.1875,734.3281 Q2103.4219,734.0781 2103.6875,734.0781 Q2104.1563,734.0781 2104.4531,734.3594 Q2104.75,734.6406 2104.75,735.2969 L2104.75,736.8594 Q2104.75,737.5156 2104.4688,737.7969 Q2104.1875,738.0781 2103.75,738.0781 Q2103.3594,738.0781 2103.1094,737.9063 Q2102.8594,737.7344 2102.75,737.2813 Q2102.7031,736.9688 2102.5313,736.7969 Q2102.2188,736.4688 2101.6563,736.2813 Q2101.0938,736.0781 2100.5313,736.0781 Q2099.8281,736.0781 2099.2344,736.3594 Q2098.6563,736.6406 2098.2031,737.2656 Q2097.75,737.8906 2097.75,738.75 L2097.75,739.6719 Q2097.75,740.7031 2098.5938,741.3906 Q2099.4375,742.0781 2100.9375,742.0781 Q2101.8281,742.0781 2102.4531,741.875 Q2102.8125,741.7656 2103.2188,741.4063 Q2103.4844,741.2031 2103.625,741.1406 Q2103.7656,741.0781 2103.9375,741.0781 Q2104.2656,741.0781 2104.5,741.3438 Q2104.75,741.5938 2104.75,741.9531 Q2104.75,742.2969 2104.4063,742.7031 Q2103.9063,743.2969 2103.1094,743.625 Q2102.0625,744.0781 2100.7813,744.0781 Q2099.2813,744.0781 2098.0781,743.4844 Q2097.1094,743.0156 2096.4219,742 Q2095.75,740.9844 2095.75,739.7813 L2095.75,738.6875 Q2095.75,737.4375 2096.3438,736.3438 Q2096.9531,735.25 2098,734.6719 Q2099.0625,734.0781 2100.25,734.0781 Q2100.9688,734.0781 2101.5938,734.3281 Q2102.2188,734.5781 2102.75,735.0781 Z " fill="#000000"/><text fill="#000000" font-family="sans-serif" font-size="20" lengthAdjust="spacing" textLength="69" x="2120.25" y="746.7617">Vaccine</text><line style="stroke:#A80036;stroke-width:1.5;" x1="2080" x2="2202" y1="760.1563" y2="760.1563"/><text fill="#000000" font-family="sans-serif" font-size="11" lengthAdjust="spacing" textLength="8" x="2089" y="779.5752">Id</text><text fill="#000000" font-family="sans-serif" font-size="11" lengthAdjust="spacing" textLength="27" x="2089" y="801.4111">Name</text><text fill="#000000" font-family="sans-serif" font-size="11" lengthAdjust="spacing" textLength="29" x="2089" y="823.2471">Brand</text><text fill="#000000" font-family="sans-serif" font-size="11" lengthAdjust="spacing" textLength="67" x="2089" y="845.083">Vaccine Type</text><text fill="#000000" font-family="sans-serif" font-size="11" lengthAdjust="spacing" textLength="53" x="2089" y="866.9189">Age Group</text><text fill="#000000" font-family="sans-serif" font-size="11" lengthAdjust="spacing" textLength="65" x="2089" y="888.7549">Dose Number</text><text fill="#000000" font-family="sans-serif" font-size="11" lengthAdjust="spacing" textLength="80" x="2089" y="910.5908">Vaccine Dosage</text><text fill="#000000" font-family="sans-serif" font-size="11" lengthAdjust="spacing" textLength="104" x="2089" y="932.4268">Time Since Last Dose</text><!--MD5=[cd4ce1c0d44638ff9f42448de30e6b92]
class VaccineSchedule--><rect codeLine="32" fill="#FEFECE" filter="url(#fj0voomvxwcs9)" height="160.3359" id="VaccineSchedule" style="stroke:#A80036;stroke-width:1.5;" width="189" x="3893" y="446"/><ellipse cx="3908" cy="467.5781" fill="#ADD1B2" rx="11" ry="11" style="stroke:#A80036;stroke-width:1.0;"/><path d="M3910,464.0781 Q3910.2031,463.5781 3910.4375,463.3281 Q3910.6719,463.0781 3910.9375,463.0781 Q3911.4063,463.0781 3911.7031,463.3594 Q3912,463.6406 3912,464.2969 L3912,465.8594 Q3912,466.5156 3911.7188,466.7969 Q3911.4375,467.0781 3911,467.0781 Q3910.6094,467.0781 3910.3594,466.9063 Q3910.1094,466.7344 3910,466.2813 Q3909.9531,465.9688 3909.7813,465.7969 Q3909.4688,465.4688 3908.9063,465.2813 Q3908.3438,465.0781 3907.7813,465.0781 Q3907.0781,465.0781 3906.4844,465.3594 Q3905.9063,465.6406 3905.4531,466.2656 Q3905,466.8906 3905,467.75 L3905,468.6719 Q3905,469.7031 3905.8438,470.3906 Q3906.6875,471.0781 3908.1875,471.0781 Q3909.0781,471.0781 3909.7031,470.875 Q3910.0625,470.7656 3910.4688,470.4063 Q3910.7344,470.2031 3910.875,470.1406 Q3911.0156,470.0781 3911.1875,470.0781 Q3911.5156,470.0781 3911.75,470.3438 Q3912,470.5938 3912,470.9531 Q3912,471.2969 3911.6563,471.7031 Q3911.1563,472.2969 3910.3594,472.625 Q3909.3125,473.0781 3908.0313,473.0781 Q3906.5313,473.0781 3905.3281,472.4844 Q3904.3594,472.0156 3903.6719,471 Q3903,469.9844 3903,468.7813 L3903,467.6875 Q3903,466.4375 3903.5938,465.3438 Q3904.2031,464.25 3905.25,463.6719 Q3906.3125,463.0781 3907.5,463.0781 Q3908.2188,463.0781 3908.8438,463.3281 Q3909.4688,463.5781 3910,464.0781 Z " fill="#000000"/><text fill="#000000" font-family="sans-serif" font-size="20" lengthAdjust="spacing" textLength="149" x="3926" y="475.7617">VaccineSchedule</text><line style="stroke:#A80036;stroke-width:1.5;" x1="3894" x2="4081" y1="489.1563" y2="489.1563"/><text fill="#000000" font-family="sans-serif" font-size="11" lengthAdjust="spacing" textLength="21" x="3903" y="508.5752">date</text><text fill="#000000" font-family="sans-serif" font-size="11" lengthAdjust="spacing" textLength="19" x="3903" y="530.4111">time</text><text fill="#000000" font-family="sans-serif" font-size="11" lengthAdjust="spacing" textLength="59" x="3903" y="552.2471">userNumber</text><text fill="#000000" font-family="sans-serif" font-size="11" lengthAdjust="spacing" textLength="87" x="3903" y="574.083">vaccinationCenter</text><text fill="#000000" font-family="sans-serif" font-size="11" lengthAdjust="spacing" textLength="99" x="3903" y="595.9189">scheduleVerification</text><!--MD5=[03960189e81aa2c066c762ffabbee709]
class Receptionist--><rect codeLine="40" fill="#FEFECE" filter="url(#fj0voomvxwcs9)" height="51.1563" id="Receptionist" style="stroke:#A80036;stroke-width:1.5;" width="148" x="5122" y="456.5"/><ellipse cx="5137" cy="478.0781" fill="#ADD1B2" rx="11" ry="11" style="stroke:#A80036;stroke-width:1.0;"/><path d="M5139,474.5781 Q5139.2031,474.0781 5139.4375,473.8281 Q5139.6719,473.5781 5139.9375,473.5781 Q5140.4063,473.5781 5140.7031,473.8594 Q5141,474.1406 5141,474.7969 L5141,476.3594 Q5141,477.0156 5140.7188,477.2969 Q5140.4375,477.5781 5140,477.5781 Q5139.6094,477.5781 5139.3594,477.4063 Q5139.1094,477.2344 5139,476.7813 Q5138.9531,476.4688 5138.7813,476.2969 Q5138.4688,475.9688 5137.9063,475.7813 Q5137.3438,475.5781 5136.7813,475.5781 Q5136.0781,475.5781 5135.4844,475.8594 Q5134.9063,476.1406 5134.4531,476.7656 Q5134,477.3906 5134,478.25 L5134,479.1719 Q5134,480.2031 5134.8438,480.8906 Q5135.6875,481.5781 5137.1875,481.5781 Q5138.0781,481.5781 5138.7031,481.375 Q5139.0625,481.2656 5139.4688,480.9063 Q5139.7344,480.7031 5139.875,480.6406 Q5140.0156,480.5781 5140.1875,480.5781 Q5140.5156,480.5781 5140.75,480.8438 Q5141,481.0938 5141,481.4531 Q5141,481.7969 5140.6563,482.2031 Q5140.1563,482.7969 5139.3594,483.125 Q5138.3125,483.5781 5137.0313,483.5781 Q5135.5313,483.5781 5134.3281,482.9844 Q5133.3594,482.5156 5132.6719,481.5 Q5132,480.4844 5132,479.2813 L5132,478.1875 Q5132,476.9375 5132.5938,475.8438 Q5133.2031,474.75 5134.25,474.1719 Q5135.3125,473.5781 5136.5,473.5781 Q5137.2188,473.5781 5137.8438,473.8281 Q5138.4688,474.0781 5139,474.5781 Z " fill="#000000"/><text fill="#000000" font-family="sans-serif" font-size="20" lengthAdjust="spacing" textLength="108" x="5155" y="486.2617">Receptionist</text><line style="stroke:#A80036;stroke-width:1.5;" x1="5123" x2="5269" y1="499.6563" y2="499.6563"/><!--MD5=[72be06cc7ae02ccc98efe28a50e62246]
class SNSUser--><rect codeLine="43" fill="#FEFECE" filter="url(#fj0voomvxwcs9)" height="225.8438" id="SNSUser" style="stroke:#A80036;stroke-width:1.5;" width="120" x="4512" y="413"/><ellipse cx="4527" cy="434.5781" fill="#ADD1B2" rx="11" ry="11" style="stroke:#A80036;stroke-width:1.0;"/><path d="M4529,431.0781 Q4529.2031,430.5781 4529.4375,430.3281 Q4529.6719,430.0781 4529.9375,430.0781 Q4530.4063,430.0781 4530.7031,430.3594 Q4531,430.6406 4531,431.2969 L4531,432.8594 Q4531,433.5156 4530.7188,433.7969 Q4530.4375,434.0781 4530,434.0781 Q4529.6094,434.0781 4529.3594,433.9063 Q4529.1094,433.7344 4529,433.2813 Q4528.9531,432.9688 4528.7813,432.7969 Q4528.4688,432.4688 4527.9063,432.2813 Q4527.3438,432.0781 4526.7813,432.0781 Q4526.0781,432.0781 4525.4844,432.3594 Q4524.9063,432.6406 4524.4531,433.2656 Q4524,433.8906 4524,434.75 L4524,435.6719 Q4524,436.7031 4524.8438,437.3906 Q4525.6875,438.0781 4527.1875,438.0781 Q4528.0781,438.0781 4528.7031,437.875 Q4529.0625,437.7656 4529.4688,437.4063 Q4529.7344,437.2031 4529.875,437.1406 Q4530.0156,437.0781 4530.1875,437.0781 Q4530.5156,437.0781 4530.75,437.3438 Q4531,437.5938 4531,437.9531 Q4531,438.2969 4530.6563,438.7031 Q4530.1563,439.2969 4529.3594,439.625 Q4528.3125,440.0781 4527.0313,440.0781 Q4525.5313,440.0781 4524.3281,439.4844 Q4523.3594,439.0156 4522.6719,438 Q4522,436.9844 4522,435.7813 L4522,434.6875 Q4522,433.4375 4522.5938,432.3438 Q4523.2031,431.25 4524.25,430.6719 Q4525.3125,430.0781 4526.5,430.0781 Q4527.2188,430.0781 4527.8438,430.3281 Q4528.4688,430.5781 4529,431.0781 Z " fill="#000000"/><text fill="#000000" font-family="sans-serif" font-size="20" lengthAdjust="spacing" textLength="80" x="4545" y="442.7617">SNSUser</text><line style="stroke:#A80036;stroke-width:1.5;" x1="4513" x2="4631" y1="456.1563" y2="456.1563"/><text fill="#000000" font-family="sans-serif" font-size="11" lengthAdjust="spacing" textLength="26" x="4522" y="475.5752">name</text><text fill="#000000" font-family="sans-serif" font-size="11" lengthAdjust="spacing" textLength="40" x="4522" y="497.4111">address</text><text fill="#000000" font-family="sans-serif" font-size="11" lengthAdjust="spacing" textLength="34" x="4522" y="519.2471">gender</text><text fill="#000000" font-family="sans-serif" font-size="11" lengthAdjust="spacing" textLength="67" x="4522" y="541.083">phoneNumber</text><text fill="#000000" font-family="sans-serif" font-size="11" lengthAdjust="spacing" textLength="43" x="4522" y="562.9189">birthDate</text><text fill="#000000" font-family="sans-serif" font-size="11" lengthAdjust="spacing" textLength="66" x="4522" y="584.7549">emailAddress</text><text fill="#000000" font-family="sans-serif" font-size="11" lengthAdjust="spacing" textLength="78" x="4522" y="606.5908">snsUserNumber</text><text fill="#000000" font-family="sans-serif" font-size="11" lengthAdjust="spacing" textLength="91" x="4522" y="628.4268">citizenCardNumber</text><!--MD5=[76b5e19c9337179d2d7ae334371d68c8]
class Notification--><rect codeLine="54" fill="#FEFECE" filter="url(#fj0voomvxwcs9)" height="51.1563" id="Notification" style="stroke:#A80036;stroke-width:1.5;" width="136" x="3144.5" y="242.5"/><ellipse cx="3159.5" cy="264.0781" fill="#ADD1B2" rx="11" ry="11" style="stroke:#A80036;stroke-width:1.0;"/><path d="M3161.5,260.5781 Q3161.7031,260.0781 3161.9375,259.8281 Q3162.1719,259.5781 3162.4375,259.5781 Q3162.9063,259.5781 3163.2031,259.8594 Q3163.5,260.1406 3163.5,260.7969 L3163.5,262.3594 Q3163.5,263.0156 3163.2188,263.2969 Q3162.9375,263.5781 3162.5,263.5781 Q3162.1094,263.5781 3161.8594,263.4063 Q3161.6094,263.2344 3161.5,262.7813 Q3161.4531,262.4688 3161.2813,262.2969 Q3160.9688,261.9688 3160.4063,261.7813 Q3159.8438,261.5781 3159.2813,261.5781 Q3158.5781,261.5781 3157.9844,261.8594 Q3157.4063,262.1406 3156.9531,262.7656 Q3156.5,263.3906 3156.5,264.25 L3156.5,265.1719 Q3156.5,266.2031 3157.3438,266.8906 Q3158.1875,267.5781 3159.6875,267.5781 Q3160.5781,267.5781 3161.2031,267.375 Q3161.5625,267.2656 3161.9688,266.9063 Q3162.2344,266.7031 3162.375,266.6406 Q3162.5156,266.5781 3162.6875,266.5781 Q3163.0156,266.5781 3163.25,266.8438 Q3163.5,267.0938 3163.5,267.4531 Q3163.5,267.7969 3163.1563,268.2031 Q3162.6563,268.7969 3161.8594,269.125 Q3160.8125,269.5781 3159.5313,269.5781 Q3158.0313,269.5781 3156.8281,268.9844 Q3155.8594,268.5156 3155.1719,267.5 Q3154.5,266.4844 3154.5,265.2813 L3154.5,264.1875 Q3154.5,262.9375 3155.0938,261.8438 Q3155.7031,260.75 3156.75,260.1719 Q3157.8125,259.5781 3159,259.5781 Q3159.7188,259.5781 3160.3438,259.8281 Q3160.9688,260.0781 3161.5,260.5781 Z " fill="#000000"/><text fill="#000000" font-family="sans-serif" font-size="20" lengthAdjust="spacing" textLength="96" x="3177.5" y="272.2617">Notification</text><line style="stroke:#A80036;stroke-width:1.5;" x1="3145.5" x2="3279.5" y1="285.6563" y2="285.6563"/><!--MD5=[17d776304760d17bcc13ba401441cbdd]
class SMSNotification--><rect codeLine="56" fill="#FEFECE" filter="url(#fj0voomvxwcs9)" height="51.1563" id="SMSNotification" style="stroke:#A80036;stroke-width:1.5;" width="179" x="3560.5" y="156.5"/><ellipse cx="3575.5" cy="178.0781" fill="#ADD1B2" rx="11" ry="11" style="stroke:#A80036;stroke-width:1.0;"/><path d="M3577.5,174.5781 Q3577.7031,174.0781 3577.9375,173.8281 Q3578.1719,173.5781 3578.4375,173.5781 Q3578.9063,173.5781 3579.2031,173.8594 Q3579.5,174.1406 3579.5,174.7969 L3579.5,176.3594 Q3579.5,177.0156 3579.2188,177.2969 Q3578.9375,177.5781 3578.5,177.5781 Q3578.1094,177.5781 3577.8594,177.4063 Q3577.6094,177.2344 3577.5,176.7813 Q3577.4531,176.4688 3577.2813,176.2969 Q3576.9688,175.9688 3576.4063,175.7813 Q3575.8438,175.5781 3575.2813,175.5781 Q3574.5781,175.5781 3573.9844,175.8594 Q3573.4063,176.1406 3572.9531,176.7656 Q3572.5,177.3906 3572.5,178.25 L3572.5,179.1719 Q3572.5,180.2031 3573.3438,180.8906 Q3574.1875,181.5781 3575.6875,181.5781 Q3576.5781,181.5781 3577.2031,181.375 Q3577.5625,181.2656 3577.9688,180.9063 Q3578.2344,180.7031 3578.375,180.6406 Q3578.5156,180.5781 3578.6875,180.5781 Q3579.0156,180.5781 3579.25,180.8438 Q3579.5,181.0938 3579.5,181.4531 Q3579.5,181.7969 3579.1563,182.2031 Q3578.6563,182.7969 3577.8594,183.125 Q3576.8125,183.5781 3575.5313,183.5781 Q3574.0313,183.5781 3572.8281,182.9844 Q3571.8594,182.5156 3571.1719,181.5 Q3570.5,180.4844 3570.5,179.2813 L3570.5,178.1875 Q3570.5,176.9375 3571.0938,175.8438 Q3571.7031,174.75 3572.75,174.1719 Q3573.8125,173.5781 3575,173.5781 Q3575.7188,173.5781 3576.3438,173.8281 Q3576.9688,174.0781 3577.5,174.5781 Z " fill="#000000"/><text fill="#000000" font-family="sans-serif" font-size="20" lengthAdjust="spacing" textLength="139" x="3593.5" y="186.2617">SMSNotification</text><line style="stroke:#A80036;stroke-width:1.5;" x1="3561.5" x2="3738.5" y1="199.6563" y2="199.6563"/><!--MD5=[7e2bc2f128e759c5889ccd6a2666d576]
class EmailNotification--><rect codeLine="58" fill="#FEFECE" filter="url(#fj0voomvxwcs9)" height="51.1563" id="EmailNotification" style="stroke:#A80036;stroke-width:1.5;" width="184" x="3558" y="242.5"/><ellipse cx="3573" cy="264.0781" fill="#ADD1B2" rx="11" ry="11" style="stroke:#A80036;stroke-width:1.0;"/><path d="M3575,260.5781 Q3575.2031,260.0781 3575.4375,259.8281 Q3575.6719,259.5781 3575.9375,259.5781 Q3576.4063,259.5781 3576.7031,259.8594 Q3577,260.1406 3577,260.7969 L3577,262.3594 Q3577,263.0156 3576.7188,263.2969 Q3576.4375,263.5781 3576,263.5781 Q3575.6094,263.5781 3575.3594,263.4063 Q3575.1094,263.2344 3575,262.7813 Q3574.9531,262.4688 3574.7813,262.2969 Q3574.4688,261.9688 3573.9063,261.7813 Q3573.3438,261.5781 3572.7813,261.5781 Q3572.0781,261.5781 3571.4844,261.8594 Q3570.9063,262.1406 3570.4531,262.7656 Q3570,263.3906 3570,264.25 L3570,265.1719 Q3570,266.2031 3570.8438,266.8906 Q3571.6875,267.5781 3573.1875,267.5781 Q3574.0781,267.5781 3574.7031,267.375 Q3575.0625,267.2656 3575.4688,266.9063 Q3575.7344,266.7031 3575.875,266.6406 Q3576.0156,266.5781 3576.1875,266.5781 Q3576.5156,266.5781 3576.75,266.8438 Q3577,267.0938 3577,267.4531 Q3577,267.7969 3576.6563,268.2031 Q3576.1563,268.7969 3575.3594,269.125 Q3574.3125,269.5781 3573.0313,269.5781 Q3571.5313,269.5781 3570.3281,268.9844 Q3569.3594,268.5156 3568.6719,267.5 Q3568,266.4844 3568,265.2813 L3568,264.1875 Q3568,262.9375 3568.5938,261.8438 Q3569.2031,260.75 3570.25,260.1719 Q3571.3125,259.5781 3572.5,259.5781 Q3573.2188,259.5781 3573.8438,259.8281 Q3574.4688,260.0781 3575,260.5781 Z " fill="#000000"/><text fill="#000000" font-family="sans-serif" font-size="20" lengthAdjust="spacing" textLength="144" x="3591" y="272.2617">EmailNotification</text><line style="stroke:#A80036;stroke-width:1.5;" x1="3559" x2="3741" y1="285.6563" y2="285.6563"/><!--MD5=[03e3bb7aef77bf14822eb3fb6d15ab17]
class Dose--><rect codeLine="62" fill="#FEFECE" filter="url(#fj0voomvxwcs9)" height="116.6641" id="Dose" style="stroke:#A80036;stroke-width:1.5;" width="86" x="3607" y="663.5"/><ellipse cx="3622" cy="685.0781" fill="#ADD1B2" rx="11" ry="11" style="stroke:#A80036;stroke-width:1.0;"/><path d="M3624,681.5781 Q3624.2031,681.0781 3624.4375,680.8281 Q3624.6719,680.5781 3624.9375,680.5781 Q3625.4063,680.5781 3625.7031,680.8594 Q3626,681.1406 3626,681.7969 L3626,683.3594 Q3626,684.0156 3625.7188,684.2969 Q3625.4375,684.5781 3625,684.5781 Q3624.6094,684.5781 3624.3594,684.4063 Q3624.1094,684.2344 3624,683.7813 Q3623.9531,683.4688 3623.7813,683.2969 Q3623.4688,682.9688 3622.9063,682.7813 Q3622.3438,682.5781 3621.7813,682.5781 Q3621.0781,682.5781 3620.4844,682.8594 Q3619.9063,683.1406 3619.4531,683.7656 Q3619,684.3906 3619,685.25 L3619,686.1719 Q3619,687.2031 3619.8438,687.8906 Q3620.6875,688.5781 3622.1875,688.5781 Q3623.0781,688.5781 3623.7031,688.375 Q3624.0625,688.2656 3624.4688,687.9063 Q3624.7344,687.7031 3624.875,687.6406 Q3625.0156,687.5781 3625.1875,687.5781 Q3625.5156,687.5781 3625.75,687.8438 Q3626,688.0938 3626,688.4531 Q3626,688.7969 3625.6563,689.2031 Q3625.1563,689.7969 3624.3594,690.125 Q3623.3125,690.5781 3622.0313,690.5781 Q3620.5313,690.5781 3619.3281,689.9844 Q3618.3594,689.5156 3617.6719,688.5 Q3617,687.4844 3617,686.2813 L3617,685.1875 Q3617,683.9375 3617.5938,682.8438 Q3618.2031,681.75 3619.25,681.1719 Q3620.3125,680.5781 3621.5,680.5781 Q3622.2188,680.5781 3622.8438,680.8281 Q3623.4688,681.0781 3624,681.5781 Z " fill="#000000"/><text fill="#000000" font-family="sans-serif" font-size="20" lengthAdjust="spacing" textLength="46" x="3640" y="693.2617">Dose</text><line style="stroke:#A80036;stroke-width:1.5;" x1="3608" x2="3692" y1="706.6563" y2="706.6563"/><text fill="#000000" font-family="sans-serif" font-size="11" lengthAdjust="spacing" textLength="18" x="3617" y="726.0752">age</text><text fill="#000000" font-family="sans-serif" font-size="11" lengthAdjust="spacing" textLength="36" x="3617" y="747.9111">dosage</text><text fill="#000000" font-family="sans-serif" font-size="11" lengthAdjust="spacing" textLength="54" x="3617" y="769.7471">timeInterval</text><!--MD5=[107cfa23aa516ff83d0cf17a6f9fe7ba]
class VaccineAdministration--><rect codeLine="68" fill="#FEFECE" filter="url(#fj0voomvxwcs9)" height="94.8281" id="VaccineAdministration" style="stroke:#A80036;stroke-width:1.5;" width="232" x="5514" y="821.5"/><ellipse cx="5529" cy="843.0781" fill="#ADD1B2" rx="11" ry="11" style="stroke:#A80036;stroke-width:1.0;"/><path d="M5531,839.5781 Q5531.2031,839.0781 5531.4375,838.8281 Q5531.6719,838.5781 5531.9375,838.5781 Q5532.4063,838.5781 5532.7031,838.8594 Q5533,839.1406 5533,839.7969 L5533,841.3594 Q5533,842.0156 5532.7188,842.2969 Q5532.4375,842.5781 5532,842.5781 Q5531.6094,842.5781 5531.3594,842.4063 Q5531.1094,842.2344 5531,841.7813 Q5530.9531,841.4688 5530.7813,841.2969 Q5530.4688,840.9688 5529.9063,840.7813 Q5529.3438,840.5781 5528.7813,840.5781 Q5528.0781,840.5781 5527.4844,840.8594 Q5526.9063,841.1406 5526.4531,841.7656 Q5526,842.3906 5526,843.25 L5526,844.1719 Q5526,845.2031 5526.8438,845.8906 Q5527.6875,846.5781 5529.1875,846.5781 Q5530.0781,846.5781 5530.7031,846.375 Q5531.0625,846.2656 5531.4688,845.9063 Q5531.7344,845.7031 5531.875,845.6406 Q5532.0156,845.5781 5532.1875,845.5781 Q5532.5156,845.5781 5532.75,845.8438 Q5533,846.0938 5533,846.4531 Q5533,846.7969 5532.6563,847.2031 Q5532.1563,847.7969 5531.3594,848.125 Q5530.3125,848.5781 5529.0313,848.5781 Q5527.5313,848.5781 5526.3281,847.9844 Q5525.3594,847.5156 5524.6719,846.5 Q5524,845.4844 5524,844.2813 L5524,843.1875 Q5524,841.9375 5524.5938,840.8438 Q5525.2031,839.75 5526.25,839.1719 Q5527.3125,838.5781 5528.5,838.5781 Q5529.2188,838.5781 5529.8438,838.8281 Q5530.4688,839.0781 5531,839.5781 Z " fill="#000000"/><text fill="#000000" font-family="sans-serif" font-size="20" lengthAdjust="spacing" textLength="192" x="5547" y="851.2617">VaccineAdministration</text><line style="stroke:#A80036;stroke-width:1.5;" x1="5515" x2="5745" y1="864.6563" y2="864.6563"/><text fill="#000000" font-family="sans-serif" font-size="11" lengthAdjust="spacing" textLength="55" x="5524" y="884.0752">designation</text><text fill="#000000" font-family="sans-serif" font-size="11" lengthAdjust="spacing" textLength="48" x="5524" y="905.9111">ageGroup</text><!--MD5=[a059576e163b46f56762f12600c49258]
class Nurse--><rect codeLine="73" fill="#FEFECE" filter="url(#fj0voomvxwcs9)" height="51.1563" id="Nurse" style="stroke:#A80036;stroke-width:1.5;" width="91" x="5150.5" y="641.5"/><ellipse cx="5165.5" cy="663.0781" fill="#ADD1B2" rx="11" ry="11" style="stroke:#A80036;stroke-width:1.0;"/><path d="M5167.5,659.5781 Q5167.7031,659.0781 5167.9375,658.8281 Q5168.1719,658.5781 5168.4375,658.5781 Q5168.9063,658.5781 5169.2031,658.8594 Q5169.5,659.1406 5169.5,659.7969 L5169.5,661.3594 Q5169.5,662.0156 5169.2188,662.2969 Q5168.9375,662.5781 5168.5,662.5781 Q5168.1094,662.5781 5167.8594,662.4063 Q5167.6094,662.2344 5167.5,661.7813 Q5167.4531,661.4688 5167.2813,661.2969 Q5166.9688,660.9688 5166.4063,660.7813 Q5165.8438,660.5781 5165.2813,660.5781 Q5164.5781,660.5781 5163.9844,660.8594 Q5163.4063,661.1406 5162.9531,661.7656 Q5162.5,662.3906 5162.5,663.25 L5162.5,664.1719 Q5162.5,665.2031 5163.3438,665.8906 Q5164.1875,666.5781 5165.6875,666.5781 Q5166.5781,666.5781 5167.2031,666.375 Q5167.5625,666.2656 5167.9688,665.9063 Q5168.2344,665.7031 5168.375,665.6406 Q5168.5156,665.5781 5168.6875,665.5781 Q5169.0156,665.5781 5169.25,665.8438 Q5169.5,666.0938 5169.5,666.4531 Q5169.5,666.7969 5169.1563,667.2031 Q5168.6563,667.7969 5167.8594,668.125 Q5166.8125,668.5781 5165.5313,668.5781 Q5164.0313,668.5781 5162.8281,667.9844 Q5161.8594,667.5156 5161.1719,666.5 Q5160.5,665.4844 5160.5,664.2813 L5160.5,663.1875 Q5160.5,661.9375 5161.0938,660.8438 Q5161.7031,659.75 5162.75,659.1719 Q5163.8125,658.5781 5165,658.5781 Q5165.7188,658.5781 5166.3438,658.8281 Q5166.9688,659.0781 5167.5,659.5781 Z " fill="#000000"/><text fill="#000000" font-family="sans-serif" font-size="20" lengthAdjust="spacing" textLength="51" x="5183.5" y="671.2617">Nurse</text><line style="stroke:#A80036;stroke-width:1.5;" x1="5151.5" x2="5240.5" y1="684.6563" y2="684.6563"/><!--MD5=[9bf9dadbffb7fbceed2ede59f1107d85]
class AdverseReaction--><rect codeLine="75" fill="#FEFECE" filter="url(#fj0voomvxwcs9)" height="51.1563" id="AdverseReaction" style="stroke:#A80036;stroke-width:1.5;" width="189" x="6288" y="906.5"/><ellipse cx="6303" cy="928.0781" fill="#ADD1B2" rx="11" ry="11" style="stroke:#A80036;stroke-width:1.0;"/><path d="M6305,924.5781 Q6305.2031,924.0781 6305.4375,923.8281 Q6305.6719,923.5781 6305.9375,923.5781 Q6306.4063,923.5781 6306.7031,923.8594 Q6307,924.1406 6307,924.7969 L6307,926.3594 Q6307,927.0156 6306.7188,927.2969 Q6306.4375,927.5781 6306,927.5781 Q6305.6094,927.5781 6305.3594,927.4063 Q6305.1094,927.2344 6305,926.7813 Q6304.9531,926.4688 6304.7813,926.2969 Q6304.4688,925.9688 6303.9063,925.7813 Q6303.3438,925.5781 6302.7813,925.5781 Q6302.0781,925.5781 6301.4844,925.8594 Q6300.9063,926.1406 6300.4531,926.7656 Q6300,927.3906 6300,928.25 L6300,929.1719 Q6300,930.2031 6300.8438,930.8906 Q6301.6875,931.5781 6303.1875,931.5781 Q6304.0781,931.5781 6304.7031,931.375 Q6305.0625,931.2656 6305.4688,930.9063 Q6305.7344,930.7031 6305.875,930.6406 Q6306.0156,930.5781 6306.1875,930.5781 Q6306.5156,930.5781 6306.75,930.8438 Q6307,931.0938 6307,931.4531 Q6307,931.7969 6306.6563,932.2031 Q6306.1563,932.7969 6305.3594,933.125 Q6304.3125,933.5781 6303.0313,933.5781 Q6301.5313,933.5781 6300.3281,932.9844 Q6299.3594,932.5156 6298.6719,931.5 Q6298,930.4844 6298,929.2813 L6298,928.1875 Q6298,926.9375 6298.5938,925.8438 Q6299.2031,924.75 6300.25,924.1719 Q6301.3125,923.5781 6302.5,923.5781 Q6303.2188,923.5781 6303.8438,923.8281 Q6304.4688,924.0781 6305,924.5781 Z " fill="#000000"/><text fill="#000000" font-family="sans-serif" font-size="20" lengthAdjust="spacing" textLength="149" x="6321" y="936.2617">AdverseReaction</text><line style="stroke:#A80036;stroke-width:1.5;" x1="6289" x2="6476" y1="949.6563" y2="949.6563"/><!--MD5=[f24502e7c9b1056c4d1f73c3d80dda4c]
class RecoveryRoom--><rect codeLine="77" fill="#FEFECE" filter="url(#fj0voomvxwcs9)" height="72.9922" id="RecoveryRoom" style="stroke:#A80036;stroke-width:1.5;" width="175" x="6786" y="832.5"/><ellipse cx="6801" cy="854.0781" fill="#ADD1B2" rx="11" ry="11" style="stroke:#A80036;stroke-width:1.0;"/><path d="M6803,850.5781 Q6803.2031,850.0781 6803.4375,849.8281 Q6803.6719,849.5781 6803.9375,849.5781 Q6804.4063,849.5781 6804.7031,849.8594 Q6805,850.1406 6805,850.7969 L6805,852.3594 Q6805,853.0156 6804.7188,853.2969 Q6804.4375,853.5781 6804,853.5781 Q6803.6094,853.5781 6803.3594,853.4063 Q6803.1094,853.2344 6803,852.7813 Q6802.9531,852.4688 6802.7813,852.2969 Q6802.4688,851.9688 6801.9063,851.7813 Q6801.3438,851.5781 6800.7813,851.5781 Q6800.0781,851.5781 6799.4844,851.8594 Q6798.9063,852.1406 6798.4531,852.7656 Q6798,853.3906 6798,854.25 L6798,855.1719 Q6798,856.2031 6798.8438,856.8906 Q6799.6875,857.5781 6801.1875,857.5781 Q6802.0781,857.5781 6802.7031,857.375 Q6803.0625,857.2656 6803.4688,856.9063 Q6803.7344,856.7031 6803.875,856.6406 Q6804.0156,856.5781 6804.1875,856.5781 Q6804.5156,856.5781 6804.75,856.8438 Q6805,857.0938 6805,857.4531 Q6805,857.7969 6804.6563,858.2031 Q6804.1563,858.7969 6803.3594,859.125 Q6802.3125,859.5781 6801.0313,859.5781 Q6799.5313,859.5781 6798.3281,858.9844 Q6797.3594,858.5156 6796.6719,857.5 Q6796,856.4844 6796,855.2813 L6796,854.1875 Q6796,852.9375 6796.5938,851.8438 Q6797.2031,850.75 6798.25,850.1719 Q6799.3125,849.5781 6800.5,849.5781 Q6801.2188,849.5781 6801.8438,849.8281 Q6802.4688,850.0781 6803,850.5781 Z " fill="#000000"/><text fill="#000000" font-family="sans-serif" font-size="20" lengthAdjust="spacing" textLength="135" x="6819" y="862.2617">RecoveryRoom</text><line style="stroke:#A80036;stroke-width:1.5;" x1="6787" x2="6960" y1="875.6563" y2="875.6563"/><text fill="#000000" font-family="sans-serif" font-size="11" lengthAdjust="spacing" textLength="42" x="6796" y="895.0752">listUsers</text><!--MD5=[bbfceadfd3ca8502ba9e4eeb79b71174]
class CommunityCenter--><rect codeLine="82" fill="#FEFECE" filter="url(#fj0voomvxwcs9)" height="51.1563" id="CommunityCenter" style="stroke:#A80036;stroke-width:1.5;" width="196" x="1808" y="563.5"/><ellipse cx="1823" cy="585.0781" fill="#ADD1B2" rx="11" ry="11" style="stroke:#A80036;stroke-width:1.0;"/><path d="M1825,581.5781 Q1825.2031,581.0781 1825.4375,580.8281 Q1825.6719,580.5781 1825.9375,580.5781 Q1826.4063,580.5781 1826.7031,580.8594 Q1827,581.1406 1827,581.7969 L1827,583.3594 Q1827,584.0156 1826.7188,584.2969 Q1826.4375,584.5781 1826,584.5781 Q1825.6094,584.5781 1825.3594,584.4063 Q1825.1094,584.2344 1825,583.7813 Q1824.9531,583.4688 1824.7813,583.2969 Q1824.4688,582.9688 1823.9063,582.7813 Q1823.3438,582.5781 1822.7813,582.5781 Q1822.0781,582.5781 1821.4844,582.8594 Q1820.9063,583.1406 1820.4531,583.7656 Q1820,584.3906 1820,585.25 L1820,586.1719 Q1820,587.2031 1820.8438,587.8906 Q1821.6875,588.5781 1823.1875,588.5781 Q1824.0781,588.5781 1824.7031,588.375 Q1825.0625,588.2656 1825.4688,587.9063 Q1825.7344,587.7031 1825.875,587.6406 Q1826.0156,587.5781 1826.1875,587.5781 Q1826.5156,587.5781 1826.75,587.8438 Q1827,588.0938 1827,588.4531 Q1827,588.7969 1826.6563,589.2031 Q1826.1563,589.7969 1825.3594,590.125 Q1824.3125,590.5781 1823.0313,590.5781 Q1821.5313,590.5781 1820.3281,589.9844 Q1819.3594,589.5156 1818.6719,588.5 Q1818,587.4844 1818,586.2813 L1818,585.1875 Q1818,583.9375 1818.5938,582.8438 Q1819.2031,581.75 1820.25,581.1719 Q1821.3125,580.5781 1822.5,580.5781 Q1823.2188,580.5781 1823.8438,580.8281 Q1824.4688,581.0781 1825,581.5781 Z " fill="#000000"/><text fill="#000000" font-family="sans-serif" font-size="20" lengthAdjust="spacing" textLength="156" x="1841" y="593.2617">CommunityCenter</text><line style="stroke:#A80036;stroke-width:1.5;" x1="1809" x2="2003" y1="606.6563" y2="606.6563"/><!--MD5=[de60e6d4f424ae4d0522096f76a59010]
class VaccinationCenter--><rect codeLine="85" fill="#FEFECE" filter="url(#fj0voomvxwcs9)" height="269.5156" id="VaccinationCenter" style="stroke:#A80036;stroke-width:1.5;" width="199" x="1181" y="490"/><ellipse cx="1196" cy="511.5781" fill="#ADD1B2" rx="11" ry="11" style="stroke:#A80036;stroke-width:1.0;"/><path d="M1198,508.0781 Q1198.2031,507.5781 1198.4375,507.3281 Q1198.6719,507.0781 1198.9375,507.0781 Q1199.4063,507.0781 1199.7031,507.3594 Q1200,507.6406 1200,508.2969 L1200,509.8594 Q1200,510.5156 1199.7188,510.7969 Q1199.4375,511.0781 1199,511.0781 Q1198.6094,511.0781 1198.3594,510.9063 Q1198.1094,510.7344 1198,510.2813 Q1197.9531,509.9688 1197.7813,509.7969 Q1197.4688,509.4688 1196.9063,509.2813 Q1196.3438,509.0781 1195.7813,509.0781 Q1195.0781,509.0781 1194.4844,509.3594 Q1193.9063,509.6406 1193.4531,510.2656 Q1193,510.8906 1193,511.75 L1193,512.6719 Q1193,513.7031 1193.8438,514.3906 Q1194.6875,515.0781 1196.1875,515.0781 Q1197.0781,515.0781 1197.7031,514.875 Q1198.0625,514.7656 1198.4688,514.4063 Q1198.7344,514.2031 1198.875,514.1406 Q1199.0156,514.0781 1199.1875,514.0781 Q1199.5156,514.0781 1199.75,514.3438 Q1200,514.5938 1200,514.9531 Q1200,515.2969 1199.6563,515.7031 Q1199.1563,516.2969 1198.3594,516.625 Q1197.3125,517.0781 1196.0313,517.0781 Q1194.5313,517.0781 1193.3281,516.4844 Q1192.3594,516.0156 1191.6719,515 Q1191,513.9844 1191,512.7813 L1191,511.6875 Q1191,510.4375 1191.5938,509.3438 Q1192.2031,508.25 1193.25,507.6719 Q1194.3125,507.0781 1195.5,507.0781 Q1196.2188,507.0781 1196.8438,507.3281 Q1197.4688,507.5781 1198,508.0781 Z " fill="#000000"/><text fill="#000000" font-family="sans-serif" font-size="20" lengthAdjust="spacing" textLength="159" x="1214" y="519.7617">VaccinationCenter</text><line style="stroke:#A80036;stroke-width:1.5;" x1="1182" x2="1379" y1="533.1563" y2="533.1563"/><text fill="#000000" font-family="sans-serif" font-size="11" lengthAdjust="spacing" textLength="26" x="1191" y="552.5752">name</text><text fill="#000000" font-family="sans-serif" font-size="11" lengthAdjust="spacing" textLength="67" x="1191" y="574.4111">phoneNumber</text><text fill="#000000" font-family="sans-serif" font-size="11" lengthAdjust="spacing" textLength="53" x="1191" y="596.2471">faxNumber</text><text fill="#000000" font-family="sans-serif" font-size="11" lengthAdjust="spacing" textLength="68" x="1191" y="618.083">homeAddress</text><text fill="#000000" font-family="sans-serif" font-size="11" lengthAdjust="spacing" textLength="66" x="1191" y="639.9189">emailAddress</text><text fill="#000000" font-family="sans-serif" font-size="11" lengthAdjust="spacing" textLength="81" x="1191" y="661.7549">websiteAddress</text><text fill="#000000" font-family="sans-serif" font-size="11" lengthAdjust="spacing" textLength="67" x="1191" y="683.5908">openingHours</text><text fill="#000000" font-family="sans-serif" font-size="11" lengthAdjust="spacing" textLength="63" x="1191" y="705.4268">closingHours</text><text fill="#000000" font-family="sans-serif" font-size="11" lengthAdjust="spacing" textLength="57" x="1191" y="727.2627">slotDuration</text><text fill="#000000" font-family="sans-serif" font-size="11" lengthAdjust="spacing" textLength="121" x="1191" y="749.0986">maxNumVaccinesPerSlot</text><!--MD5=[0e501da62322464167c8ec4d233a6b7e]
class VaccineType--><rect codeLine="98" fill="#FEFECE" filter="url(#fj0voomvxwcs9)" height="116.6641" id="VaccineType" style="stroke:#A80036;stroke-width:1.5;" width="153" x="3136" y="642.5"/><ellipse cx="3151" cy="664.0781" fill="#ADD1B2" rx="11" ry="11" style="stroke:#A80036;stroke-width:1.0;"/><path d="M3153,660.5781 Q3153.2031,660.0781 3153.4375,659.8281 Q3153.6719,659.5781 3153.9375,659.5781 Q3154.4063,659.5781 3154.7031,659.8594 Q3155,660.1406 3155,660.7969 L3155,662.3594 Q3155,663.0156 3154.7188,663.2969 Q3154.4375,663.5781 3154,663.5781 Q3153.6094,663.5781 3153.3594,663.4063 Q3153.1094,663.2344 3153,662.7813 Q3152.9531,662.4688 3152.7813,662.2969 Q3152.4688,661.9688 3151.9063,661.7813 Q3151.3438,661.5781 3150.7813,661.5781 Q3150.0781,661.5781 3149.4844,661.8594 Q3148.9063,662.1406 3148.4531,662.7656 Q3148,663.3906 3148,664.25 L3148,665.1719 Q3148,666.2031 3148.8438,666.8906 Q3149.6875,667.5781 3151.1875,667.5781 Q3152.0781,667.5781 3152.7031,667.375 Q3153.0625,667.2656 3153.4688,666.9063 Q3153.7344,666.7031 3153.875,666.6406 Q3154.0156,666.5781 3154.1875,666.5781 Q3154.5156,666.5781 3154.75,666.8438 Q3155,667.0938 3155,667.4531 Q3155,667.7969 3154.6563,668.2031 Q3154.1563,668.7969 3153.3594,669.125 Q3152.3125,669.5781 3151.0313,669.5781 Q3149.5313,669.5781 3148.3281,668.9844 Q3147.3594,668.5156 3146.6719,667.5 Q3146,666.4844 3146,665.2813 L3146,664.1875 Q3146,662.9375 3146.5938,661.8438 Q3147.2031,660.75 3148.25,660.1719 Q3149.3125,659.5781 3150.5,659.5781 Q3151.2188,659.5781 3151.8438,659.8281 Q3152.4688,660.0781 3153,660.5781 Z " fill="#000000"/><text fill="#000000" font-family="sans-serif" font-size="20" lengthAdjust="spacing" textLength="113" x="3169" y="672.2617">VaccineType</text><line style="stroke:#A80036;stroke-width:1.5;" x1="3137" x2="3288" y1="685.6563" y2="685.6563"/><text fill="#000000" font-family="sans-serif" font-size="11" lengthAdjust="spacing" textLength="24" x="3146" y="705.0752">code</text><text fill="#000000" font-family="sans-serif" font-size="11" lengthAdjust="spacing" textLength="55" x="3146" y="726.9111">designation</text><text fill="#000000" font-family="sans-serif" font-size="11" lengthAdjust="spacing" textLength="94" x="3146" y="748.7471">vaccineTechnology</text><!--MD5=[f082b347be438956eae752ed2dcedd8d]
class VaccinationCertificate--><rect codeLine="104" fill="#FEFECE" filter="url(#fj0voomvxwcs9)" height="51.1563" id="VaccinationCertificate" style="stroke:#A80036;stroke-width:1.5;" width="230" x="4457" y="699.5"/><ellipse cx="4472" cy="721.0781" fill="#ADD1B2" rx="11" ry="11" style="stroke:#A80036;stroke-width:1.0;"/><path d="M4474,717.5781 Q4474.2031,717.0781 4474.4375,716.8281 Q4474.6719,716.5781 4474.9375,716.5781 Q4475.4063,716.5781 4475.7031,716.8594 Q4476,717.1406 4476,717.7969 L4476,719.3594 Q4476,720.0156 4475.7188,720.2969 Q4475.4375,720.5781 4475,720.5781 Q4474.6094,720.5781 4474.3594,720.4063 Q4474.1094,720.2344 4474,719.7813 Q4473.9531,719.4688 4473.7813,719.2969 Q4473.4688,718.9688 4472.9063,718.7813 Q4472.3438,718.5781 4471.7813,718.5781 Q4471.0781,718.5781 4470.4844,718.8594 Q4469.9063,719.1406 4469.4531,719.7656 Q4469,720.3906 4469,721.25 L4469,722.1719 Q4469,723.2031 4469.8438,723.8906 Q4470.6875,724.5781 4472.1875,724.5781 Q4473.0781,724.5781 4473.7031,724.375 Q4474.0625,724.2656 4474.4688,723.9063 Q4474.7344,723.7031 4474.875,723.6406 Q4475.0156,723.5781 4475.1875,723.5781 Q4475.5156,723.5781 4475.75,723.8438 Q4476,724.0938 4476,724.4531 Q4476,724.7969 4475.6563,725.2031 Q4475.1563,725.7969 4474.3594,726.125 Q4473.3125,726.5781 4472.0313,726.5781 Q4470.5313,726.5781 4469.3281,725.9844 Q4468.3594,725.5156 4467.6719,724.5 Q4467,723.4844 4467,722.2813 L4467,721.1875 Q4467,719.9375 4467.5938,718.8438 Q4468.2031,717.75 4469.25,717.1719 Q4470.3125,716.5781 4471.5,716.5781 Q4472.2188,716.5781 4472.8438,716.8281 Q4473.4688,717.0781 4474,717.5781 Z " fill="#000000"/><text fill="#000000" font-family="sans-serif" font-size="20" lengthAdjust="spacing" textLength="190" x="4490" y="729.2617">VaccinationCertificate</text><line style="stroke:#A80036;stroke-width:1.5;" x1="4458" x2="4686" y1="742.6563" y2="742.6563"/><!--MD5=[aaa7e27c4ec43917c82a021675d2c87a]
class WaitingRoom--><rect codeLine="106" fill="#FEFECE" filter="url(#fj0voomvxwcs9)" height="51.1563" id="WaitingRoom" style="stroke:#A80036;stroke-width:1.5;" width="157" x="7112" y="569.5"/><ellipse cx="7127" cy="591.0781" fill="#ADD1B2" rx="11" ry="11" style="stroke:#A80036;stroke-width:1.0;"/><path d="M7129,587.5781 Q7129.2031,587.0781 7129.4375,586.8281 Q7129.6719,586.5781 7129.9375,586.5781 Q7130.4063,586.5781 7130.7031,586.8594 Q7131,587.1406 7131,587.7969 L7131,589.3594 Q7131,590.0156 7130.7188,590.2969 Q7130.4375,590.5781 7130,590.5781 Q7129.6094,590.5781 7129.3594,590.4063 Q7129.1094,590.2344 7129,589.7813 Q7128.9531,589.4688 7128.7813,589.2969 Q7128.4688,588.9688 7127.9063,588.7813 Q7127.3438,588.5781 7126.7813,588.5781 Q7126.0781,588.5781 7125.4844,588.8594 Q7124.9063,589.1406 7124.4531,589.7656 Q7124,590.3906 7124,591.25 L7124,592.1719 Q7124,593.2031 7124.8438,593.8906 Q7125.6875,594.5781 7127.1875,594.5781 Q7128.0781,594.5781 7128.7031,594.375 Q7129.0625,594.2656 7129.4688,593.9063 Q7129.7344,593.7031 7129.875,593.6406 Q7130.0156,593.5781 7130.1875,593.5781 Q7130.5156,593.5781 7130.75,593.8438 Q7131,594.0938 7131,594.4531 Q7131,594.7969 7130.6563,595.2031 Q7130.1563,595.7969 7129.3594,596.125 Q7128.3125,596.5781 7127.0313,596.5781 Q7125.5313,596.5781 7124.3281,595.9844 Q7123.3594,595.5156 7122.6719,594.5 Q7122,593.4844 7122,592.2813 L7122,591.1875 Q7122,589.9375 7122.5938,588.8438 Q7123.2031,587.75 7124.25,587.1719 Q7125.3125,586.5781 7126.5,586.5781 Q7127.2188,586.5781 7127.8438,586.8281 Q7128.4688,587.0781 7129,587.5781 Z " fill="#000000"/><text fill="#000000" font-family="sans-serif" font-size="20" lengthAdjust="spacing" textLength="117" x="7145" y="599.2617">WaitingRoom</text><line style="stroke:#A80036;stroke-width:1.5;" x1="7113" x2="7268" y1="612.6563" y2="612.6563"/><!--MD5=[7421f545a0d8420c5bec41e74b387d9c]
class Employee--><rect codeLine="108" fill="#FEFECE" filter="url(#fj0voomvxwcs9)" height="182.1719" id="Employee" style="stroke:#A80036;stroke-width:1.5;" width="127" x="1455" y="182"/><ellipse cx="1470" cy="203.5781" fill="#ADD1B2" rx="11" ry="11" style="stroke:#A80036;stroke-width:1.0;"/><path d="M1472,200.0781 Q1472.2031,199.5781 1472.4375,199.3281 Q1472.6719,199.0781 1472.9375,199.0781 Q1473.4063,199.0781 1473.7031,199.3594 Q1474,199.6406 1474,200.2969 L1474,201.8594 Q1474,202.5156 1473.7188,202.7969 Q1473.4375,203.0781 1473,203.0781 Q1472.6094,203.0781 1472.3594,202.9063 Q1472.1094,202.7344 1472,202.2813 Q1471.9531,201.9688 1471.7813,201.7969 Q1471.4688,201.4688 1470.9063,201.2813 Q1470.3438,201.0781 1469.7813,201.0781 Q1469.0781,201.0781 1468.4844,201.3594 Q1467.9063,201.6406 1467.4531,202.2656 Q1467,202.8906 1467,203.75 L1467,204.6719 Q1467,205.7031 1467.8438,206.3906 Q1468.6875,207.0781 1470.1875,207.0781 Q1471.0781,207.0781 1471.7031,206.875 Q1472.0625,206.7656 1472.4688,206.4063 Q1472.7344,206.2031 1472.875,206.1406 Q1473.0156,206.0781 1473.1875,206.0781 Q1473.5156,206.0781 1473.75,206.3438 Q1474,206.5938 1474,206.9531 Q1474,207.2969 1473.6563,207.7031 Q1473.1563,208.2969 1472.3594,208.625 Q1471.3125,209.0781 1470.0313,209.0781 Q1468.5313,209.0781 1467.3281,208.4844 Q1466.3594,208.0156 1465.6719,207 Q1465,205.9844 1465,204.7813 L1465,203.6875 Q1465,202.4375 1465.5938,201.3438 Q1466.2031,200.25 1467.25,199.6719 Q1468.3125,199.0781 1469.5,199.0781 Q1470.2188,199.0781 1470.8438,199.3281 Q1471.4688,199.5781 1472,200.0781 Z " fill="#000000"/><text fill="#000000" font-family="sans-serif" font-size="20" lengthAdjust="spacing" textLength="87" x="1488" y="211.7617">Employee</text><line style="stroke:#A80036;stroke-width:1.5;" x1="1456" x2="1581" y1="225.1563" y2="225.1563"/><text fill="#000000" font-family="sans-serif" font-size="11" lengthAdjust="spacing" textLength="26" x="1465" y="244.5752">name</text><text fill="#000000" font-family="sans-serif" font-size="11" lengthAdjust="spacing" textLength="67" x="1465" y="266.4111">phoneNumber</text><text fill="#000000" font-family="sans-serif" font-size="11" lengthAdjust="spacing" textLength="40" x="1465" y="288.2471">address</text><text fill="#000000" font-family="sans-serif" font-size="11" lengthAdjust="spacing" textLength="66" x="1465" y="310.083">emailAddress</text><text fill="#000000" font-family="sans-serif" font-size="11" lengthAdjust="spacing" textLength="91" x="1465" y="331.9189">citizenCardNumber</text><text fill="#000000" font-family="sans-serif" font-size="11" lengthAdjust="spacing" textLength="53" x="1465" y="353.7549">companyID</text><!--MD5=[c69bd8cf61f0ea6cbb315ff1a0821c7e]
class UserHealthHistoric--><rect fill="#FEFECE" filter="url(#fj0voomvxwcs9)" height="51.1563" id="UserHealthHistoric" style="stroke:#A80036;stroke-width:1.5;" width="201" x="6282" y="694.5"/><ellipse cx="6297" cy="716.0781" fill="#ADD1B2" rx="11" ry="11" style="stroke:#A80036;stroke-width:1.0;"/><path d="M6299,712.5781 Q6299.2031,712.0781 6299.4375,711.8281 Q6299.6719,711.5781 6299.9375,711.5781 Q6300.4063,711.5781 6300.7031,711.8594 Q6301,712.1406 6301,712.7969 L6301,714.3594 Q6301,715.0156 6300.7188,715.2969 Q6300.4375,715.5781 6300,715.5781 Q6299.6094,715.5781 6299.3594,715.4063 Q6299.1094,715.2344 6299,714.7813 Q6298.9531,714.4688 6298.7813,714.2969 Q6298.4688,713.9688 6297.9063,713.7813 Q6297.3438,713.5781 6296.7813,713.5781 Q6296.0781,713.5781 6295.4844,713.8594 Q6294.9063,714.1406 6294.4531,714.7656 Q6294,715.3906 6294,716.25 L6294,717.1719 Q6294,718.2031 6294.8438,718.8906 Q6295.6875,719.5781 6297.1875,719.5781 Q6298.0781,719.5781 6298.7031,719.375 Q6299.0625,719.2656 6299.4688,718.9063 Q6299.7344,718.7031 6299.875,718.6406 Q6300.0156,718.5781 6300.1875,718.5781 Q6300.5156,718.5781 6300.75,718.8438 Q6301,719.0938 6301,719.4531 Q6301,719.7969 6300.6563,720.2031 Q6300.1563,720.7969 6299.3594,721.125 Q6298.3125,721.5781 6297.0313,721.5781 Q6295.5313,721.5781 6294.3281,720.9844 Q6293.3594,720.5156 6292.6719,719.5 Q6292,718.4844 6292,717.2813 L6292,716.1875 Q6292,714.9375 6292.5938,713.8438 Q6293.2031,712.75 6294.25,712.1719 Q6295.3125,711.5781 6296.5,711.5781 Q6297.2188,711.5781 6297.8438,711.8281 Q6298.4688,712.0781 6299,712.5781 Z " fill="#000000"/><text fill="#000000" font-family="sans-serif" font-size="20" lengthAdjust="spacing" textLength="161" x="6315" y="724.2617">UserHealthHistoric</text><line style="stroke:#A80036;stroke-width:1.5;" x1="6283" x2="6482" y1="737.6563" y2="737.6563"/><ellipse cx="6382.5" cy="657" fill="#000000" rx="2" ry="2" style="stroke:none;stroke-width:1.0;"/><ellipse cx="6382.5" cy="869" fill="#000000" rx="2" ry="2" style="stroke:none;stroke-width:1.0;"/><!--MD5=[6716344a46572fc99c27bf4e50ddbd3d]
reverse link Employee to Nurse--><path codeLine="117" d="M1598.99,331.35 C1673.97,380.55 1791.5,443 1905,443 C1905,443 1905,443 3424.5,443 C3565.95,443 3602.29,443.09 3742,421 C3852.62,403.51 3874.5,360 3986.5,360 C3986.5,360 3986.5,360 4763,360 C4956.68,360 5123.93,567.57 5177.27,641.35 " fill="none" id="Employee-backto-Nurse" style="stroke:#A80036;stroke-width:1.0;"/><polygon fill="none" points="1594.97,337.08,1582.26,320.13,1602.77,325.46,1594.97,337.08" style="stroke:#A80036;stroke-width:1.0;"/><!--MD5=[bfff716514ca687b645fe473c6e098a4]
reverse link Employee to Receptionist--><path codeLine="118" d="M1598.99,214.65 C1673.97,165.45 1791.5,103 1905,103 C1905,103 1905,103 4905.5,103 C5083.72,103 5166.91,370.94 5188.88,456.25 " fill="none" id="Employee-backto-Receptionist" style="stroke:#A80036;stroke-width:1.0;"/><polygon fill="none" points="1602.77,220.54,1582.26,225.87,1594.97,208.92,1602.77,220.54" style="stroke:#A80036;stroke-width:1.0;"/><!--MD5=[738a6f70211648d778fec4b79664b2f5]
link CenterCoordinator to Employee--><path codeLine="119" d="M139.04,511.37 C188.98,471.46 293.8,399 396.5,399 C396.5,399 396.5,399 1106,399 C1224.92,399 1355.04,350.29 1436.46,313.44 " fill="none" id="CenterCoordinator-to-Employee" style="stroke:#A80036;stroke-width:1.0;"/><polygon fill="none" points="1433.73,306.99,1454.82,304.96,1439.6,319.7,1433.73,306.99" style="stroke:#A80036;stroke-width:1.0;"/><!--MD5=[98843e815386fb19a65c4c349019f4be]
link VaccinationCenter to Company--><path codeLine="121" d="M1380.46,629.49 C1596.01,639.28 2102.6,662.29 2277.7,670.24 " fill="none" id="VaccinationCenter-Company" style="stroke:#A80036;stroke-width:1.0;"/><polygon fill="#000000" points="1657.0051,628.9489,1665.9076,632.2952,1666.1743,626.4234,1657.0051,628.9489" style="stroke:#000000;stroke-width:1.0;"/><text fill="#000000" font-family="sans-serif" font-size="13" lengthAdjust="spacing" textLength="53" x="1675" y="634.4951">manages</text><text fill="#000000" font-family="sans-serif" font-size="13" lengthAdjust="spacing" textLength="5" x="1391.9455" y="648.174">*</text><text fill="#000000" font-family="sans-serif" font-size="13" lengthAdjust="spacing" textLength="7" x="2259.1203" y="688.7654">1</text><!--MD5=[05986564e1c13a00611587b35563d868]
link Company to VaccineType--><path codeLine="122" d="M2401.06,674.95 C2555.85,679.92 2965.78,693.1 3135.87,698.57 " fill="none" id="Company-VaccineType" style="stroke:#A80036;stroke-width:1.0;"/><polygon fill="#000000" points="2668.9974,670.3364,2660.0514,667.1084,2659.8626,672.9832,2668.9974,670.3364" style="stroke:#000000;stroke-width:1.0;"/><text fill="#000000" font-family="sans-serif" font-size="13" lengthAdjust="spacing" textLength="67" x="2677" y="675.4951">administers</text><text fill="#000000" font-family="sans-serif" font-size="13" lengthAdjust="spacing" textLength="7" x="2413.0451" y="694.0789">1</text><text fill="#000000" font-family="sans-serif" font-size="13" lengthAdjust="spacing" textLength="5" x="3118.9467" y="717.01">*</text><!--MD5=[2ca22bd8a754609e49e7920ac627679b]
link HealthcareCenter to VaccinationCenter--><path codeLine="124" d="M976.8,808.37 C1023.04,780.37 1099.1,734.29 1163.41,695.33 " fill="none" id="HealthcareCenter-to-VaccinationCenter" style="stroke:#A80036;stroke-width:1.0;"/><polygon fill="none" points="1160.03,689.19,1180.77,684.81,1167.29,701.16,1160.03,689.19" style="stroke:#A80036;stroke-width:1.0;"/><!--MD5=[6cb3a2baddbe90cc101a2528c7285dc5]
reverse link VaccinationCenter to CommunityCenter--><path codeLine="125" d="M1400.55,618.13 C1518.84,611.3 1698.02,600.95 1807.95,594.6 " fill="none" id="VaccinationCenter-backto-CommunityCenter" style="stroke:#A80036;stroke-width:1.0;"/><polygon fill="none" points="1400.67,625.13,1380.3,619.3,1399.86,611.15,1400.67,625.13" style="stroke:#A80036;stroke-width:1.0;"/><!--MD5=[759c7f6dbf62b13e16002bff783a0fa8]
link VaccinationCenter to Vaccine--><path codeLine="126" d="M1380.19,664.87 C1404.42,673.85 1430.45,682.83 1455,690 C1681.04,756 1957.87,802.37 2078.7,820.96 " fill="none" id="VaccinationCenter-Vaccine" style="stroke:#A80036;stroke-width:1.0;"/><polygon fill="#000000" points="1672.8797,730.2662,1664.6932,725.4254,1663.4114,731.1618,1672.8797,730.2662" style="stroke:#000000;stroke-width:1.0;"/><text fill="#000000" font-family="sans-serif" font-size="13" lengthAdjust="spacing" textLength="41" x="1681" y="734.4951">applies</text><text fill="#000000" font-family="sans-serif" font-size="13" lengthAdjust="spacing" textLength="7" x="1392.0618" y="686.205">1</text><text fill="#000000" font-family="sans-serif" font-size="13" lengthAdjust="spacing" textLength="5" x="2062.175" y="838.8066">*</text><!--MD5=[63959dc3b8de7f99f07ea41b8e53c850]
link Report to VaccinationCenter--><path codeLine="127" d="M686.33,543.24 C771.84,554.11 953.1,577.44 1106,599 C1130.28,602.42 1156.44,606.26 1180.91,609.92 " fill="none" id="Report-VaccinationCenter" style="stroke:#A80036;stroke-width:1.0;"/><polygon fill="#000000" points="902.0448,548.5077,910.6161,552.6288,911.4015,546.8037,902.0448,548.5077" style="stroke:#000000;stroke-width:1.0;"/><text fill="#000000" font-family="sans-serif" font-size="13" lengthAdjust="spacing" textLength="40" x="920" y="554.4951">reports</text><text fill="#000000" font-family="sans-serif" font-size="13" lengthAdjust="spacing" textLength="5" x="697.9665" y="563.1992">*</text><text fill="#000000" font-family="sans-serif" font-size="13" lengthAdjust="spacing" textLength="7" x="1162.0456" y="601.4571">1</text><!--MD5=[3568623adf67b2630dce9e60c05bd02a]
link Vaccine to VaccineType--><path codeLine="129" d="M2203.18,819.49 C2226.55,815.63 2253.48,811.39 2278,808 C2595.93,764.09 2976.57,724.47 3135.72,708.48 " fill="none" id="Vaccine-VaccineType" style="stroke:#A80036;stroke-width:1.0;"/><polygon fill="#000000" points="2697.4649,735.5848,2688.1359,733.7356,2688.8307,739.5723,2697.4649,735.5848" style="stroke:#000000;stroke-width:1.0;"/><text fill="#000000" font-family="sans-serif" font-size="13" lengthAdjust="spacing" textLength="10" x="2705.5" y="741.4951">is</text><text fill="#000000" font-family="sans-serif" font-size="13" lengthAdjust="spacing" textLength="5" x="2215.1211" y="810.4118">*</text><text fill="#000000" font-family="sans-serif" font-size="13" lengthAdjust="spacing" textLength="7" x="3116.9504" y="727.8026">1</text><!--MD5=[9bd6858dc1902593544df99848a7a23f]
link Vaccine to VaccineAdministration--><path codeLine="130" d="M2203.13,851.48 C2278.69,876.07 2411.67,913 2529,913 C2529,913 2529,913 5197,913 C5304.8,913 5426.97,899.27 5513.81,887.15 " fill="none" id="Vaccine-VaccineAdministration" style="stroke:#A80036;stroke-width:1.0;"/><polygon fill="#000000" points="3971.0003,900.1219,3980.0132,903.1581,3980.0765,897.2806,3971.0003,900.1219" style="stroke:#000000;stroke-width:1.0;"/><text fill="#000000" font-family="sans-serif" font-size="13" lengthAdjust="spacing" textLength="10" x="3989" y="905.4951">of</text><text fill="#000000" font-family="sans-serif" font-size="13" lengthAdjust="spacing" textLength="7" x="2215.181" y="872.8756">1</text><text fill="#000000" font-family="sans-serif" font-size="13" lengthAdjust="spacing" textLength="5" x="5496.9502" y="906.5934">*</text><!--MD5=[d25330f5b1a84b30603864e2663a2d50]
link Vaccine to SNSUser--><path codeLine="131" d="M2203.33,831.02 C2279.64,832.21 2413.94,834 2529,834 C2529,834 2529,834 4158,834 C4308.49,834 4439.56,700.96 4511.74,609.76 " fill="none" id="Vaccine-SNSUser" style="stroke:#A80036;stroke-width:1.0;"/><polygon fill="#000000" points="3373.9772,820.6987,3364.693,818.6362,3365.2538,824.4873,3373.9772,820.6987" style="stroke:#000000;stroke-width:1.0;"/><text fill="#000000" font-family="sans-serif" font-size="13" lengthAdjust="spacing" textLength="96" x="3382" y="826.4951">administrated on</text><text fill="#000000" font-family="sans-serif" font-size="13" lengthAdjust="spacing" textLength="5" x="2214.8583" y="849.967">*</text><text fill="#000000" font-family="sans-serif" font-size="13" lengthAdjust="spacing" textLength="7" x="4492.9053" y="638.3567">1</text><!--MD5=[1fe780c5042c93c38b83d74528355a6b]
link VaccinationCenter to VaccineSchedule--><path codeLine="132" d="M1380.37,582.72 C1462.71,551.35 1583.87,514 1694,514 C1694,514 1694,514 3651,514 C3732.74,514 3825.62,517.6 3892.89,520.86 " fill="none" id="VaccinationCenter-VaccineSchedule" style="stroke:#A80036;stroke-width:1.0;"/><polygon fill="#000000" points="2681.4985,501.0527,2672.3838,498.3373,2672.5285,504.2134,2681.4985,501.0527" style="stroke:#000000;stroke-width:1.0;"/><text fill="#000000" font-family="sans-serif" font-size="13" lengthAdjust="spacing" textLength="42" x="2689.5" y="506.4951">fulfilling</text><text fill="#000000" font-family="sans-serif" font-size="13" lengthAdjust="spacing" textLength="22" x="1392.0878" y="598.2088">0..1</text><text fill="#000000" font-family="sans-serif" font-size="13" lengthAdjust="spacing" textLength="22" x="3858.8405" y="538.8595">0..1</text><!--MD5=[fdb0462459be258e57aee1970456a956]
link VaccineType to Dose--><path codeLine="133" d="M3289.36,704.66 C3381.48,709.1 3533.6,716.44 3606.92,719.97 " fill="none" id="VaccineType-Dose" style="stroke:#A80036;stroke-width:1.0;"/><polygon fill="#000000" points="3411.4942,695.4166,3402.6011,692.0455,3402.3181,697.9165,3411.4942,695.4166" style="stroke:#000000;stroke-width:1.0;"/><text fill="#000000" font-family="sans-serif" font-size="13" lengthAdjust="spacing" textLength="21" x="3419.5" y="700.4951">has</text><text fill="#000000" font-family="sans-serif" font-size="13" lengthAdjust="spacing" textLength="7" x="3300.8733" y="723.5805">1</text><text fill="#000000" font-family="sans-serif" font-size="13" lengthAdjust="spacing" textLength="5" x="3590.0182" y="739.1089">*</text><!--MD5=[195cd4b2065cc6507c3064f693e1e4c8]
link Nurse to VaccineAdministration--><path codeLine="134" d="M5241.6,687.86 C5308.54,719.16 5436.77,779.11 5527.32,821.46 " fill="none" id="Nurse-VaccineAdministration" style="stroke:#A80036;stroke-width:1.0;"/><polygon fill="#000000" points="5345.4707,723.0579,5352.4194,729.5514,5354.9091,724.2269,5345.4707,723.0579" style="stroke:#000000;stroke-width:1.0;"/><text fill="#000000" font-family="sans-serif" font-size="13" lengthAdjust="spacing" textLength="71" x="5363" y="730.4951">executed by</text><text fill="#000000" font-family="sans-serif" font-size="13" lengthAdjust="spacing" textLength="5" x="5253.5778" y="710.4018">*</text><text fill="#000000" font-family="sans-serif" font-size="13" lengthAdjust="spacing" textLength="7" x="5500.8259" y="806.6191">1</text><!--MD5=[fadf3c4cc459913b8138733d6e23cb41]
link HealthcareCenter to VaccineType--><path codeLine="137" d="M963.48,859.82 C1019.98,907.38 1150.63,1004 1279.5,1004 C1279.5,1004 1279.5,1004 1907,1004 C2209.27,1004 2290.68,1012 2584,939 C2789.49,887.86 3019.49,789.37 3135.62,736.54 " fill="none" id="HealthcareCenter-VaccineType" style="stroke:#A80036;stroke-width:1.0;"/><polygon fill="#000000" points="2096.992,987.8925,2087.7949,985.4708,2088.1279,991.3392,2096.992,987.8925" style="stroke:#000000;stroke-width:1.0;"/><text fill="#000000" font-family="sans-serif" font-size="13" lengthAdjust="spacing" textLength="85" x="2105" y="993.4951">can administer</text><text fill="#000000" font-family="sans-serif" font-size="13" lengthAdjust="spacing" textLength="5" x="959.3228" y="885.1356">*</text><text fill="#000000" font-family="sans-serif" font-size="13" lengthAdjust="spacing" textLength="5" x="3118.9334" y="758.4494">*</text><!--MD5=[ac72c331c222beb829dc6bd1c1d7ffe6]
link CommunityCenter to VaccineType--><path codeLine="138" d="M2004.25,590.42 C2091.71,591.57 2223.69,593 2338.5,593 C2338.5,593 2338.5,593 2825,593 C2936.3,593 3059.2,635.06 3135.88,666.68 " fill="none" id="CommunityCenter-VaccineType" style="stroke:#A80036;stroke-width:1.0;"/><polygon fill="#000000" points="2485.9887,580.512,2477.1617,576.9715,2476.7665,582.8361,2485.9887,580.512" style="stroke:#000000;stroke-width:1.0;"/><text fill="#000000" font-family="sans-serif" font-size="13" lengthAdjust="spacing" textLength="85" x="2494" y="585.4951">can administer</text><text fill="#000000" font-family="sans-serif" font-size="13" lengthAdjust="spacing" textLength="5" x="2015.9426" y="608.9078">*</text><text fill="#000000" font-family="sans-serif" font-size="13" lengthAdjust="spacing" textLength="7" x="3117.1252" y="682.1492">1</text><!--MD5=[8d58cf1c2119791001cf5144e9295faa]
link VaccinationCenter to CenterCoordinator--><path codeLine="141" d="M1180.98,625 C1111.97,625 1017.61,625 934.5,625 C396.5,625 396.5,625 396.5,625 C310.5,625 216.12,588.55 159.76,562.57 " fill="none" id="VaccinationCenter-CenterCoordinator" style="stroke:#A80036;stroke-width:1.0;"/><polygon fill="#000000" points="600.9907,612.4809,592.1418,608.9955,591.7831,614.8624,600.9907,612.4809" style="stroke:#000000;stroke-width:1.0;"/><text fill="#000000" font-family="sans-serif" font-size="13" lengthAdjust="spacing" textLength="67" x="609" y="617.4951">coordinates</text><text fill="#000000" font-family="sans-serif" font-size="13" lengthAdjust="spacing" textLength="7" x="1162.1207" y="643.4071">1</text><text fill="#000000" font-family="sans-serif" font-size="13" lengthAdjust="spacing" textLength="7" x="158.4419" y="588.3049">1</text><!--MD5=[c0e5ad50a2b6f78d67c9ec501d1860d0]
link CenterCoordinator to Report--><path codeLine="142" d="M209.17,537 C321.85,537 500.25,537 585.92,537 " fill="none" id="CenterCoordinator-Report" style="stroke:#A80036;stroke-width:1.0;"/><polygon fill="#000000" points="370,524.1758,360.9549,521.2369,360.9549,527.1147,370,524.1758" style="stroke:#000000;stroke-width:1.0;"/><text fill="#000000" font-family="sans-serif" font-size="13" lengthAdjust="spacing" textLength="52" x="378" y="529.4951">analyses</text><text fill="#000000" font-family="sans-serif" font-size="13" lengthAdjust="spacing" textLength="5" x="221.077" y="555.3835">*</text><text fill="#000000" font-family="sans-serif" font-size="13" lengthAdjust="spacing" textLength="5" x="568.9634" y="556.1964">*</text><!--MD5=[8f7dd94d56b58fc07b233ccd3dd98f8c]
link Administrator to Employee--><path codeLine="144" d="M1331.26,177.51 C1367.23,195.96 1416.1,221.01 1454.75,240.83 " fill="none" id="Administrator-Employee" style="stroke:#A80036;stroke-width:1.0;"/><polygon fill="#000000" points="1240.4492,224.1071,1233.7415,217.365,1231.0596,222.5953,1240.4492,224.1071" style="stroke:#000000;stroke-width:1.0;"/><text fill="#000000" font-family="sans-serif" font-size="13" lengthAdjust="spacing" textLength="138" x="1249" y="227.1451">registers and configures</text><text fill="#000000" font-family="sans-serif" font-size="13" lengthAdjust="spacing" textLength="7" x="1329.7231" y="203.2318">1</text><text fill="#000000" font-family="sans-serif" font-size="13" lengthAdjust="spacing" textLength="5" x="1438.0664" y="256.1289">*</text><!--MD5=[d497e8607f1e7b3d570c70d67196006d]
link Administrator to VaccinationCenter--><path codeLine="145" d="M1280.5,177.74 C1280.5,235.83 1280.5,380.56 1280.5,489.77 " fill="none" id="Administrator-VaccinationCenter" style="stroke:#A80036;stroke-width:1.0;"/><polygon fill="#000000" points="1189,338.9258,1191.9389,329.8807,1186.0611,329.8807,1189,338.9258" style="stroke:#000000;stroke-width:1.0;"/><text fill="#000000" font-family="sans-serif" font-size="13" lengthAdjust="spacing" textLength="138" x="1202" y="339.2451">registers and configures</text><text fill="#000000" font-family="sans-serif" font-size="13" lengthAdjust="spacing" textLength="7" x="1267.9531" y="203.0391">1</text><text fill="#000000" font-family="sans-serif" font-size="13" lengthAdjust="spacing" textLength="5" x="1271.1445" y="475.2363">*</text><!--MD5=[2b5fc2dce8eec1aafb1a3721aa50d3a4]
link Administrator to SNSUser--><path codeLine="146" d="M1333.81,126.4 C1410.77,91.16 1559.94,32 1694,32 C1694,32 1694,32 4158,32 C4355.45,32 4477.04,267.15 4533.45,412.98 " fill="none" id="Administrator-SNSUser" style="stroke:#A80036;stroke-width:1.0;"/><polygon fill="#000000" points="2909.9801,19.6218,2901.2332,15.8877,2900.7089,21.7421,2909.9801,19.6218" style="stroke:#000000;stroke-width:1.0;"/><text fill="#000000" font-family="sans-serif" font-size="13" lengthAdjust="spacing" textLength="138" x="2918" y="24.4951">registers and configures</text><text fill="#000000" font-family="sans-serif" font-size="13" lengthAdjust="spacing" textLength="7" x="1332.8309" y="111.6915">1</text><text fill="#000000" font-family="sans-serif" font-size="13" lengthAdjust="spacing" textLength="5" x="4521.4232" y="398.0924">*</text><!--MD5=[4199e571ecf4f955a781f82efeea42b0]
link SNSUser to VaccinationCertificate--><path codeLine="148" d="M4572,639.4 C4572,661.96 4572,683.54 4572,699.39 " fill="none" id="SNSUser-VaccinationCertificate" style="stroke:#A80036;stroke-width:1.0;"/><polygon fill="#000000" points="4524.5,674.4258,4527.4389,665.3807,4521.5611,665.3807,4524.5,674.4258" style="stroke:#000000;stroke-width:1.0;"/><text fill="#000000" font-family="sans-serif" font-size="13" lengthAdjust="spacing" textLength="50" x="4537.5" y="674.7451">requests</text><text fill="#000000" font-family="sans-serif" font-size="13" lengthAdjust="spacing" textLength="7" x="4560.5664" y="664.1595">1</text><text fill="#000000" font-family="sans-serif" font-size="13" lengthAdjust="spacing" textLength="7" x="4559.3594" y="684.6793">1</text><!--MD5=[8e51fd2526d7ed1449c2aa4f1c32bf49]
link VaccineSchedule to SNSUser--><path codeLine="150" d="M4082.09,526 C4203.17,526 4410.55,526 4511.84,526 " fill="none" id="VaccineSchedule-SNSUser" style="stroke:#A80036;stroke-width:1.0;"/><polygon fill="#000000" points="4243,513.1758,4233.9549,510.2369,4233.9549,516.1147,4243,513.1758" style="stroke:#000000;stroke-width:1.0;"/><text fill="#000000" font-family="sans-serif" font-size="13" lengthAdjust="spacing" textLength="50" x="4251" y="518.4951">made for</text><text fill="#000000" font-family="sans-serif" font-size="13" lengthAdjust="spacing" textLength="5" x="4094.1456" y="544.452">*</text><text fill="#000000" font-family="sans-serif" font-size="13" lengthAdjust="spacing" textLength="7" x="4493.0168" y="544.912">1</text><!--MD5=[f6be7cdc65b3bb5ddb6a4a4767df2d99]
link VaccineType to VaccineSchedule--><path codeLine="151" d="M3289.03,683.9 C3431.11,651.74 3737.78,582.31 3892.77,547.22 " fill="none" id="VaccineType-VaccineSchedule" style="stroke:#A80036;stroke-width:1.0;"/><polygon fill="#000000" points="3605.1234,569.2798,3614.5942,570.149,3613.2963,564.4162,3605.1234,569.2798" style="stroke:#000000;stroke-width:1.0;"/><text fill="#000000" font-family="sans-serif" font-size="13" lengthAdjust="spacing" textLength="67" x="3623" y="573.4951">administers</text><text fill="#000000" font-family="sans-serif" font-size="13" lengthAdjust="spacing" textLength="22" x="3300.8959" y="674.9239">0..1</text><text fill="#000000" font-family="sans-serif" font-size="13" lengthAdjust="spacing" textLength="7" x="3873.943" y="567.2591">1</text><!--MD5=[9c3cd67dac7b49ab3c0a1c71a5351391]
link SNSUser to Receptionist--><path codeLine="153" d="M4632.08,521.82 C4746.25,513.74 4996.9,496.01 5121.58,487.19 " fill="none" id="SNSUser-Receptionist" style="stroke:#A80036;stroke-width:1.0;"/><polygon fill="#000000" points="4842.5125,484.5286,4851.7424,486.8219,4851.3276,480.9587,4842.5125,484.5286" style="stroke:#000000;stroke-width:1.0;"/><text fill="#000000" font-family="sans-serif" font-size="13" lengthAdjust="spacing" textLength="101" x="4860.5" y="489.4951">registers arrival of</text><text fill="#000000" font-family="sans-serif" font-size="13" lengthAdjust="spacing" textLength="5" x="4644.1944" y="540.2991">*</text><text fill="#000000" font-family="sans-serif" font-size="13" lengthAdjust="spacing" textLength="5" x="5105.1202" y="506.2788">*</text><!--MD5=[4b1cbd5f2b82fe473c8138e32680fa60]
link Receptionist to VaccineSchedule--><path codeLine="154" d="M5176.49,507.78 C5141.59,554.56 5061.4,653.58 4971,708 C4858.02,776.02 4817.46,774.68 4687,794 C4585.88,808.97 4555.79,820.26 4457,794 C4315.5,756.39 4172.2,664.85 4082.01,599.23 " fill="none" id="Receptionist-VaccineSchedule" style="stroke:#A80036;stroke-width:1.0;"/><polygon fill="#000000" points="4536.0174,781.5921,4545.2757,783.7677,4544.7863,777.9102,4536.0174,781.5921" style="stroke:#000000;stroke-width:1.0;"/><text fill="#000000" font-family="sans-serif" font-size="13" lengthAdjust="spacing" textLength="49" x="4554" y="786.4951">confirms</text><text fill="#000000" font-family="sans-serif" font-size="13" lengthAdjust="spacing" textLength="5" x="5162.1254" y="533.0874">*</text><text fill="#000000" font-family="sans-serif" font-size="13" lengthAdjust="spacing" textLength="5" x="4094.0592" y="623.5175">*</text><!--MD5=[120e6d7c8a557e6251338e72fb523695]
link Receptionist to WaitingRoom--><path codeLine="155" d="M5270.06,496.21 C5355.7,511.61 5502.09,534 5629,534 C5629,534 5629,534 6874.5,534 C6956.66,534 7048.72,554.25 7111.99,571.42 " fill="none" id="Receptionist-WaitingRoom" style="stroke:#A80036;stroke-width:1.0;"/><polygon fill="#000000" points="6325.9958,521.3798,6317.0782,518.0743,6316.8384,523.9472,6325.9958,521.3798" style="stroke:#000000;stroke-width:1.0;"/><text fill="#000000" font-family="sans-serif" font-size="13" lengthAdjust="spacing" textLength="110" x="6334" y="526.4951">sends SNS user to</text><text fill="#000000" font-family="sans-serif" font-size="13" lengthAdjust="spacing" textLength="20" x="5281.9028" y="516.0481">1..*</text><text fill="#000000" font-family="sans-serif" font-size="13" lengthAdjust="spacing" textLength="20" x="7080.0399" y="587.9284">1..*</text><!--MD5=[e3e87474fe5607c3af4ad2372a2e0793]
link Nurse to apoint11028--><path d="M5241.63,666.62 C5453.12,664.84 6345.67,657.3 6380.45,657.01 " fill="none" id="Nurse-apoint11028" style="stroke:#A80036;stroke-width:1.0;"/><polygon fill="#000000" points="5830.9998,647.1336,5821.9303,644.2711,5821.9799,650.1487,5830.9998,647.1336" style="stroke:#000000;stroke-width:1.0;"/><text fill="#000000" font-family="sans-serif" font-size="13" lengthAdjust="spacing" textLength="110" x="5839" y="652.4951">sends SNS user to</text><text fill="#000000" font-family="sans-serif" font-size="13" lengthAdjust="spacing" textLength="5" x="5253.6124" y="685.9094">*</text><!--MD5=[a0e36456037a03f2b5ed011542998e58]
link apoint11028 to WaitingRoom--><path d="M6384.81,656.9 C6413.75,654.67 6915.36,616.09 7111.65,600.99 " fill="none" id="apoint11028-WaitingRoom" style="stroke:#A80036;stroke-width:1.0;"/><text fill="#000000" font-family="sans-serif" font-size="13" lengthAdjust="spacing" textLength="20" x="7079.9609" y="619.983">1..*</text><!--MD5=[073bd065687404cc9cdaac5ac10a4d88]
link apoint11028 to UserHealthHistoric--><path d="M6382.5,659.05 C6382.5,670.83 6382.5,682.62 6382.5,694.41 " fill="none" id="apoint11028-UserHealthHistoric" style="stroke:#A80036;stroke-width:1.0;stroke-dasharray:7.0,7.0;"/><!--MD5=[af39a9728ae42892cc1cca452613b5da]
link VaccinationCertificate to Nurse--><path codeLine="159" d="M4687.08,714.36 C4826.14,701.39 5054.43,680.11 5150.35,671.16 " fill="none" id="VaccinationCertificate-Nurse" style="stroke:#A80036;stroke-width:1.0;"/><polygon fill="#000000" points="4838.0216,674.64,4847.3005,676.7264,4846.7547,670.874,4838.0216,674.64" style="stroke:#000000;stroke-width:1.0;"/><text fill="#000000" font-family="sans-serif" font-size="13" lengthAdjust="spacing" textLength="110" x="4856" y="679.4951">issues and delivers</text><text fill="#000000" font-family="sans-serif" font-size="13" lengthAdjust="spacing" textLength="5" x="4698.8687" y="731.9485">*</text><text fill="#000000" font-family="sans-serif" font-size="13" lengthAdjust="spacing" textLength="7" x="5131.5436" y="691.043">1</text><!--MD5=[345801d1b8e36aa8d139c59d4deac3dc]
link VaccineAdministration to apoint11036--><path d="M5746.21,869 C5950.02,869 6355.15,869 6380.27,869 " fill="none" id="VaccineAdministration-apoint11036" style="stroke:#A80036;stroke-width:1.0;"/><polygon fill="#000000" points="6039,856.1758,6029.9549,853.2369,6029.9549,859.1147,6039,856.1758" style="stroke:#000000;stroke-width:1.0;"/><text fill="#000000" font-family="sans-serif" font-size="13" lengthAdjust="spacing" textLength="79" x="6047" y="861.4951">sends user to</text><text fill="#000000" font-family="sans-serif" font-size="13" lengthAdjust="spacing" textLength="5" x="5758.0711" y="887.2806">*</text><!--MD5=[a829d4182a32f49325800c9f519311ca]
link apoint11036 to RecoveryRoom--><path d="M6384.9,869 C6405.64,869 6651.37,869 6785.84,869 " fill="none" id="apoint11036-RecoveryRoom" style="stroke:#A80036;stroke-width:1.0;"/><text fill="#000000" font-family="sans-serif" font-size="13" lengthAdjust="spacing" textLength="7" x="6766.9596" y="887.5037">1</text><!--MD5=[99fed3af7656b0d99301387b06fbc571]
link apoint11036 to AdverseReaction--><path d="M6382.5,871.05 C6382.5,882.83 6382.5,894.62 6382.5,906.41 " fill="none" id="apoint11036-AdverseReaction" style="stroke:#A80036;stroke-width:1.0;stroke-dasharray:7.0,7.0;"/><!--MD5=[ecc31a84e2534092f0eabbadf1526e79]
link Notification to VaccineSchedule--><path codeLine="163" d="M3280.75,290.44 C3418.86,336.54 3734.74,441.97 3892.8,494.73 " fill="none" id="Notification-VaccineSchedule" style="stroke:#A80036;stroke-width:1.0;"/><polygon fill="#000000" points="3622.7572,368.5927,3630.4065,374.2442,3632.2675,368.6688,3622.7572,368.5927" style="stroke:#000000;stroke-width:1.0;"/><text fill="#000000" font-family="sans-serif" font-size="13" lengthAdjust="spacing" textLength="32" x="3640.5" y="375.4951">emits</text><text fill="#000000" font-family="sans-serif" font-size="13" lengthAdjust="spacing" textLength="22" x="3292.4246" y="311.1191">0..1</text><text fill="#000000" font-family="sans-serif" font-size="13" lengthAdjust="spacing" textLength="7" x="3873.9753" y="510.7504">1</text><!--MD5=[0e746bf0fb50d7a50210c7c405534661]
reverse link Notification to SMSNotification--><path codeLine="165" d="M3300.44,250.83 C3375.82,235.95 3484.45,214.5 3560.33,199.51 " fill="none" id="Notification-backto-SMSNotification" style="stroke:#A80036;stroke-width:1.0;"/><polygon fill="none" points="3301.57,257.74,3280.59,254.75,3298.86,244.01,3301.57,257.74" style="stroke:#A80036;stroke-width:1.0;"/><!--MD5=[a069fefa93fe627f96a6b9d57d25b567]
reverse link Notification to EmailNotification--><path codeLine="166" d="M3300.72,268 C3375.31,268 3482.28,268 3557.95,268 " fill="none" id="Notification-backto-EmailNotification" style="stroke:#A80036;stroke-width:1.0;"/><polygon fill="none" points="3300.59,275,3280.59,268,3300.59,261,3300.59,275" style="stroke:#A80036;stroke-width:1.0;"/><!--MD5=[fd2a485e171ca8cc47f2539fc4ee031f]
@startuml
left to right direction
hide methods
skinparam classFontSize 20
skinparam padding 4
skinparam ranksep 150

class HealthcareCenter{
}

class Report

class CenterCoordinator{
}

class Company{
designation
}

class Administrator

class Vaccine{
Id
Name
Brand
Vaccine Type
Age Group
Dose Number
Vaccine Dosage
Time Since Last Dose
}

class VaccineSchedule{
date
time
userNumber
vaccinationCenter
scheduleVerification
}

class Receptionist


class SNSUser{
name
address
gender
phoneNumber
birthDate
emailAddress
snsUserNumber
citizenCardNumber
}

class Notification

class SMSNotification

class EmailNotification

class Report

class Dose{
age
dosage
timeInterval
}

class VaccineAdministration{
designation
ageGroup
}

class Nurse

class AdverseReaction

class RecoveryRoom{
listUsers
}


class CommunityCenter{
}

class VaccinationCenter{
name
phoneNumber
faxNumber
homeAddress
emailAddress
websiteAddress
openingHours
closingHours
slotDuration
maxNumVaccinesPerSlot
}

class VaccineType{
code
designation
vaccineTechnology
}

class VaccinationCertificate

class WaitingRoom

class Employee{
name
phoneNumber
address
emailAddress
citizenCardNumber
companyID
}

Employee <|-down- Nurse
Employee <|-down- Receptionist
Employee <|-up- CenterCoordinator

Company "1" -up- - "*" VaccinationCenter : manages >
Company "1" -down- - "*" VaccineType : administers >

VaccinationCenter <|-up- HealthcareCenter
VaccinationCenter <|- - CommunityCenter
VaccinationCenter "1" -down- - "*"Vaccine : applies >
VaccinationCenter "1" -up- - "*" Report : reports >

Vaccine "*" -down- - - "1" VaccineType : is >
Vaccine "1" -down- - "*" VaccineAdministration : of <
Vaccine "*" -down- - "1" SNSUser : > administrated on
VaccinationCenter "0..1" -right- "0..1" VaccineSchedule : > fulfilling
VaccineType "1" -down- "*" Dose : has >
VaccineAdministration "1" -up- "*" Nurse : executed by >


HealthcareCenter "*" -down- "*" VaccineType : can administer >
CommunityCenter "*" -right- "1" VaccineType : can administer >


CenterCoordinator "1" -left- "1" VaccinationCenter : coordinates >
CenterCoordinator "*" - - - "*" Report : analyses >

Administrator "1" -right- "*" Employee : registers and configures >
Administrator "1" -right- "*" VaccinationCenter : registers and configures >
Administrator "1" -down- "*" SNSUser : registers and configures >

SNSUser "1" -right- - "1" VaccinationCertificate : requests >

VaccineSchedule "*" -down- - "1" SNSUser : made for >
VaccineSchedule "1" -up- - "0..1" VaccineType : administers >

Receptionist "*" -up- - "*" SNSUser : registers arrival of >
Receptionist "*" -down- - - "*" VaccineSchedule : confirms >
Receptionist "1..*"-right- - "1..*"WaitingRoom : sends SNS user to >

Nurse "*" -down- - - "1..*" WaitingRoom : sends SNS user to >
(Nurse, WaitingRoom) .. UserHealthHistoric
Nurse "1" -up- - "*" VaccinationCertificate : issues and delivers >
VaccineAdministration "*" -down- - "1" RecoveryRoom : sends user to >
(VaccineAdministration, RecoveryRoom) .. AdverseReaction

VaccineSchedule "1" -up- - "0..1" Notification : emits >

Notification <|- - SMSNotification
Notification <|- - EmailNotification
@enduml

PlantUML version 1.2022.1(Tue Feb 01 18:19:58 GMT 2022)
(GPL source distribution)
Java Runtime: OpenJDK Runtime Environment
JVM: OpenJDK 64-Bit Server VM
Default Encoding: Cp1252
Language: pt
Country: PT
--></g></svg>